<svg width="16" height="21" viewBox="0 0 16 21" fill="none" xmlns="http://www.w3.org/2000/svg">
<path d="M1.19995 9.93616C1.19995 10.7282 2.27995 11.2562 3.95995 11.4962C4.17595 10.1762 4.41595 8.85616 4.65595 7.75216C3.07195 7.87216 1.19995 8.92816 1.19995 9.93616ZM9.50395 8.76016L9.74395 8.42416C13.752 9.96016 15.792 12.4082 15.792 15.3602C15.792 17.8322 13.872 20.9042 8.97595 20.9042C5.20795 20.9042 3.50395 18.7682 3.50395 15.7442C3.50395 15.2162 3.55195 14.5922 3.62395 13.8722C1.39195 13.2482 0.119953 11.9042 0.119953 10.4642C0.119953 9.09616 1.31995 7.75216 2.95195 6.81616C2.39995 6.62416 1.91995 6.43216 1.39195 6.00016C0.671953 5.42416 0.191953 4.72816 -4.68493e-05 3.14416L0.287953 2.97616C0.839953 3.74416 1.48795 4.44016 2.56795 4.82416C3.50395 5.13616 4.41595 5.28016 5.25595 5.32816C5.66395 3.76816 5.92795 2.71216 5.95195 2.20816C5.97595 1.65616 5.71195 1.39216 5.30395 1.12816C4.99195 0.960164 4.60795 0.792163 4.24795 0.672163L4.27195 0.288164C4.72795 0.144163 5.25595 0.000163078 5.97595 0.000163078C7.46395 0.000163078 9.19195 1.48816 9.19195 2.32816C9.19195 2.90416 8.78395 3.21616 8.49595 3.72016C8.23195 4.17616 7.94395 4.70416 7.60795 5.49616C8.75995 5.64016 9.16795 6.31216 9.16795 6.93616C9.16795 7.60816 8.71195 7.82416 7.99195 7.87216C7.60795 7.89616 7.15195 7.89616 6.69595 7.87216C6.31195 8.95216 5.87995 10.2722 5.54395 11.6162C6.50395 11.6402 7.31995 11.6162 7.87195 11.6402C8.75995 11.6882 9.28795 12.0722 9.28795 12.9122C9.28795 13.6082 8.73595 14.0642 7.72795 14.2082C7.00795 14.3042 6.02395 14.3042 5.01595 14.1602C4.96795 14.6642 4.91995 15.1202 4.91995 15.5522C4.91995 17.7602 6.26395 18.7682 8.47195 18.7682C11.16 18.7682 13.056 16.9922 13.056 14.6642C13.056 11.9522 11.568 10.3442 9.50395 8.76016Z" fill="#222222"/>
</svg>
