<svg width="242" height="54" viewBox="0 0 242 54" fill="none" xmlns="http://www.w3.org/2000/svg">
<path d="M-7.62939e-06 3.31224L0.239992 3.00024C1.75199 3.36024 3.07199 3.91224 4.12799 4.80024C4.19999 4.84824 4.24799 4.92024 4.27199 4.96824C6.67199 4.82424 12 4.34424 13.488 4.15224C13.992 4.08024 14.712 3.38424 15.216 3.38424C16.248 3.38424 18.336 5.23224 18.336 6.00024C18.336 6.62424 17.376 7.03224 17.16 7.65624C14.76 14.5682 10.944 18.9602 4.17599 21.6722L3.83999 21.1922C9.57599 17.5922 13.128 11.9282 14.184 6.24024C14.232 5.88024 14.184 5.80824 13.872 5.80824C12.768 5.80824 10.8 6.02424 9.31199 6.21624C7.84799 6.40824 6.45599 6.76824 5.83199 6.76824C5.37599 6.76824 5.01599 6.55224 4.51199 6.16824C4.63199 7.68024 4.82399 11.1602 4.84799 12.4322C4.84799 13.2242 4.70399 13.8722 3.67199 13.8722C2.59199 13.8722 1.94399 12.3362 1.94399 11.4962C1.94399 10.9442 2.06399 10.2722 2.03999 9.43224C2.01599 8.56824 1.94399 7.24824 1.72799 6.19224C1.53599 5.25624 0.959993 4.20024 -7.62939e-06 3.31224ZM25.872 3.93624L26.088 3.55224C29.4 3.93624 33.336 5.35224 33.336 7.82424C33.336 8.68824 32.712 9.43224 31.776 9.43224C31.008 9.43224 30.504 9.00024 29.904 8.16024C28.776 6.57624 28.176 5.68824 25.872 3.93624ZM28.488 17.0882C31.08 17.0882 40.464 10.5602 43.92 5.92824L44.352 6.21624C41.64 11.4722 37.272 15.6962 31.704 19.1042C30.936 19.5842 30.624 20.3762 29.928 20.3762C28.56 20.3762 26.88 18.9602 26.4 18.0002C26.112 17.4482 25.872 16.5122 25.872 15.8162L26.208 15.6002C26.784 16.1762 27.624 17.0882 28.488 17.0882ZM56.184 6.52824C55.8 5.64024 55.08 4.34424 54.504 3.72024L54.84 3.38424C55.8 3.74424 56.544 4.10424 57.384 4.68024C58.728 5.54424 59.592 6.72024 59.592 8.18424C59.592 9.16824 58.872 9.67224 58.128 9.67224C56.832 9.67224 56.952 8.30424 56.184 6.52824ZM66.648 8.06424C64.032 13.4162 58.968 19.1042 51.024 21.4802L50.736 21.0002C58.68 16.9442 64.248 7.92024 64.248 5.42424C64.248 4.87224 63.624 4.41624 62.52 3.98424L62.616 3.57624C63.144 3.40824 63.84 3.33624 64.488 3.38424C65.976 3.45624 67.872 5.23224 67.872 6.33624C67.872 7.03224 67.032 7.32024 66.648 8.06424ZM50.688 8.40024C50.16 7.17624 49.584 6.21624 48.984 5.49624L49.32 5.13624C50.232 5.44824 51.144 6.00024 51.72 6.40824C53.328 7.41624 54.264 8.76024 54.264 10.1522C54.264 10.9682 53.784 11.5922 52.8 11.5922C51.576 11.5922 51.504 10.1282 50.688 8.40024ZM73.2 9.52824L73.608 9.38424C74.328 10.3442 74.736 10.9922 76.008 10.9922C78.576 10.9922 85.824 10.5122 87.288 10.3922C88.896 10.2482 89.976 10.0562 90.552 10.0562C91.992 10.0562 93.24 10.8002 93.24 11.8322C93.24 12.5282 92.664 12.8642 91.656 12.8642C90.696 12.8642 89.856 12.7922 88.176 12.7922C86.352 12.7922 80.976 13.1282 79.128 13.3442C77.4 13.5122 77.04 14.0882 76.128 14.0882C75.192 14.0882 73.704 12.5282 73.272 11.3522C73.056 10.8002 73.128 10.1042 73.2 9.52824ZM100.032 5.44824L100.392 5.30424C101.136 5.97624 101.592 6.48024 102.432 6.48024C103.704 6.48024 109.872 5.80824 111.192 5.64024C112.224 5.52024 112.392 4.80024 113.064 4.80024C113.952 4.80024 116.472 6.38424 116.472 7.41624C116.472 8.08824 115.68 8.47224 115.464 9.28824C115.104 10.6322 114.576 12.8642 114 15.0962C115.176 15.3602 115.8 16.2002 115.8 16.9442C115.8 17.4962 115.416 17.7842 114.648 17.7842C113.784 17.7842 112.488 17.4482 110.496 17.4482C108.192 17.4482 105.744 17.9282 104.544 18.2402C103.488 18.5042 102.912 18.8402 102.216 18.8402C101.232 18.8402 100.008 17.6642 99.624 16.7282C99.408 16.1762 99.288 15.4082 99.336 15.0002L99.672 14.8562C100.368 15.5522 100.992 16.0802 101.976 16.0802C103.08 16.0802 108.504 15.4562 111.36 15.1682C111.84 12.5762 112.368 9.21624 112.44 7.89624C112.464 7.68024 112.392 7.58424 112.176 7.58424C111.12 7.58424 106.296 8.23224 104.832 8.56824C103.8 8.80824 103.128 9.26424 102.504 9.26424C101.712 9.26424 100.536 7.99224 100.248 7.08024C100.104 6.64824 100.008 6.00024 100.032 5.44824ZM122.64 9.52824L123.048 9.38424C123.768 10.3442 124.176 10.9922 125.448 10.9922C128.016 10.9922 135.264 10.5122 136.728 10.3922C138.336 10.2482 139.416 10.0562 139.992 10.0562C141.432 10.0562 142.68 10.8002 142.68 11.8322C142.68 12.5282 142.104 12.8642 141.096 12.8642C140.136 12.8642 139.296 12.7922 137.616 12.7922C135.792 12.7922 130.416 13.1282 128.568 13.3442C126.84 13.5122 126.48 14.0882 125.568 14.0882C124.632 14.0882 123.144 12.5282 122.712 11.3522C122.496 10.8002 122.568 10.1042 122.64 9.52824ZM151.152 3.21624L151.392 3.00024C152.376 3.60024 153.216 3.69624 154.008 3.69624C155.76 3.69624 157.608 3.21624 158.616 2.95224C159.792 2.64024 160.152 2.30424 160.488 2.30424C162.072 2.30424 163.08 2.80824 163.08 3.76824C163.08 4.24824 162.864 4.56024 162.096 4.72824C160.176 5.16024 156.312 5.80824 154.296 5.80824C152.784 5.80824 152.016 4.92024 151.152 3.21624ZM147.768 8.32824L148.056 8.20824C148.68 8.78424 149.112 9.24024 149.856 9.24024C151.488 9.24024 158.52 8.18424 161.76 7.82424C163.392 7.63224 163.896 7.34424 164.136 7.34424C165.648 7.34424 167.256 8.13624 167.256 9.09624C167.256 9.88824 166.896 10.0802 166.248 10.0802C165.72 10.0802 164.496 9.81624 163.128 9.81624C162.072 9.81624 160.536 9.88824 158.904 10.0562C159.768 10.5842 160.344 11.0882 160.344 11.6162C160.344 12.2162 159.744 12.4802 159.192 13.6562C157.992 16.3922 155.592 20.0162 150.192 22.3202L149.832 21.8882C155.064 18.3122 156.888 13.0082 156.888 11.1362C156.888 10.8722 156.84 10.5842 156.696 10.3202C155.088 10.5602 153.36 10.9442 152.592 11.1842C151.776 11.4482 150.912 11.8562 150.216 11.8802C149.4 11.8802 148.2 10.7282 147.912 9.91224C147.744 9.48024 147.72 8.90424 147.768 8.32824ZM163.488 3.31224L163.728 3.00024C164.928 3.33624 165.984 3.76824 166.656 4.34424C167.16 4.77624 167.376 5.16024 167.376 5.68824C167.376 6.12024 166.992 6.50424 166.56 6.50424C166.128 6.50424 165.936 6.16824 165.552 5.64024C165.096 5.01624 164.568 4.17624 163.488 3.31224ZM165.336 1.36824L165.552 1.03224C166.8 1.34424 167.712 1.70424 168.336 2.11224C168.936 2.54424 169.224 3.02424 169.224 3.55224C169.224 3.98424 169.008 4.41624 168.456 4.41624C167.976 4.41624 167.784 4.08024 167.352 3.50424C166.848 2.85624 166.344 2.11224 165.336 1.36824ZM181.152 6.60024C181.152 5.80824 180.816 5.08824 180.408 4.53624C178.848 4.96824 177.336 5.85624 176.184 7.08024C174.792 8.61624 174.024 10.2482 174.024 12.2162C174.024 14.1122 174.84 15.8882 175.848 15.8882C177.192 15.8882 179.304 12.5762 180.072 10.9202C180.696 9.52824 181.152 7.87224 181.152 6.60024ZM180.912 20.8802L180.816 20.4242C186.888 18.9842 189.168 15.6482 189.168 11.4962C189.168 7.08024 186.336 4.24824 182.448 4.24824C182.136 4.24824 181.8 4.27224 181.488 4.32024C182.208 5.06424 183.072 6.24024 183.072 7.36824C183.072 8.59224 182.832 10.1762 182.28 11.6402C181.2 14.6882 178.512 19.0562 175.584 19.0562C173.664 19.0562 171.888 16.1042 171.888 12.9842C171.888 10.7522 172.992 7.89624 175.416 5.85624C177.36 4.17624 179.784 3.28824 182.712 3.28824C188.232 3.28824 192.144 7.12824 192.144 12.1202C192.144 16.6562 188.976 20.5442 180.912 20.8802ZM209.424 15.7682H204.48C204.168 16.0322 203.856 16.2722 203.496 16.5362C204.36 17.2562 205.392 17.8322 206.592 18.3122C207.696 17.5682 208.656 16.7042 209.424 15.7682ZM211.128 12.9362H204.912L207.504 13.5842C207.408 13.8722 207.096 14.0402 206.328 14.0402C205.992 14.4002 205.656 14.7362 205.272 15.0962H209.592L211.128 13.7762V12.9362ZM202.32 10.3682V12.2402H211.128V10.3682H202.32ZM211.128 5.28024H202.32V7.10424H211.128V5.28024ZM211.128 9.67224V7.80024H202.32V9.67224H211.128ZM211.344 13.7762L213.648 15.9602C213.432 16.2002 213.192 16.2482 212.568 16.2962C211.632 17.3762 210.48 18.2882 209.208 19.0802C211.608 19.6082 214.512 19.8242 217.968 19.8242L217.944 20.1122C216.912 20.4962 216.384 21.2882 216.264 22.5122C212.136 22.1522 209.232 21.4322 206.952 20.2322C203.832 21.6002 200.016 22.3442 195.816 22.5842L195.696 22.2482C199.272 21.6002 202.584 20.5682 205.248 19.1282C204.408 18.4802 203.688 17.7362 202.992 16.8722C201.072 18.1922 198.744 19.2962 196.104 19.9682L195.936 19.7042C199.416 18.0002 202.296 15.2882 203.712 12.9362H202.32V13.2722C202.32 13.5602 201.12 14.1602 199.968 14.1602H199.536V3.43224L202.488 4.60824H205.128C205.176 4.00824 205.248 3.26424 205.272 2.66424H196.152L195.96 1.99224H213.144L214.728 0.000240803C214.728 0.000240803 216.504 1.34424 217.632 2.28024C217.56 2.54424 217.296 2.66424 216.96 2.66424H208.272C207.792 3.31224 207.216 4.05624 206.664 4.60824H210.888L212.184 3.21624L214.848 5.25624C214.704 5.42424 214.392 5.59224 213.96 5.68824V12.9602C213.936 13.1762 212.568 13.7762 211.608 13.7762H211.344ZM236.736 7.17624L236.928 6.76824C238.128 6.81624 238.728 6.96024 239.328 7.29624C240.168 7.77624 241.2 8.95224 241.2 9.88824C241.2 10.6082 240.504 10.5842 239.304 10.9202C237.672 11.3522 235.272 12.1682 233.28 13.0082C233.4 14.3282 233.424 15.6962 233.424 16.5602C233.424 17.3762 232.992 18.0002 232.152 18.0002C231.456 18.0002 230.808 17.6162 230.808 16.6562C230.808 16.0322 230.88 15.1202 230.928 14.1122C228.912 15.1922 227.304 16.5362 227.304 17.8322C227.304 18.7922 228.24 19.5122 230.568 19.5122C234.144 19.5122 235.56 18.7202 236.496 18.7202C237.672 18.7202 238.728 18.9842 238.728 19.9922C238.728 20.6642 238.44 21.0722 237.576 21.3362C236.472 21.6722 234.192 21.9842 232.152 21.9842C227.448 21.9842 225.984 20.3042 225.984 18.2162C225.984 16.1282 228.528 14.0402 230.976 12.5042C230.952 10.6082 230.664 9.91224 229.536 9.91224C228.312 9.91224 226.824 11.6162 225.984 12.6722C225.12 13.7522 224.376 15.2162 223.464 15.2882C222.648 15.3122 222.288 14.5922 222.264 13.6322C222.24 12.8162 223.056 12.3362 223.992 11.3762C225.288 10.0802 226.368 8.56824 227.16 7.17624C226.536 7.24824 225.888 7.27224 225.264 7.27224C223.368 7.27224 222.888 6.04824 222.216 4.15224L222.576 3.96024C223.392 4.63224 224.232 5.28024 225.888 5.25624C226.608 5.23224 227.424 5.11224 228.264 4.96824C228.576 4.27224 228.768 3.69624 228.84 3.33624C228.96 2.95224 228.936 2.64024 228.504 2.37624C228.168 2.13624 227.688 1.94424 227.064 1.72824L227.088 1.41624C227.64 1.15224 228.384 0.912242 228.84 0.912242C229.872 0.912242 231.792 1.24824 231.792 2.08824C231.792 2.42424 231.6 2.61624 231.384 3.07224L230.688 4.36824C231.528 4.12824 232.272 3.88824 232.776 3.67224C233.592 3.33624 233.808 3.00024 234.12 3.00024C234.984 3.00024 235.728 3.26424 235.728 4.10424C235.728 4.46424 235.512 4.84824 234.864 5.16024C234.072 5.56824 231.936 6.38424 229.344 6.86424C228.912 7.63224 228.312 8.59224 227.496 9.72024C227.4 9.88824 227.472 10.0082 227.664 9.88824C228.504 9.33624 229.32 8.95224 230.256 8.95224C231.744 8.95224 232.704 9.84024 233.04 11.3282C234.696 10.4642 236.664 9.57624 237.744 8.92824C238.176 8.68824 238.224 8.40024 237.912 8.04024C237.672 7.75224 237.168 7.39224 236.736 7.17624ZM74.04 31.6722L74.208 31.4802C79.608 30.9282 78.12 35.1282 75.864 33.9522C75.648 33.0882 74.784 32.1282 74.04 31.6722ZM67.8 38.2962H64.608C64.464 40.7682 63.6 43.9362 59.64 45.9282L59.448 45.6882C61.656 43.1682 61.872 40.0002 61.872 37.3122V33.2802L65.064 34.4082H70.944C70.704 33.3282 70.512 32.2242 70.344 31.0722L73.992 31.3362C73.968 31.6482 73.776 31.9122 73.248 32.0082C73.368 32.8242 73.488 33.6162 73.68 34.4082H77.952L79.296 32.5122C79.296 32.5122 80.784 33.8322 81.672 34.7202C81.624 34.9842 81.384 35.1042 81.048 35.1042H73.824C74.208 36.5682 74.712 37.9362 75.456 39.1122C76.344 37.9362 77.016 36.7362 77.472 35.5842L80.64 37.0722C80.544 37.3122 80.28 37.3842 79.8 37.3122C79.104 38.4882 78.072 39.6882 76.848 40.7922C77.496 41.3922 78.288 41.8962 79.2 42.2562C79.656 42.4242 79.848 42.4242 80.04 42.1122C80.352 41.5842 80.856 40.5042 81.192 39.5682L81.408 39.6162L81.168 42.7122C82.128 43.6242 82.224 44.0082 81.984 44.5122C81.336 45.6882 79.488 45.2082 78.168 44.5842C76.848 44.0082 75.744 43.2402 74.832 42.3522C73.296 43.3842 71.52 44.2722 69.648 44.8242L69.48 44.5122C71.04 43.6242 72.504 42.4482 73.776 41.1282C72.504 39.4242 71.688 37.3842 71.112 35.1042H64.632V37.3122V37.6242H67.608L68.904 36.4002L71.256 38.2962C71.112 38.4642 70.824 38.6322 70.368 38.7042C70.152 41.7762 69.84 43.3122 68.904 43.9842C68.352 44.3682 67.608 44.5362 66.696 44.5362C66.696 43.9602 66.624 43.4322 66.336 43.0962C66.072 42.7602 65.448 42.4242 64.728 42.2802V41.9682C65.424 42.0162 66.432 42.0882 66.768 42.0882C66.96 42.0882 67.104 42.0402 67.176 41.9442C67.464 41.6082 67.656 40.4322 67.8 38.2962ZM65.28 46.4082V52.1442H67.2V46.4082H65.28ZM71.664 46.4082H69.744V52.1442H71.664V46.4082ZM76.104 46.4082H74.208V52.1442H76.104V46.4082ZM78.96 52.1442L80.04 50.4162C80.04 50.4162 81.336 51.6402 82.056 52.4562C81.984 52.7202 81.768 52.8402 81.432 52.8402H59.808L59.616 52.1442H62.64V44.5842L65.52 45.7122H75.84L77.04 44.2002L79.92 46.1922C79.776 46.4322 79.464 46.5762 78.864 46.6722V52.1442H78.96ZM90.84 35.6322C90.84 34.0242 90.432 33.0402 89.424 31.8642L89.568 31.6482C90.12 31.6722 90.84 31.8162 91.32 32.0322C92.52 32.5842 93.6 33.8322 93.6 34.6482C93.6 35.2962 93.384 35.7522 93.168 36.3042C92.904 37.0722 92.736 37.7922 92.688 38.2722C92.664 38.7282 92.832 38.7522 93.048 38.3442C94.296 36.1122 95.784 34.8162 97.416 34.8162C100.152 34.8162 101.976 37.3362 101.976 42.5202C101.976 47.9682 99.144 52.1922 91.848 53.4162L91.656 52.9842C97.968 50.4642 99 46.0722 99 42.0882C99 37.8642 98.112 36.0642 96.696 36.0642C95.784 36.0642 94.608 36.9282 93.792 38.5842C93.048 40.0482 92.688 41.4882 92.688 43.0002C92.688 44.1282 92.856 44.9442 92.856 46.0242C92.856 46.7442 92.352 47.2002 91.656 47.2002C90.96 47.2002 90.504 46.8642 90.192 46.1682C89.904 45.4722 89.784 44.4882 89.784 43.5522C89.784 41.2242 90.84 37.2162 90.84 35.6322ZM126.648 51.6162L128.4 49.3842C128.4 49.3842 130.344 50.8962 131.544 51.9042C131.472 52.1682 131.208 52.2882 130.848 52.2882H109.176L108.984 51.6162H117.912V31.3842L121.896 31.7682C121.824 32.1042 121.656 32.3442 121.008 32.4402V40.4802H124.944L126.672 38.2722C126.672 38.2722 128.592 39.7362 129.744 40.7682C129.672 41.0322 129.432 41.1522 129.096 41.1522H121.008V51.6162H126.648ZM151.104 32.8722L151.368 32.5602C152.568 33.0162 153.528 33.4962 154.176 34.2642C154.608 34.7922 154.728 35.1042 154.704 35.5602C154.704 36.0162 154.392 36.3282 153.912 36.3282C153.504 36.3282 153.288 35.9442 152.952 35.3922C152.568 34.7682 152.088 33.8562 151.104 32.8722ZM140.592 41.9922L141.096 42.2082C140.616 43.7442 140.064 45.6642 139.824 46.7202C139.728 47.2722 139.656 47.6802 139.656 48.3522C139.656 49.2162 140.064 50.0082 140.064 50.8962C140.064 51.6882 139.608 52.1442 138.792 52.1442C138.12 52.1442 137.496 51.6162 136.992 50.7282C136.344 49.6242 135.672 47.8242 135.672 45.1362C135.672 41.7762 137.088 38.7522 137.088 36.2082C137.088 35.1042 136.464 34.0962 135.816 33.3762L136.032 33.0882C136.848 33.2802 137.376 33.5202 137.952 33.8802C138.696 34.3602 140.016 35.7042 140.016 37.0242C140.016 37.6962 139.68 38.2722 139.2 39.1602C138.264 40.8162 137.472 42.7122 137.472 44.6082C137.472 45.3522 137.592 46.0722 137.808 46.4802C138 46.8162 138.24 46.8402 138.432 46.5282C139.056 45.6162 139.968 43.4802 140.592 41.9922ZM146.304 34.2642L146.256 33.9042C146.976 33.4242 147.864 33.0402 148.512 33.0402C149.664 33.0402 151.488 33.8322 151.488 34.6962C151.488 35.1042 151.2 35.4882 151.152 36.3282C151.128 36.7602 151.128 37.3362 151.128 37.9362C151.464 37.8162 151.776 37.6962 152.04 37.5762C152.856 37.2162 153.096 37.0722 153.24 37.0722C154.128 37.0722 155.088 37.5762 155.088 38.3442C155.088 38.8242 154.848 39.2082 154.08 39.5682C153.48 39.8562 152.448 40.1922 151.224 40.4802C151.368 43.0482 151.584 46.4562 150.792 48.4722C149.688 51.4722 147.144 52.7202 143.88 53.5362L143.688 53.1762C146.16 51.8322 147.744 50.2242 148.464 47.2482C148.968 45.4482 148.896 43.0962 148.824 40.9362C148.056 41.0322 147.288 41.1042 146.568 41.1042C145.08 41.1042 143.28 40.6962 142.176 37.9602L142.416 37.7202C143.736 38.5362 144.84 38.9202 146.064 38.9202C146.808 38.9202 147.768 38.7762 148.728 38.5842C148.656 37.5282 148.584 36.4722 148.488 35.8002C148.44 35.2482 148.296 35.0322 147.984 34.8642C147.504 34.5762 146.952 34.4322 146.304 34.2642ZM152.904 31.4562L153.144 31.1682C154.44 31.5282 155.304 31.9122 155.928 32.5122C156.456 32.9922 156.624 33.3762 156.624 33.9042C156.624 34.3122 156.36 34.6962 155.856 34.6962C155.448 34.6962 155.184 34.2882 154.824 33.7122C154.464 33.1842 154.008 32.4162 152.904 31.4562ZM169.104 50.4402C169.512 50.4402 169.872 50.4162 170.232 50.3922C169.944 48.7842 168.984 47.7522 167.664 47.7522C166.752 47.7522 166.152 48.2082 166.152 48.9522C166.152 49.8642 167.256 50.4402 169.104 50.4402ZM163.704 33.3282L164.04 33.3042C164.448 34.0722 165.048 34.7682 165.672 34.7682C166.536 34.7682 169.056 34.1682 170.352 33.7602C171.288 33.4482 171.288 33.0882 171.792 33.0882C172.92 33.0882 174.816 34.6002 174.816 35.6322C174.816 36.3042 173.976 36.4962 173.184 37.0482C171.6 38.0802 168.648 40.6242 167.736 41.5842C167.472 41.8482 167.616 42.0162 167.856 41.9442C168.648 41.6802 170.016 41.1282 171.864 41.1282C175.104 41.1282 177.816 43.1442 177.792 46.7442C177.768 49.9602 174.912 52.5522 169.968 52.5522C167.16 52.5522 165.072 51.3282 165.072 49.2402C165.072 47.6562 166.512 46.6242 168.288 46.6242C169.92 46.6242 171.888 47.5362 172.464 49.8882C174.456 49.0722 175.272 47.5362 175.296 45.8802C175.32 43.7682 173.904 42.1362 171.144 42.1362C167.856 42.1362 165.552 44.5362 163.512 47.1762C162.936 47.9202 162.696 48.1362 162.096 48.1122C161.568 48.0882 161.04 47.4642 161.088 46.5522C161.136 45.9042 161.52 45.3762 162.312 44.6082C164.664 42.3042 169.704 37.5522 170.952 35.8482C171.36 35.3202 171.12 35.1522 170.736 35.2242C169.848 35.3682 168.36 36.1842 167.448 36.7122C166.992 37.0002 166.584 37.3602 166.08 37.3602C164.664 37.3602 163.584 35.7282 163.512 34.8882C163.488 34.3362 163.56 33.9282 163.704 33.3282Z" fill="#222222"/>
</svg>
