<svg width="146" height="23" viewBox="0 0 146 23" fill="none" xmlns="http://www.w3.org/2000/svg">
<path d="M14.592 0.74353L14.76 0.551531C20.16 -0.000469208 18.672 4.19953 16.416 3.02353C16.2 2.15953 15.336 1.19953 14.592 0.74353ZM8.35198 7.36753H5.15997C5.01597 9.83953 4.15197 13.0075 0.191974 14.9995L-2.54959e-05 14.7595C2.20797 12.2395 2.42397 9.07153 2.42397 6.38353V2.35153L5.61597 3.47953H11.496C11.256 2.39953 11.064 1.29553 10.896 0.14353L14.544 0.40753C14.52 0.71953 14.328 0.983531 13.8 1.07953C13.92 1.89553 14.04 2.68753 14.232 3.47953H18.504L19.848 1.58353C19.848 1.58353 21.336 2.90353 22.224 3.79153C22.176 4.05553 21.936 4.17553 21.6 4.17553H14.376C14.76 5.63953 15.264 7.00753 16.008 8.18353C16.896 7.00753 17.568 5.80753 18.024 4.65553L21.192 6.14353C21.096 6.38353 20.832 6.45553 20.352 6.38353C19.656 7.55953 18.624 8.75953 17.4 9.86353C18.048 10.4635 18.84 10.9675 19.752 11.3275C20.208 11.4955 20.4 11.4955 20.592 11.1835C20.904 10.6555 21.408 9.57553 21.744 8.63953L21.96 8.68753L21.72 11.7835C22.68 12.6955 22.776 13.0795 22.536 13.5835C21.888 14.7595 20.04 14.2795 18.72 13.6555C17.4 13.0795 16.296 12.3115 15.384 11.4235C13.848 12.4555 12.072 13.3435 10.2 13.8955L10.032 13.5835C11.592 12.6955 13.056 11.5195 14.328 10.1995C13.056 8.49553 12.24 6.45553 11.664 4.17553H5.18397V6.38353V6.69553H8.15997L9.45598 5.47153L11.808 7.36753C11.664 7.53553 11.376 7.70353 10.92 7.77553C10.704 10.8475 10.392 12.3835 9.45598 13.0555C8.90398 13.4395 8.15997 13.6075 7.24798 13.6075C7.24798 13.0315 7.17597 12.5035 6.88797 12.1675C6.62397 11.8315 5.99997 11.4955 5.27997 11.3515V11.0395C5.97598 11.0875 6.98397 11.1595 7.31997 11.1595C7.51197 11.1595 7.65597 11.1115 7.72797 11.0155C8.01598 10.6795 8.20797 9.50353 8.35198 7.36753ZM5.83197 15.4795V21.2155H7.75198V15.4795H5.83197ZM12.216 15.4795H10.296V21.2155H12.216V15.4795ZM16.656 15.4795H14.76V21.2155H16.656V15.4795ZM19.512 21.2155L20.592 19.4875C20.592 19.4875 21.888 20.7115 22.608 21.5275C22.536 21.7915 22.32 21.9115 21.984 21.9115H0.359975L0.167975 21.2155H3.19197V13.6555L6.07197 14.7835H16.392L17.592 13.2715L20.472 15.2635C20.328 15.5035 20.016 15.6475 19.416 15.7435V21.2155H19.512ZM31.392 4.70353C31.392 3.09553 30.984 2.11153 29.976 0.93553L30.12 0.71953C30.672 0.74353 31.392 0.887531 31.872 1.10353C33.072 1.65553 34.152 2.90353 34.152 3.71953C34.152 4.36753 33.936 4.82353 33.72 5.37553C33.456 6.14353 33.288 6.86353 33.24 7.34353C33.216 7.79953 33.384 7.82353 33.6 7.41553C34.848 5.18353 36.336 3.88753 37.968 3.88753C40.704 3.88753 42.528 6.40753 42.528 11.5915C42.528 17.0395 39.696 21.2635 32.4 22.4875L32.208 22.0555C38.52 19.5355 39.552 15.1435 39.552 11.1595C39.552 6.93553 38.664 5.13553 37.248 5.13553C36.336 5.13553 35.16 5.99953 34.344 7.65553C33.6 9.11953 33.24 10.5595 33.24 12.0715C33.24 13.1995 33.408 14.0155 33.408 15.0955C33.408 15.8155 32.904 16.2715 32.208 16.2715C31.512 16.2715 31.056 15.9355 30.744 15.2395C30.456 14.5435 30.336 13.5595 30.336 12.6235C30.336 10.2955 31.392 6.28753 31.392 4.70353ZM65.664 3.35953L65.904 3.04753C67.248 3.43153 68.376 3.88753 69.096 4.55953C69.624 5.03953 69.792 5.47153 69.792 5.92753C69.792 6.43153 69.408 6.79153 68.88 6.79153C68.496 6.76753 68.184 6.43153 67.8 5.85553C67.368 5.20753 66.768 4.34353 65.664 3.35953ZM63.888 12.9115L63.672 12.5995C64.368 12.1195 65.544 11.2075 65.784 10.9435C65.904 10.7995 65.856 10.6795 65.664 10.6075C65.16 10.4395 64.296 10.3435 63.6 10.3435C62.856 10.3435 61.848 10.4635 60.768 10.6555L60.624 10.2955C61.872 9.45553 63.816 8.73553 65.76 8.73553C67.344 8.73553 68.352 9.11953 68.88 9.40753C69.6 9.86353 69.888 10.3915 69.888 10.8955C69.888 11.5675 69.432 11.9275 68.4 11.9515C67.968 11.9755 67.44 11.9995 66.816 12.1435C65.76 12.2875 64.728 12.5995 63.888 12.9115ZM58.872 5.63953L58.776 5.99953C59.808 5.66353 60.624 5.30353 61.272 4.94353C61.752 4.67953 62.112 4.39153 62.328 4.39153C62.928 4.39153 64.104 4.72753 64.104 5.66353C64.104 6.33553 63.576 6.71953 61.824 7.34353C61.128 7.60753 59.592 8.08753 58.08 8.44753C57.792 9.45553 57.48 10.5835 57.12 11.6155C56.232 14.3515 54.72 18.6475 53.784 20.3755C53.352 21.1915 53.016 21.6955 52.128 21.6955C51.408 21.6955 50.832 20.9035 50.832 19.9195C50.832 18.9355 51.432 18.5995 52.104 17.4715C52.992 16.0315 54.144 13.8475 55.2 10.7995C55.392 10.2475 55.584 9.57553 55.776 8.87953C55.104 8.97553 54.384 9.04753 53.832 9.04753C52.008 9.04753 50.904 8.59153 50.136 5.97553L50.424 5.75953C51.672 6.64753 52.368 6.93553 53.376 6.93553C54.384 6.95953 55.44 6.81553 56.328 6.64753C56.568 5.49553 56.736 4.46353 56.784 3.86353C56.808 3.26353 56.736 3.07153 56.328 2.75953C55.968 2.47153 55.488 2.25553 54.912 2.06353L54.936 1.70353C55.584 1.43953 56.208 1.27153 56.904 1.29553C58.368 1.29553 59.904 2.06353 59.928 2.71153C59.928 3.35953 59.424 3.81553 58.872 5.63953ZM59.328 14.9995L59.736 14.9755C59.832 15.5755 60 16.4395 60.48 17.1355C61.416 18.5035 62.808 18.9115 64.752 18.9115C66.864 18.9115 67.776 18.4555 68.256 18.4555C69.192 18.4555 70.32 18.8875 70.32 19.9195C70.32 20.5435 69.72 20.9755 68.76 21.1915C67.992 21.3835 66.936 21.5515 65.328 21.5515C61.656 21.5515 59.544 20.0635 59.28 17.3755C59.136 16.6075 59.232 15.6715 59.328 14.9995ZM67.848 1.84753L68.04 1.51153C69.432 1.79953 70.512 2.18353 71.184 2.68753C71.784 3.16753 72.024 3.62353 72.024 4.17553C72.024 4.70353 71.712 5.01553 71.208 5.01553C70.752 5.01553 70.488 4.63153 70.032 4.05553C69.6 3.50353 69.096 2.80753 67.848 1.84753ZM86.232 2.99953C86.232 2.47153 85.704 1.84753 85.008 1.22353L85.248 0.86353C85.992 0.93553 86.664 1.03153 87.264 1.31953C88.632 2.01553 89.76 3.40753 89.76 4.24753C89.76 5.01553 89.016 5.20753 87.984 5.90353C86.232 7.12753 83.376 9.40753 82.368 10.4155C81.744 11.0395 81.504 11.3515 81.504 11.6635C81.504 11.9995 81.864 12.3355 82.368 12.6715C84.672 14.3035 87.36 15.8635 88.992 17.9275C89.832 18.9835 90.12 19.7755 90.12 20.5915C90.12 21.3595 89.712 22.2475 88.464 22.2475C87.816 22.2475 87.336 21.8395 87.048 21.3835C86.76 20.8555 86.496 20.3035 85.848 19.2715C84.912 17.7595 83.04 15.9115 80.232 13.5115C79.632 13.0315 79.368 12.4315 79.368 11.9755C79.368 11.4715 79.56 11.0395 80.064 10.4395C81.336 8.87953 84.792 5.27953 85.728 4.05553C86.088 3.59953 86.232 3.33553 86.232 2.99953ZM105.912 2.99953L105.816 2.63953C106.56 2.11153 107.496 1.63153 108.456 1.63153C109.824 1.63153 110.88 2.06353 111.024 2.63953C111.36 3.91153 111.648 4.75153 112.032 5.56753C114.36 4.55953 115.104 3.55153 115.632 3.43153C116.232 3.35953 117 3.43153 117.408 3.86353C117.768 4.27153 117.72 4.94353 117.264 5.37553C116.568 6.04753 114.888 6.93553 113.112 7.63153C114.336 9.57553 115.992 11.1115 117.24 12.3115C117.816 12.8635 118.008 13.2235 118.032 13.7755C118.032 14.6155 117.6 15.9595 116.712 15.9595C115.992 15.9595 115.512 15.5035 114.72 14.9755C113.496 14.1835 111.672 13.1755 109.008 13.1755C106.512 13.1755 104.832 14.5195 104.832 16.3195C104.832 17.8315 106.464 18.9595 109.824 18.9595C111.504 18.9595 112.512 18.6955 113.448 18.6955C114.504 18.6955 115.464 19.0795 115.464 20.0875C115.464 21.0475 114.216 21.6955 110.664 21.6955C106.128 21.6955 102.864 19.9915 102.864 16.9195C102.864 14.2075 105.72 12.0955 109.608 12.0955C111.696 12.0955 113.4 12.4555 114.336 12.6715C114.624 12.7195 114.672 12.6715 114.456 12.4315C113.568 11.4475 112.296 9.83953 111.24 8.30353C109.728 8.75953 107.832 9.16753 106.32 9.19153C103.248 9.23953 102.456 8.18353 101.376 5.71153L101.712 5.44753C103.272 6.74353 104.232 7.05553 105.888 7.03153C106.968 7.03153 108.576 6.71953 110.016 6.28753C109.512 5.42353 109.008 4.51153 108.624 3.91153C108.216 3.28753 107.28 3.09553 105.912 2.99953ZM133.464 3.04753C133.104 2.73553 132.456 2.42353 132.024 2.25553L132.072 1.89553C132.648 1.67953 133.536 1.58353 134.064 1.67953C135.96 1.94353 137.232 3.45553 137.232 4.41553C137.232 4.96753 136.464 5.23153 135.792 5.92753C134.568 7.17553 132.48 9.88753 131.496 11.5195C131.424 11.6635 131.472 11.7355 131.64 11.6395C132.792 11.0635 133.872 10.7995 134.64 10.7995C136.68 10.7995 137.808 11.8315 137.952 13.6795C138.024 14.8075 137.976 15.8875 137.976 17.2075C137.976 18.4075 138.624 18.8155 139.608 18.8155C142.152 18.8155 144.288 15.9835 145.272 13.3915L145.656 13.4875C145.128 19.1275 142.248 21.4555 138.912 21.4555C136.608 21.4555 135.36 20.1835 135.336 18.2155C135.312 16.5595 135.6 15.2395 135.6 13.7035C135.6 12.6955 135.24 11.8795 133.944 11.8795C132 11.8795 130.32 14.0155 129.456 15.9835C128.856 17.3755 128.448 18.8395 128.04 19.9675C127.776 20.6875 127.344 21.3355 126.456 21.3355C125.544 21.3355 125.04 20.4235 125.04 19.5595C125.04 18.3115 126.336 16.5595 127.656 14.2795C129.24 11.5435 132.864 5.49553 133.584 4.10353C133.8 3.62353 133.728 3.28753 133.464 3.04753Z" fill="#222222"/>
</svg>
