<svg width="232" height="60" viewBox="0 0 232 60" fill="none" xmlns="http://www.w3.org/2000/svg">
<rect x="0.5" y="0.5" width="121.321" height="26.6604" rx="13.3302" fill="white"/>
<rect x="0.5" y="0.5" width="121.321" height="26.6604" rx="13.3302" stroke="black"/>
<path d="M18.372 9.5707V15.5621C18.372 16.2018 18.2424 16.7811 17.983 17.2998C17.7236 17.8099 17.3259 18.2162 16.7899 18.5188C16.2539 18.8128 15.5795 18.9598 14.7669 18.9598C13.6084 18.9598 12.7308 18.6485 12.1343 18.026C11.5377 17.3949 11.2395 16.5649 11.2395 15.5361V9.5707H12.4066V15.575C12.4066 16.3272 12.6055 16.9108 13.0032 17.3258C13.4095 17.7407 14.019 17.9482 14.8317 17.9482C15.6703 17.9482 16.2755 17.7278 16.6473 17.2868C17.0277 16.8373 17.2179 16.2624 17.2179 15.5621V9.5707H18.372ZM27.3389 9.5707L24.032 18.8301H22.8649L19.5579 9.5707H20.777L22.8649 15.5102C23.0032 15.8906 23.1156 16.2494 23.202 16.5866C23.2971 16.9151 23.3793 17.2307 23.4484 17.5332C23.509 17.2307 23.5868 16.9108 23.6819 16.5736C23.777 16.2364 23.8937 15.8733 24.032 15.4843L26.1069 9.5707H27.3389ZM33.9218 8.62401C33.9045 8.77099 33.8872 8.94822 33.8699 9.15571C33.8613 9.35456 33.8526 9.53179 33.844 9.68741C33.8094 11.0102 33.6927 12.1687 33.4938 13.1629C33.295 14.1485 33.0183 15.0131 32.6638 15.7566C32.318 16.4915 31.8944 17.1356 31.3929 17.6889C30.9002 18.2422 30.3339 18.7393 29.6941 19.1802L28.7474 18.4151C28.9549 18.3027 29.1797 18.16 29.4218 17.9871C29.6638 17.8142 29.8843 17.637 30.0831 17.4554C30.4895 17.0923 30.8526 16.673 31.1725 16.1975C31.501 15.722 31.782 15.1773 32.0154 14.5635C32.2575 13.9497 32.4434 13.2451 32.5731 12.4497C32.7114 11.6456 32.7849 10.7292 32.7935 9.70038C32.7935 9.60528 32.7892 9.49289 32.7806 9.36321C32.7719 9.23352 32.7589 9.10384 32.7417 8.97416C32.733 8.84447 32.72 8.72776 32.7027 8.62401H33.9218ZM38.4218 11.3214C38.4045 11.4338 38.3872 11.5462 38.3699 11.6586C38.3613 11.771 38.3569 11.8704 38.3569 11.9569C38.3483 12.1989 38.331 12.5318 38.3051 12.9554C38.2878 13.3791 38.2575 13.8416 38.2143 14.343C38.1797 14.8358 38.1321 15.333 38.0716 15.8344C38.0198 16.3358 37.9506 16.7984 37.8641 17.222C37.7777 17.637 37.6783 17.9698 37.5659 18.2206C37.4362 18.4886 37.2589 18.6874 37.0342 18.8171C36.818 18.9468 36.5327 19.0116 36.1783 19.0116C35.8497 19.0116 35.5039 18.9987 35.1408 18.9727C34.7777 18.9554 34.4275 18.9381 34.0904 18.9209L33.9607 17.8445C34.3151 17.8877 34.6566 17.9223 34.9852 17.9482C35.3223 17.9742 35.6249 17.9871 35.893 17.9871C36.0832 17.9871 36.2388 17.9569 36.3598 17.8964C36.4809 17.8358 36.576 17.7234 36.6451 17.5592C36.7489 17.3603 36.8353 17.088 36.9045 16.7422C36.9736 16.3964 37.0342 16.0073 37.086 15.575C37.1379 15.1428 37.1811 14.7062 37.2157 14.2652C37.2503 13.8243 37.2719 13.405 37.2806 13.0073C37.2979 12.6096 37.3065 12.2724 37.3065 11.9958H30.4722C30.2128 11.9958 29.9578 12.0001 29.7071 12.0087C29.4563 12.0087 29.2143 12.0217 28.9808 12.0476V10.9453C29.2056 10.9713 29.4477 10.9929 29.7071 11.0102C29.9664 11.0188 30.2172 11.0232 30.4592 11.0232H36.8656C37.0385 11.0232 37.1898 11.0188 37.3195 11.0102C37.4578 10.9929 37.5832 10.9756 37.6955 10.9583L38.4218 11.3214ZM46.5659 11.3603C46.6264 11.49 46.7042 11.6845 46.7993 11.9439C46.8944 12.1946 46.9938 12.4626 47.0976 12.7479C47.21 13.0332 47.3094 13.3056 47.3959 13.5649C47.4823 13.8157 47.5471 14.0145 47.5904 14.1615L46.6307 14.4987C46.5961 14.3517 46.5356 14.1528 46.4492 13.9021C46.3714 13.6514 46.2806 13.3834 46.1768 13.0981C46.0731 12.8041 45.9693 12.5318 45.8656 12.2811C45.7618 12.0304 45.6797 11.8315 45.6192 11.6845L46.5659 11.3603ZM51.2604 12.0866C51.2172 12.2162 51.1783 12.3373 51.1437 12.4497C51.1178 12.5534 51.0918 12.6485 51.0659 12.735C50.893 13.4439 50.6595 14.1399 50.3656 14.8229C50.0716 15.4972 49.6912 16.1283 49.2244 16.7162C48.6278 17.4771 47.9535 18.1125 47.2013 18.6226C46.4578 19.1327 45.7229 19.526 44.9967 19.8027L44.1408 18.9338C44.6422 18.7782 45.148 18.5707 45.6581 18.3113C46.1768 18.052 46.6653 17.7407 47.1235 17.3776C47.5904 17.0145 48.001 16.6125 48.3555 16.1716C48.6667 15.7912 48.9434 15.3632 49.1855 14.8877C49.4362 14.4122 49.6437 13.9064 49.808 13.3704C49.9722 12.8344 50.0846 12.2897 50.1451 11.7364L51.2604 12.0866ZM43.5572 12.0087C43.6264 12.1557 43.7128 12.3546 43.8166 12.6053C43.9203 12.856 44.0284 13.1327 44.1408 13.4353C44.2618 13.7292 44.3742 14.0145 44.478 14.2912C44.5904 14.5592 44.6768 14.7753 44.7373 14.9396L43.7518 15.3027C43.6999 15.1384 43.6221 14.918 43.5183 14.6413C43.4232 14.356 43.3152 14.0621 43.1941 13.7595C43.0731 13.4569 42.9564 13.1802 42.844 12.9295C42.7402 12.6788 42.6581 12.4972 42.5976 12.3848L43.5572 12.0087ZM57.6408 17.6889C57.6408 17.5678 57.6408 17.3258 57.6408 16.9626C57.6408 16.5909 57.6408 16.1543 57.6408 15.6528C57.6408 15.1428 57.6408 14.6111 57.6408 14.0577C57.6408 13.4958 57.6408 12.9511 57.6408 12.4237C57.6408 11.8964 57.6408 11.4295 57.6408 11.0232C57.6408 10.6168 57.6408 10.3229 57.6408 10.1413C57.6408 9.95975 57.6322 9.73929 57.6149 9.47992C57.5976 9.22056 57.5717 8.99145 57.5371 8.7926H58.808C58.7907 8.9828 58.7691 9.20759 58.7431 9.46695C58.7258 9.72632 58.7172 9.9511 58.7172 10.1413C58.7172 10.4785 58.7172 10.8848 58.7172 11.3603C58.7172 11.8272 58.7172 12.3286 58.7172 12.8647C58.7172 13.392 58.7172 13.9194 58.7172 14.4468C58.7258 14.9655 58.7302 15.454 58.7302 15.9122C58.7302 16.3618 58.7302 16.7465 58.7302 17.0664C58.7302 17.3776 58.7302 17.5851 58.7302 17.6889C58.7302 17.8272 58.7302 17.9871 58.7302 18.1687C58.7388 18.3503 58.7518 18.5361 58.7691 18.7263C58.7864 18.9079 58.7993 19.0722 58.808 19.2191H57.55C57.5846 19.0116 57.6062 18.7652 57.6149 18.4799C57.6322 18.1946 57.6408 17.9309 57.6408 17.6889ZM58.4967 12.1903C58.9204 12.32 59.3872 12.4756 59.8973 12.6572C60.416 12.8301 60.9434 13.0159 61.4794 13.2148C62.0155 13.4136 62.5212 13.6168 62.9967 13.8243C63.4809 14.0232 63.9002 14.2134 64.2547 14.3949L63.8137 15.4972C63.442 15.2897 63.0227 15.0866 62.5558 14.8877C62.089 14.6802 61.6091 14.477 61.1163 14.2782C60.6322 14.0794 60.161 13.9021 59.7028 13.7465C59.2532 13.5822 58.8512 13.4482 58.4967 13.3445V12.1903ZM72.1913 7.93669H73.1769V9.76522H72.1913V7.93669ZM72.1913 15.3416H73.1769V19.9064H72.1913V15.3416ZM66.9391 16.3531H78.5198V17.2609H66.9391V16.3531ZM67.3282 9.38914H78.1567V10.2969H67.3282V9.38914ZM77.1322 10.6471L77.9881 11.088C77.6596 11.3906 77.3008 11.6845 76.9117 11.9698C76.5227 12.2551 76.1639 12.5059 75.8354 12.722L75.1221 12.294C75.3382 12.1471 75.5717 11.9785 75.8224 11.7883C76.0731 11.5981 76.3152 11.4036 76.5486 11.2047C76.7821 10.9972 76.9766 10.8113 77.1322 10.6471ZM71.9838 10.0765L72.8267 10.4136C72.5846 10.7422 72.3253 11.0793 72.0486 11.4252C71.772 11.7623 71.5126 12.052 71.2705 12.294L70.6351 12.0087C70.7907 11.8272 70.9506 11.624 71.1149 11.3992C71.2792 11.1744 71.4348 10.9453 71.5818 10.7119C71.7374 10.4785 71.8714 10.2667 71.9838 10.0765ZM73.8772 11.075L74.6423 11.4511C74.3051 11.8661 73.9333 12.2984 73.527 12.7479C73.1207 13.1975 72.71 13.6341 72.295 14.0577C71.88 14.4727 71.491 14.8358 71.1279 15.1471L70.5313 14.8099C70.9031 14.49 71.2921 14.1139 71.6985 13.6817C72.1048 13.2407 72.4982 12.7955 72.8786 12.3459C73.2676 11.8877 73.6005 11.4641 73.8772 11.075ZM70.0774 11.9958L70.5573 11.4252C70.808 11.5721 71.0717 11.7407 71.3483 11.9309C71.625 12.1211 71.8887 12.3113 72.1394 12.5015C72.3901 12.6831 72.589 12.8517 72.7359 13.0073L72.2302 13.6557C72.0832 13.4915 71.8844 13.3142 71.6336 13.124C71.3916 12.9252 71.1322 12.7263 70.8555 12.5275C70.5875 12.3286 70.3282 12.1514 70.0774 11.9958ZM69.9088 14.5116C70.3325 14.4943 70.8123 14.477 71.3483 14.4598C71.893 14.4338 72.4679 14.4036 73.0731 14.369C73.6869 14.3344 74.3051 14.3041 74.9276 14.2782L74.9146 14.9915C74.0328 15.0606 73.1682 15.1255 72.321 15.186C71.4737 15.2465 70.7172 15.3027 70.0515 15.3546L69.9088 14.5116ZM73.3844 13.3445L74.0846 13.0073C74.3008 13.2494 74.5169 13.5131 74.7331 13.7984C74.9578 14.075 75.1567 14.3517 75.3296 14.6283C75.5112 14.905 75.6495 15.1514 75.7446 15.3675L74.9924 15.7566C74.906 15.5318 74.7763 15.2811 74.6034 15.0044C74.4305 14.7191 74.2359 14.4338 74.0198 14.1485C73.8123 13.8546 73.6005 13.5866 73.3844 13.3445ZM66.8872 14.784C67.3022 14.6283 67.7993 14.4295 68.3786 14.1874C68.9578 13.9453 69.5501 13.6989 70.1552 13.4482L70.3368 14.1874C69.8267 14.4295 69.3123 14.6716 68.7936 14.9136C68.2748 15.1557 67.7993 15.3719 67.3671 15.5621L66.8872 14.784ZM67.3411 11.3733L67.9895 10.8286C68.2403 10.9497 68.4953 11.0966 68.7547 11.2695C69.014 11.4338 69.2604 11.5981 69.4939 11.7623C69.7273 11.9266 69.9175 12.0822 70.0645 12.2292L69.3901 12.8387C69.2431 12.6917 69.0529 12.5318 68.8195 12.3589C68.5947 12.1773 68.3526 12.0001 68.0933 11.8272C67.8426 11.6543 67.5918 11.503 67.3411 11.3733ZM74.8757 13.8502L75.5501 13.2926C75.8872 13.4569 76.2417 13.6471 76.6135 13.8632C76.9939 14.0707 77.3527 14.2825 77.6898 14.4987C78.027 14.7062 78.308 14.9007 78.5328 15.0822L77.8195 15.7047C77.612 15.5232 77.3397 15.3243 77.0025 15.1082C76.674 14.8834 76.3238 14.6629 75.9521 14.4468C75.5803 14.222 75.2215 14.0232 74.8757 13.8502ZM83.8109 18.8301H82.6956V12.3589C82.6956 11.9871 82.6999 11.6889 82.7086 11.4641C82.7172 11.2393 82.7302 11.0059 82.7475 10.7638C82.6092 10.9021 82.4795 11.0188 82.3584 11.1139C82.246 11.209 82.1077 11.3301 81.9434 11.477L80.9579 12.2811L80.3613 11.5159L82.8642 9.5707H83.8109V18.8301ZM93.4109 14.1874C93.4109 15.1903 93.3071 16.0462 93.0996 16.7551C92.8921 17.4641 92.5593 18.0088 92.1011 18.3892C91.6515 18.7696 91.0593 18.9598 90.3244 18.9598C89.2783 18.9598 88.5045 18.5405 88.0031 17.7018C87.5103 16.8546 87.2639 15.6831 87.2639 14.1874C87.2639 13.1845 87.3633 12.3286 87.5622 11.6197C87.7697 10.9108 88.0982 10.3704 88.5478 9.99865C88.9973 9.61825 89.5895 9.42805 90.3244 9.42805C91.3619 9.42805 92.1357 9.84736 92.6457 10.686C93.1558 11.5159 93.4109 12.6831 93.4109 14.1874ZM88.4051 14.1874C88.4051 15.4583 88.5478 16.4093 88.8331 17.0405C89.127 17.6716 89.6241 17.9871 90.3244 17.9871C91.0161 17.9871 91.5089 17.6759 91.8028 17.0534C92.1054 16.4223 92.2567 15.467 92.2567 14.1874C92.2567 12.9252 92.1054 11.9785 91.8028 11.3474C91.5089 10.7162 91.0161 10.4007 90.3244 10.4007C89.6241 10.4007 89.127 10.7162 88.8331 11.3474C88.5478 11.9785 88.4051 12.9252 88.4051 14.1874ZM100.832 14.1874C100.832 15.1903 100.728 16.0462 100.521 16.7551C100.313 17.4641 99.9806 18.0088 99.5224 18.3892C99.0728 18.7696 98.4806 18.9598 97.7457 18.9598C96.6996 18.9598 95.9259 18.5405 95.4244 17.7018C94.9316 16.8546 94.6852 15.6831 94.6852 14.1874C94.6852 13.1845 94.7846 12.3286 94.9835 11.6197C95.191 10.9108 95.5195 10.3704 95.9691 9.99865C96.4187 9.61825 97.0109 9.42805 97.7457 9.42805C98.7832 9.42805 99.557 9.84736 100.067 10.686C100.577 11.5159 100.832 12.6831 100.832 14.1874ZM95.8264 14.1874C95.8264 15.4583 95.9691 16.4093 96.2544 17.0405C96.5483 17.6716 97.0455 17.9871 97.7457 17.9871C98.4374 17.9871 98.9302 17.6759 99.2241 17.0534C99.5267 16.4223 99.678 15.467 99.678 14.1874C99.678 12.9252 99.5267 11.9785 99.2241 11.3474C98.9302 10.7162 98.4374 10.4007 97.7457 10.4007C97.0455 10.4007 96.5483 10.7162 96.2544 11.3474C95.9691 11.9785 95.8264 12.9252 95.8264 14.1874ZM104 9.44102C104.631 9.44102 105.111 9.69606 105.439 10.2061C105.777 10.7076 105.945 11.4165 105.945 12.333C105.945 13.2494 105.785 13.967 105.465 14.4857C105.154 14.9958 104.666 15.2508 104 15.2508C103.386 15.2508 102.915 14.9958 102.586 14.4857C102.266 13.967 102.107 13.2494 102.107 12.333C102.107 11.4165 102.258 10.7076 102.56 10.2061C102.863 9.69606 103.343 9.44102 104 9.44102ZM109.926 9.5707L104.791 18.8301H103.792L108.928 9.5707H109.926ZM104 10.2451C103.671 10.2451 103.429 10.4223 103.274 10.7768C103.127 11.1226 103.053 11.6413 103.053 12.333C103.053 13.0246 103.127 13.5477 103.274 13.9021C103.429 14.2566 103.671 14.4338 104 14.4338C104.666 14.4338 104.998 13.7335 104.998 12.333C104.998 10.941 104.666 10.2451 104 10.2451ZM109.667 13.15C110.298 13.15 110.778 13.405 111.107 13.9151C111.444 14.4165 111.612 15.1255 111.612 16.0419C111.612 16.9583 111.452 17.6759 111.132 18.1946C110.821 18.7047 110.333 18.9598 109.667 18.9598C109.053 18.9598 108.582 18.7047 108.254 18.1946C107.934 17.6759 107.774 16.9583 107.774 16.0419C107.774 15.1255 107.925 14.4165 108.228 13.9151C108.53 13.405 109.01 13.15 109.667 13.15ZM109.667 13.967C109.339 13.967 109.096 14.1399 108.941 14.4857C108.794 14.8315 108.72 15.3502 108.72 16.0419C108.72 16.7422 108.794 17.2696 108.941 17.624C109.096 17.9698 109.339 18.1428 109.667 18.1428C110.333 18.1428 110.666 17.4425 110.666 16.0419C110.666 14.6586 110.333 13.967 109.667 13.967Z" fill="#040000"/>
<rect x="31.5" y="24.5" width="199.321" height="26.6604" rx="13.3302" fill="white"/>
<rect x="31.5" y="24.5" width="199.321" height="26.6604" rx="13.3302" stroke="black"/>
<path d="M46.7532 31.9367H47.7388V33.6615H46.7532V31.9367ZM41.903 33.0909H52.6927V35.6716H51.7071V33.9857H42.8627V35.6716H41.903V33.0909ZM43.563 35.2955H50.8771V36.1514H43.563V35.2955ZM45.2748 37.2278L46.001 36.7739C46.5716 37.1975 47.0342 37.673 47.3886 38.2004C47.7517 38.7191 48.0154 39.2465 48.1797 39.7825C48.3526 40.3185 48.4391 40.833 48.4391 41.3258C48.4391 41.8099 48.3656 42.2422 48.2186 42.6226C48.0716 42.9943 47.8684 43.2753 47.6091 43.4655C47.3929 43.6298 47.1811 43.7422 46.9736 43.8027C46.7661 43.8632 46.5111 43.8935 46.2085 43.8935C46.0529 43.9021 45.8757 43.9021 45.6768 43.8935C45.4866 43.8848 45.2878 43.8762 45.0803 43.8675C45.0716 43.7292 45.0457 43.5736 45.0025 43.4007C44.9592 43.2278 44.8944 43.0722 44.8079 42.9338C45.05 42.9511 45.2748 42.9641 45.4823 42.9727C45.6984 42.99 45.88 42.9987 46.0269 42.9987C46.1999 42.9987 46.3555 42.9814 46.4938 42.9468C46.6408 42.9209 46.7791 42.8517 46.9088 42.7393C47.099 42.6096 47.2416 42.3978 47.3367 42.1039C47.4318 41.8099 47.4708 41.4684 47.4535 41.0794C47.4448 40.6817 47.3627 40.258 47.2071 39.8085C47.0514 39.3589 46.8137 38.9136 46.4938 38.4727C46.1826 38.0318 45.7762 37.6168 45.2748 37.2278ZM47.2071 35.49L48.0241 35.8272C47.5745 36.2595 47.0342 36.6572 46.403 37.0203C45.7806 37.3834 45.1148 37.7076 44.4059 37.9929C43.7056 38.2782 43.0183 38.5203 42.3439 38.7191C42.3094 38.6586 42.2618 38.5808 42.2013 38.4857C42.1408 38.3819 42.0759 38.2825 42.0068 38.1874C41.9376 38.0837 41.8771 38.0015 41.8252 37.941C42.4909 37.7768 43.161 37.5779 43.8353 37.3445C44.5183 37.1024 45.1537 36.8257 45.7416 36.5145C46.3295 36.1946 46.818 35.8531 47.2071 35.49ZM46.2993 37.954L46.9477 38.4079C46.5932 38.7018 46.1566 39.0044 45.6379 39.3157C45.1192 39.6183 44.5788 39.9036 44.0169 40.1716C43.4549 40.4309 42.9232 40.6514 42.4218 40.833C42.3699 40.7206 42.2964 40.5909 42.2013 40.4439C42.1062 40.2969 42.0111 40.1716 41.916 40.0678C42.2791 39.9641 42.6638 39.8387 43.0702 39.6917C43.4852 39.5361 43.8915 39.3632 44.2892 39.173C44.6869 38.9742 45.0586 38.771 45.4045 38.5635C45.7589 38.356 46.0572 38.1528 46.2993 37.954ZM47.2589 39.2897L47.9333 39.7955C47.5961 40.1327 47.1941 40.4698 46.7272 40.807C46.2604 41.1442 45.7589 41.4684 45.2229 41.7796C44.6869 42.0909 44.1379 42.3719 43.5759 42.6226C43.0226 42.8733 42.4866 43.0851 41.9679 43.258C41.9073 43.1456 41.8295 43.0073 41.7344 42.843C41.648 42.6874 41.5529 42.5577 41.4491 42.454C41.9679 42.3157 42.4996 42.1341 43.0442 41.9093C43.5976 41.6759 44.1379 41.4209 44.6653 41.1442C45.1927 40.8589 45.6768 40.5606 46.1177 40.2494C46.5673 39.9295 46.9477 39.6096 47.2589 39.2897ZM48.452 35.6197C48.6855 36.588 49.014 37.4958 49.4376 38.343C49.8699 39.1903 50.3973 39.9295 51.0198 40.5606C51.6422 41.1917 52.3641 41.6759 53.1855 42.0131C53.1163 42.0736 53.0385 42.1557 52.952 42.2595C52.8656 42.3546 52.7834 42.454 52.7056 42.5577C52.6278 42.6615 52.563 42.7566 52.5111 42.843C51.6638 42.454 50.9203 41.9137 50.2806 41.222C49.6494 40.5304 49.1177 39.7263 48.6855 38.8099C48.2532 37.8848 47.903 36.8819 47.635 35.8013L48.452 35.6197ZM51.7719 36.5793L52.5241 37.2278C52.2301 37.4612 51.9059 37.7033 51.5515 37.954C51.2056 38.2047 50.8555 38.4425 50.501 38.6672C50.1466 38.8834 49.818 39.0736 49.5154 39.2379L48.8929 38.6413C49.1955 38.4684 49.5197 38.2652 49.8656 38.0318C50.22 37.7984 50.5659 37.552 50.903 37.2926C51.2402 37.0332 51.5298 36.7955 51.7719 36.5793ZM60.7071 33.6485H66.063V34.5304H60.7071V33.6485ZM61.0702 31.9108L61.952 32.1182C61.7273 32.9223 61.4247 33.6917 61.0443 34.4266C60.6725 35.1615 60.2662 35.784 59.8252 36.294C59.7734 36.2335 59.6999 36.173 59.6048 36.1125C59.5097 36.0433 59.4103 35.9742 59.3065 35.905C59.2114 35.8358 59.1249 35.784 59.0471 35.7494C59.4881 35.2825 59.8814 34.7119 60.2273 34.0376C60.5817 33.3546 60.8627 32.6456 61.0702 31.9108ZM61.1221 36.2551H65.8555V37.1111H61.1221V36.2551ZM59.6956 39.0304H66.076V39.9252H59.6956V39.0304ZM61.2647 34.8286L62.1595 35.0232C61.978 35.7061 61.7445 36.3632 61.4592 36.9943C61.1826 37.6255 60.88 38.1572 60.5515 38.5894C60.4909 38.5462 60.4131 38.4943 60.318 38.4338C60.2229 38.3647 60.1278 38.2998 60.0327 38.2393C59.9376 38.1788 59.8512 38.1312 59.7734 38.0966C60.1192 37.6817 60.4175 37.1889 60.6682 36.6183C60.9189 36.039 61.1177 35.4425 61.2647 34.8286ZM54.3137 34.1024H59.6307V35.0232H54.3137V34.1024ZM56.1811 36.8517H58.5932V37.7335H56.1811V36.8517ZM56.6739 31.9626H57.6077V34.3747H56.6739V31.9626ZM55.7791 34.6341H56.6999C56.6826 35.5159 56.648 36.3978 56.5961 37.2796C56.5529 38.1615 56.4708 39.0044 56.3497 39.8085C56.2287 40.6125 56.0471 41.3603 55.8051 42.052C55.563 42.7436 55.2388 43.3531 54.8324 43.8805C54.7633 43.7681 54.6552 43.6471 54.5082 43.5174C54.3699 43.3964 54.2359 43.3013 54.1062 43.2321C54.4866 42.7652 54.7849 42.2119 55.001 41.5722C55.2172 40.9237 55.3771 40.2191 55.4809 39.4583C55.5932 38.6975 55.6667 37.9108 55.7013 37.0981C55.7445 36.2768 55.7705 35.4554 55.7791 34.6341ZM58.3209 36.8517H59.2417C59.2417 36.8517 59.2417 36.8776 59.2417 36.9295C59.2417 36.9814 59.2417 37.0462 59.2417 37.124C59.2417 37.1932 59.2373 37.2494 59.2287 37.2926C59.1855 38.3474 59.1422 39.2422 59.099 39.977C59.0558 40.7119 59.0082 41.3128 58.9564 41.7796C58.9045 42.2465 58.844 42.6096 58.7748 42.869C58.7143 43.1283 58.6365 43.3142 58.5414 43.4266C58.429 43.5736 58.3123 43.673 58.1912 43.7249C58.0788 43.7854 57.9319 43.8286 57.7503 43.8546C57.612 43.8719 57.4261 43.8805 57.1927 43.8805C56.9592 43.8805 56.7128 43.8719 56.4535 43.8546C56.4448 43.7249 56.4189 43.5736 56.3757 43.4007C56.3324 43.2278 56.2762 43.0808 56.2071 42.9598C56.4492 42.9771 56.6739 42.9857 56.8814 42.9857C57.0889 42.9943 57.2402 42.9987 57.3353 42.9987C57.4304 43.0073 57.5082 42.9987 57.5687 42.9727C57.6293 42.9554 57.6855 42.9079 57.7373 42.8301C57.8324 42.7177 57.9146 42.467 57.9837 42.0779C58.0529 41.6802 58.1134 41.0794 58.1653 40.2753C58.2258 39.4626 58.2777 38.3819 58.3209 37.0332V36.8517ZM63.4823 39.588C63.7157 40.392 64.0788 41.1096 64.5716 41.7407C65.0644 42.3632 65.6696 42.8171 66.3872 43.1024C66.2835 43.1889 66.1667 43.3056 66.0371 43.4526C65.916 43.6082 65.8209 43.7422 65.7518 43.8546C65.0082 43.5001 64.3814 42.9641 63.8714 42.2465C63.3699 41.5289 62.9938 40.7119 62.7431 39.7955L63.4823 39.588ZM62.4708 36.722H63.3915V38.5894C63.3915 38.9958 63.3526 39.4281 63.2748 39.8863C63.2056 40.3358 63.0543 40.7941 62.8209 41.2609C62.5875 41.7278 62.2417 42.186 61.7835 42.6356C61.3252 43.0851 60.7114 43.4958 59.942 43.8675C59.8728 43.7724 59.7777 43.6557 59.6566 43.5174C59.5356 43.3877 59.4232 43.284 59.3195 43.2062C60.0543 42.869 60.6336 42.5059 61.0572 42.1168C61.4809 41.7191 61.7921 41.3171 61.9909 40.9108C62.1984 40.4958 62.3281 40.0894 62.38 39.6917C62.4405 39.2854 62.4708 38.9136 62.4708 38.5765V36.722ZM67.7359 34.2969C67.978 34.2883 68.1984 34.2796 68.3973 34.271C68.6048 34.2537 68.7691 34.2407 68.8901 34.2321C69.0976 34.2061 69.3959 34.1759 69.7849 34.1413C70.1826 34.0981 70.6365 34.0549 71.1466 34.0116C71.6567 33.9597 72.2057 33.9079 72.7936 33.856C73.3814 33.8041 73.9737 33.7523 74.5702 33.7004C75.0457 33.6572 75.4953 33.6226 75.9189 33.5966C76.3425 33.5621 76.7359 33.5361 77.099 33.5188C77.4621 33.4929 77.7864 33.4756 78.0717 33.467V34.5044C77.8296 34.5044 77.5529 34.5087 77.2417 34.5174C76.9304 34.526 76.6235 34.5433 76.3209 34.5693C76.0183 34.5952 75.7547 34.6427 75.5299 34.7119C75.0717 34.8589 74.6567 35.0837 74.2849 35.3863C73.9218 35.6802 73.6106 36.0217 73.3512 36.4108C73.0918 36.7998 72.893 37.2018 72.7546 37.6168C72.625 38.0318 72.5601 38.4338 72.5601 38.8229C72.5601 39.3243 72.6466 39.7652 72.8195 40.1456C72.9924 40.5174 73.2258 40.833 73.5198 41.0923C73.8224 41.3517 74.1639 41.5635 74.5443 41.7278C74.9247 41.892 75.3267 42.0174 75.7503 42.1039C76.1826 42.1817 76.6106 42.2249 77.0342 42.2335L76.6581 43.3099C76.174 43.2926 75.6898 43.2235 75.2057 43.1024C74.7215 42.99 74.259 42.8258 73.8181 42.6096C73.3771 42.3848 72.9838 42.1039 72.6379 41.7667C72.2921 41.4295 72.0198 41.0361 71.8209 40.5866C71.6221 40.137 71.5227 39.6226 71.5227 39.0433C71.5227 38.369 71.6394 37.7465 71.8728 37.1759C72.1149 36.5966 72.4218 36.0909 72.7936 35.6586C73.1653 35.2263 73.55 34.8935 73.9477 34.66C73.6711 34.6946 73.3253 34.7335 72.9103 34.7768C72.5039 34.82 72.0673 34.8675 71.6005 34.9194C71.1336 34.9626 70.6624 35.0145 70.1869 35.075C69.7201 35.1355 69.2835 35.1961 68.8771 35.2566C68.4708 35.3085 68.1293 35.3647 67.8526 35.4252L67.7359 34.2969ZM76.2042 36.0995C76.2993 36.2379 76.4117 36.4151 76.5414 36.6312C76.6797 36.8387 76.8137 37.0549 76.9434 37.2796C77.0731 37.4958 77.1812 37.7033 77.2676 37.9021L76.6062 38.2134C76.4593 37.8935 76.295 37.5779 76.1134 37.2667C75.9319 36.9468 75.7417 36.6528 75.5428 36.3848L76.2042 36.0995ZM77.6178 35.5549C77.7215 35.6932 77.8426 35.8661 77.9809 36.0736C78.1192 36.2811 78.2532 36.4972 78.3829 36.722C78.5212 36.9381 78.6423 37.1456 78.746 37.3445L78.0717 37.6687C77.916 37.3488 77.7431 37.0332 77.5529 36.722C77.3714 36.4108 77.1812 36.1211 76.9823 35.8531L77.6178 35.5549ZM83.8426 33.3762H92.1553V34.271H83.8426V33.3762ZM85.1264 36.3589V38.3041H90.7936V36.3589H85.1264ZM84.2186 35.5419H91.7273V39.1341H84.2186V35.5419ZM85.0356 39.3935C85.442 40.0765 85.9953 40.6644 86.6956 41.1572C87.4045 41.65 88.2302 42.052 89.1725 42.3632C90.1235 42.6745 91.161 42.8906 92.2849 43.0116C92.2158 43.0808 92.1423 43.1673 92.0645 43.271C91.9867 43.3747 91.9175 43.4785 91.857 43.5822C91.7965 43.6946 91.7446 43.7984 91.7014 43.8935C90.5515 43.7206 89.4967 43.4526 88.5371 43.0894C87.5774 42.735 86.7345 42.2768 86.0083 41.7148C85.282 41.1442 84.6855 40.4612 84.2186 39.6658L85.0356 39.3935ZM87.4478 31.9886H88.3944V37.7206C88.3944 38.222 88.3685 38.7191 88.3166 39.2119C88.2648 39.7047 88.1567 40.1802 87.9924 40.6384C87.8282 41.0966 87.5818 41.5289 87.2532 41.9353C86.9247 42.3416 86.4924 42.7134 85.9564 43.0505C85.429 43.3877 84.7633 43.673 83.9593 43.9064C83.916 43.8373 83.8599 43.7508 83.7907 43.6471C83.7215 43.552 83.6524 43.4526 83.5832 43.3488C83.514 43.2451 83.4405 43.1629 83.3627 43.1024C84.1408 42.9036 84.7806 42.6615 85.282 42.3762C85.7835 42.0909 86.1769 41.771 86.4622 41.4165C86.7561 41.0534 86.9722 40.673 87.1106 40.2753C87.2489 39.869 87.3397 39.4497 87.3829 39.0174C87.4261 38.5851 87.4478 38.1528 87.4478 37.7206V31.9886ZM83.2849 31.9108L84.1927 32.1961C83.8988 32.9223 83.5529 33.6399 83.1552 34.3488C82.7662 35.0577 82.3426 35.7234 81.8843 36.3459C81.4348 36.9684 80.9722 37.5217 80.4967 38.0059C80.4622 37.9281 80.4103 37.8286 80.3411 37.7076C80.2806 37.5866 80.2158 37.4655 80.1466 37.3445C80.0774 37.2234 80.0126 37.124 79.9521 37.0462C80.3843 36.6312 80.808 36.1514 81.223 35.6067C81.6379 35.0534 82.0227 34.4655 82.3771 33.843C82.7316 33.2119 83.0342 32.5678 83.2849 31.9108ZM81.9232 35.2955L82.831 34.3747L82.857 34.3877V43.9194H81.9232V35.2955ZM96.6942 32.5981C97.0486 32.6759 97.455 32.7537 97.9132 32.8315C98.3714 32.9007 98.8426 32.9698 99.3267 33.039C99.8109 33.0995 100.269 33.1514 100.701 33.1946C101.142 33.2292 101.514 33.2595 101.817 33.2854L101.674 34.2451C101.354 34.2191 100.978 34.1802 100.546 34.1283C100.122 34.0765 99.6769 34.0203 99.21 33.9597C98.7432 33.8992 98.2763 33.8344 97.8094 33.7652C97.3512 33.6874 96.9233 33.6139 96.5256 33.5448L96.6942 32.5981ZM102.076 36.307C101.955 36.3935 101.825 36.4929 101.687 36.6053C101.549 36.7177 101.441 36.8128 101.363 36.8906C101.233 37.003 101.056 37.1629 100.831 37.3704C100.615 37.5693 100.381 37.7897 100.131 38.0318C99.8887 38.2652 99.6553 38.4857 99.4305 38.6932C99.2143 38.9007 99.0457 39.0693 98.9247 39.1989C98.9939 39.1903 99.076 39.1903 99.1711 39.1989C99.2749 39.1989 99.3613 39.2076 99.4305 39.2249C99.6812 39.2508 99.8844 39.3459 100.04 39.5102C100.204 39.6745 100.33 39.8906 100.416 40.1586C100.459 40.2796 100.503 40.4266 100.546 40.5995C100.598 40.7724 100.649 40.9497 100.701 41.1312C100.753 41.3041 100.801 41.4641 100.844 41.6111C100.93 41.8531 101.056 42.0304 101.22 42.1428C101.384 42.2551 101.635 42.3113 101.972 42.3113C102.266 42.3113 102.56 42.3027 102.854 42.2854C103.157 42.2595 103.442 42.2249 103.71 42.1817C103.987 42.1384 104.224 42.0952 104.423 42.052L104.358 43.1413C104.177 43.1673 103.939 43.1932 103.645 43.2191C103.351 43.2537 103.049 43.2796 102.737 43.2969C102.435 43.3229 102.162 43.3358 101.92 43.3358C101.402 43.3358 100.978 43.258 100.649 43.1024C100.33 42.9468 100.101 42.6572 99.9622 42.2335C99.9189 42.1039 99.8671 41.9439 99.8066 41.7537C99.7547 41.5549 99.7028 41.3603 99.6509 41.1701C99.6077 40.9799 99.5645 40.8243 99.5213 40.7033C99.4434 40.4785 99.3354 40.3099 99.197 40.1975C99.0674 40.0765 98.9117 40.016 98.7302 40.016C98.5486 40.016 98.38 40.0592 98.2244 40.1456C98.0688 40.2234 97.9175 40.3358 97.7705 40.4828C97.6754 40.5779 97.5457 40.7076 97.3815 40.8719C97.2172 41.0275 97.0357 41.2134 96.8368 41.4295C96.6466 41.637 96.4478 41.8575 96.2403 42.0909C96.0328 42.3157 95.8339 42.5405 95.6437 42.7652C95.4535 42.9814 95.2849 43.1845 95.138 43.3747L94.1524 42.6874C94.2302 42.6183 94.3253 42.5361 94.4377 42.441C94.5501 42.3373 94.6711 42.2249 94.8008 42.1039C94.8872 42.0174 95.0472 41.8575 95.2806 41.624C95.514 41.3819 95.795 41.0966 96.1236 40.7681C96.4607 40.4396 96.8152 40.0894 97.187 39.7177C97.5587 39.3373 97.9305 38.9655 98.3022 38.6024C98.674 38.2306 99.0155 37.8848 99.3267 37.5649C99.6466 37.2451 99.9146 36.977 100.131 36.7609C99.9319 36.7696 99.6898 36.7868 99.4045 36.8128C99.1192 36.8301 98.821 36.8517 98.5097 36.8776C98.1985 36.9036 97.8916 36.9295 97.589 36.9554C97.2864 36.9814 97.0054 37.003 96.746 37.0203C96.4953 37.0376 96.2921 37.0549 96.1365 37.0721C95.9204 37.0894 95.7259 37.1111 95.5529 37.137C95.3887 37.1543 95.2331 37.1759 95.0861 37.2018L94.9953 36.0606C95.1423 36.0693 95.3109 36.0779 95.5011 36.0866C95.6913 36.0952 95.8901 36.0952 96.0976 36.0866C96.2446 36.0866 96.4694 36.0779 96.772 36.0606C97.0746 36.0433 97.4161 36.0217 97.7965 35.9958C98.1855 35.9698 98.5746 35.9439 98.9636 35.918C99.3527 35.8834 99.7115 35.8531 100.04 35.8272C100.377 35.8013 100.641 35.7753 100.831 35.7494C100.943 35.7321 101.06 35.7105 101.181 35.6845C101.302 35.6586 101.393 35.6327 101.454 35.6067L102.076 36.307ZM108.31 33.2724C108.457 33.2897 108.613 33.3027 108.777 33.3113C108.95 33.32 109.101 33.3243 109.231 33.3243C109.361 33.3243 109.572 33.32 109.866 33.3113C110.169 33.3027 110.506 33.294 110.878 33.2854C111.258 33.2681 111.634 33.2551 112.006 33.2465C112.387 33.2292 112.724 33.2119 113.018 33.1946C113.32 33.1773 113.541 33.1644 113.679 33.1557C113.869 33.1384 114.016 33.1211 114.12 33.1038C114.224 33.0865 114.31 33.0693 114.379 33.052L114.976 33.8041C114.864 33.8819 114.743 33.9641 114.613 34.0505C114.492 34.137 114.371 34.2321 114.25 34.3358C114.085 34.4569 113.865 34.6341 113.588 34.8675C113.312 35.0923 113.005 35.3474 112.668 35.6327C112.339 35.9093 112.015 36.1817 111.695 36.4497C111.375 36.7177 111.085 36.9598 110.826 37.1759C111.129 37.0721 111.431 37.003 111.734 36.9684C112.045 36.9252 112.343 36.9036 112.629 36.9036C113.346 36.9036 113.982 37.0376 114.535 37.3056C115.097 37.5649 115.534 37.9237 115.845 38.3819C116.165 38.8402 116.325 39.3632 116.325 39.9511C116.325 40.6428 116.143 41.2479 115.78 41.7667C115.417 42.2854 114.902 42.6831 114.237 42.9598C113.571 43.2451 112.78 43.3877 111.864 43.3877C111.276 43.3877 110.77 43.3099 110.346 43.1543C109.923 42.9987 109.594 42.7825 109.361 42.5059C109.136 42.2292 109.023 41.9093 109.023 41.5462C109.023 41.2523 109.106 40.9756 109.27 40.7162C109.434 40.4569 109.668 40.2494 109.97 40.0938C110.273 39.9381 110.623 39.8603 111.021 39.8603C111.6 39.8603 112.08 39.9814 112.46 40.2234C112.84 40.4569 113.134 40.7681 113.342 41.1572C113.549 41.5376 113.666 41.9482 113.692 42.3892L112.758 42.5448C112.724 41.9915 112.551 41.5376 112.24 41.1831C111.937 40.82 111.526 40.6384 111.008 40.6384C110.714 40.6384 110.467 40.7206 110.268 40.8848C110.07 41.0491 109.97 41.2436 109.97 41.4684C109.97 41.7796 110.13 42.026 110.45 42.2076C110.77 42.3892 111.185 42.4799 111.695 42.4799C112.43 42.4799 113.065 42.3805 113.601 42.1817C114.146 41.9828 114.561 41.6932 114.846 41.3128C115.14 40.9324 115.287 40.4742 115.287 39.9381C115.287 39.5145 115.162 39.1341 114.911 38.7969C114.66 38.4598 114.315 38.1961 113.874 38.0059C113.441 37.807 112.944 37.7076 112.382 37.7076C111.838 37.7076 111.349 37.7681 110.917 37.8891C110.485 38.0015 110.078 38.1658 109.698 38.3819C109.326 38.5981 108.954 38.8704 108.583 39.1989C108.219 39.5188 107.83 39.8863 107.415 40.3013L106.676 39.5361C106.944 39.32 107.238 39.0779 107.558 38.8099C107.887 38.5332 108.215 38.2609 108.544 37.9929C108.872 37.7162 109.175 37.4612 109.451 37.2278C109.737 36.9857 109.974 36.7868 110.165 36.6312C110.346 36.4842 110.571 36.2984 110.839 36.0736C111.116 35.8402 111.401 35.5981 111.695 35.3474C111.989 35.0966 112.266 34.8589 112.525 34.6341C112.793 34.4093 113.009 34.2278 113.173 34.0894C113.035 34.0894 112.832 34.0981 112.564 34.1154C112.296 34.124 111.998 34.137 111.669 34.1543C111.34 34.1629 111.012 34.1759 110.683 34.1932C110.364 34.2105 110.07 34.2278 109.802 34.2451C109.542 34.2537 109.343 34.2623 109.205 34.271C109.067 34.2796 108.924 34.2883 108.777 34.2969C108.63 34.3056 108.487 34.3229 108.349 34.3488L108.31 33.2724ZM122.096 32.8704C122.286 32.9742 122.511 33.1082 122.77 33.2724C123.029 33.4367 123.297 33.6096 123.574 33.7912C123.851 33.9727 124.106 34.1456 124.339 34.3099C124.581 34.4655 124.771 34.5952 124.91 34.6989L124.3 35.5808C124.145 35.4684 123.95 35.3301 123.717 35.1658C123.483 35.0015 123.232 34.8329 122.964 34.66C122.696 34.4785 122.433 34.3099 122.173 34.1543C121.923 33.99 121.702 33.8517 121.512 33.7393L122.096 32.8704ZM120.15 42.1428C120.626 42.0563 121.114 41.9439 121.616 41.8056C122.117 41.6586 122.614 41.49 123.107 41.2998C123.6 41.101 124.062 40.8762 124.495 40.6255C125.212 40.2105 125.878 39.7523 126.492 39.2508C127.106 38.7494 127.659 38.2134 128.152 37.6428C128.645 37.0721 129.064 36.4842 129.41 35.8791L130.032 36.9425C129.47 37.8157 128.757 38.6543 127.892 39.4583C127.036 40.2624 126.09 40.9713 125.052 41.5851C124.611 41.8358 124.132 42.0693 123.613 42.2854C123.103 42.4929 122.597 42.6745 122.096 42.8301C121.603 42.9857 121.153 43.1067 120.747 43.1932L120.15 42.1428ZM120.137 35.7883C120.328 35.8834 120.557 36.0131 120.825 36.1773C121.093 36.333 121.365 36.4972 121.642 36.6701C121.918 36.8344 122.178 36.9943 122.42 37.15C122.662 37.3056 122.852 37.4353 122.99 37.539L122.394 38.4468C122.23 38.3257 122.026 38.1874 121.784 38.0318C121.551 37.8675 121.3 37.7033 121.032 37.539C120.764 37.3661 120.5 37.2018 120.241 37.0462C119.982 36.8906 119.757 36.7652 119.567 36.6701L120.137 35.7883ZM134.104 33.3243C134.338 33.4799 134.606 33.6744 134.908 33.9079C135.211 34.1327 135.518 34.3747 135.829 34.6341C136.149 34.8848 136.447 35.1312 136.724 35.3733C137 35.6154 137.23 35.8272 137.411 36.0087L136.594 36.8257C136.43 36.6615 136.218 36.4583 135.959 36.2162C135.699 35.9742 135.414 35.7234 135.103 35.4641C134.792 35.1961 134.485 34.9453 134.182 34.7119C133.879 34.4698 133.607 34.271 133.365 34.1154L134.104 33.3243ZM132.989 42.0131C133.75 41.9007 134.441 41.7451 135.064 41.5462C135.695 41.3474 136.27 41.1226 136.789 40.8719C137.307 40.6211 137.77 40.3704 138.176 40.1197C138.842 39.7047 139.456 39.2292 140.018 38.6932C140.58 38.1485 141.073 37.5866 141.496 37.0073C141.92 36.4281 142.257 35.8747 142.508 35.3474L143.13 36.4497C142.836 36.9857 142.473 37.5304 142.041 38.0837C141.609 38.637 141.12 39.1687 140.575 39.6788C140.031 40.1889 139.43 40.6514 138.773 41.0664C138.341 41.3344 137.865 41.5981 137.346 41.8575C136.836 42.1168 136.274 42.3546 135.66 42.5707C135.055 42.7782 134.394 42.9468 133.676 43.0765L132.989 42.0131ZM154.176 33.5188C154.176 33.7523 154.258 33.9554 154.422 34.1283C154.595 34.2926 154.798 34.3747 155.032 34.3747C155.274 34.3747 155.477 34.2926 155.641 34.1283C155.814 33.9554 155.9 33.7523 155.9 33.5188C155.9 33.2768 155.814 33.0736 155.641 32.9093C155.477 32.7364 155.274 32.6499 155.032 32.6499C154.798 32.6499 154.595 32.7364 154.422 32.9093C154.258 33.0736 154.176 33.2768 154.176 33.5188ZM153.579 33.5188C153.579 33.2508 153.644 33.0087 153.774 32.7926C153.912 32.5678 154.089 32.3906 154.305 32.2609C154.521 32.1226 154.764 32.0534 155.032 32.0534C155.3 32.0534 155.542 32.1226 155.758 32.2609C155.983 32.3906 156.16 32.5678 156.289 32.7926C156.428 33.0087 156.497 33.2508 156.497 33.5188C156.497 33.7868 156.428 34.0289 156.289 34.2451C156.16 34.4612 155.983 34.6384 155.758 34.7768C155.542 34.9064 155.3 34.9713 155.032 34.9713C154.764 34.9713 154.521 34.9064 154.305 34.7768C154.089 34.6384 153.912 34.4612 153.774 34.2451C153.644 34.0289 153.579 33.7868 153.579 33.5188ZM154.707 34.3877C154.664 34.4742 154.625 34.5736 154.591 34.686C154.565 34.7897 154.539 34.9064 154.513 35.0361C154.444 35.3733 154.353 35.7494 154.24 36.1644C154.128 36.5793 153.99 37.0073 153.825 37.4482C153.67 37.8805 153.488 38.2998 153.281 38.7062C153.073 39.1125 152.84 39.4843 152.581 39.8214C152.183 40.3229 151.742 40.7897 151.258 41.222C150.774 41.6543 150.22 42.0433 149.598 42.3892C148.975 42.735 148.266 43.0332 147.471 43.284L146.589 42.3113C147.436 42.1039 148.167 41.8445 148.781 41.5332C149.403 41.222 149.948 40.8719 150.415 40.4828C150.882 40.0851 151.292 39.6572 151.647 39.1989C151.958 38.8013 152.226 38.356 152.451 37.8632C152.684 37.3618 152.879 36.8603 153.034 36.3589C153.19 35.8488 153.294 35.3863 153.346 34.9713C153.225 34.9713 152.995 34.9713 152.658 34.9713C152.321 34.9713 151.923 34.9713 151.465 34.9713C151.007 34.9713 150.527 34.9713 150.026 34.9713C149.533 34.9713 149.057 34.9713 148.599 34.9713C148.141 34.9713 147.743 34.9713 147.406 34.9713C147.069 34.9713 146.84 34.9713 146.719 34.9713C146.459 34.9713 146.222 34.9756 146.006 34.9842C145.789 34.9929 145.595 35.0015 145.422 35.0102V33.856C145.543 33.8733 145.677 33.8906 145.824 33.9079C145.971 33.9165 146.122 33.9252 146.278 33.9338C146.434 33.9425 146.58 33.9468 146.719 33.9468C146.823 33.9468 147.008 33.9468 147.276 33.9468C147.544 33.9468 147.86 33.9468 148.223 33.9468C148.595 33.9468 148.988 33.9468 149.403 33.9468C149.827 33.9468 150.242 33.9468 150.648 33.9468C151.063 33.9468 151.448 33.9468 151.802 33.9468C152.166 33.9468 152.472 33.9468 152.723 33.9468C152.974 33.9468 153.142 33.9468 153.229 33.9468C153.324 33.9468 153.432 33.9425 153.553 33.9338C153.674 33.9252 153.795 33.9079 153.916 33.8819L154.707 34.3877ZM163.5 42.5577C163.526 42.454 163.543 42.3416 163.552 42.2206C163.569 42.0909 163.578 41.9612 163.578 41.8315C163.578 41.7451 163.578 41.5549 163.578 41.2609C163.578 40.967 163.578 40.6082 163.578 40.1845C163.578 39.7523 163.578 39.2854 163.578 38.784C163.578 38.2825 163.578 37.7811 163.578 37.2796C163.578 36.7696 163.578 36.294 163.578 35.8531C163.578 35.4122 163.578 35.0318 163.578 34.7119C163.578 34.392 163.578 34.1759 163.578 34.0635C163.578 33.8128 163.569 33.6053 163.552 33.441C163.534 33.2681 163.521 33.1557 163.513 33.1038H164.706C164.706 33.1557 164.697 33.2681 164.68 33.441C164.663 33.6139 164.654 33.8214 164.654 34.0635C164.654 34.1845 164.654 34.4007 164.654 34.7119C164.654 35.0145 164.654 35.3863 164.654 35.8272C164.654 36.2595 164.654 36.7263 164.654 37.2278C164.654 37.7206 164.654 38.209 164.654 38.6932C164.654 39.1773 164.654 39.6269 164.654 40.0419C164.654 40.4482 164.654 40.7854 164.654 41.0534C164.654 41.3214 164.654 41.4857 164.654 41.5462C165.06 41.356 165.493 41.1053 165.951 40.7941C166.409 40.4828 166.854 40.1197 167.287 39.7047C167.728 39.2897 168.112 38.8402 168.441 38.356L169.05 39.2379C168.679 39.7393 168.242 40.2191 167.74 40.6773C167.248 41.1356 166.733 41.5462 166.197 41.9093C165.661 42.2724 165.138 42.5794 164.628 42.8301C164.524 42.8906 164.434 42.9468 164.356 42.9987C164.287 43.0505 164.23 43.0938 164.187 43.1283L163.5 42.5577ZM157.56 42.4929C158.105 42.1039 158.568 41.6327 158.948 41.0794C159.328 40.526 159.618 39.9338 159.817 39.3027C159.912 39.0087 159.985 38.6413 160.037 38.2004C160.089 37.7595 160.128 37.2926 160.154 36.7998C160.18 36.2984 160.193 35.8142 160.193 35.3474C160.202 34.8719 160.206 34.4525 160.206 34.0894C160.206 33.8992 160.197 33.7306 160.18 33.5837C160.163 33.428 160.141 33.2811 160.115 33.1427H161.308C161.3 33.1946 161.291 33.2724 161.282 33.3762C161.274 33.4713 161.265 33.5793 161.256 33.7004C161.248 33.8214 161.243 33.9468 161.243 34.0765C161.243 34.4396 161.239 34.8675 161.23 35.3603C161.222 35.8445 161.2 36.3546 161.166 36.8906C161.14 37.418 161.101 37.9194 161.049 38.3949C161.006 38.8704 160.936 39.2681 160.841 39.588C160.651 40.2796 160.353 40.9324 159.947 41.5462C159.549 42.16 159.078 42.6961 158.533 43.1543L157.56 42.4929ZM172.305 33.3502C172.496 33.3675 172.686 33.3848 172.876 33.4021C173.075 33.4194 173.278 33.428 173.485 33.428C173.632 33.428 173.857 33.428 174.16 33.428C174.462 33.428 174.8 33.428 175.171 33.428C175.552 33.428 175.928 33.428 176.3 33.428C176.671 33.428 177.004 33.428 177.298 33.428C177.601 33.428 177.825 33.428 177.972 33.428C178.154 33.428 178.353 33.4237 178.569 33.4151C178.794 33.3978 178.997 33.3762 179.179 33.3502V34.4266C178.988 34.4093 178.785 34.4007 178.569 34.4007C178.362 34.392 178.163 34.3877 177.972 34.3877C177.825 34.3877 177.601 34.3877 177.298 34.3877C177.004 34.3877 176.671 34.3877 176.3 34.3877C175.928 34.3877 175.556 34.3877 175.184 34.3877C174.813 34.3877 174.475 34.3877 174.173 34.3877C173.87 34.3877 173.645 34.3877 173.498 34.3877C173.282 34.3877 173.07 34.392 172.863 34.4007C172.664 34.4007 172.478 34.4093 172.305 34.4266V33.3502ZM170.775 36.6053C170.948 36.6226 171.125 36.6399 171.307 36.6572C171.497 36.6658 171.691 36.6701 171.89 36.6701C172.003 36.6701 172.223 36.6701 172.552 36.6701C172.889 36.6701 173.295 36.6701 173.771 36.6701C174.255 36.6701 174.774 36.6701 175.327 36.6701C175.88 36.6701 176.434 36.6701 176.987 36.6701C177.54 36.6701 178.055 36.6701 178.53 36.6701C179.014 36.6701 179.421 36.6701 179.749 36.6701C180.078 36.6701 180.289 36.6701 180.385 36.6701C180.523 36.6701 180.687 36.6658 180.877 36.6572C181.068 36.6485 181.24 36.6312 181.396 36.6053V37.6817C181.258 37.673 181.094 37.6687 180.903 37.6687C180.722 37.66 180.549 37.6557 180.385 37.6557C180.289 37.6557 180.078 37.6557 179.749 37.6557C179.421 37.6557 179.014 37.6557 178.53 37.6557C178.055 37.6557 177.54 37.6557 176.987 37.6557C176.434 37.6557 175.88 37.6557 175.327 37.6557C174.774 37.6557 174.255 37.6557 173.771 37.6557C173.295 37.6557 172.889 37.6557 172.552 37.6557C172.223 37.6557 172.003 37.6557 171.89 37.6557C171.7 37.6557 171.51 37.6557 171.32 37.6557C171.13 37.6557 170.948 37.6644 170.775 37.6817V36.6053ZM176.87 37.137C176.87 37.9497 176.81 38.6975 176.689 39.3805C176.576 40.0549 176.377 40.6644 176.092 41.209C175.936 41.4943 175.725 41.784 175.457 42.0779C175.197 42.3632 174.903 42.6356 174.575 42.8949C174.255 43.1543 173.909 43.3791 173.537 43.5693L172.578 42.856C173.079 42.6485 173.55 42.3675 173.991 42.0131C174.432 41.6586 174.778 41.2782 175.029 40.8719C175.357 40.3531 175.565 39.7825 175.651 39.16C175.738 38.5289 175.781 37.8546 175.781 37.137H176.87ZM179.853 32.2998C179.965 32.4468 180.086 32.6283 180.216 32.8445C180.346 33.052 180.471 33.2638 180.592 33.4799C180.722 33.6961 180.83 33.8949 180.916 34.0765L180.216 34.3877C180.086 34.1197 179.922 33.8171 179.723 33.4799C179.524 33.1341 179.338 32.8358 179.166 32.5851L179.853 32.2998ZM181.279 31.7811C181.392 31.9367 181.517 32.1226 181.655 32.3387C181.794 32.5548 181.928 32.771 182.057 32.9871C182.187 33.1946 182.291 33.3805 182.369 33.5448L181.668 33.856C181.53 33.5707 181.362 33.2638 181.163 32.9353C180.972 32.5981 180.782 32.3085 180.592 32.0664L181.279 31.7811ZM192.977 32.9353C193.055 33.0909 193.141 33.2768 193.236 33.4929C193.331 33.709 193.422 33.9295 193.509 34.1543C193.604 34.3704 193.677 34.5649 193.729 34.7378L193.094 34.9583C193.033 34.7681 192.96 34.5649 192.873 34.3488C192.787 34.1327 192.7 33.9165 192.614 33.7004C192.527 33.4842 192.441 33.294 192.354 33.1298L192.977 32.9353ZM194.261 32.5462C194.347 32.7018 194.438 32.8877 194.533 33.1038C194.628 33.3113 194.723 33.5231 194.818 33.7393C194.913 33.9554 194.987 34.1543 195.039 34.3358L194.403 34.5433C194.3 34.258 194.179 33.9468 194.04 33.6096C193.902 33.2724 193.768 32.9828 193.638 32.7407L194.261 32.5462ZM191.745 37.0981C191.745 37.9626 191.689 38.7321 191.576 39.4064C191.464 40.0721 191.269 40.6644 190.993 41.1831C190.725 41.6932 190.349 42.1514 189.864 42.5577C189.389 42.9554 188.779 43.3229 188.036 43.6601L187.167 42.8301C187.755 42.6053 188.269 42.3546 188.71 42.0779C189.151 41.7926 189.519 41.4425 189.813 41.0275C190.106 40.6125 190.327 40.0981 190.474 39.4843C190.621 38.8618 190.694 38.0966 190.694 37.1889V34.0376C190.694 33.7782 190.686 33.5534 190.668 33.3632C190.66 33.1644 190.651 33.0347 190.643 32.9742H191.81C191.801 33.0347 191.788 33.1644 191.771 33.3632C191.753 33.5534 191.745 33.7782 191.745 34.0376V37.0981ZM187.063 33.052C187.063 33.1125 187.055 33.2292 187.037 33.4021C187.02 33.5664 187.011 33.7609 187.011 33.9857V38.7451C187.011 38.9007 187.016 39.0649 187.024 39.2379C187.033 39.4021 187.037 39.5448 187.037 39.6658C187.046 39.7868 187.055 39.869 187.063 39.9122H185.909C185.918 39.869 185.926 39.7868 185.935 39.6658C185.944 39.5448 185.952 39.4021 185.961 39.2379C185.97 39.0736 185.974 38.9093 185.974 38.7451V33.9987C185.974 33.8517 185.97 33.6961 185.961 33.5318C185.952 33.3589 185.935 33.1989 185.909 33.052H187.063ZM183.277 35.5678C183.311 35.5765 183.398 35.5894 183.536 35.6067C183.674 35.6154 183.834 35.6283 184.016 35.6456C184.206 35.6543 184.392 35.6586 184.573 35.6586H193.158C193.452 35.6586 193.703 35.65 193.911 35.6327C194.118 35.6154 194.265 35.5981 194.351 35.5808V36.6831C194.282 36.6745 194.14 36.6658 193.924 36.6572C193.707 36.6485 193.457 36.6442 193.171 36.6442H184.573C184.383 36.6442 184.197 36.6485 184.016 36.6572C183.843 36.6572 183.687 36.6615 183.549 36.6701C183.419 36.6788 183.328 36.6874 183.277 36.6961V35.5678ZM196.725 38.1485C197.849 37.8459 198.895 37.4785 199.863 37.0462C200.831 36.6139 201.674 36.173 202.392 35.7234C202.841 35.4381 203.278 35.1312 203.702 34.8027C204.134 34.4655 204.54 34.1154 204.921 33.7523C205.301 33.3891 205.638 33.0304 205.932 32.6759L206.801 33.4799C206.438 33.869 206.045 34.2494 205.621 34.6211C205.197 34.9929 204.748 35.3517 204.272 35.6975C203.805 36.0347 203.317 36.3632 202.807 36.6831C202.331 36.9684 201.795 37.2623 201.199 37.5649C200.602 37.8675 199.967 38.1528 199.292 38.4209C198.618 38.6889 197.935 38.9353 197.243 39.16L196.725 38.1485ZM202.184 36.2681L203.3 35.9309V41.8445C203.3 42.0088 203.3 42.1817 203.3 42.3632C203.308 42.5448 203.317 42.7134 203.326 42.869C203.343 43.0246 203.36 43.1456 203.377 43.2321H202.107C202.115 43.1456 202.124 43.0246 202.132 42.869C202.15 42.7134 202.163 42.5448 202.171 42.3632C202.18 42.1817 202.184 42.0088 202.184 41.8445V36.2681ZM211.522 33.3243C211.755 33.4799 212.023 33.6744 212.326 33.9079C212.628 34.1327 212.935 34.3747 213.246 34.6341C213.566 34.8848 213.864 35.1312 214.141 35.3733C214.418 35.6154 214.647 35.8272 214.828 36.0087L214.011 36.8257C213.847 36.6615 213.635 36.4583 213.376 36.2162C213.117 35.9742 212.831 35.7234 212.52 35.4641C212.209 35.1961 211.902 34.9453 211.599 34.7119C211.297 34.4698 211.024 34.271 210.782 34.1154L211.522 33.3243ZM210.406 42.0131C211.167 41.9007 211.859 41.7451 212.481 41.5462C213.112 41.3474 213.687 41.1226 214.206 40.8719C214.725 40.6211 215.187 40.3704 215.594 40.1197C216.259 39.7047 216.873 39.2292 217.435 38.6932C217.997 38.1485 218.49 37.5866 218.913 37.0073C219.337 36.4281 219.674 35.8747 219.925 35.3474L220.547 36.4497C220.254 36.9857 219.89 37.5304 219.458 38.0837C219.026 38.637 218.537 39.1687 217.993 39.6788C217.448 40.1889 216.847 40.6514 216.19 41.0664C215.758 41.3344 215.282 41.5981 214.764 41.8575C214.253 42.1168 213.692 42.3546 213.078 42.5707C212.473 42.7782 211.811 42.9468 211.094 43.0765L210.406 42.0131Z" fill="#040000"/>
<path d="M131.341 50.1829C131.341 50.1829 135.548 56.0909 129 58.8528C129 58.8528 138.328 59.7125 138.328 50" fill="white"/>
<path d="M131.341 50.1829C131.341 50.1829 135.548 56.0909 129 58.8528C129 58.8528 138.328 59.7125 138.328 50" stroke="#040000" stroke-width="1.04259" stroke-linecap="round" stroke-linejoin="round"/>
</svg>
