<svg width="223" height="77" viewBox="0 0 223 77" fill="none" xmlns="http://www.w3.org/2000/svg">
<g filter="url(#filter0_d_201_18553)">
<rect width="122.321" height="37.6604" fill="#FFBB00" shape-rendering="crispEdges"/>
<rect x="0.5" y="0.5" width="121.321" height="36.6604" stroke="white" shape-rendering="crispEdges"/>
<path d="M25.9804 12.4501C25.9804 12.7701 26.0937 13.0434 26.3204 13.2701C26.5471 13.4834 26.8204 13.5901 27.1404 13.5901C27.4604 13.5901 27.7337 13.4834 27.9604 13.2701C28.1871 13.0434 28.3004 12.7701 28.3004 12.4501C28.3004 12.1301 28.1871 11.8567 27.9604 11.6301C27.7337 11.4034 27.4604 11.2901 27.1404 11.2901C26.8204 11.2901 26.5471 11.4034 26.3204 11.6301C26.0937 11.8567 25.9804 12.1301 25.9804 12.4501ZM24.7404 12.4501C24.7404 12.0101 24.8471 11.6101 25.0604 11.2501C25.2871 10.8767 25.5804 10.5834 25.9404 10.3701C26.3004 10.1567 26.7004 10.0501 27.1404 10.0501C27.5804 10.0501 27.9804 10.1567 28.3404 10.3701C28.7004 10.5834 28.9871 10.8767 29.2004 11.2501C29.4271 11.6101 29.5404 12.0101 29.5404 12.4501C29.5404 12.8767 29.4271 13.2701 29.2004 13.6301C28.9871 13.9901 28.7004 14.2834 28.3404 14.5101C27.9804 14.7234 27.5804 14.8301 27.1404 14.8301C26.7004 14.8301 26.3004 14.7234 25.9404 14.5101C25.5804 14.2834 25.2871 13.9901 25.0604 13.6301C24.8471 13.2701 24.7404 12.8767 24.7404 12.4501ZM13.8004 20.6101C14.0271 20.0501 14.2404 19.4634 14.4404 18.8501C14.6537 18.2234 14.8404 17.5834 15.0004 16.9301C15.1604 16.2634 15.3004 15.6034 15.4204 14.9501C15.5537 14.2967 15.6471 13.6501 15.7004 13.0101L18.6204 13.6101C18.5671 13.7967 18.5071 14.0167 18.4404 14.2701C18.3737 14.5234 18.3137 14.7701 18.2604 15.0101C18.2071 15.2501 18.1671 15.4501 18.1404 15.6101C18.0737 15.9567 17.9804 16.3767 17.8604 16.8701C17.7404 17.3634 17.6004 17.8901 17.4404 18.4501C17.2804 18.9967 17.1137 19.5501 16.9404 20.1101C16.7804 20.6567 16.6137 21.1634 16.4404 21.6301C16.2004 22.2701 15.9137 22.9367 15.5804 23.6301C15.2604 24.3234 14.9137 24.9901 14.5404 25.6301C14.1804 26.2701 13.8271 26.8434 13.4804 27.3501L10.6804 26.1701C11.3204 25.3434 11.9137 24.4301 12.4604 23.4301C13.0204 22.4301 13.4671 21.4901 13.8004 20.6101ZM23.6804 20.1901C23.4804 19.6567 23.2604 19.0901 23.0204 18.4901C22.7804 17.8901 22.5271 17.2901 22.2604 16.6901C21.9937 16.0901 21.7337 15.5234 21.4804 14.9901C21.2271 14.4567 20.9937 13.9967 20.7804 13.6101L23.4404 12.7501C23.6404 13.1367 23.8737 13.6034 24.1404 14.1501C24.4071 14.6967 24.6737 15.2767 24.9404 15.8901C25.2071 16.4901 25.4671 17.0901 25.7204 17.6901C25.9737 18.2901 26.2004 18.8301 26.4004 19.3101C26.5737 19.7501 26.7604 20.2701 26.9604 20.8701C27.1737 21.4701 27.3871 22.0967 27.6004 22.7501C27.8271 23.3901 28.0337 24.0167 28.2204 24.6301C28.4204 25.2434 28.5871 25.7967 28.7204 26.2901L25.7604 27.2501C25.5871 26.4634 25.3871 25.6634 25.1604 24.8501C24.9337 24.0367 24.6937 23.2367 24.4404 22.4501C24.2004 21.6634 23.9471 20.9101 23.6804 20.1901ZM40.6604 14.9501C40.7537 15.1634 40.8737 15.4701 41.0204 15.8701C41.1804 16.2567 41.3471 16.6767 41.5204 17.1301C41.6937 17.5701 41.8471 17.9901 41.9804 18.3901C42.1137 18.7901 42.2204 19.1034 42.3004 19.3301L39.9004 20.1701C39.8471 19.9167 39.7537 19.5967 39.6204 19.2101C39.4871 18.8234 39.3404 18.4167 39.1804 17.9901C39.0204 17.5501 38.8604 17.1301 38.7004 16.7301C38.5404 16.3301 38.4004 15.9967 38.2804 15.7301L40.6604 14.9501ZM48.0404 16.4101C47.9337 16.7301 47.8404 17.0034 47.7604 17.2301C47.6937 17.4567 47.6271 17.6701 47.5604 17.8701C47.3071 18.8834 46.9604 19.8967 46.5204 20.9101C46.0804 21.9101 45.5204 22.8501 44.8404 23.7301C43.9071 24.9301 42.8471 25.9501 41.6604 26.7901C40.4871 27.6167 39.3137 28.2501 38.1404 28.6901L36.0404 26.5501C36.7737 26.3501 37.5471 26.0567 38.3604 25.6701C39.1737 25.2701 39.9604 24.7901 40.7204 24.2301C41.4804 23.6701 42.1337 23.0501 42.6804 22.3701C43.1337 21.7967 43.5337 21.1434 43.8804 20.4101C44.2404 19.6634 44.5337 18.8701 44.7604 18.0301C45.0004 17.1767 45.1604 16.3367 45.2404 15.5101L48.0404 16.4101ZM36.0204 16.0101C36.1537 16.2634 36.3004 16.5901 36.4604 16.9901C36.6337 17.3901 36.8071 17.8101 36.9804 18.2501C37.1537 18.6901 37.3204 19.1167 37.4804 19.5301C37.6537 19.9434 37.7871 20.2901 37.8804 20.5701L35.4404 21.4901C35.3604 21.2234 35.2404 20.8767 35.0804 20.4501C34.9337 20.0234 34.7671 19.5767 34.5804 19.1101C34.3937 18.6301 34.2137 18.1901 34.0404 17.7901C33.8804 17.3901 33.7404 17.0834 33.6204 16.8701L36.0204 16.0101ZM61.8004 10.7901C61.7737 11.0167 61.7471 11.3101 61.7204 11.6701C61.7071 12.0301 61.6937 12.3301 61.6804 12.5701C61.6271 14.5567 61.4604 16.3234 61.1804 17.8701C60.9004 19.4034 60.5004 20.7634 59.9804 21.9501C59.4604 23.1367 58.8004 24.2034 58.0004 25.1501C57.2004 26.0834 56.2471 26.9434 55.1404 27.7301L52.8204 25.8501C53.2337 25.6101 53.6737 25.3301 54.1404 25.0101C54.6204 24.6767 55.0537 24.3034 55.4404 23.8901C56.0937 23.2501 56.6471 22.5501 57.1004 21.7901C57.5537 21.0167 57.9137 20.1767 58.1804 19.2701C58.4604 18.3501 58.6671 17.3434 58.8004 16.2501C58.9337 15.1567 59.0004 13.9501 59.0004 12.6301C59.0004 12.4834 58.9937 12.2967 58.9804 12.0701C58.9671 11.8301 58.9471 11.5967 58.9204 11.3701C58.9071 11.1434 58.8871 10.9501 58.8604 10.7901H61.8004ZM68.6004 15.0701C68.5737 15.2301 68.5404 15.4167 68.5004 15.6301C68.4737 15.8434 68.4604 16.0101 68.4604 16.1301C68.4471 16.5567 68.4204 17.1034 68.3804 17.7701C68.3537 18.4367 68.3071 19.1567 68.2404 19.9301C68.1871 20.6901 68.1137 21.4501 68.0204 22.2101C67.9404 22.9701 67.8404 23.6767 67.7204 24.3301C67.6004 24.9701 67.4537 25.4967 67.2804 25.9101C67.0671 26.4167 66.7537 26.7967 66.3404 27.0501C65.9404 27.3167 65.3937 27.4501 64.7004 27.4501C64.1271 27.4501 63.5537 27.4301 62.9804 27.3901C62.4071 27.3634 61.8737 27.3301 61.3804 27.2901L61.0804 24.6101C61.5737 24.7034 62.0671 24.7767 62.5604 24.8301C63.0537 24.8701 63.4937 24.8901 63.8804 24.8901C64.2137 24.8901 64.4604 24.8367 64.6204 24.7301C64.7804 24.6101 64.9137 24.4301 65.0204 24.1901C65.1271 23.9234 65.2271 23.5701 65.3204 23.1301C65.4137 22.6901 65.4937 22.1967 65.5604 21.6501C65.6271 21.1034 65.6804 20.5367 65.7204 19.9501C65.7737 19.3634 65.8071 18.7967 65.8204 18.2501C65.8471 17.6901 65.8604 17.1967 65.8604 16.7701H56.1004C55.7671 16.7701 55.3537 16.7767 54.8604 16.7901C54.3671 16.7901 53.9004 16.8101 53.4604 16.8501V14.2301C53.8871 14.2701 54.3404 14.3034 54.8204 14.3301C55.3004 14.3567 55.7271 14.3701 56.1004 14.3701H65.3604C65.6137 14.3701 65.8671 14.3567 66.1204 14.3301C66.3871 14.3034 66.6337 14.2701 66.8604 14.2301L68.6004 15.0701ZM86.9404 9.97008C87.1137 10.2234 87.2937 10.5101 87.4804 10.8301C87.6804 11.1501 87.8671 11.4701 88.0404 11.7901C88.2137 12.0967 88.3604 12.3701 88.4804 12.6101L86.8004 13.3101C86.6671 13.0434 86.5137 12.7567 86.3404 12.4501C86.1804 12.1434 86.0071 11.8367 85.8204 11.5301C85.6471 11.2101 85.4737 10.9167 85.3004 10.6501L86.9404 9.97008ZM89.7404 9.47008C89.9137 9.71008 90.1004 9.99008 90.3004 10.3101C90.5004 10.6301 90.6937 10.9501 90.8804 11.2701C91.0671 11.5901 91.2204 11.8701 91.3404 12.1101L89.6804 12.8301C89.4537 12.4167 89.1937 11.9567 88.9004 11.4501C88.6204 10.9434 88.3471 10.5034 88.0804 10.1301L89.7404 9.47008ZM89.0204 13.7501C88.9271 13.9367 88.8404 14.1634 88.7604 14.4301C88.6937 14.6834 88.6337 14.9167 88.5804 15.1301C88.4604 15.6234 88.3137 16.1767 88.1404 16.7901C87.9804 17.3901 87.7737 18.0167 87.5204 18.6701C87.2804 19.3234 86.9937 19.9701 86.6604 20.6101C86.3404 21.2501 85.9737 21.8501 85.5604 22.4101C84.9604 23.2101 84.2604 23.9567 83.4604 24.6501C82.6737 25.3434 81.7804 25.9701 80.7804 26.5301C79.7937 27.0901 78.7071 27.5634 77.5204 27.9501L75.3404 25.5501C76.6737 25.2301 77.8204 24.8367 78.7804 24.3701C79.7537 23.9034 80.5937 23.3701 81.3004 22.7701C82.0071 22.1701 82.6337 21.5301 83.1804 20.8501C83.6204 20.2901 84.0004 19.6834 84.3204 19.0301C84.6404 18.3767 84.9004 17.7234 85.1004 17.0701C85.3004 16.4034 85.4404 15.7834 85.5204 15.2101C85.3337 15.2101 85.0071 15.2101 84.5404 15.2101C84.0737 15.2101 83.5337 15.2101 82.9204 15.2101C82.3071 15.2101 81.6604 15.2101 80.9804 15.2101C80.3004 15.2101 79.6471 15.2101 79.0204 15.2101C78.3937 15.2101 77.8271 15.2101 77.3204 15.2101C76.8271 15.2101 76.4604 15.2101 76.2204 15.2101C75.7537 15.2101 75.3071 15.2167 74.8804 15.2301C74.4537 15.2434 74.1071 15.2634 73.8404 15.2901V12.4701C74.0404 12.4967 74.2804 12.5234 74.5604 12.5501C74.8537 12.5767 75.1471 12.5967 75.4404 12.6101C75.7471 12.6234 76.0071 12.6301 76.2204 12.6301C76.4337 12.6301 76.7404 12.6301 77.1404 12.6301C77.5404 12.6301 77.9937 12.6301 78.5004 12.6301C79.0204 12.6301 79.5604 12.6301 80.1204 12.6301C80.6937 12.6301 81.2604 12.6301 81.8204 12.6301C82.3937 12.6301 82.9271 12.6301 83.4204 12.6301C83.9137 12.6301 84.3404 12.6301 84.7004 12.6301C85.0604 12.6301 85.3204 12.6301 85.4804 12.6301C85.6804 12.6301 85.9204 12.6234 86.2004 12.6101C86.4937 12.5967 86.7737 12.5501 87.0404 12.4701L89.0204 13.7501ZM102.42 26.3901C102.46 26.1901 102.494 25.9634 102.52 25.7101C102.56 25.4434 102.58 25.1767 102.58 24.9101C102.58 24.7634 102.58 24.4701 102.58 24.0301C102.58 23.5901 102.58 23.0567 102.58 22.4301C102.58 21.8034 102.58 21.1301 102.58 20.4101C102.58 19.6767 102.58 18.9367 102.58 18.1901C102.58 17.4434 102.58 16.7434 102.58 16.0901C102.58 15.4234 102.58 14.8434 102.58 14.3501C102.58 13.8434 102.58 13.4767 102.58 13.2501C102.58 12.7967 102.554 12.4034 102.5 12.0701C102.46 11.7367 102.434 11.5567 102.42 11.5301H105.4C105.387 11.5567 105.36 11.7434 105.32 12.0901C105.28 12.4234 105.26 12.8167 105.26 13.2701C105.26 13.4967 105.26 13.8367 105.26 14.2901C105.26 14.7301 105.26 15.2434 105.26 15.8301C105.26 16.4034 105.26 17.0167 105.26 17.6701C105.26 18.3234 105.26 18.9701 105.26 19.6101C105.26 20.2367 105.26 20.8367 105.26 21.4101C105.26 21.9701 105.26 22.4501 105.26 22.8501C105.26 23.2501 105.26 23.5434 105.26 23.7301C105.807 23.4901 106.374 23.1634 106.96 22.7501C107.547 22.3367 108.12 21.8567 108.68 21.3101C109.254 20.7501 109.76 20.1501 110.2 19.5101L111.74 21.7101C111.194 22.4301 110.527 23.1367 109.74 23.8301C108.967 24.5234 108.167 25.1567 107.34 25.7301C106.514 26.3034 105.72 26.7834 104.96 27.1701C104.747 27.2901 104.574 27.3967 104.44 27.4901C104.307 27.5967 104.194 27.6901 104.1 27.7701L102.42 26.3901ZM93.1604 26.0901C94.0404 25.4767 94.7604 24.7367 95.3204 23.8701C95.8804 23.0034 96.2937 22.1501 96.5604 21.3101C96.7071 20.8701 96.8137 20.3301 96.8804 19.6901C96.9604 19.0367 97.0204 18.3434 97.0604 17.6101C97.1004 16.8634 97.1204 16.1301 97.1204 15.4101C97.1337 14.6767 97.1404 14.0034 97.1404 13.3901C97.1404 12.9901 97.1204 12.6501 97.0804 12.3701C97.0537 12.0767 97.0137 11.8034 96.9604 11.5501H99.9004C99.8871 11.5767 99.8671 11.6901 99.8404 11.8901C99.8271 12.0767 99.8071 12.3034 99.7804 12.5701C99.7671 12.8234 99.7604 13.0901 99.7604 13.3701C99.7604 13.9567 99.7537 14.6434 99.7404 15.4301C99.7271 16.2034 99.7004 16.9967 99.6604 17.8101C99.6204 18.6234 99.5604 19.3967 99.4804 20.1301C99.4004 20.8501 99.2937 21.4634 99.1604 21.9701C98.8537 23.1034 98.3937 24.1567 97.7804 25.1301C97.1804 26.0901 96.4537 26.9501 95.6004 27.7101L93.1604 26.0901Z" fill="white"/>
</g>
<g filter="url(#filter1_d_201_18553)">
<rect x="74" y="33" width="142.321" height="37.6604" fill="#FFBB00" shape-rendering="crispEdges"/>
<rect x="74.5" y="33.5" width="141.321" height="36.6604" stroke="white" shape-rendering="crispEdges"/>
<path d="M87.5604 59.0301C87.6804 58.7767 87.7537 58.5567 87.7804 58.3701C87.8071 58.1834 87.8204 57.9701 87.8204 57.7301C87.8204 57.4767 87.8204 57.0901 87.8204 56.5701C87.8204 56.0501 87.8204 55.4501 87.8204 54.7701C87.8204 54.0767 87.8204 53.3501 87.8204 52.5901C87.8204 51.8301 87.8204 51.0834 87.8204 50.3501C87.8204 49.6167 87.8204 48.9501 87.8204 48.3501C87.8204 47.7501 87.8204 47.2634 87.8204 46.8901C87.8204 46.6367 87.8071 46.3701 87.7804 46.0901C87.7671 45.8101 87.7404 45.5434 87.7004 45.2901C87.6737 45.0234 87.6404 44.7967 87.6004 44.6101H90.7404C90.6871 44.9967 90.6404 45.3767 90.6004 45.7501C90.5604 46.1234 90.5404 46.5034 90.5404 46.8901C90.5404 47.2101 90.5404 47.6101 90.5404 48.0901C90.5404 48.5567 90.5404 49.0767 90.5404 49.6501C90.5404 50.2234 90.5404 50.8167 90.5404 51.4301C90.5404 52.0434 90.5404 52.6501 90.5404 53.2501C90.5404 53.8501 90.5404 54.4167 90.5404 54.9501C90.5404 55.4834 90.5404 55.9501 90.5404 56.3501C90.5404 56.7501 90.5404 57.0634 90.5404 57.2901C91.3537 57.0501 92.2204 56.7234 93.1404 56.3101C94.0737 55.8834 95.0071 55.3834 95.9404 54.8101C96.8871 54.2234 97.7737 53.5834 98.6004 52.8901C99.4404 52.1967 100.18 51.4567 100.82 50.6701L102.24 52.9301C100.88 54.5701 99.1937 55.9901 97.1804 57.1901C95.1804 58.3767 93.0004 59.3567 90.6404 60.1301C90.5071 60.1834 90.3337 60.2501 90.1204 60.3301C89.9071 60.4101 89.6871 60.5234 89.4604 60.6701L87.5604 59.0301ZM105.5 52.0501C107.3 51.5834 108.927 51.0434 110.38 50.4301C111.847 49.8034 113.134 49.1501 114.24 48.4701C114.934 48.0434 115.627 47.5567 116.32 47.0101C117.027 46.4501 117.687 45.8767 118.3 45.2901C118.927 44.7034 119.454 44.1434 119.88 43.6101L122.04 45.6701C121.427 46.2701 120.754 46.8767 120.02 47.4901C119.3 48.1034 118.547 48.6901 117.76 49.2501C116.974 49.8101 116.194 50.3234 115.42 50.7901C114.66 51.2301 113.807 51.6834 112.86 52.1501C111.927 52.6167 110.94 53.0567 109.9 53.4701C108.86 53.8834 107.814 54.2501 106.76 54.5701L105.5 52.0501ZM113.82 49.7501L116.66 49.0901V58.0901C116.66 58.3834 116.667 58.7034 116.68 59.0501C116.694 59.3967 116.714 59.7167 116.74 60.0101C116.767 60.3167 116.8 60.5501 116.84 60.7101H113.68C113.707 60.5501 113.727 60.3167 113.74 60.0101C113.767 59.7167 113.787 59.3967 113.8 59.0501C113.814 58.7034 113.82 58.3834 113.82 58.0901V49.7501ZM129.68 44.6301C130.027 44.8701 130.434 45.1634 130.9 45.5101C131.367 45.8567 131.847 46.2367 132.34 46.6501C132.847 47.0501 133.32 47.4434 133.76 47.8301C134.2 48.2167 134.56 48.5634 134.84 48.8701L132.8 50.9501C132.547 50.6701 132.214 50.3367 131.8 49.9501C131.387 49.5634 130.94 49.1634 130.46 48.7501C129.98 48.3367 129.507 47.9434 129.04 47.5701C128.574 47.1967 128.16 46.8834 127.8 46.6301L129.68 44.6301ZM127.18 57.9501C128.22 57.8034 129.2 57.5967 130.12 57.3301C131.04 57.0634 131.894 56.7567 132.68 56.4101C133.467 56.0634 134.187 55.7034 134.84 55.3301C135.974 54.6501 137.014 53.8767 137.96 53.0101C138.907 52.1434 139.734 51.2434 140.44 50.3101C141.147 49.3634 141.707 48.4434 142.12 47.5501L143.68 50.3701C143.174 51.2634 142.547 52.1567 141.8 53.0501C141.067 53.9434 140.234 54.7967 139.3 55.6101C138.367 56.4101 137.36 57.1301 136.28 57.7701C135.6 58.1834 134.867 58.5767 134.08 58.9501C133.294 59.3101 132.46 59.6301 131.58 59.9101C130.714 60.2034 129.807 60.4301 128.86 60.5901L127.18 57.9501ZM148.6 45.6301C148.974 45.6701 149.394 45.7034 149.86 45.7301C150.327 45.7434 150.727 45.7501 151.06 45.7501H161.14C161.434 45.7501 161.754 45.7501 162.1 45.7501C162.46 45.7367 162.727 45.7234 162.9 45.7101C162.887 45.9367 162.874 46.2301 162.86 46.5901C162.847 46.9367 162.84 47.2567 162.84 47.5501V57.9101C162.84 58.2567 162.847 58.6634 162.86 59.1301C162.887 59.5967 162.907 59.9767 162.92 60.2701H160.02C160.034 59.9767 160.04 59.6567 160.04 59.3101C160.054 58.9501 160.06 58.5901 160.06 58.2301V48.3301H151.08C150.654 48.3301 150.2 48.3367 149.72 48.3501C149.254 48.3634 148.88 48.3834 148.6 48.4101V45.6301ZM148.34 56.4901C148.687 56.5167 149.074 56.5434 149.5 56.5701C149.94 56.5967 150.387 56.6101 150.84 56.6101H161.64V59.2301H150.92C150.534 59.2301 150.087 59.2434 149.58 59.2701C149.087 59.2967 148.674 59.3234 148.34 59.3501V56.4901ZM167.9 50.5701C168.14 50.5834 168.447 50.6034 168.82 50.6301C169.194 50.6434 169.58 50.6567 169.98 50.6701C170.394 50.6834 170.774 50.6901 171.12 50.6901C171.454 50.6901 171.867 50.6901 172.36 50.6901C172.854 50.6901 173.387 50.6901 173.96 50.6901C174.547 50.6901 175.147 50.6901 175.76 50.6901C176.387 50.6901 177.007 50.6901 177.62 50.6901C178.234 50.6901 178.814 50.6901 179.36 50.6901C179.907 50.6901 180.394 50.6901 180.82 50.6901C181.26 50.6901 181.607 50.6901 181.86 50.6901C182.327 50.6901 182.767 50.6767 183.18 50.6501C183.594 50.6101 183.934 50.5834 184.2 50.5701V53.7101C183.974 53.6967 183.634 53.6767 183.18 53.6501C182.727 53.6234 182.287 53.6101 181.86 53.6101C181.607 53.6101 181.26 53.6101 180.82 53.6101C180.38 53.6101 179.887 53.6101 179.34 53.6101C178.794 53.6101 178.214 53.6101 177.6 53.6101C177 53.6101 176.387 53.6101 175.76 53.6101C175.134 53.6101 174.527 53.6101 173.94 53.6101C173.367 53.6101 172.834 53.6101 172.34 53.6101C171.86 53.6101 171.454 53.6101 171.12 53.6101C170.547 53.6101 169.96 53.6234 169.36 53.6501C168.76 53.6634 168.274 53.6834 167.9 53.7101V50.5701ZM192.94 57.9101C192.94 57.6567 192.94 57.2434 192.94 56.6701C192.94 56.0834 192.94 55.4101 192.94 54.6501C192.94 53.8767 192.94 53.0701 192.94 52.2301C192.94 51.3901 192.94 50.5834 192.94 49.8101C192.94 49.0234 192.94 48.3301 192.94 47.7301C192.94 47.1301 192.94 46.6901 192.94 46.4101C192.94 46.0634 192.92 45.6634 192.88 45.2101C192.854 44.7567 192.807 44.3567 192.74 44.0101H195.86C195.82 44.3567 195.78 44.7434 195.74 45.1701C195.7 45.5834 195.68 45.9967 195.68 46.4101C195.68 46.7834 195.68 47.2901 195.68 47.9301C195.68 48.5701 195.68 49.2834 195.68 50.0701C195.68 50.8434 195.68 51.6367 195.68 52.4501C195.68 53.2501 195.68 54.0234 195.68 54.7701C195.68 55.5167 195.68 56.1701 195.68 56.7301C195.68 57.2767 195.68 57.6701 195.68 57.9101C195.68 58.0967 195.687 58.3634 195.7 58.7101C195.714 59.0434 195.74 59.3901 195.78 59.7501C195.82 60.1101 195.847 60.4301 195.86 60.7101H192.74C192.794 60.3101 192.84 59.8434 192.88 59.3101C192.92 58.7767 192.94 58.3101 192.94 57.9101ZM195.08 49.1901C195.747 49.3634 196.494 49.5901 197.32 49.8701C198.147 50.1367 198.98 50.4234 199.82 50.7301C200.66 51.0367 201.447 51.3434 202.18 51.6501C202.927 51.9434 203.547 52.2167 204.04 52.4701L202.9 55.2301C202.34 54.9367 201.72 54.6434 201.04 54.3501C200.36 54.0434 199.667 53.7501 198.96 53.4701C198.267 53.1901 197.58 52.9301 196.9 52.6901C196.234 52.4501 195.627 52.2367 195.08 52.0501V49.1901Z" fill="white"/>
</g>
<defs>
<filter id="filter0_d_201_18553" x="0" y="0" width="128.261" height="43.6007" filterUnits="userSpaceOnUse" color-interpolation-filters="sRGB">
<feFlood flood-opacity="0" result="BackgroundImageFix"/>
<feColorMatrix in="SourceAlpha" type="matrix" values="0 0 0 0 0 0 0 0 0 0 0 0 0 0 0 0 0 0 127 0" result="hardAlpha"/>
<feOffset dx="5.94049" dy="5.94049"/>
<feComposite in2="hardAlpha" operator="out"/>
<feColorMatrix type="matrix" values="0 0 0 0 0.960784 0 0 0 0 0.941176 0 0 0 0 0.905882 0 0 0 1 0"/>
<feBlend mode="normal" in2="BackgroundImageFix" result="effect1_dropShadow_201_18553"/>
<feBlend mode="normal" in="SourceGraphic" in2="effect1_dropShadow_201_18553" result="shape"/>
</filter>
<filter id="filter1_d_201_18553" x="74" y="33" width="148.261" height="43.6007" filterUnits="userSpaceOnUse" color-interpolation-filters="sRGB">
<feFlood flood-opacity="0" result="BackgroundImageFix"/>
<feColorMatrix in="SourceAlpha" type="matrix" values="0 0 0 0 0 0 0 0 0 0 0 0 0 0 0 0 0 0 127 0" result="hardAlpha"/>
<feOffset dx="5.94049" dy="5.94049"/>
<feComposite in2="hardAlpha" operator="out"/>
<feColorMatrix type="matrix" values="0 0 0 0 0.960784 0 0 0 0 0.941176 0 0 0 0 0.905882 0 0 0 1 0"/>
<feBlend mode="normal" in2="BackgroundImageFix" result="effect1_dropShadow_201_18553"/>
<feBlend mode="normal" in="SourceGraphic" in2="effect1_dropShadow_201_18553" result="shape"/>
</filter>
</defs>
</svg>
