<svg width="219" height="75" viewBox="0 0 219 75" fill="none" xmlns="http://www.w3.org/2000/svg">
<g filter="url(#filter0_d_201_17636)">
<rect width="207.974" height="64.487" fill="#FFBB00" shape-rendering="crispEdges"/>
<rect x="0.853333" y="0.853333" width="206.267" height="62.7804" stroke="white" stroke-width="1.70667" shape-rendering="crispEdges"/>
<path d="M21.5209 19.6543H28.45V42.9332H21.5209V39.3492H25.0708V23.2383H21.5209V19.6543ZM21.1455 29.4847H26.2996V33.0345H21.1455V29.4847ZM18.8585 19.6543H22.2036V45.698H18.8585V19.6543ZM30.7028 19.7567H48.8276V22.658H30.7028V19.7567ZM31.5561 24.0233H48.1449V26.754H31.5561V24.0233ZM29.8495 28.2217H49.6127V31.1572H29.8495V28.2217ZM37.666 17.2308H41.6596V29.8601H37.666V17.2308ZM31.7951 32.5908H45.346V35.4921H35.5497V49.3161H31.7951V32.5908ZM44.1513 32.5908H47.9401V45.6297C47.9401 46.4717 47.8377 47.1316 47.6329 47.6095C47.4281 48.0873 47.0299 48.4628 46.4383 48.7359C45.8694 48.9862 45.1753 49.1455 44.3561 49.2137C43.5597 49.282 42.6153 49.3048 41.5231 49.282C41.432 48.7814 41.2841 48.2239 41.0793 47.6095C40.8745 47.0178 40.6697 46.4945 40.4649 46.0393C41.0793 46.0621 41.6937 46.0849 42.3081 46.1076C42.9453 46.1076 43.3663 46.0962 43.5711 46.0735C43.7986 46.0735 43.9465 46.0393 44.0148 45.9711C44.1058 45.8801 44.1513 45.7435 44.1513 45.5615V32.5908ZM33.9455 37.1305H45.9604V39.8271H33.9455V37.1305ZM33.9455 41.4655H45.9604V44.1279H33.9455V41.4655ZM66.6793 21.9753H70.7071V48.8383H66.6793V21.9753ZM58.9311 33.6148L61.2863 31.3279C61.8551 31.6692 62.4809 32.0561 63.1636 32.4884C63.8463 32.9208 64.5062 33.3531 65.1433 33.7855C65.7805 34.1951 66.3152 34.5705 66.7476 34.9119L64.29 37.4377C63.9031 37.0737 63.4025 36.6754 62.7881 36.2431C62.1737 35.8107 61.5252 35.3556 60.8425 34.8777C60.1599 34.3999 59.5227 33.9789 58.9311 33.6148ZM58.7263 40.1001L61.1156 37.8473C61.6845 38.2342 62.3216 38.6779 63.0271 39.1785C63.7325 39.6564 64.4038 40.1343 65.0409 40.6121C65.7008 41.09 66.2356 41.511 66.6452 41.8751L64.1535 44.4351C63.7666 44.0482 63.2546 43.6045 62.6175 43.1039C61.9803 42.5805 61.3204 42.0571 60.6377 41.5337C59.9551 41.0104 59.3179 40.5325 58.7263 40.1001ZM70.9801 33.6148L73.3012 31.2937C73.8928 31.6123 74.5414 31.9878 75.2468 32.4201C75.975 32.8525 76.669 33.2735 77.3289 33.6831C78.0116 34.0927 78.5691 34.4681 79.0015 34.8095L76.6121 37.4036C76.2253 37.0623 75.7019 36.6754 75.042 36.2431C74.4048 35.788 73.7222 35.3329 72.994 34.8777C72.2658 34.3999 71.5945 33.9789 70.9801 33.6148ZM70.5705 39.9636L72.9257 37.7108C73.5174 38.0749 74.1773 38.5073 74.9055 39.0079C75.6564 39.4857 76.3732 39.9522 77.0559 40.4073C77.7385 40.8625 78.3074 41.2721 78.7625 41.6361L76.3049 44.2644C75.8953 43.8776 75.3492 43.4452 74.6665 42.9673C74.0066 42.4667 73.3126 41.9547 72.5844 41.4313C71.8562 40.8852 71.1849 40.396 70.5705 39.9636ZM54.8351 26.4468H80.6399V30.2697H58.7604V49.2479H54.8351V26.4468ZM79.0356 26.4468H83.0633V44.9471C83.0633 45.9256 82.9268 46.6879 82.6537 47.234C82.4034 47.7801 81.9483 48.2011 81.2884 48.4969C80.6285 48.7928 79.8093 48.9748 78.8308 49.0431C77.8523 49.1113 76.7031 49.1455 75.3833 49.1455C75.2923 48.6221 75.1103 48.0077 74.8372 47.3023C74.5869 46.6196 74.3252 46.0393 74.0521 45.5615C74.621 45.5842 75.1899 45.607 75.7588 45.6297C76.3277 45.6297 76.8397 45.6297 77.2948 45.6297C77.7727 45.607 78.0912 45.5956 78.2505 45.5956C78.5463 45.5729 78.7511 45.516 78.8649 45.4249C78.9787 45.3339 79.0356 45.1633 79.0356 44.9129V26.4468ZM53.3673 19.2105H84.3263V23.2383H53.3673V19.2105ZM89.0708 21.7705H118.972V25.1497H89.0708V21.7705ZM88.4905 32.1129H119.62V35.4921H88.4905V32.1129ZM97.57 38.8372L100.915 40.1343C100.141 41.3176 99.2084 42.4667 98.1161 43.5817C97.0239 44.674 95.8406 45.6639 94.5663 46.5513C93.2919 47.4616 91.9949 48.2011 90.6751 48.77C90.3792 48.3149 89.9696 47.7688 89.4463 47.1316C88.9456 46.5172 88.4791 46.028 88.0468 45.6639C89.2756 45.2088 90.493 44.6285 91.6991 43.9231C92.9279 43.1949 94.0429 42.3985 95.0441 41.5337C96.0681 40.669 96.9101 39.7702 97.57 38.8372ZM109.517 38.5983C110.268 39.5313 111.201 40.4415 112.316 41.3289C113.431 42.1937 114.648 42.9787 115.968 43.6841C117.288 44.3896 118.619 44.9585 119.961 45.3908C119.666 45.6411 119.336 45.9597 118.972 46.3465C118.63 46.7561 118.312 47.1657 118.016 47.5753C117.72 47.9849 117.458 48.3604 117.231 48.7017C115.888 48.1101 114.546 47.3478 113.203 46.4148C111.86 45.5046 110.609 44.4806 109.448 43.3428C108.311 42.205 107.332 41.0104 106.513 39.7588L109.517 38.5983ZM98.2185 23.8868H102.178V49.282H98.2185V23.8868ZM105.25 23.8868H109.209V49.282H105.25V23.8868ZM91.7673 27.1295H116.241V40.6463H91.426V37.5743H112.281V30.2356H91.7673V27.1295ZM93.2351 18.8351L96.9556 17.1284C97.661 17.72 98.3664 18.3913 99.0719 19.1423C99.8 19.8932 100.346 20.5872 100.71 21.2244L96.7167 23.0335C96.3981 22.4418 95.8975 21.7478 95.2148 20.9513C94.5549 20.1549 93.895 19.4495 93.2351 18.8351ZM110.814 17.1625L115.251 18.562C114.455 19.5177 113.647 20.4507 112.828 21.3609C112.031 22.2484 111.292 22.9993 110.609 23.6137L106.957 22.3167C107.412 21.8388 107.878 21.304 108.356 20.7124C108.834 20.1208 109.289 19.5177 109.721 18.9033C110.154 18.2889 110.518 17.7087 110.814 17.1625ZM129.28 19.5177H150.204V23.4431H129.28V19.5177ZM129.28 27.4025H150.272V31.2255H129.28V27.4025ZM129.212 35.458H150.408V39.3151H129.212V35.458ZM126.925 19.5177H130.952V31.8057C130.952 33.1483 130.896 34.6161 130.782 36.2089C130.668 37.8018 130.44 39.4061 130.099 41.0217C129.78 42.6146 129.291 44.1393 128.631 45.5956C127.994 47.052 127.152 48.349 126.105 49.4868C125.901 49.2137 125.593 48.9065 125.184 48.5652C124.774 48.2239 124.353 47.8939 123.921 47.5753C123.511 47.2568 123.159 47.0065 122.863 46.8244C123.796 45.8004 124.535 44.674 125.081 43.4452C125.628 42.1937 126.026 40.908 126.276 39.5881C126.549 38.2456 126.72 36.9144 126.788 35.5945C126.879 34.252 126.925 32.9777 126.925 31.7716V19.5177ZM148.77 19.5177H152.866V44.4692C152.866 45.5615 152.729 46.4034 152.456 46.9951C152.183 47.6095 151.694 48.076 150.989 48.3945C150.306 48.7131 149.43 48.9179 148.36 49.0089C147.291 49.1 145.971 49.1341 144.401 49.1113C144.333 48.5652 144.162 47.9053 143.889 47.1316C143.616 46.3579 143.343 45.7094 143.07 45.186C143.73 45.2088 144.39 45.2315 145.049 45.2543C145.709 45.2543 146.29 45.2543 146.79 45.2543C147.314 45.2543 147.689 45.2543 147.917 45.2543C148.235 45.2543 148.451 45.1974 148.565 45.0836C148.702 44.9698 148.77 44.7537 148.77 44.4351V19.5177ZM137.438 21.0879H141.568V48.8724H137.438V21.0879ZM174.165 20.5759C173.164 21.6226 171.924 22.6808 170.445 23.7503C168.966 24.8198 167.35 25.8438 165.598 26.8223C163.846 27.778 162.059 28.6086 160.239 29.314C160.011 28.8361 159.681 28.2786 159.249 27.6415C158.817 26.9816 158.407 26.4354 158.02 26.0031C159.886 25.3659 161.718 24.5695 163.516 23.6137C165.313 22.658 166.952 21.6226 168.431 20.5076C169.91 19.3926 171.105 18.3003 172.015 17.2308H175.974C177.271 18.5279 178.716 19.7225 180.309 20.8148C181.925 21.9071 183.609 22.8628 185.361 23.682C187.136 24.5012 188.911 25.1725 190.686 25.6959C190.208 26.151 189.753 26.7085 189.32 27.3684C188.888 28.0283 188.524 28.6427 188.228 29.2116C186.612 28.5745 184.917 27.7894 183.142 26.8564C181.39 25.9234 179.718 24.9108 178.125 23.8185C176.555 22.7263 175.235 21.6454 174.165 20.5759ZM158.771 40.1343H189.73V43.6841H158.771V40.1343ZM166.007 25.73L169.113 26.3444C168.476 27.9828 167.555 29.4392 166.349 30.7135C165.165 31.965 163.857 32.989 162.423 33.7855C162.264 33.6034 162.036 33.3759 161.741 33.1028C161.468 32.807 161.183 32.5225 160.887 32.2495C160.591 31.9764 160.33 31.7602 160.102 31.6009C161.468 30.9638 162.662 30.1446 163.686 29.1433C164.733 28.1193 165.507 26.9816 166.007 25.73ZM165.564 29.9967L167.304 28.0169C168.124 28.4493 169 28.9727 169.933 29.5871C170.888 30.2015 171.639 30.759 172.185 31.2596L170.376 33.4783C169.853 32.9549 169.125 32.3746 168.192 31.7375C167.282 31.0776 166.406 30.4973 165.564 29.9967ZM165.768 32.2836L168.84 32.9663C168.18 34.4909 167.27 35.8676 166.11 37.0964C164.949 38.3025 163.709 39.3037 162.389 40.1001C162.23 39.9181 162.002 39.7019 161.707 39.4516C161.411 39.2013 161.103 38.951 160.785 38.7007C160.466 38.4504 160.193 38.2456 159.966 38.0863C161.263 37.4264 162.423 36.5958 163.447 35.5945C164.494 34.5933 165.268 33.4897 165.768 32.2836ZM165.325 36.2772L167.475 34.3316C167.998 34.6274 168.556 34.9688 169.148 35.3556C169.762 35.7425 170.342 36.1293 170.888 36.5161C171.457 36.8802 171.912 37.2216 172.254 37.5401L170.001 39.7247C169.682 39.4061 169.25 39.042 168.704 38.6324C168.18 38.2228 167.612 37.8132 166.997 37.4036C166.406 36.994 165.848 36.6185 165.325 36.2772ZM180.241 25.9689L183.518 26.6516C183.04 28.1535 182.323 29.5188 181.367 30.7476C180.434 31.9537 179.388 32.9549 178.227 33.7513C178.045 33.5465 177.795 33.3076 177.476 33.0345C177.158 32.7615 176.828 32.4998 176.486 32.2495C176.168 31.9764 175.872 31.7602 175.599 31.6009C176.691 30.9638 177.647 30.156 178.466 29.1775C179.285 28.199 179.877 27.1295 180.241 25.9689ZM179.865 30.2697L181.982 28.1876C182.619 28.4834 183.302 28.8361 184.03 29.2457C184.781 29.6553 185.497 30.0649 186.18 30.4745C186.886 30.8841 187.454 31.2596 187.887 31.6009L185.668 33.922C185.259 33.5807 184.724 33.1938 184.064 32.7615C183.404 32.3064 182.699 31.8626 181.948 31.4303C181.197 30.9752 180.503 30.5883 179.865 30.2697ZM180.651 32.5908L183.893 33.2393C183.393 34.6957 182.653 36.0155 181.675 37.1988C180.696 38.3821 179.627 39.3606 178.466 40.1343C178.284 39.9522 178.034 39.7247 177.715 39.4516C177.396 39.1785 177.067 38.9169 176.725 38.6665C176.407 38.4162 176.122 38.2114 175.872 38.0521C176.987 37.4377 177.965 36.6527 178.807 35.6969C179.649 34.7412 180.264 33.7058 180.651 32.5908ZM180.377 36.482L182.596 34.4681C183.233 34.7867 183.916 35.1622 184.644 35.5945C185.395 36.0041 186.112 36.4251 186.795 36.8575C187.477 37.2898 188.035 37.6881 188.467 38.0521L186.146 40.3049C185.736 39.9409 185.202 39.5313 184.542 39.0761C183.882 38.621 183.188 38.1659 182.46 37.7108C181.731 37.2557 181.037 36.8461 180.377 36.482ZM172.185 24.2623H176.213V49.282H172.185V24.2623Z" fill="white"/>
</g>
<defs>
<filter id="filter0_d_201_17636" x="0" y="0" width="218.113" height="74.6248" filterUnits="userSpaceOnUse" color-interpolation-filters="sRGB">
<feFlood flood-opacity="0" result="BackgroundImageFix"/>
<feColorMatrix in="SourceAlpha" type="matrix" values="0 0 0 0 0 0 0 0 0 0 0 0 0 0 0 0 0 0 127 0" result="hardAlpha"/>
<feOffset dx="10.1384" dy="10.1384"/>
<feComposite in2="hardAlpha" operator="out"/>
<feColorMatrix type="matrix" values="0 0 0 0 0.960784 0 0 0 0 0.941176 0 0 0 0 0.905882 0 0 0 1 0"/>
<feBlend mode="normal" in2="BackgroundImageFix" result="effect1_dropShadow_201_17636"/>
<feBlend mode="normal" in="SourceGraphic" in2="effect1_dropShadow_201_17636" result="shape"/>
</filter>
</defs>
</svg>
