<svg width="266" height="36" viewBox="0 0 266 36" fill="none" xmlns="http://www.w3.org/2000/svg">
<path d="M131.056 27.6788C131.056 27.6788 133.551 31.1816 129.668 32.8192C129.668 32.8192 135.199 33.3289 135.199 27.5703" fill="white"/>
<rect x="0.5" y="0.5" width="264.321" height="26.6604" rx="13.3302" fill="white"/>
<rect x="0.5" y="0.5" width="264.321" height="26.6604" rx="13.3302" stroke="black"/>
<path d="M19.7717 9.24649C19.7717 9.47992 19.8495 9.67877 20.0051 9.84303C20.1694 9.99865 20.3639 10.0765 20.5887 10.0765C20.8221 10.0765 21.021 9.99865 21.1853 9.84303C21.3495 9.67877 21.4317 9.47992 21.4317 9.24649C21.4317 9.01306 21.3495 8.81854 21.1853 8.66292C21.021 8.49865 20.8221 8.41652 20.5887 8.41652C20.3639 8.41652 20.1694 8.49865 20.0051 8.66292C19.8495 8.81854 19.7717 9.01306 19.7717 9.24649ZM19.1752 9.24649C19.1752 8.98713 19.24 8.74937 19.3697 8.53323C19.4994 8.3171 19.668 8.14418 19.8755 8.0145C20.0916 7.88482 20.3294 7.81998 20.5887 7.81998C20.8567 7.81998 21.0988 7.88482 21.3149 8.0145C21.5311 8.14418 21.6997 8.3171 21.8207 8.53323C21.9504 8.74937 22.0152 8.98713 22.0152 9.24649C22.0152 9.50586 21.9504 9.74361 21.8207 9.95975C21.6997 10.1759 21.5311 10.3488 21.3149 10.4785C21.0988 10.5995 20.8567 10.66 20.5887 10.66C20.3294 10.66 20.0916 10.5995 19.8755 10.4785C19.668 10.3488 19.4994 10.1759 19.3697 9.95975C19.24 9.74361 19.1752 9.50586 19.1752 9.24649ZM17.0095 8.83151C17.0008 8.89202 16.9879 8.97848 16.9706 9.09087C16.9619 9.20326 16.9533 9.31998 16.9446 9.44102C16.936 9.56205 16.9317 9.67012 16.9317 9.76522C16.9317 9.99001 16.9317 10.2494 16.9317 10.5433C16.9317 10.8373 16.9317 11.1269 16.9317 11.4122C16.9317 11.6975 16.9317 11.9482 16.9317 12.1644C16.9317 12.3373 16.9317 12.588 16.9317 12.9165C16.9317 13.2451 16.9317 13.6168 16.9317 14.0318C16.9317 14.4468 16.9317 14.8747 16.9317 15.3157C16.9317 15.7479 16.9317 16.1673 16.9317 16.5736C16.9317 16.9799 16.9317 17.3387 16.9317 17.65C16.9317 17.9612 16.9317 18.1946 16.9317 18.3503C16.9317 18.6961 16.8452 18.9554 16.6723 19.1283C16.4994 19.3013 16.2141 19.3877 15.8164 19.3877C15.6348 19.3877 15.4317 19.3834 15.2069 19.3747C14.9907 19.3661 14.7746 19.3531 14.5585 19.3358C14.3423 19.3186 14.1478 19.3056 13.9749 19.2969L13.8841 18.2595C14.1694 18.3113 14.4461 18.3503 14.7141 18.3762C14.9821 18.4021 15.2025 18.4151 15.3755 18.4151C15.5484 18.4151 15.6737 18.3762 15.7515 18.2984C15.8293 18.2119 15.8726 18.0866 15.8812 17.9223C15.8812 17.8013 15.8812 17.5938 15.8812 17.2998C15.8812 16.9972 15.8812 16.6514 15.8812 16.2624C15.8812 15.8647 15.8812 15.4497 15.8812 15.0174C15.8812 14.5765 15.8812 14.1615 15.8812 13.7724C15.8812 13.3747 15.8812 13.0332 15.8812 12.7479C15.8812 12.4626 15.8812 12.2681 15.8812 12.1644C15.8812 12.0174 15.8812 11.7969 15.8812 11.503C15.8812 11.209 15.8812 10.9021 15.8812 10.5822C15.8812 10.2537 15.8812 9.97704 15.8812 9.75226C15.8812 9.61393 15.8683 9.44966 15.8423 9.25946C15.825 9.06926 15.8077 8.92661 15.7904 8.83151H17.0095ZM11.1737 11.0232C11.3553 11.0404 11.5325 11.0577 11.7054 11.075C11.8783 11.0837 12.0685 11.088 12.276 11.088C12.3798 11.088 12.5916 11.088 12.9115 11.088C13.2314 11.088 13.6161 11.088 14.0657 11.088C14.5239 11.088 15.0123 11.088 15.5311 11.088C16.0498 11.088 16.5685 11.088 17.0873 11.088C17.6147 11.088 18.1031 11.088 18.5527 11.088C19.0109 11.088 19.3956 11.088 19.7069 11.088C20.0268 11.088 20.2429 11.088 20.3553 11.088C20.5109 11.088 20.6838 11.0837 20.874 11.075C21.0729 11.0577 21.2544 11.0404 21.4187 11.0232V12.0995C21.2458 12.0909 21.0642 12.0866 20.874 12.0866C20.6925 12.0779 20.5239 12.0736 20.3683 12.0736C20.2559 12.0736 20.0397 12.0736 19.7198 12.0736C19.4086 12.0736 19.0239 12.0736 18.5657 12.0736C18.1161 12.0736 17.6319 12.0736 17.1132 12.0736C16.5945 12.0736 16.0757 12.0736 15.557 12.0736C15.0383 12.0736 14.5498 12.0736 14.0916 12.0736C13.6334 12.0736 13.2443 12.0736 12.9244 12.0736C12.6132 12.0736 12.3971 12.0736 12.276 12.0736C12.0858 12.0736 11.8956 12.0779 11.7054 12.0866C11.5239 12.0866 11.3466 12.0952 11.1737 12.1125V11.0232ZM14.1564 14.0707C14.0181 14.3474 13.8452 14.65 13.6377 14.9785C13.4389 15.307 13.2184 15.6399 12.9763 15.977C12.7429 16.3056 12.5095 16.6125 12.276 16.8978C12.0512 17.1831 11.8481 17.4252 11.6665 17.624L10.7717 17.0275C10.9878 16.8286 11.2126 16.5909 11.4461 16.3142C11.6795 16.0289 11.9086 15.7307 12.1334 15.4194C12.3668 15.1082 12.5786 14.8013 12.7688 14.4987C12.959 14.1874 13.119 13.8978 13.2487 13.6298L14.1564 14.0707ZM19.5772 13.6428C19.7501 13.8502 19.936 14.0966 20.1348 14.3819C20.3423 14.6672 20.5498 14.9742 20.7573 15.3027C20.9734 15.6226 21.1723 15.9338 21.3539 16.2364C21.5354 16.5304 21.691 16.7941 21.8207 17.0275L20.8611 17.5592C20.74 17.2998 20.5887 17.0145 20.4072 16.7033C20.2343 16.392 20.0484 16.0765 19.8495 15.7566C19.6507 15.4367 19.4475 15.1341 19.24 14.8488C19.0412 14.5635 18.8596 14.3171 18.6953 14.1096L19.5772 13.6428ZM25.8928 9.3243C26.1262 9.47992 26.3942 9.67445 26.6968 9.90788C26.9994 10.1327 27.3063 10.3747 27.6175 10.6341C27.9374 10.8848 28.2357 11.1312 28.5124 11.3733C28.789 11.6154 29.0181 11.8272 29.1997 12.0087L28.3827 12.8257C28.2184 12.6615 28.0066 12.4583 27.7472 12.2162C27.4879 11.9742 27.2026 11.7234 26.8913 11.4641C26.5801 11.1961 26.2732 10.9453 25.9706 10.7119C25.668 10.4698 25.3956 10.271 25.1536 10.1154L25.8928 9.3243ZM24.7775 18.0131C25.5383 17.9007 26.2299 17.7451 26.8524 17.5462C27.4835 17.3474 28.0585 17.1226 28.5772 16.8719C29.0959 16.6211 29.5585 16.3704 29.9648 16.1197C30.6305 15.7047 31.2444 15.2292 31.8063 14.6932C32.3683 14.1485 32.8611 13.5866 33.2847 13.0073C33.7083 12.4281 34.0455 11.8747 34.2962 11.3474L34.9187 12.4497C34.6248 12.9857 34.2616 13.5304 33.8294 14.0837C33.3971 14.637 32.9086 15.1687 32.364 15.6788C31.8193 16.1889 31.2184 16.6514 30.5614 17.0664C30.1291 17.3344 29.6536 17.5981 29.1348 17.8575C28.6248 18.1168 28.0628 18.3546 27.449 18.5707C26.8438 18.7782 26.1824 18.9468 25.4648 19.0765L24.7775 18.0131ZM38.07 9.8171C38.3985 9.82574 38.8135 9.83007 39.315 9.83007C39.8251 9.82142 40.3568 9.79981 40.9101 9.76522C41.4634 9.722 41.9692 9.67445 42.4274 9.62257C42.7213 9.57935 43.0282 9.5318 43.3481 9.47992C43.6766 9.4194 43.9922 9.35456 44.2948 9.2854C44.606 9.21623 44.8913 9.14707 45.1507 9.0779C45.4101 9.00874 45.6176 8.93958 45.7732 8.87041L46.4605 9.76522C46.3135 9.79981 46.1795 9.83439 46.0585 9.86897C45.9375 9.90355 45.8294 9.93381 45.7343 9.95975C45.4836 10.0203 45.1896 10.0851 44.8524 10.1543C44.5239 10.2234 44.1738 10.2926 43.802 10.3618C43.4389 10.4223 43.0801 10.4742 42.7256 10.5174C42.2501 10.5866 41.7444 10.6384 41.2083 10.673C40.681 10.7076 40.1666 10.7335 39.6651 10.7508C39.1637 10.7595 38.7184 10.7681 38.3294 10.7768L38.07 9.8171ZM38.7962 18.6485C39.5398 18.3027 40.1536 17.8877 40.6377 17.4036C41.1305 16.9194 41.498 16.3402 41.74 15.6658C41.9821 14.9915 42.1032 14.209 42.1032 13.3185C42.1032 13.3185 42.1032 13.1975 42.1032 12.9554C42.1032 12.7047 42.1032 12.3632 42.1032 11.9309C42.1032 11.49 42.1032 10.9713 42.1032 10.3747L43.1536 10.2321C43.1536 10.4396 43.1536 10.6773 43.1536 10.9453C43.1536 11.2047 43.1536 11.477 43.1536 11.7623C43.1536 12.039 43.1536 12.294 43.1536 12.5275C43.1536 12.7609 43.1536 12.9511 43.1536 13.0981C43.1536 13.2364 43.1536 13.3056 43.1536 13.3056C43.1536 14.222 43.0412 15.052 42.8164 15.7955C42.6003 16.5304 42.2458 17.1917 41.753 17.7796C41.2689 18.3675 40.6248 18.8949 39.8207 19.3618L38.7962 18.6485ZM37.0585 12.9036C37.2055 12.9122 37.3827 12.9252 37.5902 12.9425C37.7977 12.9511 38.0008 12.9554 38.1997 12.9554C38.3207 12.9554 38.5498 12.9554 38.887 12.9554C39.2242 12.9554 39.6305 12.9554 40.106 12.9554C40.5902 12.9554 41.1046 12.9554 41.6493 12.9554C42.2026 12.9554 42.7516 12.9554 43.2962 12.9554C43.8496 12.9554 44.364 12.9554 44.8395 12.9554C45.315 12.9554 45.7213 12.9554 46.0585 12.9554C46.3957 12.9554 46.6205 12.9554 46.7328 12.9554C46.8279 12.9554 46.936 12.9554 47.0571 12.9554C47.1867 12.9468 47.3121 12.9381 47.4331 12.9295C47.5628 12.9208 47.6709 12.9122 47.7573 12.9036V13.9799C47.619 13.9626 47.4591 13.9497 47.2775 13.941C47.096 13.9324 46.923 13.9281 46.7588 13.9281C46.6464 13.9281 46.4216 13.9281 46.0844 13.9281C45.7559 13.9281 45.3496 13.9281 44.8654 13.9281C44.3899 13.9281 43.8755 13.9281 43.3222 13.9281C42.7775 13.9281 42.2285 13.9281 41.6752 13.9281C41.1219 13.9281 40.6032 13.9281 40.119 13.9281C39.6349 13.9281 39.2242 13.9281 38.887 13.9281C38.5585 13.9281 38.338 13.9281 38.2256 13.9281C38.0181 13.9281 37.8106 13.9324 37.6031 13.941C37.4043 13.9497 37.2227 13.9626 37.0585 13.9799V12.9036ZM51.7775 11.7105C51.8553 11.7191 51.9764 11.7278 52.1406 11.7364C52.3135 11.7451 52.4865 11.7537 52.6594 11.7623C52.8409 11.7623 52.9879 11.7623 53.1003 11.7623C53.2473 11.7623 53.4764 11.7623 53.7876 11.7623C54.1075 11.7623 54.4706 11.7623 54.8769 11.7623C55.2833 11.7623 55.694 11.7623 56.1089 11.7623C56.5239 11.7623 56.9087 11.7623 57.2631 11.7623C57.6176 11.7623 57.9029 11.7623 58.119 11.7623C58.266 11.7623 58.413 11.7623 58.56 11.7623C58.7069 11.7537 58.8236 11.7451 58.9101 11.7364C58.9014 11.8056 58.8971 11.905 58.8971 12.0347C58.8971 12.1557 58.8971 12.2768 58.8971 12.3978C58.8971 12.4756 58.8971 12.6615 58.8971 12.9554C58.8971 13.2494 58.8971 13.6082 58.8971 14.0318C58.8971 14.4554 58.8971 14.9093 58.8971 15.3935C58.8971 15.869 58.8971 16.3402 58.8971 16.807C58.8971 17.2652 58.8971 17.6759 58.8971 18.039C58.8971 18.4021 58.8971 18.6745 58.8971 18.856C58.8971 18.9598 58.8971 19.0765 58.8971 19.2062C58.9058 19.3445 58.9144 19.4612 58.9231 19.5563H57.8986C57.9072 19.4785 57.9115 19.3704 57.9115 19.2321C57.9115 19.0938 57.9115 18.9598 57.9115 18.8301C57.9115 18.6053 57.9115 18.307 57.9115 17.9353C57.9115 17.5635 57.9115 17.1572 57.9115 16.7162C57.9115 16.2753 57.9115 15.8344 57.9115 15.3935C57.9115 14.9439 57.9115 14.5289 57.9115 14.1485C57.9115 13.7595 57.9115 13.4353 57.9115 13.1759C57.9115 12.9165 57.9115 12.7523 57.9115 12.6831C57.8337 12.6831 57.6781 12.6831 57.4447 12.6831C57.2199 12.6831 56.9476 12.6831 56.6277 12.6831C56.3078 12.6831 55.9663 12.6831 55.6032 12.6831C55.2487 12.6831 54.9029 12.6831 54.5657 12.6831C54.2285 12.6831 53.9303 12.6831 53.6709 12.6831C53.4115 12.6831 53.2213 12.6831 53.1003 12.6831C52.9879 12.6831 52.8409 12.6874 52.6594 12.6961C52.4865 12.6961 52.3135 12.7004 52.1406 12.709C51.9764 12.7177 51.8553 12.722 51.7775 12.722V11.7105ZM52.0628 14.7969C52.1925 14.8056 52.3611 14.8142 52.5686 14.8229C52.7847 14.8315 53.0009 14.8358 53.217 14.8358C53.3294 14.8358 53.5239 14.8358 53.8006 14.8358C54.0772 14.8358 54.4014 14.8358 54.7732 14.8358C55.145 14.8358 55.5297 14.8358 55.9274 14.8358C56.3251 14.8358 56.7012 14.8358 57.0556 14.8358C57.4101 14.8358 57.7084 14.8358 57.9504 14.8358C58.1925 14.8358 58.3481 14.8358 58.4173 14.8358V15.7696C58.3481 15.7696 58.1925 15.7696 57.9504 15.7696C57.7084 15.7696 57.4101 15.7696 57.0556 15.7696C56.7012 15.7696 56.3251 15.7696 55.9274 15.7696C55.5297 15.7696 55.145 15.7696 54.7732 15.7696C54.4014 15.7696 54.0772 15.7696 53.8006 15.7696C53.5239 15.7696 53.3337 15.7696 53.23 15.7696C53.0052 15.7696 52.7847 15.7739 52.5686 15.7825C52.3611 15.7825 52.1925 15.7868 52.0628 15.7955V14.7969ZM51.6219 18.026C51.7256 18.0347 51.8726 18.0477 52.0628 18.0649C52.253 18.0736 52.4605 18.0779 52.6853 18.0779C52.8063 18.0779 53.0182 18.0779 53.3207 18.0779C53.6233 18.0779 53.9735 18.0779 54.3712 18.0779C54.7689 18.0779 55.1839 18.0779 55.6161 18.0779C56.0484 18.0779 56.4591 18.0779 56.8481 18.0779C57.2372 18.0779 57.57 18.0779 57.8467 18.0779C58.132 18.0779 58.3222 18.0779 58.4173 18.0779V19.0376C58.3136 19.0376 58.119 19.0376 57.8337 19.0376C57.5484 19.0376 57.2069 19.0376 56.8092 19.0376C56.4202 19.0376 56.0138 19.0376 55.5902 19.0376C55.1666 19.0376 54.7559 19.0376 54.3582 19.0376C53.9605 19.0376 53.6147 19.0376 53.3207 19.0376C53.0268 19.0376 52.8193 19.0376 52.6983 19.0376C52.4908 19.0376 52.2833 19.0419 52.0758 19.0505C51.8769 19.0592 51.7256 19.0635 51.6219 19.0635V18.026ZM63.1507 8.46839H69.0124V9.3243H63.1507V8.46839ZM62.7228 11.1139H69.2847V11.9828H62.7228V11.1139ZM62.4634 18.5059H74.1997V19.4137H62.4634V18.5059ZM63.8121 15.9641H72.851V16.8589H63.8121V15.9641ZM66.8856 8.81854H67.8064V14.771H66.8856V8.81854ZM67.9101 14.5246H68.9087V19.1283H67.9101V14.5246ZM70.0888 8.67589H70.9836V13.0203H70.0888V8.67589ZM72.5139 8.0145H73.4346V13.8243C73.4346 14.0923 73.4 14.2955 73.3309 14.4338C73.2703 14.5721 73.1407 14.6802 72.9418 14.758C72.743 14.8272 72.4836 14.8747 72.1637 14.9007C71.8438 14.918 71.4548 14.9266 70.9966 14.9266C70.9706 14.7969 70.9274 14.65 70.8669 14.4857C70.8064 14.3128 70.7415 14.1615 70.6724 14.0318C71.0441 14.0404 71.377 14.0491 71.6709 14.0577C71.9649 14.0577 72.1594 14.0534 72.2545 14.0448C72.3582 14.0361 72.4274 14.0188 72.462 13.9929C72.4966 13.9583 72.5139 13.8978 72.5139 13.8113V8.0145ZM64.3827 8.83151H65.2775V11.0361C65.2775 11.4857 65.2257 11.9569 65.1219 12.4497C65.0268 12.9425 64.8323 13.418 64.5383 13.8762C64.253 14.3344 63.8251 14.7407 63.2545 15.0952C63.2199 15.026 63.1594 14.9482 63.0729 14.8618C62.9951 14.7753 62.913 14.6932 62.8265 14.6154C62.7487 14.5289 62.6796 14.4641 62.619 14.4209C63.1378 14.101 63.5182 13.7508 63.7602 13.3704C64.011 12.99 64.1752 12.5966 64.253 12.1903C64.3395 11.784 64.3827 11.3949 64.3827 11.0232V8.83151ZM75.8467 10.2969C76.0888 10.2883 76.3093 10.2796 76.5081 10.271C76.7156 10.2537 76.8799 10.2407 77.0009 10.2321C77.2084 10.2061 77.5067 10.1759 77.8957 10.1413C78.2934 10.0981 78.7473 10.0549 79.2574 10.0116C79.7675 9.95975 80.3165 9.90788 80.9044 9.856C81.4923 9.80413 82.0845 9.75226 82.681 9.70038C83.1565 9.65716 83.6061 9.62257 84.0297 9.59664C84.4534 9.56205 84.8467 9.53612 85.2098 9.51883C85.573 9.49289 85.8972 9.4756 86.1825 9.46695V10.5044C85.9404 10.5044 85.6637 10.5087 85.3525 10.5174C85.0413 10.526 84.7343 10.5433 84.4317 10.5693C84.1291 10.5952 83.8655 10.6427 83.6407 10.7119C83.1825 10.8589 82.7675 11.0837 82.3957 11.3863C82.0326 11.6802 81.7214 12.0217 81.462 12.4108C81.2026 12.7998 81.0038 13.2018 80.8655 13.6168C80.7358 14.0318 80.6709 14.4338 80.6709 14.8229C80.6709 15.3243 80.7574 15.7652 80.9303 16.1456C81.1032 16.5174 81.3366 16.833 81.6306 17.0923C81.9332 17.3517 82.2747 17.5635 82.6551 17.7278C83.0355 17.892 83.4375 18.0174 83.8611 18.1039C84.2934 18.1817 84.7214 18.2249 85.145 18.2335L84.7689 19.3099C84.2848 19.2926 83.8006 19.2235 83.3165 19.1024C82.8323 18.99 82.3698 18.8258 81.9289 18.6096C81.4879 18.3848 81.0946 18.1039 80.7487 17.7667C80.4029 17.4295 80.1306 17.0361 79.9317 16.5866C79.7329 16.137 79.6335 15.6226 79.6335 15.0433C79.6335 14.369 79.7502 13.7465 79.9836 13.1759C80.2257 12.5966 80.5326 12.0909 80.9044 11.6586C81.2761 11.2263 81.6608 10.8935 82.0585 10.66C81.7819 10.6946 81.4361 10.7335 81.0211 10.7768C80.6147 10.82 80.1781 10.8675 79.7113 10.9194C79.2444 10.9626 78.7732 11.0145 78.2977 11.075C77.8309 11.1355 77.3943 11.1961 76.9879 11.2566C76.5816 11.3085 76.2401 11.3647 75.9634 11.4252L75.8467 10.2969ZM84.315 12.0995C84.4101 12.2379 84.5225 12.4151 84.6522 12.6312C84.7905 12.8387 84.9245 13.0549 85.0542 13.2796C85.1839 13.4958 85.292 13.7033 85.3784 13.9021L84.717 14.2134C84.5701 13.8935 84.4058 13.5779 84.2242 13.2667C84.0427 12.9468 83.8525 12.6528 83.6536 12.3848L84.315 12.0995ZM85.7286 11.5549C85.8323 11.6932 85.9534 11.8661 86.0917 12.0736C86.23 12.2811 86.364 12.4972 86.4937 12.722C86.632 12.9381 86.7531 13.1456 86.8568 13.3445L86.1825 13.6687C86.0268 13.3488 85.8539 13.0332 85.6637 12.722C85.4822 12.4108 85.292 12.1211 85.0931 11.8531L85.7286 11.5549ZM88.4649 18.6615H100.097V19.4526H88.4649V18.6615ZM88.5427 10.2321H100.033V11.0361H88.5427V10.2321ZM89.4375 16.7551H99.2805V17.5332H89.4375V16.7551ZM93.743 8.92228H94.7156V19.0376H93.743V8.92228ZM98.256 8.0145L98.7747 8.76666C98.1954 8.87041 97.5384 8.96551 96.8035 9.05197C96.0773 9.12978 95.3122 9.19894 94.5081 9.25946C93.7041 9.31133 92.8957 9.35888 92.083 9.40211C91.2704 9.43669 90.4836 9.45831 89.7228 9.46695C89.7228 9.35456 89.6969 9.22488 89.645 9.0779C89.6018 8.92228 89.5585 8.79692 89.5153 8.70182C90.2675 8.67589 91.0456 8.64563 91.8496 8.61104C92.6623 8.56782 93.4577 8.52027 94.2358 8.46839C95.0225 8.40787 95.7574 8.33871 96.4404 8.2609C97.132 8.18309 97.7372 8.10096 98.256 8.0145ZM90.7992 14.1615V15.1471H97.8021V14.1615H90.7992ZM90.7992 12.5275V13.5001H97.8021V12.5275H90.7992ZM89.8525 11.8272H98.7877V15.8603H89.8525V11.8272ZM112.819 18.3632C112.422 17.905 112.024 17.516 111.626 17.1961C111.229 16.8675 110.814 16.6168 110.381 16.4439C109.958 16.2624 109.508 16.1716 109.033 16.1716C108.808 16.1716 108.596 16.2105 108.397 16.2883C108.207 16.3575 108.051 16.4612 107.93 16.5995C107.809 16.7379 107.749 16.9021 107.749 17.0923C107.749 17.4209 107.878 17.6673 108.138 17.8315C108.406 17.9871 108.721 18.0649 109.085 18.0649C109.508 18.0649 109.85 17.9569 110.109 17.7407C110.377 17.5246 110.58 17.2307 110.719 16.8589C110.865 16.4785 110.965 16.0419 111.017 15.5491C111.077 15.0477 111.108 14.5116 111.108 13.941C111.108 13.3964 111.025 12.9252 110.861 12.5275C110.706 12.1298 110.489 11.8229 110.213 11.6067C109.936 11.3906 109.612 11.2825 109.24 11.2825C108.912 11.2825 108.548 11.369 108.151 11.5419C107.762 11.7061 107.368 11.9309 106.971 12.2162C106.573 12.4929 106.188 12.7998 105.816 13.137C105.453 13.4742 105.129 13.807 104.844 14.1355L104.87 12.8906C105.138 12.6312 105.449 12.3589 105.804 12.0736C106.158 11.7796 106.538 11.5073 106.945 11.2566C107.351 10.9972 107.762 10.7854 108.177 10.6211C108.6 10.4569 109.015 10.3747 109.422 10.3747C110.001 10.3747 110.489 10.5347 110.887 10.8546C111.285 11.1744 111.583 11.6154 111.782 12.1773C111.989 12.7306 112.093 13.3661 112.093 14.0837C112.093 14.8272 112.046 15.5015 111.951 16.1067C111.864 16.7119 111.708 17.2263 111.484 17.65C111.259 18.0736 110.956 18.3978 110.576 18.6226C110.195 18.8474 109.724 18.9598 109.162 18.9598C108.747 18.9598 108.363 18.8992 108.008 18.7782C107.662 18.6572 107.386 18.4626 107.178 18.1946C106.971 17.9266 106.867 17.5722 106.867 17.1312C106.867 16.7854 106.962 16.4785 107.152 16.2105C107.342 15.9425 107.606 15.735 107.943 15.588C108.289 15.4324 108.678 15.3546 109.11 15.3546C109.897 15.3546 110.628 15.5318 111.302 15.8863C111.985 16.2321 112.677 16.7768 113.377 17.5203L112.819 18.3632ZM104.675 11.6586C104.572 11.6672 104.412 11.6889 104.195 11.7234C103.988 11.7494 103.75 11.7796 103.482 11.8142C103.214 11.8488 102.942 11.8834 102.665 11.918C102.389 11.9525 102.129 11.9915 101.887 12.0347L101.783 10.9713C101.922 10.9799 102.056 10.9842 102.185 10.9842C102.324 10.9756 102.471 10.967 102.626 10.9583C102.808 10.941 103.028 10.9194 103.288 10.8935C103.556 10.8589 103.832 10.8243 104.118 10.7897C104.412 10.7465 104.684 10.7033 104.935 10.66C105.194 10.6082 105.397 10.5563 105.544 10.5044L105.92 10.9583C105.851 11.0707 105.765 11.2047 105.661 11.3603C105.566 11.5073 105.471 11.6586 105.376 11.8142C105.28 11.9612 105.198 12.0952 105.129 12.2162L104.727 13.9799C104.58 14.2134 104.399 14.49 104.182 14.8099C103.966 15.1211 103.737 15.454 103.495 15.8085C103.253 16.1543 103.011 16.5001 102.769 16.8459C102.536 17.1917 102.315 17.503 102.108 17.7796L101.472 16.8978C101.628 16.699 101.818 16.4526 102.043 16.1586C102.267 15.8647 102.501 15.5534 102.743 15.2249C102.994 14.8877 103.236 14.5549 103.469 14.2263C103.703 13.8978 103.91 13.5952 104.092 13.3185C104.282 13.0419 104.425 12.8214 104.52 12.6572L104.572 11.9958L104.675 11.6586ZM104.559 9.49289C104.559 9.34592 104.559 9.1903 104.559 9.02603C104.559 8.86177 104.546 8.6975 104.52 8.53323L105.726 8.57214C105.691 8.74505 105.648 9.01739 105.596 9.38914C105.553 9.75226 105.505 10.1845 105.453 10.686C105.402 11.1874 105.35 11.7148 105.298 12.2681C105.255 12.8214 105.22 13.3704 105.194 13.9151C105.168 14.4511 105.155 14.9482 105.155 15.4064C105.155 15.7955 105.155 16.1586 105.155 16.4958C105.155 16.8243 105.159 17.1528 105.168 17.4814C105.177 17.8013 105.19 18.1514 105.207 18.5318C105.216 18.6442 105.224 18.7739 105.233 18.9209C105.242 19.0678 105.255 19.2018 105.272 19.3229H104.144C104.161 19.2364 104.17 19.1111 104.17 18.9468C104.178 18.7912 104.182 18.6615 104.182 18.5577C104.191 18.1428 104.195 17.7753 104.195 17.4554C104.195 17.1356 104.195 16.807 104.195 16.4698C104.204 16.124 104.213 15.7134 104.221 15.2379C104.221 15.0477 104.23 14.7883 104.247 14.4598C104.265 14.1226 104.286 13.7551 104.312 13.3574C104.338 12.9511 104.364 12.5404 104.39 12.1255C104.416 11.7105 104.442 11.3214 104.468 10.9583C104.494 10.5866 104.515 10.271 104.533 10.0116C104.55 9.75226 104.559 9.57935 104.559 9.49289ZM115.18 9.3243H125.269V10.1283H115.18V9.3243ZM115.763 11.0361H124.672V11.7753H115.763V11.0361ZM117.721 15.7955H124.037V16.418H117.721V15.7955ZM117.721 17.1961H124.037V17.8185H117.721V17.1961ZM117.708 18.6226H124.128V19.3747H117.708V18.6226ZM114.57 12.6961H125.84V13.5001H114.57V12.6961ZM119.706 9.86897H120.704V13.3185H119.706V9.86897ZM116.814 8.23496L117.657 7.92372C117.855 8.13122 118.041 8.36032 118.214 8.61104C118.396 8.85312 118.53 9.07358 118.616 9.27243L117.721 9.63554C117.644 9.43669 117.514 9.20759 117.332 8.94822C117.159 8.68021 116.987 8.44246 116.814 8.23496ZM122.636 7.89779L123.661 8.20903C123.479 8.45975 123.289 8.70615 123.09 8.94822C122.891 9.1903 122.714 9.39779 122.559 9.5707L121.742 9.2854C121.897 9.08655 122.057 8.85744 122.221 8.59808C122.394 8.33871 122.533 8.10528 122.636 7.89779ZM117.488 13.0462L118.435 13.2796C118.063 14.3171 117.566 15.2638 116.943 16.1197C116.321 16.967 115.638 17.6802 114.894 18.2595C114.851 18.1903 114.782 18.1125 114.687 18.026C114.6 17.9309 114.51 17.8402 114.414 17.7537C114.319 17.6586 114.237 17.5851 114.168 17.5332C114.903 17.0232 115.556 16.3791 116.126 15.601C116.706 14.8229 117.159 13.9713 117.488 13.0462ZM117.216 14.2652H124.634V19.8157H123.622V15.0174H118.175V19.8416H117.216V14.2652ZM131.105 8.72776C131.07 8.9439 131.044 9.16436 131.027 9.38914C131.01 9.60528 130.997 9.82142 130.988 10.0376C130.971 10.4007 130.953 10.8502 130.936 11.3863C130.919 11.9223 130.902 12.4929 130.884 13.0981C130.867 13.6946 130.854 14.2912 130.845 14.8877C130.837 15.4843 130.832 16.0203 130.832 16.4958C130.832 16.9713 130.923 17.3517 131.105 17.637C131.286 17.9223 131.537 18.1255 131.857 18.2465C132.177 18.3675 132.544 18.4281 132.959 18.4281C133.547 18.4281 134.079 18.3546 134.554 18.2076C135.03 18.052 135.453 17.8488 135.825 17.5981C136.197 17.3387 136.525 17.0491 136.811 16.7292C137.105 16.4093 137.368 16.0808 137.602 15.7436L138.341 16.6255C138.116 16.9367 137.84 17.2609 137.511 17.5981C137.191 17.9266 136.811 18.2335 136.37 18.5188C135.929 18.8041 135.419 19.0376 134.84 19.2191C134.269 19.4007 133.629 19.4915 132.92 19.4915C132.306 19.4915 131.762 19.3964 131.286 19.2062C130.811 19.016 130.439 18.709 130.171 18.2854C129.903 17.8618 129.769 17.2998 129.769 16.5995C129.769 16.2105 129.773 15.7825 129.782 15.3157C129.791 14.8402 129.804 14.3517 129.821 13.8502C129.838 13.3488 129.851 12.8603 129.86 12.3848C129.868 11.9007 129.877 11.4554 129.886 11.0491C129.894 10.6427 129.899 10.3056 129.899 10.0376C129.899 9.79548 129.89 9.56205 129.873 9.33727C129.855 9.11249 129.829 8.90499 129.795 8.71479L131.105 8.72776ZM140.374 10.2191C140.624 10.2105 140.849 10.2018 141.048 10.1932C141.247 10.1759 141.407 10.1629 141.528 10.1543C141.735 10.1283 142.033 10.0981 142.422 10.0635C142.82 10.0203 143.274 9.97704 143.784 9.93381C144.294 9.88194 144.843 9.83007 145.431 9.77819C146.019 9.72632 146.611 9.67445 147.208 9.62257C147.683 9.57935 148.133 9.54476 148.557 9.51883C148.98 9.48424 149.374 9.45831 149.737 9.44102C150.1 9.41508 150.424 9.39779 150.709 9.38914V10.4266C150.467 10.418 150.191 10.418 149.879 10.4266C149.568 10.4353 149.261 10.4569 148.959 10.4915C148.656 10.5174 148.392 10.5649 148.167 10.6341C147.709 10.7811 147.294 11.0059 146.923 11.3085C146.559 11.6024 146.248 11.9439 145.989 12.333C145.729 12.7134 145.531 13.1154 145.392 13.539C145.263 13.954 145.198 14.3517 145.198 14.7321C145.198 15.2422 145.284 15.6874 145.457 16.0678C145.63 16.4396 145.863 16.7551 146.157 17.0145C146.46 17.2739 146.801 17.4857 147.182 17.65C147.571 17.8142 147.977 17.9353 148.401 18.0131C148.825 18.0909 149.248 18.1384 149.672 18.1557L149.296 19.2321C148.82 19.2148 148.336 19.1456 147.843 19.0246C147.359 18.9122 146.897 18.7479 146.456 18.5318C146.015 18.307 145.621 18.026 145.276 17.6889C144.93 17.3517 144.657 16.9583 144.459 16.5087C144.26 16.0592 144.16 15.5448 144.16 14.9655C144.16 14.2912 144.277 13.6687 144.51 13.0981C144.752 12.5188 145.059 12.0131 145.431 11.5808C145.803 11.1485 146.188 10.8157 146.585 10.5822C146.309 10.6168 145.967 10.6557 145.561 10.6989C145.154 10.7422 144.714 10.7897 144.238 10.8416C143.771 10.8848 143.304 10.9367 142.837 10.9972C142.371 11.0577 141.93 11.1183 141.515 11.1788C141.108 11.2306 140.767 11.2868 140.49 11.3474L140.374 10.2191ZM157.339 8.63698C157.295 8.80989 157.261 8.96983 157.235 9.11681C157.218 9.25514 157.196 9.39779 157.17 9.54476C157.135 9.78684 157.092 10.0894 157.04 10.4525C156.997 10.8157 156.945 11.2134 156.885 11.6456C156.833 12.0779 156.777 12.5232 156.716 12.9814C156.664 13.4396 156.612 13.8848 156.561 14.3171C156.517 14.7494 156.483 15.1428 156.457 15.4972C156.431 15.8517 156.418 16.1456 156.418 16.3791C156.418 17.0102 156.595 17.5073 156.95 17.8704C157.313 18.2335 157.862 18.4151 158.597 18.4151C159.262 18.4151 159.833 18.3243 160.308 18.1428C160.793 17.9612 161.164 17.7062 161.424 17.3776C161.692 17.0405 161.826 16.6514 161.826 16.2105C161.826 15.7782 161.709 15.333 161.476 14.8747C161.242 14.4079 160.888 13.9713 160.412 13.5649L161.553 13.3315C161.994 13.8243 162.323 14.3085 162.539 14.784C162.764 15.2508 162.876 15.7652 162.876 16.3272C162.876 16.967 162.695 17.5203 162.331 17.9871C161.977 18.454 161.48 18.8085 160.84 19.0505C160.2 19.3013 159.452 19.4266 158.597 19.4266C158.009 19.4266 157.473 19.3315 156.988 19.1413C156.513 18.9598 156.133 18.6572 155.847 18.2335C155.562 17.8099 155.419 17.2436 155.419 16.5347C155.419 16.258 155.437 15.8949 155.471 15.4453C155.514 14.9958 155.566 14.5073 155.627 13.9799C155.696 13.4439 155.765 12.8992 155.834 12.3459C155.912 11.784 155.977 11.2566 156.029 10.7638C156.089 10.271 156.133 9.84303 156.158 9.47992C156.184 9.25514 156.197 9.0779 156.197 8.94822C156.197 8.80989 156.189 8.68021 156.171 8.55917L157.339 8.63698ZM153.176 10.3618C153.548 10.4742 153.954 10.5693 154.395 10.6471C154.836 10.7249 155.281 10.7854 155.731 10.8286C156.18 10.8632 156.595 10.8805 156.975 10.8805C157.477 10.8805 157.948 10.8675 158.389 10.8416C158.839 10.8157 159.249 10.7724 159.621 10.7119L159.595 11.6845C159.18 11.7191 158.769 11.7494 158.363 11.7753C157.957 11.7926 157.49 11.8013 156.963 11.8013C156.582 11.8013 156.167 11.784 155.718 11.7494C155.268 11.7061 154.818 11.6456 154.369 11.5678C153.919 11.49 153.504 11.4036 153.124 11.3085L153.176 10.3618ZM152.865 13.5779C153.28 13.7249 153.716 13.8416 154.174 13.9281C154.641 14.0059 155.099 14.0621 155.549 14.0966C155.999 14.1312 156.427 14.1485 156.833 14.1485C157.274 14.1485 157.719 14.1399 158.169 14.1226C158.627 14.0966 159.081 14.0491 159.53 13.9799L159.504 14.9655C159.081 15.0174 158.661 15.052 158.246 15.0693C157.831 15.0866 157.403 15.0952 156.963 15.0952C156.262 15.0952 155.54 15.052 154.797 14.9655C154.062 14.8791 153.401 14.7494 152.813 14.5765L152.865 13.5779ZM174.937 10.1543C174.893 10.2061 174.837 10.2926 174.768 10.4136C174.707 10.526 174.656 10.6298 174.612 10.7249C174.448 11.1485 174.232 11.6197 173.964 12.1384C173.696 12.6485 173.398 13.1543 173.069 13.6557C172.741 14.1572 172.395 14.6111 172.032 15.0174C171.556 15.5534 171.033 16.0765 170.463 16.5866C169.892 17.088 169.291 17.5592 168.66 18.0001C168.029 18.4324 167.372 18.8041 166.689 19.1154L165.859 18.2465C166.559 17.9698 167.229 17.6283 167.869 17.222C168.517 16.807 169.122 16.3575 169.684 15.8733C170.255 15.3805 170.761 14.8877 171.202 14.3949C171.496 14.0577 171.785 13.6817 172.071 13.2667C172.365 12.843 172.624 12.4151 172.849 11.9828C173.082 11.5419 173.251 11.1442 173.354 10.7897C173.285 10.7897 173.121 10.7897 172.862 10.7897C172.602 10.7897 172.295 10.7897 171.941 10.7897C171.586 10.7897 171.215 10.7897 170.826 10.7897C170.437 10.7897 170.065 10.7897 169.71 10.7897C169.356 10.7897 169.049 10.7897 168.79 10.7897C168.539 10.7897 168.375 10.7897 168.297 10.7897C168.15 10.7897 167.981 10.794 167.791 10.8027C167.61 10.8113 167.441 10.82 167.285 10.8286C167.138 10.8373 167.039 10.8459 166.987 10.8546V9.67445C167.048 9.68309 167.156 9.69606 167.311 9.71335C167.475 9.722 167.648 9.73064 167.83 9.73929C168.012 9.74793 168.167 9.75226 168.297 9.75226C168.392 9.75226 168.565 9.75226 168.816 9.75226C169.066 9.75226 169.365 9.75226 169.71 9.75226C170.065 9.75226 170.432 9.75226 170.813 9.75226C171.193 9.75226 171.556 9.75226 171.902 9.75226C172.256 9.75226 172.559 9.75226 172.81 9.75226C173.061 9.75226 173.225 9.75226 173.303 9.75226C173.519 9.75226 173.709 9.74361 173.873 9.72632C174.046 9.70903 174.18 9.68309 174.275 9.64851L174.937 10.1543ZM172.2 14.3301C172.555 14.624 172.918 14.9482 173.29 15.3027C173.67 15.6572 174.042 16.0246 174.405 16.405C174.768 16.7768 175.105 17.1356 175.416 17.4814C175.728 17.8185 175.996 18.1255 176.22 18.4021L175.313 19.1802C175.01 18.7652 174.647 18.32 174.223 17.8445C173.8 17.3603 173.35 16.8805 172.875 16.405C172.408 15.9209 171.937 15.4756 171.461 15.0693L172.2 14.3301ZM181.901 17.6889C181.901 17.5678 181.901 17.3258 181.901 16.9626C181.901 16.5909 181.901 16.1543 181.901 15.6528C181.901 15.1428 181.901 14.6111 181.901 14.0577C181.901 13.4958 181.901 12.9511 181.901 12.4237C181.901 11.8964 181.901 11.4295 181.901 11.0232C181.901 10.6168 181.901 10.3229 181.901 10.1413C181.901 9.95975 181.892 9.73929 181.875 9.47992C181.857 9.22056 181.831 8.99145 181.797 8.7926H183.068C183.05 8.9828 183.029 9.20759 183.003 9.46695C182.986 9.72632 182.977 9.9511 182.977 10.1413C182.977 10.4785 182.977 10.8848 182.977 11.3603C182.977 11.8272 182.977 12.3286 182.977 12.8647C182.977 13.392 182.977 13.9194 182.977 14.4468C182.986 14.9655 182.99 15.454 182.99 15.9122C182.99 16.3618 182.99 16.7465 182.99 17.0664C182.99 17.3776 182.99 17.5851 182.99 17.6889C182.99 17.8272 182.99 17.9871 182.99 18.1687C182.999 18.3503 183.012 18.5361 183.029 18.7263C183.046 18.9079 183.059 19.0722 183.068 19.2191H181.81C181.844 19.0116 181.866 18.7652 181.875 18.4799C181.892 18.1946 181.901 17.9309 181.901 17.6889ZM182.757 12.1903C183.18 12.32 183.647 12.4756 184.157 12.6572C184.676 12.8301 185.203 13.0159 185.739 13.2148C186.275 13.4136 186.781 13.6168 187.257 13.8243C187.741 14.0232 188.16 14.2134 188.514 14.3949L188.074 15.4972C187.702 15.2897 187.282 15.0866 186.816 14.8877C186.349 14.6802 185.869 14.477 185.376 14.2782C184.892 14.0794 184.421 13.9021 183.963 13.7465C183.513 13.5822 183.111 13.4482 182.757 13.3445V12.1903ZM193.378 18.4151C193.429 18.3113 193.464 18.2119 193.481 18.1168C193.499 18.0217 193.507 17.9093 193.507 17.7796C193.507 17.65 193.507 17.4079 193.507 17.0534C193.507 16.699 193.507 16.2753 193.507 15.7825C193.507 15.2897 193.507 14.7753 193.507 14.2393C193.507 13.6946 193.507 13.1672 193.507 12.6572C193.507 12.1384 193.507 11.6802 193.507 11.2825C193.507 10.8762 193.507 10.5693 193.507 10.3618C193.507 10.2494 193.499 10.1154 193.481 9.95975C193.473 9.80413 193.46 9.65716 193.442 9.51883C193.434 9.3805 193.416 9.26811 193.391 9.18165H194.674C194.648 9.33727 194.627 9.52747 194.61 9.75226C194.592 9.9684 194.584 10.1716 194.584 10.3618C194.584 10.5347 194.584 10.7854 194.584 11.1139C194.584 11.4425 194.584 11.8185 194.584 12.2422C194.584 12.6572 194.584 13.0981 194.584 13.5649C194.584 14.0318 194.584 14.49 194.584 14.9396C194.584 15.3892 194.584 15.8085 194.584 16.1975C194.584 16.5779 194.584 16.9021 194.584 17.1701C194.584 17.4381 194.584 17.6197 194.584 17.7148C195.206 17.5592 195.846 17.3387 196.503 17.0534C197.169 16.7681 197.817 16.4353 198.448 16.0549C199.088 15.6658 199.684 15.2422 200.238 14.784C200.8 14.3171 201.28 13.82 201.677 13.2926L202.261 14.2004C201.422 15.2465 200.35 16.1629 199.045 16.9497C197.748 17.7364 196.291 18.3632 194.674 18.8301C194.605 18.8474 194.523 18.8733 194.428 18.9079C194.333 18.9511 194.233 19.003 194.13 19.0635L193.378 18.4151ZM213.842 10.1543C213.798 10.2061 213.742 10.2926 213.673 10.4136C213.612 10.526 213.561 10.6298 213.517 10.7249C213.353 11.1485 213.137 11.6197 212.869 12.1384C212.601 12.6485 212.303 13.1543 211.974 13.6557C211.646 14.1572 211.3 14.6111 210.937 15.0174C210.461 15.5534 209.938 16.0765 209.367 16.5866C208.797 17.088 208.196 17.5592 207.565 18.0001C206.934 18.4324 206.277 18.8041 205.594 19.1154L204.764 18.2465C205.464 17.9698 206.134 17.6283 206.774 17.222C207.422 16.807 208.027 16.3575 208.589 15.8733C209.16 15.3805 209.666 14.8877 210.107 14.3949C210.401 14.0577 210.69 13.6817 210.976 13.2667C211.27 12.843 211.529 12.4151 211.754 11.9828C211.987 11.5419 212.156 11.1442 212.259 10.7897C212.19 10.7897 212.026 10.7897 211.767 10.7897C211.507 10.7897 211.2 10.7897 210.846 10.7897C210.491 10.7897 210.12 10.7897 209.731 10.7897C209.342 10.7897 208.97 10.7897 208.615 10.7897C208.261 10.7897 207.954 10.7897 207.695 10.7897C207.444 10.7897 207.28 10.7897 207.202 10.7897C207.055 10.7897 206.886 10.794 206.696 10.8027C206.514 10.8113 206.346 10.82 206.19 10.8286C206.043 10.8373 205.944 10.8459 205.892 10.8546V9.67445C205.952 9.68309 206.061 9.69606 206.216 9.71335C206.38 9.722 206.553 9.73064 206.735 9.73929C206.916 9.74793 207.072 9.75226 207.202 9.75226C207.297 9.75226 207.47 9.75226 207.721 9.75226C207.971 9.75226 208.27 9.75226 208.615 9.75226C208.97 9.75226 209.337 9.75226 209.718 9.75226C210.098 9.75226 210.461 9.75226 210.807 9.75226C211.161 9.75226 211.464 9.75226 211.715 9.75226C211.965 9.75226 212.13 9.75226 212.208 9.75226C212.424 9.75226 212.614 9.74361 212.778 9.72632C212.951 9.70903 213.085 9.68309 213.18 9.64851L213.842 10.1543ZM211.105 14.3301C211.46 14.624 211.823 14.9482 212.195 15.3027C212.575 15.6572 212.947 16.0246 213.31 16.405C213.673 16.7768 214.01 17.1356 214.321 17.4814C214.633 17.8185 214.901 18.1255 215.125 18.4021L214.218 19.1802C213.915 18.7652 213.552 18.32 213.128 17.8445C212.705 17.3603 212.255 16.8805 211.78 16.405C211.313 15.9209 210.842 15.4756 210.366 15.0693L211.105 14.3301ZM227.601 10.2061C227.558 10.3012 227.519 10.4007 227.484 10.5044C227.458 10.6082 227.432 10.7249 227.406 10.8546C227.337 11.2004 227.246 11.5808 227.134 11.9958C227.022 12.4021 226.883 12.8257 226.719 13.2667C226.563 13.6989 226.378 14.1226 226.161 14.5376C225.954 14.9439 225.725 15.3113 225.474 15.6399C225.076 16.1413 224.636 16.6125 224.151 17.0534C223.667 17.4857 223.114 17.8747 222.491 18.2206C221.869 18.5664 221.16 18.8647 220.365 19.1154L219.483 18.1428C220.33 17.9266 221.061 17.6673 221.674 17.3647C222.297 17.0534 222.842 16.699 223.308 16.3013C223.775 15.9036 224.186 15.4756 224.54 15.0174C224.852 14.6283 225.12 14.1831 225.344 13.6817C225.578 13.1802 225.768 12.6788 225.915 12.1773C226.071 11.6672 226.179 11.2047 226.239 10.7897C226.118 10.7897 225.889 10.7897 225.552 10.7897C225.215 10.7897 224.817 10.7897 224.359 10.7897C223.901 10.7897 223.421 10.7897 222.919 10.7897C222.427 10.7897 221.951 10.7897 221.493 10.7897C221.035 10.7897 220.637 10.7897 220.3 10.7897C219.963 10.7897 219.733 10.7897 219.612 10.7897C219.353 10.7897 219.115 10.794 218.899 10.8027C218.683 10.8113 218.489 10.82 218.316 10.8286V9.68741C218.437 9.69606 218.571 9.70903 218.718 9.72632C218.865 9.74361 219.016 9.75658 219.172 9.76522C219.327 9.76522 219.474 9.76522 219.612 9.76522C219.716 9.76522 219.902 9.76522 220.17 9.76522C220.438 9.76522 220.754 9.76522 221.117 9.76522C221.489 9.76522 221.882 9.76522 222.297 9.76522C222.721 9.76522 223.136 9.76522 223.542 9.76522C223.957 9.76522 224.342 9.76522 224.696 9.76522C225.059 9.76522 225.366 9.76522 225.617 9.76522C225.868 9.76522 226.036 9.76522 226.123 9.76522C226.218 9.76522 226.326 9.76522 226.447 9.76522C226.568 9.75658 226.689 9.73497 226.81 9.70038L227.601 10.2061ZM239.467 8.98713C239.458 9.15139 239.45 9.32862 239.441 9.51883C239.432 9.70038 239.428 9.89923 239.428 10.1154C239.428 10.2883 239.428 10.5087 239.428 10.7768C239.428 11.0448 239.428 11.3128 239.428 11.5808C239.428 11.8402 239.428 12.052 239.428 12.2162C239.428 12.9943 239.398 13.6557 239.337 14.2004C239.285 14.7451 239.203 15.2119 239.091 15.601C238.987 15.9814 238.849 16.3185 238.676 16.6125C238.503 16.9064 238.3 17.1917 238.066 17.4684C237.79 17.7969 237.47 18.0866 237.107 18.3373C236.752 18.5794 236.389 18.7825 236.017 18.9468C235.646 19.1197 235.3 19.258 234.98 19.3618L234.137 18.467C234.734 18.32 235.295 18.1125 235.823 17.8445C236.359 17.5678 236.83 17.2004 237.236 16.7422C237.47 16.4742 237.656 16.2018 237.794 15.9252C237.941 15.6399 238.049 15.3243 238.118 14.9785C238.196 14.6327 238.248 14.2306 238.274 13.7724C238.3 13.3142 238.313 12.7782 238.313 12.1644C238.313 11.9915 238.313 11.7753 238.313 11.5159C238.313 11.2566 238.313 10.9972 238.313 10.7378C238.313 10.4698 238.313 10.2623 238.313 10.1154C238.313 9.89923 238.304 9.70038 238.287 9.51883C238.278 9.32862 238.265 9.15139 238.248 8.98713H239.467ZM233.45 9.09087C233.441 9.21191 233.428 9.35888 233.411 9.5318C233.402 9.70471 233.398 9.86897 233.398 10.0246C233.398 10.0851 233.398 10.2234 233.398 10.4396C233.398 10.6471 233.398 10.8978 233.398 11.1917C233.398 11.4857 233.398 11.7969 233.398 12.1255C233.398 12.454 233.398 12.7739 233.398 13.0851C233.398 13.3877 233.398 13.6514 233.398 13.8762C233.398 14.101 233.398 14.2609 233.398 14.356C233.398 14.5203 233.402 14.6975 233.411 14.8877C233.428 15.0693 233.441 15.2206 233.45 15.3416H232.257C232.274 15.2379 232.287 15.0952 232.295 14.9136C232.313 14.7234 232.321 14.5332 232.321 14.343C232.321 14.2566 232.321 14.101 232.321 13.8762C232.321 13.6428 232.321 13.3747 232.321 13.0721C232.321 12.7696 232.321 12.454 232.321 12.1255C232.321 11.7969 232.321 11.4857 232.321 11.1917C232.321 10.8978 232.321 10.6471 232.321 10.4396C232.321 10.2234 232.321 10.0851 232.321 10.0246C232.321 9.9122 232.317 9.7609 232.308 9.5707C232.3 9.37185 232.287 9.21191 232.27 9.09087H233.45ZM243.695 13.2148C243.824 13.2234 243.984 13.2364 244.174 13.2537C244.365 13.2623 244.572 13.271 244.797 13.2796C245.03 13.2796 245.264 13.2796 245.497 13.2796C245.636 13.2796 245.847 13.2796 246.133 13.2796C246.427 13.2796 246.768 13.2796 247.157 13.2796C247.546 13.2796 247.957 13.2796 248.389 13.2796C248.83 13.2796 249.267 13.2796 249.699 13.2796C250.14 13.2796 250.555 13.2796 250.944 13.2796C251.342 13.2796 251.683 13.2796 251.968 13.2796C252.254 13.2796 252.466 13.2796 252.604 13.2796C252.932 13.2796 253.213 13.271 253.447 13.2537C253.68 13.2364 253.866 13.2234 254.004 13.2148V14.4857C253.875 14.477 253.68 14.4641 253.421 14.4468C253.17 14.4295 252.902 14.4209 252.617 14.4209C252.478 14.4209 252.262 14.4209 251.968 14.4209C251.674 14.4209 251.333 14.4209 250.944 14.4209C250.563 14.4209 250.153 14.4209 249.712 14.4209C249.271 14.4209 248.83 14.4209 248.389 14.4209C247.957 14.4209 247.546 14.4209 247.157 14.4209C246.777 14.4209 246.44 14.4209 246.146 14.4209C245.852 14.4209 245.636 14.4209 245.497 14.4209C245.143 14.4209 244.806 14.4295 244.486 14.4468C244.166 14.4554 243.902 14.4684 243.695 14.4857V13.2148Z" fill="#040000"/>
<path d="M130.341 26.1829C130.341 26.1829 134.548 32.0909 128 34.8528C128 34.8528 137.328 35.7125 137.328 26" fill="white"/>
<path d="M130.341 26.1829C130.341 26.1829 134.548 32.0909 128 34.8528C128 34.8528 137.328 35.7125 137.328 26" stroke="#040000" stroke-width="1.04259" stroke-linecap="round" stroke-linejoin="round"/>
</svg>
