<svg width="387" height="102" viewBox="0 0 387 102" fill="none" xmlns="http://www.w3.org/2000/svg">
<rect x="0.853333" y="0.853333" width="385.267" height="44.7804" rx="22.3902" fill="white"/>
<rect x="0.853333" y="0.853333" width="385.267" height="44.7804" rx="22.3902" stroke="black" stroke-width="1.70667"/>
<path d="M28.6162 14.5159C28.5719 14.8553 28.535 15.1578 28.5055 15.4234C28.4908 15.689 28.4834 15.9398 28.4834 16.1759C28.4834 16.3529 28.4834 16.6259 28.4834 16.9948C28.4834 17.3637 28.4834 17.7473 28.4834 18.1457C28.4834 18.5441 28.4834 18.8761 28.4834 19.1416H26.6021C26.6021 18.8465 26.6021 18.4998 26.6021 18.1014C26.6021 17.703 26.6021 17.3268 26.6021 16.9727C26.6021 16.6185 26.6021 16.3529 26.6021 16.1759C26.6021 15.9398 26.5947 15.689 26.58 15.4234C26.58 15.1578 26.5505 14.8553 26.4915 14.5159H28.6162ZM36.1634 18.8097C36.1044 18.972 36.0454 19.1859 35.9863 19.4515C35.9273 19.7023 35.8757 19.931 35.8314 20.1376C35.7724 20.5803 35.6765 21.0746 35.5437 21.6205C35.4257 22.1664 35.2781 22.7419 35.101 23.3468C34.924 23.937 34.7174 24.5272 34.4813 25.1174C34.2452 25.6929 33.9723 26.2536 33.6624 26.7995C33.1165 27.7586 32.4156 28.6439 31.5598 29.4554C30.704 30.267 29.7154 30.9752 28.5941 31.5802C27.4874 32.1851 26.2554 32.6794 24.8979 33.063L23.4593 31.4031C23.8282 31.3441 24.2118 31.2629 24.6102 31.1596C25.0233 31.0416 25.407 30.9162 25.7611 30.7834C26.4988 30.5473 27.244 30.2153 27.9965 29.7874C28.749 29.3448 29.4499 28.8357 30.0991 28.2603C30.7631 27.6701 31.3164 27.0282 31.759 26.3347C32.1574 25.7003 32.4968 25.0068 32.7771 24.2543C33.0722 23.5018 33.3083 22.7419 33.4854 21.9746C33.6624 21.2074 33.7878 20.5065 33.8616 19.872H21.4895C21.4895 20.1081 21.4895 20.4106 21.4895 20.7795C21.4895 21.1483 21.4895 21.5393 21.4895 21.9525C21.4895 22.3509 21.4895 22.7271 21.4895 23.0812C21.4895 23.4206 21.4895 23.6714 21.4895 23.8338C21.4895 24.0403 21.4969 24.269 21.5116 24.5199C21.5264 24.7707 21.5485 24.9846 21.578 25.1617H19.6525C19.682 24.9551 19.6968 24.7191 19.6968 24.4535C19.7115 24.1879 19.7189 23.9518 19.7189 23.7452C19.7189 23.5682 19.7189 23.3026 19.7189 22.9485C19.7189 22.5943 19.7189 22.2181 19.7189 21.8197C19.7189 21.4065 19.7189 21.0229 19.7189 20.6688C19.7189 20.3147 19.7189 20.0417 19.7189 19.8499C19.7189 19.6138 19.7115 19.3335 19.6968 19.0088C19.6968 18.6842 19.682 18.3965 19.6525 18.1457C19.9771 18.1752 20.3017 18.1973 20.6263 18.2121C20.9657 18.2268 21.3272 18.2342 21.7108 18.2342H33.4411C33.8542 18.2342 34.1715 18.2195 34.3928 18.1899C34.6289 18.1457 34.8207 18.1014 34.9682 18.0571L36.1634 18.8097ZM43.2901 20.8016C43.5262 20.8311 43.7918 20.8532 44.0869 20.868C44.3967 20.8827 44.6402 20.8901 44.8172 20.8901H54.9982C55.2786 20.8901 55.5516 20.8827 55.8171 20.868C56.0827 20.8532 56.3336 20.8311 56.5697 20.8016V22.5722C56.3336 22.5427 56.0754 22.5279 55.795 22.5279C55.5147 22.5279 55.2491 22.5279 54.9982 22.5279H44.8172C44.6402 22.5279 44.3967 22.5279 44.0869 22.5279C43.7918 22.5279 43.5262 22.5427 43.2901 22.5722V20.8016ZM48.8896 31.5802V21.7976H50.6824V31.5802H48.8896ZM42.2056 30.5399C42.4712 30.5694 42.7368 30.599 43.0024 30.6285C43.2827 30.6432 43.5483 30.6506 43.7991 30.6506H56.0385C56.3041 30.6506 56.5623 30.6432 56.8131 30.6285C57.0639 30.599 57.3 30.5694 57.5214 30.5399V32.3991C57.3 32.3696 57.0418 32.3474 56.7467 32.3327C56.4516 32.3327 56.2155 32.3327 56.0385 32.3327H43.7991C43.5631 32.3327 43.3049 32.3327 43.0245 32.3327C42.7589 32.3474 42.4859 32.3696 42.2056 32.3991V30.5399ZM71.5977 19.4958C71.701 19.7171 71.8338 20.0491 71.9961 20.4917C72.1584 20.9196 72.3281 21.377 72.5051 21.864C72.6969 22.3509 72.8666 22.8157 73.0142 23.2583C73.1617 23.6862 73.2724 24.0256 73.3462 24.2764L71.7083 24.8519C71.6493 24.601 71.546 24.2617 71.3985 23.8338C71.2657 23.4059 71.1108 22.9485 70.9337 22.4615C70.7566 21.9599 70.5796 21.4951 70.4025 21.0672C70.2255 20.6393 70.0853 20.2999 69.982 20.0491L71.5977 19.4958ZM79.6097 20.7352C79.5359 20.9565 79.4695 21.1631 79.4105 21.3549C79.3662 21.532 79.322 21.6943 79.2777 21.8418C78.9826 23.0517 78.5842 24.2395 78.0825 25.4052C77.5809 26.5561 76.9316 27.6332 76.1349 28.6365C75.1168 29.935 73.9659 31.0195 72.6822 31.89C71.4132 32.7606 70.1591 33.4319 68.9196 33.9041L67.4589 32.4212C68.3147 32.1556 69.1779 31.8015 70.0484 31.3588C70.9337 30.9162 71.7674 30.385 72.5494 29.7653C73.3462 29.1456 74.047 28.4595 74.652 27.707C75.1832 27.0577 75.6553 26.3274 76.0685 25.5158C76.4964 24.7043 76.8505 23.8411 77.1308 22.9263C77.4112 22.0115 77.603 21.0819 77.7063 20.1376L79.6097 20.7352ZM66.4629 20.6024C66.581 20.8532 66.7285 21.1926 66.9056 21.6205C67.0826 22.0484 67.2671 22.5206 67.4589 23.037C67.6655 23.5387 67.8573 24.0256 68.0343 24.4977C68.2262 24.9551 68.3737 25.324 68.477 25.6044L66.7949 26.2241C66.7064 25.9437 66.5736 25.5675 66.3965 25.0953C66.2342 24.6084 66.0498 24.1067 65.8432 23.5903C65.6366 23.0739 65.4374 22.6017 65.2456 22.1738C65.0686 21.7459 64.9284 21.4361 64.8251 21.2442L66.4629 20.6024ZM90.4989 30.2965C90.4989 30.0899 90.4989 29.6768 90.4989 29.057C90.4989 28.4226 90.4989 27.6774 90.4989 26.8217C90.4989 25.9511 90.4989 25.0437 90.4989 24.0993C90.4989 23.1403 90.4989 22.2107 90.4989 21.3106C90.4989 20.4106 90.4989 19.6138 90.4989 18.9203C90.4989 18.2268 90.4989 17.7252 90.4989 17.4153C90.4989 17.1054 90.4842 16.7292 90.4547 16.2865C90.4251 15.8439 90.3809 15.4529 90.3219 15.1135H92.4909C92.4613 15.4381 92.4245 15.8218 92.3802 16.2644C92.3507 16.7071 92.3359 17.0907 92.3359 17.4153C92.3359 17.9907 92.3359 18.6842 92.3359 19.4958C92.3359 20.2925 92.3359 21.1483 92.3359 22.0631C92.3359 22.9632 92.3359 23.8633 92.3359 24.7633C92.3507 25.6486 92.3581 26.4823 92.3581 27.2643C92.3581 28.0316 92.3581 28.6882 92.3581 29.2341C92.3581 29.7653 92.3581 30.1194 92.3581 30.2965C92.3581 30.5326 92.3581 30.8055 92.3581 31.1154C92.3728 31.4252 92.3949 31.7425 92.4245 32.0671C92.454 32.3769 92.4761 32.6573 92.4909 32.9081H90.344C90.403 32.554 90.4399 32.1335 90.4547 31.6466C90.4842 31.1596 90.4989 30.7096 90.4989 30.2965ZM91.9597 20.9123C92.6827 21.1336 93.4794 21.3992 94.35 21.709C95.2353 22.0041 96.1354 22.3214 97.0502 22.6607C97.965 23.0001 98.8282 23.3468 99.6397 23.701C100.466 24.0403 101.182 24.3649 101.787 24.6748L101.034 26.5561C100.4 26.2019 99.6839 25.8552 98.8872 25.5158C98.0904 25.1617 97.2715 24.815 96.4305 24.4756C95.6042 24.1362 94.8 23.8338 94.018 23.5682C93.2507 23.2878 92.5646 23.0591 91.9597 22.8821V20.9123ZM122.879 17.4374C122.805 17.526 122.709 17.6735 122.591 17.8801C122.488 18.0719 122.399 18.249 122.326 18.4113C122.045 19.1343 121.676 19.9384 121.219 20.8237C120.762 21.6943 120.253 22.5574 119.692 23.4132C119.131 24.269 118.541 25.0437 117.921 25.7372C117.11 26.652 116.217 27.5447 115.243 28.4152C114.269 29.271 113.244 30.0751 112.167 30.8277C111.09 31.5654 109.968 32.1999 108.803 32.7311L107.386 31.2482C108.581 30.776 109.725 30.1932 110.817 29.4997C111.923 28.7915 112.956 28.0242 113.915 27.1979C114.889 26.3569 115.752 25.5158 116.505 24.6748C117.006 24.0993 117.501 23.4575 117.988 22.7493C118.489 22.0263 118.932 21.2959 119.316 20.5581C119.714 19.8056 120.002 19.1269 120.179 18.5219C120.061 18.5219 119.78 18.5219 119.338 18.5219C118.895 18.5219 118.371 18.5219 117.766 18.5219C117.161 18.5219 116.527 18.5219 115.863 18.5219C115.199 18.5219 114.564 18.5219 113.959 18.5219C113.355 18.5219 112.831 18.5219 112.388 18.5219C111.96 18.5219 111.68 18.5219 111.547 18.5219C111.296 18.5219 111.008 18.5293 110.684 18.5441C110.374 18.5588 110.086 18.5736 109.821 18.5883C109.57 18.6031 109.4 18.6178 109.312 18.6326V16.6185C109.415 16.6333 109.599 16.6554 109.865 16.6849C110.145 16.6997 110.44 16.7144 110.75 16.7292C111.06 16.7439 111.326 16.7513 111.547 16.7513C111.709 16.7513 112.004 16.7513 112.432 16.7513C112.86 16.7513 113.369 16.7513 113.959 16.7513C114.564 16.7513 115.192 16.7513 115.841 16.7513C116.49 16.7513 117.11 16.7513 117.7 16.7513C118.305 16.7513 118.821 16.7513 119.249 16.7513C119.677 16.7513 119.957 16.7513 120.09 16.7513C120.459 16.7513 120.784 16.7366 121.064 16.7071C121.359 16.6775 121.588 16.6333 121.75 16.5743L122.879 17.4374ZM118.209 24.5641C118.814 25.0658 119.434 25.6191 120.068 26.2241C120.717 26.829 121.352 27.4561 121.971 28.1053C122.591 28.7398 123.167 29.3521 123.698 29.9424C124.229 30.5178 124.686 31.0416 125.07 31.5138L123.521 32.8417C123.004 32.1335 122.385 31.3736 121.662 30.5621C120.939 29.7358 120.171 28.9169 119.36 28.1053C118.563 27.2791 117.759 26.5192 116.947 25.8257L118.209 24.5641ZM129.563 22.6607C129.784 22.6755 130.057 22.6976 130.382 22.7271C130.706 22.7419 131.061 22.7566 131.444 22.7714C131.843 22.7714 132.241 22.7714 132.639 22.7714C132.875 22.7714 133.237 22.7714 133.724 22.7714C134.226 22.7714 134.808 22.7714 135.472 22.7714C136.136 22.7714 136.837 22.7714 137.575 22.7714C138.327 22.7714 139.073 22.7714 139.81 22.7714C140.563 22.7714 141.271 22.7714 141.935 22.7714C142.614 22.7714 143.197 22.7714 143.684 22.7714C144.17 22.7714 144.532 22.7714 144.768 22.7714C145.329 22.7714 145.808 22.7566 146.207 22.7271C146.605 22.6976 146.922 22.6755 147.158 22.6607V24.8297C146.937 24.815 146.605 24.7928 146.162 24.7633C145.734 24.7338 145.277 24.7191 144.79 24.7191C144.554 24.7191 144.185 24.7191 143.684 24.7191C143.182 24.7191 142.599 24.7191 141.935 24.7191C141.286 24.7191 140.585 24.7191 139.832 24.7191C139.08 24.7191 138.327 24.7191 137.575 24.7191C136.837 24.7191 136.136 24.7191 135.472 24.7191C134.823 24.7191 134.248 24.7191 133.746 24.7191C133.244 24.7191 132.875 24.7191 132.639 24.7191C132.034 24.7191 131.459 24.7338 130.913 24.7633C130.367 24.7781 129.917 24.8002 129.563 24.8297V22.6607ZM159.098 15.6004C159.216 15.866 159.379 16.257 159.585 16.7735C159.792 17.2899 160.006 17.8506 160.227 18.4555C160.463 19.0457 160.677 19.6138 160.869 20.1597C161.061 20.6909 161.201 21.1114 161.289 21.4213L159.563 22.0189C159.474 21.709 159.334 21.2885 159.142 20.7573C158.965 20.2114 158.766 19.6433 158.545 19.0531C158.338 18.4629 158.132 17.9096 157.925 17.3932C157.719 16.862 157.542 16.4562 157.394 16.1759L159.098 15.6004ZM168.925 17.0169C168.851 17.2087 168.778 17.4227 168.704 17.6588C168.645 17.8948 168.586 18.1014 168.527 18.2785C168.32 19.1933 168.04 20.1376 167.686 21.1114C167.346 22.0853 166.941 23.0444 166.468 23.9887C165.996 24.9183 165.458 25.7814 164.853 26.5782C164.1 27.5668 163.244 28.4816 162.285 29.3226C161.341 30.1489 160.345 30.8719 159.297 31.4916C158.265 32.1113 157.224 32.6056 156.177 32.9745L154.65 31.4252C155.712 31.1154 156.767 30.6801 157.815 30.1194C158.862 29.5587 159.858 28.8947 160.802 28.1275C161.761 27.3455 162.61 26.4823 163.348 25.538C163.938 24.8002 164.469 23.937 164.941 22.9485C165.413 21.9451 165.819 20.8901 166.158 19.7835C166.498 18.6621 166.741 17.5481 166.889 16.4415L168.925 17.0169ZM152.923 16.9284C153.071 17.2382 153.255 17.6588 153.477 18.1899C153.698 18.7064 153.934 19.2744 154.185 19.8942C154.436 20.4991 154.664 21.0819 154.871 21.6426C155.092 22.1886 155.269 22.6386 155.402 22.9927L153.654 23.6346C153.565 23.369 153.44 23.0222 153.277 22.5943C153.13 22.1517 152.953 21.6869 152.746 21.2C152.554 20.6983 152.355 20.204 152.149 19.7171C151.957 19.2302 151.772 18.8023 151.595 18.4334C151.418 18.0498 151.278 17.762 151.175 17.5702L152.923 16.9284ZM189.154 19.031C188.903 19.1933 188.638 19.3482 188.357 19.4958C188.077 19.6433 187.775 19.7982 187.45 19.9606C187.081 20.1671 186.624 20.4032 186.078 20.6688C185.532 20.9344 184.949 21.2295 184.329 21.5541C183.71 21.8787 183.09 22.2181 182.47 22.5722C181.851 22.9263 181.268 23.2804 180.722 23.6346C179.689 24.2985 178.877 24.9994 178.287 25.7372C177.712 26.4749 177.424 27.2643 177.424 28.1053C177.424 29.0202 177.859 29.7505 178.73 30.2965C179.615 30.8277 180.928 31.0932 182.669 31.0932C183.481 31.0932 184.322 31.0637 185.193 31.0047C186.063 30.9309 186.897 30.835 187.694 30.717C188.505 30.599 189.191 30.4735 189.752 30.3407V32.3105C189.206 32.4138 188.557 32.5024 187.804 32.5761C187.066 32.6647 186.27 32.7311 185.414 32.7753C184.558 32.8343 183.673 32.8639 182.758 32.8639C181.71 32.8639 180.751 32.7753 179.881 32.5983C179.01 32.436 178.25 32.1777 177.601 31.8236C176.967 31.4695 176.472 31.0047 176.118 30.4293C175.764 29.8391 175.587 29.1308 175.587 28.3045C175.587 27.493 175.757 26.7479 176.096 26.0691C176.435 25.3757 176.922 24.7191 177.557 24.0993C178.191 23.4796 178.944 22.8821 179.814 22.3066C180.375 21.923 180.973 21.5541 181.607 21.2C182.256 20.8311 182.891 20.477 183.51 20.1376C184.13 19.7982 184.706 19.4884 185.237 19.208C185.783 18.9277 186.24 18.6916 186.609 18.4998C186.919 18.308 187.199 18.1383 187.45 17.9907C187.701 17.8284 187.944 17.6514 188.18 17.4596L189.154 19.031ZM177.955 15.025C178.295 15.9693 178.656 16.8915 179.04 17.7916C179.438 18.6916 179.836 19.5327 180.235 20.3147C180.648 21.0967 181.024 21.7902 181.364 22.3951L179.836 23.3026C179.468 22.6976 179.077 21.982 178.663 21.1557C178.25 20.3294 177.837 19.4515 177.424 18.5219C177.011 17.5924 176.605 16.6702 176.207 15.7554L177.955 15.025ZM198.76 18.699H210.003V20.1376H198.76V18.699ZM199.889 22.4615H201.416V31.1154H199.889V22.4615ZM200.707 22.4615H208.808V29.5218H200.707V28.0832H207.259V23.878H200.707V22.4615ZM195.219 14.8037H212.88V16.3751H196.834V34.059H195.219V14.8037ZM211.862 14.8037H213.5V31.9122C213.5 32.4138 213.426 32.8048 213.279 33.0852C213.146 33.3803 212.91 33.5942 212.571 33.727C212.246 33.8598 211.781 33.941 211.176 33.9705C210.586 34.0147 209.819 34.0369 208.874 34.0369C208.86 33.8893 208.815 33.7123 208.742 33.5057C208.683 33.3139 208.609 33.1147 208.52 32.9081C208.447 32.7163 208.365 32.554 208.277 32.4212C208.97 32.436 209.605 32.4433 210.18 32.4433C210.756 32.4433 211.139 32.4433 211.331 32.4433C211.538 32.4286 211.678 32.3769 211.752 32.2884C211.825 32.2146 211.862 32.0818 211.862 31.89V14.8037ZM228.772 16.9727C228.963 17.2235 229.192 17.5629 229.458 17.9907C229.723 18.4186 229.982 18.8539 230.232 19.2966C230.498 19.7392 230.719 20.1376 230.896 20.4917L229.591 21.0893C229.399 20.6909 229.185 20.2852 228.949 19.872C228.727 19.4441 228.491 19.031 228.24 18.6326C228.004 18.2195 227.761 17.8432 227.51 17.5038L228.772 16.9727ZM231.627 15.8439C231.833 16.0947 232.069 16.4267 232.335 16.8399C232.615 17.253 232.888 17.6809 233.154 18.1235C233.419 18.5662 233.641 18.9572 233.818 19.2966L232.534 19.9163C232.342 19.5327 232.128 19.1343 231.892 18.7211C231.656 18.308 231.405 17.9022 231.14 17.5038C230.889 17.1054 230.638 16.7439 230.387 16.4193L231.627 15.8439ZM222.641 15.1578C222.597 15.5267 222.552 15.8955 222.508 16.2644C222.479 16.6333 222.456 17.0095 222.442 17.3932C222.427 18.0129 222.397 18.7801 222.353 19.695C222.324 20.6098 222.294 21.5836 222.265 22.6165C222.25 23.6346 222.228 24.6527 222.198 25.6708C222.183 26.6889 222.176 27.6037 222.176 28.4152C222.176 29.2267 222.331 29.876 222.641 30.3629C222.951 30.835 223.379 31.1818 223.925 31.4031C224.471 31.6097 225.098 31.713 225.806 31.713C226.809 31.713 227.717 31.5875 228.528 31.3367C229.34 31.0711 230.063 30.7244 230.697 30.2965C231.332 29.8538 231.892 29.3595 232.379 28.8136C232.881 28.2677 233.331 27.707 233.729 27.1315L234.991 28.6365C234.607 29.153 234.135 29.6989 233.574 30.2743C233.028 30.8498 232.379 31.381 231.627 31.8679C230.874 32.3548 230.011 32.7532 229.037 33.063C228.063 33.3729 226.971 33.5278 225.762 33.5278C224.699 33.5278 223.762 33.3655 222.951 33.0409C222.139 32.7163 221.505 32.1925 221.047 31.4695C220.59 30.7465 220.361 29.7874 220.361 28.5923C220.361 27.9283 220.369 27.1979 220.383 26.4011C220.398 25.5896 220.42 24.7559 220.45 23.9002C220.479 23.0444 220.501 22.2107 220.516 21.3992C220.546 20.5729 220.568 19.813 220.583 19.1195C220.597 18.426 220.605 17.8506 220.605 17.3932C220.605 16.9653 220.59 16.5669 220.56 16.198C220.531 15.8144 220.479 15.4603 220.405 15.1356L222.641 15.1578ZM246.721 22.1074C247.429 22.5206 248.175 22.978 248.957 23.4796C249.739 23.9813 250.513 24.5051 251.28 25.051C252.062 25.5822 252.808 26.106 253.516 26.6225C254.224 27.1389 254.851 27.6258 255.397 28.0832L254.091 29.6104C253.59 29.153 252.985 28.6513 252.276 28.1053C251.583 27.5447 250.845 26.984 250.063 26.4233C249.281 25.8478 248.499 25.2945 247.717 24.7633C246.935 24.2321 246.205 23.7526 245.526 23.3247L246.721 22.1074ZM256.858 18.0571C256.755 18.2195 256.659 18.4186 256.57 18.6547C256.482 18.8761 256.4 19.0752 256.327 19.2523C256.12 20.0048 255.825 20.8163 255.441 21.6869C255.058 22.5574 254.608 23.4354 254.091 24.3207C253.575 25.1912 252.985 26.0323 252.321 26.8438C251.332 28.0685 250.093 29.2489 248.602 30.385C247.127 31.5064 245.342 32.4507 243.246 33.218L241.653 31.8458C243.025 31.4179 244.272 30.8941 245.393 30.2743C246.529 29.6399 247.547 28.9464 248.447 28.1939C249.348 27.4414 250.13 26.6667 250.794 25.87C251.369 25.1912 251.893 24.4461 252.365 23.6346C252.852 22.823 253.272 22.0189 253.626 21.2221C253.981 20.4106 254.239 19.6581 254.401 18.9646H246.19L246.898 17.3932H253.936C254.231 17.3932 254.504 17.3784 254.755 17.3489C255.006 17.3046 255.22 17.2456 255.397 17.1718L256.858 18.0571ZM249.399 14.8701C249.207 15.1652 249.023 15.475 248.846 15.7996C248.669 16.1242 248.521 16.3898 248.403 16.5964C247.961 17.4079 247.385 18.3006 246.677 19.2744C245.983 20.2335 245.164 21.1926 244.22 22.1517C243.291 23.1108 242.236 24.0034 241.055 24.8297L239.572 23.6788C240.841 22.8968 241.94 22.0336 242.87 21.0893C243.8 20.145 244.582 19.2228 245.216 18.3227C245.851 17.4227 246.337 16.6407 246.677 15.9767C246.795 15.7849 246.928 15.5193 247.075 15.1799C247.223 14.8258 247.326 14.5086 247.385 14.2282L249.399 14.8701ZM278.725 17.526C278.651 17.6883 278.585 17.858 278.526 18.035C278.481 18.2121 278.437 18.4113 278.393 18.6326C278.275 19.2228 278.12 19.872 277.928 20.5803C277.736 21.2738 277.5 21.9967 277.22 22.7493C276.954 23.487 276.637 24.21 276.268 24.9183C275.914 25.6117 275.523 26.2388 275.095 26.7995C274.416 27.6553 273.664 28.4595 272.838 29.212C272.011 29.9497 271.067 30.6137 270.005 31.2039C268.942 31.7941 267.732 32.3032 266.375 32.7311L264.87 31.0711C266.316 30.7022 267.563 30.2596 268.61 29.7432C269.673 29.212 270.602 28.607 271.399 27.9283C272.196 27.2496 272.897 26.5192 273.502 25.7372C274.033 25.0732 274.49 24.3133 274.874 23.4575C275.272 22.6017 275.597 21.7459 275.848 20.8901C276.113 20.0196 276.298 19.2302 276.401 18.5219C276.194 18.5219 275.803 18.5219 275.228 18.5219C274.652 18.5219 273.974 18.5219 273.192 18.5219C272.41 18.5219 271.591 18.5219 270.735 18.5219C269.894 18.5219 269.082 18.5219 268.3 18.5219C267.518 18.5219 266.84 18.5219 266.264 18.5219C265.689 18.5219 265.298 18.5219 265.091 18.5219C264.649 18.5219 264.243 18.5293 263.874 18.5441C263.505 18.5588 263.173 18.5736 262.878 18.5883V16.6407C263.084 16.6554 263.313 16.6775 263.564 16.7071C263.815 16.7366 264.073 16.7587 264.339 16.7735C264.604 16.7735 264.855 16.7735 265.091 16.7735C265.268 16.7735 265.585 16.7735 266.043 16.7735C266.5 16.7735 267.039 16.7735 267.659 16.7735C268.293 16.7735 268.964 16.7735 269.673 16.7735C270.396 16.7735 271.104 16.7735 271.797 16.7735C272.506 16.7735 273.162 16.7735 273.767 16.7735C274.387 16.7735 274.911 16.7735 275.339 16.7735C275.766 16.7735 276.054 16.7735 276.202 16.7735C276.364 16.7735 276.548 16.7735 276.755 16.7735C276.962 16.7587 277.168 16.7218 277.375 16.6628L278.725 17.526ZM283.948 18.2785C284.361 18.3375 284.797 18.3818 285.254 18.4113C285.711 18.426 286.176 18.4334 286.648 18.4334C287.46 18.4334 288.294 18.3965 289.149 18.3227C290.02 18.249 290.898 18.1309 291.783 17.9686C292.668 17.7916 293.539 17.5629 294.395 17.2825L294.439 18.9425C293.716 19.1343 292.919 19.3113 292.049 19.4736C291.193 19.6359 290.3 19.7687 289.371 19.872C288.456 19.9606 287.548 20.0048 286.648 20.0048C286.25 20.0048 285.822 20.0048 285.365 20.0048C284.922 19.9901 284.487 19.9679 284.059 19.9384L283.948 18.2785ZM291.783 14.6709C291.695 15.025 291.584 15.475 291.451 16.0209C291.318 16.5669 291.171 17.1423 291.008 17.7473C290.861 18.3375 290.699 18.8982 290.522 19.4294C290.167 20.4917 289.717 21.6131 289.171 22.7935C288.626 23.9592 288.043 25.0953 287.423 26.2019C286.803 27.3086 286.191 28.275 285.586 29.1013L283.882 28.216C284.369 27.6406 284.856 26.984 285.343 26.2462C285.844 25.5085 286.309 24.7338 286.737 23.9223C287.18 23.1108 287.578 22.314 287.932 21.532C288.286 20.7499 288.581 20.0343 288.817 19.3851C289.053 18.6769 289.275 17.8801 289.481 16.9948C289.688 16.0947 289.806 15.2611 289.835 14.4938L291.783 14.6709ZM297.006 21.5098C296.992 21.9672 296.977 22.3804 296.962 22.7493C296.962 23.1034 296.97 23.487 296.984 23.9002C296.999 24.2543 297.014 24.7117 297.029 25.2724C297.058 25.8183 297.088 26.4011 297.117 27.0208C297.147 27.6258 297.169 28.2086 297.183 28.7693C297.213 29.33 297.228 29.7948 297.228 30.1637C297.228 30.7539 297.095 31.2924 296.829 31.7794C296.564 32.2663 296.143 32.6499 295.568 32.9303C295.007 33.2254 294.269 33.3729 293.355 33.3729C292.543 33.3729 291.805 33.2549 291.141 33.0188C290.477 32.7975 289.939 32.4507 289.526 31.9785C289.127 31.5064 288.928 30.9088 288.928 30.1858C288.928 29.4923 289.12 28.9021 289.503 28.4152C289.902 27.9135 290.433 27.5299 291.097 27.2643C291.776 26.9987 292.528 26.8659 293.355 26.8659C294.594 26.8659 295.73 27.043 296.763 27.3971C297.811 27.7365 298.747 28.1717 299.574 28.7029C300.415 29.2341 301.138 29.7579 301.743 30.2743L300.791 31.7794C300.363 31.3957 299.884 30.9973 299.352 30.5842C298.836 30.1711 298.261 29.7948 297.626 29.4554C296.992 29.1013 296.313 28.8136 295.59 28.5923C294.867 28.3709 294.1 28.2603 293.288 28.2603C292.477 28.2603 291.82 28.43 291.318 28.7693C290.817 29.1087 290.566 29.5292 290.566 30.0309C290.566 30.5473 290.78 30.9678 291.208 31.2924C291.636 31.6171 292.277 31.7794 293.133 31.7794C293.753 31.7794 294.24 31.6834 294.594 31.4916C294.948 31.2851 295.199 31.0195 295.346 30.6949C295.509 30.3555 295.59 29.9866 295.59 29.5882C295.59 29.1751 295.575 28.6365 295.546 27.9726C295.531 27.3086 295.501 26.6003 295.457 25.8478C295.428 25.0806 295.391 24.3207 295.346 23.5682C295.317 22.8009 295.295 22.1148 295.28 21.5098H297.006ZM301.433 22.1074C301.035 21.7533 300.533 21.3844 299.928 21.0008C299.323 20.6172 298.696 20.2557 298.047 19.9163C297.412 19.5622 296.851 19.2744 296.365 19.0531L297.272 17.703C297.67 17.8801 298.113 18.094 298.6 18.3449C299.087 18.5957 299.574 18.8613 300.061 19.1416C300.548 19.422 300.998 19.695 301.411 19.9606C301.839 20.2114 302.178 20.4401 302.429 20.6467L301.433 22.1074ZM314.137 27.9726H315.775V33.9926H314.137V27.9726ZM313.075 21.1778L314.58 21.9082C313.975 22.4689 313.318 23.037 312.61 23.6124C311.916 24.1879 311.275 24.6674 310.684 25.051L309.511 24.4092C309.91 24.1289 310.323 23.8042 310.751 23.4354C311.193 23.0517 311.621 22.6607 312.034 22.2623C312.448 21.864 312.794 21.5025 313.075 21.1778ZM317.59 22.3509L319.073 23.1698C318.32 23.7747 317.486 24.4092 316.572 25.0732C315.672 25.7224 314.757 26.3421 313.827 26.9323C312.912 27.5225 312.042 28.0389 311.216 28.4816L310.131 27.7291C310.943 27.2717 311.806 26.7331 312.721 26.1134C313.635 25.4937 314.521 24.8519 315.376 24.1879C316.232 23.5239 316.97 22.9116 317.59 22.3509ZM307.342 24.3871L308.427 23.4354C308.988 23.6862 309.578 23.9887 310.197 24.3428C310.817 24.6822 311.407 25.0289 311.968 25.383C312.529 25.7224 312.994 26.047 313.362 26.3569L312.189 27.4192C311.85 27.1094 311.407 26.7774 310.861 26.4233C310.315 26.0544 309.733 25.6929 309.113 25.3388C308.508 24.9699 307.918 24.6527 307.342 24.3871ZM318.386 25.7814L319.537 24.8961C320.187 25.2355 320.851 25.6339 321.529 26.0913C322.208 26.5339 322.85 26.9913 323.455 27.4635C324.06 27.9209 324.554 28.3488 324.938 28.7472L323.72 29.721C323.352 29.3374 322.872 28.9095 322.282 28.4373C321.692 27.9652 321.057 27.5004 320.378 27.043C319.7 26.5708 319.036 26.1503 318.386 25.7814ZM317.966 30.2301L319.205 29.3448C319.825 29.6251 320.482 29.9497 321.175 30.3186C321.869 30.6875 322.525 31.0637 323.145 31.4474C323.765 31.831 324.281 32.1925 324.694 32.5319L323.388 33.5278C323.005 33.2032 322.511 32.8417 321.906 32.4433C321.301 32.0449 320.651 31.6539 319.958 31.2703C319.264 30.8719 318.6 30.5252 317.966 30.2301ZM305.373 27.5299C306.405 27.5299 307.586 27.5225 308.914 27.5078C310.256 27.4783 311.688 27.4561 313.207 27.4414C314.742 27.4119 316.313 27.3823 317.922 27.3528C319.545 27.3233 321.153 27.2864 322.747 27.2422L322.658 28.548C321.094 28.5775 319.523 28.6144 317.944 28.6587C316.38 28.7029 314.845 28.7398 313.34 28.7693C311.85 28.7988 310.434 28.8283 309.091 28.8579C307.763 28.8874 306.568 28.9095 305.505 28.9243L305.373 27.5299ZM310.374 29.3669L311.902 29.9424C311.4 30.4145 310.825 30.8793 310.175 31.3367C309.541 31.7941 308.877 32.222 308.183 32.6204C307.505 33.0188 306.841 33.3581 306.191 33.6385C306.103 33.5352 305.977 33.4098 305.815 33.2622C305.668 33.1294 305.513 32.9893 305.35 32.8417C305.188 32.7089 305.041 32.5983 304.908 32.5097C305.896 32.1261 306.885 31.6613 307.874 31.1154C308.862 30.5547 309.696 29.9719 310.374 29.3669ZM314.137 13.6306H315.797V21.4877H314.137V13.6306ZM306.479 15.2684H323.765V16.5521H306.479V15.2684ZM307.696 17.9686H322.459V19.2302H307.696V17.9686ZM305.306 20.6688H324.761V21.9967H305.306V20.6688ZM336.624 18.4113H347.292V20.0048H336.624V18.4113ZM343.263 13.6749H344.99V31.7351C344.99 32.3253 344.909 32.7606 344.746 33.0409C344.599 33.3213 344.333 33.5278 343.95 33.6606C343.595 33.8082 343.086 33.8967 342.422 33.9262C341.758 33.9705 340.954 33.9926 340.01 33.9926C339.966 33.7565 339.885 33.4688 339.767 33.1294C339.649 32.8048 339.53 32.5245 339.412 32.2884C340.135 32.3032 340.814 32.3105 341.449 32.3105C342.083 32.3105 342.504 32.3032 342.71 32.2884C342.917 32.2884 343.057 32.2515 343.131 32.1777C343.219 32.104 343.263 31.9638 343.263 31.7572V13.6749ZM343.086 19.1416L344.414 19.9606C344.001 20.9344 343.5 21.923 342.909 22.9263C342.334 23.9149 341.692 24.8814 340.984 25.8257C340.29 26.7553 339.56 27.6184 338.793 28.4152C338.04 29.212 337.28 29.9055 336.513 30.4957C336.38 30.2743 336.203 30.0309 335.982 29.7653C335.761 29.4997 335.547 29.2858 335.34 29.1234C336.093 28.6218 336.845 27.9947 337.598 27.2422C338.35 26.4897 339.066 25.6634 339.744 24.7633C340.438 23.8633 341.065 22.9411 341.626 21.9967C342.201 21.0377 342.688 20.086 343.086 19.1416ZM327.394 18.3891H335.805V20.0048H327.394V18.3891ZM331.091 13.6528H332.751V33.9926H331.091V13.6528ZM331.024 19.3851L332.175 19.7835C331.954 20.6983 331.673 21.6353 331.334 22.5943C331.009 23.5387 330.641 24.4682 330.227 25.383C329.829 26.2979 329.401 27.1536 328.944 27.9504C328.501 28.7324 328.044 29.4038 327.571 29.9645C327.468 29.7136 327.321 29.4407 327.129 29.1456C326.952 28.8357 326.789 28.5775 326.642 28.3709C327.085 27.8693 327.527 27.2791 327.97 26.6003C328.413 25.9068 328.826 25.1543 329.209 24.3428C329.593 23.5313 329.94 22.705 330.25 21.864C330.559 21.0229 330.818 20.1966 331.024 19.3851ZM332.618 20.4475C332.751 20.5803 332.95 20.7942 333.215 21.0893C333.481 21.3697 333.769 21.6869 334.078 22.041C334.388 22.3951 334.691 22.7566 334.986 23.1255C335.296 23.4796 335.576 23.8042 335.827 24.0993C336.078 24.3797 336.262 24.5936 336.38 24.7412L335.318 26.1577C335.141 25.8626 334.89 25.4937 334.565 25.051C334.256 24.5936 333.916 24.1215 333.547 23.6346C333.193 23.1476 332.846 22.6976 332.507 22.2845C332.182 21.8566 331.924 21.5246 331.732 21.2885L332.618 20.4475ZM366.215 19.031C365.964 19.1933 365.699 19.3482 365.418 19.4958C365.138 19.6433 364.835 19.7982 364.511 19.9606C364.142 20.1671 363.685 20.4032 363.139 20.6688C362.593 20.9344 362.01 21.2295 361.39 21.5541C360.77 21.8787 360.151 22.2181 359.531 22.5722C358.911 22.9263 358.328 23.2804 357.782 23.6346C356.75 24.2985 355.938 24.9994 355.348 25.7372C354.772 26.4749 354.485 27.2643 354.485 28.1053C354.485 29.0202 354.92 29.7505 355.791 30.2965C356.676 30.8277 357.989 31.0932 359.73 31.0932C360.542 31.0932 361.383 31.0637 362.253 31.0047C363.124 30.9309 363.957 30.835 364.754 30.717C365.566 30.599 366.252 30.4735 366.813 30.3407V32.3105C366.267 32.4138 365.617 32.5024 364.865 32.5761C364.127 32.6647 363.33 32.7311 362.475 32.7753C361.619 32.8343 360.733 32.8639 359.819 32.8639C358.771 32.8639 357.812 32.7753 356.941 32.5983C356.071 32.436 355.311 32.1777 354.662 31.8236C354.027 31.4695 353.533 31.0047 353.179 30.4293C352.825 29.8391 352.648 29.1308 352.648 28.3045C352.648 27.493 352.817 26.7479 353.157 26.0691C353.496 25.3757 353.983 24.7191 354.618 24.0993C355.252 23.4796 356.004 22.8821 356.875 22.3066C357.436 21.923 358.033 21.5541 358.668 21.2C359.317 20.8311 359.951 20.477 360.571 20.1376C361.191 19.7982 361.766 19.4884 362.298 19.208C362.843 18.9277 363.301 18.6916 363.67 18.4998C363.98 18.308 364.26 18.1383 364.511 17.9907C364.762 17.8284 365.005 17.6514 365.241 17.4596L366.215 19.031ZM355.016 15.025C355.355 15.9693 355.717 16.8915 356.1 17.7916C356.499 18.6916 356.897 19.5327 357.296 20.3147C357.709 21.0967 358.085 21.7902 358.424 22.3951L356.897 23.3026C356.528 22.6976 356.137 21.982 355.724 21.1557C355.311 20.3294 354.898 19.4515 354.485 18.5219C354.072 17.5924 353.666 16.6702 353.267 15.7554L355.016 15.025Z" fill="#040000"/>
<rect x="173.226" y="41.8123" width="209.267" height="44.7804" rx="22.3902" fill="white"/>
<rect x="173.226" y="41.8123" width="209.267" height="44.7804" rx="22.3902" stroke="black" stroke-width="1.70667"/>
<path d="M199.687 64.0845H201.391V72.8933C201.391 73.4097 201.317 73.7933 201.17 74.0442C201.022 74.3098 200.742 74.5016 200.329 74.6196C199.945 74.7524 199.421 74.8336 198.757 74.8631C198.108 74.8926 197.289 74.9073 196.301 74.9073C196.257 74.6565 196.168 74.3762 196.035 74.0663C195.917 73.7712 195.799 73.513 195.681 73.2917C196.183 73.3064 196.67 73.3138 197.142 73.3138C197.629 73.3285 198.049 73.3285 198.403 73.3138C198.757 73.3138 199.008 73.3138 199.156 73.3138C199.362 73.299 199.503 73.2621 199.576 73.2031C199.65 73.1441 199.687 73.0334 199.687 72.8711V64.0845ZM192.582 55.8069H206.57V57.3562H192.582V55.8069ZM205.951 55.8069H206.371L206.747 55.7184L207.943 56.6258C207.338 57.2455 206.644 57.8726 205.862 58.5071C205.095 59.1415 204.298 59.7391 203.472 60.2998C202.645 60.8605 201.856 61.3474 201.104 61.7606C201.03 61.6425 200.926 61.5171 200.794 61.3843C200.676 61.2515 200.55 61.1187 200.417 60.9859C200.285 60.8384 200.167 60.7277 200.063 60.6539C200.757 60.2851 201.472 59.8424 202.21 59.326C202.963 58.8096 203.671 58.2784 204.335 57.7324C204.999 57.1717 205.537 56.6553 205.951 56.1832V55.8069ZM190.502 62.8672H209.027V64.4608H190.502V62.8672ZM195.615 59.9236L196.5 58.6841C197.134 58.9497 197.821 59.2448 198.558 59.5694C199.311 59.8793 200.056 60.1965 200.794 60.5211C201.531 60.8458 202.225 61.163 202.874 61.4728C203.538 61.7827 204.106 62.0631 204.578 62.3139L203.671 63.7304C203.228 63.4795 202.682 63.1918 202.033 62.8672C201.384 62.5426 200.69 62.2106 199.953 61.8712C199.215 61.5171 198.47 61.1777 197.717 60.8531C196.98 60.5138 196.279 60.2039 195.615 59.9236ZM208.452 62.8672H208.784L209.093 62.7565L210.421 63.3541C209.846 64.328 209.211 65.3092 208.518 66.2978C207.824 67.2863 207.138 68.1126 206.46 68.7766L205.087 67.9577C205.456 67.5593 205.847 67.0945 206.26 66.5633C206.674 66.0322 207.065 65.4788 207.433 64.9034C207.817 64.3132 208.156 63.7451 208.452 63.1992V62.8672ZM217.725 68.7766H219.341V72.2957C219.341 72.5908 219.429 72.7826 219.606 72.8711C219.798 72.9449 220.219 72.9818 220.868 72.9818C221.015 72.9818 221.281 72.9818 221.665 72.9818C222.063 72.9818 222.498 72.9818 222.971 72.9818C223.457 72.9818 223.907 72.9818 224.321 72.9818C224.749 72.9818 225.066 72.9818 225.272 72.9818C225.641 72.9818 225.914 72.9302 226.091 72.8269C226.268 72.7088 226.394 72.4727 226.467 72.1186C226.541 71.7498 226.593 71.1817 226.622 70.4144C226.74 70.5177 226.888 70.6136 227.065 70.7021C227.242 70.7759 227.427 70.8423 227.618 70.9013C227.81 70.9604 227.98 71.0046 228.127 71.0341C228.054 71.9637 227.928 72.6793 227.751 73.181C227.589 73.6827 227.323 74.0294 226.954 74.2212C226.586 74.413 226.062 74.5089 225.383 74.5089C225.28 74.5089 225.073 74.5089 224.763 74.5089C224.453 74.5089 224.092 74.5089 223.679 74.5089C223.28 74.5089 222.875 74.5089 222.461 74.5089C222.048 74.5089 221.687 74.5089 221.377 74.5089C221.067 74.5089 220.868 74.5089 220.779 74.5089C219.968 74.5089 219.341 74.4426 218.898 74.3098C218.455 74.1917 218.146 73.9704 217.969 73.6458C217.806 73.3359 217.725 72.8933 217.725 72.3178V68.7766ZM220.624 68.0241L221.775 67.1609C222.13 67.4708 222.498 67.8175 222.882 68.2012C223.28 68.5848 223.657 68.961 224.011 69.3299C224.365 69.6988 224.653 70.0234 224.874 70.3038L223.657 71.2997C223.435 71.0194 223.155 70.6874 222.816 70.3038C222.476 69.9201 222.115 69.5291 221.731 69.1307C221.347 68.7176 220.979 68.3487 220.624 68.0241ZM228.437 68.7545L229.898 68.1126C230.208 68.57 230.533 69.0717 230.872 69.6176C231.211 70.1636 231.528 70.6948 231.824 71.2112C232.133 71.7276 232.377 72.1776 232.554 72.5613L231.005 73.3138C230.828 72.9302 230.592 72.4801 230.296 71.9637C230.016 71.4325 229.706 70.8866 229.367 70.3259C229.042 69.7652 228.732 69.2414 228.437 68.7545ZM214.582 68.511L216.021 69.0865C215.873 69.5881 215.696 70.1267 215.49 70.7021C215.283 71.2776 215.047 71.8383 214.781 72.3842C214.531 72.9154 214.25 73.3949 213.94 73.8228L212.48 73.0703C212.79 72.6719 213.077 72.2145 213.343 71.6981C213.608 71.1817 213.845 70.6431 214.051 70.0824C214.272 69.5217 214.449 68.9979 214.582 68.511ZM212.679 57.9316H221.842V59.3703H212.679V57.9316ZM216.729 54.656H218.323V67.5593H216.729V54.656ZM216.663 58.8169L217.836 59.2153C217.511 60.1301 217.098 61.0302 216.596 61.9155C216.109 62.8008 215.578 63.6197 215.003 64.3722C214.442 65.1247 213.867 65.7592 213.276 66.2756C213.144 66.0838 212.967 65.8699 212.745 65.6338C212.539 65.3977 212.347 65.2133 212.17 65.0805C212.76 64.6673 213.335 64.1288 213.896 63.4648C214.472 62.7861 214.995 62.0483 215.468 61.2515C215.955 60.44 216.353 59.6285 216.663 58.8169ZM218.168 60.5211C218.36 60.6392 218.633 60.8236 218.987 61.0745C219.356 61.3253 219.739 61.5983 220.138 61.8934C220.551 62.1885 220.927 62.4688 221.266 62.7344C221.606 62.9852 221.857 63.1697 222.019 63.2877L221.111 64.6378C220.905 64.446 220.632 64.2025 220.293 63.9074C219.968 63.5976 219.614 63.2803 219.23 62.9557C218.847 62.6164 218.485 62.3065 218.146 62.0262C217.806 61.7458 217.526 61.5245 217.305 61.3622L218.168 60.5211ZM224.321 60.499V62.5795H229.854V60.499H224.321ZM224.321 63.8853V65.9879H229.854V63.8853H224.321ZM224.321 57.157V59.1932H229.854V57.157H224.321ZM222.793 55.7848H231.447V67.338H222.793V55.7848ZM241.673 58.0866L243.155 57.3783C243.642 57.9095 244.115 58.4923 244.572 59.1268C245.029 59.7613 245.443 60.3884 245.811 61.0081C246.18 61.613 246.468 62.1737 246.675 62.6901L245.081 63.5312C244.889 63.0295 244.616 62.4614 244.262 61.827C243.908 61.1777 243.502 60.5285 243.045 59.8793C242.587 59.2301 242.13 58.6325 241.673 58.0866ZM234.391 70.8349C235.143 70.5398 236.014 70.1857 237.003 69.7726C238.006 69.3594 239.061 68.9168 240.168 68.4446C241.289 67.9577 242.403 67.4782 243.51 67.006L243.886 68.6217C242.868 69.0791 241.828 69.5439 240.765 70.016C239.703 70.4882 238.677 70.9456 237.689 71.3883C236.7 71.8161 235.8 72.2072 234.989 72.5613L234.391 70.8349ZM247.671 67.9356L248.954 66.8289C249.471 67.3601 250.017 67.9208 250.592 68.511C251.182 69.1012 251.758 69.7062 252.318 70.3259C252.879 70.9308 253.403 71.5137 253.89 72.0744C254.377 72.6351 254.775 73.1441 255.085 73.6015L253.668 74.9073C253.359 74.4499 252.975 73.9335 252.518 73.3581C252.06 72.7826 251.551 72.185 250.99 71.5653C250.444 70.9308 249.884 70.3038 249.308 69.684C248.748 69.0496 248.202 68.4667 247.671 67.9356ZM250.725 55.7405L252.54 55.9176C252.259 58.4849 251.861 60.772 251.345 62.7787C250.828 64.7854 250.135 66.5633 249.264 68.1126C248.408 69.6472 247.309 70.9825 245.966 72.1186C244.638 73.2548 243.008 74.2286 241.075 75.0401C241.001 74.9221 240.883 74.7672 240.721 74.5753C240.559 74.3983 240.389 74.2212 240.212 74.0442C240.035 73.8671 239.88 73.7196 239.747 73.6015C241.665 72.8933 243.266 72.0227 244.55 70.9899C245.848 69.9423 246.911 68.6955 247.737 67.2495C248.563 65.7887 249.205 64.114 249.662 62.2254C250.135 60.322 250.489 58.1603 250.725 55.7405ZM237.069 55.8069L238.773 55.7405L239.172 70.3702L237.467 70.4366L237.069 55.8069ZM266.129 61.7827H275.226V63.4427H266.129V61.7827ZM256.856 72.2514H276.753V73.9114H256.856V72.2514ZM265.177 54.9437H266.926V73.1367H265.177V54.9437ZM290.342 58.0866C290.195 59.2375 290.003 60.44 289.767 61.6942C289.545 62.9484 289.258 64.1656 288.904 65.3461C288.461 66.8658 287.967 68.1348 287.421 69.1529C286.889 70.171 286.314 70.9382 285.694 71.4547C285.075 71.9711 284.425 72.2293 283.747 72.2293C283.097 72.2293 282.47 71.9932 281.865 71.521C281.26 71.0489 280.766 70.3702 280.382 69.4848C279.999 68.5848 279.807 67.5298 279.807 66.3199C279.807 65.11 280.051 63.9665 280.537 62.8893C281.039 61.8122 281.725 60.8605 282.596 60.0342C283.481 59.1932 284.514 58.5292 285.694 58.0423C286.875 57.5554 288.136 57.3119 289.479 57.3119C290.777 57.3119 291.943 57.5259 292.976 57.9538C294.024 58.3817 294.916 58.9719 295.654 59.7244C296.392 60.4621 296.96 61.3253 297.358 62.3139C297.757 63.2877 297.956 64.3353 297.956 65.4567C297.956 67.006 297.624 68.3708 296.96 69.5512C296.311 70.7317 295.366 71.6907 294.127 72.4285C292.902 73.1662 291.412 73.6532 289.656 73.8892L288.616 72.2514C288.97 72.2072 289.309 72.1629 289.634 72.1186C289.959 72.0744 290.254 72.0227 290.519 71.9637C291.227 71.8014 291.914 71.5506 292.578 71.2112C293.256 70.8571 293.861 70.4144 294.392 69.8832C294.924 69.3373 295.344 68.6955 295.654 67.9577C295.979 67.2052 296.141 66.3494 296.141 65.3903C296.141 64.4903 295.993 63.6566 295.698 62.8893C295.403 62.1073 294.968 61.4212 294.392 60.831C293.817 60.2408 293.116 59.776 292.29 59.4367C291.464 59.0973 290.519 58.9276 289.457 58.9276C288.247 58.9276 287.148 59.1489 286.159 59.5916C285.185 60.0342 284.352 60.6171 283.658 61.3401C282.979 62.0483 282.456 62.8303 282.087 63.6861C281.718 64.5271 281.533 65.3534 281.533 66.165C281.533 67.0945 281.651 67.8618 281.888 68.4667C282.138 69.057 282.433 69.4922 282.773 69.7726C283.127 70.0529 283.474 70.1931 283.813 70.1931C284.167 70.1931 284.529 70.0234 284.898 69.684C285.266 69.3299 285.643 68.7692 286.026 68.002C286.41 67.2199 286.786 66.2092 287.155 64.9698C287.48 63.9074 287.753 62.7787 287.974 61.5835C288.21 60.3884 288.38 59.2153 288.483 58.0644L290.342 58.0866ZM300.767 68.9537C301.637 68.7471 302.685 68.4889 303.909 68.179C305.134 67.8544 306.381 67.5224 307.65 67.1831L307.871 68.7545C306.691 69.0938 305.51 69.4258 304.33 69.7504C303.164 70.0751 302.102 70.3702 301.143 70.6357L300.767 68.9537ZM306.897 54.7003H308.513V74.9516H306.897V54.7003ZM302.382 57.157H303.954V69.175H302.382V57.157ZM309.487 56.316H319.38V57.9316H309.487V56.316ZM318.937 56.316H319.203L319.513 56.2496L320.597 56.5815C320.17 59.6949 319.454 62.4467 318.451 64.837C317.447 67.2126 316.23 69.2414 314.799 70.9235C313.367 72.6055 311.781 73.9409 310.04 74.9295C309.966 74.7967 309.863 74.6344 309.73 74.4426C309.598 74.2655 309.457 74.0884 309.31 73.9114C309.177 73.7491 309.044 73.6236 308.911 73.5351C310.121 72.9006 311.265 72.0596 312.342 71.012C313.419 69.9644 314.393 68.725 315.263 67.2937C316.149 65.8477 316.901 64.2394 317.521 62.4688C318.155 60.6982 318.628 58.7727 318.937 56.6922V56.316ZM312.143 58.0644C312.6 60.4252 313.227 62.6237 314.024 64.6599C314.836 66.6814 315.861 68.452 317.1 69.9718C318.34 71.4915 319.823 72.6793 321.549 73.5351C321.431 73.6384 321.291 73.7712 321.129 73.9335C320.981 74.0958 320.841 74.2655 320.708 74.4426C320.575 74.6344 320.457 74.804 320.354 74.9516C318.554 73.963 317.019 72.6646 315.75 71.0563C314.481 69.4332 313.426 67.5519 312.585 65.4125C311.759 63.2582 311.088 60.9048 310.571 58.3522L312.143 58.0644ZM336.289 63.0664L337.44 62.1147C337.898 62.8082 338.37 63.5459 338.857 64.328C339.358 65.11 339.823 65.8772 340.251 66.6297C340.679 67.3675 341.018 68.0241 341.269 68.5995L340.052 69.6398C339.801 69.0496 339.462 68.3782 339.034 67.6257C338.621 66.8584 338.171 66.0764 337.684 65.2797C337.212 64.4829 336.747 63.7451 336.289 63.0664ZM331.531 58.7727H341.955V60.2998H333.036V74.9516H331.531V58.7727ZM341.291 58.7727H342.819V73.0703C342.819 73.513 342.767 73.8597 342.664 74.1106C342.56 74.3762 342.361 74.568 342.066 74.686C341.771 74.8188 341.38 74.9 340.893 74.9295C340.421 74.9737 339.831 74.9959 339.122 74.9959C339.093 74.7745 339.026 74.5089 338.923 74.1991C338.835 73.904 338.731 73.6458 338.613 73.4245C339.13 73.454 339.609 73.4687 340.052 73.4687C340.495 73.4687 340.782 73.4613 340.915 73.4466C341.166 73.4466 341.291 73.3212 341.291 73.0703V58.7727ZM336.599 54.5896H338.171C338.126 56.2127 338.053 57.7767 337.949 59.2817C337.861 60.7867 337.676 62.1958 337.396 63.509C337.116 64.8222 336.703 66.0174 336.157 67.0945C335.625 68.1569 334.902 69.0717 333.988 69.839C333.914 69.7209 333.811 69.5955 333.678 69.4627C333.56 69.3299 333.427 69.2045 333.279 69.0865C333.147 68.9684 333.021 68.8725 332.903 68.7987C333.744 68.0905 334.401 67.2421 334.873 66.2535C335.36 65.2501 335.721 64.1361 335.957 62.9115C336.208 61.6868 336.371 60.3736 336.444 58.9719C336.518 57.5701 336.57 56.1094 336.599 54.5896ZM326.44 54.6117L327.901 55.2093C327.621 55.7258 327.326 56.2791 327.016 56.8693C326.706 57.4595 326.389 58.0275 326.064 58.5735C325.754 59.1194 325.452 59.5916 325.157 59.99L324.028 59.4809C324.308 59.053 324.596 58.5587 324.891 57.998C325.186 57.4226 325.474 56.8398 325.754 56.2496C326.035 55.6446 326.263 55.0987 326.44 54.6117ZM328.941 57.1349L330.336 57.7767C329.834 58.6177 329.273 59.5104 328.654 60.4548C328.049 61.3991 327.436 62.3065 326.817 63.1771C326.197 64.0476 325.607 64.8149 325.046 65.4788L324.028 64.9034C324.441 64.4017 324.869 63.8337 325.312 63.1992C325.769 62.55 326.212 61.8786 326.64 61.1851C327.082 60.4769 327.495 59.776 327.879 59.0825C328.277 58.3743 328.632 57.7251 328.941 57.1349ZM322.966 59.2817L323.807 58.1751C324.22 58.5145 324.633 58.8981 325.046 59.326C325.474 59.7391 325.865 60.1523 326.219 60.5654C326.573 60.9638 326.846 61.3253 327.038 61.6499L326.131 62.9115C325.939 62.5721 325.666 62.1885 325.312 61.7606C324.972 61.3179 324.596 60.8826 324.183 60.4548C323.77 60.0269 323.364 59.6358 322.966 59.2817ZM328.145 62.2918L329.318 61.8048C329.628 62.277 329.923 62.7934 330.203 63.3541C330.483 63.9001 330.727 64.4386 330.933 64.9698C331.155 65.4862 331.317 65.951 331.42 66.3642L330.159 66.9175C330.07 66.5043 329.915 66.0322 329.694 65.501C329.487 64.9698 329.251 64.4239 328.986 63.8632C328.72 63.2877 328.44 62.7639 328.145 62.2918ZM322.877 64.5271C323.851 64.4976 324.994 64.4534 326.308 64.3944C327.621 64.3353 328.978 64.2763 330.38 64.2173L330.358 65.5674C329.045 65.6559 327.746 65.7444 326.463 65.833C325.179 65.9067 324.035 65.9805 323.032 66.0543L322.877 64.5271ZM328.72 67.4929L329.937 67.1167C330.232 67.7364 330.513 68.4299 330.778 69.1971C331.059 69.9496 331.251 70.5989 331.354 71.1448L330.092 71.5874C329.989 71.0268 329.805 70.3702 329.539 69.6176C329.288 68.8504 329.015 68.1421 328.72 67.4929ZM324.139 67.2716L325.555 67.515C325.408 68.5627 325.201 69.5955 324.935 70.6136C324.67 71.617 324.36 72.4727 324.006 73.181C323.903 73.1072 323.77 73.0334 323.607 72.9597C323.46 72.8859 323.298 72.8121 323.121 72.7383C322.958 72.6498 322.811 72.5834 322.678 72.5391C323.062 71.8604 323.364 71.0563 323.585 70.1267C323.821 69.1824 324.006 68.2307 324.139 67.2716ZM326.507 65.1469H327.99V75.018H326.507V65.1469ZM346.094 59.4367H363.269V61.1409H346.094V59.4367ZM362.627 59.4367H364.331C364.331 59.4367 364.331 59.4957 364.331 59.6137C364.331 59.7318 364.324 59.8572 364.309 59.99C364.309 60.1228 364.302 60.2334 364.287 60.322C364.169 62.609 364.044 64.5567 363.911 66.165C363.793 67.7733 363.653 69.1012 363.49 70.1488C363.343 71.1817 363.173 72.0006 362.981 72.6055C362.804 73.1957 362.59 73.6236 362.339 73.8892C362.074 74.2138 361.794 74.4352 361.498 74.5532C361.218 74.6713 360.864 74.7524 360.436 74.7967C360.067 74.8262 359.551 74.8336 358.887 74.8188C358.238 74.804 357.574 74.7819 356.895 74.7524C356.88 74.5016 356.821 74.2138 356.718 73.8892C356.629 73.5646 356.496 73.2843 356.319 73.0482C357.087 73.1072 357.788 73.1515 358.422 73.181C359.071 73.1957 359.536 73.2031 359.816 73.2031C360.052 73.2031 360.244 73.181 360.392 73.1367C360.554 73.0925 360.702 72.9966 360.834 72.849C361.041 72.6572 361.225 72.2809 361.388 71.7202C361.565 71.1448 361.72 70.348 361.853 69.3299C362 68.2971 362.133 66.9986 362.251 65.4346C362.384 63.8705 362.509 61.9893 362.627 59.7908V59.4367ZM353.332 54.656H355.058V58.485C355.058 59.503 355.014 60.5802 354.925 61.7163C354.837 62.8377 354.645 63.9886 354.35 65.169C354.055 66.3346 353.604 67.5003 353 68.6659C352.395 69.8316 351.583 70.9604 350.565 72.0522C349.547 73.1293 348.263 74.1327 346.714 75.0623C346.625 74.9147 346.507 74.7598 346.36 74.5975C346.212 74.4352 346.057 74.2729 345.895 74.1106C345.733 73.963 345.578 73.845 345.43 73.7564C346.906 72.8711 348.123 71.9268 349.082 70.9235C350.056 69.9201 350.823 68.8873 351.384 67.8249C351.959 66.7478 352.38 65.6707 352.645 64.5935C352.926 63.5164 353.11 62.4614 353.199 61.4286C353.287 60.3957 353.332 59.4145 353.332 58.485V54.656Z" fill="#040000"/>
<path d="M259.995 85.6442C259.995 85.6442 267.174 95.7272 255.999 100.441C255.999 100.441 271.919 101.908 271.919 85.332" fill="white"/>
<path d="M259.995 85.6442C259.995 85.6442 267.174 95.7272 255.999 100.441C255.999 100.441 271.919 101.908 271.919 85.332" stroke="#040000" stroke-width="1.77935" stroke-linecap="round" stroke-linejoin="round"/>
</svg>
