<svg width="48" height="250" viewBox="0 0 48 250" fill="none" xmlns="http://www.w3.org/2000/svg">
<path d="M29.6922 9.645H40.9272L41.9172 8.46C41.9172 8.46 41.9772 8.505 42.0972 8.595C42.2272 8.685 42.3872 8.8 42.5772 8.94C42.7672 9.07 42.9672 9.22 43.1772 9.39C43.3872 9.55 43.5772 9.7 43.7472 9.84C43.7072 10 43.5672 10.08 43.3272 10.08H29.8122L29.6922 9.645ZM33.5022 3.465H39.5472L40.4922 2.295C40.4922 2.295 40.5522 2.34 40.6722 2.43C40.7922 2.51 40.9422 2.62 41.1222 2.76C41.3022 2.9 41.4922 3.05 41.6922 3.21C41.9022 3.37 42.0872 3.515 42.2472 3.645C42.2072 3.805 42.0672 3.885 41.8272 3.885H33.5022V3.465ZM33.6072 5.505H39.0522L39.9522 4.38C39.9522 4.38 40.0072 4.425 40.1172 4.515C40.2372 4.595 40.3822 4.7 40.5522 4.83C40.7322 4.96 40.9172 5.1 41.1072 5.25C41.2972 5.4 41.4722 5.545 41.6322 5.685C41.5922 5.845 41.4522 5.925 41.2122 5.925H33.6072V5.505ZM33.6072 7.56H39.0522L39.9522 6.45C39.9522 6.45 40.0072 6.495 40.1172 6.585C40.2372 6.665 40.3822 6.77 40.5522 6.9C40.7322 7.03 40.9172 7.17 41.1072 7.32C41.2972 7.47 41.4722 7.615 41.6322 7.755C41.5922 7.915 41.4522 7.995 41.2122 7.995H33.6072V7.56ZM30.3522 14.475C30.7722 14.425 31.3522 14.34 32.0922 14.22C32.8322 14.09 33.6672 13.94 34.5972 13.77C35.5372 13.59 36.5072 13.405 37.5072 13.215L37.5522 13.41C36.9422 13.73 36.1722 14.105 35.2422 14.535C34.3122 14.955 33.1722 15.445 31.8222 16.005C31.7822 16.105 31.7272 16.185 31.6572 16.245C31.5872 16.315 31.5172 16.365 31.4472 16.395L30.3522 14.475ZM36.6822 9.675C36.9422 10.435 37.3022 11.09 37.7622 11.64C38.2222 12.19 38.7622 12.645 39.3822 13.005C40.0122 13.355 40.7022 13.645 41.4522 13.875C42.2122 14.095 43.0072 14.27 43.8372 14.4V14.565C43.1172 14.745 42.6472 15.255 42.4272 16.095C41.6472 15.855 40.9372 15.565 40.2972 15.225C39.6572 14.885 39.0872 14.47 38.5872 13.98C38.0972 13.49 37.6722 12.905 37.3122 12.225C36.9622 11.535 36.6822 10.725 36.4722 9.795L36.6822 9.675ZM40.9872 10.05L42.8172 11.415C42.7772 11.485 42.7122 11.53 42.6222 11.55C42.5322 11.57 42.4072 11.56 42.2472 11.52C41.7472 11.76 41.1372 12.02 40.4172 12.3C39.7072 12.57 39.0072 12.8 38.3172 12.99L38.1822 12.825C38.5122 12.555 38.8572 12.255 39.2172 11.925C39.5772 11.585 39.9122 11.25 40.2222 10.92C40.5422 10.58 40.7972 10.29 40.9872 10.05ZM32.7372 9.66H34.5372V14.445L32.7372 14.655V9.66ZM32.7372 3.465V2.685L34.7922 3.465H34.5372V9.81H32.7372V3.465ZM35.2872 21.71H40.9572L41.8422 20.525C41.8422 20.525 41.8972 20.57 42.0072 20.66C42.1172 20.75 42.2522 20.865 42.4122 21.005C42.5822 21.145 42.7572 21.295 42.9372 21.455C43.1272 21.605 43.2922 21.75 43.4322 21.89C43.3922 22.05 43.2572 22.13 43.0272 22.13H35.4072L35.2872 21.71ZM34.9122 24.32H41.3172L42.2622 23.075C42.2622 23.075 42.3172 23.125 42.4272 23.225C42.5472 23.315 42.6922 23.435 42.8622 23.585C43.0322 23.725 43.2122 23.88 43.4022 24.05C43.6022 24.21 43.7772 24.365 43.9272 24.515C43.8972 24.675 43.7622 24.755 43.5222 24.755H35.0322L34.9122 24.32ZM34.9272 26.69H41.8122L42.5922 25.625C42.5922 25.625 42.6722 25.695 42.8322 25.835C43.0022 25.975 43.1972 26.14 43.4172 26.33C43.6472 26.52 43.8472 26.705 44.0172 26.885C43.9872 27.045 43.8522 27.125 43.6122 27.125H35.0472L34.9272 26.69ZM38.1072 19.385L40.3572 19.565C40.3472 19.665 40.3022 19.755 40.2222 19.835C40.1522 19.905 40.0172 19.955 39.8172 19.985V24.515H38.1072V19.385ZM39.9072 24.98L42.0822 25.175C42.0622 25.375 41.9072 25.495 41.6172 25.535V31.34C41.6172 31.73 41.5622 32.065 41.4522 32.345C41.3522 32.625 41.1422 32.845 40.8222 33.005C40.5022 33.175 40.0022 33.29 39.3222 33.35C39.3022 33.09 39.2672 32.86 39.2172 32.66C39.1672 32.47 39.0722 32.31 38.9322 32.18C38.8122 32.05 38.6472 31.94 38.4372 31.85C38.2372 31.76 37.9372 31.685 37.5372 31.625V31.415C37.5372 31.415 37.6222 31.42 37.7922 31.43C37.9722 31.44 38.1822 31.455 38.4222 31.475C38.6722 31.485 38.9072 31.495 39.1272 31.505C39.3472 31.515 39.4972 31.52 39.5772 31.52C39.6972 31.52 39.7822 31.5 39.8322 31.46C39.8822 31.42 39.9072 31.355 39.9072 31.265V24.98ZM35.9472 27.575C36.6372 27.735 37.1722 27.945 37.5522 28.205C37.9422 28.455 38.2122 28.72 38.3622 29C38.5122 29.28 38.5672 29.545 38.5272 29.795C38.4972 30.035 38.3972 30.235 38.2272 30.395C38.0572 30.545 37.8522 30.62 37.6122 30.62C37.3722 30.62 37.1222 30.51 36.8622 30.29C36.8422 29.98 36.7772 29.67 36.6672 29.36C36.5672 29.04 36.4422 28.735 36.2922 28.445C36.1422 28.155 35.9822 27.895 35.8122 27.665L35.9472 27.575ZM30.1722 20.78V20.075L31.9872 20.78H31.8072V31.355C31.8072 31.395 31.7522 31.46 31.6422 31.55C31.5322 31.63 31.3772 31.705 31.1772 31.775C30.9772 31.835 30.7372 31.865 30.4572 31.865H30.1722V20.78ZM33.1422 20.78H32.9922L33.7872 19.88L35.4222 21.17C35.3722 21.23 35.2922 21.29 35.1822 21.35C35.0822 21.4 34.9572 21.445 34.8072 21.485V30.65C34.8072 30.69 34.7272 30.755 34.5672 30.845C34.4172 30.925 34.2372 30.995 34.0272 31.055C33.8172 31.115 33.6122 31.145 33.4122 31.145H33.1422V20.78ZM31.1022 20.78H33.9372V21.2H31.1022V20.78ZM31.0872 25.145H33.9222V25.565H31.0872V25.145ZM31.0422 29.675H33.8772V30.11H31.0422V29.675ZM33.7722 43.36V42.685L35.4222 43.36H38.6472V43.78H35.3472V48.46C35.3472 48.51 35.2822 48.575 35.1522 48.655C35.0222 48.735 34.8522 48.81 34.6422 48.88C34.4322 48.94 34.2172 48.97 33.9972 48.97H33.7722V43.36ZM34.5672 47.47H38.7072V47.905H34.5672V47.47ZM34.5672 45.37H38.7072V45.805H34.5672V45.37ZM37.9272 43.36H37.7922L38.5422 42.535L40.1022 43.72C40.0622 43.78 39.9972 43.84 39.9072 43.9C39.8172 43.95 39.7072 43.985 39.5772 44.005V48.295C39.5772 48.325 39.4972 48.38 39.3372 48.46C39.1872 48.54 39.0072 48.615 38.7972 48.685C38.5972 48.745 38.4022 48.775 38.2122 48.775H37.9272V43.36ZM30.4872 37.42V36.655L32.2572 37.42H35.0322V37.84H32.1972V49.675C32.1972 49.755 32.1322 49.845 32.0022 49.945C31.8722 50.045 31.6972 50.135 31.4772 50.215C31.2672 50.295 31.0322 50.335 30.7722 50.335H30.4872V37.42ZM37.2072 37.42V36.73L38.9172 37.42H41.8722V37.84H38.8572V41.845C38.8572 41.895 38.7872 41.965 38.6472 42.055C38.5072 42.135 38.3272 42.21 38.1072 42.28C37.8972 42.34 37.6772 42.37 37.4472 42.37H37.2072V37.42ZM41.1822 37.42H41.0322L41.8272 36.49L43.5372 37.81C43.4872 37.87 43.4122 37.93 43.3122 37.99C43.2122 38.05 43.0822 38.095 42.9222 38.125V48.265C42.9222 48.665 42.8722 49.005 42.7722 49.285C42.6822 49.575 42.4872 49.805 42.1872 49.975C41.8872 50.145 41.4172 50.26 40.7772 50.32C40.7572 50.03 40.7272 49.78 40.6872 49.57C40.6472 49.37 40.5772 49.205 40.4772 49.075C40.3772 48.945 40.2422 48.835 40.0722 48.745C39.9122 48.645 39.6722 48.565 39.3522 48.505V48.295C39.3522 48.295 39.4122 48.3 39.5322 48.31C39.6622 48.32 39.8172 48.33 39.9972 48.34C40.1872 48.35 40.3622 48.36 40.5222 48.37C40.6922 48.38 40.8172 48.385 40.8972 48.385C41.0072 48.385 41.0822 48.36 41.1222 48.31C41.1622 48.25 41.1822 48.175 41.1822 48.085V37.42ZM34.4472 37.42H34.2972L35.0472 36.61L36.6072 37.78C36.5672 37.83 36.4972 37.885 36.3972 37.945C36.3072 38.005 36.1972 38.045 36.0672 38.065V41.98C36.0672 42.01 35.9872 42.06 35.8272 42.13C35.6772 42.2 35.4972 42.26 35.2872 42.31C35.0872 42.36 34.9022 42.385 34.7322 42.385H34.4472V37.42ZM31.3122 39.265H34.9572V39.685H31.3122V39.265ZM31.3122 41.14H34.9572V41.575H31.3122V41.14ZM38.2272 39.265H41.9322V39.685H38.2272V39.265ZM38.2272 41.14H41.9322V41.575H38.2272V41.14ZM42.2472 57.21C42.0372 57.21 41.8572 57.16 41.7072 57.06C41.5572 56.96 41.4272 56.795 41.3172 56.565C41.1872 56.285 41.0422 55.985 40.8822 55.665C40.7322 55.335 40.5272 54.995 40.2672 54.645C40.0172 54.295 39.6772 53.95 39.2472 53.61L39.3822 53.415C40.3422 53.585 41.0972 53.83 41.6472 54.15C42.2072 54.47 42.6222 54.84 42.8922 55.26C43.0022 55.43 43.0772 55.595 43.1172 55.755C43.1572 55.915 43.1772 56.075 43.1772 56.235C43.1772 56.535 43.0922 56.775 42.9222 56.955C42.7522 57.125 42.5272 57.21 42.2472 57.21ZM37.1622 76.82C37.1322 77.51 37.0772 78.165 36.9972 78.785C36.9272 79.405 36.7722 79.985 36.5322 80.525C36.2922 81.065 35.9122 81.57 35.3922 82.04C34.8822 82.5 34.1722 82.92 33.2622 83.3C32.3522 83.69 31.1872 84.03 29.7672 84.32L29.6472 84.11C30.7772 83.73 31.6972 83.325 32.4072 82.895C33.1172 82.465 33.6622 82.01 34.0422 81.53C34.4322 81.04 34.7072 80.52 34.8672 79.97C35.0372 79.42 35.1372 78.835 35.1672 78.215C35.1972 77.585 35.2172 76.92 35.2272 76.22L37.6722 76.43C37.6522 76.53 37.6022 76.615 37.5222 76.685C37.4522 76.755 37.3322 76.8 37.1622 76.82ZM37.2822 70.91C37.2522 71.51 37.1972 72.085 37.1172 72.635C37.0472 73.185 36.8922 73.705 36.6522 74.195C36.4122 74.675 36.0422 75.125 35.5422 75.545C35.0522 75.965 34.3722 76.35 33.5022 76.7C32.6422 77.04 31.5372 77.345 30.1872 77.615L30.0822 77.42C31.1422 77.07 32.0072 76.7 32.6772 76.31C33.3472 75.92 33.8672 75.505 34.2372 75.065C34.6072 74.625 34.8672 74.16 35.0172 73.67C35.1772 73.17 35.2722 72.645 35.3022 72.095C35.3422 71.535 35.3672 70.94 35.3772 70.31L37.7922 70.505C37.7822 70.615 37.7372 70.705 37.6572 70.775C37.5772 70.845 37.4522 70.89 37.2822 70.91ZM37.1622 76.82C37.2422 77.67 37.4072 78.41 37.6572 79.04C37.9172 79.67 38.2972 80.21 38.7972 80.66C39.2972 81.11 39.9522 81.48 40.7622 81.77C41.5822 82.05 42.5922 82.27 43.7922 82.43L43.7772 82.595C43.3272 82.695 42.9672 82.88 42.6972 83.15C42.4372 83.43 42.2822 83.825 42.2322 84.335C41.1822 84.075 40.3222 83.73 39.6522 83.3C38.9922 82.87 38.4772 82.345 38.1072 81.725C37.7372 81.105 37.4672 80.395 37.2972 79.595C37.1272 78.785 37.0122 77.875 36.9522 76.865L37.1622 76.82ZM40.2522 77.06L42.3222 78.515C42.2722 78.585 42.2072 78.64 42.1272 78.68C42.0472 78.71 41.9172 78.705 41.7372 78.665C41.4172 78.845 41.0472 79.04 40.6272 79.25C40.2172 79.46 39.7822 79.665 39.3222 79.865C38.8722 80.055 38.4272 80.23 37.9872 80.39L37.8522 80.255C38.1422 79.945 38.4372 79.595 38.7372 79.205C39.0472 78.815 39.3372 78.43 39.6072 78.05C39.8772 77.67 40.0922 77.34 40.2522 77.06ZM32.9622 77.495H33.1722C33.4022 78.125 33.5022 78.685 33.4722 79.175C33.4522 79.655 33.3472 80.06 33.1572 80.39C32.9672 80.71 32.7422 80.945 32.4822 81.095C32.3122 81.195 32.1272 81.245 31.9272 81.245C31.7272 81.245 31.5422 81.2 31.3722 81.11C31.2122 81.01 31.0972 80.865 31.0272 80.675C30.9472 80.395 30.9722 80.155 31.1022 79.955C31.2422 79.755 31.4322 79.595 31.6722 79.475C31.8722 79.375 32.0722 79.23 32.2722 79.04C32.4722 78.85 32.6372 78.62 32.7672 78.35C32.8972 78.08 32.9622 77.795 32.9622 77.495ZM33.1272 71.03H33.3372C33.5172 71.59 33.5922 72.095 33.5622 72.545C33.5322 72.985 33.4322 73.355 33.2622 73.655C33.0922 73.945 32.8872 74.165 32.6472 74.315C32.4972 74.405 32.3222 74.455 32.1222 74.465C31.9222 74.465 31.7422 74.42 31.5822 74.33C31.4222 74.23 31.3122 74.09 31.2522 73.91C31.1622 73.64 31.1822 73.405 31.3122 73.205C31.4422 73.005 31.6222 72.85 31.8522 72.74C32.0522 72.65 32.2472 72.52 32.4372 72.35C32.6272 72.18 32.7872 71.98 32.9172 71.75C33.0472 71.52 33.1172 71.28 33.1272 71.03ZM40.2822 70.79L42.4272 72.17C42.3872 72.24 42.3072 72.295 42.1872 72.335C42.0772 72.375 41.9372 72.37 41.7672 72.32C41.2272 72.7 40.6522 73.045 40.0422 73.355C39.4322 73.655 38.8472 73.905 38.2872 74.105L38.1522 73.955C38.4722 73.585 38.8222 73.115 39.2022 72.545C39.5922 71.975 39.9522 71.39 40.2822 70.79ZM36.1872 73.655C37.5472 73.815 38.6672 74.025 39.5472 74.285C40.4372 74.535 41.1322 74.81 41.6322 75.11C42.1322 75.41 42.4772 75.705 42.6672 75.995C42.8672 76.285 42.9472 76.55 42.9072 76.79C42.8772 77.02 42.7722 77.205 42.5922 77.345C42.4122 77.485 42.1922 77.55 41.9322 77.54C41.6722 77.53 41.4222 77.42 41.1822 77.21C40.9122 76.86 40.5472 76.49 40.0872 76.1C39.6272 75.71 39.0672 75.325 38.4072 74.945C37.7572 74.555 36.9972 74.195 36.1272 73.865L36.1872 73.655ZM41.6772 87.595C41.6772 87.595 41.7372 87.64 41.8572 87.73C41.9872 87.82 42.1522 87.945 42.3522 88.105C42.5622 88.265 42.7722 88.435 42.9822 88.615C43.2022 88.795 43.4022 88.965 43.5822 89.125C43.5622 89.195 43.5122 89.25 43.4322 89.29C43.3622 89.33 43.2772 89.35 43.1772 89.35H30.0372L29.9322 88.915H40.6272L41.6772 87.595ZM41.2572 92.035C41.2572 92.035 41.3222 92.085 41.4522 92.185C41.5822 92.275 41.7422 92.395 41.9322 92.545C42.1322 92.695 42.3372 92.86 42.5472 93.04C42.7672 93.21 42.9672 93.38 43.1472 93.55C43.1072 93.7 42.9672 93.775 42.7272 93.775H30.6222L30.5172 93.34H40.2222L41.2572 92.035ZM37.3122 93.43C37.4322 94.03 37.6372 94.62 37.9272 95.2C38.2272 95.77 38.6322 96.325 39.1422 96.865C39.6522 97.395 40.2922 97.89 41.0622 98.35C41.8322 98.8 42.7472 99.2 43.8072 99.55L43.7922 99.715C43.3522 99.805 43.0022 99.975 42.7422 100.225C42.4822 100.475 42.3172 100.85 42.2472 101.35C41.3272 100.89 40.5522 100.35 39.9222 99.73C39.3022 99.1 38.8022 98.43 38.4222 97.72C38.0422 97.01 37.7472 96.295 37.5372 95.575C37.3272 94.845 37.1772 94.15 37.0872 93.49L37.3122 93.43ZM37.4322 88.93C37.4122 89.92 37.3822 90.86 37.3422 91.75C37.3122 92.63 37.2322 93.46 37.1022 94.24C36.9722 95.02 36.7522 95.755 36.4422 96.445C36.1322 97.125 35.7022 97.76 35.1522 98.35C34.6022 98.94 33.8922 99.485 33.0222 99.985C32.1522 100.475 31.0822 100.92 29.8122 101.32L29.6772 101.095C30.8772 100.495 31.8472 99.865 32.5872 99.205C33.3372 98.545 33.9072 97.84 34.2972 97.09C34.6972 96.34 34.9722 95.545 35.1222 94.705C35.2822 93.855 35.3722 92.95 35.3922 91.99C35.4222 91.03 35.4372 90.01 35.4372 88.93H37.4322ZM37.1022 108.84C38.1422 109.02 39.0222 109.25 39.7422 109.53C40.4622 109.81 41.0472 110.115 41.4972 110.445C41.9472 110.775 42.2822 111.11 42.5022 111.45C42.7222 111.78 42.8472 112.09 42.8772 112.38C42.9072 112.67 42.8572 112.915 42.7272 113.115C42.5972 113.305 42.4072 113.43 42.1572 113.49C41.9172 113.54 41.6422 113.49 41.3322 113.34C41.1022 112.95 40.8172 112.555 40.4772 112.155C40.1472 111.755 39.7822 111.365 39.3822 110.985C38.9922 110.605 38.5872 110.245 38.1672 109.905C37.7572 109.555 37.3672 109.245 36.9972 108.975L37.1022 108.84ZM37.3422 117.795C37.3422 117.835 37.2772 117.895 37.1472 117.975C37.0272 118.065 36.8522 118.145 36.6222 118.215C36.3922 118.295 36.1222 118.335 35.8122 118.335H35.4672V105.735H37.3422V117.795ZM41.8572 104.325C41.8572 104.325 41.9222 104.375 42.0522 104.475C42.1922 104.575 42.3672 104.71 42.5772 104.88C42.7872 105.04 43.0072 105.215 43.2372 105.405C43.4672 105.585 43.6772 105.755 43.8672 105.915C43.8272 106.075 43.6772 106.155 43.4172 106.155H29.8122L29.6772 105.735H40.7472L41.8572 104.325ZM41.3322 128.78C41.2222 128.77 41.1172 128.715 41.0172 128.615C40.9172 128.515 40.8072 128.38 40.6872 128.21C40.5472 128.01 40.3772 127.78 40.1772 127.52C39.9872 127.25 39.7272 126.965 39.3972 126.665L39.5472 126.47C39.9372 126.59 40.2972 126.725 40.6272 126.875C40.9672 127.015 41.2472 127.19 41.4672 127.4C41.6172 127.54 41.7222 127.68 41.7822 127.82C41.8422 127.96 41.8722 128.1 41.8722 128.24C41.8722 128.4 41.8222 128.53 41.7222 128.63C41.6222 128.73 41.4922 128.78 41.3322 128.78ZM39.6372 134.285C39.2672 134.285 38.9022 134.265 38.5422 134.225C38.1822 134.185 37.8372 134.11 37.5072 134C37.1772 133.89 36.8622 133.74 36.5622 133.55C36.0622 133.22 35.6622 132.785 35.3622 132.245C35.0722 131.695 34.9272 130.95 34.9272 130.01C34.9272 129.3 35.0272 128.63 35.2272 128C35.4272 127.36 35.7222 126.78 36.1122 126.26C36.5022 125.73 36.9722 125.275 37.5222 124.895C37.5722 124.845 37.5922 124.805 37.5822 124.775C37.5822 124.745 37.5422 124.74 37.4622 124.76C36.8922 124.89 36.3122 125.055 35.7222 125.255C35.1322 125.445 34.5872 125.64 34.0872 125.84C33.5872 126.04 33.1922 126.235 32.9022 126.425C32.7522 126.505 32.5972 126.61 32.4372 126.74C32.2772 126.87 32.0922 126.935 31.8822 126.935C31.7222 126.935 31.5422 126.885 31.3422 126.785C31.1522 126.675 30.9672 126.535 30.7872 126.365C30.6172 126.195 30.4722 126.01 30.3522 125.81C30.2422 125.61 30.1822 125.42 30.1722 125.24C30.1622 125.06 30.1722 124.89 30.2022 124.73C30.2422 124.57 30.2722 124.43 30.2922 124.31L30.4722 124.25C30.6022 124.44 30.7422 124.615 30.8922 124.775C31.0522 124.925 31.2322 125 31.4322 125C31.6422 125 31.9272 124.97 32.2872 124.91C32.6472 124.84 33.0672 124.75 33.5472 124.64C34.0272 124.53 34.5522 124.405 35.1222 124.265C35.6922 124.115 36.2972 123.965 36.9372 123.815C37.4372 123.675 37.9272 123.55 38.4072 123.44C38.8872 123.33 39.3072 123.24 39.6672 123.17C40.0272 123.09 40.2772 123.05 40.4172 123.05C40.6372 123.05 40.8522 123.07 41.0622 123.11C41.2722 123.14 41.4672 123.2 41.6472 123.29C41.8472 123.38 42.0122 123.495 42.1422 123.635C42.2722 123.765 42.3372 123.935 42.3372 124.145C42.3372 124.325 42.2672 124.48 42.1272 124.61C41.9872 124.74 41.8022 124.805 41.5722 124.805C41.3722 124.805 41.1622 124.795 40.9422 124.775C40.7222 124.755 40.5072 124.745 40.2972 124.745C39.9672 124.745 39.5922 124.78 39.1722 124.85C38.7622 124.91 38.3672 125.085 37.9872 125.375C37.8572 125.465 37.6922 125.615 37.4922 125.825C37.3022 126.025 37.1122 126.29 36.9222 126.62C36.7322 126.95 36.5722 127.35 36.4422 127.82C36.3122 128.29 36.2472 128.84 36.2472 129.47C36.2472 130.05 36.3172 130.51 36.4572 130.85C36.5972 131.18 36.7622 131.435 36.9522 131.615C37.1522 131.795 37.3372 131.935 37.5072 132.035C37.7772 132.175 38.0722 132.27 38.3922 132.32C38.7122 132.37 39.0072 132.4 39.2772 132.41C39.5572 132.41 39.7672 132.41 39.9072 132.41C40.0672 132.41 40.2322 132.46 40.4022 132.56C40.5822 132.65 40.7272 132.77 40.8372 132.92C40.9572 133.07 41.0172 133.24 41.0172 133.43C41.0172 133.66 40.9472 133.84 40.8072 133.97C40.6672 134.09 40.4922 134.17 40.2822 134.21C40.0722 134.26 39.8572 134.285 39.6372 134.285ZM42.7422 127.67C42.6122 127.67 42.4922 127.615 42.3822 127.505C42.2822 127.395 42.1672 127.25 42.0372 127.07C41.8972 126.89 41.7372 126.69 41.5572 126.47C41.3772 126.25 41.0972 125.995 40.7172 125.705L40.8372 125.51C41.2472 125.59 41.6122 125.69 41.9322 125.81C42.2522 125.93 42.5122 126.07 42.7122 126.23C42.9022 126.36 43.0322 126.505 43.1022 126.665C43.1822 126.815 43.2222 126.975 43.2222 127.145C43.2222 127.305 43.1822 127.435 43.1022 127.535C43.0222 127.625 42.9022 127.67 42.7422 127.67ZM34.2072 143.515V142.855L35.8422 143.515H42.0222V143.95H35.7522V149.26C35.7522 149.31 35.6872 149.375 35.5572 149.455C35.4272 149.535 35.2622 149.605 35.0622 149.665C34.8622 149.725 34.6522 149.755 34.4322 149.755H34.2072V143.515ZM36.6972 144.97V144.415L38.0322 144.97H39.6972V145.39H37.9722V148.405C37.9722 148.435 37.9172 148.485 37.8072 148.555C37.7072 148.615 37.5722 148.675 37.4022 148.735C37.2322 148.785 37.0572 148.81 36.8772 148.81H36.6972V144.97ZM37.3872 147.31H39.8172V147.73H37.3872V147.31ZM38.4372 141.13H40.8672V141.55H38.4372V141.13ZM41.4372 143.515H41.3022L41.9622 142.75L43.4922 143.875C43.4522 143.925 43.3872 143.975 43.2972 144.025C43.2172 144.075 43.1172 144.115 42.9972 144.145V148.405C42.9972 148.715 42.9522 148.98 42.8622 149.2C42.7822 149.42 42.6072 149.595 42.3372 149.725C42.0672 149.845 41.6522 149.93 41.0922 149.98C41.0822 149.78 41.0622 149.605 41.0322 149.455C41.0022 149.305 40.9372 149.19 40.8372 149.11C40.7572 149.02 40.6472 148.94 40.5072 148.87C40.3672 148.8 40.1522 148.745 39.8622 148.705V148.495C39.8622 148.495 39.9522 148.5 40.1322 148.51C40.3122 148.52 40.5072 148.535 40.7172 148.555C40.9372 148.565 41.0872 148.57 41.1672 148.57C41.2772 148.57 41.3472 148.545 41.3772 148.495C41.4172 148.445 41.4372 148.38 41.4372 148.3V143.515ZM35.4522 139.24V138.58L37.1172 139.24H39.9222L40.6272 138.34L42.3372 139.525C42.2772 139.595 42.1972 139.655 42.0972 139.705C41.9972 139.755 41.8522 139.795 41.6622 139.825V143.71H40.0872V139.66H36.9672V143.71H35.4522V139.24ZM39.2472 144.97H39.1272L39.7272 144.355L40.9722 145.285C40.9422 145.325 40.8872 145.37 40.8072 145.42C40.7372 145.46 40.6472 145.49 40.5372 145.51V147.835C40.5372 147.875 40.4772 147.93 40.3572 148C40.2372 148.06 40.0922 148.12 39.9222 148.18C39.7622 148.23 39.6122 148.255 39.4722 148.255H39.2472V144.97ZM37.8672 141.13V140.53L39.3372 141.13H39.1422V143.725H37.8672V141.13ZM33.1122 149.2C33.3822 149.47 33.6572 149.69 33.9372 149.86C34.2172 150.02 34.5422 150.145 34.9122 150.235C35.2822 150.315 35.7122 150.37 36.2022 150.4C36.7022 150.43 37.2972 150.445 37.9872 150.445C38.5572 150.445 39.1772 150.445 39.8472 150.445C40.5172 150.435 41.1972 150.425 41.8872 150.415C42.5872 150.405 43.2472 150.395 43.8672 150.385V150.565C43.1972 150.735 42.8222 151.215 42.7422 152.005C42.3022 152.005 41.8072 152.005 41.2572 152.005C40.7172 152.005 40.1672 152.005 39.6072 152.005C39.0472 152.005 38.5122 152.005 38.0022 152.005C37.2822 152.005 36.6622 151.97 36.1422 151.9C35.6222 151.83 35.1672 151.705 34.7772 151.525C34.3972 151.345 34.0572 151.09 33.7572 150.76C33.4672 150.42 33.1972 149.985 32.9472 149.455C32.7472 149.725 32.5222 150.02 32.2722 150.34C32.0222 150.65 31.7722 150.945 31.5222 151.225C31.2722 151.515 31.0522 151.765 30.8622 151.975C30.8622 152.065 30.8422 152.14 30.8022 152.2C30.7622 152.26 30.7072 152.305 30.6372 152.335L29.6922 150.445C29.9822 150.335 30.3222 150.2 30.7122 150.04C31.1122 149.87 31.5222 149.69 31.9422 149.5C32.3722 149.3 32.7622 149.12 33.1122 148.96V149.2ZM33.1122 145.465V149.17L31.4772 150.07V145.24H29.7672L29.6772 144.82H31.2522L32.0922 143.695L33.8922 145.15C33.8322 145.21 33.7422 145.27 33.6222 145.33C33.5022 145.39 33.3322 145.435 33.1122 145.465ZM30.6222 139C31.3622 139.14 31.9472 139.335 32.3772 139.585C32.8072 139.835 33.1122 140.105 33.2922 140.395C33.4822 140.675 33.5722 140.95 33.5622 141.22C33.5522 141.49 33.4672 141.715 33.3072 141.895C33.1472 142.065 32.9472 142.16 32.7072 142.18C32.4672 142.2 32.2072 142.11 31.9272 141.91C31.8872 141.57 31.7922 141.23 31.6422 140.89C31.4922 140.55 31.3172 140.225 31.1172 139.915C30.9172 139.605 30.7122 139.33 30.5022 139.09L30.6222 139ZM41.5122 158.835C41.3922 158.825 41.2822 158.77 41.1822 158.67C41.0822 158.57 40.9722 158.435 40.8522 158.265C40.7222 158.065 40.5572 157.835 40.3572 157.575C40.1672 157.305 39.9022 157.025 39.5622 156.735L39.7122 156.525C40.1122 156.645 40.4772 156.78 40.8072 156.93C41.1372 157.07 41.4122 157.245 41.6322 157.455C41.7822 157.595 41.8872 157.74 41.9472 157.89C42.0172 158.03 42.0472 158.17 42.0372 158.31C42.0372 158.45 41.9872 158.575 41.8872 158.685C41.7872 158.785 41.6622 158.835 41.5122 158.835ZM36.5772 168.39C35.5172 168.39 34.6572 168.27 33.9972 168.03C33.3372 167.79 32.8422 167.45 32.5122 167.01C32.1922 166.56 32.0122 166.035 31.9722 165.435C31.9422 164.835 32.0272 164.18 32.2272 163.47H32.5122C32.5422 163.99 32.6122 164.455 32.7222 164.865C32.8422 165.265 33.0272 165.605 33.2772 165.885C33.5372 166.155 33.8922 166.365 34.3422 166.515C34.8022 166.655 35.3872 166.725 36.0972 166.725C36.8372 166.725 37.4572 166.67 37.9572 166.56C38.4672 166.45 38.8772 166.345 39.1872 166.245C39.5072 166.135 39.7322 166.08 39.8622 166.08C40.0422 166.08 40.2422 166.115 40.4622 166.185C40.6822 166.255 40.8722 166.36 41.0322 166.5C41.1922 166.63 41.2722 166.805 41.2722 167.025C41.2722 167.255 41.2172 167.435 41.1072 167.565C41.0072 167.685 40.7972 167.8 40.4772 167.91C40.0772 168.06 39.5322 168.175 38.8422 168.255C38.1622 168.345 37.4072 168.39 36.5772 168.39ZM34.2222 160.905C34.5022 160.695 34.8022 160.46 35.1222 160.2C35.4522 159.93 35.7222 159.705 35.9322 159.525C36.0522 159.425 36.0322 159.37 35.8722 159.36C35.3722 159.34 34.9072 159.29 34.4772 159.21C34.0472 159.12 33.6672 158.95 33.3372 158.7C33.0172 158.45 32.7622 158.065 32.5722 157.545L32.7522 157.395C33.0322 157.585 33.2922 157.735 33.5322 157.845C33.7722 157.945 34.0322 158.015 34.3122 158.055C34.5922 158.095 34.9272 158.115 35.3172 158.115C35.7972 158.115 36.1872 158.095 36.4872 158.055C36.7972 158.015 37.0522 157.97 37.2522 157.92C37.4522 157.86 37.6322 157.815 37.7922 157.785C37.9522 157.745 38.1172 157.725 38.2872 157.725C38.5172 157.725 38.7722 157.77 39.0522 157.86C39.3322 157.95 39.5722 158.075 39.7722 158.235C39.9822 158.385 40.0872 158.555 40.0872 158.745C40.0872 159.145 39.8372 159.395 39.3372 159.495C39.1072 159.535 38.8572 159.58 38.5872 159.63C38.3272 159.68 38.0622 159.745 37.7922 159.825C37.5122 159.885 37.1872 159.985 36.8172 160.125C36.4472 160.255 36.0522 160.41 35.6322 160.59C35.2122 160.76 34.7872 160.945 34.3572 161.145L34.2222 160.905ZM42.9222 157.74C42.7822 157.74 42.6622 157.685 42.5622 157.575C42.4622 157.465 42.3422 157.315 42.2022 157.125C42.0722 156.965 41.9122 156.775 41.7222 156.555C41.5322 156.335 41.2472 156.075 40.8672 155.775L41.0022 155.58C41.4122 155.66 41.7772 155.76 42.0972 155.88C42.4172 156 42.6822 156.14 42.8922 156.3C43.0722 156.44 43.1972 156.59 43.2672 156.75C43.3472 156.9 43.3872 157.055 43.3872 157.215C43.3872 157.375 43.3422 157.505 43.2522 157.605C43.1722 157.695 43.0622 157.74 42.9222 157.74ZM33.1422 185.75C34.0222 185.42 34.8072 185.015 35.4972 184.535C36.1872 184.045 36.6672 183.45 36.9372 182.75C36.4672 182.9 36.0372 182.88 35.6472 182.69C35.2672 182.5 34.9672 182.205 34.7472 181.805C34.5372 181.395 34.4322 180.945 34.4322 180.455C34.4322 180.015 34.5222 179.625 34.7022 179.285C34.8822 178.935 35.1272 178.66 35.4372 178.46C35.7572 178.26 36.1122 178.16 36.5022 178.16C37.0922 178.16 37.5572 178.29 37.8972 178.55C38.2472 178.81 38.4972 179.15 38.6472 179.57C38.8072 179.98 38.8872 180.43 38.8872 180.92C38.8872 181.69 38.7422 182.37 38.4522 182.96C38.1622 183.54 37.7622 184.04 37.2522 184.46C36.7422 184.88 36.1472 185.215 35.4672 185.465C34.7972 185.725 34.0622 185.915 33.2622 186.035L33.1422 185.75ZM36.3072 181.535C36.6572 181.535 36.8972 181.43 37.0272 181.22C37.1572 181.01 37.2222 180.69 37.2222 180.26C37.2222 179.89 37.1522 179.58 37.0122 179.33C36.8722 179.07 36.6522 178.94 36.3522 178.94C36.0222 178.94 35.7472 179.07 35.5272 179.33C35.3072 179.59 35.1972 179.915 35.1972 180.305C35.1972 180.635 35.2972 180.925 35.4972 181.175C35.7072 181.415 35.9772 181.535 36.3072 181.535ZM32.1672 177.965C31.9872 177.965 31.7822 177.895 31.5522 177.755C31.3322 177.605 31.1322 177.425 30.9522 177.215C30.7722 176.995 30.6572 176.79 30.6072 176.6C30.5572 176.43 30.5272 176.25 30.5172 176.06C30.5172 175.86 30.5172 175.68 30.5172 175.52L30.7422 175.43C30.9922 175.73 31.1972 175.95 31.3572 176.09C31.5272 176.22 31.7322 176.29 31.9722 176.3C32.1222 176.3 32.3822 176.285 32.7522 176.255C33.1322 176.215 33.5622 176.17 34.0422 176.12C34.5222 176.06 35.0072 176 35.4972 175.94C35.9972 175.88 36.4572 175.825 36.8772 175.775C37.2972 175.715 37.6322 175.675 37.8822 175.655C38.6522 175.575 39.2622 175.5 39.7122 175.43C40.1622 175.36 40.5072 175.305 40.7472 175.265C40.9872 175.215 41.1522 175.175 41.2422 175.145C41.3422 175.115 41.4222 175.1 41.4822 175.1C41.7422 175.1 42.0072 175.145 42.2772 175.235C42.5472 175.325 42.7722 175.455 42.9522 175.625C43.1322 175.785 43.2222 175.98 43.2222 176.21C43.2222 176.46 43.1572 176.62 43.0272 176.69C42.8972 176.76 42.7222 176.795 42.5022 176.795C42.3322 176.795 42.1372 176.775 41.9172 176.735C41.7072 176.695 41.4372 176.655 41.1072 176.615C40.7872 176.575 40.3872 176.55 39.9072 176.54C39.4272 176.53 38.8422 176.56 38.1522 176.63C37.4922 176.68 36.8722 176.755 36.2922 176.855C35.7222 176.955 35.2122 177.06 34.7622 177.17C34.3122 177.27 33.9422 177.36 33.6522 177.44C33.4322 177.51 33.2372 177.59 33.0672 177.68C32.9072 177.76 32.7572 177.83 32.6172 177.89C32.4872 177.94 32.3372 177.965 32.1672 177.965ZM37.1172 178.73C37.1172 178.61 37.1122 178.425 37.1022 178.175C37.0922 177.915 37.0772 177.62 37.0572 177.29C37.0372 176.95 37.0122 176.6 36.9822 176.24C36.9622 175.88 36.9372 175.55 36.9072 175.25C36.8872 174.94 36.8572 174.685 36.8172 174.485C36.8072 174.355 36.7772 174.26 36.7272 174.2C36.6772 174.14 36.5972 174.08 36.4872 174.02C36.3672 173.97 36.2222 173.925 36.0522 173.885C35.8822 173.845 35.6972 173.81 35.4972 173.78L35.4672 173.57C35.6372 173.44 35.8372 173.32 36.0672 173.21C36.2972 173.09 36.5322 173.03 36.7722 173.03C37.0522 173.03 37.3322 173.07 37.6122 173.15C37.9022 173.23 38.1422 173.335 38.3322 173.465C38.5322 173.595 38.6322 173.745 38.6322 173.915C38.6322 174.105 38.5872 174.285 38.4972 174.455C38.4172 174.625 38.3672 174.8 38.3472 174.98C38.3372 175.15 38.3222 175.43 38.3022 175.82C38.2922 176.2 38.2872 176.635 38.2872 177.125C38.2872 177.605 38.2872 178.09 38.2872 178.58C38.2872 179.07 38.2922 179.505 38.3022 179.885L37.1172 178.73ZM36.8472 202.795C36.0472 202.795 35.4222 202.61 34.9722 202.24C34.5322 201.88 34.3122 201.425 34.3122 200.875C34.3122 200.475 34.4372 200.1 34.6872 199.75C34.9372 199.4 35.3022 199.12 35.7822 198.91C36.2622 198.69 36.8572 198.58 37.5672 198.58C38.3772 198.58 39.0672 198.685 39.6372 198.895C40.2172 199.095 40.7072 199.31 41.1072 199.54C41.5672 199.78 41.9422 200.05 42.2322 200.35C42.5222 200.65 42.6672 200.97 42.6672 201.31C42.6672 201.6 42.5972 201.81 42.4572 201.94C42.3172 202.07 42.1622 202.135 41.9922 202.135C41.8522 202.135 41.7272 202.09 41.6172 202C41.5072 201.92 41.3872 201.815 41.2572 201.685C41.1372 201.545 40.9822 201.39 40.7922 201.22C40.5122 200.96 40.1772 200.7 39.7872 200.44C39.4072 200.18 38.9622 199.97 38.4522 199.81C37.9522 199.65 37.3722 199.57 36.7122 199.57C36.1322 199.57 35.7022 199.68 35.4222 199.9C35.1422 200.12 35.0022 200.35 35.0022 200.59C35.0022 200.84 35.1072 201.045 35.3172 201.205C35.5372 201.355 35.8972 201.43 36.3972 201.43C36.7472 201.43 37.0422 201.38 37.2822 201.28C37.5322 201.18 37.7172 201.03 37.8372 200.83C37.9672 200.63 38.0322 200.39 38.0322 200.11C38.0422 199.85 38.0372 199.555 38.0172 199.225C38.0072 198.885 37.9922 198.545 37.9722 198.205C37.9622 197.865 37.9572 197.55 37.9572 197.26C37.9572 196.79 38.0022 196.385 38.0922 196.045C38.1822 195.705 38.3322 195.41 38.5422 195.16C38.8222 194.82 39.1222 194.565 39.4422 194.395C39.7722 194.215 40.0522 194.07 40.2822 193.96C40.3522 193.83 40.3072 193.7 40.1472 193.57C39.9872 193.43 39.7822 193.32 39.5322 193.24C39.2822 193.15 39.0022 193.095 38.6922 193.075L38.6772 192.805C39.0872 192.665 39.4922 192.6 39.8922 192.61C40.2922 192.61 40.6372 192.655 40.9272 192.745C41.4172 192.895 41.8022 193.13 42.0822 193.45C42.3722 193.77 42.5172 194.135 42.5172 194.545C42.5172 194.785 42.4722 194.985 42.3822 195.145C42.2922 195.295 42.1322 195.37 41.9022 195.37C41.7122 195.37 41.5322 195.33 41.3622 195.25C41.2022 195.17 41.0222 195.095 40.8222 195.025C40.6322 194.955 40.4072 194.925 40.1472 194.935C39.9372 194.945 39.7272 194.99 39.5172 195.07C39.3172 195.15 39.1672 195.27 39.0672 195.43C38.9672 195.59 38.9122 195.795 38.9022 196.045C38.9022 196.285 38.9222 196.545 38.9622 196.825C38.9922 197.025 39.0322 197.28 39.0822 197.59C39.1422 197.9 39.2022 198.24 39.2622 198.61C39.3322 198.97 39.3872 199.34 39.4272 199.72C39.4772 200.1 39.5022 200.455 39.5022 200.785C39.5022 201.435 39.2672 201.93 38.7972 202.27C38.3272 202.62 37.6772 202.795 36.8472 202.795ZM31.6122 200.65C31.3622 200.65 31.1672 200.55 31.0272 200.35C30.8972 200.14 30.8322 199.905 30.8322 199.645C30.8322 199.465 30.8572 199.3 30.9072 199.15C30.9672 199 31.0622 198.84 31.1922 198.67C31.5322 198.25 31.8672 197.785 32.1972 197.275C32.5372 196.765 32.8522 196.205 33.1422 195.595C33.4422 194.985 33.6922 194.33 33.8922 193.63C33.9822 193.34 34.0572 193.07 34.1172 192.82C34.1872 192.56 34.2372 192.315 34.2672 192.085C34.3072 191.855 34.3272 191.645 34.3272 191.455C34.3272 191.295 34.2972 191.165 34.2372 191.065C34.1872 190.965 34.0972 190.87 33.9672 190.78C33.8472 190.69 33.7272 190.62 33.6072 190.57C33.4972 190.51 33.4022 190.465 33.3222 190.435V190.21C33.4622 190.15 33.6422 190.09 33.8622 190.03C34.0922 189.96 34.3122 189.925 34.5222 189.925C34.8022 189.925 35.0572 189.96 35.2872 190.03C35.5172 190.1 35.7072 190.195 35.8572 190.315C35.9472 190.385 35.9972 190.48 36.0072 190.6C36.0272 190.71 36.0122 190.86 35.9622 191.05C35.9122 191.24 35.8372 191.485 35.7372 191.785C35.6472 192.085 35.5322 192.455 35.3922 192.895C35.3122 193.155 35.1872 193.545 35.0172 194.065C34.8572 194.575 34.6622 195.16 34.4322 195.82C34.2022 196.47 33.9372 197.135 33.6372 197.815C33.3372 198.495 33.0122 199.115 32.6622 199.675C32.4822 199.965 32.3122 200.2 32.1522 200.38C31.9922 200.56 31.8122 200.65 31.6122 200.65ZM32.7372 194.155C32.3472 194.155 32.0172 194.1 31.7472 193.99C31.4772 193.88 31.2472 193.68 31.0572 193.39C30.8772 193.1 30.7222 192.685 30.5922 192.145L30.8022 192.01C31.0122 192.17 31.2072 192.315 31.3872 192.445C31.5772 192.565 31.7822 192.665 32.0022 192.745C32.2222 192.815 32.4872 192.85 32.7972 192.85C33.0372 192.85 33.2872 192.83 33.5472 192.79C33.8072 192.75 34.0522 192.705 34.2822 192.655C34.5222 192.595 34.7172 192.545 34.8672 192.505C35.4172 192.345 35.8422 192.205 36.1422 192.085C36.4422 191.955 36.6672 191.85 36.8172 191.77C36.9772 191.69 37.0922 191.65 37.1622 191.65C37.3322 191.65 37.4972 191.71 37.6572 191.83C37.8272 191.94 37.9122 192.115 37.9122 192.355C37.9122 192.525 37.8672 192.66 37.7772 192.76C37.6972 192.86 37.5922 192.955 37.4622 193.045C37.2422 193.185 36.9422 193.325 36.5622 193.465C36.1922 193.595 35.7872 193.715 35.3472 193.825C34.9072 193.925 34.4572 194.005 33.9972 194.065C33.5472 194.125 33.1272 194.155 32.7372 194.155ZM34.3272 219.375C34.8972 219.295 35.4422 219.19 35.9622 219.06C36.4822 218.94 36.9072 218.815 37.2372 218.685C38.0772 218.385 38.7272 218.055 39.1872 217.695C39.6472 217.335 39.9722 216.96 40.1622 216.57C40.3522 216.17 40.4472 215.77 40.4472 215.37C40.4472 215.02 40.3722 214.715 40.2222 214.455C40.0722 214.195 39.8522 213.99 39.5622 213.84C39.2822 213.69 38.9322 213.615 38.5122 213.615C38.1122 213.615 37.7072 213.705 37.2972 213.885C36.8972 214.065 36.5072 214.3 36.1272 214.59C35.7572 214.88 35.4172 215.185 35.1072 215.505C34.8072 215.815 34.5572 216.105 34.3572 216.375C34.2372 216.545 34.1272 216.725 34.0272 216.915C33.9372 217.095 33.8372 217.255 33.7272 217.395C33.6172 217.525 33.4822 217.59 33.3222 217.59C33.1922 217.59 33.0572 217.55 32.9172 217.47C32.7772 217.39 32.6372 217.265 32.4972 217.095C32.3672 216.955 32.2672 216.81 32.1972 216.66C32.1372 216.51 32.1072 216.345 32.1072 216.165C32.1072 216.025 32.1222 215.865 32.1522 215.685C32.1922 215.505 32.2322 215.27 32.2722 214.98C32.3022 214.81 32.3322 214.59 32.3622 214.32C32.4022 214.05 32.4422 213.765 32.4822 213.465C32.5322 213.165 32.5722 212.88 32.6022 212.61C32.6422 212.33 32.6772 212.095 32.7072 211.905C32.7472 211.685 32.7722 211.465 32.7822 211.245C32.8022 211.015 32.8172 210.82 32.8272 210.66C32.8472 210.46 32.9022 210.29 32.9922 210.15C33.0822 210.01 33.2572 209.92 33.5172 209.88C33.7272 209.84 33.9872 209.78 34.2972 209.7C34.6072 209.62 34.9072 209.53 35.1972 209.43C35.4872 209.33 35.7122 209.24 35.8722 209.16C35.9522 209.11 35.9972 209.055 36.0072 208.995C36.0172 208.925 35.9872 208.84 35.9172 208.74C35.7272 208.44 35.4622 208.205 35.1222 208.035C34.7922 207.865 34.4072 207.705 33.9672 207.555L34.0272 207.33C34.7472 207.28 35.3372 207.305 35.7972 207.405C36.2672 207.505 36.6472 207.645 36.9372 207.825C37.3572 208.055 37.6772 208.335 37.8972 208.665C38.1272 208.985 38.2422 209.365 38.2422 209.805C38.2422 210.015 38.1872 210.18 38.0772 210.3C37.9772 210.42 37.8022 210.48 37.5522 210.48C37.3922 210.48 37.2372 210.465 37.0872 210.435C36.9472 210.405 36.7972 210.37 36.6372 210.33C36.4872 210.29 36.3022 210.265 36.0822 210.255C35.8522 210.235 35.6122 210.235 35.3622 210.255C35.1222 210.265 34.8972 210.28 34.6872 210.3C34.4872 210.32 34.3272 210.345 34.2072 210.375C34.0772 210.385 33.9872 210.42 33.9372 210.48C33.8972 210.54 33.8772 210.6 33.8772 210.66C33.8772 210.77 33.8972 210.915 33.9372 211.095C33.9772 211.265 34.0072 211.455 34.0272 211.665C34.0372 211.875 34.0322 212.07 34.0122 212.25C33.9922 212.43 33.9672 212.64 33.9372 212.88C33.8772 213.29 33.8222 213.65 33.7722 213.96C33.7322 214.27 33.7172 214.535 33.7272 214.755C33.7272 214.915 33.7922 214.955 33.9222 214.875C34.1722 214.695 34.4672 214.495 34.8072 214.275C35.1472 214.045 35.5222 213.83 35.9322 213.63C36.3422 213.43 36.7772 213.265 37.2372 213.135C37.7072 213.005 38.1922 212.94 38.6922 212.94C39.4622 212.94 40.1022 213.08 40.6122 213.36C41.1222 213.64 41.5072 214.01 41.7672 214.47C42.0272 214.93 42.1572 215.425 42.1572 215.955C42.1572 216.525 42.0022 217.035 41.6922 217.485C41.3922 217.925 40.9772 218.3 40.4472 218.61C39.9272 218.91 39.3322 219.15 38.6622 219.33C37.9922 219.51 37.2872 219.625 36.5472 219.675C35.8172 219.735 35.0872 219.73 34.3572 219.66L34.3272 219.375Z" fill="black"/>
<path d="M47.4741 2.92285L47.4739 219" stroke="black" stroke-dasharray="2 2"/>
<path d="M20.4739 46.9229L20.4739 248.923" stroke="black" stroke-dasharray="2 2"/>
<path d="M2.35361 49.7038H7.24361L8.06861 48.5638C8.06861 48.5638 8.15861 48.6338 8.33861 48.7738C8.51861 48.9138 8.72861 49.0888 8.96861 49.2988C9.20861 49.5088 9.41861 49.7038 9.59861 49.8838C9.55861 50.0438 9.42361 50.1238 9.19361 50.1238H2.47361L2.35361 49.7038ZM3.92861 50.1688C4.43861 50.3488 4.82861 50.5538 5.09861 50.7838C5.36861 51.0138 5.54361 51.2438 5.62361 51.4738C5.71361 51.7038 5.72361 51.9088 5.65361 52.0888C5.59361 52.2688 5.48861 52.4138 5.33861 52.5238C5.18861 52.6238 5.01361 52.6638 4.81361 52.6438C4.61361 52.6138 4.41861 52.5038 4.22861 52.3138C4.24861 51.9638 4.20861 51.5988 4.10861 51.2188C4.01861 50.8288 3.90361 50.4988 3.76361 50.2288L3.92861 50.1688ZM4.88861 47.8288L7.07861 48.0088C7.06861 48.1088 7.02361 48.1938 6.94361 48.2638C6.86361 48.3338 6.72861 48.3888 6.53861 48.4288V49.8688H4.88861V47.8288ZM6.71861 50.0488L8.68361 50.6338C8.61361 50.8238 8.42361 50.9138 8.11361 50.9038C7.90361 51.2038 7.64361 51.5388 7.33361 51.9088C7.02361 52.2688 6.69361 52.5988 6.34361 52.8988H6.10361C6.23361 52.4988 6.35361 52.0338 6.46361 51.5038C6.57361 50.9638 6.65861 50.4788 6.71861 50.0488ZM3.41861 52.7338H7.45361L8.21861 51.7138C8.21861 51.7138 8.29861 51.7788 8.45861 51.9088C8.61861 52.0388 8.80361 52.1988 9.01361 52.3888C9.23361 52.5688 9.42861 52.7438 9.59861 52.9138C9.56861 53.0738 9.43361 53.1538 9.19361 53.1538H3.41861V52.7338ZM2.84861 52.7338V52.5838V52.0888L4.55861 52.7338H4.31861V54.7438C4.31861 55.1938 4.29861 55.6988 4.25861 56.2588C4.22861 56.8088 4.14361 57.3838 4.00361 57.9838C3.87361 58.5738 3.66861 59.1538 3.38861 59.7238C3.10861 60.2838 2.72861 60.7988 2.24861 61.2688L2.08361 61.1338C2.34361 60.4638 2.52361 59.7638 2.62361 59.0338C2.73361 58.2938 2.79861 57.5588 2.81861 56.8288C2.83861 56.0888 2.84861 55.3938 2.84861 54.7438V52.7338ZM7.15361 53.0638L8.80361 54.1438C8.75361 54.2138 8.68861 54.2588 8.60861 54.2788C8.52861 54.2988 8.41361 54.2888 8.26361 54.2488C7.73361 54.5788 7.13361 54.8888 6.46361 55.1788C5.79361 55.4588 5.13861 55.6838 4.49861 55.8538L4.34861 55.6138C4.86861 55.2938 5.36861 54.9088 5.84861 54.4588C6.33861 54.0088 6.77361 53.5438 7.15361 53.0638ZM7.40861 55.1788L9.07361 56.2138C9.02361 56.2838 8.95861 56.3338 8.87861 56.3638C8.79861 56.3838 8.67861 56.3738 8.51861 56.3338C7.92861 56.7738 7.26361 57.1688 6.52361 57.5188C5.79361 57.8688 5.05861 58.1538 4.31861 58.3738L4.16861 58.1488C4.77861 57.7788 5.35861 57.3388 5.90861 56.8288C6.46861 56.3188 6.96861 55.7688 7.40861 55.1788ZM7.52861 57.4138L9.44861 58.5088C9.38861 58.5888 9.31361 58.6438 9.22361 58.6738C9.14361 58.6938 9.01861 58.6838 8.84861 58.6438C8.07861 59.3938 7.21861 60.0138 6.26861 60.5038C5.32861 60.9938 4.32861 61.3838 3.26861 61.6738L3.16361 61.4338C4.05361 60.9838 4.85861 60.4288 5.57861 59.7688C6.30861 59.0988 6.95861 58.3138 7.52861 57.4138ZM9.01361 48.9538H13.6786L14.6386 47.7088C14.6386 47.7088 14.6986 47.7538 14.8186 47.8438C14.9386 47.9338 15.0886 48.0538 15.2686 48.2038C15.4486 48.3538 15.6386 48.5138 15.8386 48.6838C16.0386 48.8438 16.2186 48.9938 16.3786 49.1338C16.3386 49.2938 16.1986 49.3738 15.9586 49.3738H9.13361L9.01361 48.9538ZM10.4236 53.2438H14.5786V53.6638H10.4236V53.2438ZM10.4236 55.5088H14.5786V55.9288H10.4236V55.5088ZM10.4236 57.7738H14.5786V58.2088H10.4236V57.7738ZM11.5636 48.9538H13.6786C13.4086 49.3338 13.0886 49.7438 12.7186 50.1838C12.3586 50.6138 12.0236 50.9638 11.7136 51.2338H11.4136C11.4436 51.0438 11.4636 50.8138 11.4736 50.5438C11.4936 50.2738 11.5086 49.9988 11.5186 49.7188C11.5386 49.4288 11.5536 49.1738 11.5636 48.9538ZM12.7486 58.6138C13.5086 58.7238 14.1186 58.8938 14.5786 59.1238C15.0486 59.3438 15.3936 59.5938 15.6136 59.8738C15.8436 60.1438 15.9736 60.4088 16.0036 60.6688C16.0436 60.9288 16.0036 61.1538 15.8836 61.3438C15.7736 61.5338 15.6086 61.6538 15.3886 61.7038C15.1786 61.7538 14.9386 61.6988 14.6686 61.5388C14.5486 61.2088 14.3736 60.8738 14.1436 60.5338C13.9236 60.1938 13.6786 59.8688 13.4086 59.5588C13.1386 59.2388 12.8736 58.9588 12.6136 58.7188L12.7486 58.6138ZM13.7986 51.0688H13.6636L14.4136 50.2588L15.9586 51.4438C15.9186 51.4938 15.8536 51.5438 15.7636 51.5938C15.6736 51.6438 15.5636 51.6788 15.4336 51.6988V58.2838C15.4336 58.3238 15.3536 58.3788 15.1936 58.4488C15.0436 58.5188 14.8636 58.5838 14.6536 58.6438C14.4536 58.7038 14.2586 58.7338 14.0686 58.7338H13.7986V51.0688ZM9.61361 51.0688V50.3788L11.2936 51.0688H14.6086V51.4888H11.2186V58.4338C11.2186 58.4838 11.1536 58.5538 11.0236 58.6438C10.8936 58.7238 10.7236 58.7988 10.5136 58.8688C10.3136 58.9288 10.0986 58.9588 9.86861 58.9588H9.61361V51.0688ZM10.8736 58.4788L12.7636 59.5738C12.6936 59.7038 12.5336 59.7338 12.2836 59.6638C11.9636 59.9438 11.5486 60.2188 11.0386 60.4888C10.5286 60.7688 9.98361 61.0138 9.40361 61.2238C8.83361 61.4438 8.26861 61.6138 7.70861 61.7338L7.58861 61.5388C8.01861 61.2988 8.44361 61.0038 8.86361 60.6538C9.29361 60.3038 9.68361 59.9388 10.0336 59.5588C10.3836 59.1788 10.6636 58.8188 10.8736 58.4788ZM3.74861 77.8338C3.56861 77.8338 3.40361 77.7488 3.25361 77.5788C3.11361 77.4088 3.04361 77.1838 3.04361 76.9038C3.04361 76.6938 3.06361 76.5238 3.10361 76.3938C3.15361 76.2638 3.24361 76.1138 3.37361 75.9438C3.61361 75.6338 3.85361 75.2988 4.09361 74.9388C4.34361 74.5688 4.59361 74.1638 4.84361 73.7238C5.09361 73.2838 5.33861 72.8138 5.57861 72.3138C5.78861 71.8738 5.98361 71.4288 6.16361 70.9788C6.35361 70.5188 6.52361 70.0788 6.67361 69.6588C6.82361 69.2388 6.95361 68.8538 7.06361 68.5038C7.18361 68.1438 7.26861 67.8388 7.31861 67.5888C7.37861 67.3288 7.40861 67.1388 7.40861 67.0188C7.40861 66.9188 7.39361 66.8338 7.36361 66.7638C7.33361 66.6838 7.27861 66.6238 7.19861 66.5838C7.07861 66.5038 6.91861 66.4388 6.71861 66.3888C6.51861 66.3288 6.31861 66.2788 6.11861 66.2388V66.0138C6.27861 65.9238 6.45861 65.8388 6.65861 65.7588C6.86861 65.6788 7.12861 65.6388 7.43861 65.6388C7.60861 65.6388 7.80361 65.6738 8.02361 65.7438C8.25361 65.8038 8.47361 65.8888 8.68361 65.9988C8.90361 66.0988 9.08361 66.2138 9.22361 66.3438C9.36361 66.4738 9.43361 66.6088 9.43361 66.7488C9.43361 66.8788 9.39861 66.9988 9.32861 67.1088C9.25861 67.2188 9.17361 67.3338 9.07361 67.4538C8.98361 67.5638 8.90361 67.7038 8.83361 67.8738C8.73361 68.1038 8.60361 68.4188 8.44361 68.8188C8.28361 69.2088 8.10861 69.6438 7.91861 70.1238C7.72861 70.5938 7.53361 71.0638 7.33361 71.5338C7.13361 72.0038 6.94861 72.4288 6.77861 72.8088C6.61861 73.1888 6.44361 73.5838 6.25361 73.9938C6.06361 74.4038 5.87361 74.8038 5.68361 75.1938C5.49361 75.5838 5.31361 75.9488 5.14361 76.2888C4.97361 76.6188 4.82361 76.8938 4.69361 77.1138C4.54361 77.4038 4.39861 77.5938 4.25861 77.6838C4.11861 77.7838 3.94861 77.8338 3.74861 77.8338ZM7.88861 77.6688C7.59861 77.6688 7.38861 77.5988 7.25861 77.4588C7.12861 77.3188 7.01861 77.0638 6.92861 76.6938C6.90861 76.5938 6.87361 76.5038 6.82361 76.4238C6.78361 76.3438 6.70361 76.2338 6.58361 76.0938C6.47361 75.9538 6.30361 75.7588 6.07361 75.5088L6.19361 75.2988C6.55361 75.4888 6.87361 75.6438 7.15361 75.7638C7.43361 75.8838 7.66861 75.9438 7.85861 75.9438C8.09861 75.9438 8.28861 75.9038 8.42861 75.8238C8.56861 75.7438 8.70361 75.6138 8.83361 75.4338C9.00361 75.2138 9.15361 74.9338 9.28361 74.5938C9.42361 74.2438 9.53861 73.8588 9.62861 73.4388C9.72861 73.0188 9.80361 72.5988 9.85361 72.1788C9.90361 71.7488 9.92861 71.3488 9.92861 70.9788C9.92861 70.5888 9.85861 70.2938 9.71861 70.0938C9.57861 69.8838 9.34361 69.7788 9.01361 69.7788C8.80361 69.7788 8.53861 69.8238 8.21861 69.9138C7.90861 69.9938 7.57361 70.0988 7.21361 70.2288C6.86361 70.3488 6.52361 70.4788 6.19361 70.6188C5.87361 70.7588 5.59361 70.8838 5.35361 70.9938C5.11361 71.0938 4.91361 71.1838 4.75361 71.2638C4.59361 71.3338 4.41361 71.3688 4.21361 71.3688C4.07361 71.3688 3.91361 71.2988 3.73361 71.1588C3.56361 71.0188 3.40861 70.8438 3.26861 70.6338C3.13861 70.4138 3.05361 70.1988 3.01361 69.9888C2.97361 69.7888 2.97361 69.6088 3.01361 69.4488C3.06361 69.2888 3.11861 69.1288 3.17861 68.9688L3.37361 68.9238C3.51361 69.1638 3.63861 69.3588 3.74861 69.5088C3.85861 69.6488 4.00861 69.7188 4.19861 69.7188C4.34861 69.7188 4.54361 69.6988 4.78361 69.6588C5.02361 69.6088 5.29861 69.5538 5.60861 69.4938C5.91861 69.4338 6.24361 69.3688 6.58361 69.2988C6.93361 69.2288 7.28361 69.1638 7.63361 69.1038C7.87361 69.0538 8.15861 69.0088 8.48861 68.9688C8.82861 68.9188 9.11861 68.8938 9.35861 68.8938C9.93861 68.8938 10.4036 69.0938 10.7536 69.4938C11.1036 69.8938 11.2786 70.5888 11.2786 71.5788C11.2786 72.2088 11.2236 72.8488 11.1136 73.4988C11.0136 74.1488 10.8486 74.7638 10.6186 75.3438C10.3986 75.9138 10.1136 76.3988 9.76361 76.7988C9.54361 77.0588 9.26361 77.2688 8.92361 77.4288C8.59361 77.5888 8.24861 77.6688 7.88861 77.6688ZM14.8036 74.3838C14.6336 74.3838 14.5036 74.3438 14.4136 74.2638C14.3236 74.1738 14.2336 74.0788 14.1436 73.9788C14.0636 73.8688 13.9436 73.7838 13.7836 73.7238C13.6836 73.6838 13.5386 73.6488 13.3486 73.6188C13.1686 73.5888 12.9736 73.5638 12.7636 73.5438C12.5636 73.5238 12.3836 73.5138 12.2236 73.5138L12.1636 73.2438C12.3736 73.1838 12.5636 73.1288 12.7336 73.0788C12.9036 73.0288 13.0586 72.9838 13.1986 72.9438C13.3486 72.8938 13.4786 72.8488 13.5886 72.8088C13.7586 72.7388 13.8786 72.6538 13.9486 72.5538C14.0186 72.4538 14.0486 72.3088 14.0386 72.1188C14.0386 71.8988 14.0036 71.6288 13.9336 71.3088C13.8636 70.9788 13.7286 70.6638 13.5286 70.3638C13.3386 70.0438 13.1086 69.7738 12.8386 69.5538C12.5786 69.3238 12.2586 69.1438 11.8786 69.0138L11.9836 68.7588C12.4436 68.8188 12.8986 68.9338 13.3486 69.1038C13.8086 69.2738 14.2186 69.5338 14.5786 69.8838C14.9886 70.2638 15.2836 70.7088 15.4636 71.2188C15.6536 71.7288 15.7486 72.2688 15.7486 72.8388C15.7486 73.2888 15.6686 73.6588 15.5086 73.9488C15.3586 74.2288 15.1236 74.3738 14.8036 74.3838ZM6.85361 94.7588C7.42361 94.6788 7.96861 94.5738 8.48861 94.4438C9.00861 94.3238 9.43361 94.1988 9.76361 94.0688C10.6036 93.7688 11.2536 93.4388 11.7136 93.0788C12.1736 92.7188 12.4986 92.3438 12.6886 91.9538C12.8786 91.5538 12.9736 91.1538 12.9736 90.7538C12.9736 90.4038 12.8986 90.0988 12.7486 89.8388C12.5986 89.5788 12.3786 89.3738 12.0886 89.2238C11.8086 89.0738 11.4586 88.9988 11.0386 88.9988C10.6386 88.9988 10.2336 89.0888 9.82361 89.2688C9.42361 89.4488 9.03361 89.6838 8.65361 89.9738C8.28361 90.2638 7.94361 90.5688 7.63361 90.8888C7.33361 91.1988 7.08361 91.4888 6.88361 91.7588C6.76361 91.9288 6.65361 92.1088 6.55361 92.2988C6.46361 92.4788 6.36361 92.6388 6.25361 92.7788C6.14361 92.9088 6.00861 92.9738 5.84861 92.9738C5.71861 92.9738 5.58361 92.9338 5.44361 92.8538C5.30361 92.7738 5.16361 92.6488 5.02361 92.4788C4.89361 92.3388 4.79361 92.1938 4.72361 92.0438C4.66361 91.8938 4.63361 91.7288 4.63361 91.5488C4.63361 91.4088 4.64861 91.2488 4.67861 91.0688C4.71861 90.8888 4.75861 90.6538 4.79861 90.3638C4.82861 90.1938 4.85861 89.9738 4.88861 89.7038C4.92861 89.4338 4.96861 89.1488 5.00861 88.8488C5.05861 88.5488 5.09861 88.2638 5.12861 87.9938C5.16861 87.7138 5.20361 87.4788 5.23361 87.2888C5.27361 87.0688 5.29861 86.8488 5.30861 86.6288C5.32861 86.3988 5.34361 86.2038 5.35361 86.0438C5.37361 85.8438 5.42861 85.6738 5.51861 85.5338C5.60861 85.3938 5.78361 85.3038 6.04361 85.2638C6.25361 85.2238 6.51361 85.1638 6.82361 85.0838C7.13361 85.0038 7.43361 84.9138 7.72361 84.8138C8.01361 84.7138 8.23861 84.6238 8.39861 84.5438C8.47861 84.4938 8.52361 84.4388 8.53361 84.3788C8.54361 84.3088 8.51361 84.2238 8.44361 84.1238C8.25361 83.8238 7.98861 83.5888 7.64861 83.4188C7.31861 83.2488 6.93361 83.0888 6.49361 82.9388L6.55361 82.7138C7.27361 82.6638 7.86361 82.6888 8.32361 82.7888C8.79361 82.8888 9.17361 83.0288 9.46361 83.2088C9.88361 83.4388 10.2036 83.7188 10.4236 84.0488C10.6536 84.3688 10.7686 84.7488 10.7686 85.1888C10.7686 85.3988 10.7136 85.5638 10.6036 85.6838C10.5036 85.8038 10.3286 85.8638 10.0786 85.8638C9.91861 85.8638 9.76361 85.8488 9.61361 85.8188C9.47361 85.7888 9.32361 85.7538 9.16361 85.7138C9.01361 85.6738 8.82861 85.6488 8.60861 85.6388C8.37861 85.6188 8.13861 85.6188 7.88861 85.6388C7.64861 85.6488 7.42361 85.6638 7.21361 85.6838C7.01361 85.7038 6.85361 85.7288 6.73361 85.7588C6.60361 85.7688 6.51361 85.8038 6.46361 85.8638C6.42361 85.9238 6.40361 85.9838 6.40361 86.0438C6.40361 86.1538 6.42361 86.2988 6.46361 86.4788C6.50361 86.6488 6.53361 86.8388 6.55361 87.0488C6.56361 87.2588 6.55861 87.4538 6.53861 87.6338C6.51861 87.8138 6.49361 88.0238 6.46361 88.2638C6.40361 88.6738 6.34861 89.0338 6.29861 89.3438C6.25861 89.6538 6.24361 89.9188 6.25361 90.1388C6.25361 90.2988 6.31861 90.3388 6.44861 90.2588C6.69861 90.0788 6.99361 89.8788 7.33361 89.6588C7.67361 89.4288 8.04861 89.2138 8.45861 89.0138C8.86861 88.8138 9.30361 88.6488 9.76361 88.5188C10.2336 88.3888 10.7186 88.3238 11.2186 88.3238C11.9886 88.3238 12.6286 88.4638 13.1386 88.7438C13.6486 89.0238 14.0336 89.3938 14.2936 89.8538C14.5536 90.3138 14.6836 90.8088 14.6836 91.3388C14.6836 91.9088 14.5286 92.4188 14.2186 92.8688C13.9186 93.3088 13.5036 93.6838 12.9736 93.9938C12.4536 94.2938 11.8586 94.5338 11.1886 94.7138C10.5186 94.8938 9.81361 95.0088 9.07361 95.0588C8.34361 95.1188 7.61361 95.1138 6.88361 95.0438L6.85361 94.7588ZM5.42861 98.6938C6.11861 98.8138 6.66361 98.9838 7.06361 99.2038C7.47361 99.4238 7.75861 99.6688 7.91861 99.9388C8.07861 100.199 8.14361 100.449 8.11361 100.689C8.09361 100.929 8.00361 101.129 7.84361 101.289C7.68361 101.449 7.48361 101.539 7.24361 101.559C7.00361 101.569 6.75361 101.479 6.49361 101.289C6.44361 100.989 6.35361 100.689 6.22361 100.389C6.10361 100.089 5.95861 99.7988 5.78861 99.5188C5.62861 99.2388 5.46861 98.9938 5.30861 98.7838L5.42861 98.6938ZM2.23361 101.589H13.3036L14.3536 100.299C14.3536 100.299 14.4186 100.349 14.5486 100.449C14.6786 100.539 14.8436 100.659 15.0436 100.809C15.2436 100.959 15.4486 101.119 15.6586 101.289C15.8786 101.459 16.0836 101.619 16.2736 101.769C16.2536 101.849 16.2036 101.909 16.1236 101.949C16.0536 101.989 15.9636 102.009 15.8536 102.009H2.35361L2.23361 101.589ZM7.99361 101.589H10.6336C10.4036 101.869 10.1436 102.164 9.85361 102.474C9.56361 102.784 9.26861 103.079 8.96861 103.359C8.66861 103.629 8.38861 103.859 8.12861 104.049H7.87361C7.89361 103.849 7.90861 103.604 7.91861 103.314C7.92861 103.024 7.93861 102.724 7.94861 102.414C7.96861 102.104 7.98361 101.829 7.99361 101.589ZM11.1436 98.6638L13.5886 99.2488C13.5586 99.3388 13.4986 99.4138 13.4086 99.4738C13.3186 99.5238 13.1886 99.5488 13.0186 99.5488C12.7986 99.7788 12.5336 100.029 12.2236 100.299C11.9236 100.569 11.6086 100.839 11.2786 101.109C10.9486 101.379 10.6186 101.624 10.2886 101.844H10.0486C10.1886 101.544 10.3286 101.209 10.4686 100.839C10.6086 100.459 10.7386 100.079 10.8586 99.6988C10.9786 99.3188 11.0736 98.9738 11.1436 98.6638ZM4.61861 103.794V103.029L6.55361 103.794H12.9436V104.214H6.43361V112.059C6.43361 112.119 6.35861 112.199 6.20861 112.299C6.05861 112.399 5.86861 112.484 5.63861 112.554C5.40861 112.634 5.16361 112.674 4.90361 112.674H4.61861V103.794ZM12.0586 103.794H11.9086L12.7636 102.849L14.5036 104.199C14.4536 104.259 14.3786 104.319 14.2786 104.379C14.1786 104.439 14.0486 104.484 13.8886 104.514V112.089C13.8886 112.129 13.8036 112.189 13.6336 112.269C13.4636 112.349 13.2586 112.419 13.0186 112.479C12.7886 112.549 12.5686 112.584 12.3586 112.584H12.0586V103.794ZM5.51861 111.129H13.0186V111.549H5.51861V111.129ZM5.51861 108.609H13.0186V109.044H5.51861V108.609ZM5.51861 106.179H13.0186V106.614H5.51861V106.179ZM14.7736 119.594C14.5636 119.594 14.3836 119.544 14.2336 119.444C14.0836 119.344 13.9536 119.179 13.8436 118.949C13.7136 118.669 13.5686 118.369 13.4086 118.049C13.2586 117.719 13.0536 117.379 12.7936 117.029C12.5436 116.679 12.2036 116.334 11.7736 115.994L11.9086 115.799C12.8686 115.969 13.6236 116.214 14.1736 116.534C14.7336 116.854 15.1486 117.224 15.4186 117.644C15.5286 117.814 15.6036 117.979 15.6436 118.139C15.6836 118.299 15.7036 118.459 15.7036 118.619C15.7036 118.919 15.6186 119.159 15.4486 119.339C15.2786 119.509 15.0536 119.594 14.7736 119.594ZM12.7786 135.454H12.6286L13.4236 134.599L15.0886 135.859C15.0486 135.909 14.9836 135.959 14.8936 136.009C14.8036 136.059 14.6936 136.099 14.5636 136.129V138.484C14.5636 138.524 14.4786 138.584 14.3086 138.664C14.1386 138.734 13.9386 138.799 13.7086 138.859C13.4886 138.919 13.2786 138.949 13.0786 138.949H12.7786V135.454ZM12.8986 139.639H12.7486L13.5436 138.739L15.2686 140.059C15.2286 140.109 15.1536 140.164 15.0436 140.224C14.9436 140.284 14.8186 140.329 14.6686 140.359V144.844C14.6686 145.204 14.6136 145.514 14.5036 145.774C14.4036 146.034 14.1936 146.239 13.8736 146.389C13.5536 146.549 13.0686 146.659 12.4186 146.719C12.3986 146.459 12.3636 146.234 12.3136 146.044C12.2636 145.864 12.1836 145.719 12.0736 145.609C11.9636 145.489 11.8186 145.389 11.6386 145.309C11.4586 145.219 11.1886 145.144 10.8286 145.084V144.889C10.8286 144.889 10.9036 144.894 11.0536 144.904C11.2036 144.914 11.3786 144.924 11.5786 144.934C11.7886 144.944 11.9886 144.954 12.1786 144.964C12.3786 144.974 12.5186 144.979 12.5986 144.979C12.7186 144.979 12.7986 144.954 12.8386 144.904C12.8786 144.854 12.8986 144.779 12.8986 144.679V139.639ZM5.14361 135.454H13.8136V135.889H5.14361V135.454ZM5.14361 137.779H13.9036V138.214H5.14361V137.779ZM7.01861 141.424H13.7536V141.859H7.01861V141.424ZM7.01861 143.269H13.7536V143.689H7.01861V143.269ZM6.07361 139.639V138.919L7.87361 139.639H13.6486V140.074H7.78361V146.119C7.78361 146.179 7.70861 146.249 7.55861 146.329C7.41861 146.419 7.23861 146.499 7.01861 146.569C6.80861 146.639 6.57861 146.674 6.32861 146.674H6.07361V139.639ZM2.95361 133.654H13.1536L14.0836 132.484C14.0836 132.484 14.1436 132.529 14.2636 132.619C14.3836 132.699 14.5286 132.809 14.6986 132.949C14.8786 133.089 15.0686 133.239 15.2686 133.399C15.4686 133.559 15.6486 133.709 15.8086 133.849C15.7686 134.009 15.6286 134.089 15.3886 134.089H3.07361L2.95361 133.654ZM4.36361 135.454V135.304V134.599L6.37361 135.454H6.10361V137.839C6.10361 138.339 6.07861 138.884 6.02861 139.474C5.98861 140.064 5.90361 140.674 5.77361 141.304C5.64361 141.934 5.43861 142.564 5.15861 143.194C4.88861 143.814 4.52361 144.409 4.06361 144.979C3.60361 145.549 3.02361 146.064 2.32361 146.524L2.18861 146.419C2.66861 145.759 3.05361 145.069 3.34361 144.349C3.63361 143.629 3.84861 142.899 3.98861 142.159C4.13861 141.409 4.23861 140.669 4.28861 139.939C4.33861 139.209 4.36361 138.509 4.36361 137.839V135.454ZM7.64861 163.074C6.81861 163.074 6.14361 162.904 5.62361 162.564C5.10361 162.224 4.84361 161.729 4.84361 161.079C4.84361 160.659 4.99361 160.299 5.29361 159.999C5.59361 159.699 5.99861 159.469 6.50861 159.309C7.02861 159.139 7.61361 159.054 8.26361 159.054C8.95361 159.054 9.57861 159.114 10.1386 159.234C10.7086 159.344 11.2086 159.484 11.6386 159.654C12.0686 159.814 12.4336 159.984 12.7336 160.164C13.0336 160.334 13.2586 160.479 13.4086 160.599C13.6486 160.779 13.8386 160.974 13.9786 161.184C14.1286 161.384 14.2036 161.609 14.2036 161.859C14.2036 162.109 14.1436 162.294 14.0236 162.414C13.9036 162.544 13.7536 162.609 13.5736 162.609C13.3936 162.609 13.2436 162.569 13.1236 162.489C13.0136 162.409 12.8686 162.294 12.6886 162.144C12.2386 161.714 11.7586 161.339 11.2486 161.019C10.7486 160.699 10.1936 160.449 9.58361 160.269C8.98361 160.079 8.30361 159.984 7.54361 159.984C6.95361 159.984 6.47361 160.084 6.10361 160.284C5.73361 160.474 5.54861 160.709 5.54861 160.989C5.54861 161.239 5.66861 161.439 5.90861 161.589C6.15861 161.729 6.47361 161.799 6.85361 161.799C7.33361 161.799 7.72861 161.754 8.03861 161.664C8.34861 161.564 8.57861 161.394 8.72861 161.154C8.88861 160.914 8.96861 160.569 8.96861 160.119C8.96861 159.729 8.95861 159.279 8.93861 158.769C8.92861 158.249 8.91361 157.704 8.89361 157.134C8.87361 156.554 8.86361 155.994 8.86361 155.454C8.86361 155.134 8.86361 154.799 8.86361 154.449C8.86361 154.099 8.86861 153.764 8.87861 153.444C8.88861 153.114 8.89361 152.824 8.89361 152.574C8.89361 152.324 8.89361 152.139 8.89361 152.019C8.89361 151.869 8.86861 151.759 8.81861 151.689C8.76861 151.609 8.68361 151.539 8.56361 151.479C8.41361 151.409 8.25361 151.354 8.08361 151.314C7.92361 151.264 7.72861 151.214 7.49861 151.164L7.46861 150.954C7.63861 150.844 7.82861 150.744 8.03861 150.654C8.25861 150.564 8.50361 150.519 8.77361 150.519C9.08361 150.519 9.38361 150.569 9.67361 150.669C9.97361 150.759 10.2186 150.879 10.4086 151.029C10.5986 151.169 10.6936 151.334 10.6936 151.524C10.6936 151.664 10.6536 151.794 10.5736 151.914C10.4936 152.034 10.4336 152.184 10.3936 152.364C10.3336 152.594 10.2736 152.919 10.2136 153.339C10.1636 153.759 10.1236 154.234 10.0936 154.764C10.0636 155.294 10.0486 155.844 10.0486 156.414C10.0486 157.104 10.0736 157.709 10.1236 158.229C10.1836 158.749 10.2386 159.234 10.2886 159.684C10.3486 160.134 10.3786 160.604 10.3786 161.094C10.3786 161.694 10.1336 162.174 9.64361 162.534C9.16361 162.894 8.49861 163.074 7.64861 163.074ZM7.27361 157.464C6.79361 157.464 6.37361 157.394 6.01361 157.254C5.65361 157.114 5.38861 156.919 5.21861 156.669C5.05861 156.419 5.03361 156.134 5.14361 155.814C5.25361 155.484 5.53361 155.144 5.98361 154.794L6.19361 154.929C5.98361 155.249 5.88361 155.509 5.89361 155.709C5.91361 155.899 6.02861 156.034 6.23861 156.114C6.45861 156.194 6.76861 156.234 7.16861 156.234C7.70861 156.234 8.22861 156.209 8.72861 156.159C9.23861 156.109 9.72861 156.039 10.1986 155.949C10.6786 155.849 11.1286 155.734 11.5486 155.604C11.8586 155.504 12.0786 155.424 12.2086 155.364C12.3386 155.294 12.4336 155.259 12.4936 155.259C12.7836 155.259 13.0486 155.309 13.2886 155.409C13.5286 155.499 13.6486 155.669 13.6486 155.919C13.6486 156.119 13.5886 156.274 13.4686 156.384C13.3586 156.494 13.2186 156.584 13.0486 156.654C12.8686 156.734 12.5786 156.824 12.1786 156.924C11.7886 157.014 11.3236 157.104 10.7836 157.194C10.2536 157.274 9.68861 157.339 9.08861 157.389C8.48861 157.439 7.88361 157.464 7.27361 157.464ZM7.13861 154.584C6.66861 154.584 6.24361 154.529 5.86361 154.419C5.48361 154.309 5.14361 154.114 4.84361 153.834C4.54361 153.554 4.27361 153.154 4.03361 152.634L4.21361 152.514C4.46361 152.674 4.70361 152.819 4.93361 152.949C5.16361 153.069 5.41861 153.164 5.69861 153.234C5.97861 153.304 6.31861 153.339 6.71861 153.339C7.22861 153.339 7.73861 153.314 8.24861 153.264C8.75861 153.214 9.23861 153.149 9.68861 153.069C10.1486 152.989 10.5586 152.904 10.9186 152.814C11.2786 152.724 11.5636 152.644 11.7736 152.574C12.0736 152.474 12.2886 152.394 12.4186 152.334C12.5486 152.264 12.6436 152.229 12.7036 152.229C12.8336 152.229 12.9936 152.254 13.1836 152.304C13.3836 152.344 13.5536 152.414 13.6936 152.514C13.8436 152.614 13.9186 152.754 13.9186 152.934C13.9186 153.154 13.8586 153.314 13.7386 153.414C13.6286 153.514 13.4636 153.604 13.2436 153.684C13.0336 153.764 12.7336 153.859 12.3436 153.969C11.9536 154.069 11.4886 154.164 10.9486 154.254C10.4086 154.344 9.81361 154.424 9.16361 154.494C8.52361 154.554 7.84861 154.584 7.13861 154.584ZM13.8586 174.164C13.7486 174.154 13.6436 174.099 13.5436 173.999C13.4436 173.899 13.3336 173.764 13.2136 173.594C13.0736 173.394 12.9036 173.164 12.7036 172.904C12.5136 172.634 12.2536 172.349 11.9236 172.049L12.0736 171.854C12.4636 171.974 12.8236 172.109 13.1536 172.259C13.4936 172.399 13.7736 172.574 13.9936 172.784C14.1436 172.924 14.2486 173.064 14.3086 173.204C14.3686 173.344 14.3986 173.484 14.3986 173.624C14.3986 173.784 14.3486 173.914 14.2486 174.014C14.1486 174.114 14.0186 174.164 13.8586 174.164ZM12.1636 179.669C11.7936 179.669 11.4286 179.649 11.0686 179.609C10.7086 179.569 10.3636 179.494 10.0336 179.384C9.70361 179.274 9.38861 179.124 9.08861 178.934C8.58861 178.604 8.18861 178.169 7.88861 177.629C7.59861 177.079 7.45361 176.334 7.45361 175.394C7.45361 174.684 7.55361 174.014 7.75361 173.384C7.95361 172.744 8.24861 172.164 8.63861 171.644C9.02861 171.114 9.49861 170.659 10.0486 170.279C10.0986 170.229 10.1186 170.189 10.1086 170.159C10.1086 170.129 10.0686 170.124 9.98861 170.144C9.41861 170.274 8.83861 170.439 8.24861 170.639C7.65861 170.829 7.11361 171.024 6.61361 171.224C6.11361 171.424 5.71861 171.619 5.42861 171.809C5.27861 171.889 5.12361 171.994 4.96361 172.124C4.80361 172.254 4.61861 172.319 4.40861 172.319C4.24861 172.319 4.06861 172.269 3.86861 172.169C3.67861 172.059 3.49361 171.919 3.31361 171.749C3.14361 171.579 2.99861 171.394 2.87861 171.194C2.76861 170.994 2.70861 170.804 2.69861 170.624C2.68861 170.444 2.69861 170.274 2.72861 170.114C2.76861 169.954 2.79861 169.814 2.81861 169.694L2.99861 169.634C3.12861 169.824 3.26861 169.999 3.41861 170.159C3.57861 170.309 3.75861 170.384 3.95861 170.384C4.16861 170.384 4.45361 170.354 4.81361 170.294C5.17361 170.224 5.59361 170.134 6.07361 170.024C6.55361 169.914 7.07861 169.789 7.64861 169.649C8.21861 169.499 8.82361 169.349 9.46361 169.199C9.96361 169.059 10.4536 168.934 10.9336 168.824C11.4136 168.714 11.8336 168.624 12.1936 168.554C12.5536 168.474 12.8036 168.434 12.9436 168.434C13.1636 168.434 13.3786 168.454 13.5886 168.494C13.7986 168.524 13.9936 168.584 14.1736 168.674C14.3736 168.764 14.5386 168.879 14.6686 169.019C14.7986 169.149 14.8636 169.319 14.8636 169.529C14.8636 169.709 14.7936 169.864 14.6536 169.994C14.5136 170.124 14.3286 170.189 14.0986 170.189C13.8986 170.189 13.6886 170.179 13.4686 170.159C13.2486 170.139 13.0336 170.129 12.8236 170.129C12.4936 170.129 12.1186 170.164 11.6986 170.234C11.2886 170.294 10.8936 170.469 10.5136 170.759C10.3836 170.849 10.2186 170.999 10.0186 171.209C9.82861 171.409 9.63861 171.674 9.44861 172.004C9.25861 172.334 9.09861 172.734 8.96861 173.204C8.83861 173.674 8.77361 174.224 8.77361 174.854C8.77361 175.434 8.84361 175.894 8.98361 176.234C9.12361 176.564 9.28861 176.819 9.47861 176.999C9.67861 177.179 9.86361 177.319 10.0336 177.419C10.3036 177.559 10.5986 177.654 10.9186 177.704C11.2386 177.754 11.5336 177.784 11.8036 177.794C12.0836 177.794 12.2936 177.794 12.4336 177.794C12.5936 177.794 12.7586 177.844 12.9286 177.944C13.1086 178.034 13.2536 178.154 13.3636 178.304C13.4836 178.454 13.5436 178.624 13.5436 178.814C13.5436 179.044 13.4736 179.224 13.3336 179.354C13.1936 179.474 13.0186 179.554 12.8086 179.594C12.5986 179.644 12.3836 179.669 12.1636 179.669ZM15.2686 173.054C15.1386 173.054 15.0186 172.999 14.9086 172.889C14.8086 172.779 14.6936 172.634 14.5636 172.454C14.4236 172.274 14.2636 172.074 14.0836 171.854C13.9036 171.634 13.6236 171.379 13.2436 171.089L13.3636 170.894C13.7736 170.974 14.1386 171.074 14.4586 171.194C14.7786 171.314 15.0386 171.454 15.2386 171.614C15.4286 171.744 15.5586 171.889 15.6286 172.049C15.7086 172.199 15.7486 172.359 15.7486 172.529C15.7486 172.689 15.7086 172.819 15.6286 172.919C15.5486 173.009 15.4286 173.054 15.2686 173.054ZM2.42861 190.924H13.4836L14.4136 189.784C14.4136 189.784 14.4736 189.829 14.5936 189.919C14.7136 189.999 14.8586 190.109 15.0286 190.249C15.2086 190.379 15.3936 190.524 15.5836 190.684C15.7736 190.834 15.9536 190.979 16.1236 191.119C16.0836 191.279 15.9436 191.359 15.7036 191.359H2.56361L2.42861 190.924ZM4.97861 188.479H11.1286L12.0286 187.384C12.0286 187.384 12.1236 187.454 12.3136 187.594C12.5036 187.724 12.7286 187.894 12.9886 188.104C13.2486 188.304 13.4836 188.494 13.6936 188.674C13.6536 188.834 13.5136 188.914 13.2736 188.914H5.09861L4.97861 188.479ZM4.46861 185.989H14.8486V186.409H4.46861V185.989ZM8.32361 183.664L10.6786 183.844C10.6686 183.944 10.6236 184.034 10.5436 184.114C10.4736 184.184 10.3386 184.234 10.1386 184.264V186.184H8.32361V183.664ZM4.28861 184.909H4.48361C4.75361 185.589 4.88361 186.199 4.87361 186.739C4.86361 187.279 4.76861 187.734 4.58861 188.104C4.40861 188.474 4.18361 188.749 3.91361 188.929C3.65361 189.109 3.36361 189.174 3.04361 189.124C2.73361 189.074 2.51861 188.909 2.39861 188.629C2.29861 188.369 2.30861 188.129 2.42861 187.909C2.54861 187.689 2.72361 187.514 2.95361 187.384C3.18361 187.264 3.39861 187.084 3.59861 186.844C3.79861 186.594 3.96361 186.304 4.09361 185.974C4.23361 185.644 4.29861 185.289 4.28861 184.909ZM13.9936 185.989H13.8286L14.7736 185.044L16.4086 186.589C16.3386 186.659 16.2586 186.704 16.1686 186.724C16.0886 186.744 15.9686 186.759 15.8086 186.769C15.6086 186.939 15.3686 187.119 15.0886 187.309C14.8086 187.489 14.5186 187.669 14.2186 187.849C13.9186 188.029 13.6386 188.184 13.3786 188.314L13.2586 188.209C13.3486 188.009 13.4386 187.774 13.5286 187.504C13.6186 187.224 13.7036 186.949 13.7836 186.679C13.8736 186.409 13.9436 186.179 13.9936 185.989ZM6.38861 191.029H8.30861C8.24861 191.639 8.16861 192.224 8.06861 192.784C7.97861 193.334 7.81861 193.854 7.58861 194.344C7.35861 194.824 7.02861 195.274 6.59861 195.694C6.17861 196.114 5.61861 196.489 4.91861 196.819C4.22861 197.159 3.35361 197.454 2.29361 197.704L2.17361 197.509C3.12361 197.079 3.87361 196.614 4.42361 196.114C4.98361 195.614 5.39861 195.094 5.66861 194.554C5.93861 194.014 6.11861 193.449 6.20861 192.859C6.29861 192.269 6.35861 191.659 6.38861 191.029ZM9.82361 191.059H11.5786C11.5786 191.139 11.5786 191.229 11.5786 191.329C11.5786 191.419 11.5786 191.499 11.5786 191.569V195.424C11.5786 195.544 11.6086 195.624 11.6686 195.664C11.7286 195.704 11.8736 195.724 12.1036 195.724H13.4086C13.6486 195.724 13.8636 195.724 14.0536 195.724C14.2436 195.724 14.3886 195.719 14.4886 195.709C14.5986 195.699 14.6786 195.679 14.7286 195.649C14.7786 195.619 14.8286 195.569 14.8786 195.499C14.9586 195.379 15.0586 195.159 15.1786 194.839C15.2986 194.509 15.4286 194.129 15.5686 193.699H15.7186L15.7786 195.574C16.0186 195.674 16.1736 195.779 16.2436 195.889C16.3236 195.999 16.3636 196.139 16.3636 196.309C16.3636 196.549 16.2736 196.749 16.0936 196.909C15.9236 197.069 15.6086 197.184 15.1486 197.254C14.6986 197.324 14.0536 197.359 13.2136 197.359H11.6986C11.1886 197.359 10.7986 197.314 10.5286 197.224C10.2586 197.144 10.0736 196.994 9.97361 196.774C9.87361 196.554 9.82361 196.249 9.82361 195.859V191.059ZM4.88861 206.799H11.2336L12.1336 205.689C12.1336 205.689 12.1886 205.734 12.2986 205.824C12.4086 205.904 12.5486 206.009 12.7186 206.139C12.8986 206.269 13.0786 206.409 13.2586 206.559C13.4486 206.709 13.6236 206.854 13.7836 206.994C13.7436 207.154 13.6036 207.234 13.3636 207.234H5.00861L4.88861 206.799ZM4.43861 210.069H11.9986L12.9586 208.884C12.9586 208.884 13.0136 208.929 13.1236 209.019C13.2436 209.109 13.3936 209.224 13.5736 209.364C13.7536 209.504 13.9436 209.654 14.1436 209.814C14.3436 209.964 14.5286 210.109 14.6986 210.249C14.6586 210.409 14.5186 210.489 14.2786 210.489H4.55861L4.43861 210.069ZM2.72861 213.759H13.3036L14.3086 212.469C14.3086 212.469 14.3686 212.519 14.4886 212.619C14.6186 212.709 14.7736 212.829 14.9536 212.979C15.1436 213.129 15.3436 213.289 15.5536 213.459C15.7636 213.629 15.9536 213.789 16.1236 213.939C16.1036 214.019 16.0536 214.079 15.9736 214.119C15.9036 214.159 15.8136 214.179 15.7036 214.179H2.84861L2.72861 213.759ZM8.29361 206.799H10.1386V213.999H8.29361V206.799ZM9.86861 201.864C9.49861 202.454 9.02861 203.044 8.45861 203.634C7.89861 204.224 7.27361 204.789 6.58361 205.329C5.90361 205.869 5.18361 206.364 4.42361 206.814C3.67361 207.254 2.92861 207.629 2.18861 207.939L2.08361 207.774C2.72361 207.344 3.36361 206.839 4.00361 206.259C4.65361 205.669 5.25861 205.044 5.81861 204.384C6.37861 203.724 6.85861 203.069 7.25861 202.419C7.65861 201.769 7.93861 201.169 8.09861 200.619L10.8586 201.339C10.8386 201.439 10.7686 201.514 10.6486 201.564C10.5386 201.614 10.3586 201.654 10.1086 201.684C10.4586 202.144 10.8786 202.569 11.3686 202.959C11.8686 203.339 12.4086 203.679 12.9886 203.979C13.5686 204.279 14.1636 204.544 14.7736 204.774C15.3836 205.004 15.9736 205.209 16.5436 205.389L16.5136 205.614C16.2536 205.684 16.0186 205.814 15.8086 206.004C15.6086 206.184 15.4436 206.394 15.3136 206.634C15.1836 206.874 15.0986 207.109 15.0586 207.339C14.3186 206.939 13.6086 206.469 12.9286 205.929C12.2586 205.389 11.6586 204.784 11.1286 204.114C10.5986 203.434 10.1786 202.684 9.86861 201.864ZM10.5136 223.364H14.2636V223.799H10.5136V223.364ZM7.13861 220.559H13.8886L14.8036 219.299C14.8036 219.299 14.8586 219.349 14.9686 219.449C15.0886 219.539 15.2336 219.659 15.4036 219.809C15.5836 219.959 15.7686 220.119 15.9586 220.289C16.1486 220.449 16.3186 220.604 16.4686 220.754C16.4386 220.914 16.3036 220.994 16.0636 220.994H7.25861L7.13861 220.559ZM10.3336 217.754L12.6136 217.919C12.6036 218.019 12.5586 218.109 12.4786 218.189C12.4086 218.259 12.2686 218.314 12.0586 218.354V220.769H10.3336V217.754ZM5.99861 218.714H5.81861L6.74861 217.814L8.48861 219.434C8.42861 219.504 8.34361 219.554 8.23361 219.584C8.12361 219.614 7.97861 219.629 7.79861 219.629C7.61861 219.939 7.39361 220.299 7.12361 220.709C6.86361 221.119 6.58361 221.524 6.28361 221.924C5.99361 222.324 5.71361 222.684 5.44361 223.004C5.99361 223.314 6.43861 223.679 6.77861 224.099C7.12861 224.509 7.38361 224.939 7.54361 225.389C7.70361 225.829 7.78361 226.249 7.78361 226.649C7.78361 227.129 7.71361 227.544 7.57361 227.894C7.43361 228.244 7.19361 228.519 6.85361 228.719C6.52361 228.909 6.06861 229.009 5.48861 229.019C5.48861 228.849 5.47861 228.669 5.45861 228.479C5.44861 228.289 5.42861 228.114 5.39861 227.954C5.36861 227.794 5.32861 227.679 5.27861 227.609C5.22861 227.519 5.14361 227.444 5.02361 227.384C4.90361 227.314 4.75861 227.259 4.58861 227.219V227.024C4.71861 227.024 4.87361 227.024 5.05361 227.024C5.24361 227.024 5.37861 227.024 5.45861 227.024C5.60861 227.024 5.72361 226.999 5.80361 226.949C5.90361 226.889 5.98361 226.794 6.04361 226.664C6.10361 226.534 6.13361 226.359 6.13361 226.139C6.13361 225.629 6.05361 225.104 5.89361 224.564C5.73361 224.024 5.45361 223.514 5.05361 223.034C5.14361 222.764 5.23361 222.444 5.32361 222.074C5.41361 221.694 5.50361 221.304 5.59361 220.904C5.68361 220.494 5.76361 220.099 5.83361 219.719C5.90361 219.339 5.95861 219.004 5.99861 218.714ZM2.86361 218.714V218.009L4.72361 218.714H4.52861V231.179C4.52861 231.219 4.47361 231.284 4.36361 231.374C4.25361 231.464 4.09861 231.544 3.89861 231.614C3.69861 231.694 3.45361 231.734 3.16361 231.734H2.86361V218.714ZM3.64361 218.714H6.91361V219.149H3.64361V218.714ZM13.6336 223.364H13.4686L14.3836 222.464L15.9436 223.814C15.8936 223.874 15.8186 223.929 15.7186 223.979C15.6186 224.019 15.4836 224.049 15.3136 224.069C15.2436 225.449 15.1536 226.609 15.0436 227.549C14.9336 228.489 14.7836 229.239 14.5936 229.799C14.4136 230.349 14.1786 230.749 13.8886 230.999C13.6386 231.209 13.3486 231.364 13.0186 231.464C12.6886 231.574 12.3036 231.629 11.8636 231.629C11.8636 231.369 11.8436 231.139 11.8036 230.939C11.7636 230.739 11.6836 230.579 11.5636 230.459C11.4436 230.329 11.2586 230.209 11.0086 230.099C10.7586 229.989 10.4686 229.904 10.1386 229.844V229.649C10.3586 229.659 10.5986 229.674 10.8586 229.694C11.1186 229.714 11.3636 229.729 11.5936 229.739C11.8336 229.749 12.0036 229.754 12.1036 229.754C12.2436 229.754 12.3536 229.744 12.4336 229.724C12.5136 229.704 12.5936 229.664 12.6736 229.604C12.8436 229.454 12.9886 229.119 13.1086 228.599C13.2286 228.069 13.3336 227.364 13.4236 226.484C13.5136 225.604 13.5836 224.564 13.6336 223.364ZM9.52361 220.604H11.4736C11.4536 221.584 11.3986 222.529 11.3086 223.439C11.2286 224.339 11.0786 225.199 10.8586 226.019C10.6486 226.829 10.3386 227.589 9.92861 228.299C9.52861 228.999 8.99361 229.639 8.32361 230.219C7.66361 230.789 6.83861 231.294 5.84861 231.734L5.74361 231.569C6.61361 230.879 7.30361 230.129 7.81361 229.319C8.33361 228.499 8.71861 227.624 8.96861 226.694C9.21861 225.764 9.37361 224.794 9.43361 223.784C9.50361 222.764 9.53361 221.704 9.52361 220.604ZM7.30361 238.924H13.8286L14.7286 237.769C14.7286 237.769 14.7836 237.814 14.8936 237.904C15.0036 237.984 15.1436 238.094 15.3136 238.234C15.4936 238.364 15.6786 238.509 15.8686 238.669C16.0586 238.819 16.2286 238.964 16.3786 239.104C16.3486 239.264 16.2136 239.344 15.9736 239.344H7.30361V238.924ZM6.41861 238.924V238.774V238.279L8.11361 238.924H7.88861V241.204C7.88861 241.724 7.86861 242.304 7.82861 242.944C7.78861 243.584 7.69361 244.244 7.54361 244.924C7.39361 245.604 7.16361 246.269 6.85361 246.919C6.54361 247.559 6.11361 248.144 5.56361 248.674L5.38361 248.539C5.71361 247.769 5.94861 246.964 6.08861 246.124C6.23861 245.274 6.32861 244.429 6.35861 243.589C6.39861 242.749 6.41861 241.954 6.41861 241.204V238.924ZM8.27861 240.469V239.824L9.83861 240.469H14.3986V240.904H9.74861V248.134C9.74861 248.184 9.68861 248.249 9.56861 248.329C9.44861 248.409 9.29361 248.479 9.10361 248.539C8.92361 248.609 8.72361 248.644 8.50361 248.644H8.27861V240.469ZM6.25361 236.569H8.60861V234.679L10.6486 234.874C10.6386 234.974 10.5986 235.059 10.5286 235.129C10.4686 235.199 10.3486 235.244 10.1686 235.264V236.569H11.9086V234.679L13.9786 234.874C13.9686 234.964 13.9236 235.049 13.8436 235.129C13.7736 235.199 13.6486 235.244 13.4686 235.264V236.569H14.1436L14.9086 235.549C14.9086 235.549 14.9886 235.614 15.1486 235.744C15.3086 235.874 15.4986 236.034 15.7186 236.224C15.9386 236.414 16.1336 236.589 16.3036 236.749C16.2736 236.909 16.1436 236.989 15.9136 236.989H13.4686V238.054C13.4686 238.104 13.3686 238.174 13.1686 238.264C12.9686 238.344 12.6386 238.384 12.1786 238.384H11.9086V236.989H10.1686V238.129C10.1686 238.169 10.0686 238.234 9.86861 238.324C9.66861 238.404 9.34361 238.444 8.89361 238.444H8.60861V236.989H6.35861L6.25361 236.569ZM9.16361 242.674H14.6236V243.109H9.16361V242.674ZM9.16361 244.939H14.6236V245.359H9.16361V244.939ZM11.0386 240.484H12.4486V248.119C12.4486 248.169 12.3436 248.249 12.1336 248.359C11.9336 248.479 11.6486 248.539 11.2786 248.539H11.0386V240.484ZM13.7986 240.484H13.6486L14.3836 239.629L16.0336 240.874C15.9936 240.934 15.9186 240.994 15.8086 241.054C15.7086 241.104 15.5786 241.149 15.4186 241.189V246.754C15.4186 247.114 15.3786 247.424 15.2986 247.684C15.2286 247.954 15.0636 248.164 14.8036 248.314C14.5436 248.474 14.1386 248.579 13.5886 248.629C13.5786 248.369 13.5586 248.139 13.5286 247.939C13.5086 247.749 13.4636 247.594 13.3936 247.474C13.3336 247.364 13.2486 247.269 13.1386 247.189C13.0286 247.099 12.8586 247.034 12.6286 246.994V246.769C12.6286 246.769 12.6636 246.774 12.7336 246.784C12.8136 246.794 12.9036 246.804 13.0036 246.814C13.1136 246.814 13.2186 246.819 13.3186 246.829C13.4186 246.829 13.4986 246.829 13.5586 246.829C13.6486 246.829 13.7086 246.809 13.7386 246.769C13.7786 246.719 13.7986 246.654 13.7986 246.574V240.484ZM3.55361 239.434L4.15361 238.624L5.62361 239.179C5.59361 239.249 5.53861 239.309 5.45861 239.359C5.38861 239.399 5.28861 239.429 5.15861 239.449V248.269C5.15861 248.299 5.08861 248.349 4.94861 248.419C4.80861 248.499 4.63861 248.569 4.43861 248.629C4.24861 248.689 4.04861 248.719 3.83861 248.719H3.55361V239.434ZM4.39361 234.649L6.70361 235.324C6.67361 235.424 6.60861 235.504 6.50861 235.564C6.41861 235.624 6.28861 235.649 6.11861 235.639C5.82861 236.599 5.48861 237.504 5.09861 238.354C4.70861 239.194 4.27361 239.969 3.79361 240.679C3.31361 241.389 2.78361 242.019 2.20361 242.569L2.00861 242.449C2.33861 241.799 2.65861 241.049 2.96861 240.199C3.27861 239.339 3.55861 238.434 3.80861 237.484C4.05861 236.534 4.25361 235.589 4.39361 234.649Z" fill="black"/>
</svg>
