<svg width="310" height="131" viewBox="0 0 310 131" fill="none" xmlns="http://www.w3.org/2000/svg">
<g filter="url(#filter0_d_201_17614)">
<rect width="185.974" height="64.487" fill="#FFBB00" shape-rendering="crispEdges"/>
<rect x="0.853333" y="0.853333" width="184.267" height="62.7804" stroke="white" stroke-width="1.70667" shape-rendering="crispEdges"/>
<path d="M29.4732 46.722C27.9031 46.722 26.515 46.5058 25.3089 46.0735C24.1029 45.6184 23.0675 44.9129 22.2028 43.9572C21.3608 43.0015 20.7237 41.7727 20.2913 40.2708C19.859 38.7689 19.6428 36.9713 19.6428 34.8777V20.9513H24.6604V35.3215C24.6604 37.0737 24.8538 38.4617 25.2407 39.4857C25.6275 40.5097 26.1736 41.2493 26.8791 41.7044C27.6072 42.1368 28.4719 42.3529 29.4732 42.3529C30.4744 42.3529 31.3391 42.1368 32.0673 41.7044C32.7955 41.2493 33.353 40.5097 33.7399 39.4857C34.1495 38.4617 34.3543 37.0737 34.3543 35.3215V20.9513H39.2012V34.8777C39.2012 36.9713 38.985 38.7689 38.5527 40.2708C38.1203 41.7727 37.4831 43.0015 36.6412 43.9572C35.7992 44.9129 34.7752 45.6184 33.5692 46.0735C32.3631 46.5058 30.9978 46.722 29.4732 46.722ZM50.2732 46.2441L42.5591 20.9513H47.8839L51.1948 33.2735C51.6044 34.6616 51.9571 36.0155 52.2529 37.3353C52.5715 38.6324 52.9242 39.9977 53.3111 41.4313H53.4817C53.8913 39.9977 54.2554 38.6324 54.574 37.3353C54.8926 36.0155 55.2453 34.6616 55.6321 33.2735L58.9089 20.9513H64.0289L56.3148 46.2441H50.2732ZM83.046 18.8692C83.0005 19.256 82.955 19.7567 82.9095 20.3711C82.8867 20.9855 82.8639 21.4975 82.8412 21.9071C82.7502 25.2976 82.4657 28.3128 81.9879 30.9524C81.51 33.5693 80.8273 35.8904 79.9399 37.9156C79.0524 39.9409 77.926 41.7613 76.5607 43.3769C75.1953 44.9698 73.5683 46.4376 71.6796 47.7801L67.7201 44.5716C68.4255 44.162 69.1765 43.6841 69.9729 43.138C70.7921 42.5691 71.5317 41.932 72.1916 41.2265C73.3066 40.1343 74.251 38.9396 75.0247 37.6425C75.7983 36.3227 76.4127 34.8891 76.8679 33.3417C77.3457 31.7716 77.6984 30.0536 77.926 28.1876C78.1535 26.3217 78.2673 24.2623 78.2673 22.0095C78.2673 21.7592 78.2559 21.4406 78.2332 21.0537C78.2104 20.6441 78.1763 20.2459 78.1308 19.8591C78.108 19.4722 78.0739 19.1423 78.0284 18.8692H83.046ZM94.6513 26.1737C94.6058 26.4468 94.5489 26.7654 94.4807 27.1295C94.4351 27.4936 94.4124 27.778 94.4124 27.9828C94.3896 28.711 94.3441 29.644 94.2759 30.7817C94.2303 31.9195 94.1507 33.1483 94.0369 34.4681C93.9459 35.7652 93.8207 37.0623 93.6615 38.3593C93.5249 39.6564 93.3543 40.8625 93.1495 41.9775C92.9447 43.0697 92.6943 43.9686 92.3985 44.674C92.0344 45.5387 91.4997 46.1873 90.7943 46.6196C90.1116 47.0747 89.1786 47.3023 87.9953 47.3023C87.0168 47.3023 86.0383 47.2681 85.0599 47.1999C84.0814 47.1544 83.1711 47.0975 82.3292 47.0292L81.8172 42.4553C82.6591 42.6146 83.5011 42.7398 84.3431 42.8308C85.185 42.8991 85.9359 42.9332 86.5959 42.9332C87.1647 42.9332 87.5857 42.8422 87.8588 42.6601C88.1319 42.4553 88.3594 42.1481 88.5415 41.7385C88.7235 41.2834 88.8942 40.6804 89.0535 39.9295C89.2127 39.1785 89.3493 38.3366 89.4631 37.4036C89.5768 36.4706 89.6679 35.5035 89.7361 34.5023C89.8271 33.501 89.884 32.5339 89.9068 31.6009C89.9523 30.6452 89.9751 29.8033 89.9751 29.0751H73.318C72.7491 29.0751 72.0437 29.0864 71.2017 29.1092C70.3598 29.1092 69.5633 29.1433 68.8124 29.2116V24.7401C69.5406 24.8084 70.3143 24.8653 71.1335 24.9108C71.9527 24.9563 72.6808 24.9791 73.318 24.9791H89.1217C89.5541 24.9791 89.9864 24.9563 90.4188 24.9108C90.8739 24.8653 91.2949 24.8084 91.6817 24.7401L94.6513 26.1737ZM117.282 25.9689C117.441 26.333 117.646 26.8564 117.896 27.5391C118.169 28.199 118.454 28.9158 118.749 29.6895C119.045 30.4404 119.307 31.1572 119.535 31.8399C119.762 32.5225 119.944 33.0573 120.081 33.4441L115.985 34.8777C115.894 34.4454 115.734 33.8993 115.507 33.2393C115.279 32.5794 115.029 31.8854 114.756 31.1572C114.483 30.4063 114.21 29.6895 113.937 29.0068C113.664 28.3241 113.425 27.7553 113.22 27.3001L117.282 25.9689ZM129.877 28.4607C129.695 29.0068 129.536 29.4733 129.399 29.8601C129.285 30.247 129.172 30.6111 129.058 30.9524C128.625 32.6818 128.034 34.4113 127.283 36.1407C126.532 37.8473 125.576 39.4516 124.416 40.9535C122.823 43.0015 121.014 44.7423 118.988 46.1759C116.986 47.5867 114.983 48.6676 112.981 49.4185L109.397 45.7663C110.648 45.4249 111.968 44.9243 113.356 44.2644C114.744 43.5817 116.087 42.7625 117.384 41.8068C118.681 40.8511 119.796 39.7929 120.729 38.6324C121.503 37.6539 122.186 36.5389 122.777 35.2873C123.392 34.013 123.892 32.6591 124.279 31.2255C124.689 29.7691 124.962 28.3355 125.098 26.9247L129.877 28.4607ZM109.363 27.778C109.59 28.2104 109.841 28.7679 110.114 29.4505C110.41 30.1332 110.705 30.85 111.001 31.6009C111.297 32.3519 111.581 33.0801 111.855 33.7855C112.15 34.4909 112.378 35.0825 112.537 35.5604L108.373 37.1305C108.236 36.6754 108.032 36.0838 107.759 35.3556C107.508 34.6274 107.224 33.8651 106.905 33.0687C106.587 32.2495 106.279 31.4985 105.984 30.8159C105.711 30.1332 105.472 29.6098 105.267 29.2457L109.363 27.778ZM145.92 42.9673C145.92 42.535 145.92 41.8296 145.92 40.8511C145.92 39.8498 145.92 38.7007 145.92 37.4036C145.92 36.0838 145.92 34.7071 145.92 33.2735C145.92 31.8399 145.92 30.4632 145.92 29.1433C145.92 27.8008 145.92 26.6175 145.92 25.5935C145.92 24.5695 145.92 23.8185 145.92 23.3407C145.92 22.749 145.885 22.0664 145.817 21.2927C145.772 20.519 145.692 19.8363 145.578 19.2447H150.903C150.835 19.8363 150.767 20.4962 150.698 21.2244C150.63 21.9298 150.596 22.6352 150.596 23.3407C150.596 23.9778 150.596 24.8425 150.596 25.9348C150.596 27.0271 150.596 28.2445 150.596 29.5871C150.596 30.9069 150.596 32.2609 150.596 33.6489C150.596 35.0143 150.596 36.3341 150.596 37.6084C150.596 38.8827 150.596 39.9977 150.596 40.9535C150.596 41.8865 150.596 42.5577 150.596 42.9673C150.596 43.2859 150.607 43.741 150.63 44.3327C150.653 44.9016 150.698 45.4932 150.767 46.1076C150.835 46.722 150.88 47.2681 150.903 47.746H145.578C145.669 47.0633 145.749 46.2669 145.817 45.3567C145.885 44.4465 145.92 43.65 145.92 42.9673ZM149.572 28.0852C150.71 28.381 151.984 28.7679 153.395 29.2457C154.806 29.7009 156.228 30.1901 157.661 30.7135C159.095 31.2369 160.438 31.7602 161.689 32.2836C162.964 32.7842 164.022 33.2507 164.864 33.6831L162.918 38.3935C161.962 37.8929 160.904 37.3922 159.744 36.8916C158.583 36.3682 157.4 35.8676 156.194 35.3897C155.01 34.9119 153.839 34.4681 152.678 34.0585C151.54 33.6489 150.505 33.2849 149.572 32.9663V28.0852Z" fill="white"/>
</g>
<g filter="url(#filter1_d_201_17614)">
<rect x="126.293" y="56.3203" width="172.974" height="64.487" fill="#FFBB00" shape-rendering="crispEdges"/>
<rect x="127.146" y="57.1736" width="171.267" height="62.7804" stroke="white" stroke-width="1.70667" shape-rendering="crispEdges"/>
<path d="M155.402 78.1933C155.311 77.6926 155.197 77.2375 155.061 76.8279C154.947 76.4183 154.833 76.0087 154.719 75.5991L159.532 74.8141C159.578 75.1554 159.623 75.5877 159.669 76.1111C159.737 76.6117 159.816 77.0669 159.907 77.4765C159.953 77.795 160.055 78.3867 160.215 79.2514C160.374 80.1161 160.567 81.1629 160.795 82.3917C161.023 83.6205 161.273 84.9517 161.546 86.3853C161.842 87.7961 162.126 89.2297 162.399 90.6861C162.672 92.1197 162.934 93.485 163.184 94.7821C163.457 96.0791 163.685 97.2283 163.867 98.2295C164.072 99.2308 164.22 99.9703 164.311 100.448C164.424 100.949 164.561 101.495 164.72 102.087C164.88 102.678 165.039 103.247 165.198 103.793L160.249 104.681C160.158 104.044 160.09 103.429 160.044 102.838C159.999 102.269 159.919 101.734 159.805 101.233C159.714 100.778 159.578 100.084 159.395 99.1511C159.236 98.1954 159.031 97.0804 158.781 95.8061C158.554 94.5317 158.303 93.1778 158.03 91.7442C157.757 90.3106 157.484 88.877 157.211 87.4434C156.938 86.0098 156.676 84.6672 156.426 83.4157C156.198 82.1641 155.994 81.0832 155.811 80.173C155.629 79.24 155.493 78.5801 155.402 78.1933ZM146.083 82.5282C146.63 82.5054 147.164 82.4827 147.688 82.4599C148.211 82.4144 148.735 82.3575 149.258 82.2893C149.759 82.221 150.464 82.13 151.374 82.0162C152.284 81.8797 153.331 81.7317 154.514 81.5725C155.698 81.3904 156.915 81.197 158.167 80.9922C159.441 80.7874 160.67 80.594 161.853 80.4119C163.036 80.2071 164.083 80.0251 164.993 79.8658C165.926 79.7065 166.655 79.5813 167.178 79.4903C167.724 79.3765 168.293 79.2628 168.885 79.149C169.476 79.0125 169.977 78.8873 170.386 78.7735L171.206 83.245C170.842 83.2677 170.352 83.3246 169.738 83.4157C169.123 83.5067 168.566 83.5863 168.065 83.6546C167.451 83.7456 166.643 83.8708 165.642 84.0301C164.663 84.1893 163.571 84.3714 162.365 84.5762C161.159 84.7582 159.93 84.9517 158.679 85.1565C157.427 85.3385 156.232 85.5319 155.095 85.7367C153.957 85.9188 152.956 86.0781 152.091 86.2146C151.226 86.3511 150.578 86.4535 150.145 86.5218C149.599 86.6356 149.087 86.7493 148.609 86.8631C148.131 86.9541 147.597 87.0793 147.005 87.2386L146.083 82.5282ZM146.118 92.5634C146.573 92.5406 147.142 92.4951 147.824 92.4269C148.53 92.3358 149.144 92.2562 149.667 92.1879C150.282 92.0969 151.101 91.9717 152.125 91.8125C153.149 91.6532 154.298 91.4711 155.573 91.2663C156.87 91.0615 158.201 90.8567 159.566 90.6519C160.931 90.4244 162.263 90.1968 163.56 89.9693C164.857 89.7417 166.04 89.5369 167.11 89.3549C168.179 89.1728 169.044 89.0249 169.704 88.9111C170.364 88.7746 170.989 88.6381 171.581 88.5015C172.195 88.365 172.73 88.2285 173.185 88.0919L174.107 92.5975C173.652 92.6203 173.094 92.6885 172.434 92.8023C171.797 92.8933 171.149 92.9957 170.489 93.1095C169.761 93.2233 168.85 93.3712 167.758 93.5533C166.666 93.7353 165.46 93.9401 164.14 94.1677C162.843 94.3725 161.512 94.5886 160.146 94.8162C158.781 95.021 157.473 95.2372 156.221 95.4647C154.97 95.6695 153.843 95.8516 152.842 96.0109C151.841 96.1701 151.056 96.3067 150.487 96.4205C149.759 96.557 149.099 96.6821 148.507 96.7959C147.938 96.9097 147.46 97.0235 147.073 97.1373L146.118 92.5634ZM191.788 80.8898C191.856 81.2766 191.936 81.6976 192.027 82.1527C192.141 82.5851 192.243 83.0288 192.334 83.4839C192.539 84.1438 192.778 84.9972 193.051 86.0439C193.347 87.0907 193.665 88.2398 194.007 89.4914C194.348 90.7429 194.689 92.0173 195.031 93.3143C195.395 94.5886 195.747 95.8174 196.089 97.0007C196.43 98.1613 196.726 99.1966 196.976 100.107C197.227 100.994 197.42 101.677 197.557 102.155C197.648 102.337 197.739 102.61 197.83 102.974C197.921 103.338 198.023 103.702 198.137 104.066C198.273 104.43 198.387 104.726 198.478 104.954L193.836 106.114C193.768 105.636 193.688 105.136 193.597 104.612C193.506 104.089 193.381 103.588 193.222 103.111C193.085 102.61 192.892 101.893 192.641 100.96C192.391 100.004 192.107 98.9236 191.788 97.7175C191.469 96.5115 191.128 95.2599 190.764 93.9629C190.423 92.6658 190.093 91.4029 189.774 90.1741C189.456 88.9225 189.148 87.7961 188.853 86.7949C188.579 85.7709 188.352 84.9744 188.17 84.4055C188.056 83.9504 187.908 83.5181 187.726 83.1085C187.567 82.6989 187.396 82.3234 187.214 81.9821L191.788 80.8898ZM208.172 86.1463C207.831 86.8973 207.364 87.7506 206.773 88.7063C206.204 89.6621 205.578 90.6405 204.895 91.6418C204.213 92.643 203.53 93.5988 202.847 94.509C202.165 95.3965 201.516 96.1701 200.902 96.8301L197.147 94.9527C197.739 94.4293 198.364 93.7922 199.024 93.0413C199.684 92.2903 200.299 91.5394 200.867 90.7885C201.459 90.0148 201.891 89.3549 202.165 88.8087C201.914 88.8542 201.436 88.9453 200.731 89.0818C200.048 89.2183 199.218 89.389 198.239 89.5938C197.261 89.7986 196.191 90.0261 195.031 90.2765C193.893 90.504 192.744 90.7429 191.583 90.9933C190.423 91.2436 189.319 91.4825 188.272 91.7101C187.226 91.9149 186.304 92.1083 185.507 92.2903C184.711 92.4496 184.108 92.5748 183.698 92.6658L182.64 88.5698C183.186 88.5243 183.71 88.4674 184.21 88.3991C184.711 88.3309 185.234 88.2512 185.781 88.1602C186.054 88.1147 186.531 88.035 187.214 87.9213C187.92 87.8075 188.75 87.6596 189.706 87.4775C190.684 87.2955 191.731 87.1021 192.846 86.8973C193.961 86.6697 195.088 86.4535 196.225 86.2487C197.363 86.0212 198.433 85.8164 199.434 85.6343C200.435 85.4295 201.311 85.2589 202.062 85.1223C202.813 84.963 203.359 84.8379 203.701 84.7469C203.996 84.7013 204.304 84.6331 204.622 84.5421C204.941 84.4283 205.214 84.3145 205.441 84.2007L208.172 86.1463ZM230.529 82.2893C230.689 82.6533 230.893 83.1767 231.144 83.8594C231.417 84.5193 231.701 85.2361 231.997 86.0098C232.293 86.7607 232.555 87.4775 232.782 88.1602C233.01 88.8429 233.192 89.3776 233.328 89.7645L229.232 91.1981C229.141 90.7657 228.982 90.2196 228.754 89.5597C228.527 88.8997 228.277 88.2057 228.003 87.4775C227.73 86.7266 227.457 86.0098 227.184 85.3271C226.911 84.6445 226.672 84.0756 226.467 83.6205L230.529 82.2893ZM243.125 84.781C242.943 85.3271 242.783 85.7936 242.647 86.1805C242.533 86.5673 242.419 86.9314 242.305 87.2727C241.873 89.0021 241.281 90.7316 240.53 92.461C239.779 94.1677 238.824 95.7719 237.663 97.2738C236.07 99.3218 234.261 101.063 232.236 102.496C230.234 103.907 228.231 104.988 226.229 105.739L222.645 102.087C223.896 101.745 225.216 101.245 226.604 100.585C227.992 99.9021 229.335 99.0829 230.632 98.1271C231.929 97.1714 233.044 96.1133 233.977 94.9527C234.751 93.9742 235.433 92.8592 236.025 91.6077C236.639 90.3333 237.14 88.9794 237.527 87.5458C237.936 86.0894 238.209 84.6558 238.346 83.245L243.125 84.781ZM222.61 84.0983C222.838 84.5307 223.088 85.0882 223.361 85.7709C223.657 86.4535 223.953 87.1703 224.249 87.9213C224.545 88.6722 224.829 89.4004 225.102 90.1058C225.398 90.8112 225.626 91.4029 225.785 91.8807L221.621 93.4509C221.484 92.9957 221.279 92.4041 221.006 91.6759C220.756 90.9477 220.471 90.1854 220.153 89.389C219.834 88.5698 219.527 87.8189 219.231 87.1362C218.958 86.4535 218.719 85.9301 218.514 85.5661L222.61 84.0983ZM275.893 77.5447C275.893 78.0909 276.086 78.5573 276.473 78.9442C276.86 79.3083 277.315 79.4903 277.838 79.4903C278.384 79.4903 278.851 79.3083 279.238 78.9442C279.624 78.5573 279.818 78.0909 279.818 77.5447C279.818 76.9986 279.624 76.5321 279.238 76.1453C278.851 75.7584 278.384 75.565 277.838 75.565C277.315 75.565 276.86 75.7584 276.473 76.1453C276.086 76.5321 275.893 76.9986 275.893 77.5447ZM273.776 77.5447C273.776 76.7938 273.958 76.1111 274.322 75.4967C274.709 74.8596 275.21 74.3589 275.824 73.9949C276.439 73.6308 277.11 73.4487 277.838 73.4487C278.589 73.4487 279.272 73.6308 279.886 73.9949C280.523 74.3589 281.024 74.8596 281.388 75.4967C281.752 76.1111 281.934 76.7938 281.934 77.5447C281.934 78.2729 281.752 78.9442 281.388 79.5586C281.024 80.173 280.523 80.6736 279.886 81.0605C279.272 81.4245 278.589 81.6066 277.838 81.6066C277.11 81.6066 276.439 81.4245 275.824 81.0605C275.21 80.6736 274.709 80.173 274.322 79.5586C273.958 78.9442 273.776 78.2729 273.776 77.5447ZM277.906 80.2413C277.747 80.5598 277.611 80.9467 277.497 81.4018C277.383 81.8341 277.269 82.2324 277.155 82.5965C276.973 83.4384 276.735 84.3828 276.439 85.4295C276.143 86.4535 275.79 87.523 275.381 88.6381C274.971 89.7531 274.482 90.8567 273.913 91.949C273.367 93.0413 272.741 94.0653 272.035 95.021C271.011 96.3863 269.817 97.6606 268.451 98.8439C267.086 100.027 265.562 101.097 263.878 102.052C262.194 103.008 260.339 103.816 258.314 104.476L254.593 100.38C256.869 99.8338 258.826 99.1625 260.464 98.3661C262.103 97.5696 263.525 96.6594 264.731 95.6354C265.96 94.6114 267.041 93.5191 267.974 92.3586C268.725 91.4029 269.362 90.3675 269.885 89.2525C270.431 88.1374 270.875 87.0224 271.216 85.9074C271.58 84.7696 271.831 83.7115 271.967 82.733C271.626 82.733 271.057 82.733 270.261 82.733C269.487 82.733 268.565 82.733 267.496 82.733C266.449 82.733 265.345 82.733 264.185 82.733C263.047 82.733 261.943 82.733 260.874 82.733C259.804 82.733 258.837 82.733 257.973 82.733C257.131 82.733 256.505 82.733 256.095 82.733C255.299 82.733 254.525 82.7444 253.774 82.7671C253.046 82.7899 252.466 82.824 252.033 82.8695V78.0567C252.375 78.1022 252.784 78.1477 253.262 78.1933C253.763 78.2388 254.263 78.2729 254.764 78.2957C255.287 78.3184 255.731 78.3298 256.095 78.3298C256.459 78.3298 256.971 78.3298 257.631 78.3298C258.314 78.3298 259.099 78.3298 259.986 78.3298C260.874 78.3298 261.795 78.3298 262.751 78.3298C263.73 78.3298 264.697 78.3298 265.653 78.3298C266.631 78.3298 267.541 78.3298 268.383 78.3298C269.225 78.3298 269.953 78.3298 270.568 78.3298C271.182 78.3298 271.626 78.3298 271.899 78.3298C272.24 78.3298 272.65 78.3184 273.128 78.2957C273.628 78.2729 274.106 78.1933 274.561 78.0567L277.906 80.2413Z" fill="white"/>
</g>
<defs>
<filter id="filter0_d_201_17614" x="0" y="0" width="196.113" height="74.6248" filterUnits="userSpaceOnUse" color-interpolation-filters="sRGB">
<feFlood flood-opacity="0" result="BackgroundImageFix"/>
<feColorMatrix in="SourceAlpha" type="matrix" values="0 0 0 0 0 0 0 0 0 0 0 0 0 0 0 0 0 0 127 0" result="hardAlpha"/>
<feOffset dx="10.1384" dy="10.1384"/>
<feComposite in2="hardAlpha" operator="out"/>
<feColorMatrix type="matrix" values="0 0 0 0 0.960784 0 0 0 0 0.941176 0 0 0 0 0.905882 0 0 0 1 0"/>
<feBlend mode="normal" in2="BackgroundImageFix" result="effect1_dropShadow_201_17614"/>
<feBlend mode="normal" in="SourceGraphic" in2="effect1_dropShadow_201_17614" result="shape"/>
</filter>
<filter id="filter1_d_201_17614" x="126.293" y="56.3203" width="183.113" height="74.6248" filterUnits="userSpaceOnUse" color-interpolation-filters="sRGB">
<feFlood flood-opacity="0" result="BackgroundImageFix"/>
<feColorMatrix in="SourceAlpha" type="matrix" values="0 0 0 0 0 0 0 0 0 0 0 0 0 0 0 0 0 0 127 0" result="hardAlpha"/>
<feOffset dx="10.1384" dy="10.1384"/>
<feComposite in2="hardAlpha" operator="out"/>
<feColorMatrix type="matrix" values="0 0 0 0 0.960784 0 0 0 0 0.941176 0 0 0 0 0.905882 0 0 0 1 0"/>
<feBlend mode="normal" in2="BackgroundImageFix" result="effect1_dropShadow_201_17614"/>
<feBlend mode="normal" in="SourceGraphic" in2="effect1_dropShadow_201_17614" result="shape"/>
</filter>
</defs>
</svg>
