<svg width="190" height="44" viewBox="0 0 190 44" fill="none" xmlns="http://www.w3.org/2000/svg">
<g filter="url(#filter0_d_201_18483)">
<rect width="183.321" height="37.6604" fill="#FFBB00" shape-rendering="crispEdges"/>
<rect x="0.5" y="0.5" width="182.321" height="36.6604" stroke="white" shape-rendering="crispEdges"/>
<path d="M26.8361 13.2701C26.7561 13.3901 26.6361 13.5767 26.4761 13.8301C26.3294 14.0834 26.2161 14.3167 26.1361 14.5301C25.8561 15.1567 25.5094 15.8567 25.0961 16.6301C24.6961 17.4034 24.2361 18.1834 23.7161 18.9701C23.2094 19.7434 22.6694 20.4701 22.0961 21.1501C21.3494 21.9901 20.5228 22.8234 19.6161 23.6501C18.7228 24.4634 17.7761 25.2167 16.7761 25.9101C15.7894 26.5901 14.7761 27.1767 13.7361 27.6701L11.6761 25.5101C12.7561 25.0967 13.8028 24.5767 14.8161 23.9501C15.8294 23.3234 16.7694 22.6434 17.6361 21.9101C18.5028 21.1767 19.2494 20.4634 19.8761 19.7701C20.3161 19.2634 20.7294 18.7234 21.1161 18.1501C21.5161 17.5767 21.8694 17.0101 22.1761 16.4501C22.4828 15.8767 22.7094 15.3501 22.8561 14.8701C22.7228 14.8701 22.4828 14.8701 22.1361 14.8701C21.7894 14.8701 21.3828 14.8701 20.9161 14.8701C20.4628 14.8701 19.9828 14.8701 19.4761 14.8701C18.9694 14.8701 18.4828 14.8701 18.0161 14.8701C17.5628 14.8701 17.1628 14.8701 16.8161 14.8701C16.4694 14.8701 16.2228 14.8701 16.0761 14.8701C15.7961 14.8701 15.5028 14.8834 15.1961 14.9101C14.8894 14.9234 14.5961 14.9434 14.3161 14.9701C14.0494 14.9834 13.8428 14.9967 13.6961 15.0101V12.1701C13.8961 12.1834 14.1428 12.2034 14.4361 12.2301C14.7294 12.2567 15.0228 12.2767 15.3161 12.2901C15.6228 12.3034 15.8761 12.3101 16.0761 12.3101C16.2494 12.3101 16.5228 12.3101 16.8961 12.3101C17.2694 12.3101 17.6961 12.3101 18.1761 12.3101C18.6561 12.3101 19.1494 12.3101 19.6561 12.3101C20.1761 12.3101 20.6694 12.3101 21.1361 12.3101C21.6161 12.3101 22.0294 12.3101 22.3761 12.3101C22.7228 12.3101 22.9761 12.3101 23.1361 12.3101C23.5761 12.3101 23.9761 12.2834 24.3361 12.2301C24.7094 12.1767 24.9961 12.1167 25.1961 12.0501L26.8361 13.2701ZM22.3561 19.4901C22.8761 19.9034 23.4294 20.3834 24.0161 20.9301C24.6028 21.4767 25.1828 22.0434 25.7561 22.6301C26.3294 23.2167 26.8561 23.7834 27.3361 24.3301C27.8294 24.8634 28.2428 25.3301 28.5761 25.7301L26.2961 27.7101C25.8028 27.0301 25.2361 26.3234 24.5961 25.5901C23.9694 24.8567 23.3028 24.1301 22.5961 23.4101C21.9028 22.6767 21.1961 21.9834 20.4761 21.3301L22.3561 19.4901ZM46.2561 11.8301C46.2561 12.1367 46.3628 12.3967 46.5761 12.6101C46.7894 12.8101 47.0494 12.9101 47.3561 12.9101C47.6494 12.9101 47.9028 12.8101 48.1161 12.6101C48.3294 12.3967 48.4361 12.1367 48.4361 11.8301C48.4361 11.5367 48.3294 11.2834 48.1161 11.0701C47.9028 10.8567 47.6494 10.7501 47.3561 10.7501C47.0494 10.7501 46.7894 10.8567 46.5761 11.0701C46.3628 11.2834 46.2561 11.5367 46.2561 11.8301ZM45.0361 11.8301C45.0361 11.4034 45.1361 11.0167 45.3361 10.6701C45.5494 10.3234 45.8294 10.0434 46.1761 9.83008C46.5361 9.61674 46.9294 9.51008 47.3561 9.51008C47.7828 9.51008 48.1694 9.61674 48.5161 9.83008C48.8628 10.0434 49.1361 10.3234 49.3361 10.6701C49.5494 11.0167 49.6561 11.4034 49.6561 11.8301C49.6561 12.2567 49.5494 12.6501 49.3361 13.0101C49.1361 13.3567 48.8628 13.6367 48.5161 13.8501C48.1694 14.0501 47.7828 14.1501 47.3561 14.1501C46.9294 14.1501 46.5361 14.0501 46.1761 13.8501C45.8294 13.6367 45.5494 13.3567 45.3361 13.0101C45.1361 12.6501 45.0361 12.2567 45.0361 11.8301ZM42.2761 11.0501C42.2628 11.1434 42.2428 11.2967 42.2161 11.5101C42.1894 11.7234 42.1628 11.9501 42.1361 12.1901C42.1094 12.4167 42.0961 12.6167 42.0961 12.7901C42.0961 13.1901 42.0961 13.6301 42.0961 14.1101C42.0961 14.5901 42.0961 15.0701 42.0961 15.5501C42.0961 16.0167 42.0961 16.4434 42.0961 16.8301C42.0961 17.0967 42.0961 17.4701 42.0961 17.9501C42.0961 18.4301 42.0961 18.9701 42.0961 19.5701C42.0961 20.1701 42.0961 20.7967 42.0961 21.4501C42.0961 22.0901 42.0961 22.7167 42.0961 23.3301C42.0961 23.9301 42.0961 24.4767 42.0961 24.9701C42.0961 25.4501 42.0961 25.8301 42.0961 26.1101C42.0961 26.6834 41.9228 27.1367 41.5761 27.4701C41.2428 27.8167 40.7228 27.9901 40.0161 27.9901C39.6561 27.9901 39.2894 27.9834 38.9161 27.9701C38.5428 27.9567 38.1761 27.9367 37.8161 27.9101C37.4561 27.8834 37.1028 27.8501 36.7561 27.8101L36.5161 25.3301C36.9428 25.4101 37.3561 25.4701 37.7561 25.5101C38.1694 25.5501 38.4961 25.5701 38.7361 25.5701C39.0028 25.5701 39.1894 25.5167 39.2961 25.4101C39.4028 25.2901 39.4628 25.1034 39.4761 24.8501C39.4761 24.7301 39.4761 24.4701 39.4761 24.0701C39.4894 23.6701 39.4961 23.1967 39.4961 22.6501C39.4961 22.1034 39.4961 21.5234 39.4961 20.9101C39.4961 20.2967 39.4961 19.7101 39.4961 19.1501C39.4961 18.5901 39.4961 18.1034 39.4961 17.6901C39.4961 17.2767 39.4961 16.9901 39.4961 16.8301C39.4961 16.5901 39.4961 16.2301 39.4961 15.7501C39.4961 15.2567 39.4961 14.7367 39.4961 14.1901C39.4961 13.6434 39.4961 13.1767 39.4961 12.7901C39.4961 12.5234 39.4761 12.2101 39.4361 11.8501C39.3961 11.4767 39.3561 11.2101 39.3161 11.0501H42.2761ZM32.4761 14.2301C32.7828 14.2701 33.1028 14.3101 33.4361 14.3501C33.7694 14.3767 34.0961 14.3901 34.4161 14.3901C34.5761 14.3901 34.8961 14.3901 35.3761 14.3901C35.8694 14.3901 36.4561 14.3901 37.1361 14.3901C37.8161 14.3901 38.5428 14.3901 39.3161 14.3901C40.1028 14.3901 40.8894 14.3901 41.6761 14.3901C42.4761 14.3901 43.2161 14.3901 43.8961 14.3901C44.5894 14.3901 45.1894 14.3901 45.6961 14.3901C46.2028 14.3901 46.5561 14.3901 46.7561 14.3901C47.0361 14.3901 47.3628 14.3767 47.7361 14.3501C48.1228 14.3234 48.4561 14.2901 48.7361 14.2501V16.8701C48.4294 16.8434 48.0961 16.8301 47.7361 16.8301C47.3761 16.8167 47.0561 16.8101 46.7761 16.8101C46.5761 16.8101 46.2228 16.8101 45.7161 16.8101C45.2228 16.8101 44.6294 16.8101 43.9361 16.8101C43.2561 16.8101 42.5228 16.8101 41.7361 16.8101C40.9494 16.8101 40.1628 16.8101 39.3761 16.8101C38.5894 16.8101 37.8561 16.8101 37.1761 16.8101C36.4961 16.8101 35.9094 16.8101 35.4161 16.8101C34.9361 16.8101 34.6028 16.8101 34.4161 16.8101C34.1228 16.8101 33.7961 16.8167 33.4361 16.8301C33.0894 16.8434 32.7694 16.8634 32.4761 16.8901V14.2301ZM37.5761 19.6501C37.3494 20.1034 37.0761 20.5901 36.7561 21.1101C36.4361 21.6301 36.0894 22.1501 35.7161 22.6701C35.3561 23.1901 35.0028 23.6767 34.6561 24.1301C34.3094 24.5701 33.9961 24.9367 33.7161 25.2301L31.5561 23.7501C31.8894 23.4434 32.2294 23.0834 32.5761 22.6701C32.9361 22.2434 33.2828 21.7967 33.6161 21.3301C33.9628 20.8634 34.2761 20.3967 34.5561 19.9301C34.8494 19.4634 35.1028 19.0167 35.3161 18.5901L37.5761 19.6501ZM46.1761 18.5301C46.4294 18.8501 46.7094 19.2301 47.0161 19.6701C47.3361 20.1101 47.6561 20.5834 47.9761 21.0901C48.2961 21.5834 48.5961 22.0701 48.8761 22.5501C49.1561 23.0167 49.3961 23.4301 49.5961 23.7901L47.2361 25.0701C47.0228 24.6434 46.7761 24.1834 46.4961 23.6901C46.2294 23.1967 45.9494 22.7034 45.6561 22.2101C45.3628 21.7167 45.0694 21.2567 44.7761 20.8301C44.4961 20.3901 44.2361 20.0167 43.9961 19.7101L46.1761 18.5301ZM53.1961 17.5701C53.4361 17.5834 53.7428 17.6034 54.1161 17.6301C54.4894 17.6434 54.8761 17.6567 55.2761 17.6701C55.6894 17.6834 56.0694 17.6901 56.4161 17.6901C56.7494 17.6901 57.1628 17.6901 57.6561 17.6901C58.1494 17.6901 58.6828 17.6901 59.2561 17.6901C59.8428 17.6901 60.4428 17.6901 61.0561 17.6901C61.6828 17.6901 62.3028 17.6901 62.9161 17.6901C63.5294 17.6901 64.1094 17.6901 64.6561 17.6901C65.2028 17.6901 65.6894 17.6901 66.1161 17.6901C66.5561 17.6901 66.9028 17.6901 67.1561 17.6901C67.6228 17.6901 68.0628 17.6767 68.4761 17.6501C68.8894 17.6101 69.2294 17.5834 69.4961 17.5701V20.7101C69.2694 20.6967 68.9294 20.6767 68.4761 20.6501C68.0228 20.6234 67.5828 20.6101 67.1561 20.6101C66.9028 20.6101 66.5561 20.6101 66.1161 20.6101C65.6761 20.6101 65.1828 20.6101 64.6361 20.6101C64.0894 20.6101 63.5094 20.6101 62.8961 20.6101C62.2961 20.6101 61.6828 20.6101 61.0561 20.6101C60.4294 20.6101 59.8228 20.6101 59.2361 20.6101C58.6628 20.6101 58.1294 20.6101 57.6361 20.6101C57.1561 20.6101 56.7494 20.6101 56.4161 20.6101C55.8428 20.6101 55.2561 20.6234 54.6561 20.6501C54.0561 20.6634 53.5694 20.6834 53.1961 20.7101V17.5701ZM75.9761 11.4901C76.3094 11.5434 76.6694 11.5834 77.0561 11.6101C77.4428 11.6234 77.7961 11.6301 78.1161 11.6301C78.3694 11.6301 78.7694 11.6301 79.3161 11.6301C79.8628 11.6301 80.4761 11.6301 81.1561 11.6301C81.8361 11.6301 82.5161 11.6301 83.1961 11.6301C83.8761 11.6301 84.4761 11.6301 84.9961 11.6301C85.5294 11.6301 85.9161 11.6301 86.1561 11.6301C86.5028 11.6301 86.8628 11.6234 87.2361 11.6101C87.6094 11.5834 87.9694 11.5434 88.3161 11.4901V14.0701C87.9694 14.0434 87.6094 14.0234 87.2361 14.0101C86.8628 13.9967 86.5028 13.9901 86.1561 13.9901C85.9161 13.9901 85.5294 13.9901 84.9961 13.9901C84.4761 13.9901 83.8761 13.9901 83.1961 13.9901C82.5161 13.9901 81.8361 13.9901 81.1561 13.9901C80.4761 13.9901 79.8628 13.9901 79.3161 13.9901C78.7828 13.9901 78.3894 13.9901 78.1361 13.9901C77.7894 13.9901 77.4161 13.9967 77.0161 14.0101C76.6294 14.0234 76.2828 14.0434 75.9761 14.0701V11.4901ZM73.6561 16.6101C73.9494 16.6367 74.2628 16.6634 74.5961 16.6901C74.9428 16.7167 75.2694 16.7301 75.5761 16.7301C75.7494 16.7301 76.0961 16.7301 76.6161 16.7301C77.1361 16.7301 77.7628 16.7301 78.4961 16.7301C79.2294 16.7301 80.0161 16.7301 80.8561 16.7301C81.7094 16.7301 82.5561 16.7301 83.3961 16.7301C84.2494 16.7301 85.0428 16.7301 85.7761 16.7301C86.5094 16.7301 87.1294 16.7301 87.6361 16.7301C88.1561 16.7301 88.5028 16.7301 88.6761 16.7301C88.8894 16.7301 89.1761 16.7234 89.5361 16.7101C89.9094 16.6834 90.2294 16.6501 90.4961 16.6101V19.2101C90.2561 19.1834 89.9628 19.1701 89.6161 19.1701C89.2694 19.1567 88.9561 19.1501 88.6761 19.1501C88.5028 19.1501 88.1561 19.1501 87.6361 19.1501C87.1294 19.1501 86.5094 19.1501 85.7761 19.1501C85.0428 19.1501 84.2494 19.1501 83.3961 19.1501C82.5561 19.1501 81.7094 19.1501 80.8561 19.1501C80.0161 19.1501 79.2294 19.1501 78.4961 19.1501C77.7628 19.1501 77.1361 19.1501 76.6161 19.1501C76.0961 19.1501 75.7494 19.1501 75.5761 19.1501C75.2828 19.1501 74.9561 19.1567 74.5961 19.1701C74.2494 19.1834 73.9361 19.2034 73.6561 19.2301V16.6101ZM83.8961 17.9901C83.8961 19.2967 83.7828 20.4701 83.5561 21.5101C83.3294 22.5367 83.0028 23.4634 82.5761 24.2901C82.3361 24.7434 82.0161 25.2101 81.6161 25.6901C81.2161 26.1701 80.7561 26.6234 80.2361 27.0501C79.7161 27.4767 79.1561 27.8367 78.5561 28.1301L76.2161 26.4301C76.9228 26.1501 77.6028 25.7501 78.2561 25.2301C78.9094 24.7101 79.4361 24.1567 79.8361 23.5701C80.3428 22.7967 80.6828 21.9434 80.8561 21.0101C81.0294 20.0767 81.1161 19.0767 81.1161 18.0101L83.8961 17.9901ZM93.5047 21.1301C94.3714 20.9434 95.2514 20.6901 96.1447 20.3701C97.0514 20.0367 97.898 19.6834 98.6847 19.3101C99.4714 18.9234 100.131 18.5767 100.665 18.2701C101.318 17.8701 101.958 17.4234 102.585 16.9301C103.225 16.4234 103.811 15.9167 104.345 15.4101C104.878 14.9034 105.311 14.4301 105.645 13.9901L107.625 15.9301C107.238 16.3701 106.725 16.8567 106.085 17.3901C105.458 17.9101 104.778 18.4367 104.045 18.9701C103.311 19.4901 102.578 19.9634 101.845 20.3901C101.391 20.6701 100.871 20.9567 100.285 21.2501C99.698 21.5301 99.078 21.8101 98.4247 22.0901C97.7847 22.3567 97.138 22.6101 96.4847 22.8501C95.8447 23.0901 95.2447 23.3034 94.6847 23.4901L93.5047 21.1301ZM100.425 19.8301L103.145 19.3101V26.4301C103.145 26.6567 103.145 26.9167 103.145 27.2101C103.158 27.5034 103.178 27.7701 103.205 28.0101C103.231 28.2634 103.258 28.4567 103.285 28.5901H100.325C100.351 28.4567 100.365 28.2634 100.365 28.0101C100.378 27.7701 100.391 27.5034 100.405 27.2101C100.418 26.9167 100.425 26.6567 100.425 26.4301V19.8301ZM118.245 24.9101C118.245 24.6567 118.245 24.2434 118.245 23.6701C118.245 23.0834 118.245 22.4101 118.245 21.6501C118.245 20.8767 118.245 20.0701 118.245 19.2301C118.245 18.3901 118.245 17.5834 118.245 16.8101C118.245 16.0234 118.245 15.3301 118.245 14.7301C118.245 14.1301 118.245 13.6901 118.245 13.4101C118.245 13.0634 118.225 12.6634 118.185 12.2101C118.158 11.7567 118.111 11.3567 118.045 11.0101H121.165C121.125 11.3567 121.085 11.7434 121.045 12.1701C121.005 12.5834 120.985 12.9967 120.985 13.4101C120.985 13.7834 120.985 14.2901 120.985 14.9301C120.985 15.5701 120.985 16.2834 120.985 17.0701C120.985 17.8434 120.985 18.6367 120.985 19.4501C120.985 20.2501 120.985 21.0234 120.985 21.7701C120.985 22.5167 120.985 23.1701 120.985 23.7301C120.985 24.2767 120.985 24.6701 120.985 24.9101C120.985 25.0967 120.991 25.3634 121.005 25.7101C121.018 26.0434 121.045 26.3901 121.085 26.7501C121.125 27.1101 121.151 27.4301 121.165 27.7101H118.045C118.098 27.3101 118.145 26.8434 118.185 26.3101C118.225 25.7767 118.245 25.3101 118.245 24.9101ZM120.385 16.1901C121.051 16.3634 121.798 16.5901 122.625 16.8701C123.451 17.1367 124.285 17.4234 125.125 17.7301C125.965 18.0367 126.751 18.3434 127.485 18.6501C128.231 18.9434 128.851 19.2167 129.345 19.4701L128.205 22.2301C127.645 21.9367 127.025 21.6434 126.345 21.3501C125.665 21.0434 124.971 20.7501 124.265 20.4701C123.571 20.1901 122.885 19.9301 122.205 19.6901C121.538 19.4501 120.931 19.2367 120.385 19.0501V16.1901ZM134.405 17.5701C134.645 17.5834 134.951 17.6034 135.325 17.6301C135.698 17.6434 136.085 17.6567 136.485 17.6701C136.898 17.6834 137.278 17.6901 137.625 17.6901C137.958 17.6901 138.371 17.6901 138.865 17.6901C139.358 17.6901 139.891 17.6901 140.465 17.6901C141.051 17.6901 141.651 17.6901 142.265 17.6901C142.891 17.6901 143.511 17.6901 144.125 17.6901C144.738 17.6901 145.318 17.6901 145.865 17.6901C146.411 17.6901 146.898 17.6901 147.325 17.6901C147.765 17.6901 148.111 17.6901 148.365 17.6901C148.831 17.6901 149.271 17.6767 149.685 17.6501C150.098 17.6101 150.438 17.5834 150.705 17.5701V20.7101C150.478 20.6967 150.138 20.6767 149.685 20.6501C149.231 20.6234 148.791 20.6101 148.365 20.6101C148.111 20.6101 147.765 20.6101 147.325 20.6101C146.885 20.6101 146.391 20.6101 145.845 20.6101C145.298 20.6101 144.718 20.6101 144.105 20.6101C143.505 20.6101 142.891 20.6101 142.265 20.6101C141.638 20.6101 141.031 20.6101 140.445 20.6101C139.871 20.6101 139.338 20.6101 138.845 20.6101C138.365 20.6101 137.958 20.6101 137.625 20.6101C137.051 20.6101 136.465 20.6234 135.865 20.6501C135.265 20.6634 134.778 20.6834 134.405 20.7101V17.5701ZM159.445 24.9101C159.445 24.6567 159.445 24.2434 159.445 23.6701C159.445 23.0834 159.445 22.4101 159.445 21.6501C159.445 20.8767 159.445 20.0701 159.445 19.2301C159.445 18.3901 159.445 17.5834 159.445 16.8101C159.445 16.0234 159.445 15.3301 159.445 14.7301C159.445 14.1301 159.445 13.6901 159.445 13.4101C159.445 13.0634 159.425 12.6634 159.385 12.2101C159.358 11.7567 159.311 11.3567 159.245 11.0101H162.365C162.325 11.3567 162.285 11.7434 162.245 12.1701C162.205 12.5834 162.185 12.9967 162.185 13.4101C162.185 13.7834 162.185 14.2901 162.185 14.9301C162.185 15.5701 162.185 16.2834 162.185 17.0701C162.185 17.8434 162.185 18.6367 162.185 19.4501C162.185 20.2501 162.185 21.0234 162.185 21.7701C162.185 22.5167 162.185 23.1701 162.185 23.7301C162.185 24.2767 162.185 24.6701 162.185 24.9101C162.185 25.0967 162.191 25.3634 162.205 25.7101C162.218 26.0434 162.245 26.3901 162.285 26.7501C162.325 27.1101 162.351 27.4301 162.365 27.7101H159.245C159.298 27.3101 159.345 26.8434 159.385 26.3101C159.425 25.7767 159.445 25.3101 159.445 24.9101ZM161.585 16.1901C162.251 16.3634 162.998 16.5901 163.825 16.8701C164.651 17.1367 165.485 17.4234 166.325 17.7301C167.165 18.0367 167.951 18.3434 168.685 18.6501C169.431 18.9434 170.051 19.2167 170.545 19.4701L169.405 22.2301C168.845 21.9367 168.225 21.6434 167.545 21.3501C166.865 21.0434 166.171 20.7501 165.465 20.4701C164.771 20.1901 164.085 19.9301 163.405 19.6901C162.738 19.4501 162.131 19.2367 161.585 19.0501V16.1901Z" fill="white"/>
</g>
<defs>
<filter id="filter0_d_201_18483" x="0" y="0" width="189.261" height="43.6007" filterUnits="userSpaceOnUse" color-interpolation-filters="sRGB">
<feFlood flood-opacity="0" result="BackgroundImageFix"/>
<feColorMatrix in="SourceAlpha" type="matrix" values="0 0 0 0 0 0 0 0 0 0 0 0 0 0 0 0 0 0 127 0" result="hardAlpha"/>
<feOffset dx="5.94049" dy="5.94049"/>
<feComposite in2="hardAlpha" operator="out"/>
<feColorMatrix type="matrix" values="0 0 0 0 0.960784 0 0 0 0 0.941176 0 0 0 0 0.905882 0 0 0 1 0"/>
<feBlend mode="normal" in2="BackgroundImageFix" result="effect1_dropShadow_201_18483"/>
<feBlend mode="normal" in="SourceGraphic" in2="effect1_dropShadow_201_18483" result="shape"/>
</filter>
</defs>
</svg>
