<svg width="325" height="98" viewBox="0 0 325 98" fill="none" xmlns="http://www.w3.org/2000/svg">
<path d="M187.111 44.7851C187.111 45.8467 187.389 46.8073 187.945 47.6667C188.552 48.4756 189.31 49.2339 190.22 49.9417C191.13 50.5989 192.116 51.2562 193.178 51.9134C194.442 52.6212 195.68 53.3795 196.894 54.1884C198.107 54.9467 199.118 55.882 199.927 56.9942C200.736 58.1064 201.14 59.5473 201.14 61.3167C201.14 62.9345 200.711 64.527 199.851 66.0942C199.042 67.6109 197.804 68.8495 196.135 69.8101C194.467 70.7706 192.369 71.2509 189.841 71.2509C188.577 71.2509 187.313 71.0992 186.049 70.7959C184.786 70.5431 183.421 70.0123 181.954 69.2034C181.853 69.1023 181.752 68.9759 181.651 68.8242C181.55 68.6726 181.499 68.4956 181.499 68.2934L181.348 60.7859C181.348 60.6342 181.474 60.5584 181.727 60.5584C182.03 60.5078 182.207 60.5331 182.258 60.6342C182.814 62.252 183.597 63.7687 184.609 65.1842C185.62 66.5492 186.757 67.6614 188.021 68.5209C189.336 69.3298 190.65 69.7342 191.964 69.7342C192.976 69.7342 193.81 69.4309 194.467 68.8242C195.124 68.167 195.453 67.1812 195.453 65.8667C195.453 64.4512 195.124 63.2884 194.467 62.3784C193.86 61.4178 193.077 60.6089 192.116 59.9517C191.156 59.2439 190.17 58.612 189.159 58.0559C187.996 57.3987 186.833 56.7162 185.67 56.0084C184.508 55.3006 183.547 54.4159 182.789 53.3542C182.03 52.242 181.651 50.8012 181.651 49.0317C181.651 46.9084 182.182 45.2148 183.244 43.9509C184.305 42.687 185.67 41.777 187.339 41.2209C189.057 40.6648 190.827 40.3867 192.647 40.3867C193.759 40.3867 194.77 40.4626 195.68 40.6142C196.641 40.7659 197.728 41.0692 198.941 41.5242C199.396 41.6759 199.624 41.9539 199.624 42.3584C199.624 43.3695 199.598 44.4312 199.548 45.5434C199.497 46.6051 199.472 47.7931 199.472 49.1076C199.472 49.2592 199.32 49.3351 199.017 49.3351C198.714 49.3351 198.562 49.2592 198.562 49.1076C198.562 48.147 198.157 47.1106 197.349 45.9984C196.59 44.8862 195.579 43.9256 194.315 43.1167C193.051 42.2573 191.686 41.8276 190.22 41.8276C189.513 41.8276 188.805 42.0045 188.097 42.3584C187.44 42.7123 187.111 43.5212 187.111 44.7851Z" fill="#FFBB00"/>
<path d="M163.695 71.3261C160.207 71.3261 157.325 70.593 155.05 69.1269C152.775 67.6102 151.082 65.6891 149.969 63.3636C148.908 61.038 148.377 58.6872 148.377 56.3111C148.377 53.7833 148.908 51.5336 149.969 49.5619C151.031 47.5902 152.421 45.9472 154.14 44.6327C155.91 43.2677 157.856 42.2314 159.979 41.5236C162.103 40.8158 164.201 40.4619 166.274 40.4619C167.74 40.4619 169.206 40.6894 170.672 41.1444C172.138 41.5489 173.351 42.1808 174.312 43.0402C175.273 43.8491 175.753 44.8855 175.753 46.1494C175.753 47.0089 175.399 47.8177 174.691 48.5761C173.983 49.2839 172.947 49.6377 171.582 49.6377C170.318 49.6377 169.332 49.3091 168.624 48.6519C167.917 47.9947 167.361 47.0341 166.956 45.7702C166.602 44.5569 166.198 43.6469 165.743 43.0402C165.338 42.383 164.529 42.0544 163.316 42.0544C161.142 42.0544 159.398 43.1414 158.084 45.3152C156.82 47.4891 156.188 50.3202 156.188 53.8086C156.188 56.3364 156.567 58.6619 157.325 60.7852C158.084 62.858 159.322 64.5264 161.041 65.7902C162.76 67.0036 165.06 67.6103 167.942 67.6103C169.459 67.6103 170.723 67.4333 171.734 67.0794C172.795 66.7255 173.958 66.2452 175.222 65.6386C175.323 65.5375 175.449 65.588 175.601 65.7902C175.803 65.9925 175.854 66.1441 175.753 66.2452C173.983 67.863 172.163 69.1269 170.293 70.0369C168.422 70.8964 166.223 71.3261 163.695 71.3261Z" fill="#FFBB00"/>
<path d="M128.988 70.4165C128.836 70.4165 128.76 70.2648 128.76 69.9615C128.76 69.6582 128.836 69.5065 128.988 69.5065C130.555 69.5065 131.617 69.1526 132.173 68.4448C132.729 67.6865 133.007 66.2962 133.007 64.274V50.6998C133.007 49.0315 132.83 47.8182 132.476 47.0598C132.173 46.2509 131.591 45.8465 130.732 45.8465C130.378 45.8465 129.948 45.9223 129.443 46.074C128.988 46.2257 128.482 46.4279 127.926 46.6807C127.724 46.7312 127.547 46.6048 127.395 46.3015C127.294 45.9982 127.319 45.8212 127.471 45.7707L138.922 40.4623C139.023 40.4118 139.099 40.3865 139.149 40.3865C139.402 40.3865 139.655 40.5129 139.908 40.7657C140.16 41.0184 140.287 41.2459 140.287 41.4482C140.287 42.0548 140.262 43.0659 140.211 44.4815C140.16 45.8971 140.135 47.9193 140.135 50.5482V64.274C140.135 66.2962 140.413 67.6865 140.969 68.4448C141.576 69.1526 142.663 69.5065 144.23 69.5065C144.382 69.5065 144.458 69.6582 144.458 69.9615C144.458 70.2648 144.382 70.4165 144.23 70.4165C143.219 70.4165 142.056 70.3912 140.742 70.3407C139.427 70.2901 138.037 70.2648 136.571 70.2648C135.155 70.2648 133.79 70.2901 132.476 70.3407C131.162 70.3912 129.999 70.4165 128.988 70.4165ZM136.268 32.879C134.852 32.879 133.715 32.4746 132.855 31.6657C132.046 30.8568 131.642 29.7193 131.642 28.2532C131.642 26.9387 132.046 25.9023 132.855 25.144C133.715 24.3351 134.852 23.9307 136.268 23.9307C137.683 23.9307 138.77 24.3351 139.528 25.144C140.287 25.9023 140.666 26.9387 140.666 28.2532C140.666 31.3371 139.2 32.879 136.268 32.879Z" fill="#FFBB00"/>
<path d="M89.1192 91.2699C88.9676 91.2699 88.8917 91.1182 88.8917 90.8149C88.8917 90.5115 88.9676 90.3599 89.1192 90.3599C90.8887 90.3599 92.0262 90.0313 92.5317 89.374C93.0878 88.7168 93.3659 87.3013 93.3659 85.1274V50.0165C93.3659 48.4493 93.189 47.3118 92.8351 46.604C92.4812 45.8457 91.8492 45.4665 90.9392 45.4665C90.5348 45.4665 90.0292 45.5676 89.4226 45.7699C88.8159 45.9215 88.1587 46.1743 87.4509 46.5282C87.2487 46.6293 87.0717 46.5282 86.9201 46.2249C86.7684 45.9215 86.7431 45.7446 86.8442 45.694L97.6126 40.4615C97.7137 40.411 97.8401 40.3857 97.9917 40.3857C98.5479 40.3857 99.0787 40.9924 99.5842 42.2057C100.14 43.419 100.418 45.1632 100.418 47.4382V85.1274C100.418 86.5429 100.57 87.6299 100.873 88.3882C101.227 89.1465 101.885 89.6521 102.845 89.9049C103.806 90.2082 105.246 90.3599 107.168 90.3599C107.319 90.3599 107.395 90.5115 107.395 90.8149C107.395 91.1182 107.319 91.2699 107.168 91.2699C105.752 91.2699 104.16 91.2446 102.39 91.194C100.621 91.1435 98.7501 91.1182 96.7784 91.1182C95.3628 91.1182 93.9726 91.1435 92.6076 91.194C91.2931 91.2446 90.1303 91.2699 89.1192 91.2699ZM106.94 71.4015C104.968 71.4015 103.275 71.2499 101.859 70.9465C100.494 70.6432 98.8512 70.1629 96.9301 69.5057L99.5842 64.7282C100.696 66.0932 101.885 67.2307 103.148 68.1407C104.463 69.0507 106.207 69.5057 108.381 69.5057C110.757 69.5057 112.628 68.4693 113.993 66.3965C115.358 64.3238 116.04 61.0124 116.04 56.4624C116.04 52.4179 115.105 49.4099 113.234 47.4382C111.364 45.416 109.165 44.4049 106.637 44.4049C104.766 44.4049 103.148 44.8851 101.783 45.8457C100.418 46.8063 99.0787 48.0196 97.7642 49.4857L97.0059 48.5757C99.5842 45.5929 102.036 43.4443 104.362 42.1299C106.738 40.8154 109.165 40.1582 111.642 40.1582C113.765 40.1582 115.737 40.7143 117.557 41.8265C119.377 42.8882 120.843 44.4554 121.955 46.5282C123.118 48.601 123.699 51.1288 123.699 54.1115C123.699 57.3471 123.168 60.0771 122.107 62.3015C121.096 64.526 119.756 66.3207 118.088 67.6857C116.419 69.0002 114.599 69.9354 112.628 70.4915C110.706 71.0982 108.811 71.4015 106.94 71.4015Z" fill="#FFBB00"/>
<path d="M68.0203 71.4015C64.8353 71.4015 62.08 70.6685 59.7545 69.2024C57.4289 67.7363 55.6342 65.7899 54.3703 63.3632C53.1064 60.886 52.4745 58.2318 52.4745 55.4007C52.4745 52.7718 52.98 50.4968 53.9912 48.5757C55.0023 46.6546 56.342 45.0874 58.0103 43.874C59.6787 42.6101 61.4987 41.6749 63.4703 41.0682C65.442 40.4615 67.3884 40.1582 69.3095 40.1582C72.545 40.1582 75.3003 40.9165 77.5753 42.4332C79.9009 43.9499 81.6703 45.8963 82.8837 48.2724C84.097 50.6485 84.7037 53.1763 84.7037 55.8557C84.7037 58.9396 83.92 61.6696 82.3528 64.0457C80.8362 66.3713 78.8139 68.1913 76.2862 69.5057C73.7584 70.7696 71.0031 71.4015 68.0203 71.4015ZM70.2953 69.809C72.3175 69.809 73.8342 68.8232 74.8453 66.8515C75.8564 64.8799 76.362 62.0993 76.362 58.5099C76.362 54.8193 75.8817 51.7354 74.9212 49.2582C74.0112 46.781 72.8231 44.9104 71.357 43.6465C69.8909 42.3826 68.3489 41.7507 66.7312 41.7507C64.7595 41.7507 63.2428 42.6354 62.1812 44.4049C61.17 46.1743 60.6645 48.9043 60.6645 52.5949C60.6645 56.0326 61.0942 59.066 61.9537 61.6949C62.8131 64.2732 63.9759 66.2702 65.442 67.6857C66.9081 69.1013 68.5259 69.809 70.2953 69.809Z" fill="#FFBB00"/>
<path d="M24.371 24.7646C21.2871 24.7646 18.6582 25.801 16.4843 27.8738C14.361 29.896 12.6674 32.7777 11.4035 36.5188C11.3529 36.6705 11.2013 36.7463 10.9485 36.7463C10.6957 36.6957 10.5693 36.5946 10.5693 36.443C10.6704 35.7352 10.7716 34.7493 10.8727 33.4855C10.9738 32.171 11.0749 30.7555 11.176 29.2388C11.3277 27.7221 11.4288 26.256 11.4793 24.8405C11.5804 23.4249 11.631 22.2621 11.631 21.3521C11.631 21.0993 11.7574 20.973 12.0102 20.973C12.3135 20.973 12.4652 21.0993 12.4652 21.3521C12.4652 21.8577 12.7179 22.2368 13.2235 22.4896C13.7796 22.6918 14.3863 22.8435 15.0435 22.9446C15.7513 22.9952 16.3327 23.0205 16.7877 23.0205C21.1354 23.1721 26.2163 23.248 32.0302 23.248C35.5691 23.248 38.4002 23.2227 40.5235 23.1721C42.6468 23.071 44.6943 23.0205 46.666 23.0205C48.486 23.0205 49.851 22.9193 50.761 22.7171C51.7216 22.4643 52.3282 21.9335 52.581 21.1246C52.6316 20.9224 52.7832 20.8213 53.036 20.8213C53.3393 20.8213 53.491 20.9224 53.491 21.1246C53.3899 21.9335 53.2888 23.071 53.1877 24.5371C53.1371 25.9527 53.0613 27.4693 52.9602 29.0871C52.9096 30.6543 52.8591 32.1205 52.8085 33.4855C52.7579 34.7999 52.7327 35.7857 52.7327 36.443C52.7327 36.5946 52.6063 36.6705 52.3535 36.6705C52.1007 36.6705 51.9491 36.5946 51.8985 36.443C51.1402 32.4491 49.6993 29.5168 47.576 27.6463C45.5032 25.7252 42.9755 24.7646 39.9927 24.7646C38.9816 24.7646 38.198 24.9163 37.6418 25.2196C37.1363 25.4724 36.7824 25.9274 36.5802 26.5846C36.4285 27.2418 36.3527 28.1518 36.3527 29.3146V64.2738C36.3527 65.7399 36.5043 66.8521 36.8077 67.6105C37.111 68.3688 37.6924 68.8743 38.5518 69.1271C39.4618 69.3799 40.8268 69.5063 42.6468 69.5063C42.7985 69.5063 42.8743 69.658 42.8743 69.9613C42.8743 70.2646 42.7985 70.4163 42.6468 70.4163C41.2313 70.4163 39.6388 70.391 37.8693 70.3405C36.0999 70.2899 34.1535 70.2646 32.0302 70.2646C30.0079 70.2646 28.1121 70.2899 26.3427 70.3405C24.5732 70.391 22.9554 70.4163 21.4893 70.4163C21.3377 70.4163 21.2618 70.2646 21.2618 69.9613C21.2618 69.658 21.3377 69.5063 21.4893 69.5063C23.2588 69.5063 24.5985 69.3799 25.5085 69.1271C26.4185 68.8743 27.0252 68.3688 27.3285 67.6105C27.6824 66.8521 27.8593 65.7399 27.8593 64.2738V29.163C27.8593 28.0507 27.7582 27.1913 27.556 26.5846C27.4043 25.9274 27.0757 25.4724 26.5702 25.2196C26.0646 24.9163 25.3316 24.7646 24.371 24.7646Z" fill="#FFBB00"/>
<path d="M296.946 44.1133C309.599 45.5 320.779 48.5333 320.779 58.8467C320.779 69.5933 308.213 78.1733 269.126 78C237.579 77.8267 221.459 69.94 221.459 59.1933C221.459 51.9133 228.826 47.6667 238.619 47.6667C245.379 47.6667 252.313 49.8333 252.313 55.9867C252.313 63.2667 243.733 64.3933 235.673 63.2667C241.219 66.3 250.839 68.38 265.226 68.38C281.259 68.38 289.926 65.6933 289.926 59.02C289.926 53.7333 284.639 50.0067 270.513 50.0067H260.633V40.1267H270.513C282.646 40.1267 286.459 36.5733 286.459 31.5467C286.459 25.3067 280.046 22.62 264.359 22.62C250.579 22.62 241.306 24.7 235.846 27.7333C243.819 25.74 253.093 27.4733 253.093 34.9267C253.093 41.4267 245.899 43.3333 239.399 43.3333C229.693 43.3333 222.586 39.0867 222.586 31.5467C222.586 19.9333 239.139 13 268.779 13C302.406 13 317.313 19.5 317.313 30.94C317.313 40.1267 307.866 44.0267 296.946 44.1133Z" fill="#FFBB00"/>
</svg>
