<svg width="46" height="246" viewBox="0 0 46 246" fill="none" xmlns="http://www.w3.org/2000/svg">
<path d="M31.9354 1.95H38.8354L39.8704 0.54C39.8704 0.54 39.9304 0.595 40.0504 0.705C40.1804 0.804999 40.3404 0.939999 40.5304 1.11C40.7304 1.27 40.9354 1.445 41.1454 1.635C41.3554 1.815 41.5454 1.985 41.7154 2.145C41.6754 2.305 41.5354 2.385 41.2954 2.385L32.0554 2.385L31.9354 1.95ZM38.3554 1.98H40.1554V11.865C40.1554 12.265 40.1004 12.62 39.9904 12.93C39.8804 13.25 39.6504 13.51 39.3004 13.71C38.9504 13.91 38.4154 14.035 37.6954 14.085C37.6754 13.795 37.6354 13.54 37.5754 13.32C37.5154 13.11 37.4154 12.94 37.2754 12.81C37.1354 12.67 36.9504 12.55 36.7204 12.45C36.4904 12.35 36.1404 12.265 35.6704 12.195V12C35.6704 12 35.7704 12.005 35.9704 12.015C36.1704 12.025 36.4054 12.04 36.6754 12.06C36.9554 12.07 37.2204 12.085 37.4704 12.105C37.7304 12.115 37.9054 12.12 37.9954 12.12C38.1354 12.12 38.2304 12.09 38.2804 12.03C38.3304 11.97 38.3554 11.895 38.3554 11.805V1.98ZM33.2104 8.82H36.1504V9.24H33.2104V8.82ZM32.2804 4.515V3.84L33.9304 4.515H36.0754V4.935H33.8704V10.08C33.8704 10.13 33.8004 10.195 33.6604 10.275C33.5304 10.355 33.3604 10.43 33.1504 10.5C32.9504 10.56 32.7404 10.59 32.5204 10.59H32.2804V4.515ZM35.4004 4.515H35.2354L36.0304 3.645L37.6804 4.92C37.6304 4.98 37.5454 5.04 37.4254 5.1C37.3154 5.16 37.1804 5.21 37.0204 5.25V9.885C37.0104 9.915 36.9304 9.965 36.7804 10.035C36.6404 10.105 36.4654 10.17 36.2554 10.23C36.0554 10.28 35.8604 10.305 35.6704 10.305H35.4004V4.515ZM29.1904 4.8L29.7904 4.005L31.4104 4.605C31.3904 4.675 31.3454 4.735 31.2754 4.785C31.2054 4.825 31.1004 4.86 30.9604 4.89V13.575C30.9504 13.615 30.8704 13.675 30.7204 13.755C30.5804 13.835 30.4004 13.91 30.1804 13.98C29.9704 14.05 29.7504 14.085 29.5204 14.085H29.1904V4.8ZM30.2854 -3.57628e-07L32.7004 0.734999C32.6604 0.824999 32.5904 0.899999 32.4904 0.96C32.4004 1.02 32.2704 1.045 32.1004 1.035C31.7304 2.035 31.3004 2.955 30.8104 3.795C30.3304 4.635 29.8004 5.395 29.2204 6.075C28.6504 6.745 28.0354 7.34 27.3754 7.86L27.1954 7.74C27.6054 7.12 28.0054 6.395 28.3954 5.565C28.7954 4.725 29.1604 3.83 29.4904 2.88C29.8204 1.93 30.0854 0.97 30.2854 -3.57628e-07ZM39.3004 23.545C39.1804 23.535 39.0704 23.48 38.9704 23.38C38.8704 23.27 38.7554 23.13 38.6254 22.96C38.4854 22.75 38.3154 22.515 38.1154 22.255C37.9154 21.985 37.6404 21.7 37.2904 21.4L37.4254 21.205C37.8454 21.325 38.2254 21.46 38.5654 21.61C38.9154 21.76 39.2054 21.94 39.4354 22.15C39.5954 22.29 39.7054 22.43 39.7654 22.57C39.8254 22.71 39.8554 22.855 39.8554 23.005C39.8554 23.155 39.8054 23.285 39.7054 23.395C39.6054 23.495 39.4704 23.545 39.3004 23.545ZM37.5454 29.11C37.1654 29.11 36.7854 29.09 36.4054 29.05C36.0354 29.01 35.6754 28.935 35.3254 28.825C34.9854 28.715 34.6604 28.56 34.3504 28.36C33.8304 28.03 33.4154 27.59 33.1054 27.04C32.7954 26.48 32.6404 25.73 32.6404 24.79C32.6404 24.07 32.7454 23.39 32.9554 22.75C33.1754 22.11 33.4854 21.525 33.8854 20.995C34.2854 20.455 34.7704 19.995 35.3404 19.615C35.4004 19.565 35.4254 19.525 35.4154 19.495C35.4154 19.455 35.3704 19.445 35.2804 19.465C34.6904 19.595 34.0854 19.76 33.4654 19.96C32.8554 20.15 32.2904 20.35 31.7704 20.56C31.2604 20.77 30.8504 20.965 30.5404 21.145C30.3904 21.235 30.2304 21.345 30.0604 21.475C29.9004 21.605 29.7104 21.67 29.4904 21.67C29.3204 21.67 29.1354 21.615 28.9354 21.505C28.7354 21.395 28.5454 21.255 28.3654 21.085C28.1854 20.905 28.0354 20.72 27.9154 20.53C27.7954 20.33 27.7304 20.135 27.7204 19.945C27.7104 19.775 27.7204 19.61 27.7504 19.45C27.7904 19.28 27.8204 19.135 27.8404 19.015L28.0204 18.955C28.1604 19.145 28.3104 19.32 28.4704 19.48C28.6304 19.64 28.8104 19.72 29.0104 19.72C29.2304 19.72 29.5304 19.69 29.9104 19.63C30.2904 19.56 30.7254 19.47 31.2154 19.36C31.7154 19.24 32.2604 19.11 32.8504 18.97C33.4504 18.82 34.0754 18.665 34.7254 18.505C35.2654 18.375 35.7804 18.255 36.2704 18.145C36.7704 18.025 37.2054 17.93 37.5754 17.86C37.9454 17.78 38.2104 17.74 38.3704 17.74C38.5904 17.74 38.8104 17.76 39.0304 17.8C39.2504 17.83 39.4554 17.89 39.6454 17.98C39.8454 18.08 40.0104 18.2 40.1404 18.34C40.2804 18.47 40.3504 18.635 40.3504 18.835C40.3504 19.025 40.2754 19.185 40.1254 19.315C39.9854 19.445 39.7954 19.51 39.5554 19.51C39.3554 19.51 39.1354 19.5 38.8954 19.48C38.6654 19.46 38.4454 19.45 38.2354 19.45C37.8854 19.45 37.4954 19.485 37.0654 19.555C36.6354 19.615 36.2204 19.79 35.8204 20.08C35.6904 20.17 35.5254 20.32 35.3254 20.53C35.1254 20.74 34.9254 21.015 34.7254 21.355C34.5254 21.685 34.3554 22.09 34.2154 22.57C34.0854 23.04 34.0204 23.595 34.0204 24.235C34.0204 24.815 34.0904 25.28 34.2304 25.63C34.3804 25.97 34.5554 26.235 34.7554 26.425C34.9554 26.605 35.1454 26.74 35.3254 26.83C35.6054 26.98 35.9104 27.08 36.2404 27.13C36.5804 27.18 36.8954 27.21 37.1854 27.22C37.4754 27.22 37.6904 27.22 37.8304 27.22C38.0004 27.22 38.1704 27.27 38.3404 27.37C38.5204 27.46 38.6704 27.585 38.7904 27.745C38.9204 27.895 38.9854 28.065 38.9854 28.255C38.9854 28.485 38.9104 28.66 38.7604 28.78C38.6204 28.91 38.4404 28.995 38.2204 29.035C38.0004 29.085 37.7754 29.11 37.5454 29.11ZM40.7704 22.405C40.6204 22.405 40.4954 22.355 40.3954 22.255C40.2954 22.145 40.1704 21.995 40.0204 21.805C39.8804 21.625 39.7154 21.425 39.5254 21.205C39.3354 20.985 39.0454 20.725 38.6554 20.425L38.7754 20.215C39.2054 20.305 39.5854 20.41 39.9154 20.53C40.2554 20.65 40.5304 20.79 40.7404 20.95C40.9304 21.09 41.0654 21.24 41.1454 21.4C41.2254 21.55 41.2654 21.71 41.2654 21.88C41.2654 22.04 41.2204 22.17 41.1304 22.27C41.0504 22.36 40.9304 22.405 40.7704 22.405ZM35.2654 45.71C34.4854 45.71 33.8404 45.57 33.3304 45.29C32.8304 45.02 32.4554 44.64 32.2054 44.15C31.9654 43.66 31.8454 43.105 31.8454 42.485C31.8454 42.125 31.8754 41.695 31.9354 41.195C31.9954 40.685 32.0704 40.155 32.1604 39.605C32.2604 39.045 32.3604 38.515 32.4604 38.015C32.5704 37.505 32.6654 37.08 32.7454 36.74C32.8754 36.27 32.9854 35.86 33.0754 35.51C33.1654 35.15 33.2354 34.845 33.2854 34.595C33.3454 34.345 33.3754 34.155 33.3754 34.025C33.3854 33.845 33.3504 33.71 33.2704 33.62C33.2004 33.52 33.1004 33.43 32.9704 33.35C32.8804 33.3 32.7754 33.25 32.6554 33.2C32.5354 33.14 32.4204 33.095 32.3104 33.065L32.3254 32.825C32.4754 32.775 32.6304 32.735 32.7904 32.705C32.9604 32.665 33.1604 32.645 33.3904 32.645C33.6204 32.645 33.8504 32.695 34.0804 32.795C34.3204 32.895 34.5404 33.025 34.7404 33.185C34.9404 33.335 35.1004 33.495 35.2204 33.665C35.3404 33.825 35.4004 33.97 35.4004 34.1C35.4004 34.28 35.3504 34.43 35.2504 34.55C35.1504 34.67 35.0554 34.81 34.9654 34.97C34.8354 35.19 34.6954 35.45 34.5454 35.75C34.4054 36.05 34.2404 36.455 34.0504 36.965C33.9304 37.305 33.7904 37.7 33.6304 38.15C33.4804 38.6 33.3354 39.075 33.1954 39.575C33.0654 40.065 32.9554 40.555 32.8654 41.045C32.7754 41.525 32.7304 41.965 32.7304 42.365C32.7304 43.055 32.9254 43.565 33.3154 43.895C33.7154 44.215 34.2604 44.375 34.9504 44.375C35.5104 44.375 36.0054 44.26 36.4354 44.03C36.8754 43.8 37.2154 43.495 37.4554 43.115C37.6954 42.725 37.8154 42.29 37.8154 41.81C37.8154 41.24 37.7204 40.745 37.5304 40.325C37.3404 39.895 37.0754 39.5 36.7354 39.14C36.4054 38.78 36.0254 38.44 35.5954 38.12L35.7454 37.91C36.5854 38.23 37.2854 38.61 37.8454 39.05C38.4054 39.49 38.8254 39.98 39.1054 40.52C39.3854 41.05 39.5254 41.625 39.5254 42.245C39.5254 42.625 39.4454 43.02 39.2854 43.43C39.1254 43.84 38.8754 44.22 38.5354 44.57C38.1954 44.91 37.7554 45.185 37.2154 45.395C36.6854 45.605 36.0354 45.71 35.2654 45.71ZM34.4854 41.525C34.1854 41.555 33.8204 41.56 33.3904 41.54C32.9604 41.52 32.5404 41.465 32.1304 41.375C31.3604 41.185 30.7654 40.89 30.3454 40.49C29.9354 40.09 29.7304 39.655 29.7304 39.185C29.7304 38.905 29.8054 38.63 29.9554 38.36C30.1154 38.08 30.3254 37.815 30.5854 37.565C30.8554 37.315 31.1604 37.095 31.5004 36.905C31.3304 36.845 31.1654 36.78 31.0054 36.71C30.8554 36.63 30.6954 36.525 30.5254 36.395C30.3054 36.215 30.1204 36 29.9704 35.75C29.8204 35.49 29.7154 35.11 29.6554 34.61L29.8354 34.505C30.0154 34.745 30.2154 34.97 30.4354 35.18C30.6554 35.38 30.9304 35.54 31.2604 35.66C31.8404 35.86 32.3854 35.965 32.8954 35.975C33.4154 35.985 33.8904 36.015 34.3204 36.065C34.7104 36.105 34.9854 36.22 35.1454 36.41C35.3054 36.59 35.3854 36.78 35.3854 36.98C35.3854 37.19 35.3154 37.335 35.1754 37.415C35.0454 37.495 34.8704 37.545 34.6504 37.565C34.4804 37.585 34.2804 37.59 34.0504 37.58C33.8204 37.57 33.5904 37.555 33.3604 37.535C33.1404 37.505 32.9304 37.49 32.7304 37.49C32.4804 37.49 32.2204 37.53 31.9504 37.61C31.6804 37.69 31.4254 37.795 31.1854 37.925C30.9554 38.055 30.7654 38.205 30.6154 38.375C30.4754 38.535 30.4054 38.695 30.4054 38.855C30.4054 39.025 30.4854 39.18 30.6454 39.32C30.8054 39.46 31.0304 39.575 31.3204 39.665C31.6204 39.755 31.9654 39.82 32.3554 39.86C32.8154 39.91 33.2404 39.93 33.6304 39.92C34.0204 39.9 34.3354 39.9 34.5754 39.92C34.8454 39.93 35.0604 40 35.2204 40.13C35.3804 40.26 35.4604 40.455 35.4604 40.715C35.4604 40.935 35.3754 41.115 35.2054 41.255C35.0354 41.385 34.7954 41.475 34.4854 41.525ZM33.5404 49.44L34.3054 48.24L36.3304 49.71C36.1804 49.88 35.9354 50.015 35.5954 50.115C35.2554 50.215 34.8554 50.285 34.3954 50.325V50.85C34.5554 52.37 34.9254 53.73 35.5054 54.93C36.0854 56.12 36.8854 57.16 37.9054 58.05C38.9254 58.93 40.1604 59.675 41.6104 60.285L41.5654 60.435C41.1154 60.485 40.7454 60.65 40.4554 60.93C40.1754 61.21 39.9504 61.6 39.7804 62.1C39.2804 61.81 38.7754 61.425 38.2654 60.945C37.7554 60.475 37.2704 59.935 36.8104 59.325C36.3504 58.705 35.9404 58.035 35.5804 57.315C35.2304 56.595 34.9604 55.85 34.7704 55.08C34.4104 56.09 33.8804 57.045 33.1804 57.945C32.4904 58.835 31.6704 59.635 30.7204 60.345C29.7804 61.045 28.7304 61.62 27.5704 62.07L27.4654 61.92C28.2854 61.46 29.0654 60.855 29.8054 60.105C30.5454 59.345 31.2054 58.48 31.7854 57.51C32.3754 56.53 32.8554 55.47 33.2254 54.33C33.6054 53.19 33.8404 52.005 33.9304 50.775V49.875H30.4354L30.3154 49.44H33.5404ZM38.6104 76.375C38.0004 76.375 37.5254 76.195 37.1854 75.835C36.8454 75.475 36.6754 74.9 36.6754 74.11C36.6754 73.5 36.7204 72.915 36.8104 72.355C36.9104 71.795 37.0054 71.245 37.0954 70.705C37.1954 70.155 37.2454 69.605 37.2454 69.055C37.2454 68.595 37.1804 68.245 37.0504 68.005C36.9204 67.765 36.6704 67.645 36.3004 67.645C35.8304 67.645 35.3304 67.8 34.8004 68.11C34.2704 68.42 33.7454 68.83 33.2254 69.34C32.7154 69.85 32.2504 70.405 31.8304 71.005L31.8904 69.91C32.1504 69.64 32.4654 69.33 32.8354 68.98C33.2154 68.63 33.6254 68.3 34.0654 67.99C34.5154 67.68 34.9754 67.425 35.4454 67.225C35.9154 67.015 36.3754 66.91 36.8254 66.91C37.5554 66.91 38.0754 67.115 38.3854 67.525C38.7054 67.935 38.8654 68.515 38.8654 69.265C38.8654 69.615 38.8354 69.97 38.7754 70.33C38.7154 70.69 38.6454 71.06 38.5654 71.44C38.4954 71.82 38.4304 72.205 38.3704 72.595C38.3204 72.975 38.2954 73.36 38.2954 73.75C38.2954 74.14 38.3704 74.42 38.5204 74.59C38.6704 74.75 38.9054 74.83 39.2254 74.83C39.6754 74.83 40.1004 74.745 40.5004 74.575C40.9004 74.395 41.3154 74.135 41.7454 73.795L41.9104 73.96C41.7304 74.33 41.4854 74.705 41.1754 75.085C40.8754 75.455 40.5104 75.765 40.0804 76.015C39.6504 76.255 39.1604 76.375 38.6104 76.375ZM28.3354 76C28.1754 76.01 28.0254 75.94 27.8854 75.79C27.7454 75.64 27.6754 75.435 27.6754 75.175C27.6754 74.955 27.7104 74.76 27.7804 74.59C27.8504 74.41 27.9604 74.245 28.1104 74.095C28.3104 73.895 28.5554 73.625 28.8454 73.285C29.1454 72.945 29.4604 72.565 29.7904 72.145C30.1204 71.725 30.4454 71.29 30.7654 70.84C31.0854 70.38 31.3804 69.935 31.6504 69.505L31.7404 71.335C31.5404 71.645 31.3354 71.96 31.1254 72.28C30.9154 72.6 30.7004 72.925 30.4804 73.255C30.2704 73.585 30.0554 73.915 29.8354 74.245C29.6254 74.565 29.4154 74.89 29.2054 75.22C29.0654 75.42 28.9304 75.6 28.8004 75.76C28.6804 75.92 28.5254 76 28.3354 76ZM31.4404 77.665C31.1804 77.665 30.9904 77.6 30.8704 77.47C30.7604 77.34 30.6904 77.17 30.6604 76.96C30.6204 76.75 30.5754 76.55 30.5254 76.36C30.4854 76.16 30.4204 75.95 30.3304 75.73C30.2804 75.61 30.2204 75.48 30.1504 75.34C30.0804 75.2 30.0004 75.05 29.9104 74.89C29.8204 74.73 29.7254 74.58 29.6254 74.44C29.5254 74.29 29.4254 74.145 29.3254 74.005L29.4754 73.705C29.5754 73.815 29.7054 73.955 29.8654 74.125C30.0254 74.295 30.1854 74.455 30.3454 74.605C30.5054 74.745 30.6254 74.855 30.7054 74.935C30.9154 75.125 31.0304 75.075 31.0504 74.785C31.0504 74.515 31.0554 74.16 31.0654 73.72C31.0754 73.27 31.0854 72.78 31.0954 72.25C31.1054 71.71 31.1304 71.19 31.1704 70.69C31.2004 70.25 31.2404 69.795 31.2904 69.325C31.3404 68.845 31.3854 68.39 31.4254 67.96C31.4754 67.53 31.5154 67.145 31.5454 66.805C31.5854 66.465 31.6054 66.21 31.6054 66.04C31.6054 65.87 31.5854 65.755 31.5454 65.695C31.5154 65.625 31.4304 65.55 31.2904 65.47C31.1804 65.4 31.0504 65.34 30.9004 65.29C30.7504 65.23 30.5704 65.17 30.3604 65.11V64.855C30.5504 64.775 30.7404 64.71 30.9304 64.66C31.1304 64.6 31.3404 64.57 31.5604 64.57C31.7604 64.57 31.9704 64.62 32.1904 64.72C32.4104 64.81 32.6104 64.93 32.7904 65.08C32.9704 65.23 33.1154 65.39 33.2254 65.56C33.3454 65.72 33.4054 65.87 33.4054 66.01C33.4054 66.18 33.3654 66.34 33.2854 66.49C33.2054 66.63 33.1154 66.82 33.0154 67.06C32.9354 67.26 32.8504 67.525 32.7604 67.855C32.6704 68.175 32.5804 68.53 32.4904 68.92C32.4104 69.3 32.3404 69.675 32.2804 70.045C32.2204 70.415 32.1804 70.73 32.1604 70.99C32.1304 71.39 32.1204 71.815 32.1304 72.265C32.1404 72.715 32.1604 73.145 32.1904 73.555C32.2304 73.965 32.2654 74.33 32.2954 74.65C32.3254 74.95 32.3604 75.21 32.4004 75.43C32.4404 75.65 32.4604 75.865 32.4604 76.075C32.4604 76.375 32.4104 76.64 32.3104 76.87C32.2204 77.11 32.1004 77.3 31.9504 77.44C31.8104 77.59 31.6404 77.665 31.4404 77.665ZM29.5354 70.585C29.3154 70.585 29.0854 70.51 28.8454 70.36C28.6154 70.21 28.4104 70.03 28.2304 69.82C28.0504 69.6 27.9254 69.385 27.8554 69.175C27.8154 69.055 27.8004 68.915 27.8104 68.755C27.8204 68.595 27.8304 68.45 27.8404 68.32L28.0504 68.26C28.1804 68.44 28.3104 68.595 28.4404 68.725C28.5704 68.845 28.7204 68.905 28.8904 68.905C29.0304 68.905 29.2354 68.86 29.5054 68.77C29.7854 68.67 30.0804 68.545 30.3904 68.395C30.7104 68.245 31.0054 68.1 31.2754 67.96C31.5554 67.82 31.7704 67.71 31.9204 67.63C32.0404 67.57 32.1454 67.54 32.2354 67.54C32.3254 67.53 32.4054 67.54 32.4754 67.57C32.5854 67.62 32.7054 67.705 32.8354 67.825C32.9654 67.935 33.0754 68.05 33.1654 68.17C33.2654 68.28 33.3154 68.365 33.3154 68.425C33.3154 68.525 33.2854 68.615 33.2254 68.695C33.1654 68.775 33.0854 68.88 32.9854 69.01C32.7854 69.23 32.5954 69.465 32.4154 69.715C32.2354 69.965 32.0554 70.215 31.8754 70.465L31.9354 69.565C31.9754 69.485 32.0204 69.37 32.0704 69.22C32.1204 69.07 32.1554 68.95 32.1754 68.86C31.9854 68.94 31.7654 69.05 31.5154 69.19C31.2754 69.32 31.0454 69.455 30.8254 69.595C30.6054 69.735 30.4304 69.845 30.3004 69.925C30.2004 69.995 30.1104 70.085 30.0304 70.195C29.9604 70.295 29.8854 70.385 29.8054 70.465C29.7354 70.545 29.6454 70.585 29.5354 70.585ZM32.0254 93.2C32.6154 93.12 33.1804 93.015 33.7204 92.885C34.2704 92.765 34.7154 92.64 35.0554 92.51C35.9154 92.2 36.5854 91.865 37.0654 91.505C37.5454 91.135 37.8804 90.755 38.0704 90.365C38.2704 89.965 38.3704 89.56 38.3704 89.15C38.3704 88.79 38.2904 88.455 38.1304 88.145C37.9804 87.835 37.7554 87.585 37.4554 87.395C37.1654 87.205 36.8054 87.11 36.3754 87.11C35.9554 87.11 35.5354 87.21 35.1154 87.41C34.6954 87.61 34.2904 87.865 33.9004 88.175C33.5204 88.475 33.1704 88.79 32.8504 89.12C32.5304 89.45 32.2604 89.75 32.0404 90.02C31.9204 90.19 31.8104 90.365 31.7104 90.545C31.6104 90.715 31.5054 90.86 31.3954 90.98C31.2854 91.09 31.1454 91.145 30.9754 91.145C30.6854 91.145 30.4004 90.98 30.1204 90.65C29.9904 90.51 29.8904 90.36 29.8204 90.2C29.7604 90.04 29.7304 89.875 29.7304 89.705C29.7304 89.565 29.7504 89.405 29.7904 89.225C29.8304 89.035 29.8754 88.795 29.9254 88.505C29.9654 88.265 30.0104 87.965 30.0604 87.605C30.1204 87.245 30.1754 86.885 30.2254 86.525C30.2854 86.155 30.3254 85.85 30.3454 85.61C30.3654 85.39 30.3754 85.205 30.3754 85.055C30.3754 84.905 30.3754 84.735 30.3754 84.545C30.3754 84.345 30.4254 84.15 30.5254 83.96C30.6254 83.76 30.8054 83.635 31.0654 83.585C31.2854 83.545 31.5604 83.485 31.8904 83.405C32.2304 83.325 32.5604 83.235 32.8804 83.135C33.2104 83.035 33.4604 82.94 33.6304 82.85C33.8004 82.76 33.8204 82.625 33.6904 82.445C33.5004 82.135 33.2304 81.895 32.8804 81.725C32.5304 81.545 32.1204 81.38 31.6504 81.23L31.7104 81.005C32.4604 80.955 33.0754 80.98 33.5554 81.08C34.0454 81.18 34.4404 81.32 34.7404 81.5C35.1704 81.74 35.5004 82.025 35.7304 82.355C35.9604 82.685 36.0754 83.07 36.0754 83.51C36.0754 83.72 36.0204 83.885 35.9104 84.005C35.8004 84.125 35.6204 84.185 35.3704 84.185C35.2004 84.185 35.0404 84.17 34.8904 84.14C34.7504 84.11 34.5954 84.08 34.4254 84.05C34.2654 84.01 34.0704 83.98 33.8404 83.96C33.6104 83.95 33.3554 83.95 33.0754 83.96C32.8054 83.97 32.5504 83.99 32.3104 84.02C32.0804 84.04 31.9004 84.065 31.7704 84.095C31.6404 84.105 31.5504 84.14 31.5004 84.2C31.4604 84.26 31.4404 84.315 31.4404 84.365C31.4404 84.485 31.4804 84.635 31.5604 84.815C31.6404 84.995 31.6904 85.19 31.7104 85.4C31.7204 85.61 31.7154 85.81 31.6954 86C31.6754 86.18 31.6454 86.39 31.6054 86.63C31.5754 86.93 31.5254 87.225 31.4554 87.515C31.3954 87.805 31.3704 88.06 31.3804 88.28C31.3904 88.44 31.4554 88.48 31.5754 88.4C31.8454 88.23 32.1554 88.035 32.5054 87.815C32.8654 87.595 33.2604 87.385 33.6904 87.185C34.1204 86.975 34.5754 86.805 35.0554 86.675C35.5454 86.545 36.0404 86.48 36.5404 86.48C37.3504 86.48 38.0204 86.64 38.5504 86.96C39.0804 87.28 39.4804 87.69 39.7504 88.19C40.0204 88.68 40.1554 89.195 40.1554 89.735C40.1554 90.325 39.9954 90.84 39.6754 91.28C39.3554 91.72 38.9254 92.1 38.3854 92.42C37.8454 92.73 37.2254 92.975 36.5254 93.155C35.8254 93.345 35.0954 93.465 34.3354 93.515C33.5754 93.575 32.8154 93.57 32.0554 93.5L32.0254 93.2ZM38.6104 108.375C38.0004 108.375 37.5254 108.195 37.1854 107.835C36.8454 107.475 36.6754 106.9 36.6754 106.11C36.6754 105.5 36.7204 104.915 36.8104 104.355C36.9104 103.795 37.0054 103.245 37.0954 102.705C37.1954 102.155 37.2454 101.605 37.2454 101.055C37.2454 100.595 37.1804 100.245 37.0504 100.005C36.9204 99.765 36.6704 99.645 36.3004 99.645C35.8304 99.645 35.3304 99.8 34.8004 100.11C34.2704 100.42 33.7454 100.83 33.2254 101.34C32.7154 101.85 32.2504 102.405 31.8304 103.005L31.8904 101.91C32.1504 101.64 32.4654 101.33 32.8354 100.98C33.2154 100.63 33.6254 100.3 34.0654 99.99C34.5154 99.68 34.9754 99.425 35.4454 99.225C35.9154 99.015 36.3754 98.91 36.8254 98.91C37.5554 98.91 38.0754 99.115 38.3854 99.525C38.7054 99.935 38.8654 100.515 38.8654 101.265C38.8654 101.615 38.8354 101.97 38.7754 102.33C38.7154 102.69 38.6454 103.06 38.5654 103.44C38.4954 103.82 38.4304 104.205 38.3704 104.595C38.3204 104.975 38.2954 105.36 38.2954 105.75C38.2954 106.14 38.3704 106.42 38.5204 106.59C38.6704 106.75 38.9054 106.83 39.2254 106.83C39.6754 106.83 40.1004 106.745 40.5004 106.575C40.9004 106.395 41.3154 106.135 41.7454 105.795L41.9104 105.96C41.7304 106.33 41.4854 106.705 41.1754 107.085C40.8754 107.455 40.5104 107.765 40.0804 108.015C39.6504 108.255 39.1604 108.375 38.6104 108.375ZM28.3354 108C28.1754 108.01 28.0254 107.94 27.8854 107.79C27.7454 107.64 27.6754 107.435 27.6754 107.175C27.6754 106.955 27.7104 106.76 27.7804 106.59C27.8504 106.41 27.9604 106.245 28.1104 106.095C28.3104 105.895 28.5554 105.625 28.8454 105.285C29.1454 104.945 29.4604 104.565 29.7904 104.145C30.1204 103.725 30.4454 103.29 30.7654 102.84C31.0854 102.38 31.3804 101.935 31.6504 101.505L31.7404 103.335C31.5404 103.645 31.3354 103.96 31.1254 104.28C30.9154 104.6 30.7004 104.925 30.4804 105.255C30.2704 105.585 30.0554 105.915 29.8354 106.245C29.6254 106.565 29.4154 106.89 29.2054 107.22C29.0654 107.42 28.9304 107.6 28.8004 107.76C28.6804 107.92 28.5254 108 28.3354 108ZM31.4404 109.665C31.1804 109.665 30.9904 109.6 30.8704 109.47C30.7604 109.34 30.6904 109.17 30.6604 108.96C30.6204 108.75 30.5754 108.55 30.5254 108.36C30.4854 108.16 30.4204 107.95 30.3304 107.73C30.2804 107.61 30.2204 107.48 30.1504 107.34C30.0804 107.2 30.0004 107.05 29.9104 106.89C29.8204 106.73 29.7254 106.58 29.6254 106.44C29.5254 106.29 29.4254 106.145 29.3254 106.005L29.4754 105.705C29.5754 105.815 29.7054 105.955 29.8654 106.125C30.0254 106.295 30.1854 106.455 30.3454 106.605C30.5054 106.745 30.6254 106.855 30.7054 106.935C30.9154 107.125 31.0304 107.075 31.0504 106.785C31.0504 106.515 31.0554 106.16 31.0654 105.72C31.0754 105.27 31.0854 104.78 31.0954 104.25C31.1054 103.71 31.1304 103.19 31.1704 102.69C31.2004 102.25 31.2404 101.795 31.2904 101.325C31.3404 100.845 31.3854 100.39 31.4254 99.96C31.4754 99.53 31.5154 99.145 31.5454 98.805C31.5854 98.465 31.6054 98.21 31.6054 98.04C31.6054 97.87 31.5854 97.755 31.5454 97.695C31.5154 97.625 31.4304 97.55 31.2904 97.47C31.1804 97.4 31.0504 97.34 30.9004 97.29C30.7504 97.23 30.5704 97.17 30.3604 97.11V96.855C30.5504 96.775 30.7404 96.71 30.9304 96.66C31.1304 96.6 31.3404 96.57 31.5604 96.57C31.7604 96.57 31.9704 96.62 32.1904 96.72C32.4104 96.81 32.6104 96.93 32.7904 97.08C32.9704 97.23 33.1154 97.39 33.2254 97.56C33.3454 97.72 33.4054 97.87 33.4054 98.01C33.4054 98.18 33.3654 98.34 33.2854 98.49C33.2054 98.63 33.1154 98.82 33.0154 99.06C32.9354 99.26 32.8504 99.525 32.7604 99.855C32.6704 100.175 32.5804 100.53 32.4904 100.92C32.4104 101.3 32.3404 101.675 32.2804 102.045C32.2204 102.415 32.1804 102.73 32.1604 102.99C32.1304 103.39 32.1204 103.815 32.1304 104.265C32.1404 104.715 32.1604 105.145 32.1904 105.555C32.2304 105.965 32.2654 106.33 32.2954 106.65C32.3254 106.95 32.3604 107.21 32.4004 107.43C32.4404 107.65 32.4604 107.865 32.4604 108.075C32.4604 108.375 32.4104 108.64 32.3104 108.87C32.2204 109.11 32.1004 109.3 31.9504 109.44C31.8104 109.59 31.6404 109.665 31.4404 109.665ZM29.5354 102.585C29.3154 102.585 29.0854 102.51 28.8454 102.36C28.6154 102.21 28.4104 102.03 28.2304 101.82C28.0504 101.6 27.9254 101.385 27.8554 101.175C27.8154 101.055 27.8004 100.915 27.8104 100.755C27.8204 100.595 27.8304 100.45 27.8404 100.32L28.0504 100.26C28.1804 100.44 28.3104 100.595 28.4404 100.725C28.5704 100.845 28.7204 100.905 28.8904 100.905C29.0304 100.905 29.2354 100.86 29.5054 100.77C29.7854 100.67 30.0804 100.545 30.3904 100.395C30.7104 100.245 31.0054 100.1 31.2754 99.96C31.5554 99.82 31.7704 99.71 31.9204 99.63C32.0404 99.57 32.1454 99.54 32.2354 99.54C32.3254 99.53 32.4054 99.54 32.4754 99.57C32.5854 99.62 32.7054 99.705 32.8354 99.825C32.9654 99.935 33.0754 100.05 33.1654 100.17C33.2654 100.28 33.3154 100.365 33.3154 100.425C33.3154 100.525 33.2854 100.615 33.2254 100.695C33.1654 100.775 33.0854 100.88 32.9854 101.01C32.7854 101.23 32.5954 101.465 32.4154 101.715C32.2354 101.965 32.0554 102.215 31.8754 102.465L31.9354 101.565C31.9754 101.485 32.0204 101.37 32.0704 101.22C32.1204 101.07 32.1554 100.95 32.1754 100.86C31.9854 100.94 31.7654 101.05 31.5154 101.19C31.2754 101.32 31.0454 101.455 30.8254 101.595C30.6054 101.735 30.4304 101.845 30.3004 101.925C30.2004 101.995 30.1104 102.085 30.0304 102.195C29.9604 102.295 29.8854 102.385 29.8054 102.465C29.7354 102.545 29.6454 102.585 29.5354 102.585ZM34.6804 125.44C34.1004 125.44 33.5754 125.355 33.1054 125.185C32.6454 125.025 32.2804 124.79 32.0104 124.48C31.7504 124.17 31.6204 123.8 31.6204 123.37C31.6204 122.87 31.8154 122.475 32.2054 122.185C32.5954 121.885 33.0704 121.735 33.6304 121.735C33.9904 121.735 34.3554 121.815 34.7254 121.975C35.1054 122.125 35.4404 122.37 35.7304 122.71C36.0204 123.04 36.2104 123.48 36.3004 124.03L34.8754 124.285C34.8054 123.735 34.6254 123.29 34.3354 122.95C34.0454 122.61 33.6804 122.44 33.2404 122.44C32.9504 122.44 32.7204 122.51 32.5504 122.65C32.3804 122.78 32.2954 122.96 32.2954 123.19C32.2954 123.47 32.4554 123.695 32.7754 123.865C33.1054 124.035 33.5604 124.12 34.1404 124.12C35.0704 124.12 35.8154 123.99 36.3754 123.73C36.9454 123.46 37.3554 123.11 37.6054 122.68C37.8654 122.24 38.0004 121.77 38.0104 121.27C38.0104 120.82 37.9104 120.42 37.7104 120.07C37.5204 119.72 37.2304 119.445 36.8404 119.245C36.4604 119.035 35.9854 118.93 35.4154 118.93C34.7254 118.93 34.1004 119.08 33.5404 119.38C32.9904 119.67 32.4754 120.055 31.9954 120.535C31.5254 121.005 31.0754 121.52 30.6454 122.08C30.4654 122.31 30.3204 122.47 30.2104 122.56C30.1004 122.64 29.9504 122.675 29.7604 122.665C29.6004 122.655 29.4504 122.565 29.3104 122.395C29.1804 122.215 29.1204 121.98 29.1304 121.69C29.1504 121.49 29.2204 121.3 29.3404 121.12C29.4604 120.93 29.6454 120.715 29.8954 120.475C30.1854 120.195 30.5304 119.86 30.9304 119.47C31.3404 119.07 31.7654 118.66 32.2054 118.24C32.6454 117.81 33.0704 117.39 33.4804 116.98C33.8904 116.56 34.2554 116.18 34.5754 115.84C34.9054 115.5 35.1454 115.22 35.2954 115C35.4254 114.84 35.4654 114.73 35.4154 114.67C35.3654 114.61 35.2804 114.59 35.1604 114.61C34.9704 114.64 34.7504 114.71 34.5004 114.82C34.2604 114.93 34.0154 115.05 33.7654 115.18C33.5154 115.31 33.2954 115.43 33.1054 115.54C32.9654 115.63 32.8254 115.72 32.6854 115.81C32.5554 115.9 32.4104 115.945 32.2504 115.945C31.9604 115.945 31.6954 115.855 31.4554 115.675C31.2254 115.485 31.0354 115.27 30.8854 115.03C30.7454 114.78 30.6654 114.57 30.6454 114.4C30.6354 114.22 30.6404 114.06 30.6604 113.92C30.6904 113.77 30.7254 113.605 30.7654 113.425L30.9754 113.41C31.1054 113.64 31.2604 113.85 31.4404 114.04C31.6204 114.23 31.8054 114.325 31.9954 114.325C32.1254 114.325 32.3104 114.305 32.5504 114.265C32.8004 114.225 33.0704 114.175 33.3604 114.115C33.6504 114.045 33.9304 113.975 34.2004 113.905C34.4804 113.825 34.7204 113.755 34.9204 113.695C35.1204 113.625 35.2604 113.56 35.3404 113.5C35.4304 113.44 35.5054 113.39 35.5654 113.35C35.6354 113.3 35.7204 113.275 35.8204 113.275C36.0004 113.275 36.1954 113.33 36.4054 113.44C36.6254 113.54 36.8354 113.67 37.0354 113.83C37.2354 113.99 37.3954 114.16 37.5154 114.34C37.6454 114.52 37.7104 114.695 37.7104 114.865C37.7104 114.995 37.6604 115.11 37.5604 115.21C37.4604 115.3 37.3304 115.385 37.1704 115.465C37.0104 115.535 36.8504 115.63 36.6904 115.75C36.4404 115.91 36.1504 116.12 35.8204 116.38C35.4904 116.63 35.1554 116.9 34.8154 117.19C34.4854 117.47 34.1804 117.735 33.9004 117.985C33.6304 118.235 33.4254 118.435 33.2854 118.585C33.1954 118.665 33.1654 118.73 33.1954 118.78C33.2254 118.82 33.2804 118.83 33.3604 118.81C33.6104 118.73 33.9454 118.625 34.3654 118.495C34.7854 118.365 35.2854 118.3 35.8654 118.3C36.5454 118.3 37.1654 118.435 37.7254 118.705C38.2854 118.975 38.7304 119.375 39.0604 119.905C39.4004 120.425 39.5704 121.06 39.5704 121.81C39.5604 122.49 39.3654 123.105 38.9854 123.655C38.6054 124.195 38.0504 124.625 37.3204 124.945C36.5904 125.275 35.7104 125.44 34.6804 125.44ZM28.8004 141.275C28.6204 141.275 28.4504 141.19 28.2904 141.02C28.1404 140.85 28.0654 140.625 28.0654 140.345C28.0654 140.125 28.0854 139.95 28.1254 139.82C28.1754 139.69 28.2704 139.54 28.4104 139.37C28.6504 139.06 28.9004 138.72 29.1604 138.35C29.4204 137.97 29.6804 137.555 29.9404 137.105C30.2004 136.655 30.4504 136.185 30.6904 135.695C30.9004 135.245 31.1004 134.795 31.2904 134.345C31.4904 133.885 31.6704 133.44 31.8304 133.01C31.9904 132.58 32.1254 132.185 32.2354 131.825C32.3554 131.465 32.4454 131.155 32.5054 130.895C32.5754 130.635 32.6104 130.45 32.6104 130.34C32.6104 130.24 32.5904 130.15 32.5504 130.07C32.5204 129.99 32.4604 129.93 32.3704 129.89C32.2504 129.81 32.0854 129.74 31.8754 129.68C31.6754 129.62 31.4704 129.57 31.2604 129.53V129.305C31.4204 129.215 31.6104 129.13 31.8304 129.05C32.0504 128.97 32.3154 128.93 32.6254 128.93C32.7954 128.93 32.9954 128.965 33.2254 129.035C33.4654 129.095 33.6954 129.185 33.9154 129.305C34.1454 129.415 34.3354 129.535 34.4854 129.665C34.6354 129.795 34.7104 129.925 34.7104 130.055C34.7104 130.185 34.6704 130.31 34.5904 130.43C34.5104 130.54 34.4204 130.655 34.3204 130.775C34.2204 130.885 34.1354 131.025 34.0654 131.195C33.9654 131.425 33.8304 131.74 33.6604 132.14C33.5004 132.54 33.3204 132.985 33.1204 133.475C32.9204 133.955 32.7154 134.435 32.5054 134.915C32.3054 135.385 32.1154 135.815 31.9354 136.205C31.7654 136.585 31.5804 136.98 31.3804 137.39C31.1904 137.8 30.9954 138.205 30.7954 138.605C30.5954 139.005 30.4054 139.375 30.2254 139.715C30.0554 140.045 29.9054 140.325 29.7754 140.555C29.6054 140.845 29.4504 141.035 29.3104 141.125C29.1704 141.225 29.0004 141.275 28.8004 141.275ZM33.0904 141.11C32.8004 141.11 32.5854 141.04 32.4454 140.9C32.3054 140.76 32.1904 140.505 32.1004 140.135C32.0704 140.035 32.0304 139.945 31.9804 139.865C31.9404 139.775 31.8604 139.66 31.7404 139.52C31.6204 139.38 31.4404 139.18 31.2004 138.92L31.3354 138.725C31.7154 138.915 32.0504 139.07 32.3404 139.19C32.6304 139.31 32.8754 139.37 33.0754 139.37C33.3154 139.37 33.5054 139.33 33.6454 139.25C33.7954 139.17 33.9404 139.035 34.0804 138.845C34.2604 138.635 34.4204 138.355 34.5604 138.005C34.7004 137.645 34.8204 137.255 34.9204 136.835C35.0204 136.415 35.0954 135.99 35.1454 135.56C35.1954 135.13 35.2204 134.725 35.2204 134.345C35.2204 133.945 35.1454 133.645 34.9954 133.445C34.8554 133.235 34.6104 133.13 34.2604 133.13C34.0404 133.13 33.7654 133.17 33.4354 133.25C33.1154 133.33 32.7704 133.435 32.4004 133.565C32.0404 133.695 31.6854 133.83 31.3354 133.97C30.9954 134.11 30.7054 134.235 30.4654 134.345C30.2154 134.455 30.0054 134.55 29.8354 134.63C29.6654 134.7 29.4804 134.735 29.2804 134.735C29.1304 134.735 28.9654 134.66 28.7854 134.51C28.6054 134.36 28.4454 134.18 28.3054 133.97C28.1654 133.76 28.0754 133.55 28.0354 133.34C27.9954 133.14 27.9954 132.955 28.0354 132.785C28.0854 132.615 28.1404 132.455 28.2004 132.305L28.4104 132.26C28.5504 132.5 28.6754 132.695 28.7854 132.845C28.9054 132.995 29.0604 133.07 29.2504 133.07C29.4104 133.07 29.6154 133.05 29.8654 133.01C30.1254 132.96 30.4154 132.905 30.7354 132.845C31.0554 132.775 31.3954 132.705 31.7554 132.635C32.1154 132.565 32.4754 132.5 32.8354 132.44C33.0754 132.39 33.3704 132.345 33.7204 132.305C34.0704 132.255 34.3704 132.23 34.6204 132.23C35.2204 132.23 35.7004 132.435 36.0604 132.845C36.4204 133.245 36.6004 133.945 36.6004 134.945C36.6004 135.585 36.5454 136.235 36.4354 136.895C36.3354 137.555 36.1704 138.175 35.9404 138.755C35.7104 139.335 35.4104 139.83 35.0404 140.24C34.8004 140.49 34.5104 140.695 34.1704 140.855C33.8304 141.025 33.4704 141.11 33.0904 141.11ZM40.2754 137.78C40.1054 137.78 39.9704 137.74 39.8704 137.66C39.7804 137.58 39.6904 137.485 39.6004 137.375C39.5204 137.265 39.3954 137.18 39.2254 137.12C39.1154 137.08 38.9654 137.045 38.7754 137.015C38.5854 136.985 38.3854 136.96 38.1754 136.94C37.9654 136.91 37.7704 136.895 37.5904 136.895L37.5454 136.625C37.7554 136.565 37.9504 136.515 38.1304 136.475C38.3204 136.425 38.4854 136.38 38.6254 136.34C38.7754 136.29 38.9054 136.245 39.0154 136.205C39.1854 136.125 39.3054 136.035 39.3754 135.935C39.4554 135.835 39.4904 135.685 39.4804 135.485C39.4804 135.265 39.4404 134.995 39.3604 134.675C39.2904 134.345 39.1554 134.025 38.9554 133.715C38.7654 133.395 38.5254 133.125 38.2354 132.905C37.9554 132.685 37.6154 132.525 37.2154 132.425L37.3054 132.155C37.7954 132.175 38.2804 132.27 38.7604 132.44C39.2504 132.61 39.6804 132.875 40.0504 133.235C40.4704 133.615 40.7754 134.065 40.9654 134.585C41.1654 135.095 41.2654 135.645 41.2654 136.235C41.2654 136.685 41.1804 137.055 41.0104 137.345C40.8404 137.635 40.5954 137.78 40.2754 137.78ZM32.0254 157.2C32.6154 157.12 33.1804 157.015 33.7204 156.885C34.2704 156.765 34.7154 156.64 35.0554 156.51C35.9154 156.2 36.5854 155.865 37.0654 155.505C37.5454 155.135 37.8804 154.755 38.0704 154.365C38.2704 153.965 38.3704 153.56 38.3704 153.15C38.3704 152.79 38.2904 152.455 38.1304 152.145C37.9804 151.835 37.7554 151.585 37.4554 151.395C37.1654 151.205 36.8054 151.11 36.3754 151.11C35.9554 151.11 35.5354 151.21 35.1154 151.41C34.6954 151.61 34.2904 151.865 33.9004 152.175C33.5204 152.475 33.1704 152.79 32.8504 153.12C32.5304 153.45 32.2604 153.75 32.0404 154.02C31.9204 154.19 31.8104 154.365 31.7104 154.545C31.6104 154.715 31.5054 154.86 31.3954 154.98C31.2854 155.09 31.1454 155.145 30.9754 155.145C30.6854 155.145 30.4004 154.98 30.1204 154.65C29.9904 154.51 29.8904 154.36 29.8204 154.2C29.7604 154.04 29.7304 153.875 29.7304 153.705C29.7304 153.565 29.7504 153.405 29.7904 153.225C29.8304 153.035 29.8754 152.795 29.9254 152.505C29.9654 152.265 30.0104 151.965 30.0604 151.605C30.1204 151.245 30.1754 150.885 30.2254 150.525C30.2854 150.155 30.3254 149.85 30.3454 149.61C30.3654 149.39 30.3754 149.205 30.3754 149.055C30.3754 148.905 30.3754 148.735 30.3754 148.545C30.3754 148.345 30.4254 148.15 30.5254 147.96C30.6254 147.76 30.8054 147.635 31.0654 147.585C31.2854 147.545 31.5604 147.485 31.8904 147.405C32.2304 147.325 32.5604 147.235 32.8804 147.135C33.2104 147.035 33.4604 146.94 33.6304 146.85C33.8004 146.76 33.8204 146.625 33.6904 146.445C33.5004 146.135 33.2304 145.895 32.8804 145.725C32.5304 145.545 32.1204 145.38 31.6504 145.23L31.7104 145.005C32.4604 144.955 33.0754 144.98 33.5554 145.08C34.0454 145.18 34.4404 145.32 34.7404 145.5C35.1704 145.74 35.5004 146.025 35.7304 146.355C35.9604 146.685 36.0754 147.07 36.0754 147.51C36.0754 147.72 36.0204 147.885 35.9104 148.005C35.8004 148.125 35.6204 148.185 35.3704 148.185C35.2004 148.185 35.0404 148.17 34.8904 148.14C34.7504 148.11 34.5954 148.08 34.4254 148.05C34.2654 148.01 34.0704 147.98 33.8404 147.96C33.6104 147.95 33.3554 147.95 33.0754 147.96C32.8054 147.97 32.5504 147.99 32.3104 148.02C32.0804 148.04 31.9004 148.065 31.7704 148.095C31.6404 148.105 31.5504 148.14 31.5004 148.2C31.4604 148.26 31.4404 148.315 31.4404 148.365C31.4404 148.485 31.4804 148.635 31.5604 148.815C31.6404 148.995 31.6904 149.19 31.7104 149.4C31.7204 149.61 31.7154 149.81 31.6954 150C31.6754 150.18 31.6454 150.39 31.6054 150.63C31.5754 150.93 31.5254 151.225 31.4554 151.515C31.3954 151.805 31.3704 152.06 31.3804 152.28C31.3904 152.44 31.4554 152.48 31.5754 152.4C31.8454 152.23 32.1554 152.035 32.5054 151.815C32.8654 151.595 33.2604 151.385 33.6904 151.185C34.1204 150.975 34.5754 150.805 35.0554 150.675C35.5454 150.545 36.0404 150.48 36.5404 150.48C37.3504 150.48 38.0204 150.64 38.5504 150.96C39.0804 151.28 39.4804 151.69 39.7504 152.19C40.0204 152.68 40.1554 153.195 40.1554 153.735C40.1554 154.325 39.9954 154.84 39.6754 155.28C39.3554 155.72 38.9254 156.1 38.3854 156.42C37.8454 156.73 37.2254 156.975 36.5254 157.155C35.8254 157.345 35.0954 157.465 34.3354 157.515C33.5754 157.575 32.8154 157.57 32.0554 157.5L32.0254 157.2Z" fill="white"/>
<path d="M44.9314 0.75L44.9314 157.75" stroke="white" stroke-dasharray="2 2"/>
<path d="M17.9314 27.6729L17.9314 244.673" stroke="white" stroke-dasharray="2 2"/>
<path d="M8.85 38.2088H5.76C5.565 38.3738 5.37 38.5238 5.145 38.6888C5.685 39.1388 6.33 39.4988 7.08 39.7988C7.77 39.3338 8.37 38.7938 8.85 38.2088ZM9.915 36.4388H6.03L7.65 36.8438C7.59 37.0238 7.395 37.1288 6.915 37.1288C6.705 37.3538 6.495 37.5638 6.255 37.7888H8.955L9.915 36.9638V36.4388ZM4.41 34.8338V36.0038H9.915V34.8338H4.41ZM9.915 31.6538H4.41V32.7938H9.915V31.6538ZM9.915 34.3988V33.2288H4.41V34.3988H9.915ZM10.05 36.9638L11.49 38.3288C11.355 38.4788 11.205 38.5088 10.815 38.5388C10.23 39.2138 9.51 39.7838 8.715 40.2788C10.215 40.6088 12.03 40.7438 14.19 40.7438L14.175 40.9238C13.53 41.1638 13.2 41.6588 13.125 42.4238C10.545 42.1988 8.73 41.7488 7.305 40.9988C5.355 41.8538 2.97 42.3188 0.345002 42.4688L0.270002 42.2588C2.505 41.8538 4.575 41.2088 6.24 40.3088C5.715 39.9038 5.265 39.4388 4.83 38.8988C3.63 39.7238 2.175 40.4138 0.525002 40.8338L0.420002 40.6688C2.595 39.6038 4.395 37.9088 5.28 36.4388H4.41V36.6488C4.41 36.8288 3.66 37.2038 2.94 37.2038H2.67V30.4988L4.515 31.2338H6.165C6.195 30.8588 6.24 30.3938 6.255 30.0188H0.555002L0.435002 29.5988H11.175L12.165 28.3538C12.165 28.3538 13.275 29.1938 13.98 29.7788C13.935 29.9438 13.77 30.0188 13.56 30.0188H8.13C7.83 30.4238 7.47 30.8888 7.125 31.2338H9.765L10.575 30.3638L12.24 31.6388C12.15 31.7438 11.955 31.8488 11.685 31.9088V36.4538C11.67 36.5888 10.815 36.9638 10.215 36.9638H10.05ZM6.615 49.4638C6.615 48.9838 6.405 48.5338 6.15 48.1738C5.19 48.4588 4.245 49.0138 3.525 49.7788C2.655 50.7388 2.175 51.7438 2.175 52.9738C2.175 54.1588 2.685 55.2538 3.315 55.2538C4.14 55.2538 5.475 53.1988 5.94 52.1788C6.345 51.3088 6.615 50.2588 6.615 49.4638ZM6.48 58.4038L6.42 58.1338C10.215 57.2188 11.625 55.1338 11.625 52.5388C11.625 49.7788 9.87 47.9938 7.425 47.9938C7.23 47.9938 7.035 48.0088 6.84 48.0388C7.29 48.5038 7.83 49.2538 7.83 49.9588C7.83 50.7238 7.695 51.7288 7.335 52.6438C6.66 54.5488 4.995 57.2638 3.15 57.2638C1.935 57.2638 0.825002 55.4338 0.825002 53.4688C0.825002 52.0738 1.515 50.2738 3.045 48.9988C4.245 47.9488 5.76 47.3938 7.605 47.3938C11.055 47.3938 13.515 49.8088 13.515 52.9438C13.515 55.7788 11.52 58.2088 6.48 58.4038ZM4.65 65.8638L6.24 67.2438C6.135 67.3938 5.985 67.4538 5.655 67.4838C4.965 70.4238 3.45 73.3188 0.135002 75.0288L2.35066e-06 74.8638C2.19 73.0038 3.375 70.0638 3.855 67.2288H0.495002L0.360002 66.7938H3.75L4.65 65.8638ZM11.91 64.9488L13.98 66.2538C13.89 66.4038 13.74 66.4938 13.38 66.4338C12.465 67.2138 11.07 68.2488 9.66 69.0588C10.92 71.1588 12.63 72.4038 14.325 73.2288L14.25 73.3938C13.515 73.5288 12.96 74.1588 12.72 74.9838C10.335 73.0338 8.805 70.5588 8.07 65.6538V74.2938C8.07 75.5688 7.785 76.2738 5.64 76.4538C5.58 75.8688 5.475 75.4638 5.22 75.1788C4.935 74.8938 4.56 74.6988 3.69 74.5488V74.3388C3.69 74.3388 5.535 74.4588 5.91 74.4588C6.18 74.4588 6.27 74.3688 6.27 74.1738V62.3988L8.61 62.6388C8.565 62.8488 8.46 62.9838 8.07 63.0438V64.5888C8.37 66.2238 8.85 67.5588 9.45 68.6838C10.41 67.4838 11.415 65.9088 11.91 64.9488ZM6.18 88.7588L8.07 89.6738C7.995 89.8088 7.845 89.8388 7.575 89.7938C6.855 90.7988 5.31 91.9238 3.825 92.5088L3.69 92.3138C4.785 91.3988 5.76 89.8988 6.18 88.7588ZM13.35 88.1588H10.17V91.5488C10.17 92.6438 9.9 93.3188 8.1 93.4688C8.07 92.9888 8.025 92.6138 7.83 92.3888C7.65 92.1788 7.35 91.9838 6.705 91.8788V91.6838C6.705 91.6838 7.95 91.7738 8.235 91.7738C8.46 91.7738 8.52 91.6838 8.52 91.5188V88.1588H5.58L5.46 87.7388H11.295L12.18 86.5688C12.18 86.5688 13.17 87.3638 13.755 87.9188C13.71 88.0838 13.56 88.1588 13.35 88.1588ZM9.63 85.7138L10.41 84.6488C10.41 84.6488 11.325 85.3838 11.865 85.9088C11.82 86.0738 11.655 86.1488 11.445 86.1488H6.975L6.855 85.7138H9.63ZM10.725 89.0138L10.875 88.9238C15.39 90.1388 14.22 93.2588 12.645 92.1938C12.315 91.1288 11.445 89.8688 10.725 89.0138ZM7.92 81.4238H6.795C6.705 81.5888 6.615 81.7538 6.51 81.9188C7.185 82.0538 7.5 82.3238 7.59 82.5788C7.725 82.2038 7.83 81.8138 7.92 81.4238ZM2.22 89.0288H2.805C2.925 89.0288 3.015 89.0138 3.105 88.9538C3.27 88.8338 3.375 88.5488 3.375 88.0538C3.375 87.0038 3.18 85.8488 2.535 84.8288C2.76 83.8538 3.09 82.0838 3.255 80.8988H2.22V89.0288ZM12.93 80.0438L14.34 81.3938C14.235 81.5138 14.07 81.5438 13.755 81.5738C13.305 82.1588 12.51 82.8938 11.82 83.4338C12.585 84.1988 13.53 84.7538 14.52 85.1738L14.49 85.3388C13.83 85.4588 13.32 85.9538 13.065 86.7338C11.46 85.5338 10.44 83.9738 9.9 81.4838C9.81 81.5438 9.675 81.5738 9.435 81.6038C8.76 83.8238 7.275 85.8488 4.605 87.0038L4.485 86.8238C4.725 87.3788 4.83 87.9338 4.83 88.4588C4.83 89.9288 4.335 90.7238 2.835 90.7538C2.835 90.3338 2.775 89.7638 2.655 89.5688C2.58 89.4488 2.43 89.3438 2.22 89.2688V92.9738C2.22 93.0938 1.725 93.4838 0.975002 93.4838H0.705002V79.8038L2.4 80.4638H3.135L3.975 79.6688L5.49 81.1088C5.385 81.2438 5.205 81.2888 4.86 81.2888C4.395 82.2188 3.57 83.8388 2.91 84.7838C3.675 85.3838 4.185 86.0888 4.485 86.8088C5.82 85.8938 6.75 84.5888 7.365 83.1638C7.155 83.2838 6.855 83.2988 6.57 83.0738C6.555 82.8188 6.42 82.5188 6.27 82.2788C6.075 82.5788 5.865 82.8488 5.64 83.1188C7.56 83.7488 6.57 85.1888 5.73 84.5138C5.7 84.1538 5.535 83.7638 5.34 83.4488C4.92 83.8988 4.455 84.3038 3.945 84.6338L3.78 84.4988C4.875 83.2988 5.715 81.2438 6.045 79.4138L7.98 79.8488C7.935 80.0138 7.815 80.0888 7.44 80.0588C7.32 80.3738 7.185 80.6738 7.02 80.9888H7.845L8.64 80.2088L9.855 81.2438C9.765 80.8388 9.705 80.4038 9.645 79.9538L9.855 79.8488C10.17 81.2288 10.77 82.3088 11.55 83.1638C11.775 82.5788 12.03 81.8588 12.195 81.2888H10.71L10.575 80.8538H12.12L12.93 80.0438ZM5.085 99.5938C4.5 99.0538 3.96 98.6338 3.48 98.3338L3.57 98.0788C4.065 98.0938 4.77 98.1388 5.7 98.3338C6.735 98.6038 7.635 99.1138 7.635 100.074C7.635 100.494 7.305 100.884 6.885 100.884C6.15 100.884 5.88 100.314 5.085 99.5938ZM3.63 107.439C5.385 107.439 11.055 103.524 13.605 100.464L13.86 100.629C12.375 103.674 8.985 106.764 5.7 108.699C5.205 108.999 5.01 109.494 4.485 109.494C3.84 109.494 2.835 108.804 2.385 108.129C2.145 107.739 2.025 107.034 2.025 106.614L2.22 106.524C2.535 106.854 3.045 107.439 3.63 107.439ZM3.27 102.864C2.595 102.204 2.025 101.754 1.575 101.484L1.665 101.229C2.28 101.274 2.88 101.334 3.675 101.529C4.755 101.784 5.805 102.384 5.805 103.314C5.805 103.674 5.625 104.154 4.995 104.154C4.275 104.154 3.975 103.494 3.27 102.864ZM5.055 115.064V114.869C5.385 114.719 5.94 114.524 6.45 114.524C7.335 114.524 8.61 115.349 8.61 115.874C8.61 116.294 8.31 116.609 8.22 117.149C8.13 117.689 8.1 118.994 8.1 120.044C8.1 120.944 8.16 124.544 8.16 125.474C8.16 126.164 7.935 126.614 7.2 126.614C6.42 126.614 6.105 125.624 6.105 124.784C6.105 124.379 6.24 123.719 6.3 123.014C6.375 122.069 6.405 120.554 6.405 119.669C6.405 118.424 6.39 116.954 6.315 116.189C6.255 115.514 5.745 115.304 5.055 115.064ZM2.265 132.814L2.415 132.559C4.485 132.799 6.96 133.669 6.96 135.244C6.96 135.784 6.555 136.249 5.97 136.249C5.475 136.249 5.16 135.979 4.785 135.454C4.065 134.464 3.705 133.894 2.265 132.814ZM3.915 141.019C5.535 141.019 11.43 136.924 13.575 134.044L13.86 134.239C12.165 137.524 9.435 140.164 5.955 142.294C5.46 142.609 5.265 143.104 4.83 143.104C3.96 143.104 2.91 142.204 2.595 141.604C2.415 141.244 2.265 140.659 2.28 140.224L2.475 140.089C2.835 140.449 3.36 141.019 3.915 141.019ZM6.615 151.464C6.615 150.984 6.405 150.534 6.15 150.174C5.19 150.459 4.245 151.014 3.525 151.779C2.655 152.739 2.175 153.744 2.175 154.974C2.175 156.159 2.685 157.254 3.315 157.254C4.14 157.254 5.475 155.199 5.94 154.179C6.345 153.309 6.615 152.259 6.615 151.464ZM6.48 160.404L6.42 160.134C10.215 159.219 11.625 157.134 11.625 154.539C11.625 151.779 9.87 149.994 7.425 149.994C7.23 149.994 7.035 150.009 6.84 150.039C7.29 150.504 7.83 151.254 7.83 151.959C7.83 152.724 7.695 153.729 7.335 154.644C6.66 156.549 4.995 159.264 3.15 159.264C1.935 159.264 0.825002 157.434 0.825002 155.469C0.825002 154.074 1.515 152.274 3.045 150.999C4.245 149.949 5.76 149.394 7.605 149.394C11.055 149.394 13.515 151.809 13.515 154.944C13.515 157.779 11.52 160.209 6.48 160.404ZM2.76 166.904L3 166.814C3.345 167.234 3.765 167.669 4.275 167.669C5.325 167.669 7.935 167.174 8.655 166.994C9.015 166.919 9.285 166.469 9.6 166.469C10.245 166.469 11.625 167.639 11.625 168.134C11.625 168.554 10.905 168.794 10.74 169.049C10.215 169.784 9.45 171.074 8.475 172.154C10.935 172.889 13.14 174.314 13.14 175.994C13.14 176.459 12.795 176.984 12.195 176.984C11.595 176.984 11.205 176.534 10.71 175.739C10.035 174.599 9.45 173.519 8.055 172.589C6.675 173.999 4.35 176.099 0.675002 177.224L0.495002 176.924C4.035 175.094 7.725 171.254 8.94 168.314C9.03 168.104 8.94 168.029 8.775 168.044C8.19 168.089 6.285 168.659 5.535 168.914C5.025 169.094 4.86 169.454 4.425 169.454C3.75 169.454 3.045 168.569 2.865 168.014C2.76 167.699 2.73 167.324 2.76 166.904ZM10.245 185.464C10.32 185.254 10.245 185.179 10.05 185.179C9.675 185.194 8.52 185.434 8.1 185.584C7.785 185.689 7.545 185.779 7.245 185.779C7.11 185.779 6.9 185.659 6.69 185.494C6.21 186.109 5.67 186.709 5.085 187.294C6.06 187.549 7.41 187.969 8.52 188.539C9.27 187.489 9.87 186.439 10.245 185.464ZM4.92 182.494L4.965 182.299C5.25 182.224 5.52 182.164 6.015 182.194C7.035 182.224 8.175 182.869 8.175 183.259C8.175 183.574 7.995 183.634 7.725 184.039C7.605 184.219 7.485 184.414 7.35 184.609C8.01 184.564 9.615 184.309 9.99 184.189C10.365 184.069 10.635 183.694 10.965 183.694C11.415 183.694 12.855 184.609 12.855 185.224C12.855 185.614 12.225 185.794 12.015 186.154C11.355 187.324 10.635 188.389 9.855 189.379C10.62 189.949 11.19 190.609 11.22 191.344C11.235 191.914 10.875 192.304 10.365 192.304C9.705 192.334 9.525 191.824 8.67 190.714C6.825 192.589 4.53 194.059 1.455 195.064L1.29 194.764C3.795 193.504 6.045 191.584 7.71 189.574C6.81 188.629 5.865 188.104 4.77 187.594C3.735 188.554 2.565 189.424 1.305 190.024L1.125 189.754C3.42 187.804 5.76 184.369 5.76 183.394C5.76 183.109 5.4 182.764 4.92 182.494ZM8.31 199.899L8.4 199.659C8.895 199.674 9.495 199.674 9.975 199.854C10.755 200.154 11.64 200.919 11.64 201.534C11.64 201.894 11.235 201.954 10.935 202.449C10.62 202.974 9.93 204.159 9.15 205.254C10.32 206.049 11.49 207.219 11.52 208.254C11.535 208.944 11.085 209.289 10.545 209.289C9.675 209.289 9.42 208.164 7.995 206.709C6.315 208.614 3.96 210.519 0.855002 211.554L0.705002 211.284C3.285 209.709 5.37 207.564 6.84 205.644C6.075 204.969 4.905 204.054 3.315 203.079L3.465 202.779C5.265 203.274 6.675 203.859 7.725 204.399C8.685 202.914 9.315 201.519 9.315 201.054C9.315 200.574 8.82 200.214 8.31 199.899ZM2.265 217.814L2.415 217.559C4.485 217.799 6.96 218.669 6.96 220.244C6.96 220.784 6.555 221.249 5.97 221.249C5.475 221.249 5.16 220.979 4.785 220.454C4.065 219.464 3.705 218.894 2.265 217.814ZM3.915 226.019C5.535 226.019 11.43 221.924 13.575 219.044L13.86 219.239C12.165 222.524 9.435 225.164 5.955 227.294C5.46 227.609 5.265 228.104 4.83 228.104C3.96 228.104 2.91 227.204 2.595 226.604C2.415 226.244 2.265 225.659 2.28 225.224L2.475 225.089C2.835 225.449 3.36 226.019 3.915 226.019ZM4.56 239.464L4.89 239.614C4.605 240.424 4.065 241.714 3.945 242.269C3.825 242.869 3.75 243.184 3.75 243.424C3.75 243.964 4.065 244.474 4.065 244.939C4.065 245.494 3.795 245.794 3.3 245.794C2.925 245.794 2.565 245.524 2.265 245.119C1.71 244.369 1.35 243.199 1.35 241.504C1.35 240.154 1.755 238.564 1.995 237.664C2.19 236.944 2.34 236.329 2.355 235.654C2.355 234.964 1.95 234.304 1.575 233.884L1.725 233.719C2.22 233.824 2.565 233.974 2.925 234.214C3.39 234.514 4.215 235.354 4.215 236.179C4.215 236.599 4.005 236.899 3.63 237.589C3.06 238.579 2.49 239.974 2.49 241.219C2.49 241.684 2.565 241.984 2.655 242.164C2.745 242.389 2.88 242.404 3.03 242.179C3.405 241.624 4.17 240.214 4.56 239.464ZM6.03 240.784L6.285 240.754C6.375 241.099 6.495 241.564 6.675 241.864C7.26 242.899 7.965 243.289 9.825 243.289C11.355 243.289 11.97 243.004 12.285 243.004C12.93 243.004 13.62 243.304 13.62 243.874C13.62 244.819 12.09 245.014 10.275 245.014C7.425 245.014 6.255 243.784 6.045 242.029C5.97 241.579 6 241.129 6.03 240.784ZM6.495 236.764L6.39 236.509C7.545 235.474 9.165 235.084 10.275 235.084C11.295 235.084 11.895 235.204 12.405 235.489C12.885 235.744 13.005 236.044 13.005 236.314C13.005 236.704 12.795 236.884 12.42 236.944C11.97 237.034 11.415 237.049 10.815 237.229C10.14 237.454 9.135 237.919 8.325 238.399L8.145 238.174C8.79 237.634 9.54 237.004 9.78 236.719C9.945 236.539 10.02 236.374 8.91 236.374C8.475 236.374 7.755 236.434 6.495 236.764Z" fill="white"/>
</svg>
