<svg width="228" height="60" viewBox="0 0 228 60" fill="none" xmlns="http://www.w3.org/2000/svg">
<rect x="0.5" y="0.5" width="226.321" height="26.6604" rx="13.3302" fill="white"/>
<rect x="0.5" y="0.5" width="226.321" height="26.6604" rx="13.3302" stroke="black"/>
<path d="M17.0564 8.44246C17.0304 8.6413 17.0088 8.81854 16.9915 8.97416C16.9829 9.12978 16.9786 9.27675 16.9786 9.41508C16.9786 9.51883 16.9786 9.67877 16.9786 9.89491C16.9786 10.111 16.9786 10.3358 16.9786 10.5693C16.9786 10.8027 16.9786 10.9972 16.9786 11.1528H15.8763C15.8763 10.9799 15.8763 10.7768 15.8763 10.5433C15.8763 10.3099 15.8763 10.0894 15.8763 9.88194C15.8763 9.67445 15.8763 9.51883 15.8763 9.41508C15.8763 9.27675 15.8719 9.12978 15.8633 8.97416C15.8633 8.81854 15.846 8.6413 15.8114 8.44246H17.0564ZM21.4786 10.9583C21.444 11.0534 21.4094 11.1788 21.3748 11.3344C21.3402 11.4814 21.31 11.6154 21.284 11.7364C21.2495 11.9958 21.1933 12.2854 21.1155 12.6053C21.0463 12.9252 20.9598 13.2623 20.8561 13.6168C20.7523 13.9626 20.6313 14.3085 20.493 14.6543C20.3546 14.9915 20.1947 15.32 20.0131 15.6399C19.6933 16.2018 19.2826 16.7206 18.7812 17.1961C18.2797 17.6716 17.7005 18.0866 17.0434 18.441C16.395 18.7955 15.6731 19.0851 14.8777 19.3099L14.0348 18.3373C14.2509 18.3027 14.4757 18.2551 14.7091 18.1946C14.9512 18.1255 15.176 18.052 15.3835 17.9742C15.8157 17.8358 16.2523 17.6413 16.6933 17.3906C17.1342 17.1312 17.5448 16.833 17.9252 16.4958C18.3143 16.15 18.6385 15.7739 18.8979 15.3675C19.1313 14.9958 19.3301 14.5894 19.4944 14.1485C19.6673 13.7076 19.8057 13.2623 19.9094 12.8128C20.0131 12.3632 20.0866 11.9525 20.1299 11.5808H12.8806C12.8806 11.7191 12.8806 11.8964 12.8806 12.1125C12.8806 12.3286 12.8806 12.5577 12.8806 12.7998C12.8806 13.0332 12.8806 13.2537 12.8806 13.4612C12.8806 13.66 12.8806 13.807 12.8806 13.9021C12.8806 14.0232 12.8849 14.1572 12.8935 14.3041C12.9022 14.4511 12.9152 14.5765 12.9324 14.6802H11.8042C11.8215 14.5592 11.8301 14.4209 11.8301 14.2652C11.8388 14.1096 11.8431 13.9713 11.8431 13.8502C11.8431 13.7465 11.8431 13.5909 11.8431 13.3834C11.8431 13.1759 11.8431 12.9554 11.8431 12.722C11.8431 12.4799 11.8431 12.2551 11.8431 12.0476C11.8431 11.8402 11.8431 11.6802 11.8431 11.5678C11.8431 11.4295 11.8388 11.2652 11.8301 11.075C11.8301 10.8848 11.8215 10.7162 11.8042 10.5693C11.9944 10.5866 12.1846 10.5995 12.3748 10.6082C12.5737 10.6168 12.7855 10.6211 13.0103 10.6211H19.8835C20.1255 10.6211 20.3114 10.6125 20.4411 10.5952C20.5794 10.5693 20.6918 10.5433 20.7783 10.5174L21.4786 10.9583ZM25.6544 12.1255C25.7927 12.1427 25.9483 12.1557 26.1212 12.1644C26.3028 12.173 26.4454 12.1773 26.5492 12.1773H32.5146C32.6789 12.1773 32.8388 12.173 32.9944 12.1644C33.1501 12.1557 33.297 12.1427 33.4354 12.1255V13.1629C33.297 13.1456 33.1457 13.137 32.9815 13.137C32.8172 13.137 32.6616 13.137 32.5146 13.137H26.5492C26.4454 13.137 26.3028 13.137 26.1212 13.137C25.9483 13.137 25.7927 13.1456 25.6544 13.1629V12.1255ZM28.9353 18.441V12.709H29.9858V18.441H28.9353ZM25.0189 17.8315C25.1745 17.8488 25.3302 17.8661 25.4858 17.8834C25.65 17.892 25.8057 17.8964 25.9526 17.8964H33.1241C33.2797 17.8964 33.431 17.892 33.578 17.8834C33.725 17.8661 33.8633 17.8488 33.993 17.8315V18.9209C33.8633 18.9036 33.712 18.8906 33.5391 18.882C33.3662 18.882 33.2279 18.882 33.1241 18.882H25.9526C25.8143 18.882 25.663 18.882 25.4987 18.882C25.3431 18.8906 25.1832 18.9036 25.0189 18.9209V17.8315ZM42.2408 11.3603C42.3014 11.49 42.3792 11.6845 42.4743 11.9439C42.5694 12.1946 42.6688 12.4626 42.7725 12.7479C42.8849 13.0332 42.9844 13.3056 43.0708 13.5649C43.1573 13.8157 43.2221 14.0145 43.2653 14.1615L42.3057 14.4987C42.2711 14.3517 42.2106 14.1528 42.1241 13.9021C42.0463 13.6514 41.9555 13.3834 41.8518 13.0981C41.748 12.8041 41.6443 12.5318 41.5406 12.2811C41.4368 12.0304 41.3547 11.8315 41.2942 11.6845L42.2408 11.3603ZM46.9354 12.0866C46.8921 12.2162 46.8532 12.3373 46.8187 12.4497C46.7927 12.5534 46.7668 12.6485 46.7408 12.735C46.5679 13.4439 46.3345 14.1399 46.0406 14.8229C45.7466 15.4972 45.3662 16.1283 44.8993 16.7162C44.3028 17.4771 43.6285 18.1125 42.8763 18.6226C42.1328 19.1327 41.3979 19.526 40.6717 19.8027L39.8158 18.9338C40.3172 18.7782 40.823 18.5707 41.3331 18.3113C41.8518 18.052 42.3403 17.7407 42.7985 17.3776C43.2653 17.0145 43.676 16.6125 44.0305 16.1716C44.3417 15.7912 44.6184 15.3632 44.8604 14.8877C45.1112 14.4122 45.3187 13.9064 45.4829 13.3704C45.6472 12.8344 45.7596 12.2897 45.8201 11.7364L46.9354 12.0866ZM39.2322 12.0087C39.3014 12.1557 39.3878 12.3546 39.4916 12.6053C39.5953 12.856 39.7034 13.1327 39.8158 13.4353C39.9368 13.7292 40.0492 14.0145 40.1529 14.2912C40.2653 14.5592 40.3518 14.7753 40.4123 14.9396L39.4267 15.3027C39.3748 15.1384 39.297 14.918 39.1933 14.6413C39.0982 14.356 38.9901 14.0621 38.8691 13.7595C38.748 13.4569 38.6313 13.1802 38.5189 12.9295C38.4152 12.6788 38.3331 12.4972 38.2725 12.3848L39.2322 12.0087ZM53.3158 17.6889C53.3158 17.5678 53.3158 17.3258 53.3158 16.9626C53.3158 16.5909 53.3158 16.1543 53.3158 15.6528C53.3158 15.1428 53.3158 14.6111 53.3158 14.0577C53.3158 13.4958 53.3158 12.9511 53.3158 12.4237C53.3158 11.8964 53.3158 11.4295 53.3158 11.0232C53.3158 10.6168 53.3158 10.3229 53.3158 10.1413C53.3158 9.95975 53.3071 9.73929 53.2898 9.47992C53.2726 9.22056 53.2466 8.99145 53.212 8.7926H54.4829C54.4656 8.9828 54.444 9.20759 54.4181 9.46695C54.4008 9.72632 54.3922 9.9511 54.3922 10.1413C54.3922 10.4785 54.3922 10.8848 54.3922 11.3603C54.3922 11.8272 54.3922 12.3286 54.3922 12.8647C54.3922 13.392 54.3922 13.9194 54.3922 14.4468C54.4008 14.9655 54.4051 15.454 54.4051 15.9122C54.4051 16.3618 54.4051 16.7465 54.4051 17.0664C54.4051 17.3776 54.4051 17.5851 54.4051 17.6889C54.4051 17.8272 54.4051 17.9871 54.4051 18.1687C54.4138 18.3503 54.4267 18.5361 54.444 18.7263C54.4613 18.9079 54.4743 19.0722 54.4829 19.2191H53.225C53.2596 19.0116 53.2812 18.7652 53.2898 18.4799C53.3071 18.1946 53.3158 17.9309 53.3158 17.6889ZM54.1717 12.1903C54.5953 12.32 55.0622 12.4756 55.5723 12.6572C56.091 12.8301 56.6184 13.0159 57.1544 13.2148C57.6904 13.4136 58.1962 13.6168 58.6717 13.8243C59.1558 14.0232 59.5752 14.2134 59.9296 14.3949L59.4887 15.4972C59.1169 15.2897 58.6976 15.0866 58.2308 14.8877C57.7639 14.6802 57.2841 14.477 56.7913 14.2782C56.3071 14.0794 55.836 13.9021 55.3777 13.7465C54.9282 13.5822 54.5262 13.4482 54.1717 13.3445V12.1903ZM72.2884 10.1543C72.2452 10.2061 72.189 10.2926 72.1198 10.4136C72.0593 10.526 72.0074 10.6298 71.9642 10.7249C71.8 11.1485 71.5838 11.6197 71.3158 12.1384C71.0478 12.6485 70.7495 13.1543 70.421 13.6557C70.0925 14.1572 69.7466 14.6111 69.3835 15.0174C68.908 15.5534 68.385 16.0765 67.8144 16.5866C67.2438 17.088 66.6429 17.5592 66.0118 18.0001C65.3806 18.4324 64.7236 18.8041 64.0406 19.1154L63.2106 18.2465C63.9109 17.9698 64.5809 17.6283 65.2207 17.222C65.8691 16.807 66.4743 16.3575 67.0363 15.8733C67.6069 15.3805 68.1126 14.8877 68.5536 14.3949C68.8475 14.0577 69.1371 13.6817 69.4224 13.2667C69.7164 12.843 69.9757 12.4151 70.2005 11.9828C70.434 11.5419 70.6025 11.1442 70.7063 10.7897C70.6371 10.7897 70.4729 10.7897 70.2135 10.7897C69.9541 10.7897 69.6472 10.7897 69.2927 10.7897C68.9383 10.7897 68.5665 10.7897 68.1775 10.7897C67.7884 10.7897 67.4167 10.7897 67.0622 10.7897C66.7077 10.7897 66.4008 10.7897 66.1414 10.7897C65.8907 10.7897 65.7265 10.7897 65.6487 10.7897C65.5017 10.7897 65.3331 10.794 65.1429 10.8027C64.9613 10.8113 64.7927 10.82 64.6371 10.8286C64.4901 10.8373 64.3907 10.8459 64.3389 10.8546V9.67445C64.3994 9.68309 64.5074 9.69606 64.6631 9.71335C64.8273 9.722 65.0002 9.73064 65.1818 9.73929C65.3633 9.74793 65.519 9.75226 65.6487 9.75226C65.7438 9.75226 65.9167 9.75226 66.1674 9.75226C66.4181 9.75226 66.7164 9.75226 67.0622 9.75226C67.4167 9.75226 67.7841 9.75226 68.1645 9.75226C68.5449 9.75226 68.908 9.75226 69.2538 9.75226C69.6083 9.75226 69.9109 9.75226 70.1616 9.75226C70.4123 9.75226 70.5766 9.75226 70.6544 9.75226C70.8706 9.75226 71.0608 9.74361 71.225 9.72632C71.3979 9.70903 71.5319 9.68309 71.627 9.64851L72.2884 10.1543ZM69.5521 14.3301C69.9066 14.624 70.2697 14.9482 70.6415 15.3027C71.0219 15.6572 71.3936 16.0246 71.7567 16.405C72.1198 16.7768 72.457 17.1356 72.7683 17.4814C73.0795 17.8185 73.3475 18.1255 73.5723 18.4021L72.6645 19.1802C72.3619 18.7652 71.9988 18.32 71.5752 17.8445C71.1515 17.3603 70.702 16.8805 70.2265 16.405C69.7596 15.9209 69.2884 15.4756 68.8129 15.0693L69.5521 14.3301ZM76.2049 13.2148C76.3345 13.2234 76.4945 13.2364 76.6847 13.2537C76.8749 13.2623 77.0824 13.271 77.3072 13.2796C77.5406 13.2796 77.774 13.2796 78.0075 13.2796C78.1458 13.2796 78.3576 13.2796 78.6429 13.2796C78.9369 13.2796 79.2784 13.2796 79.6674 13.2796C80.0565 13.2796 80.4671 13.2796 80.8994 13.2796C81.3403 13.2796 81.7769 13.2796 82.2092 13.2796C82.6501 13.2796 83.0651 13.2796 83.4542 13.2796C83.8518 13.2796 84.1933 13.2796 84.4786 13.2796C84.764 13.2796 84.9758 13.2796 85.1141 13.2796C85.4426 13.2796 85.7236 13.271 85.957 13.2537C86.1905 13.2364 86.3763 13.2234 86.5147 13.2148V14.4857C86.385 14.477 86.1905 14.4641 85.9311 14.4468C85.6804 14.4295 85.4124 14.4209 85.1271 14.4209C84.9887 14.4209 84.7726 14.4209 84.4786 14.4209C84.1847 14.4209 83.8432 14.4209 83.4542 14.4209C83.0737 14.4209 82.6631 14.4209 82.2222 14.4209C81.7812 14.4209 81.3403 14.4209 80.8994 14.4209C80.4671 14.4209 80.0565 14.4209 79.6674 14.4209C79.287 14.4209 78.9498 14.4209 78.6559 14.4209C78.3619 14.4209 78.1458 14.4209 78.0075 14.4209C77.653 14.4209 77.3158 14.4295 76.9959 14.4468C76.676 14.4554 76.4124 14.4684 76.2049 14.4857V13.2148ZM93.5107 9.0779C93.5798 9.23352 93.6749 9.46263 93.796 9.76522C93.917 10.0678 94.0424 10.3963 94.1721 10.7508C94.3104 11.0966 94.4357 11.4295 94.5481 11.7494C94.6605 12.0606 94.7427 12.307 94.7945 12.4886L93.783 12.8387C93.7311 12.6572 93.649 12.4108 93.5366 12.0995C93.4329 11.7796 93.3161 11.4468 93.1865 11.101C93.0654 10.7551 92.9444 10.4309 92.8234 10.1283C92.7023 9.8171 92.5986 9.57935 92.5121 9.41508L93.5107 9.0779ZM99.2686 9.90788C99.2254 10.0203 99.1822 10.1456 99.1389 10.284C99.1043 10.4223 99.0698 10.5433 99.0352 10.6471C98.9141 11.1831 98.7499 11.7364 98.5424 12.307C98.3435 12.8776 98.1058 13.4396 97.8291 13.9929C97.5525 14.5376 97.2369 15.0433 96.8824 15.5102C96.4415 16.0894 95.9401 16.6255 95.3781 17.1183C94.8248 17.6024 94.2412 18.026 93.6274 18.3892C93.0222 18.7523 92.4127 19.0419 91.7989 19.258L90.904 18.3503C91.5265 18.1687 92.1447 17.9137 92.7585 17.5851C93.3723 17.2566 93.9559 16.8675 94.5092 16.418C95.0712 15.9598 95.5683 15.454 96.0006 14.9007C96.3464 14.4684 96.6577 13.9626 96.9343 13.3834C97.211 12.7955 97.4487 12.1773 97.6476 11.5289C97.8464 10.8719 97.9891 10.2191 98.0755 9.5707L99.2686 9.90788ZM89.8925 9.856C89.979 10.0376 90.087 10.284 90.2167 10.5952C90.3464 10.8978 90.4847 11.2306 90.6317 11.5938C90.7787 11.9482 90.9127 12.2897 91.0337 12.6183C91.1634 12.9381 91.2672 13.2018 91.345 13.4093L90.3205 13.7854C90.2686 13.6298 90.1951 13.4266 90.1 13.1759C90.0136 12.9165 89.9098 12.6442 89.7888 12.3589C89.6764 12.0649 89.5597 11.7753 89.4386 11.49C89.3262 11.2047 89.2182 10.954 89.1144 10.7378C89.0107 10.5131 88.9285 10.3445 88.868 10.2321L89.8925 9.856ZM101.59 10.2969C101.832 10.2883 102.052 10.2796 102.251 10.271C102.459 10.2537 102.623 10.2407 102.744 10.2321C102.952 10.2061 103.25 10.1759 103.639 10.1413C104.037 10.0981 104.491 10.0549 105.001 10.0116C105.511 9.95975 106.06 9.90788 106.648 9.856C107.235 9.80413 107.828 9.75226 108.424 9.70038C108.9 9.65716 109.349 9.62257 109.773 9.59664C110.197 9.56205 110.59 9.53612 110.953 9.51883C111.316 9.49289 111.64 9.4756 111.926 9.46695V10.5044C111.684 10.5044 111.407 10.5087 111.096 10.5174C110.784 10.526 110.478 10.5433 110.175 10.5693C109.872 10.5952 109.609 10.6427 109.384 10.7119C108.926 10.8589 108.511 11.0837 108.139 11.3863C107.776 11.6802 107.465 12.0217 107.205 12.4108C106.946 12.7998 106.747 13.2018 106.609 13.6168C106.479 14.0318 106.414 14.4338 106.414 14.8229C106.414 15.3243 106.501 15.7652 106.674 16.1456C106.846 16.5174 107.08 16.833 107.374 17.0923C107.676 17.3517 108.018 17.5635 108.398 17.7278C108.779 17.892 109.181 18.0174 109.604 18.1039C110.037 18.1817 110.465 18.2249 110.888 18.2335L110.512 19.3099C110.028 19.2926 109.544 19.2235 109.06 19.1024C108.576 18.99 108.113 18.8258 107.672 18.6096C107.231 18.3848 106.838 18.1039 106.492 17.7667C106.146 17.4295 105.874 17.0361 105.675 16.5866C105.476 16.137 105.377 15.6226 105.377 15.0433C105.377 14.369 105.493 13.7465 105.727 13.1759C105.969 12.5966 106.276 12.0909 106.648 11.6586C107.019 11.2263 107.404 10.8935 107.802 10.66C107.525 10.6946 107.179 10.7335 106.764 10.7768C106.358 10.82 105.921 10.8675 105.454 10.9194C104.988 10.9626 104.516 11.0145 104.041 11.075C103.574 11.1355 103.137 11.1961 102.731 11.2566C102.325 11.3085 101.983 11.3647 101.707 11.4252L101.59 10.2969ZM110.058 12.0995C110.153 12.2379 110.266 12.4151 110.395 12.6312C110.534 12.8387 110.668 13.0549 110.797 13.2796C110.927 13.4958 111.035 13.7033 111.122 13.9021L110.46 14.2134C110.313 13.8935 110.149 13.5779 109.967 13.2667C109.786 12.9468 109.596 12.6528 109.397 12.3848L110.058 12.0995ZM111.472 11.5549C111.576 11.6932 111.697 11.8661 111.835 12.0736C111.973 12.2811 112.107 12.4972 112.237 12.722C112.375 12.9381 112.496 13.1456 112.6 13.3445L111.926 13.6687C111.77 13.3488 111.597 13.0332 111.407 12.722C111.225 12.4108 111.035 12.1211 110.836 11.8531L111.472 11.5549ZM116.75 10.8935H123.338V11.7364H116.75V10.8935ZM117.411 13.0981H118.306V18.1687H117.411V13.0981ZM117.891 13.0981H122.638V17.235H117.891V16.392H121.73V13.9281H117.891V13.0981ZM114.675 8.61104H125.024V9.5318H115.622V19.8935H114.675V8.61104ZM124.427 8.61104H125.387V18.6356C125.387 18.9295 125.344 19.1586 125.257 19.3229C125.179 19.4958 125.041 19.6211 124.842 19.699C124.652 19.7768 124.38 19.8243 124.025 19.8416C123.679 19.8675 123.23 19.8805 122.676 19.8805C122.668 19.7941 122.642 19.6903 122.599 19.5693C122.564 19.4569 122.521 19.3402 122.469 19.2191C122.426 19.1067 122.378 19.0116 122.326 18.9338C122.733 18.9425 123.104 18.9468 123.442 18.9468C123.779 18.9468 124.004 18.9468 124.116 18.9468C124.237 18.9381 124.319 18.9079 124.362 18.856C124.406 18.8128 124.427 18.735 124.427 18.6226V8.61104ZM134.335 9.88194C134.447 10.0289 134.581 10.2278 134.737 10.4785C134.893 10.7292 135.044 10.9842 135.191 11.2436C135.346 11.503 135.476 11.7364 135.58 11.9439L134.815 12.294C134.702 12.0606 134.577 11.8229 134.439 11.5808C134.309 11.3301 134.171 11.088 134.024 10.8546C133.885 10.6125 133.743 10.392 133.596 10.1932L134.335 9.88194ZM136.008 9.22056C136.129 9.36753 136.267 9.56205 136.423 9.80413C136.587 10.0462 136.747 10.2969 136.903 10.5563C137.058 10.8157 137.188 11.0448 137.292 11.2436L136.54 11.6067C136.427 11.3819 136.302 11.1485 136.163 10.9064C136.025 10.6644 135.878 10.4266 135.723 10.1932C135.576 9.95975 135.429 9.74793 135.282 9.55773L136.008 9.22056ZM130.743 8.81854C130.717 9.03468 130.691 9.25081 130.665 9.46695C130.648 9.68309 130.635 9.90355 130.626 10.1283C130.617 10.4915 130.6 10.941 130.574 11.477C130.557 12.0131 130.54 12.5837 130.522 13.1889C130.514 13.7854 130.501 14.3819 130.483 14.9785C130.475 15.575 130.47 16.1111 130.47 16.5866C130.47 17.0621 130.561 17.4425 130.743 17.7278C130.924 18.0044 131.175 18.2076 131.495 18.3373C131.815 18.4583 132.182 18.5188 132.597 18.5188C133.185 18.5188 133.717 18.4454 134.192 18.2984C134.668 18.1428 135.091 17.9396 135.463 17.6889C135.835 17.4295 136.163 17.1399 136.449 16.82C136.743 16.5001 137.006 16.1716 137.24 15.8344L137.979 16.7162C137.754 17.0188 137.478 17.3387 137.149 17.6759C136.829 18.0131 136.449 18.3243 136.008 18.6096C135.567 18.8949 135.061 19.1283 134.491 19.3099C133.92 19.4915 133.28 19.5822 132.571 19.5822C131.949 19.5822 131.4 19.4871 130.924 19.2969C130.449 19.1067 130.077 18.7998 129.809 18.3762C129.541 17.9526 129.407 17.3906 129.407 16.6903C129.407 16.3013 129.411 15.8733 129.42 15.4064C129.429 14.9309 129.442 14.4425 129.459 13.941C129.476 13.4396 129.489 12.9511 129.498 12.4756C129.515 11.9915 129.528 11.5462 129.537 11.1399C129.545 10.7335 129.55 10.3963 129.55 10.1283C129.55 9.87762 129.541 9.64419 129.524 9.42805C129.506 9.20326 129.476 8.99577 129.433 8.80557L130.743 8.81854ZM144.852 12.8906C145.267 13.1327 145.704 13.4007 146.162 13.6946C146.62 13.9886 147.074 14.2955 147.524 14.6154C147.982 14.9266 148.419 15.2335 148.834 15.5361C149.248 15.8387 149.616 16.124 149.936 16.392L149.171 17.2868C148.877 17.0188 148.522 16.7249 148.107 16.405C147.701 16.0765 147.269 15.7479 146.81 15.4194C146.352 15.0822 145.894 14.758 145.436 14.4468C144.978 14.1355 144.55 13.8546 144.152 13.6038L144.852 12.8906ZM150.792 10.5174C150.731 10.6125 150.675 10.7292 150.623 10.8675C150.571 10.9972 150.524 11.1139 150.48 11.2177C150.359 11.6586 150.187 12.1341 149.962 12.6442C149.737 13.1543 149.473 13.6687 149.171 14.1874C148.868 14.6975 148.522 15.1903 148.133 15.6658C147.554 16.3834 146.828 17.075 145.955 17.7407C145.09 18.3978 144.044 18.9511 142.816 19.4007L141.882 18.5966C142.687 18.3459 143.417 18.039 144.074 17.6759C144.74 17.3041 145.336 16.8978 145.864 16.4569C146.391 16.016 146.849 15.5621 147.238 15.0952C147.576 14.6975 147.882 14.2609 148.159 13.7854C148.444 13.3099 148.691 12.8387 148.898 12.3719C149.106 11.8964 149.257 11.4554 149.352 11.0491H144.541L144.956 10.1283H149.08C149.253 10.1283 149.413 10.1197 149.56 10.1024C149.707 10.0765 149.832 10.0419 149.936 9.99865L150.792 10.5174ZM146.421 8.64995C146.309 8.82286 146.201 9.00442 146.097 9.19462C145.993 9.38482 145.907 9.54044 145.838 9.66148C145.578 10.137 145.241 10.66 144.826 11.2306C144.42 11.7926 143.94 12.3546 143.387 12.9165C142.842 13.4785 142.224 14.0015 141.532 14.4857L140.663 13.8113C141.407 13.3531 142.051 12.8474 142.596 12.294C143.14 11.7407 143.599 11.2004 143.97 10.673C144.342 10.1456 144.627 9.68741 144.826 9.29837C144.895 9.18597 144.973 9.03035 145.06 8.83151C145.146 8.62401 145.207 8.43813 145.241 8.27387L146.421 8.64995ZM163.604 10.2061C163.561 10.3012 163.522 10.4007 163.488 10.5044C163.462 10.6082 163.436 10.7249 163.41 10.8546C163.341 11.2004 163.25 11.5808 163.138 11.9958C163.025 12.4021 162.887 12.8257 162.723 13.2667C162.567 13.6989 162.381 14.1226 162.165 14.5376C161.957 14.9439 161.728 15.3113 161.478 15.6399C161.08 16.1413 160.639 16.6125 160.155 17.0534C159.671 17.4857 159.117 17.8747 158.495 18.2206C157.872 18.5664 157.163 18.8647 156.368 19.1154L155.486 18.1428C156.334 17.9266 157.064 17.6673 157.678 17.3647C158.3 17.0534 158.845 16.699 159.312 16.3013C159.779 15.9036 160.189 15.4756 160.544 15.0174C160.855 14.6283 161.123 14.1831 161.348 13.6817C161.581 13.1802 161.772 12.6788 161.919 12.1773C162.074 11.6672 162.182 11.2047 162.243 10.7897C162.122 10.7897 161.893 10.7897 161.555 10.7897C161.218 10.7897 160.821 10.7897 160.362 10.7897C159.904 10.7897 159.424 10.7897 158.923 10.7897C158.43 10.7897 157.955 10.7897 157.496 10.7897C157.038 10.7897 156.64 10.7897 156.303 10.7897C155.966 10.7897 155.737 10.7897 155.616 10.7897C155.357 10.7897 155.119 10.794 154.903 10.8027C154.687 10.8113 154.492 10.82 154.319 10.8286V9.68741C154.44 9.69606 154.574 9.70903 154.721 9.72632C154.868 9.74361 155.019 9.75658 155.175 9.76522C155.331 9.76522 155.478 9.76522 155.616 9.76522C155.72 9.76522 155.906 9.76522 156.174 9.76522C156.442 9.76522 156.757 9.76522 157.12 9.76522C157.492 9.76522 157.885 9.76522 158.3 9.76522C158.724 9.76522 159.139 9.76522 159.545 9.76522C159.96 9.76522 160.345 9.76522 160.7 9.76522C161.063 9.76522 161.37 9.76522 161.62 9.76522C161.871 9.76522 162.04 9.76522 162.126 9.76522C162.221 9.76522 162.329 9.76522 162.45 9.76522C162.571 9.75658 162.692 9.73497 162.813 9.70038L163.604 10.2061ZM166.665 10.6471C166.907 10.6817 167.162 10.7076 167.43 10.7249C167.698 10.7335 167.97 10.7378 168.247 10.7378C168.723 10.7378 169.211 10.7162 169.712 10.673C170.223 10.6298 170.737 10.5606 171.256 10.4655C171.774 10.3618 172.285 10.2278 172.786 10.0635L172.812 11.0361C172.388 11.1485 171.921 11.2523 171.411 11.3474C170.91 11.4425 170.387 11.5203 169.842 11.5808C169.306 11.6327 168.774 11.6586 168.247 11.6586C168.014 11.6586 167.763 11.6586 167.495 11.6586C167.236 11.65 166.981 11.637 166.73 11.6197L166.665 10.6471ZM171.256 8.53323C171.204 8.74073 171.139 9.00442 171.061 9.3243C170.983 9.64419 170.897 9.98136 170.802 10.3358C170.715 10.6817 170.62 11.0102 170.517 11.3214C170.309 11.9439 170.045 12.601 169.725 13.2926C169.406 13.9756 169.064 14.6413 168.701 15.2897C168.338 15.9381 167.979 16.5044 167.625 16.9886L166.626 16.4698C166.911 16.1327 167.197 15.7479 167.482 15.3157C167.776 14.8834 168.048 14.4295 168.299 13.954C168.558 13.4785 168.792 13.0116 168.999 12.5534C169.207 12.0952 169.38 11.6759 169.518 11.2955C169.656 10.8805 169.786 10.4136 169.907 9.89491C170.028 9.36753 170.097 8.87906 170.115 8.42949L171.256 8.53323ZM174.316 12.5404C174.308 12.8085 174.299 13.0505 174.29 13.2667C174.29 13.4742 174.295 13.6989 174.303 13.941C174.312 14.1485 174.321 14.4165 174.329 14.7451C174.347 15.0649 174.364 15.4064 174.381 15.7696C174.398 16.124 174.411 16.4655 174.42 16.7941C174.437 17.1226 174.446 17.3949 174.446 17.6111C174.446 17.9569 174.368 18.2724 174.212 18.5577C174.057 18.843 173.81 19.0678 173.473 19.2321C173.145 19.405 172.712 19.4915 172.176 19.4915C171.701 19.4915 171.269 19.4223 170.88 19.284C170.491 19.1543 170.175 18.9511 169.933 18.6745C169.7 18.3978 169.583 18.0477 169.583 17.624C169.583 17.2177 169.695 16.8719 169.92 16.5866C170.153 16.2926 170.465 16.0678 170.854 15.9122C171.251 15.7566 171.692 15.6788 172.176 15.6788C172.903 15.6788 173.568 15.7825 174.174 15.99C174.787 16.1889 175.336 16.4439 175.821 16.7551C176.313 17.0664 176.737 17.3733 177.091 17.6759L176.534 18.5577C176.283 18.333 176.002 18.0995 175.691 17.8575C175.388 17.6154 175.051 17.3949 174.679 17.1961C174.308 16.9886 173.91 16.82 173.486 16.6903C173.063 16.5606 172.613 16.4958 172.138 16.4958C171.662 16.4958 171.277 16.5952 170.983 16.7941C170.689 16.9929 170.542 17.2393 170.542 17.5332C170.542 17.8358 170.668 18.0822 170.919 18.2724C171.169 18.4626 171.545 18.5577 172.047 18.5577C172.41 18.5577 172.695 18.5015 172.903 18.3892C173.11 18.2681 173.257 18.1125 173.344 17.9223C173.439 17.7234 173.486 17.5073 173.486 17.2739C173.486 17.0318 173.478 16.7162 173.46 16.3272C173.452 15.9381 173.434 15.5232 173.408 15.0822C173.391 14.6327 173.37 14.1874 173.344 13.7465C173.326 13.2969 173.313 12.8949 173.305 12.5404H174.316ZM176.91 12.8906C176.676 12.6831 176.383 12.467 176.028 12.2422C175.674 12.0174 175.306 11.8056 174.926 11.6067C174.554 11.3992 174.225 11.2306 173.94 11.101L174.472 10.3099C174.705 10.4136 174.965 10.539 175.25 10.686C175.535 10.8329 175.821 10.9886 176.106 11.1528C176.391 11.3171 176.655 11.477 176.897 11.6327C177.148 11.7796 177.347 11.9136 177.493 12.0347L176.91 12.8906ZM184.354 16.3272H185.313V19.8546H184.354V16.3272ZM183.731 12.3459L184.613 12.7739C184.259 13.1024 183.874 13.4353 183.459 13.7724C183.053 14.1096 182.676 14.3906 182.331 14.6154L181.643 14.2393C181.877 14.075 182.119 13.8848 182.37 13.6687C182.629 13.4439 182.88 13.2148 183.122 12.9814C183.364 12.7479 183.567 12.5361 183.731 12.3459ZM186.377 13.0332L187.246 13.5131C186.805 13.8675 186.316 14.2393 185.78 14.6283C185.253 15.0087 184.717 15.3719 184.172 15.7177C183.636 16.0635 183.126 16.3661 182.642 16.6255L182.006 16.1845C182.482 15.9165 182.988 15.601 183.524 15.2379C184.06 14.8747 184.579 14.4987 185.08 14.1096C185.581 13.7206 186.014 13.3618 186.377 13.0332ZM180.372 14.2263L181.008 13.6687C181.336 13.8157 181.682 13.9929 182.045 14.2004C182.408 14.3992 182.754 14.6024 183.083 14.8099C183.411 15.0087 183.684 15.1989 183.9 15.3805L183.213 16.003C183.014 15.8214 182.754 15.6269 182.434 15.4194C182.115 15.2033 181.773 14.9915 181.41 14.784C181.055 14.5678 180.71 14.3819 180.372 14.2263ZM186.844 15.0433L187.518 14.5246C187.898 14.7234 188.287 14.9569 188.685 15.2249C189.083 15.4843 189.459 15.7523 189.813 16.0289C190.168 16.2969 190.457 16.5477 190.682 16.7811L189.969 17.3517C189.753 17.1269 189.472 16.8762 189.126 16.5995C188.78 16.3229 188.408 16.0505 188.011 15.7825C187.613 15.5059 187.224 15.2595 186.844 15.0433ZM186.597 17.65L187.323 17.1312C187.687 17.2955 188.071 17.4857 188.478 17.7018C188.884 17.918 189.269 18.1384 189.632 18.3632C189.995 18.588 190.298 18.7998 190.54 18.9987L189.774 19.5822C189.55 19.392 189.26 19.1802 188.906 18.9468C188.551 18.7134 188.171 18.4843 187.764 18.2595C187.358 18.026 186.969 17.8229 186.597 17.65ZM179.218 16.0678C179.823 16.0678 180.515 16.0635 181.293 16.0549C182.08 16.0376 182.919 16.0246 183.809 16.016C184.708 15.9987 185.629 15.9814 186.571 15.9641C187.522 15.9468 188.465 15.9252 189.398 15.8992L189.347 16.6644C188.43 16.6817 187.509 16.7033 186.584 16.7292C185.668 16.7551 184.769 16.7768 183.887 16.7941C183.014 16.8113 182.184 16.8286 181.397 16.8459C180.619 16.8632 179.919 16.8762 179.296 16.8848L179.218 16.0678ZM182.149 17.1442L183.044 17.4814C182.75 17.758 182.413 18.0304 182.032 18.2984C181.661 18.5664 181.272 18.8171 180.865 19.0505C180.468 19.284 180.079 19.4828 179.698 19.6471C179.646 19.5866 179.573 19.5131 179.478 19.4266C179.391 19.3488 179.3 19.2667 179.205 19.1802C179.11 19.1024 179.024 19.0376 178.946 18.9857C179.525 18.7609 180.104 18.4886 180.684 18.1687C181.263 17.8402 181.751 17.4987 182.149 17.1442ZM184.354 7.92372H185.326V12.5275H184.354V7.92372ZM179.867 8.88338H189.995V9.63554H179.867V8.88338ZM180.58 10.4655H189.23V11.2047H180.58V10.4655ZM179.179 12.0476H190.579V12.8257H179.179V12.0476ZM197.53 10.7249H203.78V11.6586H197.53V10.7249ZM201.42 7.94966H202.432V18.5318C202.432 18.8776 202.384 19.1327 202.289 19.2969C202.202 19.4612 202.047 19.5822 201.822 19.6601C201.615 19.7465 201.316 19.7984 200.927 19.8157C200.538 19.8416 200.067 19.8546 199.514 19.8546C199.488 19.7162 199.44 19.5477 199.371 19.3488C199.302 19.1586 199.233 18.9943 199.164 18.856C199.587 18.8647 199.985 18.869 200.357 18.869C200.728 18.869 200.975 18.8647 201.096 18.856C201.217 18.856 201.299 18.8344 201.342 18.7912C201.394 18.7479 201.42 18.6658 201.42 18.5448V7.94966ZM201.316 11.1528L202.094 11.6327C201.852 12.2033 201.558 12.7825 201.213 13.3704C200.875 13.9497 200.499 14.516 200.084 15.0693C199.678 15.6139 199.25 16.1197 198.8 16.5866C198.36 17.0534 197.914 17.4598 197.465 17.8056C197.387 17.6759 197.283 17.5332 197.153 17.3776C197.024 17.222 196.898 17.0966 196.777 17.0015C197.218 16.7076 197.659 16.3402 198.1 15.8992C198.541 15.4583 198.96 14.9742 199.358 14.4468C199.764 13.9194 200.132 13.3791 200.46 12.8257C200.798 12.2638 201.083 11.7061 201.316 11.1528ZM192.122 10.7119H197.05V11.6586H192.122V10.7119ZM194.287 7.93669H195.26V19.8546H194.287V7.93669ZM194.249 11.2955L194.923 11.5289C194.793 12.0649 194.629 12.6139 194.43 13.1759C194.24 13.7292 194.024 14.2739 193.782 14.8099C193.548 15.3459 193.298 15.8474 193.03 16.3142C192.77 16.7724 192.502 17.1658 192.225 17.4943C192.165 17.3474 192.079 17.1874 191.966 17.0145C191.862 16.833 191.767 16.6817 191.681 16.5606C191.94 16.2667 192.2 15.9209 192.459 15.5232C192.718 15.1168 192.96 14.6759 193.185 14.2004C193.41 13.7249 193.613 13.2407 193.795 12.7479C193.976 12.2551 194.128 11.771 194.249 11.2955ZM195.182 11.918C195.26 11.9958 195.377 12.1211 195.532 12.294C195.688 12.4583 195.857 12.6442 196.038 12.8517C196.22 13.0592 196.397 13.271 196.57 13.4871C196.751 13.6946 196.916 13.8848 197.063 14.0577C197.21 14.222 197.318 14.3474 197.387 14.4338L196.764 15.2638C196.661 15.0909 196.514 14.8747 196.323 14.6154C196.142 14.3474 195.943 14.0707 195.727 13.7854C195.519 13.5001 195.316 13.2364 195.117 12.9943C194.927 12.7436 194.776 12.5491 194.664 12.4108L195.182 11.918ZM214.868 11.088C214.721 11.1831 214.566 11.2739 214.401 11.3603C214.237 11.4468 214.06 11.5376 213.87 11.6327C213.653 11.7537 213.385 11.892 213.066 12.0476C212.746 12.2033 212.404 12.3762 212.041 12.5664C211.678 12.7566 211.315 12.9554 210.952 13.1629C210.589 13.3704 210.247 13.5779 209.927 13.7854C209.322 14.1745 208.847 14.5851 208.501 15.0174C208.164 15.4497 207.995 15.9122 207.995 16.405C207.995 16.941 208.25 17.369 208.76 17.6889C209.279 18.0001 210.048 18.1557 211.068 18.1557C211.544 18.1557 212.037 18.1384 212.547 18.1039C213.057 18.0606 213.545 18.0044 214.012 17.9353C214.488 17.8661 214.89 17.7926 215.218 17.7148V18.869C214.898 18.9295 214.518 18.9814 214.077 19.0246C213.645 19.0765 213.178 19.1154 212.677 19.1413C212.175 19.1759 211.656 19.1932 211.12 19.1932C210.506 19.1932 209.945 19.1413 209.434 19.0376C208.924 18.9425 208.479 18.7912 208.099 18.5837C207.727 18.3762 207.437 18.1039 207.23 17.7667C207.022 17.4209 206.919 17.0059 206.919 16.5217C206.919 16.0462 207.018 15.6096 207.217 15.2119C207.416 14.8056 207.701 14.4209 208.073 14.0577C208.445 13.6946 208.885 13.3445 209.396 13.0073C209.724 12.7825 210.074 12.5664 210.446 12.3589C210.826 12.1427 211.198 11.9353 211.561 11.7364C211.924 11.5376 212.262 11.356 212.573 11.1917C212.893 11.0275 213.161 10.8891 213.377 10.7768C213.558 10.6644 213.723 10.5649 213.87 10.4785C214.017 10.3834 214.159 10.2796 214.298 10.1672L214.868 11.088ZM208.306 8.74073C208.505 9.29404 208.717 9.83439 208.942 10.3618C209.175 10.8891 209.409 11.3819 209.642 11.8402C209.884 12.2984 210.104 12.7047 210.303 13.0592L209.409 13.5909C209.192 13.2364 208.963 12.8171 208.721 12.333C208.479 11.8488 208.237 11.3344 207.995 10.7897C207.753 10.2451 207.515 9.70471 207.282 9.16868L208.306 8.74073Z" fill="#040000"/>
<rect x="101.5" y="24.5" width="122.321" height="26.6604" rx="13.3302" fill="white"/>
<rect x="101.5" y="24.5" width="122.321" height="26.6604" rx="13.3302" stroke="black"/>
<path d="M116.856 37.4871H117.855V42.6485C117.855 42.9511 117.812 43.1759 117.725 43.3229C117.639 43.4785 117.474 43.5909 117.232 43.6601C117.008 43.7379 116.701 43.7854 116.312 43.8027C115.931 43.82 115.451 43.8286 114.872 43.8286C114.846 43.6817 114.794 43.5174 114.717 43.3358C114.647 43.1629 114.578 43.0116 114.509 42.882C114.803 42.8906 115.088 42.8949 115.365 42.8949C115.65 42.9036 115.897 42.9036 116.104 42.8949C116.312 42.8949 116.459 42.8949 116.545 42.8949C116.666 42.8863 116.748 42.8647 116.791 42.8301C116.835 42.7955 116.856 42.7307 116.856 42.6356V37.4871ZM112.693 32.637H120.889V33.5448H112.693V32.637ZM120.526 32.637H120.773L120.993 32.5851L121.693 33.1168C121.339 33.4799 120.933 33.8474 120.474 34.2191C120.025 34.5909 119.558 34.941 119.074 35.2695C118.59 35.5981 118.127 35.8834 117.686 36.1255C117.643 36.0563 117.583 35.9828 117.505 35.905C117.436 35.8272 117.362 35.7494 117.284 35.6716C117.206 35.5851 117.137 35.5203 117.077 35.477C117.483 35.2609 117.902 35.0015 118.335 34.6989C118.776 34.3963 119.191 34.0851 119.58 33.7652C119.969 33.4367 120.284 33.1341 120.526 32.8574V32.637ZM111.474 36.7739H122.329V37.7076H111.474V36.7739ZM114.47 35.0491L114.989 34.3229C115.361 34.4785 115.763 34.6514 116.195 34.8416C116.636 35.0232 117.072 35.209 117.505 35.3992C117.937 35.5894 118.343 35.7753 118.724 35.9569C119.113 36.1384 119.446 36.3027 119.722 36.4497L119.191 37.2796C118.931 37.1327 118.611 36.9641 118.231 36.7739C117.851 36.5837 117.444 36.3891 117.012 36.1903C116.58 35.9828 116.143 35.784 115.702 35.5938C115.27 35.3949 114.859 35.2134 114.47 35.0491ZM121.992 36.7739H122.186L122.368 36.709L123.146 37.0592C122.809 37.6298 122.437 38.2047 122.031 38.784C121.624 39.3632 121.222 39.8474 120.825 40.2364L120.021 39.7566C120.237 39.5232 120.466 39.2508 120.708 38.9396C120.95 38.6283 121.179 38.3041 121.395 37.967C121.62 37.6211 121.819 37.2883 121.992 36.9684V36.7739ZM127.425 40.2364H128.372V42.2984C128.372 42.4713 128.424 42.5837 128.528 42.6356C128.64 42.6788 128.887 42.7004 129.267 42.7004C129.353 42.7004 129.509 42.7004 129.734 42.7004C129.967 42.7004 130.222 42.7004 130.499 42.7004C130.784 42.7004 131.048 42.7004 131.29 42.7004C131.541 42.7004 131.727 42.7004 131.848 42.7004C132.064 42.7004 132.224 42.6701 132.328 42.6096C132.431 42.5405 132.505 42.4021 132.548 42.1946C132.591 41.9785 132.621 41.6456 132.639 41.1961C132.708 41.2566 132.794 41.3128 132.898 41.3647C133.002 41.4079 133.11 41.4468 133.222 41.4814C133.335 41.516 133.434 41.5419 133.521 41.5592C133.477 42.1039 133.404 42.5232 133.3 42.8171C133.205 43.1111 133.049 43.3142 132.833 43.4266C132.617 43.539 132.31 43.5952 131.913 43.5952C131.852 43.5952 131.731 43.5952 131.549 43.5952C131.368 43.5952 131.156 43.5952 130.914 43.5952C130.681 43.5952 130.443 43.5952 130.201 43.5952C129.959 43.5952 129.747 43.5952 129.565 43.5952C129.384 43.5952 129.267 43.5952 129.215 43.5952C128.74 43.5952 128.372 43.5563 128.113 43.4785C127.853 43.4093 127.672 43.2796 127.568 43.0894C127.473 42.9079 127.425 42.6485 127.425 42.3113V40.2364ZM129.124 39.7955L129.799 39.2897C130.006 39.4713 130.222 39.6745 130.447 39.8992C130.681 40.124 130.901 40.3445 131.108 40.5606C131.316 40.7768 131.485 40.967 131.614 41.1312L130.901 41.7148C130.771 41.5505 130.607 41.356 130.408 41.1312C130.209 40.9064 129.998 40.6773 129.773 40.4439C129.548 40.2018 129.332 39.9857 129.124 39.7955ZM133.702 40.2234L134.558 39.8474C134.74 40.1154 134.93 40.4093 135.129 40.7292C135.328 41.0491 135.513 41.3603 135.686 41.6629C135.868 41.9655 136.011 42.2292 136.114 42.454L135.206 42.8949C135.103 42.6701 134.964 42.4064 134.791 42.1039C134.627 41.7926 134.446 41.4727 134.247 41.1442C134.057 40.8157 133.875 40.5087 133.702 40.2234ZM125.584 40.0808L126.427 40.418C126.34 40.7119 126.237 41.0275 126.116 41.3647C125.995 41.7018 125.856 42.0304 125.701 42.3503C125.554 42.6615 125.389 42.9425 125.208 43.1932L124.352 42.7523C124.534 42.5188 124.702 42.2508 124.858 41.9482C125.013 41.6456 125.152 41.3301 125.273 41.0015C125.402 40.673 125.506 40.3661 125.584 40.0808ZM124.469 33.8819H129.838V34.7249H124.469V33.8819ZM126.842 31.9626H127.776V39.5232H126.842V31.9626ZM126.803 34.4007L127.49 34.6341C127.3 35.1701 127.058 35.6975 126.764 36.2162C126.479 36.735 126.168 37.2148 125.83 37.6557C125.502 38.0966 125.165 38.4684 124.819 38.771C124.741 38.6586 124.637 38.5332 124.508 38.3949C124.387 38.2566 124.274 38.1485 124.17 38.0707C124.516 37.8286 124.853 37.5131 125.182 37.124C125.519 36.7263 125.826 36.294 126.103 35.8272C126.388 35.3517 126.621 34.8762 126.803 34.4007ZM127.685 35.3992C127.797 35.4684 127.957 35.5765 128.165 35.7234C128.381 35.8704 128.606 36.0304 128.839 36.2033C129.081 36.3762 129.302 36.5404 129.5 36.6961C129.699 36.843 129.846 36.9511 129.941 37.0203L129.41 37.8113C129.289 37.6989 129.129 37.5563 128.93 37.3834C128.74 37.2018 128.532 37.0159 128.307 36.8257C128.083 36.6269 127.871 36.4453 127.672 36.2811C127.473 36.1168 127.309 35.9871 127.179 35.892L127.685 35.3992ZM131.29 35.3863V36.6053H134.532V35.3863H131.29ZM131.29 37.3704V38.6024H134.532V37.3704H131.29ZM131.29 33.428V34.6211H134.532V33.428H131.29ZM130.395 32.624H135.466V39.3935H130.395V32.624ZM141.457 33.9727L142.326 33.5577C142.611 33.869 142.888 34.2105 143.156 34.5822C143.424 34.954 143.666 35.3214 143.882 35.6845C144.098 36.039 144.267 36.3675 144.388 36.6701L143.454 37.1629C143.342 36.869 143.182 36.5361 142.974 36.1644C142.767 35.784 142.529 35.4036 142.261 35.0232C141.993 34.6427 141.725 34.2926 141.457 33.9727ZM137.191 41.4425C137.632 41.2696 138.142 41.0621 138.721 40.82C139.309 40.5779 139.927 40.3185 140.575 40.0419C141.232 39.7566 141.885 39.4756 142.534 39.1989L142.754 40.1456C142.157 40.4136 141.548 40.686 140.926 40.9626C140.303 41.2393 139.702 41.5073 139.123 41.7667C138.544 42.0174 138.016 42.2465 137.541 42.454L137.191 41.4425ZM144.972 39.7436L145.724 39.0952C146.026 39.4064 146.346 39.735 146.683 40.0808C147.029 40.4266 147.366 40.7811 147.695 41.1442C148.023 41.4987 148.33 41.8402 148.616 42.1687C148.901 42.4972 149.134 42.7955 149.316 43.0635L148.486 43.8286C148.304 43.5606 148.08 43.258 147.812 42.9209C147.544 42.5837 147.245 42.2335 146.917 41.8704C146.597 41.4987 146.268 41.1312 145.931 40.7681C145.603 40.3964 145.283 40.0549 144.972 39.7436ZM146.761 32.5981L147.825 32.7018C147.66 34.2061 147.427 35.5462 147.124 36.722C146.822 37.8978 146.415 38.9396 145.905 39.8474C145.404 40.7465 144.76 41.5289 143.973 42.1946C143.195 42.8603 142.24 43.4309 141.107 43.9064C141.064 43.8373 140.995 43.7465 140.9 43.6341C140.804 43.5304 140.705 43.4266 140.601 43.3229C140.498 43.2191 140.407 43.1327 140.329 43.0635C141.453 42.6485 142.391 42.1384 143.143 41.5332C143.904 40.9194 144.526 40.1889 145.011 39.3416C145.495 38.4857 145.871 37.5044 146.139 36.3978C146.415 35.2825 146.623 34.0159 146.761 32.5981ZM138.76 32.637L139.758 32.5981L139.992 41.1701L138.993 41.209L138.76 32.637ZM155.787 36.1384H161.117V37.1111H155.787V36.1384ZM150.353 42.2724H162.012V43.2451H150.353V42.2724ZM155.23 32.1312H156.254V42.7912H155.23V32.1312ZM169.975 33.9727C169.888 34.6471 169.776 35.3517 169.637 36.0866C169.508 36.8214 169.339 37.5347 169.132 38.2263C168.872 39.1168 168.583 39.8603 168.263 40.4569C167.951 41.0534 167.614 41.503 167.251 41.8056C166.888 42.1082 166.508 42.2595 166.11 42.2595C165.73 42.2595 165.362 42.1211 165.008 41.8445C164.653 41.5678 164.364 41.1701 164.139 40.6514C163.914 40.124 163.802 39.5059 163.802 38.7969C163.802 38.088 163.944 37.418 164.23 36.7868C164.524 36.1557 164.926 35.5981 165.436 35.1139C165.954 34.6211 166.56 34.2321 167.251 33.9468C167.943 33.6615 168.682 33.5188 169.469 33.5188C170.23 33.5188 170.913 33.6442 171.518 33.8949C172.132 34.1456 172.655 34.4915 173.087 34.9324C173.519 35.3647 173.852 35.8704 174.085 36.4497C174.319 37.0203 174.436 37.6341 174.436 38.2912C174.436 39.1989 174.241 39.9987 173.852 40.6903C173.472 41.3819 172.918 41.9439 172.192 42.3762C171.475 42.8085 170.601 43.0938 169.573 43.2321L168.963 42.2724C169.17 42.2465 169.369 42.2206 169.56 42.1946C169.75 42.1687 169.923 42.1384 170.078 42.1039C170.493 42.0088 170.895 41.8618 171.284 41.6629C171.682 41.4554 172.036 41.1961 172.348 40.8848C172.659 40.5649 172.905 40.1889 173.087 39.7566C173.277 39.3157 173.372 38.8142 173.372 38.2523C173.372 37.7249 173.286 37.2364 173.113 36.7868C172.94 36.3286 172.685 35.9266 172.348 35.5808C172.011 35.235 171.6 34.9626 171.116 34.7638C170.632 34.5649 170.078 34.4655 169.456 34.4655C168.747 34.4655 168.103 34.5952 167.524 34.8546C166.953 35.1139 166.464 35.4554 166.058 35.8791C165.66 36.294 165.353 36.7523 165.137 37.2537C164.921 37.7465 164.813 38.2306 164.813 38.7062C164.813 39.2508 164.882 39.7004 165.021 40.0549C165.168 40.4007 165.341 40.6557 165.539 40.82C165.747 40.9843 165.95 41.0664 166.149 41.0664C166.356 41.0664 166.568 40.967 166.784 40.7681C167 40.5606 167.221 40.2321 167.446 39.7825C167.67 39.3243 167.891 38.7321 168.107 38.0059C168.297 37.3834 168.457 36.722 168.587 36.0217C168.725 35.3214 168.825 34.6341 168.885 33.9597L169.975 33.9727ZM176.083 40.3402C176.593 40.2191 177.207 40.0678 177.924 39.8863C178.642 39.6961 179.372 39.5015 180.116 39.3027L180.245 40.2234C179.554 40.4223 178.862 40.6168 178.171 40.807C177.488 40.9972 176.865 41.1701 176.303 41.3258L176.083 40.3402ZM179.675 31.9886H180.622V43.8546H179.675V31.9886ZM177.029 33.428H177.95V40.4698H177.029V33.428ZM181.192 32.9353H186.989V33.8819H181.192V32.9353ZM186.73 32.9353H186.885L187.067 32.8963L187.702 33.0909C187.452 34.9151 187.032 36.5275 186.444 37.9281C185.856 39.32 185.143 40.5087 184.305 41.4943C183.466 42.4799 182.537 43.2624 181.516 43.8416C181.473 43.7638 181.413 43.6687 181.335 43.5563C181.257 43.4526 181.175 43.3488 181.088 43.2451C181.011 43.15 180.933 43.0765 180.855 43.0246C181.564 42.6528 182.234 42.16 182.865 41.5462C183.496 40.9324 184.067 40.2062 184.577 39.3675C185.096 38.5203 185.537 37.5779 185.9 36.5404C186.271 35.503 186.548 34.3747 186.73 33.1557V32.9353ZM182.748 33.9597C183.016 35.343 183.384 36.6312 183.851 37.8243C184.326 39.0087 184.927 40.0462 185.653 40.9367C186.379 41.8272 187.248 42.5232 188.26 43.0246C188.191 43.0851 188.109 43.1629 188.013 43.258C187.927 43.3531 187.845 43.4526 187.767 43.5563C187.689 43.6687 187.62 43.7681 187.56 43.8546C186.505 43.2753 185.606 42.5145 184.862 41.5722C184.119 40.6211 183.5 39.5188 183.008 38.2652C182.524 37.003 182.13 35.624 181.828 34.1283L182.748 33.9597ZM196.897 36.8906L197.571 36.333C197.839 36.7393 198.116 37.1716 198.401 37.6298C198.695 38.088 198.967 38.5376 199.218 38.9785C199.469 39.4108 199.668 39.7955 199.815 40.1327L199.101 40.7422C198.954 40.3964 198.756 40.003 198.505 39.5621C198.263 39.1125 197.999 38.6543 197.714 38.1874C197.437 37.7206 197.165 37.2883 196.897 36.8906ZM194.109 34.3747H200.217V35.2695H194.99V43.8546H194.109V34.3747ZM199.828 34.3747H200.722V42.7523C200.722 43.0116 200.692 43.2148 200.632 43.3618C200.571 43.5174 200.454 43.6298 200.281 43.699C200.109 43.7768 199.879 43.8243 199.594 43.8416C199.318 43.8675 198.972 43.8805 198.557 43.8805C198.539 43.7508 198.501 43.5952 198.44 43.4137C198.388 43.2407 198.328 43.0894 198.258 42.9598C198.561 42.9771 198.842 42.9857 199.101 42.9857C199.361 42.9857 199.529 42.9814 199.607 42.9727C199.754 42.9727 199.828 42.8992 199.828 42.7523V34.3747ZM197.078 31.9237H197.999C197.973 32.8747 197.93 33.7912 197.869 34.673C197.818 35.5549 197.709 36.3805 197.545 37.15C197.381 37.9194 197.139 38.6197 196.819 39.2508C196.508 39.8733 196.084 40.4093 195.548 40.8589C195.505 40.7897 195.444 40.7162 195.366 40.6384C195.297 40.5606 195.22 40.4871 195.133 40.418C195.055 40.3488 194.982 40.2926 194.913 40.2494C195.405 39.8344 195.79 39.3373 196.067 38.758C196.352 38.1701 196.564 37.5174 196.702 36.7998C196.849 36.0822 196.944 35.3128 196.988 34.4915C197.031 33.6701 197.061 32.8142 197.078 31.9237ZM191.126 31.9367L191.982 32.2868C191.817 32.5894 191.645 32.9136 191.463 33.2595C191.281 33.6053 191.096 33.9381 190.905 34.258C190.724 34.5779 190.547 34.8546 190.374 35.088L189.712 34.7897C189.877 34.539 190.045 34.2494 190.218 33.9208C190.391 33.5837 190.56 33.2422 190.724 32.8963C190.888 32.5419 191.022 32.222 191.126 31.9367ZM192.591 33.4151L193.408 33.7912C193.114 34.284 192.786 34.807 192.423 35.3603C192.068 35.9136 191.709 36.4453 191.346 36.9554C190.983 37.4655 190.637 37.9151 190.309 38.3041L189.712 37.967C189.954 37.673 190.205 37.3402 190.464 36.9684C190.732 36.588 190.992 36.1946 191.243 35.7883C191.502 35.3733 191.744 34.9626 191.969 34.5563C192.202 34.1413 192.41 33.7609 192.591 33.4151ZM189.09 34.673L189.583 34.0246C189.825 34.2234 190.067 34.4482 190.309 34.6989C190.56 34.941 190.789 35.1831 190.996 35.4252C191.204 35.6586 191.364 35.8704 191.476 36.0606L190.944 36.7998C190.832 36.601 190.672 36.3762 190.464 36.1255C190.266 35.8661 190.045 35.611 189.803 35.3603C189.561 35.1096 189.323 34.8805 189.09 34.673ZM192.124 36.4367L192.812 36.1514C192.993 36.4281 193.166 36.7306 193.33 37.0592C193.495 37.3791 193.637 37.6946 193.758 38.0059C193.888 38.3085 193.983 38.5808 194.044 38.8229L193.305 39.1471C193.253 38.905 193.162 38.6283 193.032 38.3171C192.911 38.0059 192.773 37.686 192.617 37.3574C192.462 37.0203 192.297 36.7134 192.124 36.4367ZM189.038 37.7465C189.609 37.7292 190.279 37.7033 191.048 37.6687C191.817 37.6341 192.613 37.5995 193.434 37.5649L193.421 38.356C192.652 38.4079 191.891 38.4598 191.139 38.5116C190.387 38.5549 189.717 38.5981 189.129 38.6413L189.038 37.7465ZM192.462 39.4843L193.175 39.2638C193.348 39.6269 193.512 40.0332 193.668 40.4828C193.832 40.9237 193.944 41.3041 194.005 41.624L193.266 41.8834C193.205 41.5549 193.097 41.1701 192.941 40.7292C192.794 40.2796 192.634 39.8647 192.462 39.4843ZM189.777 39.3546L190.607 39.4972C190.521 40.1111 190.4 40.7162 190.244 41.3128C190.088 41.9007 189.907 42.4021 189.699 42.8171C189.639 42.7739 189.561 42.7307 189.466 42.6874C189.379 42.6442 189.284 42.601 189.181 42.5577C189.086 42.5059 188.999 42.467 188.921 42.441C189.146 42.0433 189.323 41.5722 189.453 41.0275C189.591 40.4742 189.699 39.9165 189.777 39.3546ZM191.165 38.1096H192.034V43.8935H191.165V38.1096ZM202.642 34.7638H212.705V35.7623H202.642V34.7638ZM212.329 34.7638H213.328C213.328 34.7638 213.328 34.7984 213.328 34.8675C213.328 34.9367 213.323 35.0102 213.315 35.088C213.315 35.1658 213.31 35.2306 213.302 35.2825C213.233 36.6226 213.159 37.7638 213.081 38.7062C213.012 39.6485 212.93 40.4266 212.835 41.0405C212.748 41.6456 212.649 42.1255 212.537 42.4799C212.433 42.8258 212.307 43.0765 212.16 43.2321C212.005 43.4223 211.841 43.552 211.668 43.6211C211.503 43.6903 211.296 43.7379 211.045 43.7638C210.829 43.7811 210.526 43.7854 210.137 43.7768C209.757 43.7681 209.368 43.7552 208.97 43.7379C208.962 43.5909 208.927 43.4223 208.867 43.2321C208.815 43.0419 208.737 42.8776 208.633 42.7393C209.083 42.7739 209.493 42.7998 209.865 42.8171C210.245 42.8258 210.518 42.8301 210.682 42.8301C210.82 42.8301 210.933 42.8171 211.019 42.7912C211.114 42.7652 211.201 42.709 211.279 42.6226C211.4 42.5102 211.508 42.2897 211.603 41.9612C211.707 41.624 211.797 41.1572 211.875 40.5606C211.962 39.9554 212.039 39.1946 212.109 38.2782C212.186 37.3618 212.26 36.2595 212.329 34.9713V34.7638ZM206.882 31.9626H207.894V34.2061C207.894 34.8027 207.868 35.4338 207.816 36.0995C207.764 36.7566 207.652 37.4309 207.479 38.1226C207.306 38.8056 207.042 39.4886 206.688 40.1716C206.333 40.8546 205.858 41.516 205.261 42.1557C204.665 42.7869 203.913 43.3747 203.005 43.9194C202.953 43.833 202.884 43.7422 202.797 43.6471C202.711 43.552 202.62 43.4569 202.525 43.3618C202.43 43.2753 202.339 43.2062 202.253 43.1543C203.117 42.6356 203.83 42.0822 204.392 41.4943C204.963 40.9064 205.413 40.3013 205.741 39.6788C206.078 39.0477 206.325 38.4165 206.48 37.7854C206.645 37.1543 206.753 36.5361 206.805 35.9309C206.856 35.3257 206.882 34.7508 206.882 34.2061V31.9626Z" fill="#040000"/>
<path d="M152.341 50.1829C152.341 50.1829 156.548 56.0909 150 58.8528C150 58.8528 159.328 59.7125 159.328 50" fill="white"/>
<path d="M152.341 50.1829C152.341 50.1829 156.548 56.0909 150 58.8528C150 58.8528 159.328 59.7125 159.328 50" stroke="#040000" stroke-width="1.04259" stroke-linecap="round" stroke-linejoin="round"/>
</svg>
