<svg width="265" height="60" viewBox="0 0 265 60" fill="none" xmlns="http://www.w3.org/2000/svg">
<rect x="0.5" y="0.5" width="199.321" height="26.6604" rx="13.3302" fill="white"/>
<rect x="0.5" y="0.5" width="199.321" height="26.6604" rx="13.3302" stroke="black"/>
<path d="M16.3319 9.72632H21.1302V10.673H16.3319V9.72632ZM10.3276 8.74073H16.6561V9.66148H10.3276V8.74073ZM11.8449 11.3863H15.2037V12.2681H11.8449V11.3863ZM11.8449 14.0837H15.2037V14.9655H11.8449V14.0837ZM20.8319 9.72632H21.0135L21.1821 9.68741L21.8046 9.856C21.5971 11.5851 21.2469 13.0851 20.7541 14.356C20.2613 15.6183 19.6475 16.6903 18.9126 17.5722C18.1864 18.4454 17.3564 19.15 16.4227 19.686C16.3449 19.5649 16.2455 19.4223 16.1244 19.258C16.0034 19.1024 15.891 18.9771 15.7873 18.882C16.6432 18.441 17.417 17.8099 18.1086 16.9886C18.8002 16.1673 19.3795 15.1687 19.8464 13.9929C20.3219 12.8171 20.6504 11.4684 20.8319 9.94678V9.72632ZM17.5121 10.7249C17.7455 11.9698 18.074 13.1283 18.4977 14.2004C18.9213 15.2724 19.4487 16.2148 20.0798 17.0275C20.7196 17.8315 21.4847 18.4626 22.3752 18.9209C22.306 18.9814 22.2282 19.0592 22.1417 19.1543C22.0553 19.2494 21.9732 19.3445 21.8953 19.4396C21.8175 19.5433 21.7527 19.6384 21.7008 19.7249C20.7585 19.1975 19.9544 18.5059 19.2887 17.65C18.6317 16.7854 18.0827 15.7868 17.6417 14.6543C17.2095 13.5131 16.855 12.2638 16.5783 10.9064L17.5121 10.7249ZM11.3262 9.09087H12.2599V17.5073H11.3262V9.09087ZM14.8017 9.09087H15.7484V19.8416H14.8017V9.09087ZM10.0553 17.235C10.4876 17.1745 10.9803 17.1096 11.5337 17.0405C12.087 16.9626 12.6749 16.8805 13.2974 16.7941C13.9285 16.699 14.5596 16.6039 15.1907 16.5087L15.2426 17.4036C14.3521 17.5505 13.4616 17.6975 12.5711 17.8445C11.6893 17.9828 10.9112 18.0995 10.2368 18.1946L10.0553 17.235ZM27.0697 8.59808C27.0005 8.84015 26.9314 9.12113 26.8622 9.44102C26.8017 9.75226 26.7412 10.0808 26.6807 10.4266C26.6288 10.7638 26.5812 11.088 26.538 11.3992C26.5034 11.7105 26.4775 11.9785 26.4602 12.2033C26.5985 11.8747 26.7801 11.5376 27.0049 11.1917C27.2296 10.8459 27.4977 10.5304 27.8089 10.2451C28.1201 9.9511 28.4573 9.71335 28.8204 9.5318C29.1922 9.35024 29.5812 9.25946 29.9876 9.25946C30.5668 9.25946 31.0769 9.44102 31.5178 9.80413C31.9674 10.1672 32.3176 10.6817 32.5683 11.3474C32.819 12.0131 32.9444 12.7998 32.9444 13.7076C32.9444 14.6067 32.8103 15.3892 32.5423 16.0549C32.2743 16.7119 31.8982 17.2696 31.4141 17.7278C30.9299 18.186 30.3507 18.5577 29.6763 18.843C29.0106 19.1283 28.2758 19.3402 27.4717 19.4785L26.8622 18.5448C27.5625 18.441 28.2152 18.2854 28.8204 18.0779C29.4343 17.8618 29.9703 17.5722 30.4285 17.209C30.8867 16.8373 31.2412 16.3661 31.4919 15.7955C31.7513 15.2249 31.881 14.5332 31.881 13.7206C31.881 13.0376 31.8031 12.4324 31.6475 11.905C31.4919 11.369 31.2628 10.9497 30.9602 10.6471C30.6576 10.3445 30.2772 10.1932 29.819 10.1932C29.4126 10.1932 29.0236 10.3229 28.6518 10.5822C28.2801 10.8416 27.9386 11.1788 27.6273 11.5938C27.3248 12.0001 27.0784 12.441 26.8882 12.9165C26.6979 13.3834 26.5812 13.8286 26.538 14.2523C26.5034 14.503 26.4861 14.7494 26.4861 14.9915C26.4948 15.2335 26.5207 15.5188 26.5639 15.8474L25.5654 15.9252C25.5308 15.6831 25.4962 15.3848 25.4616 15.0304C25.4357 14.6759 25.4227 14.2868 25.4227 13.8632C25.4227 13.5606 25.4357 13.2234 25.4616 12.8517C25.4962 12.4713 25.5308 12.0909 25.5654 11.7105C25.6086 11.3214 25.6518 10.9497 25.6951 10.5952C25.7469 10.2407 25.7902 9.93381 25.8247 9.67445C25.8507 9.4756 25.8723 9.2854 25.8896 9.10384C25.9069 8.91364 25.9198 8.73208 25.9285 8.55917L27.0697 8.59808ZM38.7282 9.92084H42.0481V10.8416H38.7282V9.92084ZM44.3954 7.94966H45.3939V19.8416H44.3954V7.94966ZM37.3147 13.1759L37.8334 12.4756C38.1965 12.6745 38.5726 12.9036 38.9617 13.1629C39.3507 13.4136 39.7181 13.6687 40.064 13.9281C40.4098 14.1874 40.6864 14.4295 40.8939 14.6543L40.3493 15.4583C40.1418 15.2335 39.8694 14.9871 39.5323 14.7191C39.1951 14.4425 38.832 14.1701 38.4429 13.9021C38.0625 13.6341 37.6864 13.392 37.3147 13.1759ZM39.1173 7.92372L40.0769 8.13122C39.8521 8.96983 39.5755 9.77819 39.247 10.5563C38.9184 11.3257 38.551 12.0347 38.1446 12.6831C37.7383 13.3315 37.2931 13.8978 36.8089 14.3819C36.7484 14.3214 36.6663 14.2523 36.5625 14.1745C36.4674 14.0966 36.368 14.0188 36.2642 13.941C36.1605 13.8632 36.0654 13.8027 35.9789 13.7595C36.4631 13.3099 36.904 12.7825 37.3017 12.1773C37.6994 11.5721 38.0495 10.9064 38.3521 10.1802C38.6547 9.45398 38.9098 8.70182 39.1173 7.92372ZM43.0596 11.0102C43.3363 11.5203 43.6692 12.0217 44.0582 12.5145C44.4559 13.0073 44.8925 13.4785 45.368 13.9281C45.8435 14.369 46.3406 14.7667 46.8594 15.1211C47.3781 15.4756 47.8968 15.7696 48.4156 16.003C48.3464 16.0635 48.2643 16.1456 48.1692 16.2494C48.0827 16.3445 48.0006 16.4439 47.9228 16.5477C47.8449 16.6428 47.7801 16.7379 47.7282 16.833C47.1922 16.5563 46.6648 16.2234 46.1461 15.8344C45.6274 15.4367 45.1259 14.9958 44.6418 14.5116C44.1663 14.0275 43.7253 13.5174 43.319 12.9814C42.9127 12.4367 42.5539 11.8834 42.2426 11.3214L43.0596 11.0102ZM41.7628 9.92084H41.9444L42.1259 9.88194L42.7614 10.1024C42.502 11.7883 42.1 13.2623 41.5553 14.5246C41.0106 15.7782 40.3579 16.8416 39.5971 17.7148C38.8363 18.5794 37.989 19.2753 37.0553 19.8027C37.0034 19.7249 36.9299 19.6384 36.8348 19.5433C36.7397 19.4482 36.6446 19.3575 36.5495 19.271C36.4544 19.1845 36.368 19.1197 36.2902 19.0765C37.2153 18.5837 38.0452 17.9353 38.7801 17.1312C39.5236 16.3272 40.1504 15.3502 40.6605 14.2004C41.1706 13.0419 41.538 11.6932 41.7628 10.1543V9.92084ZM53.0193 8.72776C52.9847 8.9439 52.9588 9.16436 52.9415 9.38914C52.9242 9.60528 52.9112 9.82142 52.9026 10.0376C52.8853 10.4007 52.868 10.8502 52.8507 11.3863C52.8334 11.9223 52.8161 12.4929 52.7988 13.0981C52.7816 13.6946 52.7686 14.2912 52.7599 14.8877C52.7513 15.4843 52.747 16.0203 52.747 16.4958C52.747 16.9713 52.8378 17.3517 53.0193 17.637C53.2009 17.9223 53.4516 18.1255 53.7715 18.2465C54.0914 18.3675 54.4588 18.4281 54.8738 18.4281C55.4617 18.4281 55.9934 18.3546 56.4689 18.2076C56.9444 18.052 57.368 17.8488 57.7398 17.5981C58.1115 17.3387 58.4401 17.0491 58.7254 16.7292C59.0193 16.4093 59.283 16.0808 59.5164 15.7436L60.2556 16.6255C60.0308 16.9367 59.7542 17.2609 59.4257 17.5981C59.1058 17.9266 58.7254 18.2335 58.2844 18.5188C57.8435 18.8041 57.3334 19.0376 56.7542 19.2191C56.1836 19.4007 55.5438 19.4915 54.8349 19.4915C54.221 19.4915 53.6764 19.3964 53.2009 19.2062C52.7254 19.016 52.3536 18.709 52.0856 18.2854C51.8176 17.8618 51.6836 17.2998 51.6836 16.5995C51.6836 16.2105 51.6879 15.7825 51.6965 15.3157C51.7052 14.8402 51.7182 14.3517 51.7354 13.8502C51.7527 13.3488 51.7657 12.8603 51.7744 12.3848C51.783 11.9007 51.7916 11.4554 51.8003 11.0491C51.8089 10.6427 51.8133 10.3056 51.8133 10.0376C51.8133 9.79548 51.8046 9.56205 51.7873 9.33727C51.77 9.11249 51.7441 8.90499 51.7095 8.71479L53.0193 8.72776ZM62.2103 10.2969C62.4524 10.2883 62.6728 10.2796 62.8717 10.271C63.0792 10.2537 63.2434 10.2407 63.3645 10.2321C63.572 10.2061 63.8702 10.1759 64.2593 10.1413C64.657 10.0981 65.1109 10.0549 65.621 10.0116C66.1311 9.95975 66.68 9.90788 67.2679 9.856C67.8558 9.80413 68.4481 9.75226 69.0446 9.70038C69.5201 9.65716 69.9697 9.62257 70.3933 9.59664C70.8169 9.56205 71.2103 9.53612 71.5734 9.51883C71.9365 9.49289 72.2607 9.4756 72.546 9.46695V10.5044C72.304 10.5044 72.0273 10.5087 71.7161 10.5174C71.4048 10.526 71.0979 10.5433 70.7953 10.5693C70.4927 10.5952 70.229 10.6427 70.0043 10.7119C69.546 10.8589 69.1311 11.0837 68.7593 11.3863C68.3962 11.6802 68.0849 12.0217 67.8256 12.4108C67.5662 12.7998 67.3674 13.2018 67.229 13.6168C67.0994 14.0318 67.0345 14.4338 67.0345 14.8229C67.0345 15.3243 67.121 15.7652 67.2939 16.1456C67.4668 16.5174 67.7002 16.833 67.9942 17.0923C68.2968 17.3517 68.6383 17.5635 69.0187 17.7278C69.3991 17.892 69.8011 18.0174 70.2247 18.1039C70.657 18.1817 71.0849 18.2249 71.5086 18.2335L71.1325 19.3099C70.6483 19.2926 70.1642 19.2235 69.68 19.1024C69.1959 18.99 68.7334 18.8258 68.2924 18.6096C67.8515 18.3848 67.4581 18.1039 67.1123 17.7667C66.7665 17.4295 66.4942 17.0361 66.2953 16.5866C66.0965 16.137 65.997 15.6226 65.997 15.0433C65.997 14.369 66.1138 13.7465 66.3472 13.1759C66.5893 12.5966 66.8962 12.0909 67.2679 11.6586C67.6397 11.2263 68.0244 10.8935 68.4221 10.66C68.1455 10.6946 67.7996 10.7335 67.3847 10.7768C66.9783 10.82 66.5417 10.8675 66.0749 10.9194C65.608 10.9626 65.1368 11.0145 64.6613 11.075C64.1944 11.1355 63.7578 11.1961 63.3515 11.2566C62.9452 11.3085 62.6037 11.3647 62.327 11.4252L62.2103 10.2969ZM70.6786 12.0995C70.7737 12.2379 70.8861 12.4151 71.0158 12.6312C71.1541 12.8387 71.2881 13.0549 71.4178 13.2796C71.5475 13.4958 71.6556 13.7033 71.742 13.9021L71.0806 14.2134C70.9337 13.8935 70.7694 13.5779 70.5878 13.2667C70.4063 12.9468 70.2161 12.6528 70.0172 12.3848L70.6786 12.0995ZM72.0922 11.5549C72.1959 11.6932 72.3169 11.8661 72.4553 12.0736C72.5936 12.2811 72.7276 12.4972 72.8573 12.722C72.9956 12.9381 73.1167 13.1456 73.2204 13.3445L72.546 13.6687C72.3904 13.3488 72.2175 13.0332 72.0273 12.722C71.8458 12.4108 71.6556 12.1211 71.4567 11.8531L72.0922 11.5549ZM76.4754 9.94678C77.3832 10.0505 78.2478 10.111 79.0691 10.1283C79.8991 10.1456 80.6469 10.124 81.3126 10.0635C81.84 10.0116 82.3631 9.93381 82.8818 9.83007C83.4092 9.71767 83.9063 9.58799 84.3731 9.44102L84.5158 10.3747C84.0922 10.4958 83.6167 10.6082 83.0893 10.7119C82.5706 10.8157 82.0518 10.8935 81.5331 10.9453C80.876 11.0059 80.1109 11.0361 79.2377 11.0361C78.3731 11.0275 77.474 10.9799 76.5403 10.8935L76.4754 9.94678ZM76.229 12.6053C76.9639 12.6831 77.6901 12.735 78.4077 12.7609C79.1253 12.7782 79.804 12.7739 80.4437 12.7479C81.0835 12.722 81.6541 12.6788 82.1556 12.6183C82.778 12.5491 83.3443 12.4583 83.8544 12.3459C84.3645 12.2335 84.7925 12.1211 85.1383 12.0087L85.2939 12.9814C84.9394 13.0765 84.5244 13.1716 84.0489 13.2667C83.5734 13.3531 83.0633 13.4309 82.5187 13.5001C81.9827 13.5606 81.3731 13.6082 80.6901 13.6428C80.0071 13.6687 79.2852 13.6773 78.5244 13.6687C77.7723 13.6514 77.0244 13.6211 76.2809 13.5779L76.229 12.6053ZM80.6642 9.77819C80.6123 9.57935 80.5518 9.38482 80.4827 9.19462C80.4221 8.99577 80.3616 8.80557 80.3011 8.62401L81.4034 8.48136C81.4466 8.84447 81.5158 9.22488 81.6109 9.62257C81.706 10.0116 81.8097 10.3963 81.9221 10.7768C82.0345 11.1485 82.1426 11.4857 82.2463 11.7883C82.3674 12.1255 82.51 12.4842 82.6743 12.8647C82.8386 13.2451 83.0201 13.6211 83.219 13.9929C83.4178 14.3647 83.6296 14.7191 83.8544 15.0563C83.9236 15.1514 83.9971 15.2465 84.0749 15.3416C84.1613 15.4281 84.2478 15.5188 84.3342 15.6139L83.8025 16.405C83.5605 16.3358 83.2752 16.2796 82.9466 16.2364C82.6181 16.1845 82.2809 16.1413 81.9351 16.1067C81.5893 16.0635 81.2651 16.0246 80.9625 15.99L81.0533 15.1989C81.3991 15.2335 81.7579 15.2724 82.1296 15.3157C82.5014 15.3589 82.791 15.3935 82.9985 15.4194C82.6354 14.8575 82.3155 14.2782 82.0389 13.6817C81.7708 13.0851 81.5417 12.5232 81.3515 11.9958C81.2478 11.7018 81.1527 11.4295 81.0662 11.1788C80.9884 10.9194 80.9149 10.673 80.8458 10.4396C80.7852 10.2061 80.7247 9.98569 80.6642 9.77819ZM78.1095 15.3935C77.9538 15.6183 77.8241 15.8474 77.7204 16.0808C77.6167 16.3142 77.5648 16.5736 77.5648 16.8589C77.5648 17.3949 77.8069 17.7969 78.291 18.0649C78.7838 18.333 79.5403 18.467 80.5605 18.467C81.1657 18.467 81.7146 18.4454 82.2074 18.4021C82.7002 18.3589 83.1801 18.2897 83.6469 18.1946L83.608 19.2321C83.1584 19.3013 82.6786 19.3531 82.1685 19.3877C81.6584 19.4309 81.1267 19.4526 80.5734 19.4526C79.7262 19.4526 79.0043 19.3661 78.4077 19.1932C77.8198 19.0203 77.3703 18.7566 77.059 18.4021C76.7564 18.0477 76.6008 17.5938 76.5922 17.0405C76.5835 16.6687 76.6267 16.3402 76.7218 16.0549C76.8256 15.7609 76.9509 15.4713 77.0979 15.186L78.1095 15.3935ZM89.9556 9.27243C90.1026 9.28972 90.2582 9.30269 90.4225 9.31133C90.5954 9.31998 90.7467 9.3243 90.8764 9.3243C91.006 9.3243 91.2179 9.31998 91.5118 9.31133C91.8144 9.30269 92.1516 9.29404 92.5233 9.2854C92.9037 9.26811 93.2798 9.25514 93.6516 9.24649C94.032 9.2292 94.3692 9.21191 94.6631 9.19462C94.9657 9.17733 95.1862 9.16436 95.3245 9.15571C95.5147 9.13842 95.6617 9.12113 95.7654 9.10384C95.8692 9.08655 95.9556 9.06926 96.0248 9.05197L96.6213 9.80413C96.5089 9.88194 96.3879 9.96407 96.2582 10.0505C96.1372 10.137 96.0161 10.2321 95.8951 10.3358C95.7308 10.4569 95.5104 10.6341 95.2337 10.8675C94.9571 11.0923 94.6501 11.3474 94.313 11.6327C93.9844 11.9093 93.6602 12.1817 93.3403 12.4497C93.0205 12.7177 92.7308 12.9598 92.4715 13.1759C92.7741 13.0721 93.0766 13.003 93.3792 12.9684C93.6905 12.9252 93.9888 12.9036 94.2741 12.9036C94.9916 12.9036 95.6271 13.0376 96.1804 13.3056C96.7424 13.5649 97.179 13.9237 97.4902 14.3819C97.8101 14.8402 97.97 15.3632 97.97 15.9511C97.97 16.6428 97.7885 17.2479 97.4254 17.7667C97.0622 18.2854 96.5478 18.6831 95.8821 18.9598C95.2164 19.2451 94.4254 19.3877 93.5089 19.3877C92.921 19.3877 92.4153 19.3099 91.9916 19.1543C91.568 18.9987 91.2395 18.7825 91.006 18.5059C90.7813 18.2292 90.6689 17.9093 90.6689 17.5462C90.6689 17.2523 90.751 16.9756 90.9153 16.7162C91.0795 16.4569 91.313 16.2494 91.6156 16.0938C91.9181 15.9381 92.2683 15.8603 92.666 15.8603C93.2452 15.8603 93.7251 15.9814 94.1055 16.2234C94.4859 16.4569 94.7798 16.7681 94.9873 17.1572C95.1948 17.5376 95.3115 17.9482 95.3375 18.3892L94.4037 18.5448C94.3692 17.9915 94.1962 17.5376 93.885 17.1831C93.5824 16.82 93.1718 16.6384 92.653 16.6384C92.3591 16.6384 92.1127 16.7206 91.9138 16.8848C91.715 17.0491 91.6156 17.2436 91.6156 17.4684C91.6156 17.7796 91.7755 18.026 92.0954 18.2076C92.4153 18.3892 92.8303 18.4799 93.3403 18.4799C94.0752 18.4799 94.7107 18.3805 95.2467 18.1817C95.7914 17.9828 96.2063 17.6932 96.4916 17.3128C96.7856 16.9324 96.9326 16.4742 96.9326 15.9381C96.9326 15.5145 96.8072 15.1341 96.5565 14.7969C96.3058 14.4598 95.9599 14.1961 95.519 14.0059C95.0867 13.807 94.5896 13.7076 94.0277 13.7076C93.483 13.7076 92.9945 13.7681 92.5622 13.8891C92.13 14.0015 91.7236 14.1658 91.3432 14.3819C90.9715 14.5981 90.5997 14.8704 90.2279 15.1989C89.8648 15.5188 89.4758 15.8863 89.0608 16.3013L88.3216 15.5361C88.5896 15.32 88.8836 15.0779 89.2034 14.8099C89.532 14.5332 89.8605 14.2609 90.189 13.9929C90.5176 13.7162 90.8202 13.4612 91.0968 13.2278C91.3821 12.9857 91.6199 12.7868 91.8101 12.6312C91.9916 12.4842 92.2164 12.2984 92.4844 12.0736C92.7611 11.8402 93.0464 11.5981 93.3403 11.3474C93.6343 11.0966 93.9109 10.8589 94.1703 10.6341C94.4383 10.4093 94.6545 10.2278 94.8187 10.0894C94.6804 10.0894 94.4772 10.0981 94.2092 10.1154C93.9412 10.124 93.6429 10.137 93.3144 10.1543C92.9859 10.1629 92.6573 10.1759 92.3288 10.1932C92.0089 10.2105 91.715 10.2278 91.447 10.2451C91.1876 10.2537 90.9888 10.2623 90.8504 10.271C90.7121 10.2796 90.5694 10.2883 90.4225 10.2969C90.2755 10.3056 90.1328 10.3229 89.9945 10.3488L89.9556 9.27243ZM109.175 12.8776C109.175 13.7422 109.118 14.5073 109.006 15.173C108.902 15.8387 108.712 16.4309 108.435 16.9497C108.159 17.4684 107.778 17.9309 107.294 18.3373C106.819 18.735 106.209 19.0981 105.466 19.4266L104.597 18.6096C105.193 18.3762 105.712 18.1211 106.153 17.8445C106.594 17.5678 106.961 17.222 107.255 16.807C107.549 16.392 107.77 15.8733 107.917 15.2508C108.064 14.6283 108.137 13.8632 108.137 12.9554V9.80413C108.137 9.54476 108.129 9.31998 108.111 9.12978C108.094 8.93093 108.081 8.80125 108.072 8.74073H109.239C109.231 8.80125 109.218 8.93093 109.201 9.12978C109.183 9.31998 109.175 9.54476 109.175 9.80413V12.8776ZM104.506 8.81854C104.497 8.87906 104.484 8.99577 104.467 9.16868C104.45 9.34159 104.441 9.54044 104.441 9.76522V14.5116C104.441 14.6672 104.446 14.8315 104.454 15.0044C104.463 15.1687 104.471 15.3157 104.48 15.4453C104.489 15.5664 104.493 15.6485 104.493 15.6917H103.352C103.352 15.6485 103.356 15.5664 103.365 15.4453C103.373 15.3243 103.382 15.1817 103.391 15.0174C103.399 14.8445 103.404 14.6759 103.404 14.5116V9.76522C103.404 9.61825 103.399 9.46263 103.391 9.29837C103.382 9.12545 103.369 8.96551 103.352 8.81854H104.506ZM100.706 11.3344C100.75 11.343 100.836 11.356 100.966 11.3733C101.104 11.3819 101.268 11.3949 101.459 11.4122C101.649 11.4208 101.83 11.4252 102.003 11.4252H110.601C110.886 11.4252 111.133 11.4165 111.34 11.3992C111.548 11.3819 111.699 11.369 111.794 11.3603V12.4626C111.716 12.454 111.569 12.4453 111.353 12.4367C111.137 12.4281 110.886 12.4237 110.601 12.4237H102.003C101.822 12.4237 101.64 12.4281 101.459 12.4367C101.277 12.4367 101.117 12.441 100.979 12.4497C100.849 12.4583 100.758 12.4626 100.706 12.4626V11.3344ZM115.75 9.3243C115.983 9.47992 116.251 9.67445 116.554 9.90788C116.856 10.1327 117.163 10.3747 117.474 10.6341C117.794 10.8848 118.093 11.1312 118.369 11.3733C118.646 11.6154 118.875 11.8272 119.057 12.0087L118.24 12.8257C118.075 12.6615 117.863 12.4583 117.604 12.2162C117.345 11.9742 117.059 11.7234 116.748 11.4641C116.437 11.1961 116.13 10.9453 115.827 10.7119C115.525 10.4698 115.252 10.271 115.01 10.1154L115.75 9.3243ZM114.634 18.0131C115.395 17.9007 116.087 17.7451 116.709 17.5462C117.34 17.3474 117.915 17.1226 118.434 16.8719C118.953 16.6211 119.415 16.3704 119.822 16.1197C120.487 15.7047 121.101 15.2292 121.663 14.6932C122.225 14.1485 122.718 13.5866 123.142 13.0073C123.565 12.4281 123.902 11.8747 124.153 11.3474L124.776 12.4497C124.482 12.9857 124.118 13.5304 123.686 14.0837C123.254 14.637 122.765 15.1687 122.221 15.6788C121.676 16.1889 121.075 16.6514 120.418 17.0664C119.986 17.3344 119.51 17.5981 118.992 17.8575C118.482 18.1168 117.92 18.3546 117.306 18.5707C116.701 18.7782 116.039 18.9468 115.322 19.0765L114.634 18.0131ZM129.678 8.87041C129.868 8.97416 130.093 9.10816 130.352 9.27243C130.611 9.43669 130.879 9.6096 131.156 9.79116C131.433 9.97272 131.688 10.1456 131.921 10.3099C132.163 10.4655 132.353 10.5952 132.492 10.6989L131.882 11.5808C131.727 11.4684 131.532 11.3301 131.299 11.1658C131.065 11.0015 130.814 10.8329 130.546 10.66C130.278 10.4785 130.015 10.3099 129.755 10.1543C129.505 9.99001 129.284 9.85168 129.094 9.73929L129.678 8.87041ZM127.732 18.1428C128.208 18.0563 128.696 17.9439 129.198 17.8056C129.699 17.6586 130.196 17.49 130.689 17.2998C131.182 17.101 131.644 16.8762 132.077 16.6255C132.794 16.2105 133.46 15.7523 134.074 15.2508C134.688 14.7494 135.241 14.2134 135.734 13.6428C136.227 13.0721 136.646 12.4842 136.992 11.8791L137.614 12.9425C137.052 13.8157 136.339 14.6543 135.474 15.4583C134.618 16.2624 133.672 16.9713 132.634 17.5851C132.193 17.8358 131.714 18.0693 131.195 18.2854C130.685 18.4929 130.179 18.6745 129.678 18.8301C129.185 18.9857 128.735 19.1067 128.329 19.1932L127.732 18.1428ZM127.719 11.7883C127.91 11.8834 128.139 12.0131 128.407 12.1773C128.675 12.333 128.947 12.4972 129.224 12.6701C129.5 12.8344 129.76 12.9943 130.002 13.15C130.244 13.3056 130.434 13.4353 130.572 13.539L129.976 14.4468C129.812 14.3257 129.608 14.1874 129.366 14.0318C129.133 13.8675 128.882 13.7033 128.614 13.539C128.346 13.3661 128.082 13.2018 127.823 13.0462C127.564 12.8906 127.339 12.7652 127.149 12.6701L127.719 11.7883ZM141.388 12.1255C141.526 12.1427 141.682 12.1557 141.855 12.1644C142.036 12.173 142.179 12.1773 142.283 12.1773H148.248C148.412 12.1773 148.572 12.173 148.728 12.1644C148.884 12.1557 149.031 12.1427 149.169 12.1255V13.1629C149.031 13.1456 148.879 13.137 148.715 13.137C148.551 13.137 148.395 13.137 148.248 13.137H142.283C142.179 13.137 142.036 13.137 141.855 13.137C141.682 13.137 141.526 13.1456 141.388 13.1629V12.1255ZM144.669 18.441V12.709H145.719V18.441H144.669ZM140.752 17.8315C140.908 17.8488 141.064 17.8661 141.219 17.8834C141.384 17.892 141.539 17.8964 141.686 17.8964H148.858C149.013 17.8964 149.165 17.892 149.312 17.8834C149.459 17.8661 149.597 17.8488 149.727 17.8315V18.9209C149.597 18.9036 149.446 18.8906 149.273 18.882C149.1 18.882 148.961 18.882 148.858 18.882H141.686C141.548 18.882 141.397 18.882 141.232 18.882C141.077 18.8906 140.917 18.9036 140.752 18.9209V17.8315ZM153.033 13.2148C153.163 13.2234 153.323 13.2364 153.513 13.2537C153.704 13.2623 153.911 13.271 154.136 13.2796C154.369 13.2796 154.603 13.2796 154.836 13.2796C154.974 13.2796 155.186 13.2796 155.472 13.2796C155.765 13.2796 156.107 13.2796 156.496 13.2796C156.885 13.2796 157.296 13.2796 157.728 13.2796C158.169 13.2796 158.606 13.2796 159.038 13.2796C159.479 13.2796 159.894 13.2796 160.283 13.2796C160.68 13.2796 161.022 13.2796 161.307 13.2796C161.593 13.2796 161.804 13.2796 161.943 13.2796C162.271 13.2796 162.552 13.271 162.786 13.2537C163.019 13.2364 163.205 13.2234 163.343 13.2148V14.4857C163.214 14.477 163.019 14.4641 162.76 14.4468C162.509 14.4295 162.241 14.4209 161.956 14.4209C161.817 14.4209 161.601 14.4209 161.307 14.4209C161.013 14.4209 160.672 14.4209 160.283 14.4209C159.902 14.4209 159.492 14.4209 159.051 14.4209C158.61 14.4209 158.169 14.4209 157.728 14.4209C157.296 14.4209 156.885 14.4209 156.496 14.4209C156.116 14.4209 155.778 14.4209 155.485 14.4209C155.191 14.4209 154.974 14.4209 154.836 14.4209C154.482 14.4209 154.144 14.4295 153.825 14.4468C153.505 14.4554 153.241 14.4684 153.033 14.4857V13.2148ZM173.186 9.49289C173.299 9.64851 173.428 9.84303 173.575 10.0765C173.722 10.3012 173.865 10.5347 174.003 10.7768C174.15 11.0188 174.271 11.2436 174.366 11.4511L173.627 11.7883C173.523 11.5635 173.407 11.3387 173.277 11.1139C173.156 10.8805 173.026 10.6557 172.888 10.4396C172.758 10.2148 172.62 10.0073 172.473 9.8171L173.186 9.49289ZM174.755 8.84447C174.868 8.99145 174.998 9.17733 175.144 9.40211C175.3 9.6269 175.451 9.86033 175.598 10.1024C175.745 10.3445 175.871 10.5649 175.974 10.7638L175.248 11.1269C175.136 10.9021 175.015 10.6773 174.885 10.4525C174.755 10.2278 174.617 10.0073 174.47 9.79116C174.332 9.57502 174.189 9.37185 174.042 9.18165L174.755 8.84447ZM168.634 17.8575C168.634 17.7364 168.634 17.4943 168.634 17.1312C168.634 16.7681 168.634 16.3358 168.634 15.8344C168.634 15.3243 168.634 14.7883 168.634 14.2263C168.634 13.6644 168.634 13.1197 168.634 12.5923C168.634 12.0649 168.634 11.5981 168.634 11.1917C168.634 10.7854 168.634 10.4915 168.634 10.3099C168.634 10.1283 168.626 9.90788 168.608 9.64851C168.6 9.38914 168.574 9.16004 168.531 8.96119H169.815C169.789 9.16004 169.767 9.38914 169.75 9.64851C169.732 9.89923 169.724 10.1197 169.724 10.3099C169.724 10.6471 169.724 11.0534 169.724 11.5289C169.724 11.9958 169.724 12.4972 169.724 13.0332C169.724 13.5606 169.724 14.088 169.724 14.6154C169.724 15.1341 169.724 15.6226 169.724 16.0808C169.724 16.5304 169.724 16.9151 169.724 17.235C169.724 17.5462 169.724 17.7537 169.724 17.8575C169.724 17.9871 169.724 18.1471 169.724 18.3373C169.732 18.5275 169.745 18.7134 169.763 18.8949C169.78 19.0851 169.793 19.2494 169.802 19.3877H168.557C168.583 19.1802 168.6 18.9338 168.608 18.6485C168.626 18.3632 168.634 18.0995 168.634 17.8575ZM169.49 12.3589C169.914 12.4886 170.385 12.6442 170.904 12.8257C171.423 12.9987 171.946 13.1845 172.473 13.3834C173.009 13.5822 173.515 13.7854 173.99 13.9929C174.474 14.1917 174.898 14.3819 175.261 14.5635L174.807 15.6658C174.436 15.467 174.016 15.2638 173.549 15.0563C173.091 14.8488 172.616 14.6456 172.123 14.4468C171.63 14.2479 171.155 14.0707 170.696 13.9151C170.247 13.7595 169.845 13.6255 169.49 13.5131V12.3589ZM178.672 10.2969C178.914 10.2883 179.134 10.2796 179.333 10.271C179.541 10.2537 179.705 10.2407 179.826 10.2321C180.034 10.2061 180.332 10.1759 180.721 10.1413C181.119 10.0981 181.572 10.0549 182.083 10.0116C182.593 9.95975 183.142 9.90788 183.73 9.856C184.317 9.80413 184.91 9.75226 185.506 9.70038C185.982 9.65716 186.431 9.62257 186.855 9.59664C187.279 9.56205 187.672 9.53612 188.035 9.51883C188.398 9.49289 188.722 9.4756 189.008 9.46695V10.5044C188.766 10.5044 188.489 10.5087 188.178 10.5174C187.866 10.526 187.559 10.5433 187.257 10.5693C186.954 10.5952 186.691 10.6427 186.466 10.7119C186.008 10.8589 185.593 11.0837 185.221 11.3863C184.858 11.6802 184.547 12.0217 184.287 12.4108C184.028 12.7998 183.829 13.2018 183.691 13.6168C183.561 14.0318 183.496 14.4338 183.496 14.8229C183.496 15.3243 183.583 15.7652 183.755 16.1456C183.928 16.5174 184.162 16.833 184.456 17.0923C184.758 17.3517 185.1 17.5635 185.48 17.7278C185.861 17.892 186.263 18.0174 186.686 18.1039C187.119 18.1817 187.547 18.2249 187.97 18.2335L187.594 19.3099C187.11 19.2926 186.626 19.2235 186.142 19.1024C185.657 18.99 185.195 18.8258 184.754 18.6096C184.313 18.3848 183.92 18.1039 183.574 17.7667C183.228 17.4295 182.956 17.0361 182.757 16.5866C182.558 16.137 182.459 15.6226 182.459 15.0433C182.459 14.369 182.575 13.7465 182.809 13.1759C183.051 12.5966 183.358 12.0909 183.73 11.6586C184.101 11.2263 184.486 10.8935 184.884 10.66C184.607 10.6946 184.261 10.7335 183.846 10.7768C183.44 10.82 183.003 10.8675 182.536 10.9194C182.07 10.9626 181.598 11.0145 181.123 11.075C180.656 11.1355 180.219 11.1961 179.813 11.2566C179.407 11.3085 179.065 11.3647 178.789 11.4252L178.672 10.2969ZM187.14 12.0995C187.235 12.2379 187.348 12.4151 187.477 12.6312C187.616 12.8387 187.75 13.0549 187.879 13.2796C188.009 13.4958 188.117 13.7033 188.204 13.9021L187.542 14.2134C187.395 13.8935 187.231 13.5779 187.049 13.2667C186.868 12.9468 186.678 12.6528 186.479 12.3848L187.14 12.0995ZM188.554 11.5549C188.657 11.6932 188.779 11.8661 188.917 12.0736C189.055 12.2811 189.189 12.4972 189.319 12.722C189.457 12.9381 189.578 13.1456 189.682 13.3445L189.008 13.6687C188.852 13.3488 188.679 13.0332 188.489 12.722C188.307 12.4108 188.117 12.1211 187.918 11.8531L188.554 11.5549Z" fill="#040000"/>
<rect x="51.5" y="24.5" width="212.321" height="26.6604" rx="13.3302" fill="white"/>
<rect x="51.5" y="24.5" width="212.321" height="26.6604" rx="13.3302" stroke="black"/>
<path d="M64.6244 32.8704C64.8146 32.9742 65.0394 33.1082 65.2988 33.2724C65.5582 33.4367 65.8262 33.6096 66.1028 33.7912C66.3795 33.9727 66.6345 34.1456 66.868 34.3099C67.11 34.4655 67.3002 34.5952 67.4386 34.6989L66.829 35.5808C66.6734 35.4684 66.4789 35.3301 66.2455 35.1658C66.012 35.0015 65.7613 34.8329 65.4933 34.66C65.2253 34.4785 64.9616 34.3099 64.7022 34.1543C64.4515 33.99 64.2311 33.8517 64.0409 33.7393L64.6244 32.8704ZM62.6792 42.1428C63.1547 42.0563 63.6432 41.9439 64.1446 41.8056C64.646 41.6586 65.1432 41.49 65.636 41.2998C66.1288 41.101 66.5913 40.8762 67.0236 40.6255C67.7412 40.2105 68.4069 39.7523 69.0207 39.2508C69.6345 38.7494 70.1878 38.2134 70.6806 37.6428C71.1734 37.0721 71.5927 36.4842 71.9386 35.8791L72.561 36.9425C71.9991 37.8157 71.2858 38.6543 70.4213 39.4583C69.5654 40.2624 68.6187 40.9713 67.5812 41.5851C67.1403 41.8358 66.6605 42.0693 66.1417 42.2854C65.6316 42.4929 65.1259 42.6745 64.6244 42.8301C64.1316 42.9857 63.6821 43.1067 63.2757 43.1932L62.6792 42.1428ZM62.6662 35.7883C62.8564 35.8834 63.0855 36.0131 63.3535 36.1773C63.6216 36.333 63.8939 36.4972 64.1705 36.6701C64.4472 36.8344 64.7066 36.9943 64.9486 37.15C65.1907 37.3056 65.3809 37.4353 65.5192 37.539L64.9227 38.4468C64.7584 38.3257 64.5553 38.1874 64.3132 38.0318C64.0798 37.8675 63.829 37.7033 63.561 37.539C63.293 37.3661 63.0293 37.2018 62.77 37.0462C62.5106 36.8906 62.2858 36.7652 62.0956 36.6701L62.6662 35.7883ZM75.0121 37.2148C75.1417 37.2234 75.3017 37.2364 75.4919 37.2537C75.6821 37.2623 75.8896 37.271 76.1144 37.2796C76.3478 37.2796 76.5812 37.2796 76.8147 37.2796C76.953 37.2796 77.1648 37.2796 77.4501 37.2796C77.744 37.2796 78.0855 37.2796 78.4746 37.2796C78.8636 37.2796 79.2743 37.2796 79.7066 37.2796C80.1475 37.2796 80.5841 37.2796 81.0164 37.2796C81.4573 37.2796 81.8723 37.2796 82.2613 37.2796C82.659 37.2796 83.0005 37.2796 83.2858 37.2796C83.5711 37.2796 83.783 37.2796 83.9213 37.2796C84.2498 37.2796 84.5308 37.271 84.7642 37.2537C84.9977 37.2364 85.1835 37.2234 85.3219 37.2148V38.4857C85.1922 38.477 84.9977 38.4641 84.7383 38.4468C84.4876 38.4295 84.2196 38.4209 83.9343 38.4209C83.7959 38.4209 83.5798 38.4209 83.2858 38.4209C82.9919 38.4209 82.6504 38.4209 82.2613 38.4209C81.8809 38.4209 81.4703 38.4209 81.0294 38.4209C80.5884 38.4209 80.1475 38.4209 79.7066 38.4209C79.2743 38.4209 78.8636 38.4209 78.4746 38.4209C78.0942 38.4209 77.757 38.4209 77.4631 38.4209C77.1691 38.4209 76.953 38.4209 76.8147 38.4209C76.4602 38.4209 76.123 38.4295 75.8031 38.4468C75.4832 38.4554 75.2195 38.4684 75.0121 38.4857V37.2148ZM88.9555 33.3243C89.189 33.4799 89.457 33.6744 89.7596 33.9079C90.0622 34.1327 90.3691 34.3747 90.6803 34.6341C91.0002 34.8848 91.2985 35.1312 91.5751 35.3733C91.8518 35.6154 92.0809 35.8272 92.2624 36.0087L91.4454 36.8257C91.2812 36.6615 91.0694 36.4583 90.81 36.2162C90.5506 35.9742 90.2653 35.7234 89.9541 35.4641C89.6428 35.1961 89.3359 34.9453 89.0333 34.7119C88.7307 34.4698 88.4584 34.271 88.2163 34.1154L88.9555 33.3243ZM87.8403 42.0131C88.6011 41.9007 89.2927 41.7451 89.9152 41.5462C90.5463 41.3474 91.1212 41.1226 91.64 40.8719C92.1587 40.6211 92.6212 40.3704 93.0276 40.1197C93.6933 39.7047 94.3071 39.2292 94.8691 38.6932C95.431 38.1485 95.9238 37.5866 96.3475 37.0073C96.7711 36.4281 97.1083 35.8747 97.359 35.3474L97.9815 36.4497C97.6875 36.9857 97.3244 37.5304 96.8921 38.0837C96.4599 38.637 95.9714 39.1687 95.4267 39.6788C94.882 40.1889 94.2812 40.6514 93.6241 41.0664C93.1918 41.3344 92.7163 41.5981 92.1976 41.8575C91.6875 42.1168 91.1256 42.3546 90.5117 42.5707C89.9065 42.7782 89.2452 42.9468 88.5276 43.0765L87.8403 42.0131ZM106.177 34.5952C106.005 34.4309 105.806 34.2451 105.581 34.0376C105.356 33.8214 105.127 33.6139 104.894 33.4151C104.66 33.2076 104.453 33.0347 104.271 32.8963L105.01 32.3646C105.157 32.4684 105.347 32.6197 105.581 32.8185C105.823 33.0174 106.065 33.2249 106.307 33.441C106.549 33.6485 106.752 33.8387 106.917 34.0116L106.177 34.5952ZM102.054 33.4799C102.088 33.5491 102.131 33.6355 102.183 33.7393C102.235 33.843 102.291 33.9511 102.352 34.0635C102.412 34.1759 102.464 34.271 102.507 34.3488C102.758 34.807 103.03 35.343 103.324 35.9569C103.618 36.5621 103.895 37.1629 104.154 37.7595C104.336 38.1572 104.518 38.5981 104.699 39.0822C104.889 39.5664 105.071 40.0592 105.244 40.5606C105.417 41.0534 105.581 41.5289 105.737 41.9871C105.892 42.4367 106.022 42.843 106.126 43.2062L105.01 43.5044C104.881 42.9943 104.725 42.4367 104.543 41.8315C104.362 41.2177 104.163 40.5995 103.947 39.977C103.731 39.3546 103.497 38.758 103.247 38.1874C103.048 37.7379 102.849 37.3056 102.65 36.8906C102.46 36.467 102.278 36.0822 102.105 35.7364C101.932 35.3819 101.773 35.0793 101.626 34.8286C101.548 34.6989 101.448 34.5476 101.327 34.3747C101.206 34.1932 101.094 34.0376 100.99 33.9079L102.054 33.4799ZM99.7581 37.2667C99.9397 37.2148 100.13 37.1543 100.329 37.0851C100.536 37.0159 100.7 36.9598 100.822 36.9165C101.176 36.7696 101.578 36.5966 102.028 36.3978C102.486 36.1903 102.966 35.9742 103.467 35.7494C103.977 35.5246 104.492 35.3171 105.01 35.1269C105.529 34.9281 106.035 34.7681 106.528 34.6471C107.029 34.5174 107.496 34.4525 107.928 34.4525C108.533 34.4525 109.048 34.5563 109.471 34.7638C109.904 34.9713 110.237 35.2609 110.47 35.6327C110.703 35.9958 110.82 36.4151 110.82 36.8906C110.82 37.3834 110.712 37.8286 110.496 38.2263C110.28 38.624 109.951 38.9396 109.51 39.173C109.078 39.3978 108.52 39.5102 107.837 39.5102C107.474 39.5102 107.12 39.4713 106.774 39.3935C106.437 39.3157 106.143 39.2335 105.892 39.1471L105.931 38.1355C106.182 38.2479 106.463 38.3474 106.774 38.4338C107.094 38.5116 107.427 38.5505 107.773 38.5505C108.248 38.5505 108.633 38.4727 108.927 38.3171C109.221 38.1615 109.437 37.954 109.575 37.6946C109.713 37.4353 109.783 37.15 109.783 36.8387C109.783 36.588 109.713 36.3502 109.575 36.1255C109.437 35.9007 109.229 35.7191 108.953 35.5808C108.676 35.4425 108.326 35.3733 107.902 35.3733C107.461 35.3733 106.969 35.4511 106.424 35.6067C105.888 35.7623 105.326 35.9612 104.738 36.2033C104.159 36.4453 103.588 36.7047 103.026 36.9814C102.464 37.2494 101.941 37.5044 101.457 37.7465C100.981 37.9886 100.579 38.1831 100.251 38.3301L99.7581 37.2667ZM114.179 33.9338C114.395 33.9597 114.633 33.9814 114.892 33.9987C115.152 34.0073 115.385 34.0116 115.592 34.0116H121.986C122.141 34.0116 122.306 34.0116 122.479 34.0116C122.66 34.003 122.816 33.9943 122.945 33.9857C122.937 34.1327 122.928 34.3012 122.92 34.4915C122.911 34.673 122.907 34.8416 122.907 34.9972V41.6889C122.907 41.9223 122.911 42.1644 122.92 42.4151C122.937 42.6658 122.95 42.843 122.958 42.9468H121.791C121.8 42.843 121.804 42.6874 121.804 42.4799C121.813 42.2638 121.817 42.039 121.817 41.8056V35.0491H115.605C115.363 35.0491 115.1 35.0534 114.814 35.0621C114.538 35.0707 114.326 35.0793 114.179 35.088V33.9338ZM114.01 41.0923C114.175 41.1096 114.386 41.1269 114.646 41.1442C114.914 41.1615 115.182 41.1701 115.45 41.1701H122.401V42.2206H115.476C115.216 42.2206 114.948 42.2249 114.672 42.2335C114.404 42.2422 114.183 42.2551 114.01 42.2724V41.0923ZM126.239 37.2148C126.369 37.2234 126.529 37.2364 126.719 37.2537C126.909 37.2623 127.117 37.271 127.342 37.2796C127.575 37.2796 127.809 37.2796 128.042 37.2796C128.18 37.2796 128.392 37.2796 128.677 37.2796C128.971 37.2796 129.313 37.2796 129.702 37.2796C130.091 37.2796 130.502 37.2796 130.934 37.2796C131.375 37.2796 131.811 37.2796 132.244 37.2796C132.685 37.2796 133.1 37.2796 133.489 37.2796C133.886 37.2796 134.228 37.2796 134.513 37.2796C134.799 37.2796 135.01 37.2796 135.149 37.2796C135.477 37.2796 135.758 37.271 135.992 37.2537C136.225 37.2364 136.411 37.2234 136.549 37.2148V38.4857C136.42 38.477 136.225 38.4641 135.966 38.4468C135.715 38.4295 135.447 38.4209 135.162 38.4209C135.023 38.4209 134.807 38.4209 134.513 38.4209C134.219 38.4209 133.878 38.4209 133.489 38.4209C133.108 38.4209 132.698 38.4209 132.257 38.4209C131.816 38.4209 131.375 38.4209 130.934 38.4209C130.502 38.4209 130.091 38.4209 129.702 38.4209C129.322 38.4209 128.984 38.4209 128.69 38.4209C128.396 38.4209 128.18 38.4209 128.042 38.4209C127.688 38.4209 127.35 38.4295 127.03 38.4468C126.711 38.4554 126.447 38.4684 126.239 38.4857V37.2148ZM140.518 33.3502C140.708 33.3675 140.898 33.3848 141.088 33.4021C141.287 33.4194 141.49 33.428 141.698 33.428C141.845 33.428 142.069 33.428 142.372 33.428C142.675 33.428 143.012 33.428 143.384 33.428C143.764 33.428 144.14 33.428 144.512 33.428C144.884 33.428 145.216 33.428 145.51 33.428C145.813 33.428 146.038 33.428 146.185 33.428C146.366 33.428 146.565 33.4237 146.781 33.4151C147.006 33.3978 147.209 33.3762 147.391 33.3502V34.4266C147.201 34.4093 146.997 34.4007 146.781 34.4007C146.574 34.392 146.375 34.3877 146.185 34.3877C146.038 34.3877 145.813 34.3877 145.51 34.3877C145.216 34.3877 144.884 34.3877 144.512 34.3877C144.14 34.3877 143.768 34.3877 143.397 34.3877C143.025 34.3877 142.688 34.3877 142.385 34.3877C142.082 34.3877 141.858 34.3877 141.711 34.3877C141.495 34.3877 141.283 34.392 141.075 34.4007C140.876 34.4007 140.69 34.4093 140.518 34.4266V33.3502ZM138.987 36.6053C139.16 36.6226 139.337 36.6399 139.519 36.6572C139.709 36.6658 139.904 36.6701 140.103 36.6701C140.215 36.6701 140.435 36.6701 140.764 36.6701C141.101 36.6701 141.507 36.6701 141.983 36.6701C142.467 36.6701 142.986 36.6701 143.539 36.6701C144.092 36.6701 144.646 36.6701 145.199 36.6701C145.752 36.6701 146.267 36.6701 146.742 36.6701C147.226 36.6701 147.633 36.6701 147.961 36.6701C148.29 36.6701 148.502 36.6701 148.597 36.6701C148.735 36.6701 148.899 36.6658 149.09 36.6572C149.28 36.6485 149.453 36.6312 149.608 36.6053V37.6817C149.47 37.673 149.306 37.6687 149.116 37.6687C148.934 37.66 148.761 37.6557 148.597 37.6557C148.502 37.6557 148.29 37.6557 147.961 37.6557C147.633 37.6557 147.226 37.6557 146.742 37.6557C146.267 37.6557 145.752 37.6557 145.199 37.6557C144.646 37.6557 144.092 37.6557 143.539 37.6557C142.986 37.6557 142.467 37.6557 141.983 37.6557C141.507 37.6557 141.101 37.6557 140.764 37.6557C140.435 37.6557 140.215 37.6557 140.103 37.6557C139.912 37.6557 139.722 37.6557 139.532 37.6557C139.342 37.6557 139.16 37.6644 138.987 37.6817V36.6053ZM145.082 37.137C145.082 37.9497 145.022 38.6975 144.901 39.3805C144.788 40.0549 144.59 40.6644 144.304 41.209C144.149 41.4943 143.937 41.784 143.669 42.0779C143.409 42.3632 143.116 42.6356 142.787 42.8949C142.467 43.1543 142.121 43.3791 141.75 43.5693L140.79 42.856C141.291 42.6485 141.763 42.3675 142.203 42.0131C142.644 41.6586 142.99 41.2782 143.241 40.8719C143.569 40.3531 143.777 39.7825 143.863 39.16C143.95 38.5289 143.993 37.8546 143.993 37.137H145.082ZM148.065 32.2998C148.178 32.4468 148.299 32.6283 148.428 32.8445C148.558 33.052 148.683 33.2638 148.804 33.4799C148.934 33.6961 149.042 33.8949 149.129 34.0765L148.428 34.3877C148.299 34.1197 148.134 33.8171 147.935 33.4799C147.737 33.1341 147.551 32.8358 147.378 32.5851L148.065 32.2998ZM149.492 31.7811C149.604 31.9367 149.729 32.1226 149.868 32.3387C150.006 32.5548 150.14 32.771 150.27 32.9871C150.399 33.1946 150.503 33.3805 150.581 33.5448L149.881 33.856C149.742 33.5707 149.574 33.2638 149.375 32.9353C149.185 32.5981 148.995 32.3085 148.804 32.0664L149.492 31.7811ZM156.767 34.0765C157.121 34.1283 157.532 34.1716 157.999 34.2061C158.474 34.2321 158.963 34.2451 159.464 34.2451C159.974 34.2364 160.459 34.2191 160.917 34.1932C161.384 34.1586 161.777 34.1154 162.097 34.0635V35.1139C161.751 35.1485 161.345 35.1788 160.878 35.2047C160.42 35.222 159.94 35.2306 159.438 35.2306C158.946 35.2306 158.466 35.222 157.999 35.2047C157.532 35.1788 157.121 35.1485 156.767 35.1139V34.0765ZM157.273 39.3546C157.212 39.588 157.165 39.7998 157.13 39.99C157.095 40.1802 157.078 40.3661 157.078 40.5477C157.078 40.6946 157.108 40.8416 157.169 40.9886C157.238 41.1269 157.35 41.2523 157.506 41.3647C157.67 41.4684 157.895 41.5549 158.18 41.624C158.466 41.6845 158.829 41.7148 159.27 41.7148C159.858 41.7148 160.411 41.6889 160.93 41.637C161.448 41.5765 161.967 41.49 162.486 41.3776L162.512 42.467C162.105 42.5534 161.63 42.6226 161.085 42.6745C160.549 42.7177 159.944 42.7393 159.27 42.7393C158.18 42.7393 157.381 42.5664 156.871 42.2206C156.369 41.8747 156.118 41.3992 156.118 40.7941C156.118 40.5779 156.136 40.3488 156.17 40.1067C156.214 39.856 156.27 39.575 156.339 39.2638L157.273 39.3546ZM154.29 33.0779C154.273 33.1471 154.247 33.2378 154.212 33.3502C154.186 33.454 154.156 33.5621 154.121 33.6744C154.095 33.7782 154.074 33.869 154.056 33.9468C154.013 34.1889 153.961 34.4698 153.901 34.7897C153.84 35.101 153.78 35.4381 153.719 35.8013C153.667 36.1557 153.616 36.5188 153.564 36.8906C153.52 37.2537 153.482 37.6082 153.447 37.954C153.421 38.2998 153.408 38.6197 153.408 38.9136C153.408 39.2335 153.417 39.5361 153.434 39.8214C153.46 40.1067 153.49 40.4093 153.525 40.7292C153.603 40.5304 153.685 40.3185 153.771 40.0938C153.858 39.869 153.944 39.6485 154.031 39.4324C154.126 39.2076 154.208 39.0087 154.277 38.8358L154.822 39.2508C154.709 39.5621 154.588 39.9036 154.458 40.2753C154.329 40.6471 154.212 41.0059 154.108 41.3517C154.013 41.6889 153.944 41.9569 153.901 42.1557C153.884 42.2508 153.866 42.3546 153.849 42.467C153.832 42.5794 153.827 42.6701 153.836 42.7393C153.845 42.8085 153.849 42.882 153.849 42.9598C153.858 43.0462 153.866 43.124 153.875 43.1932L152.941 43.258C152.812 42.7998 152.699 42.2119 152.604 41.4943C152.509 40.7681 152.461 39.9684 152.461 39.0952C152.461 38.6197 152.483 38.1355 152.526 37.6428C152.569 37.1413 152.626 36.6572 152.695 36.1903C152.764 35.7148 152.829 35.2825 152.889 34.8935C152.958 34.4958 153.01 34.1629 153.045 33.8949C153.071 33.7393 153.092 33.5837 153.11 33.428C153.127 33.2638 153.136 33.1125 153.136 32.9742L154.29 33.0779ZM169.294 37.15H170.241V42.1946C170.241 42.4194 170.28 42.5664 170.358 42.6356C170.435 42.6961 170.6 42.7263 170.85 42.7263C170.911 42.7263 171.019 42.7263 171.175 42.7263C171.33 42.7263 171.499 42.7263 171.68 42.7263C171.862 42.7263 172.035 42.7263 172.199 42.7263C172.363 42.7263 172.484 42.7263 172.562 42.7263C172.744 42.7263 172.878 42.6745 172.964 42.5707C173.051 42.4583 173.111 42.2422 173.146 41.9223C173.18 41.5938 173.206 41.1139 173.224 40.4828C173.301 40.5347 173.392 40.5909 173.496 40.6514C173.6 40.7033 173.703 40.7508 173.807 40.7941C173.92 40.8286 174.019 40.8589 174.105 40.8848C174.062 41.6024 173.997 42.16 173.911 42.5577C173.825 42.9468 173.682 43.2191 173.483 43.3747C173.284 43.539 173.003 43.6211 172.64 43.6211C172.58 43.6211 172.459 43.6211 172.277 43.6211C172.095 43.6211 171.897 43.6211 171.68 43.6211C171.473 43.6211 171.278 43.6211 171.097 43.6211C170.915 43.6211 170.794 43.6211 170.734 43.6211C170.353 43.6211 170.059 43.5779 169.852 43.4915C169.644 43.405 169.497 43.258 169.411 43.0505C169.333 42.843 169.294 42.5577 169.294 42.1946V37.15ZM167.518 38.2652L168.399 38.4727C168.348 38.9396 168.27 39.4281 168.166 39.9381C168.071 40.4482 167.946 40.941 167.79 41.4165C167.634 41.8834 167.448 42.2897 167.232 42.6356L166.363 42.2335C166.58 41.8964 166.765 41.5073 166.921 41.0664C167.077 40.6255 167.202 40.1629 167.297 39.6788C167.392 39.1946 167.466 38.7234 167.518 38.2652ZM169.489 35.6197L170.15 34.9842C170.496 35.1485 170.859 35.343 171.239 35.5678C171.629 35.7926 171.996 36.0217 172.342 36.2551C172.688 36.4799 172.973 36.6961 173.198 36.9036L172.484 37.6168C172.277 37.418 172.005 37.2018 171.667 36.9684C171.339 36.7263 170.98 36.4886 170.591 36.2551C170.211 36.0131 169.843 35.8013 169.489 35.6197ZM173.626 38.343L174.495 37.9929C174.78 38.4338 175.052 38.9093 175.312 39.4194C175.58 39.9295 175.809 40.4309 175.999 40.9237C176.198 41.4079 176.336 41.8445 176.414 42.2335L175.454 42.6356C175.394 42.2465 175.268 41.8056 175.078 41.3128C174.897 40.8113 174.68 40.3013 174.43 39.7825C174.179 39.2638 173.911 38.784 173.626 38.343ZM170.189 31.9367H171.188V34.1543H170.189V31.9367ZM165.858 33.6226H176.154V34.5433H165.858V33.6226ZM165.391 33.6226H166.35V36.9814C166.35 37.4742 166.333 38.0188 166.299 38.6154C166.273 39.2033 166.212 39.8085 166.117 40.4309C166.031 41.0448 165.901 41.65 165.728 42.2465C165.564 42.8344 165.343 43.3747 165.067 43.8675C165.015 43.8157 164.933 43.7508 164.82 43.673C164.716 43.6039 164.613 43.5347 164.509 43.4655C164.405 43.405 164.31 43.3575 164.224 43.3229C164.492 42.856 164.703 42.3546 164.859 41.8185C165.015 41.2739 165.127 40.7206 165.196 40.1586C165.274 39.588 165.326 39.0304 165.352 38.4857C165.378 37.941 165.391 37.4396 165.391 36.9814V33.6226ZM184.623 33.8819C184.735 34.0289 184.869 34.2278 185.025 34.4785C185.18 34.7292 185.332 34.9842 185.479 35.2436C185.634 35.503 185.764 35.7364 185.868 35.9439L185.103 36.294C184.99 36.0606 184.865 35.8229 184.727 35.5808C184.597 35.3301 184.459 35.088 184.312 34.8546C184.173 34.6125 184.031 34.392 183.884 34.1932L184.623 33.8819ZM186.296 33.2206C186.417 33.3675 186.555 33.5621 186.711 33.8041C186.875 34.0462 187.035 34.2969 187.191 34.5563C187.346 34.8157 187.476 35.0448 187.58 35.2436L186.827 35.6067C186.715 35.3819 186.59 35.1485 186.451 34.9064C186.313 34.6644 186.166 34.4266 186.01 34.1932C185.863 33.9597 185.716 33.7479 185.569 33.5577L186.296 33.2206ZM181.031 32.8185C181.005 33.0347 180.979 33.2508 180.953 33.467C180.935 33.6831 180.923 33.9036 180.914 34.1283C180.905 34.4915 180.888 34.941 180.862 35.477C180.845 36.0131 180.827 36.5837 180.81 37.1889C180.801 37.7854 180.788 38.3819 180.771 38.9785C180.763 39.575 180.758 40.1111 180.758 40.5866C180.758 41.0621 180.849 41.4425 181.031 41.7278C181.212 42.0044 181.463 42.2076 181.783 42.3373C182.103 42.4583 182.47 42.5188 182.885 42.5188C183.473 42.5188 184.005 42.4454 184.48 42.2984C184.956 42.1428 185.379 41.9396 185.751 41.6889C186.123 41.4295 186.451 41.1399 186.737 40.82C187.031 40.5001 187.294 40.1716 187.528 39.8344L188.267 40.7162C188.042 41.0188 187.765 41.3387 187.437 41.6759C187.117 42.0131 186.737 42.3243 186.296 42.6096C185.855 42.8949 185.349 43.1283 184.778 43.3099C184.208 43.4915 183.568 43.5822 182.859 43.5822C182.237 43.5822 181.688 43.4871 181.212 43.2969C180.737 43.1067 180.365 42.7998 180.097 42.3762C179.829 41.9526 179.695 41.3906 179.695 40.6903C179.695 40.3013 179.699 39.8733 179.708 39.4064C179.716 38.9309 179.729 38.4425 179.747 37.941C179.764 37.4396 179.777 36.9511 179.786 36.4756C179.803 35.9915 179.816 35.5462 179.825 35.1399C179.833 34.7335 179.837 34.3963 179.837 34.1283C179.837 33.8776 179.829 33.6442 179.812 33.428C179.794 33.2033 179.764 32.9958 179.721 32.8056L181.031 32.8185ZM190.861 34.2191C191.111 34.2105 191.336 34.2018 191.535 34.1932C191.734 34.1759 191.894 34.1629 192.015 34.1543C192.222 34.1283 192.52 34.0981 192.91 34.0635C193.307 34.0203 193.761 33.977 194.271 33.9338C194.781 33.8819 195.33 33.8301 195.918 33.7782C196.506 33.7263 197.098 33.6744 197.695 33.6226C198.17 33.5793 198.62 33.5448 199.044 33.5188C199.467 33.4842 199.861 33.4583 200.224 33.441C200.587 33.4151 200.911 33.3978 201.196 33.3891V34.4266C200.954 34.418 200.678 34.418 200.366 34.4266C200.055 34.4353 199.748 34.4569 199.446 34.4915C199.143 34.5174 198.879 34.5649 198.655 34.6341C198.196 34.7811 197.781 35.0059 197.41 35.3085C197.046 35.6024 196.735 35.9439 196.476 36.333C196.216 36.7134 196.018 37.1154 195.879 37.539C195.75 37.954 195.685 38.3517 195.685 38.7321C195.685 39.2422 195.771 39.6874 195.944 40.0678C196.117 40.4396 196.35 40.7551 196.644 41.0145C196.947 41.2739 197.289 41.4857 197.669 41.65C198.058 41.8142 198.464 41.9353 198.888 42.0131C199.312 42.0909 199.735 42.1384 200.159 42.1557L199.783 43.2321C199.307 43.2148 198.823 43.1456 198.33 43.0246C197.846 42.9122 197.384 42.7479 196.943 42.5318C196.502 42.307 196.108 42.026 195.763 41.6889C195.417 41.3517 195.144 40.9583 194.946 40.5087C194.747 40.0592 194.647 39.5448 194.647 38.9655C194.647 38.2912 194.764 37.6687 194.997 37.0981C195.24 36.5188 195.546 36.0131 195.918 35.5808C196.29 35.1485 196.675 34.8157 197.072 34.5822C196.796 34.6168 196.454 34.6557 196.048 34.6989C195.642 34.7422 195.201 34.7897 194.725 34.8416C194.258 34.8848 193.791 34.9367 193.325 34.9972C192.858 35.0577 192.417 35.1183 192.002 35.1788C191.595 35.2306 191.254 35.2868 190.977 35.3474L190.861 34.2191ZM214.8 34.0635C214.748 34.124 214.688 34.1975 214.619 34.284C214.558 34.3704 214.502 34.4525 214.45 34.5304C214.286 34.8243 214.039 35.1874 213.711 35.6197C213.391 36.0433 213.019 36.4799 212.595 36.9295C212.172 37.3704 211.714 37.7638 211.221 38.1096L210.365 37.4223C210.667 37.2494 210.961 37.0419 211.247 36.7998C211.541 36.5491 211.813 36.2897 212.064 36.0217C212.323 35.7451 212.548 35.477 212.738 35.2177C212.937 34.9497 213.093 34.7162 213.205 34.5174C213.067 34.5174 212.842 34.5174 212.531 34.5174C212.228 34.5174 211.865 34.5174 211.441 34.5174C211.026 34.5174 210.581 34.5174 210.106 34.5174C209.63 34.5174 209.159 34.5174 208.692 34.5174C208.225 34.5174 207.789 34.5174 207.382 34.5174C206.976 34.5174 206.634 34.5174 206.358 34.5174C206.081 34.5174 205.899 34.5174 205.813 34.5174C205.571 34.5174 205.329 34.526 205.087 34.5433C204.845 34.552 204.594 34.5693 204.335 34.5952V33.4151C204.559 33.4497 204.801 33.4799 205.061 33.5059C205.32 33.5231 205.571 33.5318 205.813 33.5318C205.899 33.5318 206.085 33.5318 206.371 33.5318C206.656 33.5318 207.002 33.5318 207.408 33.5318C207.823 33.5318 208.273 33.5318 208.757 33.5318C209.241 33.5318 209.721 33.5318 210.196 33.5318C210.68 33.5318 211.134 33.5318 211.558 33.5318C211.982 33.5318 212.34 33.5318 212.634 33.5318C212.937 33.5318 213.144 33.5318 213.257 33.5318C213.343 33.5318 213.443 33.5318 213.555 33.5318C213.676 33.5231 213.793 33.5102 213.905 33.4929C214.018 33.4756 214.104 33.4626 214.165 33.454L214.8 34.0635ZM209.626 35.7753C209.626 36.4756 209.604 37.1327 209.561 37.7465C209.518 38.3603 209.431 38.9353 209.301 39.4713C209.172 40.0073 208.973 40.5044 208.705 40.9626C208.446 41.4122 208.095 41.8358 207.655 42.2335C207.214 42.6226 206.665 42.9814 206.008 43.3099L205.048 42.5318C205.229 42.4713 205.424 42.3935 205.631 42.2984C205.839 42.1946 206.033 42.0779 206.215 41.9482C206.725 41.6456 207.131 41.3041 207.434 40.9237C207.737 40.5433 207.961 40.1327 208.108 39.6917C208.264 39.2422 208.368 38.771 208.42 38.2782C208.48 37.7768 208.51 37.258 208.51 36.722C208.51 36.5577 208.506 36.4021 208.497 36.2551C208.497 36.1082 208.484 35.9482 208.459 35.7753H209.626ZM218.574 42.4151C218.626 42.3113 218.66 42.2119 218.678 42.1168C218.695 42.0217 218.704 41.9093 218.704 41.7796C218.704 41.65 218.704 41.4079 218.704 41.0534C218.704 40.699 218.704 40.2753 218.704 39.7825C218.704 39.2897 218.704 38.7753 218.704 38.2393C218.704 37.6946 218.704 37.1672 218.704 36.6572C218.704 36.1384 218.704 35.6802 218.704 35.2825C218.704 34.8762 218.704 34.5693 218.704 34.3618C218.704 34.2494 218.695 34.1154 218.678 33.9597C218.669 33.8041 218.656 33.6572 218.639 33.5188C218.63 33.3805 218.613 33.2681 218.587 33.1817H219.871C219.845 33.3373 219.823 33.5275 219.806 33.7523C219.789 33.9684 219.78 34.1716 219.78 34.3618C219.78 34.5347 219.78 34.7854 219.78 35.1139C219.78 35.4425 219.78 35.8185 219.78 36.2422C219.78 36.6572 219.78 37.0981 219.78 37.5649C219.78 38.0318 219.78 38.49 219.78 38.9396C219.78 39.3892 219.78 39.8085 219.78 40.1975C219.78 40.5779 219.78 40.9021 219.78 41.1701C219.78 41.4381 219.78 41.6197 219.78 41.7148C220.402 41.5592 221.042 41.3387 221.699 41.0534C222.365 40.7681 223.013 40.4353 223.644 40.0549C224.284 39.6658 224.881 39.2422 225.434 38.784C225.996 38.3171 226.476 37.82 226.874 37.2926L227.457 38.2004C226.619 39.2465 225.546 40.1629 224.241 40.9497C222.944 41.7364 221.487 42.3632 219.871 42.8301C219.802 42.8474 219.719 42.8733 219.624 42.9079C219.529 42.9511 219.43 43.003 219.326 43.0635L218.574 42.4151ZM231.607 33.3243C231.84 33.4799 232.108 33.6744 232.411 33.9079C232.714 34.1327 233.021 34.3747 233.332 34.6341C233.652 34.8848 233.95 35.1312 234.227 35.3733C234.503 35.6154 234.732 35.8272 234.914 36.0087L234.097 36.8257C233.933 36.6615 233.721 36.4583 233.461 36.2162C233.202 35.9742 232.917 35.7234 232.606 35.4641C232.294 35.1961 231.987 34.9453 231.685 34.7119C231.382 34.4698 231.11 34.271 230.868 34.1154L231.607 33.3243ZM230.492 42.0131C231.253 41.9007 231.944 41.7451 232.567 41.5462C233.198 41.3474 233.773 41.1226 234.291 40.8719C234.81 40.6211 235.273 40.3704 235.679 40.1197C236.345 39.7047 236.959 39.2292 237.521 38.6932C238.083 38.1485 238.575 37.5866 238.999 37.0073C239.423 36.4281 239.76 35.8747 240.01 35.3474L240.633 36.4497C240.339 36.9857 239.976 37.5304 239.544 38.0837C239.111 38.637 238.623 39.1687 238.078 39.6788C237.534 40.1889 236.933 40.6514 236.276 41.0664C235.843 41.3344 235.368 41.5981 234.849 41.8575C234.339 42.1168 233.777 42.3546 233.163 42.5707C232.558 42.7782 231.897 42.9468 231.179 43.0765L230.492 42.0131ZM250.917 33.1557C251.029 33.3027 251.159 33.4972 251.306 33.7393C251.461 33.9814 251.613 34.2278 251.76 34.4785C251.907 34.7292 252.028 34.9583 252.123 35.1658L251.384 35.503C251.28 35.2782 251.163 35.0491 251.034 34.8157C250.904 34.5736 250.77 34.3358 250.632 34.1024C250.493 33.869 250.351 33.6528 250.204 33.454L250.917 33.1557ZM252.616 32.5332C252.737 32.6802 252.871 32.8704 253.018 33.1038C253.165 33.3373 253.316 33.5793 253.472 33.8301C253.627 34.0808 253.757 34.3099 253.861 34.5174L253.121 34.8546C253.009 34.6211 252.884 34.3877 252.745 34.1543C252.607 33.9208 252.464 33.6917 252.317 33.467C252.179 33.2422 252.036 33.0347 251.889 32.8445L252.616 32.5332ZM245.379 32.9612C245.57 33.0649 245.794 33.2033 246.054 33.3762C246.313 33.5404 246.581 33.7134 246.858 33.8949C247.134 34.0678 247.389 34.2364 247.623 34.4007C247.865 34.5563 248.055 34.686 248.193 34.7897L247.584 35.6845C247.428 35.5635 247.229 35.4208 246.987 35.2566C246.754 35.0923 246.503 34.9237 246.235 34.7508C245.976 34.5693 245.717 34.4007 245.457 34.2451C245.206 34.0808 244.986 33.9425 244.796 33.8301L245.379 32.9612ZM243.434 42.2335C243.91 42.1471 244.398 42.0347 244.9 41.8964C245.401 41.758 245.898 41.5894 246.391 41.3906C246.884 41.1917 247.346 40.9713 247.778 40.7292C248.496 40.3142 249.162 39.856 249.776 39.3546C250.389 38.8445 250.943 38.3041 251.436 37.7335C251.928 37.1629 252.348 36.575 252.693 35.9698L253.316 37.0462C252.754 37.9108 252.041 38.7494 251.176 39.5621C250.312 40.3661 249.361 41.0707 248.323 41.6759C247.891 41.9266 247.415 42.16 246.897 42.3762C246.387 42.5837 245.881 42.7652 245.379 42.9209C244.887 43.0851 244.437 43.2062 244.031 43.284L243.434 42.2335ZM243.421 35.8791C243.611 35.9828 243.84 36.1125 244.108 36.2681C244.376 36.4237 244.649 36.588 244.925 36.7609C245.202 36.9338 245.457 37.0981 245.691 37.2537C245.933 37.4007 246.123 37.526 246.261 37.6298L245.678 38.5376C245.513 38.4165 245.31 38.2782 245.068 38.1226C244.835 37.967 244.584 37.8027 244.316 37.6298C244.048 37.4569 243.784 37.2969 243.525 37.15C243.266 36.9943 243.036 36.8647 242.838 36.7609L243.421 35.8791Z" fill="#040000"/>
<path d="M172.341 50.1829C172.341 50.1829 176.548 56.0909 170 58.8528C170 58.8528 179.328 59.7125 179.328 50" fill="white"/>
<path d="M172.341 50.1829C172.341 50.1829 176.548 56.0909 170 58.8528C170 58.8528 179.328 59.7125 179.328 50" stroke="#040000" stroke-width="1.04259" stroke-linecap="round" stroke-linejoin="round"/>
</svg>
