<svg width="167" height="31" viewBox="0 0 167 31" fill="none" xmlns="http://www.w3.org/2000/svg">
<rect width="167" height="31" rx="5" fill="#FFBB00"/>
<path d="M28.512 18.1251H26.568C26.736 18.9171 26.928 19.6611 27.12 20.3091C27.672 19.6371 28.152 18.9171 28.512 18.1251ZM17.472 15.9171H23.712C23.664 15.4131 23.592 14.8851 23.52 14.3571L21.888 15.0051C21.864 14.7891 21.84 14.5491 21.792 14.2851C20.232 14.4531 18.744 14.6451 17.4 14.7891L17.016 12.6771L17.76 12.6291C18.216 12.0051 18.72 11.2851 19.2 10.5171C18.744 9.96515 18.072 9.29315 17.424 8.74115V11.2851H15.24V12.3171C15.744 13.0611 16.896 14.9091 17.472 15.9171ZM20.904 11.2851L22.512 10.7811C22.896 11.5971 23.256 12.6291 23.448 13.4691C23.28 11.7171 23.16 9.86915 23.112 7.94915C22.152 9.43715 21.024 11.1171 19.992 12.4611L21.288 12.3651C21.168 11.9811 21.048 11.6211 20.904 11.2851ZM25.776 12.2931L26.304 12.2451C26.688 11.7411 27.096 11.1411 27.504 10.5171C27 9.89315 26.28 9.17315 25.584 8.57315C25.608 9.86915 25.68 11.0931 25.776 12.2931ZM26.184 15.9171H28.224C27.864 15.6051 27.456 15.2931 27.072 15.0291L28.152 14.0931C27.408 14.1651 26.712 14.2611 26.04 14.3331L25.896 13.6611C25.968 14.4531 26.064 15.1971 26.184 15.9171ZM28.656 18.1251L30.888 18.9651C30.192 20.3571 29.28 21.6051 28.176 22.6851C28.656 23.4051 29.184 23.7891 29.784 23.7891C30.384 23.7891 30.6 23.3331 30.72 21.4371C31.248 21.9891 32.016 22.4691 32.568 22.7331C32.136 25.4451 31.464 26.1651 29.592 26.1651C28.248 26.1651 27.168 25.4691 26.304 24.2451C25.2 25.0131 23.976 25.6371 22.68 26.1411C22.368 25.6131 21.672 24.7731 21.192 24.3171C22.704 23.7651 24.048 23.0451 25.2 22.1571C24.744 21.0051 24.384 19.6611 24.096 18.1251H21.384C21.36 18.4371 21.312 18.7491 21.264 19.0371C22.32 19.7331 23.496 20.5971 24.12 21.2451L22.584 23.1411C22.176 22.6851 21.48 22.0851 20.736 21.5091C20.184 23.3331 19.248 24.9411 17.544 26.1171C17.232 25.5411 16.512 24.6531 15.936 24.2451C18.048 22.8291 18.648 20.5491 18.888 18.1251H17.4V17.0451L16.44 18.4611C16.2 17.7411 15.72 16.6371 15.24 15.5811V26.1411H12.696V17.2851C12.144 19.0371 11.496 20.6451 10.776 21.7971C10.512 21.0531 9.96 20.0211 9.576 19.3731C10.824 17.4771 11.952 14.1411 12.504 11.2851H10.128V8.69315H12.696V3.74915H15.24V8.69315H17.376C17.208 8.52515 17.016 8.38115 16.848 8.23715L17.904 6.67715L18.312 6.98915C18.744 5.98115 19.224 4.78115 19.488 3.89315L21.6 4.70915C20.928 5.86115 20.232 7.18115 19.656 8.14115C19.872 8.35715 20.088 8.57315 20.256 8.76515C20.736 7.94915 21.144 7.15715 21.48 6.43715L23.088 7.22915C23.064 6.10115 23.04 4.94915 23.04 3.77315H25.56C25.536 5.11715 25.536 6.41315 25.56 7.68515L26.256 6.67715L26.64 6.96515C27.096 5.98115 27.552 4.78115 27.816 3.89315L29.952 4.68515C29.28 5.88515 28.584 7.18115 27.984 8.11715C28.2 8.33315 28.416 8.54915 28.608 8.74115C29.064 7.94915 29.496 7.13315 29.832 6.43715L31.776 7.39715C30.816 8.90915 29.664 10.6611 28.608 12.0771L30.048 11.9811C29.928 11.6451 29.784 11.3091 29.64 10.9971L31.248 10.4211C31.8 11.5491 32.352 13.0371 32.496 13.9731L30.792 14.6931C30.744 14.4291 30.696 14.0931 30.6 13.7571L28.824 13.9971C29.52 14.4531 30.264 15.0531 30.648 15.5091L30.192 15.9171H32.016V18.1251H28.656ZM54.144 14.5251H50.832C48.024 14.5251 47.352 13.6851 47.352 11.0451V3.82115H50.184V7.25315C51.792 6.62915 53.376 5.88515 54.504 5.26115L56.328 7.32515C54.504 8.18915 52.272 8.95715 50.184 9.58115V10.9971C50.184 11.8611 50.328 11.9571 51.24 11.9571H53.856C54.624 11.9571 54.792 11.5971 54.888 9.50915C55.464 9.94115 56.64 10.3971 57.408 10.5651C57.096 13.6371 56.352 14.5251 54.144 14.5251ZM39.048 19.4931H42.648V18.0771H39.048V19.4931ZM42.648 14.7171H39.048V15.9651H42.648V14.7171ZM45.456 12.3651V23.2611C45.456 24.5091 45.216 25.2051 44.424 25.6131C43.608 26.0691 42.504 26.0931 41.064 26.0931C40.92 25.3491 40.488 24.2451 40.152 23.5731C40.992 23.6211 41.952 23.5971 42.264 23.5731C42.552 23.5731 42.648 23.5011 42.648 23.2131V21.6051H39.048V26.1411H36.408V12.3651H45.456ZM41.856 6.24515L44.256 5.35715C45.432 7.06115 46.704 9.34115 47.16 10.9011L44.544 11.9571C44.448 11.5731 44.304 11.1411 44.112 10.6851C40.944 10.9011 37.68 11.0931 35.232 11.2371L34.992 8.52515C35.568 8.52515 36.192 8.50115 36.864 8.47715C37.536 6.96515 38.208 5.11715 38.616 3.65315L41.592 4.25315C41.04 5.64515 40.392 7.08515 39.792 8.35715L42.984 8.21315C42.624 7.54115 42.24 6.86915 41.856 6.24515ZM51.264 23.5011H54C54.816 23.5011 54.984 23.0451 55.104 20.6211C55.704 21.0531 56.856 21.4851 57.6 21.6771C57.288 25.0611 56.568 25.9971 54.264 25.9971H50.856C48.048 25.9971 47.352 25.1811 47.352 22.5411V15.0051H50.16V18.2451C51.864 17.5491 53.52 16.7571 54.672 15.9891L56.568 18.0771C54.72 19.0851 52.344 19.9491 50.16 20.6211V22.5411C50.16 23.3811 50.328 23.5011 51.264 23.5011ZM82.344 20.5491H74.376C76.056 22.3731 78.792 23.2851 82.848 23.5491C82.224 24.1971 81.504 25.3971 81.144 26.1891C76.2 25.6131 73.296 24.0531 71.424 20.9091C70.152 23.4771 67.488 25.1811 61.56 26.1411C61.344 25.3731 60.672 24.1971 60.144 23.5731C64.704 22.9731 66.96 22.0131 68.16 20.5491H60.576V18.0531H69.264C69.36 17.5971 69.432 17.1171 69.504 16.5891H60.72V14.0451H69.888V12.8211H62.784V10.4211H69.888V9.19715H61.68V6.67715H65.832C65.52 6.00515 65.04 5.26115 64.56 4.68515L67.104 3.70115C67.848 4.49315 68.568 5.62115 68.88 6.43715L68.328 6.67715H74.28L73.608 6.48515C74.184 5.71715 74.88 4.51715 75.24 3.67715L78.312 4.44515C77.736 5.28515 77.16 6.05315 76.68 6.67715H81.12V9.19715H72.816V10.4211H80.16V12.8211H72.816V14.0451H82.08V16.5891H72.528C72.48 17.0931 72.408 17.5731 72.312 18.0531H82.344V20.5491ZM104.208 5.40515C104.664 6.36515 105.216 7.75715 105.48 8.69315L103.824 9.22115C103.488 8.21315 103.056 6.89315 102.6 5.93315L104.208 5.40515ZM106.68 4.63715C107.136 5.59715 107.688 6.98915 108 7.90115L106.344 8.42915C106.008 7.39715 105.552 6.10115 105.048 5.16515L106.68 4.63715ZM102.144 13.8291C102.144 19.7811 100.728 23.4051 94.92 25.9731L92.352 23.5491C96.984 21.9171 99.024 19.8531 99.024 13.9491V13.0371H93.336V16.3011C93.336 17.3811 93.408 18.3411 93.432 18.8211H90.072C90.144 18.3411 90.216 17.3811 90.216 16.3011V13.0371H88.176C86.976 13.0371 86.112 13.1091 85.584 13.1331V9.86915C86.016 9.94115 86.976 10.0851 88.176 10.0851H90.216V7.70915C90.216 7.01315 90.144 6.29315 90.072 5.54915H93.48C93.432 6.00515 93.336 6.77315 93.336 7.73315V10.0851H99.024V7.56515C99.024 6.60515 98.952 5.81315 98.88 5.33315H102.312C102.24 5.83715 102.144 6.60515 102.144 7.56515V10.0851H103.92C105.192 10.0851 105.912 10.0371 106.56 9.91715V13.1091C106.032 13.0611 105.192 13.0371 103.944 13.0371H102.144V13.8291ZM121.92 9.82115C122.376 10.8531 123.552 13.9731 123.888 15.0771L121.008 16.0851C120.72 14.9091 119.664 12.0051 119.064 10.7571L121.92 9.82115ZM130.776 11.5731C130.488 12.3411 130.344 12.8451 130.2 13.3251C129.576 15.7491 128.568 18.2451 126.936 20.3571C124.704 23.2371 121.704 25.2531 118.896 26.3091L116.376 23.7411C119.016 23.0451 122.352 21.2211 124.344 18.7251C125.976 16.6851 127.128 13.4931 127.416 10.4931L130.776 11.5731ZM116.352 11.0931C116.952 12.3171 118.104 15.2211 118.584 16.5651L115.656 17.6691C115.248 16.3731 114.048 13.1811 113.472 12.1251L116.352 11.0931ZM147.768 4.82915C147.696 5.38115 147.648 6.38915 147.624 6.96515C147.6 7.70915 147.576 8.42915 147.528 9.12515H152.04C152.64 9.12515 153.264 9.05315 153.84 8.95715L155.928 9.96515C155.856 10.3491 155.76 10.9731 155.76 11.2371C155.664 13.8291 155.376 20.5251 154.344 22.9731C153.816 24.1971 152.904 24.8211 151.248 24.8211C149.88 24.8211 148.44 24.7251 147.288 24.6291L146.904 21.4131C148.08 21.6291 149.328 21.7491 150.264 21.7491C151.032 21.7491 151.368 21.4851 151.632 20.9091C152.328 19.3971 152.64 14.5971 152.64 12.0051H147.24C146.352 18.3411 144.072 22.1091 139.776 25.1571L136.992 22.9011C137.976 22.3491 139.176 21.5331 140.136 20.5491C142.368 18.3411 143.568 15.6531 144.096 12.0051H140.928C140.112 12.0051 138.792 12.0051 137.76 12.1011V8.95715C138.768 9.05315 140.016 9.12515 140.928 9.12515H144.36C144.384 8.45315 144.408 7.75715 144.408 7.03715C144.408 6.50915 144.336 5.40515 144.24 4.82915H147.768Z" fill="white"/>
</svg>
