<svg width="124" height="19" viewBox="0 0 124 19" fill="none" xmlns="http://www.w3.org/2000/svg">
<path d="M8.12002 1.70011C8.00002 2.22011 7.86002 2.86011 7.76002 3.36011C7.64002 3.96011 7.48002 4.70011 7.34002 5.42011C8.02002 5.38011 8.60002 5.34011 9.02002 5.34011C11.14 5.34011 12.64 6.28011 12.64 9.16011C12.64 11.5201 12.36 14.7601 11.5 16.5001C10.84 17.9001 9.74002 18.3401 8.22002 18.3401C7.46002 18.3401 6.50002 18.2001 5.82002 18.0601L5.40002 15.4201C6.16002 15.6401 7.32002 15.8401 7.84002 15.8401C8.52002 15.8401 9.02002 15.6401 9.34002 14.9801C9.88002 13.8401 10.16 11.4201 10.16 9.44011C10.16 7.84011 9.46002 7.62011 8.22002 7.62011C7.90002 7.62011 7.40002 7.66011 6.82002 7.70011C6.06002 10.7401 4.58002 15.4801 2.74002 18.4201L0.14002 17.3801C2.08002 14.7601 3.46002 10.7201 4.20002 7.98011C3.48002 8.06011 2.84002 8.14011 2.48002 8.18011C1.90002 8.28011 0.86002 8.42011 0.24002 8.52011L1.95801e-05 5.80011C0.74002 5.86011 1.40002 5.82011 2.14002 5.80011C2.76002 5.78011 3.70002 5.72011 4.72002 5.62011C5.00002 4.12011 5.18002 2.66011 5.14002 1.40011L8.12002 1.70011ZM17.02 0.0401063C17.54 0.800106 18.28 2.06011 18.62 2.76011L17.04 3.44011C16.62 2.62011 15.98 1.44011 15.42 0.680106L17.02 0.0401063ZM14.64 0.940107C15.14 1.68011 15.86 2.94011 16.24 3.68011L15.26 4.10011C16.46 5.96011 17.96 9.30011 18.52 11.0801L15.98 12.2401C15.46 10.0201 14.04 6.50011 12.62 4.74011L14.42 3.96011C14.02 3.20011 13.52 2.24011 13.06 1.60011L14.64 0.940107ZM39.08 4.76011C38.8 5.08011 38.56 5.34011 38.4 5.60011C36.96 7.94011 34.4 11.1401 31.58 13.4201C32.72 14.5601 33.9 15.8601 34.68 16.8001L32.34 18.6601C31.5 17.5401 29.82 15.6601 28.52 14.3401C27.36 13.1601 25.32 11.3601 24.12 10.5001L26.24 8.80011C27.04 9.40011 28.36 10.4801 29.62 11.5801C31.88 9.78011 33.76 7.46011 34.7 5.82011H24.12C23.32 5.82011 22.24 5.92011 21.82 5.96011V3.16011C22.34 3.24011 23.44 3.34011 24.12 3.34011H35.22C35.98 3.34011 36.66 3.26011 37.08 3.12011L39.08 4.76011ZM57.7 3.80011C57.54 4.02011 57.18 4.64011 57 5.04011C56.32 6.60011 55.2 8.74011 53.86 10.5401C55.84 12.2601 58.26 14.8201 59.44 16.2601L57.16 18.2401C55.86 16.4401 54 14.4001 52.12 12.5801C50 14.8201 47.34 16.9001 44.6 18.2001L42.54 16.0401C45.76 14.8401 48.86 12.4001 50.74 10.3001C52.06 8.80011 53.28 6.82011 53.72 5.40011H46.94C46.1 5.40011 45 5.52011 44.58 5.54011V2.70011C45.12 2.78011 46.34 2.84011 46.94 2.84011H54C54.86 2.84011 55.66 2.72011 56.06 2.58011L57.7 3.80011ZM68.3 15.4401V3.94011C68.3 3.24011 68.24 2.24011 68.1 1.54011H71.22C71.14 2.24011 71.04 3.12011 71.04 3.94011V6.90011C73.72 7.68011 77.56 9.10011 79.4 10.0001L78.26 12.7601C76.2 11.6801 73.2 10.5201 71.04 9.78011V15.4401C71.04 16.0201 71.14 17.4201 71.22 18.2401H68.1C68.22 17.4401 68.3 16.2401 68.3 15.4401ZM87.12 10.7601C88.02 8.54011 88.78 5.70011 89.02 3.16011L91.94 3.76011C91.78 4.34011 91.54 5.32011 91.46 5.76011C91.18 7.18011 90.46 9.92011 89.76 11.7801C89.04 13.7201 87.86 16.0001 86.82 17.5001L84.02 16.3201C85.26 14.6801 86.44 12.5201 87.12 10.7601ZM97 10.3401C96.24 8.24011 94.94 5.30011 94.1 3.76011L96.76 2.90011C97.58 4.46011 98.96 7.54011 99.72 9.46011C100.42 11.2801 101.48 14.4601 102.04 16.4401L99.08 17.4001C98.52 15.0401 97.8 12.5001 97 10.3401ZM119.2 0.500106C119.72 1.26011 120.38 2.42011 120.74 3.14011L120 3.44011L121.28 4.28011C121.08 4.66011 120.94 5.24011 120.84 5.66011C120.36 7.62011 119.5 10.7201 117.82 12.9401C116.02 15.3401 113.36 17.3201 109.78 18.4801L107.6 16.0801C111.56 15.1601 113.82 13.4201 115.44 11.3801C116.76 9.72011 117.52 7.46011 117.78 5.74011H108.48C107.56 5.74011 106.62 5.78011 106.1 5.82011V3.00011C106.68 3.08011 107.82 3.16011 108.48 3.16011H117.74C117.98 3.16011 118.32 3.16011 118.68 3.12011C118.34 2.46011 117.94 1.76011 117.56 1.18011L119.2 0.500106ZM122 0.000106812C122.5 0.720107 123.22 1.94011 123.6 2.64011L121.94 3.36011C121.5 2.54011 120.88 1.40011 120.34 0.660107L122 0.000106812Z" fill="#E35E8D"/>
</svg>
