<svg width="217" height="20" viewBox="0 0 217 20" fill="none" xmlns="http://www.w3.org/2000/svg">
<path d="M15.68 13.2999H11.68V15.9199H15.68V13.2999ZM9.49998 19.0199V11.1799H17.96V18.9999H15.68V18.0399H11.68V19.0199H9.49998ZM2.13998 15.8999H6.45998V14.5199H2.13998V15.8999ZM3.89998 3.11988V4.85988H4.85998V3.11988H3.89998ZM5.79998 6.83988V10.0399C5.79998 10.3199 5.81998 10.3399 5.97998 10.3399H6.31998C6.37998 10.3399 6.41998 10.3399 6.45998 10.3399V6.83988H5.79998ZM3.99998 6.83988V8.41988C3.99998 9.57988 3.79998 11.0599 2.85998 12.0999C2.71998 11.9199 2.39998 11.6399 2.13998 11.4599V12.7999H6.45998V11.5199H5.81998C4.93998 11.5199 4.67998 11.2399 4.67998 10.0599V6.83988H3.99998ZM2.83998 6.83988H2.13998V11.0399C2.75998 10.2199 2.83998 9.23988 2.83998 8.39988V6.83988ZM6.71998 4.85988H8.43998V18.9399H6.45998V17.7399H2.13998V18.9999H0.239976V4.85988H2.05998V3.11988H-2.43783e-05V1.15988H8.61998V3.11988H6.71998V4.85988ZM15.08 7.91988H18.52V10.0199H8.85998V7.91988H12.86V5.45988H11.3C11.04 6.33988 10.74 7.11988 10.4 7.77988C9.95998 7.45988 8.97998 6.95988 8.43998 6.73988C9.25998 5.35988 9.75998 3.13988 10.02 1.03988L12.18 1.41988C12.08 2.07988 11.96 2.71988 11.84 3.37988H12.86V0.439882H15.08V3.37988H18.12V5.45988H15.08V7.91988ZM29.86 9.51988V10.3599H31.18C31.72 10.0999 32.24 9.81988 32.76 9.51988H29.86ZM34.42 3.33988V2.61988H25.36V3.33988H34.42ZM34.42 5.47988V4.73988H25.36V5.47988H34.42ZM34.72 15.0599V14.3799H26.8V15.0599H34.72ZM26.8 17.1799H34.72V16.3999H26.8V17.1799ZM38.88 12.0999H31.98C31.42 12.3799 30.82 12.6399 30.22 12.8999H37.16V19.0999H34.72V18.6599H26.8V19.0999H24.48V14.8599C23.56 15.0999 22.64 15.3399 21.72 15.5399C21.48 15.0599 20.9 14.1199 20.52 13.6799C22.66 13.2799 24.8 12.7799 26.84 12.0999H21.28V10.3599H27.46V9.51988H22.72V7.85988H27.46V7.19988H29.86V7.85988H34.26V8.57988C34.98 8.07988 35.62 7.53988 36.2 6.97988H23.08V1.11988H36.82V6.77988L38.36 7.71988C37.42 8.67988 36.3 9.55988 35.08 10.3599H38.88V12.0999ZM50.2 1.71988C50.08 2.23988 49.94 2.87988 49.84 3.37988C49.72 3.97988 49.56 4.71988 49.42 5.43988C50.1 5.39988 50.68 5.35988 51.1 5.35988C53.22 5.35988 54.72 6.29988 54.72 9.17988C54.72 11.5399 54.44 14.7799 53.58 16.5199C52.92 17.9199 51.82 18.3599 50.3 18.3599C49.54 18.3599 48.58 18.2199 47.9 18.0799L47.48 15.4399C48.24 15.6599 49.4 15.8599 49.92 15.8599C50.6 15.8599 51.1 15.6599 51.42 14.9999C51.96 13.8599 52.24 11.4399 52.24 9.45988C52.24 7.85988 51.54 7.63988 50.3 7.63988C49.98 7.63988 49.48 7.67988 48.9 7.71988C48.14 10.7599 46.66 15.4999 44.82 18.4399L42.22 17.3999C44.16 14.7799 45.54 10.7399 46.28 7.99988C45.56 8.07988 44.92 8.15988 44.56 8.19988C43.98 8.29988 42.94 8.43988 42.32 8.53988L42.08 5.81988C42.82 5.87988 43.48 5.83988 44.22 5.81988C44.84 5.79988 45.78 5.73988 46.8 5.63988C47.08 4.13988 47.26 2.67988 47.22 1.41988L50.2 1.71988ZM59.1 0.0598817C59.62 0.819881 60.36 2.07988 60.7 2.77988L59.12 3.45988C58.7 2.63988 58.06 1.45988 57.5 0.699882L59.1 0.0598817ZM56.72 0.959882C57.22 1.69988 57.94 2.95988 58.32 3.69988L57.34 4.11988C58.54 5.97988 60.04 9.31988 60.6 11.0999L58.06 12.2599C57.54 10.0399 56.12 6.51988 54.7 4.75988L56.5 3.97988C56.1 3.21988 55.6 2.25988 55.14 1.61988L56.72 0.959882ZM65.86 2.27988C66.5 2.37988 67.32 2.43988 68 2.43988H74.54C75.22 2.43988 76.02 2.37988 76.7 2.27988V4.85988C76.02 4.81988 75.24 4.79988 74.54 4.79988H68C67.32 4.79988 66.46 4.81988 65.86 4.85988V2.27988ZM63.54 7.39988C64.14 7.47988 64.84 7.51988 65.46 7.51988H78.56C78.98 7.51988 79.86 7.47988 80.38 7.39988V9.99988C79.88 9.95988 79.12 9.93988 78.56 9.93988H73.74C73.62 11.9999 73.18 13.6799 72.46 15.0799C71.76 16.4799 70.22 18.0199 68.44 18.9199L66.1 17.2199C67.52 16.6799 68.92 15.5399 69.72 14.3599C70.54 13.1199 70.88 11.6199 70.96 9.93988H65.46C64.88 9.93988 64.1 9.97988 63.54 10.0199V7.39988ZM77.9 0.899882C78.4 1.63988 79.1 2.89988 79.48 3.63988L77.88 4.33988C77.46 3.51988 76.84 2.31988 76.3 1.55988L77.9 0.899882ZM80.26 -0.00011754C80.78 0.759882 81.52 2.01988 81.88 2.71988L80.28 3.41988C79.86 2.57988 79.22 1.41988 78.68 0.659882L80.26 -0.00011754ZM100.88 4.05988C100.7 4.45988 100.54 5.03988 100.44 5.45988C99.98 7.41988 99.1 10.5199 97.44 12.7399C95.62 15.1399 92.96 17.1199 89.4 18.2599L87.22 15.8799C91.18 14.9399 93.44 13.1999 95.06 11.1799C96.38 9.51988 97.14 7.23988 97.4 5.53988H88.08C87.18 5.53988 86.22 5.57988 85.7 5.61988V2.79988C86.3 2.85988 87.44 2.95988 88.1 2.95988H97.34C97.74 2.95988 98.38 2.93988 98.92 2.79988L100.88 4.05988ZM117.56 4.93988C117.5 5.41988 117.48 6.05988 117.48 6.59988C117.48 6.95988 117.5 7.37988 117.5 7.81988H119.86C120.38 7.81988 121.14 7.73988 121.5 7.69988V10.1199C121.02 10.0999 120.4 10.0799 119.96 10.0799H117.56C117.62 12.4599 117.68 15.1799 117.7 17.2199C117.72 18.2599 116.94 18.9799 115.76 18.9799C114.8 18.9799 113.56 18.9399 112.66 18.8799L112.5 16.5999C113.32 16.7199 114.28 16.7799 114.8 16.7799C115.18 16.7799 115.32 16.5599 115.32 16.1599C115.32 15.1799 115.3 13.7199 115.28 12.1999C113.88 13.9799 111.18 16.2199 108.82 17.4599L107.08 15.4599C109.92 14.1599 112.7 11.9399 114.08 10.0799H109.8C109.22 10.0799 108.5 10.1199 107.92 10.1599V7.69988C108.4 7.75988 109.22 7.81988 109.74 7.81988H115.18C115.18 7.37988 115.16 6.97988 115.14 6.59988C115.12 6.11988 115.06 5.47988 114.98 4.93988H117.56ZM135.16 16.9399C135.24 16.5599 135.32 15.9999 135.32 15.4599V3.79988C135.32 2.89988 135.18 2.13988 135.16 2.07988H138.14C138.12 2.13988 138 2.91988 138 3.81988V14.2799C139.62 13.5799 141.6 11.9999 142.94 10.0599L144.48 12.2599C142.82 14.4199 139.94 16.5799 137.7 17.7199C137.26 17.9599 137.02 18.1599 136.84 18.3199L135.16 16.9399ZM125.9 16.6399C127.66 15.3999 128.74 13.5599 129.3 11.8599C129.86 10.1399 129.88 6.35988 129.88 3.93988C129.88 3.13988 129.82 2.59988 129.7 2.09988H132.64C132.62 2.19988 132.5 3.07988 132.5 3.91988C132.5 6.27988 132.44 10.4999 131.9 12.5199C131.3 14.7799 130.04 16.7399 128.34 18.2599L125.9 16.6399ZM152.38 15.4599V3.95988C152.38 3.25988 152.32 2.25988 152.18 1.55988H155.3C155.22 2.25988 155.12 3.13988 155.12 3.95988V6.91988C157.8 7.69988 161.64 9.11988 163.48 10.0199L162.34 12.7799C160.28 11.6999 157.28 10.5399 155.12 9.79988V15.4599C155.12 16.0399 155.22 17.4399 155.3 18.2599H152.18C152.3 17.4599 152.38 16.2599 152.38 15.4599ZM185.64 10.3399C185.64 14.5599 183.06 17.5399 178.02 18.3199L176.52 15.9399C177.28 15.8599 177.84 15.7399 178.38 15.6199C180.94 15.0199 182.94 13.1799 182.94 10.2599C182.94 7.49988 181.44 5.43988 178.74 4.97988C178.46 6.67988 178.12 8.51988 177.54 10.3999C176.34 14.4399 174.62 16.9199 172.44 16.9199C170.22 16.9199 168.38 14.4799 168.38 11.0999C168.38 6.47988 172.38 2.53988 177.56 2.53988C182.52 2.53988 185.64 5.97988 185.64 10.3399ZM170.94 10.8399C170.94 12.8599 171.74 13.8399 172.52 13.8399C173.36 13.8399 174.14 12.5799 174.96 9.87988C175.42 8.39988 175.8 6.69988 176.02 5.03988C172.72 5.71988 170.94 8.63988 170.94 10.8399ZM202.56 10.6399L202.98 10.5199L204.88 11.0799C203.9 13.5399 202.46 16.6399 201.22 19.1799L198.7 18.4799C199.58 16.7599 200.6 14.6199 201.38 12.8799H191.1V10.6399H202.56ZM194.5 6.51988H201.66C200.2 5.23988 198.9 3.87988 198.02 2.63988C197.16 3.87988 195.94 5.23988 194.5 6.51988ZM196.72 0.319882H199.1C201.24 3.37988 204.52 6.19988 207.64 7.65988C207.04 8.25988 206.52 9.01988 206.08 9.73988C204.82 8.99988 203.52 8.07988 202.3 7.05988V8.71988H193.82V7.11988C192.68 8.09988 191.42 8.99988 190.12 9.77988C189.82 9.21988 189.14 8.37988 188.62 7.87988C192 6.01988 195.22 2.79988 196.72 0.319882ZM214.2 18.7599C212.98 17.2599 211.28 15.5399 209.9 14.3399L211.98 12.5399C213.4 13.6999 215.34 15.6799 216.34 16.9199L214.2 18.7599Z" fill="#E35E8D"/>
</svg>
