<svg width="278" height="23" viewBox="0 0 278 23" fill="none" xmlns="http://www.w3.org/2000/svg">
<path d="M2.76566e-05 15.3601V7.20024e-05H7.72803V0.936071H0.984028V15.3601H2.76566e-05ZM26.064 2.61607V3.48007L23.64 3.81607L23.544 13.0801C23.52 18.5041 21.144 20.8801 17.112 20.8801C13.104 20.8801 10.368 18.8641 10.368 13.4881V10.8241C10.368 8.47207 10.368 6.07207 10.296 3.69607L8.18403 3.48007V2.61607H16.2V3.48007L13.752 3.72007C13.68 6.04807 13.68 8.44807 13.68 10.8241V13.0561C13.68 17.4721 15.264 19.0561 18.024 19.0561C20.952 19.0561 22.536 17.2801 22.512 12.8161L22.44 3.84007L19.656 3.48007V2.61607H26.064ZM42.9748 2.61607V3.40807L40.8388 3.76807L35.2468 20.5201H33.4948L27.4228 3.67207L25.5988 3.48007V2.61607H33.5188V3.45607L31.0228 3.72007L35.4868 16.9441L39.5188 3.79207L37.0468 3.45607V2.61607H42.9748ZM55.7016 7.00807L58.5576 6.67207C59.2296 6.60007 59.5896 5.90407 60.0936 5.90407C60.8376 5.90407 62.9256 7.53607 62.9256 8.32807C62.9256 8.97607 62.0376 8.97607 61.9176 9.88807C61.6056 12.0241 60.9336 15.5521 59.6376 18.1681C58.9416 19.5121 57.5016 20.7841 56.0856 20.7841C55.3176 20.7841 55.1256 20.4721 54.9096 19.6801C54.6936 18.8641 54.1416 18.3361 52.6296 16.9921L52.8456 16.6321C54.2376 17.1361 55.4136 17.4481 55.9896 17.4961C56.6136 17.5681 56.8536 17.4721 57.1416 17.0881C58.5096 15.2881 59.3736 10.3201 59.3736 8.78407C59.3736 8.56807 59.2776 8.47207 59.1096 8.47207C58.1256 8.47207 56.5656 8.68807 55.1496 8.90407C54.1896 12.0721 51.8376 18.3841 44.1096 21.7441L43.7976 21.3121C48.9336 17.4721 51.0456 13.0801 52.2216 9.40807C51.2136 9.60007 50.0856 9.84007 49.4376 10.0321C48.6936 10.2721 48.2376 10.6561 47.6616 10.6561C46.8936 10.6561 45.6936 9.26407 45.4056 8.44807C45.1656 7.87207 45.2136 7.32007 45.3336 6.62407L45.6696 6.52807C46.1976 7.24807 46.6536 7.87207 47.4696 7.87207C48.0696 7.87207 50.3496 7.63207 52.8216 7.34407C53.1336 6.07207 53.4216 4.65607 53.4456 3.98407C53.4456 3.48007 53.3736 3.26407 53.0616 3.04807C52.6296 2.76007 52.0776 2.54407 51.5736 2.37607V2.01607C52.1256 1.75207 52.9416 1.36807 53.5896 1.36807C54.9336 1.36807 57.0936 2.64007 57.0936 3.43207C57.0936 4.17607 56.4216 4.17607 56.1576 5.18407C56.0376 5.64007 55.8936 6.26407 55.7016 7.00807ZM74.6432 10.2241C74.3552 9.55207 73.7792 8.44807 73.3712 8.01607L73.5872 7.75207C74.3312 7.99207 74.9312 8.18407 75.6032 8.59207C76.7312 9.26407 77.4752 10.1761 77.4752 11.4481C77.4752 12.2641 76.8512 12.6961 76.2272 12.6961C75.0992 12.6961 75.2192 11.6401 74.6432 10.2241ZM82.9712 11.5681C80.9312 15.7921 76.6832 20.1121 70.5632 21.7201L70.3472 21.3601C76.2032 18.4801 80.8112 11.8321 80.8112 9.36007C80.8112 8.90407 80.3312 8.52007 79.6352 8.16007L79.6592 7.87207C80.0192 7.80007 80.5952 7.70407 81.0272 7.70407C82.2512 7.72807 83.8592 9.16807 83.8592 10.1041C83.8592 10.5841 83.2352 11.0161 82.9712 11.5681ZM70.4912 11.6881C70.0832 10.6801 69.6512 9.96007 69.1952 9.38407L69.4352 9.12007C70.1552 9.33607 70.8752 9.69607 71.2832 9.96007C72.6512 10.7041 73.4672 11.7841 73.4672 12.9601C73.4672 13.6561 73.0352 14.1841 72.1952 14.1841C71.1392 14.1841 71.0912 13.0081 70.4912 11.6881ZM94.2272 2.54407L94.2032 2.16007C94.8752 1.84807 95.6672 1.46407 96.3872 1.46407C97.5872 1.46407 99.7232 2.64007 99.7232 3.43207C99.7232 4.12807 99.1952 4.36807 99.0752 5.25607C98.9312 6.19207 98.8832 7.48807 98.8592 8.88007C101.259 9.14407 103.491 9.79207 104.835 10.5841C105.891 11.2081 106.587 11.9281 106.587 13.2001C106.587 13.9681 106.059 14.6641 105.195 14.6641C103.659 14.6641 103.563 13.3441 101.715 11.6401C100.971 11.0161 100.107 10.4401 98.8352 9.84007C98.7632 12.3841 98.7872 15.4561 98.8592 17.5201C98.9072 18.7441 98.9552 19.5601 98.9552 19.8961C98.9552 21.1441 98.6912 21.6481 97.7312 21.6481C96.4832 21.6481 95.8112 20.3521 95.8112 18.5761C95.8112 17.9281 96.0272 17.3761 96.1472 16.3201C96.3392 14.5201 96.3632 11.3041 96.3632 9.86407C96.3632 7.87207 96.2912 4.84807 96.0992 3.76807C95.9552 2.97607 95.2112 2.71207 94.2272 2.54407ZM114.267 9.19207C114.099 8.64007 114.051 8.20807 114.075 7.63207L114.435 7.46407C115.131 8.18407 115.587 8.64007 116.499 8.64007C117.963 8.64007 124.035 7.87207 125.859 7.53607C126.747 7.39207 127.083 6.88807 127.611 6.88807C128.595 6.88807 130.659 8.54407 130.659 9.48007C130.659 10.1281 129.555 10.4881 129.027 11.4721C126.795 15.6721 122.811 19.7521 115.707 21.8401L115.443 21.3601C121.347 18.2641 125.019 13.5841 126.387 9.69607C126.483 9.38407 126.387 9.26407 126.099 9.28807C124.803 9.33607 119.931 10.2961 118.419 10.7521C117.699 10.9441 117.243 11.4001 116.715 11.4001C115.707 11.4001 114.507 9.93607 114.267 9.19207ZM127.827 3.24007C127.827 3.72007 127.563 4.05607 126.795 4.22407C124.875 4.68007 121.395 5.28007 119.331 5.28007C117.819 5.28007 117.027 4.39207 116.163 2.64007L116.427 2.42407C117.411 3.04807 118.251 3.14407 119.067 3.14407C120.843 3.14407 122.259 2.73607 123.267 2.44807C124.467 2.11207 124.827 1.80007 125.163 1.80007C126.771 1.80007 127.827 2.28007 127.827 3.24007ZM142.574 10.2241C142.286 9.55207 141.71 8.44807 141.302 8.01607L141.518 7.75207C142.262 7.99207 142.862 8.18407 143.534 8.59207C144.662 9.26407 145.406 10.1761 145.406 11.4481C145.406 12.2641 144.782 12.6961 144.158 12.6961C143.03 12.6961 143.15 11.6401 142.574 10.2241ZM150.902 11.5681C148.862 15.7921 144.614 20.1121 138.494 21.7201L138.278 21.3601C144.134 18.4801 148.742 11.8321 148.742 9.36007C148.742 8.90407 148.262 8.52007 147.566 8.16007L147.59 7.87207C147.95 7.80007 148.526 7.70407 148.958 7.70407C150.182 7.72807 151.79 9.16807 151.79 10.1041C151.79 10.5841 151.166 11.0161 150.902 11.5681ZM138.422 11.6881C138.014 10.6801 137.582 9.96007 137.126 9.38407L137.366 9.12007C138.086 9.33607 138.806 9.69607 139.214 9.96007C140.582 10.7041 141.398 11.7841 141.398 12.9601C141.398 13.6561 140.966 14.1841 140.126 14.1841C139.07 14.1841 139.022 13.0081 138.422 11.6881ZM163.886 5.16007C162.95 4.32007 162.086 3.64807 161.318 3.19207L161.462 2.76007C162.254 2.78407 163.382 2.85607 164.846 3.19207C166.502 3.64807 167.918 4.44007 167.918 5.97607C167.918 6.62407 167.414 7.24807 166.742 7.24807C165.59 7.24807 165.158 6.31207 163.886 5.16007ZM161.534 17.7361C164.294 17.7361 173.366 11.5201 177.446 6.55207L177.878 6.84007C175.478 11.7121 170.054 16.6321 164.822 19.7281C164.03 20.1841 163.718 20.9761 162.902 20.9761C161.87 20.9761 160.262 19.8961 159.566 18.8161C159.158 18.1921 158.99 17.0641 158.966 16.4161L159.278 16.2481C159.806 16.8001 160.598 17.7361 161.534 17.7361ZM160.982 10.3921C159.878 9.33607 159.014 8.64007 158.27 8.20807L158.414 7.80007C159.398 7.87207 160.358 7.96807 161.63 8.28007C163.334 8.68807 164.99 9.64807 164.99 11.1121C164.99 11.6881 164.702 12.4321 163.718 12.4321C162.566 12.4321 162.11 11.3761 160.982 10.3921ZM192.434 16.6801L193.322 16.6081C194.45 16.4881 194.714 16.2481 195.026 16.2481C196.058 16.2481 197.978 17.4241 197.978 18.2161C197.978 18.7921 197.594 19.2241 197.018 19.2241C196.226 19.2241 194.234 18.5281 191.474 18.5281C189.674 18.5281 187.514 18.8401 186.074 19.2241C185.114 19.4641 184.322 19.8481 183.794 19.8481C183.026 19.8481 181.898 18.6721 181.634 18.0481C181.49 17.6881 181.442 17.3521 181.442 16.7281L181.658 16.6561C182.21 17.1361 182.81 17.4241 183.554 17.4241C184.418 17.4241 187.442 17.1601 190.034 16.9201C190.514 14.7121 191.042 11.5201 191.114 10.9921C191.114 10.8241 191.018 10.7521 190.826 10.7521C190.346 10.7521 188.546 11.2801 187.706 11.5921C187.154 11.7841 186.866 12.0241 186.41 12.0241C185.69 12.0241 184.754 11.0641 184.418 10.2721C184.25 9.91207 184.154 9.43207 184.178 8.97607L184.394 8.88007C185.018 9.38407 185.618 9.69607 186.194 9.69607C187.226 9.69607 189.458 9.38407 190.538 9.14407C190.898 9.07207 191.402 8.47207 191.786 8.47207C192.434 8.47207 194.834 9.64807 194.834 10.4161C194.834 11.0641 194.042 11.3521 193.898 11.8561C193.61 12.7201 192.962 14.9521 192.434 16.6801ZM213.578 7.22407L216.434 6.88807C217.106 6.81607 217.466 6.12007 217.97 6.12007C218.714 6.12007 220.802 7.75207 220.802 8.54407C220.802 9.19207 219.914 9.19207 219.794 10.1041C219.482 12.2401 218.81 15.7681 217.514 18.3841C216.818 19.7281 215.378 21.0001 213.962 21.0001C213.194 21.0001 213.002 20.6881 212.786 19.8961C212.57 19.0801 212.018 18.5521 210.506 17.2081L210.722 16.8481C212.114 17.3521 213.29 17.6641 213.866 17.7121C214.49 17.7841 214.73 17.6881 215.018 17.3041C216.386 15.5041 217.25 10.5361 217.25 9.00007C217.25 8.78407 217.154 8.68807 216.986 8.68807C216.002 8.68807 214.442 8.90407 213.026 9.12007C212.066 12.2881 209.714 18.6001 201.986 21.9601L201.674 21.5281C206.81 17.6881 208.922 13.2961 210.098 9.62407C209.09 9.81607 207.962 10.0561 207.314 10.2481C206.57 10.4881 206.114 10.8721 205.538 10.8721C204.77 10.8721 203.57 9.48007 203.282 8.66407C203.042 8.08807 203.09 7.53607 203.21 6.84007L203.546 6.74407C204.074 7.46407 204.53 8.08807 205.346 8.08807C205.946 8.08807 208.226 7.84807 210.698 7.56007C211.01 6.28807 211.298 4.87207 211.322 4.20007C211.322 3.69607 211.25 3.48007 210.938 3.26407C210.506 2.97607 209.954 2.76007 209.45 2.59207V2.23207C210.002 1.96807 210.818 1.58407 211.466 1.58407C212.81 1.58407 214.97 2.85607 214.97 3.64807C214.97 4.39207 214.298 4.39207 214.034 5.40007C213.914 5.85607 213.77 6.48007 213.578 7.22407ZM217.562 2.92807L217.802 2.61607C219.146 2.95207 220.274 3.40807 221.018 4.08007C221.546 4.56007 221.714 4.96807 221.714 5.42407C221.714 5.92807 221.354 6.31207 220.85 6.31207C220.442 6.31207 220.13 5.95207 219.746 5.40007C219.29 4.75207 218.714 3.88807 217.562 2.92807ZM219.77 1.27207L219.986 0.960071C221.354 1.24807 222.458 1.63207 223.13 2.13607C223.73 2.59207 223.97 3.07207 223.97 3.62407C223.97 4.15207 223.682 4.46407 223.154 4.46407C222.698 4.46407 222.434 4.08007 221.978 3.48007C221.522 2.92807 221.042 2.25607 219.77 1.27207ZM225.194 9.50407L225.602 9.36007C226.322 10.3201 226.73 10.9681 228.002 10.9681C230.57 10.9681 237.818 10.4881 239.282 10.3681C240.89 10.2241 241.97 10.0321 242.546 10.0321C243.986 10.0321 245.234 10.7761 245.234 11.8081C245.234 12.5041 244.658 12.8401 243.65 12.8401C242.69 12.8401 241.85 12.7681 240.17 12.7681C238.346 12.7681 232.97 13.1041 231.122 13.3201C229.394 13.4881 229.034 14.0641 228.122 14.0641C227.186 14.0641 225.698 12.5041 225.266 11.3281C225.05 10.7761 225.122 10.0801 225.194 9.50407ZM260.498 4.20007L260.738 3.88807C262.082 4.24807 263.21 4.65607 263.954 5.32807C264.482 5.80807 264.65 6.24007 264.65 6.69607C264.65 7.20007 264.29 7.58407 263.762 7.58407C263.378 7.58407 263.09 7.22407 262.658 6.67207C262.202 6.00007 261.65 5.16007 260.498 4.20007ZM252.722 2.56807L252.698 2.18407C253.37 1.87207 254.162 1.48807 254.882 1.48807C256.082 1.48807 258.218 2.66407 258.218 3.45607C258.218 4.15207 257.69 4.39207 257.57 5.28007C257.426 6.21607 257.378 7.51207 257.354 8.90407C259.754 9.16807 261.986 9.81607 263.33 10.6081C264.386 11.2321 265.082 11.9521 265.082 13.2241C265.082 13.9921 264.554 14.6881 263.69 14.6881C262.154 14.6881 262.058 13.3681 260.21 11.6641C259.466 11.0401 258.602 10.4641 257.33 9.86407C257.258 12.4081 257.282 15.4801 257.354 17.5441C257.402 18.7681 257.45 19.5841 257.45 19.9201C257.45 21.1681 257.186 21.6721 256.226 21.6721C254.978 21.6721 254.306 20.3761 254.306 18.6001C254.306 17.9521 254.522 17.4001 254.642 16.3441C254.834 14.5441 254.858 11.3281 254.858 9.88807C254.858 7.89607 254.786 4.87207 254.594 3.79207C254.45 3.00007 253.706 2.73607 252.722 2.56807ZM262.682 2.25607L262.898 1.94407C264.266 2.20807 265.346 2.61607 266.018 3.12007C266.642 3.57607 266.858 4.05607 266.858 4.60807C266.858 5.11207 266.57 5.42407 266.066 5.42407C265.61 5.42407 265.322 5.06407 264.866 4.46407C264.434 3.91207 263.93 3.21607 262.682 2.25607ZM277.178 7.24807V22.6081H269.45V21.6721H276.194V7.24807H277.178Z" fill="#E35E8D"/>
</svg>
