<svg width="278" height="10" viewBox="0 0 278 10" fill="none" xmlns="http://www.w3.org/2000/svg">
<g clip-path="url(#clip0_201_17953)">
<path d="M122.404 2.09031C121.636 2.12376 120.868 2.19901 120.09 2.19065C117.948 2.19065 115.785 2.10704 113.664 2.13212C102.589 2.2659 91.5048 2.36623 80.4607 2.59199C72.8926 2.75085 65.3952 3.10202 57.8675 3.36958C53.1084 3.5368 48.3492 3.71239 43.5901 3.87961C40.1546 4.00503 36.6788 4.04684 33.3039 4.2475C30.1918 4.43145 27.2009 4.7659 24.1696 5.04182C23.24 5.12543 22.7651 5.33446 22.7853 5.72744C23.5532 5.70235 24.0686 5.70235 24.5637 5.66891C32.7583 5.14215 41.0539 4.79098 49.3799 4.48998C58.7668 4.14717 68.1638 3.82944 77.581 3.5368C85.7958 3.28597 94.0409 3.06858 102.276 2.85118C108.652 2.68396 115.038 2.55854 121.414 2.39132C121.787 2.38296 122.08 2.18229 122.414 2.07359C124.505 2.14884 126.597 2.21573 128.689 2.29098C128.689 2.25754 128.689 2.22409 128.699 2.19065C126.607 2.14884 124.516 2.1154 122.414 2.07359M16.6015 6.16222C15.4799 5.72744 14.6109 5.44316 13.9643 5.11707C12.782 4.51506 12.8023 3.87961 13.7925 3.30269C14.8332 2.70904 16.6318 2.40804 18.8446 2.62543C21.0575 2.84282 23.0379 2.72577 25.1295 2.5669C32.6067 1.98162 40.2961 1.73078 48.0057 1.50503C53.846 1.32944 59.6358 1.0368 65.4761 0.877939C74.772 0.610381 84.0781 0.351184 93.4145 0.200682C102.215 0.0501803 111.067 0.0418191 119.898 1.30569e-05C124.313 -0.0167094 128.749 0.0418191 133.175 0.0752639C143.633 0.150515 154.091 0.192321 164.559 0.301016C174.886 0.401351 185.222 0.568575 195.559 0.693993C199.985 0.752521 204.41 0.752521 208.826 0.844495C217.667 1.0368 226.519 1.22075 235.34 1.52175C248.465 1.97326 261.581 2.49165 274.453 3.62878C277.262 3.87961 278.263 4.31439 277.939 5.20068C277.677 5.91975 276.767 6.12878 274.312 6.22075C271.887 6.31272 269.603 6.17894 267.209 5.98664C262.743 5.64383 258.196 5.37627 253.659 5.19232C239.068 4.6154 224.447 4.23078 209.816 4.14717C196.276 4.07192 182.747 4.097 169.217 4.097C159.972 4.097 150.736 4.11373 141.501 4.16389C132.266 4.21406 123.03 4.25587 113.855 4.52342C106.954 4.73245 100.013 4.83279 93.0911 5.00837C89.6355 5.09199 86.2 5.24249 82.7645 5.36791C72.448 5.75252 62.1315 6.13714 51.815 6.51339C42.5595 6.8562 33.2534 7.13212 24.1898 7.77593C19.2892 8.1271 14.5099 8.61205 9.68003 9.04684C9.07377 9.10536 8.40688 9.21406 8.04313 9.36456C7.08322 9.7659 5.69892 9.84951 4.22369 9.96657C2.3645 9.56523 0.535621 9.21406 0.0809264 8.44483C-0.424289 7.58363 0.990314 6.8562 3.64775 6.88128C8.05323 6.92309 11.9535 6.39633 16.5712 6.12878" fill="#E35E8D"/>
</g>
<defs>
<clipPath id="clip0_201_17953">
<rect width="278" height="10" fill="white"/>
</clipPath>
</defs>
</svg>
