<svg width="48" height="270" viewBox="0 0 48 270" fill="none" xmlns="http://www.w3.org/2000/svg">
<path d="M37.919 4.67L38.024 4.49C38.549 4.52 39.029 4.55 39.404 4.745C40.004 5.03 40.604 5.72 40.604 6.215C40.604 6.575 40.334 6.74 39.614 6.98C38.474 7.325 36.734 8.06 35.504 8.78C34.169 9.575 32.999 10.625 32.999 11.735C32.999 12.635 33.869 13.1 35.699 13.1C37.769 13.1 38.969 12.635 39.284 12.635C40.169 12.635 40.964 12.845 40.964 13.565C40.964 13.88 40.664 14.225 40.244 14.39C39.614 14.615 38.159 14.81 36.389 14.81C33.794 14.81 31.934 13.94 31.934 12.14C31.934 10.445 33.479 8.93 34.664 8.045C34.259 7.805 33.959 7.46 33.764 7.04C33.434 6.335 33.224 4.895 33.104 3.965C33.044 3.635 32.924 3.455 32.624 3.26C32.384 3.11 32.054 2.975 31.754 2.855V2.63C32.144 2.48 32.549 2.345 32.999 2.345C34.004 2.345 34.919 3.05 34.919 3.53C34.919 3.845 34.829 4.175 34.829 4.565C34.829 5.15 34.904 5.96 35.114 6.455C35.264 6.83 35.474 7.1 35.774 7.295C36.824 6.65 38.024 5.99 38.384 5.765C38.564 5.66 38.609 5.525 38.534 5.33C38.429 5.06 38.144 4.85 37.919 4.67ZM39.419 2.99L39.569 2.795C40.409 3.02 41.099 3.32 41.564 3.74C41.894 4.04 41.984 4.31 41.984 4.58C41.984 4.895 41.759 5.135 41.429 5.12C41.189 5.12 40.994 4.895 40.754 4.55C40.484 4.145 40.109 3.59 39.419 2.99ZM40.784 2.03L40.904 1.835C41.759 2 42.449 2.255 42.869 2.57C43.244 2.855 43.394 3.155 43.394 3.485C43.394 3.815 43.199 4.025 42.884 4.025C42.599 4.025 42.434 3.77 42.149 3.41C41.864 3.065 41.564 2.645 40.784 2.03ZM32.189 25.32L32.489 25.305C32.639 27.42 33.254 28.62 36.224 28.62C38.519 28.62 39.704 27.945 40.124 27.945C40.679 27.945 41.594 28.275 41.594 28.905C41.594 29.385 41.414 29.58 40.769 29.82C39.944 30.105 38.444 30.3 36.704 30.3C32.324 30.3 31.364 28.215 32.189 25.32ZM34.409 22.95L34.274 22.725C34.859 22.29 35.624 21.675 36.059 21.315C36.179 21.21 36.164 21.165 35.984 21.15C34.439 21.09 33.149 20.895 32.564 19.32L32.729 19.17C33.599 19.755 34.199 19.89 35.399 19.89C37.379 19.89 37.769 19.5 38.489 19.5C39.209 19.5 40.364 19.965 40.364 20.535C40.364 20.955 40.124 21.18 39.584 21.285C39.104 21.375 38.534 21.465 37.979 21.615C37.079 21.84 35.744 22.365 34.409 22.95ZM33.944 40.33L34.274 40.48C33.974 41.29 33.449 42.595 33.314 43.15C33.194 43.75 33.119 44.065 33.119 44.305C33.119 44.845 33.449 45.355 33.449 45.805C33.449 46.345 33.179 46.66 32.684 46.66C32.324 46.66 31.964 46.39 31.664 45.985C31.109 45.235 30.749 44.065 30.749 42.385C30.749 41.005 31.169 39.43 31.409 38.53C31.589 37.81 31.739 37.195 31.754 36.535C31.754 35.845 31.364 35.2 30.974 34.765L31.124 34.6C31.619 34.72 31.949 34.855 32.309 35.095C32.774 35.395 33.584 36.22 33.584 37.045C33.584 37.465 33.374 37.765 33.014 38.455C32.444 39.445 31.874 40.825 31.874 42.1C31.874 42.565 31.949 42.865 32.039 43.045C32.129 43.27 32.264 43.285 32.414 43.06C32.789 42.52 33.554 41.08 33.944 40.33ZM35.414 41.65L35.669 41.62C35.759 41.98 35.879 42.43 36.059 42.745C36.644 43.78 37.349 44.17 39.224 44.17C40.739 44.17 41.354 43.885 41.669 43.885C42.314 43.885 42.989 44.17 42.989 44.74C42.989 45.67 41.474 45.865 39.659 45.865C36.824 45.865 35.654 44.65 35.429 42.91C35.369 42.46 35.384 42.01 35.414 41.65ZM35.894 37.63L35.789 37.375C36.929 36.34 38.534 35.965 39.659 35.965C40.664 35.965 41.279 36.085 41.789 36.355C42.254 36.61 42.374 36.91 42.374 37.18C42.374 37.555 42.179 37.735 41.804 37.81C41.354 37.885 40.814 37.9 40.199 38.08C39.524 38.305 38.534 38.77 37.724 39.265L37.529 39.04C38.189 38.485 38.939 37.855 39.194 37.57C39.344 37.39 39.419 37.24 38.324 37.24C37.874 37.24 37.154 37.285 35.894 37.63ZM42.734 51.2H35.789L35.669 50.78H40.604L41.519 49.58C41.519 49.58 42.539 50.405 43.154 50.96C43.109 51.125 42.944 51.2 42.734 51.2ZM32.999 49.295L35.009 50.54C34.919 50.69 34.769 50.765 34.439 50.705C33.359 51.71 31.619 52.94 29.834 53.735L29.699 53.57C30.989 52.385 32.369 50.525 32.999 49.295ZM33.164 52.34L35.294 53.555C35.219 53.69 35.069 53.78 34.709 53.735C34.334 54.185 33.869 54.68 33.359 55.175L33.989 55.415C33.929 55.535 33.794 55.64 33.524 55.7V62.885C33.494 63.005 32.759 63.35 32.084 63.35H31.754V56.6C31.034 57.17 30.269 57.71 29.474 58.16L29.339 57.995C30.884 56.39 32.444 53.915 33.164 52.34ZM41.039 54.23L41.984 53C41.984 53 43.049 53.84 43.679 54.425C43.634 54.59 43.469 54.665 43.259 54.665H41.084V61.04C41.084 62.24 40.739 63.08 38.504 63.23C38.459 62.66 38.339 62.225 38.024 61.97C37.709 61.715 37.274 61.505 36.254 61.355V61.16C36.254 61.16 38.474 61.295 38.909 61.295C39.179 61.295 39.284 61.19 39.284 60.995V54.665H34.949L34.829 54.23H41.039ZM37.019 67.05C37.019 66.72 36.689 66.33 36.254 65.94L36.404 65.715C36.869 65.76 37.289 65.82 37.664 66C38.519 66.435 39.224 67.305 39.224 67.83C39.224 68.31 38.759 68.43 38.114 68.865C37.019 69.63 35.234 71.055 34.604 71.685C34.214 72.075 34.064 72.27 34.064 72.465C34.064 72.675 34.289 72.885 34.604 73.095C36.044 74.115 37.724 75.09 38.744 76.38C39.269 77.04 39.449 77.535 39.449 78.045C39.449 78.525 39.194 79.08 38.414 79.08C38.009 79.08 37.709 78.825 37.529 78.54C37.349 78.21 37.184 77.865 36.779 77.22C36.194 76.275 35.024 75.12 33.269 73.62C32.894 73.32 32.729 72.945 32.729 72.66C32.729 72.345 32.849 72.075 33.164 71.7C33.959 70.725 36.119 68.475 36.704 67.71C36.929 67.425 37.019 67.26 37.019 67.05ZM33.944 88.33L34.274 88.48C33.974 89.29 33.449 90.595 33.314 91.15C33.194 91.75 33.119 92.065 33.119 92.305C33.119 92.845 33.449 93.355 33.449 93.805C33.449 94.345 33.179 94.66 32.684 94.66C32.324 94.66 31.964 94.39 31.664 93.985C31.109 93.235 30.749 92.065 30.749 90.385C30.749 89.005 31.169 87.43 31.409 86.53C31.589 85.81 31.739 85.195 31.754 84.535C31.754 83.845 31.364 83.2 30.974 82.765L31.124 82.6C31.619 82.72 31.949 82.855 32.309 83.095C32.774 83.395 33.584 84.22 33.584 85.045C33.584 85.465 33.374 85.765 33.014 86.455C32.444 87.445 31.874 88.825 31.874 90.1C31.874 90.565 31.949 90.865 32.039 91.045C32.129 91.27 32.264 91.285 32.414 91.06C32.789 90.52 33.554 89.08 33.944 88.33ZM35.414 89.65L35.669 89.62C35.759 89.98 35.879 90.43 36.059 90.745C36.644 91.78 37.349 92.17 39.224 92.17C40.739 92.17 41.354 91.885 41.669 91.885C42.314 91.885 42.989 92.17 42.989 92.74C42.989 93.67 41.474 93.865 39.659 93.865C36.824 93.865 35.654 92.65 35.429 90.91C35.369 90.46 35.384 90.01 35.414 89.65ZM35.894 85.63L35.789 85.375C36.929 84.34 38.534 83.965 39.659 83.965C40.664 83.965 41.279 84.085 41.789 84.355C42.254 84.61 42.374 84.91 42.374 85.18C42.374 85.555 42.179 85.735 41.804 85.81C41.354 85.885 40.814 85.9 40.199 86.08C39.524 86.305 38.534 86.77 37.724 87.265L37.529 87.04C38.189 86.485 38.939 85.855 39.194 85.57C39.344 85.39 39.419 85.24 38.324 85.24C37.874 85.24 37.154 85.285 35.894 85.63ZM32.474 104.105C32.474 104.6 33.149 104.93 34.199 105.08C34.334 104.255 34.484 103.43 34.634 102.74C33.644 102.815 32.474 103.475 32.474 104.105ZM37.664 103.37L37.814 103.16C40.319 104.12 41.594 105.65 41.594 107.495C41.594 109.04 40.394 110.96 37.334 110.96C34.979 110.96 33.914 109.625 33.914 107.735C33.914 107.405 33.944 107.015 33.989 106.565C32.594 106.175 31.799 105.335 31.799 104.435C31.799 103.58 32.549 102.74 33.569 102.155C33.224 102.035 32.924 101.915 32.594 101.645C32.144 101.285 31.844 100.85 31.724 99.86L31.904 99.755C32.249 100.235 32.654 100.67 33.329 100.91C33.914 101.105 34.484 101.195 35.009 101.225C35.264 100.25 35.429 99.59 35.444 99.275C35.459 98.93 35.294 98.765 35.039 98.6C34.844 98.495 34.604 98.39 34.379 98.315L34.394 98.075C34.679 97.985 35.009 97.895 35.459 97.895C36.389 97.895 37.469 98.825 37.469 99.35C37.469 99.71 37.214 99.905 37.034 100.22C36.869 100.505 36.689 100.835 36.479 101.33C37.199 101.42 37.454 101.84 37.454 102.23C37.454 102.65 37.169 102.785 36.719 102.815C36.479 102.83 36.194 102.83 35.909 102.815C35.669 103.49 35.399 104.315 35.189 105.155C35.789 105.17 36.299 105.155 36.644 105.17C37.199 105.2 37.529 105.44 37.529 105.965C37.529 106.4 37.184 106.685 36.554 106.775C36.104 106.835 35.489 106.835 34.859 106.745C34.829 107.06 34.799 107.345 34.799 107.615C34.799 108.995 35.639 109.625 37.019 109.625C38.699 109.625 39.884 108.515 39.884 107.06C39.884 105.365 38.954 104.36 37.664 103.37ZM35.489 116.13L35.369 115.695H38.174V113.325L40.439 113.52C40.409 113.73 40.289 113.88 39.884 113.94V115.695H40.679L41.594 114.465C41.594 114.465 42.599 115.305 43.214 115.89C43.169 116.055 43.004 116.13 42.794 116.13H39.884V118.32H41.219L42.164 117.045C42.164 117.045 43.214 117.915 43.844 118.515C43.799 118.68 43.634 118.755 43.424 118.755H34.694L34.574 118.32H38.174V116.13H35.489ZM35.534 119.145L35.579 119.31C34.994 119.7 34.229 120.195 33.254 120.765V125.325C33.254 126.51 33.014 127.17 31.184 127.335C31.139 126.81 31.079 126.405 30.899 126.135C30.719 125.88 30.434 125.7 29.804 125.595V125.385C29.804 125.385 31.019 125.46 31.304 125.46C31.529 125.46 31.589 125.4 31.589 125.205V121.71C31.229 121.92 30.839 122.13 30.434 122.34C30.359 122.535 30.209 122.7 30.014 122.76L29.339 120.69C29.804 120.615 30.599 120.42 31.589 120.18V117.225H29.669L29.549 116.79H31.589V113.235L33.809 113.46C33.764 113.67 33.614 113.82 33.254 113.88V116.79H33.539L34.334 115.575C34.334 115.575 35.219 116.43 35.714 116.985C35.669 117.15 35.519 117.225 35.309 117.225H33.254V119.76C33.989 119.565 34.769 119.355 35.534 119.145ZM35.534 121.905L35.654 121.815C39.899 122.295 38.444 125.52 36.824 124.35C36.734 123.48 36.149 122.505 35.534 121.905ZM41.714 120.825L42.449 119.685C42.449 119.685 43.304 120.48 43.784 121.005C43.739 121.17 43.589 121.245 43.379 121.245H41.489V125.295C41.489 126.495 41.204 127.17 39.104 127.35C39.044 126.81 38.969 126.42 38.684 126.15C38.399 125.895 38.009 125.715 37.139 125.565V125.37C37.139 125.37 39.059 125.49 39.434 125.49C39.689 125.49 39.764 125.415 39.764 125.205V121.245H34.799L34.694 120.825H39.764V119.025L42.014 119.22C41.969 119.445 41.819 119.565 41.489 119.61V120.825H41.714ZM31.514 136.555L31.664 136.495C31.799 136.66 32.099 136.915 32.414 136.915C32.564 136.915 32.729 136.87 33.014 136.75C34.469 136.165 36.179 135.01 38.099 135.01C40.184 135.01 41.564 136.465 41.564 138.01C41.564 139.57 40.649 140.47 39.509 141.085C38.219 141.805 36.074 141.925 34.424 141.775L34.394 141.52C37.349 141.19 39.959 140.005 39.959 137.785C39.959 136.72 39.284 135.745 38.054 135.745C36.509 135.745 34.979 137.35 34.364 137.815C33.719 138.34 33.449 138.61 33.059 138.61C32.519 138.61 31.754 138.025 31.559 137.485C31.454 137.17 31.499 136.825 31.514 136.555ZM30.119 148.25L30.299 148.19C30.569 148.565 30.899 148.94 31.289 148.94C32.189 148.94 34.379 148.37 37.019 147.74C38.609 147.35 40.184 146.975 40.649 146.975C41.099 146.975 41.534 147.035 41.924 147.215C42.329 147.395 42.629 147.665 42.629 148.07C42.629 148.445 42.314 148.745 41.834 148.745C41.429 148.745 40.934 148.685 40.514 148.685C39.824 148.685 38.909 148.745 38.114 149.315C37.574 149.69 36.314 150.92 36.314 153.47C36.314 155.21 37.079 155.78 37.604 156.065C38.459 156.515 39.674 156.44 40.109 156.44C40.619 156.44 41.264 156.92 41.264 157.49C41.264 158.18 40.514 158.345 39.824 158.345C38.669 158.345 37.574 158.21 36.629 157.595C35.594 156.95 34.919 155.915 34.919 154.01C34.919 151.865 35.909 149.99 37.619 148.835C37.739 148.745 37.724 148.655 37.574 148.7C35.804 149.105 33.734 149.84 32.834 150.38C32.519 150.56 32.204 150.89 31.784 150.89C31.079 150.89 30.044 149.915 29.999 149.18C29.984 148.82 30.059 148.475 30.119 148.25ZM31.154 169.38C31.049 168.195 31.199 166.875 31.199 165.855C31.199 164.985 30.839 164.37 30.044 163.725L30.119 163.56C30.509 163.545 31.094 163.575 31.529 163.755C32.294 164.07 33.194 164.925 33.194 165.615C33.194 166.35 32.399 167.175 32.399 169.065C32.399 170.37 33.089 171.165 33.569 171.375C33.794 171.465 34.004 171.45 34.169 171.24C34.664 170.535 35.204 169.56 35.729 168.57L36.044 168.705C35.699 169.86 35.369 171.135 35.354 171.66C35.324 172.575 35.564 172.545 35.564 173.01C35.564 173.7 34.859 174.045 33.914 173.655C32.699 173.145 31.319 171.795 31.154 169.38ZM40.589 167.805C40.214 166.71 39.404 165.735 38.219 165.21L38.294 164.955C39.869 165.045 40.769 165.57 41.654 166.395C42.554 167.235 42.974 168.495 42.974 169.65C42.974 170.595 42.659 171.105 41.924 171.105C41.609 171.105 41.279 170.94 41.159 170.535C40.994 169.89 41.039 169.065 40.589 167.805ZM36.809 183.715L36.719 183.49C37.499 182.965 38.714 182.515 39.929 182.515C40.919 182.515 41.549 182.755 41.879 182.935C42.329 183.22 42.509 183.55 42.509 183.865C42.509 184.285 42.224 184.51 41.579 184.525C41.309 184.54 40.979 184.555 40.589 184.645C39.929 184.735 39.284 184.93 38.759 185.125L38.624 184.93C39.059 184.63 39.794 184.06 39.944 183.895C40.019 183.805 39.989 183.73 39.869 183.685C39.554 183.58 39.014 183.52 38.579 183.52C38.114 183.52 37.484 183.595 36.809 183.715ZM35.624 180.58L35.564 180.805C36.209 180.595 36.719 180.37 37.124 180.145C37.424 179.98 37.649 179.8 37.784 179.8C38.159 179.8 38.894 180.01 38.894 180.595C38.894 181.015 38.564 181.255 37.469 181.645C37.034 181.81 36.074 182.11 35.129 182.335C34.949 182.965 34.754 183.67 34.529 184.315C33.974 186.025 33.029 188.71 32.444 189.79C32.174 190.3 31.964 190.615 31.409 190.615C30.959 190.615 30.599 190.12 30.599 189.505C30.599 188.89 30.974 188.68 31.394 187.975C31.949 187.075 32.669 185.71 33.329 183.805C33.449 183.46 33.569 183.04 33.689 182.605C33.269 182.665 32.819 182.71 32.474 182.71C31.334 182.71 30.644 182.425 30.164 180.79L30.344 180.655C31.124 181.21 31.559 181.39 32.189 181.39C32.819 181.405 33.479 181.315 34.034 181.21C34.184 180.49 34.289 179.845 34.319 179.47C34.334 179.095 34.289 178.975 34.034 178.78C33.809 178.6 33.509 178.465 33.149 178.345L33.164 178.12C33.569 177.955 33.959 177.85 34.394 177.865C35.309 177.865 36.269 178.345 36.284 178.75C36.284 179.155 35.969 179.44 35.624 180.58ZM35.909 186.43L36.164 186.415C36.224 186.79 36.329 187.33 36.629 187.765C37.214 188.62 38.084 188.875 39.299 188.875C40.619 188.875 41.189 188.59 41.489 188.59C42.074 188.59 42.779 188.86 42.779 189.505C42.779 189.895 42.404 190.165 41.804 190.3C41.324 190.42 40.664 190.525 39.659 190.525C37.364 190.525 36.044 189.595 35.879 187.915C35.789 187.435 35.849 186.85 35.909 186.43ZM37.019 195.05C37.019 194.72 36.689 194.33 36.254 193.94L36.404 193.715C36.869 193.76 37.289 193.82 37.664 194C38.519 194.435 39.224 195.305 39.224 195.83C39.224 196.31 38.759 196.43 38.114 196.865C37.019 197.63 35.234 199.055 34.604 199.685C34.214 200.075 34.064 200.27 34.064 200.465C34.064 200.675 34.289 200.885 34.604 201.095C36.044 202.115 37.724 203.09 38.744 204.38C39.269 205.04 39.449 205.535 39.449 206.045C39.449 206.525 39.194 207.08 38.414 207.08C38.009 207.08 37.709 206.825 37.529 206.54C37.349 206.21 37.184 205.865 36.779 205.22C36.194 204.275 35.024 203.12 33.269 201.62C32.894 201.32 32.729 200.945 32.729 200.66C32.729 200.345 32.849 200.075 33.164 199.7C33.959 198.725 36.119 196.475 36.704 195.71C36.929 195.425 37.019 195.26 37.019 195.05ZM33.059 210.36V210.15C33.344 210 33.869 209.85 34.274 209.85C34.859 209.85 35.369 210.015 35.684 210.24C35.984 210.48 35.834 210.945 35.399 212.235C36.494 211.875 36.839 211.59 37.034 211.59C37.379 211.59 37.814 211.83 37.814 212.31C37.814 212.64 37.604 212.835 37.349 213C36.824 213.33 35.894 213.63 34.874 213.84C34.379 215.37 33.479 217.92 32.354 219.72C31.979 220.305 31.679 220.695 31.259 220.695C30.749 220.695 30.464 220.2 30.464 219.69C30.464 219.33 30.554 219.045 30.824 218.715C31.814 217.515 32.834 216 33.494 214.065C33.119 214.11 32.774 214.125 32.444 214.125C31.199 214.125 30.629 213.75 30.209 212.085L30.434 211.965C31.064 212.445 31.544 212.805 32.504 212.805C32.939 212.805 33.464 212.73 33.914 212.64C34.019 212.175 34.079 211.755 34.094 211.395C34.094 211.08 33.974 210.9 33.719 210.705C33.479 210.525 33.209 210.42 33.059 210.36ZM37.949 220.17C37.949 220.035 37.949 219.9 37.949 219.765C37.529 219.66 37.064 219.615 36.569 219.615C35.354 219.615 34.784 220.17 34.784 220.65C34.784 221.145 35.189 221.505 36.239 221.505C37.349 221.505 37.949 221.025 37.949 220.17ZM38.624 213.03L38.609 212.76C39.464 212.49 40.334 212.52 40.949 212.7C41.969 213.015 42.599 213.69 42.599 214.53C42.599 215.01 42.434 215.355 41.954 215.355C41.369 215.355 40.964 214.905 40.139 214.92C39.704 214.935 39.239 215.1 39.014 215.415C38.789 215.745 38.819 216.255 38.909 216.84C38.969 217.275 39.119 218.01 39.254 218.82C40.034 219.015 40.649 219.3 41.144 219.585C42.089 220.08 42.749 220.71 42.749 221.37C42.749 221.955 42.404 222.21 42.059 222.21C41.609 222.21 41.399 221.79 40.814 221.28C40.439 220.935 39.989 220.59 39.434 220.305C39.449 220.485 39.449 220.665 39.449 220.845C39.449 222.18 38.429 222.885 36.704 222.885C35.054 222.885 34.064 222.045 34.064 220.935C34.064 219.72 35.264 218.61 37.454 218.61C37.604 218.61 37.754 218.61 37.904 218.625C37.874 218.145 37.859 217.68 37.859 217.275C37.859 216.33 38.024 215.67 38.474 215.145C39.044 214.455 39.809 214.17 40.274 213.93C40.349 213.795 40.289 213.66 40.139 213.54C39.809 213.255 39.269 213.09 38.624 213.03ZM36.209 237.37C36.464 237.37 36.689 237.355 36.914 237.34C36.734 236.335 36.134 235.69 35.309 235.69C34.739 235.69 34.364 235.975 34.364 236.44C34.364 237.01 35.054 237.37 36.209 237.37ZM32.834 226.675L33.044 226.66C33.299 227.14 33.674 227.575 34.064 227.575C34.604 227.575 36.179 227.2 36.989 226.945C37.574 226.75 37.574 226.525 37.889 226.525C38.594 226.525 39.779 227.47 39.779 228.115C39.779 228.535 39.254 228.655 38.759 229C37.769 229.645 35.924 231.235 35.354 231.835C35.189 232 35.279 232.105 35.429 232.06C35.924 231.895 36.779 231.55 37.934 231.55C39.959 231.55 41.654 232.81 41.639 235.06C41.624 237.07 39.839 238.69 36.749 238.69C34.994 238.69 33.689 237.925 33.689 236.62C33.689 235.63 34.589 234.985 35.699 234.985C36.719 234.985 37.949 235.555 38.309 237.025C39.554 236.515 40.064 235.555 40.079 234.52C40.094 233.2 39.209 232.18 37.484 232.18C35.429 232.18 33.989 233.68 32.714 235.33C32.354 235.795 32.204 235.93 31.829 235.915C31.499 235.9 31.169 235.51 31.199 234.94C31.229 234.535 31.469 234.205 31.964 233.725C33.434 232.285 36.584 229.315 37.364 228.25C37.619 227.92 37.469 227.815 37.229 227.86C36.674 227.95 35.744 228.46 35.174 228.79C34.889 228.97 34.634 229.195 34.319 229.195C33.434 229.195 32.759 228.175 32.714 227.65C32.699 227.305 32.744 227.05 32.834 226.675Z" fill="white"/>
<path d="M47 0.319336L47 238.319" stroke="white" stroke-dasharray="2 2"/>
<path d="M20.4739 67.3193L20.4739 269.319" stroke="white" stroke-dasharray="2 2"/>
<path d="M8.96861 73.9403H8.26361V77.1953H8.96861V73.9403ZM7.15361 78.7703V76.5953C6.89861 76.8503 6.49361 76.8803 6.11861 76.5053C6.14861 75.8003 5.90861 74.9753 5.60861 74.3303V81.6353C5.60861 81.7853 4.93361 82.1153 4.33361 82.1153H4.00361V76.3853C3.55361 77.1803 3.01361 77.9153 2.38361 78.5903L2.18861 78.4253C3.05861 76.7003 3.55361 74.3903 3.79361 72.1853H2.30861L2.18861 71.7503H4.00361V68.0753L6.16361 68.3003C6.11861 68.5103 5.99861 68.6603 5.60861 68.7203V71.7503H5.71361L6.40361 70.6253C6.40361 70.6253 7.21361 71.4053 7.63361 71.9453C7.58861 72.1103 7.43861 72.1853 7.24361 72.1853H5.60861V73.8953C6.40361 74.2853 6.89861 74.7203 7.15361 75.1553V72.9953L8.30861 73.5053H8.84861L9.38861 72.9653L10.5286 73.8203C10.4536 73.8953 10.2886 73.9853 10.1086 74.0153V77.8403C10.0936 77.9453 9.52361 78.1853 9.14861 78.1853H8.96861V77.6153H8.26361V78.3953C8.26361 78.5153 7.76861 78.7703 7.31861 78.7703H7.15361ZM14.0236 81.2303L14.8636 80.1653C14.8636 80.1653 15.8236 80.8853 16.4236 81.4103C16.3786 81.5753 16.2436 81.6503 16.0186 81.6503H6.49361L6.37361 81.2303H14.0236ZM14.2636 73.1003H13.1386C13.3036 74.2103 13.5736 75.1103 13.9636 75.8753C14.1286 74.9753 14.2186 74.0303 14.2636 73.1003ZM14.8786 71.8553L16.3336 73.0553C16.2436 73.2053 16.1086 73.2503 15.7936 73.2953C15.6436 74.6153 15.3886 75.9653 14.8336 77.1803C15.2986 77.7203 15.8386 78.1553 16.4536 78.5153L16.4236 78.6503C15.7786 78.7703 15.2536 79.2203 14.9836 80.0003C14.5786 79.5653 14.2486 79.1003 13.9786 78.5903C13.4986 79.2203 12.8836 79.7903 12.1036 80.2703L11.9686 80.0753C12.6886 79.3553 13.1836 78.4703 13.5286 77.5103C13.1536 76.3703 12.9736 74.9603 12.8686 73.1003H12.4186C12.3286 77.8703 12.1336 79.5053 11.4736 80.1953C11.0386 80.6303 10.4536 80.8253 9.76361 80.8253C9.76361 80.3303 9.73361 79.9703 9.55361 79.7603C9.37361 79.5353 9.02861 79.3853 8.54861 79.2653L8.56361 79.0403C8.96861 79.0853 9.59861 79.1153 9.88361 79.1153C10.1086 79.1153 10.2136 79.0853 10.3486 78.9503C10.7536 78.5753 10.8886 76.5953 10.9636 72.1253H10.0936L9.88361 72.7703C9.52361 72.9803 8.86361 72.9953 8.18861 72.7703C8.51861 72.0503 8.96861 70.6253 9.17861 69.7103H6.92861L6.80861 69.2903H13.9336L14.7886 68.1503C14.7886 68.1503 15.7486 68.9303 16.3336 69.4703C16.3036 69.6353 16.1386 69.7103 15.9286 69.7103H10.8136C10.6636 70.2953 10.4386 71.0453 10.2286 71.7053H10.7986L11.5936 70.8803L13.0486 72.1103C12.9286 72.2303 12.7486 72.3203 12.4336 72.3803V72.6803H14.1286L14.8786 71.8553ZM13.2586 97.8853L14.3536 96.4903C14.3536 96.4903 15.5686 97.4353 16.3186 98.0653C16.2736 98.2303 16.1086 98.3053 15.8836 98.3053H2.33861L2.21861 97.8853H7.79861V85.2403L10.2886 85.4803C10.2436 85.6903 10.1386 85.8403 9.73361 85.9003V90.9253H12.1936L13.2736 89.5453C13.2736 89.5453 14.4736 90.4603 15.1936 91.1053C15.1486 91.2703 14.9986 91.3453 14.7886 91.3453H9.73361V97.8853H13.2586ZM2.69861 116.115L2.63861 115.905C4.52861 115.35 6.62861 114.24 7.61861 113.355L9.46361 114.705C9.31361 114.855 9.02861 114.9 8.57861 114.78C7.18361 115.425 4.84361 115.95 2.69861 116.115ZM9.88361 113.985L9.92861 113.79C18.3286 113.865 15.1936 117 13.6036 115.815C12.9136 115.245 11.6686 114.495 9.88361 113.985ZM6.67361 112.68H12.0736V111.435H6.67361V112.68ZM12.0736 109.785H6.67361V111H12.0736V109.785ZM12.0736 108.18H6.67361V109.365H12.0736V108.18ZM13.8886 104.55L14.7136 103.545C14.7136 103.545 15.6136 104.235 16.1836 104.745C16.1536 104.91 15.9886 104.985 15.7786 104.985H13.9486V106.845C13.9336 106.89 13.6186 107.085 13.0636 107.16L14.3836 108.15C14.2936 108.255 14.1136 108.375 13.8436 108.435V113.28C13.8286 113.385 12.9436 113.715 12.3736 113.715H12.0736V113.085H6.67361V113.49C6.67361 113.655 5.92361 114.045 5.20361 114.045H4.94861V107.025L6.79361 107.76H11.9236L12.4636 107.19H12.3136V104.985H11.2186C11.0686 105.87 10.4686 106.92 8.42861 107.52L8.32361 107.325C9.40361 106.56 9.67361 105.63 9.71861 104.79C9.65861 104.925 9.52361 104.985 9.32861 104.985H7.81361V106.89C7.79861 106.965 7.33361 107.235 6.52361 107.235H6.23861V104.985H5.09861C4.99361 105.975 4.49861 107.235 2.45861 107.955L2.33861 107.76C3.49361 106.77 3.59861 105.51 3.59861 104.49V102.69L5.29361 103.185C6.25361 102.81 7.27361 102.345 7.85861 102.015L9.22361 103.41C9.04361 103.545 8.75861 103.53 8.36861 103.365C7.55861 103.485 6.29861 103.62 5.12861 103.665V104.49V104.55H7.54361L8.32361 103.605C8.32361 103.605 9.17861 104.25 9.71861 104.73C9.73361 104.595 9.73361 104.475 9.73361 104.34V102.675L11.3086 103.11C12.3286 102.765 13.3936 102.315 14.0086 102.015L15.3886 103.425C15.2086 103.575 14.8936 103.56 14.5336 103.38C13.6936 103.5 12.4486 103.605 11.2786 103.665V104.34V104.55H13.8886ZM12.0886 119.12L12.2236 119.045C15.4636 119.39 13.9486 121.595 12.7636 120.605C12.7036 120.065 12.3886 119.48 12.0886 119.12ZM4.73861 128.72H4.93361C5.57861 130.64 4.91861 131.93 4.07861 132.365C3.53861 132.665 2.78861 132.515 2.59361 131.9C2.41361 131.33 2.77361 130.895 3.28361 130.67C3.91361 130.385 4.67861 129.635 4.73861 128.72ZM9.97361 128.015L9.82361 127.85C10.4836 127.355 11.1136 126.74 11.6686 125.99C11.1286 125.15 10.7536 124.22 10.4836 123.23C10.4386 123.245 10.3936 123.245 10.3486 123.245H5.45861L5.33861 122.81H8.24861L9.14861 121.685C9.14861 121.685 9.76361 122.15 10.3336 122.63C10.2436 122.225 10.1686 121.82 10.1236 121.4H5.08361V123.215C5.08361 125.06 4.87361 127.775 2.30861 129.47L2.17361 129.335C3.37361 127.49 3.46361 125.18 3.46361 123.215V120.29L5.33861 120.965H10.0636C9.98861 120.32 9.95861 119.675 9.94361 119L12.1336 119.18C12.1036 119.36 11.9836 119.525 11.6386 119.585C11.6536 120.05 11.6686 120.5 11.7136 120.965H14.2336L14.9686 119.795C14.9686 119.795 15.8086 120.62 16.2586 121.16C16.2286 121.325 16.0786 121.4 15.8686 121.4H11.7736C11.9236 122.465 12.1936 123.5 12.6736 124.415C13.0636 123.65 13.3936 122.795 13.6186 121.88L15.7636 122.66C15.6886 122.84 15.4936 122.96 15.1486 122.93C14.6836 124.01 14.1286 124.91 13.4686 125.63C13.8136 126.035 14.2036 126.395 14.6686 126.695C14.8636 126.845 14.9836 126.845 15.1186 126.65C15.3136 126.32 15.6436 125.675 15.8686 125.12L16.0336 125.165L15.7786 127.16C16.3036 127.85 16.3636 128.195 16.1536 128.48C15.6436 129.155 14.4886 128.705 13.8136 128.24C13.1986 127.805 12.6886 127.31 12.2386 126.77C11.5486 127.295 10.7836 127.7 9.97361 128.015ZM8.03861 128.135L8.15861 128.015C12.3886 128.09 11.5036 131.225 9.88361 130.385C9.58361 129.575 8.75861 128.66 8.03861 128.135ZM8.47361 124.745H7.07861V126.41H8.47361V124.745ZM7.07861 126.845V127.28C7.07861 127.4 6.38861 127.745 5.75861 127.745H5.54861V123.695L7.13861 124.325H8.33861L9.04361 123.575L10.5586 124.685C10.4836 124.79 10.2886 124.91 10.0486 124.955V127.04C10.0336 127.145 9.23861 127.43 8.74361 127.43H8.47361V126.845H7.07861ZM12.5686 129.53L12.6136 131.15C13.0936 131.33 13.2136 131.525 13.2136 131.825C13.2136 132.56 12.5386 132.86 9.82361 132.86H8.05361C6.47861 132.86 6.14861 132.575 6.14861 131.435V128.54L8.29361 128.72C8.26361 128.915 8.12861 129.035 7.82861 129.08V131.06C7.82861 131.255 7.88861 131.315 8.39861 131.315H10.0186C10.5886 131.315 11.1136 131.315 11.3236 131.3C11.5486 131.285 11.6236 131.255 11.7286 131.105C11.8936 130.88 12.1036 130.325 12.4036 129.53H12.5686ZM12.5686 128.825L12.7036 128.72C17.6836 129.695 16.3636 133.34 14.5786 132.125C14.3236 130.955 13.4236 129.665 12.5686 128.825ZM8.68361 140.11C8.68361 139.63 8.47361 139.18 8.21861 138.82C7.25861 139.105 6.31361 139.66 5.59361 140.425C4.72361 141.385 4.24361 142.39 4.24361 143.62C4.24361 144.805 4.75361 145.9 5.38361 145.9C6.20861 145.9 7.54361 143.845 8.00861 142.825C8.41361 141.955 8.68361 140.905 8.68361 140.11ZM8.54861 149.05L8.48861 148.78C12.2836 147.865 13.6936 145.78 13.6936 143.185C13.6936 140.425 11.9386 138.64 9.49361 138.64C9.29861 138.64 9.10361 138.655 8.90861 138.685C9.35861 139.15 9.89861 139.9 9.89861 140.605C9.89861 141.37 9.76361 142.375 9.40361 143.29C8.72861 145.195 7.06361 147.91 5.21861 147.91C4.00361 147.91 2.89361 146.08 2.89361 144.115C2.89361 142.72 3.58361 140.92 5.11361 139.645C6.31361 138.595 7.82861 138.04 9.67361 138.04C13.1236 138.04 15.5836 140.455 15.5836 143.59C15.5836 146.425 13.5886 148.855 8.54861 149.05ZM4.82861 155.55L5.06861 155.46C5.41361 155.88 5.83361 156.315 6.34361 156.315C7.39361 156.315 10.0036 155.82 10.7236 155.64C11.0836 155.565 11.3536 155.115 11.6686 155.115C12.3136 155.115 13.6936 156.285 13.6936 156.78C13.6936 157.2 12.9736 157.44 12.8086 157.695C12.2836 158.43 11.5186 159.72 10.5436 160.8C13.0036 161.535 15.2086 162.96 15.2086 164.64C15.2086 165.105 14.8636 165.63 14.2636 165.63C13.6636 165.63 13.2736 165.18 12.7786 164.385C12.1036 163.245 11.5186 162.165 10.1236 161.235C8.74361 162.645 6.41861 164.745 2.74361 165.87L2.56361 165.57C6.10361 163.74 9.79361 159.9 11.0086 156.96C11.0986 156.75 11.0086 156.675 10.8436 156.69C10.2586 156.735 8.35361 157.305 7.60361 157.56C7.09361 157.74 6.92861 158.1 6.49361 158.1C5.81861 158.1 5.11361 157.215 4.93361 156.66C4.82861 156.345 4.79861 155.97 4.82861 155.55ZM7.61861 171.755L7.60361 171.53C7.93361 171.32 8.54861 170.93 8.99861 170.93C9.89861 170.93 11.0536 171.605 11.0536 172.085C11.0536 172.475 10.7536 172.52 10.6936 173.12C10.6486 173.645 10.6336 174.245 10.6036 174.815C13.2736 174.455 13.4386 174.23 13.7536 174.23C14.3536 174.23 15.7486 174.785 15.7486 175.4C15.7486 175.925 15.4036 176.09 14.9986 176.09C14.3686 176.09 12.8386 175.895 10.5136 176.03C10.1986 179.825 8.51861 182.285 4.81361 183.665L4.61861 183.395C7.24361 181.67 8.62361 179.285 8.83361 176.195C7.78361 176.345 6.64361 176.615 6.04361 176.78C5.59361 176.915 5.24861 177.2 4.78361 177.215C4.25861 177.215 3.28361 176.33 3.08861 175.805C3.01361 175.61 2.96861 175.34 2.95361 174.95L3.14861 174.86C3.52361 175.25 3.82361 175.535 4.34861 175.535C4.94861 175.535 7.15361 175.265 8.87861 175.04C8.89361 174.11 8.89361 173.03 8.78861 172.475C8.72861 172.07 8.11361 171.89 7.61861 171.755ZM10.2436 191.5C10.0636 191.08 9.70361 190.405 9.46361 190.15L9.59861 189.985C10.0486 190.135 10.3936 190.24 10.8136 190.495C11.5336 190.9 11.9836 191.47 11.9836 192.235C11.9836 192.745 11.5786 193.015 11.2036 193.015C10.5136 193.015 10.5886 192.37 10.2436 191.5ZM15.3286 192.325C14.0836 194.905 11.4886 197.545 7.73861 198.505L7.61861 198.31C11.1886 196.555 13.9936 192.49 13.9936 190.96C13.9936 190.69 13.7236 190.45 13.2736 190.24L13.3036 190.06C13.5286 190.015 13.8736 189.94 14.1436 189.955C14.8936 189.955 15.8836 190.855 15.8836 191.44C15.8836 191.725 15.4936 191.98 15.3286 192.325ZM7.72361 192.4C7.45361 191.785 7.19861 191.32 6.92861 190.99L7.06361 190.81C7.51361 190.945 7.93361 191.17 8.20361 191.32C9.02861 191.785 9.52361 192.46 9.52361 193.18C9.52361 193.6 9.26861 193.93 8.74361 193.93C8.11361 193.93 8.05361 193.21 7.72361 192.4ZM15.0436 207.39C14.1136 207.39 13.3786 206.64 13.3786 205.725C13.3786 204.795 14.1136 204.06 15.0436 204.06C15.9586 204.06 16.6936 204.795 16.6936 205.725C16.6936 206.64 15.9586 207.39 15.0436 207.39ZM15.0436 204.69C14.4586 204.69 13.9936 205.14 13.9936 205.725C13.9936 206.31 14.4586 206.76 15.0436 206.76C15.6136 206.76 16.0786 206.31 16.0786 205.725C16.0786 205.14 15.6136 204.69 15.0436 204.69ZM3.97361 206.595C4.37861 207.015 4.75361 207.39 5.32361 207.39C6.52361 207.39 10.2736 206.985 11.0836 206.805C11.7136 206.67 11.7436 206.43 12.1636 206.43C12.8686 206.43 14.4586 207.825 14.4586 208.365C14.4586 208.875 13.9036 209.04 13.6636 209.52C11.8486 213.18 9.10361 216.015 4.21361 217.575L4.04861 217.29C8.14361 215.145 11.1136 211.44 11.8486 208.14C11.8786 208.02 11.8186 207.975 11.7136 207.975C10.6936 207.975 7.40861 208.68 6.55361 208.905C6.20861 208.995 5.83361 209.295 5.48861 209.295C4.81361 209.295 3.98861 208.305 3.83861 207.735C3.74861 207.36 3.74861 207.075 3.74861 206.685L3.97361 206.595ZM10.3786 225.38L12.1336 225.17C12.5536 225.14 12.7786 224.69 13.1086 224.69C13.5736 224.69 14.8936 225.725 14.8936 226.22C14.8936 226.64 14.3386 226.64 14.2636 227.21C14.0686 228.5 13.6486 230.72 12.8386 232.355C12.4036 233.21 11.4886 234.02 10.6036 234.02C10.1236 234.02 9.98861 233.825 9.85361 233.315C9.71861 232.805 9.38861 232.475 8.42861 231.62L8.56361 231.395C9.44861 231.725 10.1836 231.905 10.5436 231.935C10.9186 231.98 11.0686 231.92 11.2636 231.68C12.1036 230.555 12.6436 227.465 12.6436 226.505C12.6436 226.37 12.5836 226.325 12.4786 226.325C11.8636 226.325 10.9036 226.46 10.0186 226.595C9.40361 228.59 7.91861 232.52 3.10361 234.605L2.90861 234.35C6.10361 231.95 7.42361 229.205 8.17361 226.91C7.55861 227.015 6.86861 227.165 6.46361 227.3C5.99861 227.435 5.71361 227.675 5.33861 227.675C4.85861 227.675 4.10861 226.805 3.91361 226.28C3.76361 225.935 3.79361 225.59 3.88361 225.14L4.09361 225.08C4.42361 225.545 4.70861 225.92 5.23361 225.92C5.59361 225.92 7.01861 225.77 8.54861 225.59C8.74361 224.81 8.92361 223.925 8.92361 223.52C8.93861 223.19 8.89361 223.055 8.68361 222.92C8.42861 222.74 8.08361 222.605 7.78361 222.485L7.76861 222.275C8.11361 222.11 8.62361 221.855 9.04361 221.855C9.88361 221.855 11.2486 222.65 11.2486 223.16C11.2486 223.625 10.8286 223.625 10.6636 224.255C10.5886 224.54 10.4986 224.915 10.3786 225.38ZM7.12361 239.71V239.515C7.45361 239.365 8.00861 239.17 8.51861 239.17C9.40361 239.17 10.6786 239.995 10.6786 240.52C10.6786 240.94 10.3786 241.255 10.2886 241.795C10.1986 242.335 10.1686 243.64 10.1686 244.69C10.1686 245.59 10.2286 249.19 10.2286 250.12C10.2286 250.81 10.0036 251.26 9.26861 251.26C8.48861 251.26 8.17361 250.27 8.17361 249.43C8.17361 249.025 8.30861 248.365 8.36861 247.66C8.44361 246.715 8.47361 245.2 8.47361 244.315C8.47361 243.07 8.45861 241.6 8.38361 240.835C8.32361 240.16 7.81361 239.95 7.12361 239.71ZM5.38361 256.995L5.53361 256.86C6.14861 257.235 6.68861 257.295 7.16861 257.295C8.27861 257.295 9.43361 256.995 10.0486 256.83C10.7986 256.635 11.0086 256.425 11.2186 256.425C12.2236 256.425 12.8686 256.755 12.8686 257.34C12.8686 257.655 12.7186 257.85 12.2386 257.955C11.0386 258.24 8.60861 258.63 7.34861 258.63C6.40361 258.63 5.92361 258.075 5.38361 256.995ZM3.26861 260.205L3.46361 260.13C3.83861 260.49 4.10861 260.76 4.58861 260.76C5.59361 260.76 10.0186 260.1 12.0286 259.875C13.0336 259.755 13.3486 259.575 13.4986 259.575C14.4586 259.575 15.4786 260.07 15.4786 260.685C15.4786 261.195 15.2386 261.315 14.8336 261.315C14.5036 261.315 13.7386 261.15 12.8686 261.15C12.1936 261.15 11.2486 261.195 10.2436 261.285C10.7836 261.63 11.1586 261.945 11.1586 262.275C11.1586 262.65 10.7686 262.815 10.4236 263.565C9.65861 265.275 8.15861 267.54 4.78361 268.965L4.55861 268.695C7.81361 266.445 8.96861 263.145 8.96861 261.96C8.96861 261.795 8.93861 261.63 8.84861 261.45C7.85861 261.6 6.79361 261.84 6.29861 262.005C5.80361 262.155 5.24861 262.425 4.81361 262.425C4.30361 262.44 3.53861 261.72 3.37361 261.195C3.26861 260.925 3.23861 260.565 3.26861 260.205ZM13.1236 257.07L13.2586 256.875C14.0086 257.085 14.6836 257.355 15.1036 257.715C15.4186 257.985 15.5536 258.225 15.5386 258.54C15.5386 258.825 15.3136 259.065 15.0286 259.065C14.7586 259.05 14.6386 258.87 14.3986 258.525C14.1136 258.15 13.7836 257.61 13.1236 257.07ZM14.2636 255.855L14.3986 255.645C15.1786 255.84 15.7486 256.05 16.1386 256.32C16.5136 256.575 16.6936 256.875 16.6936 257.205C16.6936 257.49 16.5586 257.76 16.2136 257.76C15.9136 257.76 15.7936 257.55 15.5236 257.19C15.2236 256.8 14.8936 256.32 14.2636 255.855Z" fill="white"/>
</svg>
