<svg width="325" height="98" viewBox="0 0 325 98" fill="none" xmlns="http://www.w3.org/2000/svg">
<path d="M203.36 44.7853C203.36 45.847 203.638 46.8075 204.195 47.667C204.801 48.4759 205.56 49.2342 206.47 49.942C207.38 50.5992 208.365 51.2564 209.427 51.9136C210.691 52.6214 211.93 53.3797 213.143 54.1886C214.356 54.947 215.367 55.8822 216.176 56.9945C216.985 58.1067 217.39 59.5475 217.39 61.317C217.39 62.9347 216.96 64.5272 216.1 66.0945C215.291 67.6111 214.053 68.8497 212.385 69.8103C210.716 70.7709 208.618 71.2511 206.09 71.2511C204.826 71.2511 203.563 71.0995 202.299 70.7961C201.035 70.5434 199.67 70.0125 198.204 69.2036C198.103 69.1025 198.001 68.9761 197.9 68.8245C197.799 68.6728 197.749 68.4959 197.749 68.2936L197.597 60.7861C197.597 60.6345 197.723 60.5586 197.976 60.5586C198.28 60.5081 198.456 60.5334 198.507 60.6345C199.063 62.2522 199.847 63.7689 200.858 65.1845C201.869 66.5495 203.006 67.6617 204.27 68.5211C205.585 69.33 206.899 69.7345 208.214 69.7345C209.225 69.7345 210.059 69.4311 210.716 68.8245C211.373 68.1672 211.702 67.1814 211.702 65.867C211.702 64.4514 211.373 63.2886 210.716 62.3786C210.11 61.4181 209.326 60.6092 208.365 59.952C207.405 59.2442 206.419 58.6122 205.408 58.0561C204.245 57.3989 203.082 56.7164 201.92 56.0086C200.757 55.3009 199.796 54.4161 199.038 53.3545C198.28 52.2422 197.9 50.8014 197.9 49.032C197.9 46.9086 198.431 45.215 199.493 43.9511C200.555 42.6872 201.92 41.7772 203.588 41.2211C205.307 40.665 207.076 40.387 208.896 40.387C210.008 40.387 211.02 40.4628 211.93 40.6145C212.89 40.7661 213.977 41.0695 215.19 41.5245C215.645 41.6761 215.873 41.9542 215.873 42.3586C215.873 43.3697 215.848 44.4314 215.797 45.5436C215.746 46.6053 215.721 47.7934 215.721 49.1078C215.721 49.2595 215.57 49.3353 215.266 49.3353C214.963 49.3353 214.811 49.2595 214.811 49.1078C214.811 48.1472 214.407 47.1109 213.598 45.9986C212.84 44.8864 211.828 43.9259 210.565 43.117C209.301 42.2575 207.936 41.8278 206.47 41.8278C205.762 41.8278 205.054 42.0047 204.346 42.3586C203.689 42.7125 203.36 43.5214 203.36 44.7853Z" fill="#E35E8D"/>
<path d="M179.945 71.3266C176.456 71.3266 173.575 70.5935 171.3 69.1274C169.025 67.6107 167.331 65.6896 166.219 63.3641C165.157 61.0385 164.626 58.6877 164.626 56.3116C164.626 53.7838 165.157 51.5341 166.219 49.5624C167.281 47.5907 168.671 45.9477 170.39 44.6332C172.159 43.2682 174.106 42.2318 176.229 41.5241C178.352 40.8163 180.45 40.4624 182.523 40.4624C183.989 40.4624 185.455 40.6899 186.921 41.1449C188.388 41.5493 189.601 42.1813 190.561 43.0407C191.522 43.8496 192.002 44.886 192.002 46.1499C192.002 47.0093 191.648 47.8182 190.941 48.5766C190.233 49.2843 189.196 49.6382 187.831 49.6382C186.568 49.6382 185.582 49.3096 184.874 48.6524C184.166 47.9952 183.61 47.0346 183.206 45.7707C182.852 44.5574 182.447 43.6474 181.992 43.0407C181.588 42.3835 180.779 42.0549 179.566 42.0549C177.392 42.0549 175.648 43.1418 174.333 45.3157C173.069 47.4896 172.437 50.3207 172.437 53.8091C172.437 56.3368 172.816 58.6624 173.575 60.7857C174.333 62.8585 175.572 64.5268 177.291 65.7907C179.01 67.0041 181.31 67.6107 184.191 67.6107C185.708 67.6107 186.972 67.4338 187.983 67.0799C189.045 66.726 190.208 66.2457 191.471 65.6391C191.573 65.538 191.699 65.5885 191.851 65.7907C192.053 65.993 192.103 66.1446 192.002 66.2457C190.233 67.8635 188.413 69.1274 186.542 70.0374C184.672 70.8969 182.473 71.3266 179.945 71.3266Z" fill="#E35E8D"/>
<path d="M145.237 70.4167C145.085 70.4167 145.01 70.2651 145.01 69.9618C145.01 69.6584 145.085 69.5067 145.237 69.5067C146.804 69.5067 147.866 69.1529 148.422 68.4451C148.978 67.6867 149.256 66.2965 149.256 64.2743V50.7001C149.256 49.0317 149.079 47.8184 148.725 47.0601C148.422 46.2512 147.841 45.8467 146.981 45.8467C146.627 45.8467 146.198 45.9226 145.692 46.0742C145.237 46.2259 144.732 46.4281 144.175 46.6809C143.973 46.7315 143.796 46.6051 143.645 46.3017C143.544 45.9984 143.569 45.8215 143.72 45.7709L155.171 40.4626C155.272 40.412 155.348 40.3867 155.399 40.3867C155.652 40.3867 155.904 40.5131 156.157 40.7659C156.41 41.0187 156.536 41.2462 156.536 41.4484C156.536 42.0551 156.511 43.0662 156.46 44.4817C156.41 45.8973 156.385 47.9195 156.385 50.5484V64.2743C156.385 66.2965 156.663 67.6867 157.219 68.4451C157.825 69.1529 158.912 69.5067 160.48 69.5067C160.631 69.5067 160.707 69.6584 160.707 69.9618C160.707 70.2651 160.631 70.4167 160.48 70.4167C159.469 70.4167 158.306 70.3915 156.991 70.3409C155.677 70.2904 154.287 70.2651 152.82 70.2651C151.405 70.2651 150.04 70.2904 148.725 70.3409C147.411 70.3915 146.248 70.4167 145.237 70.4167ZM152.517 32.8792C151.102 32.8792 149.964 32.4748 149.105 31.6659C148.296 30.857 147.891 29.7195 147.891 28.2534C147.891 26.939 148.296 25.9026 149.105 25.1442C149.964 24.3354 151.102 23.9309 152.517 23.9309C153.933 23.9309 155.02 24.3354 155.778 25.1442C156.536 25.9026 156.915 26.939 156.915 28.2534C156.915 31.3373 155.449 32.8792 152.517 32.8792Z" fill="#E35E8D"/>
<path d="M105.369 91.2713C105.217 91.2713 105.141 91.1197 105.141 90.8163C105.141 90.513 105.217 90.3613 105.369 90.3613C107.138 90.3613 108.275 90.0327 108.781 89.3755C109.337 88.7183 109.615 87.3027 109.615 85.1288V50.018C109.615 48.4508 109.438 47.3133 109.084 46.6055C108.73 45.8472 108.099 45.468 107.189 45.468C106.784 45.468 106.279 45.5691 105.672 45.7713C105.065 45.923 104.408 46.1758 103.7 46.5297C103.498 46.6308 103.321 46.5297 103.169 46.2263C103.018 45.923 102.992 45.7461 103.094 45.6955L113.862 40.463C113.963 40.4124 114.089 40.3872 114.241 40.3872C114.797 40.3872 115.328 40.9938 115.833 42.2072C116.39 43.4205 116.668 45.1647 116.668 47.4397V85.1288C116.668 86.5444 116.819 87.6313 117.123 88.3897C117.477 89.148 118.134 89.6536 119.094 89.9063C120.055 90.2097 121.496 90.3613 123.417 90.3613C123.568 90.3613 123.644 90.513 123.644 90.8163C123.644 91.1197 123.568 91.2713 123.417 91.2713C122.001 91.2713 120.409 91.2461 118.639 91.1955C116.87 91.1449 114.999 91.1197 113.028 91.1197C111.612 91.1197 110.222 91.1449 108.857 91.1955C107.542 91.2461 106.38 91.2713 105.369 91.2713ZM123.189 71.403C121.218 71.403 119.524 71.2513 118.108 70.948C116.743 70.6447 115.1 70.1644 113.179 69.5072L115.833 64.7297C116.946 66.0947 118.134 67.2322 119.398 68.1422C120.712 69.0522 122.456 69.5072 124.63 69.5072C127.006 69.5072 128.877 68.4708 130.242 66.398C131.607 64.3252 132.289 61.0138 132.289 56.4638C132.289 52.4194 131.354 49.4113 129.484 47.4397C127.613 45.4174 125.414 44.4063 122.886 44.4063C121.015 44.4063 119.398 44.8866 118.033 45.8472C116.668 46.8077 115.328 48.0211 114.013 49.4872L113.255 48.5772C115.834 45.5944 118.285 43.4458 120.611 42.1313C122.987 40.8169 125.414 40.1597 127.891 40.1597C130.014 40.1597 131.986 40.7158 133.806 41.828C135.626 42.8897 137.092 44.4569 138.204 46.5297C139.367 48.6024 139.949 51.1302 139.949 54.113C139.949 57.3486 139.418 60.0786 138.356 62.303C137.345 64.5274 136.005 66.3222 134.337 67.6872C132.669 69.0016 130.849 69.9369 128.877 70.493C126.956 71.0997 125.06 71.403 123.189 71.403Z" fill="#E35E8D"/>
<path d="M84.2696 71.403C81.0846 71.403 78.3293 70.67 76.0038 69.2038C73.6782 67.7377 71.8835 65.7913 70.6196 63.3647C69.3557 60.8874 68.7238 58.2333 68.7238 55.4022C68.7238 52.7733 69.2293 50.4983 70.2404 48.5772C71.2515 46.6561 72.5913 45.0888 74.2596 43.8755C75.9279 42.6116 77.7479 41.6763 79.7196 41.0697C81.6913 40.463 83.6376 40.1597 85.5588 40.1597C88.7943 40.1597 91.5496 40.918 93.8246 42.4347C96.1501 43.9513 97.9196 45.8977 99.1329 48.2738C100.346 50.6499 100.953 53.1777 100.953 55.8572C100.953 58.9411 100.169 61.6711 98.6021 64.0472C97.0854 66.3727 95.0632 68.1927 92.5354 69.5072C90.0076 70.7711 87.2524 71.403 84.2696 71.403ZM86.5446 69.8105C88.5668 69.8105 90.0835 68.8247 91.0946 66.853C92.1057 64.8813 92.6113 62.1008 92.6113 58.5113C92.6113 54.8208 92.131 51.7369 91.1704 49.2597C90.2604 46.7824 89.0724 44.9119 87.6063 43.648C86.1401 42.3841 84.5982 41.7522 82.9804 41.7522C81.0088 41.7522 79.4921 42.6369 78.4304 44.4063C77.4193 46.1758 76.9138 48.9058 76.9138 52.5963C76.9138 56.0341 77.3435 59.0675 78.2029 61.6963C79.0624 64.2747 80.2251 66.2716 81.6913 67.6872C83.1574 69.1027 84.7751 69.8105 86.5446 69.8105Z" fill="#E35E8D"/>
<path d="M40.6205 24.7651C37.5366 24.7651 34.9077 25.8015 32.7338 27.8743C30.6105 29.8965 28.9169 32.7782 27.653 36.5193C27.6025 36.6709 27.4508 36.7468 27.198 36.7468C26.9452 36.6962 26.8188 36.5951 26.8188 36.4434C26.92 35.7357 27.0211 34.7498 27.1222 33.4859C27.2233 32.1715 27.3244 30.7559 27.4255 29.2393C27.5772 27.7226 27.6783 26.2565 27.7288 24.8409C27.83 23.4254 27.8805 22.2626 27.8805 21.3526C27.8805 21.0998 28.0069 20.9734 28.2597 20.9734C28.563 20.9734 28.7147 21.0998 28.7147 21.3526C28.7147 21.8582 28.9675 22.2373 29.473 22.4901C30.0291 22.6923 30.6358 22.844 31.293 22.9451C32.0008 22.9957 32.5822 23.0209 33.0372 23.0209C37.385 23.1726 42.4658 23.2484 48.2797 23.2484C51.8186 23.2484 54.6497 23.2232 56.773 23.1726C58.8964 23.0715 60.9438 23.0209 62.9155 23.0209C64.7355 23.0209 66.1005 22.9198 67.0105 22.7176C67.9711 22.4648 68.5777 21.934 68.8305 21.1251C68.8811 20.9229 69.0327 20.8218 69.2855 20.8218C69.5888 20.8218 69.7405 20.9229 69.7405 21.1251C69.6394 21.934 69.5383 23.0715 69.4372 24.5376C69.3866 25.9532 69.3108 27.4698 69.2097 29.0876C69.1591 30.6548 69.1086 32.1209 69.058 33.4859C69.0075 34.8004 68.9822 35.7862 68.9822 36.4434C68.9822 36.5951 68.8558 36.6709 68.603 36.6709C68.3502 36.6709 68.1986 36.5951 68.148 36.4434C67.3897 32.4496 65.9489 29.5173 63.8255 27.6468C61.7527 25.7257 59.225 24.7651 56.2422 24.7651C55.2311 24.7651 54.4475 24.9168 53.8913 25.2201C53.3858 25.4729 53.0319 25.9279 52.8297 26.5851C52.678 27.2423 52.6022 28.1523 52.6022 29.3151V64.2743C52.6022 65.7404 52.7538 66.8526 53.0572 67.6109C53.3605 68.3693 53.9419 68.8748 54.8013 69.1276C55.7113 69.3804 57.0763 69.5068 58.8963 69.5068C59.048 69.5068 59.1238 69.6584 59.1238 69.9618C59.1238 70.2651 59.048 70.4168 58.8963 70.4168C57.4808 70.4168 55.8883 70.3915 54.1188 70.3409C52.3494 70.2904 50.403 70.2651 48.2797 70.2651C46.2575 70.2651 44.3616 70.2904 42.5922 70.3409C40.8227 70.3915 39.205 70.4168 37.7388 70.4168C37.5872 70.4168 37.5113 70.2651 37.5113 69.9618C37.5113 69.6584 37.5872 69.5068 37.7388 69.5068C39.5083 69.5068 40.848 69.3804 41.758 69.1276C42.668 68.8748 43.2747 68.3693 43.578 67.6109C43.9319 66.8526 44.1088 65.7404 44.1088 64.2743V29.1634C44.1088 28.0512 44.0077 27.1918 43.8055 26.5851C43.6538 25.9279 43.3252 25.4729 42.8197 25.2201C42.3141 24.9168 41.5811 24.7651 40.6205 24.7651Z" fill="#E35E8D"/>
<path d="M287.247 14.6465V59.8865C287.247 64.6532 288.894 65.4332 293.141 65.4332H307.441V75.8332H237.154V65.4332H252.321C256.567 65.4332 258.127 64.6532 258.127 59.8865V39.7798C258.127 35.0132 256.567 34.2332 252.321 34.2332H238.887V23.8332H246.687C258.561 23.8332 264.281 22.0131 269.047 14.6465H287.247Z" fill="#E35E8D"/>
</svg>
