<svg width="200" height="67" viewBox="0 0 200 67" fill="none" xmlns="http://www.w3.org/2000/svg">
<path d="M47.8964 27.5938C39.3347 27.5938 32.3868 34.5416 32.3868 43.1033C32.3868 51.6651 39.3347 58.6129 47.8964 58.6129H183.133C191.695 58.6129 198.642 51.6651 198.642 43.1033C198.642 34.5416 191.695 27.5938 183.133 27.5938H47.8964Z" fill="white"/>
<path d="M47.8964 27.5938C39.3347 27.5938 32.3868 34.5416 32.3868 43.1033C32.3868 51.6651 39.3347 58.6129 47.8964 58.6129H183.133C191.695 58.6129 198.642 51.6651 198.642 43.1033C198.642 34.5416 191.695 27.5938 183.133 27.5938H47.8964Z" stroke="#040000" stroke-width="1.12189" stroke-linecap="round" stroke-linejoin="round"/>
<path d="M161.266 57.021C161.266 57.021 165.793 63.3784 158.747 66.3504C158.747 66.3504 168.785 67.2755 168.785 56.8242" fill="white"/>
<path d="M51.7133 38.264C51.918 38.2826 52.1226 38.3012 52.3273 38.3198C52.5413 38.3384 52.7599 38.3477 52.9832 38.3477C53.1413 38.3477 53.3832 38.3477 53.7088 38.3477C54.0344 38.3477 54.3972 38.3477 54.7973 38.3477C55.2066 38.3477 55.6113 38.3477 56.0113 38.3477C56.4114 38.3477 56.7695 38.3477 57.0858 38.3477C57.4115 38.3477 57.6533 38.3477 57.8115 38.3477C58.0069 38.3477 58.2208 38.3431 58.4534 38.3337C58.6953 38.3151 58.9139 38.2919 59.1093 38.264V39.4222C58.9046 39.4036 58.686 39.3943 58.4534 39.3943C58.2301 39.385 58.0162 39.3803 57.8115 39.3803C57.6533 39.3803 57.4115 39.3803 57.0858 39.3803C56.7695 39.3803 56.4114 39.3803 56.0113 39.3803C55.6113 39.3803 55.2113 39.3803 54.8112 39.3803C54.4112 39.3803 54.0484 39.3803 53.7228 39.3803C53.3972 39.3803 53.1553 39.3803 52.9971 39.3803C52.7645 39.3803 52.5366 39.385 52.3133 39.3943C52.0994 39.3943 51.8994 39.4036 51.7133 39.4222V38.264ZM50.0666 41.7666C50.2527 41.7852 50.4434 41.8038 50.6388 41.8224C50.8435 41.8317 51.0528 41.8364 51.2667 41.8364C51.3877 41.8364 51.6249 41.8364 51.9784 41.8364C52.3413 41.8364 52.7785 41.8364 53.2902 41.8364C53.8111 41.8364 54.3693 41.8364 54.9647 41.8364C55.5601 41.8364 56.1555 41.8364 56.7509 41.8364C57.3463 41.8364 57.8999 41.8364 58.4115 41.8364C58.9325 41.8364 59.3698 41.8364 59.7233 41.8364C60.0768 41.8364 60.3047 41.8364 60.4071 41.8364C60.5559 41.8364 60.7327 41.8317 60.9373 41.8224C61.142 41.8131 61.3281 41.7945 61.4955 41.7666V42.9248C61.3467 42.9155 61.1699 42.9109 60.9652 42.9109C60.7699 42.9016 60.5838 42.8969 60.4071 42.8969C60.3047 42.8969 60.0768 42.8969 59.7233 42.8969C59.3698 42.8969 58.9325 42.8969 58.4115 42.8969C57.8999 42.8969 57.3463 42.8969 56.7509 42.8969C56.1555 42.8969 55.5601 42.8969 54.9647 42.8969C54.3693 42.8969 53.8111 42.8969 53.2902 42.8969C52.7785 42.8969 52.3413 42.8969 51.9784 42.8969C51.6249 42.8969 51.3877 42.8969 51.2667 42.8969C51.0621 42.8969 50.8574 42.8969 50.6527 42.8969C50.4481 42.8969 50.2527 42.9062 50.0666 42.9248V41.7666ZM56.6253 42.3387C56.6253 43.2132 56.5602 44.018 56.43 44.7529C56.309 45.4785 56.0951 46.1344 55.7881 46.7205C55.6206 47.0275 55.3927 47.3392 55.1043 47.6555C54.8252 47.9625 54.5089 48.2555 54.1554 48.5346C53.8111 48.8137 53.439 49.0556 53.039 49.2603L52.0063 48.4928C52.5459 48.2695 53.0529 47.9671 53.5274 47.5857C54.0019 47.2043 54.374 46.7949 54.6438 46.3577C54.9973 45.7995 55.2206 45.1855 55.3136 44.5157C55.4066 43.8365 55.4531 43.1109 55.4531 42.3387H56.6253ZM59.8349 37.1336C59.9559 37.2918 60.0861 37.4872 60.2256 37.7197C60.3652 37.943 60.5001 38.1709 60.6303 38.4035C60.7699 38.6361 60.8862 38.8501 60.9792 39.0454L60.2256 39.3803C60.0861 39.092 59.9093 38.7663 59.6954 38.4035C59.4814 38.0314 59.2814 37.7104 59.0953 37.4406L59.8349 37.1336ZM61.3699 36.5755C61.4909 36.7429 61.6258 36.9429 61.7746 37.1755C61.9235 37.4081 62.0677 37.6407 62.2072 37.8732C62.3468 38.0965 62.4584 38.2965 62.5421 38.4733L61.7886 38.8082C61.6397 38.5012 61.4583 38.1709 61.2443 37.8174C61.0397 37.4546 60.835 37.1429 60.6303 36.8825L61.3699 36.5755ZM73.957 37.8174C74.0408 37.9849 74.1338 38.1849 74.2361 38.4175C74.3385 38.6501 74.4362 38.8873 74.5292 39.1292C74.6315 39.3617 74.7106 39.5711 74.7664 39.7571L74.0826 39.9944C74.0175 39.7897 73.9384 39.5711 73.8454 39.3385C73.7524 39.1059 73.6593 38.8733 73.5663 38.6408C73.4733 38.4082 73.3803 38.2035 73.2872 38.0267L73.957 37.8174ZM75.3386 37.3988C75.4316 37.5662 75.5293 37.7663 75.6316 37.9988C75.7339 38.2221 75.8363 38.45 75.9386 38.6826C76.0409 38.9152 76.12 39.1292 76.1758 39.3245L75.4921 39.5478C75.3804 39.2408 75.2502 38.9059 75.1013 38.5431C74.9525 38.1802 74.8083 37.8686 74.6687 37.6081L75.3386 37.3988ZM72.6314 42.2969C72.6314 43.2272 72.5709 44.0552 72.4499 44.7808C72.329 45.4971 72.1197 46.1344 71.822 46.6926C71.5336 47.2415 71.1289 47.7345 70.6079 48.1718C70.0963 48.5997 69.4404 48.9951 68.6403 49.3579L67.7054 48.4648C68.338 48.223 68.8915 47.9532 69.366 47.6555C69.8404 47.3485 70.2358 46.9717 70.5521 46.5251C70.8684 46.0786 71.1056 45.5251 71.2638 44.8645C71.4219 44.1947 71.501 43.3714 71.501 42.3946V39.0036C71.501 38.7245 71.4917 38.4826 71.4731 38.2779C71.4638 38.064 71.4545 37.9244 71.4452 37.8593H72.7011C72.6918 37.9244 72.6779 38.064 72.6593 38.2779C72.6407 38.4826 72.6314 38.7245 72.6314 39.0036V42.2969ZM67.5937 37.943C67.5937 38.0081 67.5844 38.1337 67.5658 38.3198C67.5472 38.4966 67.5379 38.7059 67.5379 38.9478V44.0691C67.5379 44.2366 67.5425 44.4133 67.5518 44.5994C67.5612 44.7762 67.5658 44.9297 67.5658 45.0599C67.5751 45.1901 67.5844 45.2785 67.5937 45.325H66.3517C66.3611 45.2785 66.3704 45.1901 66.3797 45.0599C66.389 44.9297 66.3983 44.7762 66.4076 44.5994C66.4169 44.4226 66.4215 44.2459 66.4215 44.0691V38.9617C66.4215 38.8036 66.4169 38.6361 66.4076 38.4593C66.3983 38.2733 66.3797 38.1012 66.3517 37.943H67.5937ZM63.5189 40.6502C63.5562 40.6595 63.6492 40.6735 63.798 40.6921C63.9469 40.7014 64.119 40.7153 64.3144 40.734C64.519 40.7433 64.7191 40.7479 64.9144 40.7479H74.1524C74.4687 40.7479 74.7385 40.7386 74.9618 40.72C75.1851 40.7014 75.3432 40.6828 75.4362 40.6642V41.8503C75.3618 41.841 75.2083 41.8317 74.9757 41.8224C74.7432 41.8131 74.4734 41.8085 74.1664 41.8085H64.9144C64.7097 41.8085 64.5097 41.8131 64.3144 41.8224C64.1283 41.8224 63.9608 41.8271 63.812 41.8364C63.6724 41.8457 63.5748 41.855 63.5189 41.8643V40.6502ZM77.9899 43.4272C79.1994 43.1016 80.325 42.7062 81.367 42.2411C82.4089 41.7759 83.316 41.3014 84.0881 40.8177C84.5719 40.5107 85.0417 40.1804 85.4976 39.8269C85.9627 39.4641 86.4 39.0873 86.8093 38.6966C87.2186 38.3058 87.5815 37.9198 87.8978 37.5383L88.8327 38.4035C88.442 38.8222 88.0187 39.2315 87.5629 39.6315C87.107 40.0316 86.6232 40.4176 86.1116 40.7898C85.6092 41.1526 85.0836 41.5061 84.5347 41.8503C84.023 42.1573 83.4462 42.4736 82.8043 42.7992C82.1624 43.1249 81.4786 43.4319 80.753 43.7203C80.0273 44.0087 79.2924 44.2738 78.5481 44.5157L77.9899 43.4272ZM83.8649 41.4038L85.065 41.041V47.4043C85.065 47.581 85.065 47.7671 85.065 47.9625C85.0743 48.1578 85.0836 48.3393 85.0929 48.5067C85.1115 48.6742 85.1301 48.8044 85.1487 48.8974H83.7811C83.7904 48.8044 83.7997 48.6742 83.809 48.5067C83.8277 48.3393 83.8416 48.1578 83.8509 47.9625C83.8602 47.7671 83.8649 47.581 83.8649 47.4043V41.4038ZM93.9122 38.2361C94.1634 38.4035 94.4518 38.6128 94.7774 38.864C95.103 39.1059 95.4333 39.3664 95.7682 39.6455C96.1124 39.9153 96.4334 40.1804 96.7311 40.4409C97.0288 40.7014 97.2753 40.9293 97.4707 41.1247L96.5915 42.0038C96.4148 41.8271 96.1868 41.6084 95.9078 41.348C95.6287 41.0875 95.3217 40.8177 94.9867 40.5386C94.6518 40.2502 94.3216 39.9804 93.996 39.7292C93.6704 39.4687 93.3773 39.2548 93.1168 39.0873L93.9122 38.2361ZM92.7121 47.5857C93.5308 47.4648 94.2751 47.2973 94.9449 47.0833C95.624 46.8694 96.2427 46.6275 96.8009 46.3577C97.359 46.0879 97.8568 45.8181 98.294 45.5483C99.0103 45.1018 99.6709 44.5901 100.276 44.0133C100.88 43.4272 101.411 42.8225 101.866 42.1992C102.322 41.5759 102.685 40.9805 102.955 40.413L103.625 41.5991C103.308 42.1759 102.918 42.762 102.452 43.3574C101.987 43.9528 101.462 44.525 100.876 45.0739C100.29 45.6227 99.643 46.1205 98.9359 46.567C98.4708 46.8554 97.9591 47.1391 97.4009 47.4182C96.852 47.6973 96.2473 47.9532 95.5868 48.1858C94.9356 48.409 94.2239 48.5904 93.4517 48.73L92.7121 47.5857ZM110.881 37.4965C110.835 37.6825 110.797 37.8546 110.769 38.0128C110.751 38.1616 110.728 38.3151 110.7 38.4733C110.662 38.7338 110.616 39.0594 110.56 39.4501C110.514 39.8409 110.458 40.2688 110.393 40.734C110.337 41.1991 110.276 41.6782 110.211 42.1713C110.155 42.6643 110.1 43.1435 110.044 43.6086C109.997 44.0738 109.96 44.4971 109.932 44.8785C109.904 45.2599 109.89 45.5762 109.89 45.8274C109.89 46.5065 110.081 47.0415 110.462 47.4322C110.853 47.8229 111.444 48.0183 112.235 48.0183C112.951 48.0183 113.565 47.9206 114.077 47.7252C114.598 47.5299 114.998 47.2554 115.277 46.9019C115.565 46.5391 115.709 46.1205 115.709 45.646C115.709 45.1808 115.584 44.7017 115.333 44.2087C115.081 43.7063 114.7 43.2365 114.188 42.7992L115.416 42.5481C115.891 43.0783 116.244 43.5993 116.477 44.111C116.719 44.6134 116.84 45.1669 116.84 45.7716C116.84 46.46 116.644 47.0554 116.254 47.5578C115.872 48.0602 115.337 48.4416 114.649 48.7021C113.96 48.9719 113.156 49.1068 112.235 49.1068C111.602 49.1068 111.025 49.0044 110.504 48.7998C109.993 48.6044 109.583 48.2788 109.276 47.8229C108.969 47.3671 108.816 46.7577 108.816 45.9949C108.816 45.6972 108.834 45.3064 108.872 44.8227C108.918 44.3389 108.974 43.8133 109.039 43.2458C109.114 42.669 109.188 42.0829 109.262 41.4875C109.346 40.8828 109.416 40.3153 109.472 39.785C109.537 39.2548 109.583 38.7943 109.611 38.4035C109.639 38.1616 109.653 37.9709 109.653 37.8314C109.653 37.6825 109.644 37.543 109.625 37.4127L110.881 37.4965ZM106.402 39.3524C106.802 39.4734 107.239 39.5757 107.713 39.6594C108.188 39.7432 108.667 39.8083 109.151 39.8548C109.634 39.892 110.081 39.9106 110.49 39.9106C111.03 39.9106 111.537 39.8967 112.011 39.8688C112.495 39.8409 112.937 39.7943 113.337 39.7292L113.309 40.7758C112.863 40.813 112.421 40.8456 111.984 40.8735C111.546 40.8921 111.044 40.9014 110.476 40.9014C110.067 40.9014 109.621 40.8828 109.137 40.8456C108.653 40.7991 108.169 40.734 107.685 40.6502C107.202 40.5665 106.755 40.4735 106.346 40.3711L106.402 39.3524ZM106.067 42.8132C106.513 42.9714 106.983 43.0969 107.476 43.19C107.979 43.2737 108.472 43.3342 108.955 43.3714C109.439 43.4086 109.9 43.4272 110.337 43.4272C110.811 43.4272 111.29 43.4179 111.774 43.3993C112.267 43.3714 112.756 43.3202 113.239 43.2458L113.212 44.3064C112.756 44.3622 112.304 44.3994 111.858 44.418C111.411 44.4366 110.951 44.4459 110.476 44.4459C109.723 44.4459 108.946 44.3994 108.146 44.3064C107.355 44.2133 106.644 44.0738 106.011 43.8877L106.067 42.8132ZM125.966 38.571C125.92 38.4221 125.864 38.25 125.799 38.0547C125.743 37.8593 125.682 37.6686 125.617 37.4825L126.803 37.329C126.85 37.5988 126.915 37.9058 126.999 38.25C127.083 38.5849 127.18 38.9291 127.292 39.2827C127.403 39.6269 127.515 39.9478 127.627 40.2455C127.841 40.8502 128.11 41.4549 128.436 42.0596C128.762 42.655 129.069 43.1574 129.357 43.5668C129.459 43.697 129.562 43.8226 129.664 43.9435C129.766 44.0645 129.869 44.1854 129.971 44.3064L129.399 45.0878C129.232 45.0506 129.008 45.0134 128.729 44.9762C128.459 44.939 128.162 44.9064 127.836 44.8785C127.52 44.8413 127.203 44.8087 126.887 44.7808C126.571 44.7529 126.287 44.7296 126.036 44.711L126.12 43.7761C126.38 43.7947 126.655 43.8179 126.943 43.8458C127.241 43.8738 127.52 43.9017 127.78 43.9296C128.05 43.9482 128.269 43.9668 128.436 43.9854C128.241 43.6877 128.031 43.3481 127.808 42.9667C127.585 42.576 127.366 42.1666 127.152 41.7387C126.948 41.3014 126.766 40.8735 126.608 40.4549C126.459 40.0455 126.334 39.6827 126.231 39.3664C126.129 39.0501 126.041 38.7849 125.966 38.571ZM120.859 39.6594C121.64 39.7525 122.394 39.8176 123.119 39.8548C123.854 39.892 124.547 39.9013 125.199 39.8827C125.859 39.8641 126.455 39.8269 126.985 39.7711C127.357 39.7246 127.748 39.6687 128.157 39.6036C128.576 39.5385 128.99 39.4548 129.399 39.3524C129.808 39.2501 130.194 39.1431 130.557 39.0315L130.683 40.1199C130.357 40.2223 129.999 40.3107 129.608 40.3851C129.218 40.4595 128.827 40.5293 128.436 40.5944C128.045 40.6595 127.678 40.7107 127.334 40.7479C126.45 40.8502 125.459 40.9061 124.361 40.9154C123.273 40.9247 122.115 40.8782 120.887 40.7758L120.859 39.6594ZM123.008 44.111C122.803 44.4459 122.64 44.7715 122.519 45.0878C122.408 45.3948 122.352 45.7158 122.352 46.0507C122.352 46.7112 122.64 47.195 123.217 47.502C123.794 47.809 124.599 47.9671 125.631 47.9764C126.348 47.9857 127.003 47.9578 127.599 47.8927C128.204 47.8276 128.748 47.7392 129.232 47.6276L129.176 48.7439C128.748 48.8184 128.236 48.8881 127.641 48.9533C127.045 49.0184 126.357 49.0509 125.575 49.0509C124.692 49.0416 123.924 48.93 123.273 48.716C122.631 48.5021 122.133 48.1858 121.78 47.7671C121.426 47.3392 121.249 46.8089 121.249 46.1763C121.249 45.7948 121.31 45.4181 121.431 45.0459C121.561 44.6645 121.724 44.2691 121.919 43.8598L123.008 44.111ZM137.283 37.5244C137.581 37.6174 137.967 37.7197 138.442 37.8314C138.925 37.943 139.432 38.0547 139.963 38.1663C140.502 38.2686 141.014 38.3617 141.498 38.4454C141.981 38.5198 142.377 38.571 142.684 38.5989L142.419 39.6734C142.158 39.6362 141.837 39.585 141.456 39.5199C141.084 39.4548 140.684 39.3803 140.256 39.2966C139.828 39.2129 139.404 39.1292 138.986 39.0454C138.567 38.9524 138.186 38.8687 137.842 38.7943C137.497 38.7105 137.218 38.6408 137.004 38.5849L137.283 37.5244ZM136.976 40.0641C136.93 40.306 136.879 40.6037 136.823 40.9572C136.776 41.3014 136.725 41.6643 136.669 42.0457C136.614 42.4271 136.562 42.7899 136.516 43.1342C136.469 43.4784 136.427 43.7621 136.39 43.9854C137.069 43.3993 137.786 42.9714 138.539 42.7016C139.302 42.4225 140.102 42.2829 140.939 42.2829C141.656 42.2829 142.279 42.4132 142.809 42.6737C143.34 42.9248 143.754 43.2737 144.051 43.7203C144.349 44.1575 144.498 44.6506 144.498 45.1994C144.498 45.8228 144.354 46.3902 144.065 46.9019C143.786 47.4043 143.344 47.8276 142.74 48.1718C142.144 48.516 141.381 48.7579 140.451 48.8974C139.521 49.0463 138.404 49.0649 137.102 48.9533L136.767 47.809C138.246 47.9857 139.47 47.9811 140.437 47.795C141.405 47.5997 142.126 47.274 142.6 46.8182C143.084 46.353 143.326 45.8042 143.326 45.1715C143.326 44.7994 143.219 44.4692 143.005 44.1808C142.791 43.8924 142.498 43.6691 142.126 43.5109C141.763 43.3435 141.344 43.2597 140.87 43.2597C139.958 43.2597 139.13 43.4272 138.386 43.7621C137.651 44.0877 137.037 44.5436 136.544 45.1297C136.441 45.2506 136.358 45.3716 136.293 45.4925C136.227 45.6041 136.172 45.7158 136.125 45.8274L135.092 45.5762C135.148 45.3157 135.204 45.0041 135.26 44.6413C135.316 44.2691 135.372 43.8738 135.427 43.4551C135.483 43.0272 135.534 42.5992 135.581 42.1713C135.637 41.7433 135.683 41.334 135.72 40.9433C135.758 40.5432 135.786 40.199 135.804 39.9106L136.976 40.0641ZM152.927 39.0454C153.308 39.1013 153.75 39.1478 154.252 39.185C154.764 39.2129 155.29 39.2268 155.829 39.2268C156.378 39.2175 156.899 39.1989 157.392 39.171C157.894 39.1338 158.318 39.0873 158.662 39.0315V40.1618C158.29 40.199 157.853 40.2316 157.35 40.2595C156.857 40.2781 156.341 40.2874 155.801 40.2874C155.271 40.2874 154.755 40.2781 154.252 40.2595C153.75 40.2316 153.308 40.199 152.927 40.1618V39.0454ZM153.471 44.725C153.406 44.9762 153.355 45.2041 153.317 45.4088C153.28 45.6134 153.261 45.8135 153.261 46.0088C153.261 46.167 153.294 46.3251 153.359 46.4833C153.434 46.6321 153.555 46.767 153.722 46.888C153.899 46.9996 154.141 47.0926 154.448 47.1671C154.755 47.2322 155.145 47.2647 155.62 47.2647C156.252 47.2647 156.848 47.2368 157.406 47.181C157.964 47.1159 158.522 47.0229 159.081 46.9019L159.108 48.0741C158.671 48.1671 158.16 48.2416 157.573 48.2974C156.997 48.3439 156.345 48.3672 155.62 48.3672C154.448 48.3672 153.587 48.1811 153.038 47.809C152.499 47.4368 152.229 46.9252 152.229 46.274C152.229 46.0414 152.247 45.7948 152.285 45.5344C152.331 45.2646 152.392 44.9622 152.466 44.6273L153.471 44.725ZM150.261 37.9709C150.243 38.0454 150.215 38.143 150.177 38.264C150.15 38.3756 150.117 38.4919 150.08 38.6128C150.052 38.7245 150.029 38.8222 150.01 38.9059C149.964 39.1664 149.908 39.4687 149.843 39.8129C149.777 40.1479 149.712 40.5107 149.647 40.9014C149.591 41.2828 149.536 41.6736 149.48 42.0736C149.433 42.4643 149.391 42.8458 149.354 43.2179C149.326 43.59 149.312 43.9342 149.312 44.2505C149.312 44.5947 149.322 44.9204 149.34 45.2274C149.368 45.5344 149.401 45.86 149.438 46.2042C149.522 45.9902 149.61 45.7623 149.703 45.5204C149.796 45.2785 149.889 45.0413 149.982 44.8087C150.084 44.5668 150.173 44.3529 150.247 44.1668L150.833 44.6134C150.712 44.9483 150.582 45.3157 150.443 45.7158C150.303 46.1158 150.177 46.5019 150.066 46.874C149.964 47.2368 149.889 47.5252 149.843 47.7392C149.824 47.8415 149.805 47.9532 149.787 48.0741C149.768 48.1951 149.763 48.2927 149.773 48.3672C149.782 48.4416 149.787 48.5207 149.787 48.6044C149.796 48.6974 149.805 48.7811 149.815 48.8556L148.81 48.9253C148.67 48.4323 148.549 47.7997 148.447 47.0275C148.345 46.2461 148.294 45.3855 148.294 44.4459C148.294 43.9342 148.317 43.4133 148.363 42.883C148.41 42.3434 148.47 41.8224 148.545 41.32C148.619 40.8084 148.689 40.3432 148.754 39.9246C148.829 39.4966 148.884 39.1385 148.922 38.8501C148.949 38.6826 148.973 38.5152 148.991 38.3477C149.01 38.1709 149.019 38.0081 149.019 37.8593L150.261 37.9709ZM168.751 43.5807H169.798V47.9764C169.798 48.1904 169.835 48.3299 169.909 48.3951C169.993 48.4509 170.17 48.4788 170.44 48.4788C170.505 48.4788 170.616 48.4788 170.775 48.4788C170.933 48.4788 171.109 48.4788 171.305 48.4788C171.51 48.4788 171.696 48.4788 171.863 48.4788C172.031 48.4788 172.156 48.4788 172.24 48.4788C172.435 48.4788 172.579 48.423 172.672 48.3113C172.765 48.1997 172.831 47.9718 172.868 47.6276C172.905 47.2833 172.933 46.7624 172.952 46.0646C173.026 46.1205 173.119 46.1809 173.231 46.2461C173.352 46.3019 173.472 46.353 173.593 46.3996C173.714 46.4368 173.821 46.474 173.914 46.5112C173.886 47.2927 173.821 47.902 173.719 48.3393C173.626 48.7672 173.468 49.0649 173.245 49.2324C173.031 49.3998 172.724 49.4835 172.324 49.4835C172.258 49.4835 172.133 49.4835 171.947 49.4835C171.761 49.4835 171.551 49.4835 171.319 49.4835C171.096 49.4835 170.891 49.4835 170.705 49.4835C170.519 49.4835 170.393 49.4835 170.328 49.4835C169.909 49.4835 169.584 49.437 169.351 49.344C169.128 49.2603 168.97 49.1068 168.877 48.8835C168.793 48.6695 168.751 48.3672 168.751 47.9764V43.5807ZM165.137 43.6644H166.225C166.17 44.418 166.067 45.1064 165.918 45.7297C165.779 46.353 165.546 46.9066 165.221 47.3903C164.904 47.8741 164.467 48.2974 163.909 48.6602C163.351 49.023 162.63 49.3254 161.746 49.5673C161.709 49.4742 161.653 49.3719 161.578 49.2603C161.513 49.1486 161.439 49.037 161.355 48.9253C161.281 48.823 161.202 48.7393 161.118 48.6742C161.937 48.4695 162.597 48.2183 163.1 47.9206C163.611 47.6136 164.002 47.2554 164.272 46.8461C164.551 46.4368 164.751 45.967 164.872 45.4367C164.993 44.9064 165.081 44.3157 165.137 43.6644ZM168.849 40.3153L169.686 39.785C170.151 40.1293 170.626 40.5153 171.109 40.9433C171.593 41.3712 172.044 41.7992 172.463 42.2271C172.882 42.655 173.217 43.0458 173.468 43.3993L172.547 44.0133C172.314 43.6505 171.993 43.2504 171.584 42.8132C171.184 42.376 170.742 41.9387 170.258 41.5015C169.784 41.0642 169.314 40.6688 168.849 40.3153ZM165.569 38.9757L166.686 39.3245C166.491 39.7246 166.277 40.1432 166.044 40.5805C165.821 41.0177 165.593 41.4363 165.36 41.8364C165.128 42.2271 164.909 42.576 164.704 42.883L163.839 42.562C164.034 42.2457 164.239 41.8782 164.453 41.4596C164.676 41.041 164.886 40.613 165.081 40.1758C165.276 39.7385 165.439 39.3385 165.569 38.9757ZM161.885 42.2271C162.704 42.2085 163.662 42.1852 164.76 42.1573C165.867 42.1201 167.039 42.0829 168.277 42.0457C169.523 41.9992 170.761 41.9527 171.989 41.9061L171.947 42.8551C170.747 42.9202 169.533 42.9807 168.305 43.0365C167.086 43.0923 165.928 43.1435 164.83 43.19C163.741 43.2365 162.774 43.2737 161.927 43.3016L161.885 42.2271ZM161.453 38.4314H173.579V39.4222H161.453V38.4314ZM166.937 36.7429H167.998V38.9757H166.937V36.7429ZM180.906 36.7429H181.966V38.7803H180.906V36.7429ZM175.547 38.1244H187.339V40.8177H186.264V39.0594H176.58V40.8177H175.547V38.1244ZM176.733 40.6781H186.264V41.5573H176.733V40.6781ZM175.338 45.0041H187.632V45.939H175.338V45.0041ZM176.957 42.8132H186.083V43.6923H176.957V42.8132ZM182.162 45.2274C182.599 46.1949 183.297 46.967 184.255 47.5438C185.213 48.1113 186.395 48.4928 187.799 48.6881C187.688 48.7998 187.567 48.944 187.436 49.1207C187.316 49.3068 187.223 49.4696 187.157 49.6091C186.171 49.4324 185.292 49.1672 184.52 48.8137C183.757 48.4602 183.101 48.0043 182.552 47.4462C182.003 46.888 181.557 46.2228 181.213 45.4506L182.162 45.2274ZM180.878 39.5059H181.938V42.9946C181.938 43.4691 181.896 43.9482 181.813 44.4319C181.738 44.9157 181.585 45.3948 181.352 45.8693C181.12 46.3437 180.78 46.8042 180.334 47.2508C179.887 47.688 179.296 48.102 178.561 48.4928C177.836 48.8928 176.929 49.2556 175.84 49.5812C175.812 49.5068 175.761 49.4138 175.687 49.3021C175.612 49.1998 175.528 49.0975 175.435 48.9951C175.352 48.8928 175.273 48.8044 175.198 48.73C176.249 48.4416 177.119 48.1253 177.808 47.7811C178.505 47.4275 179.059 47.0554 179.468 46.6647C179.887 46.274 180.194 45.8739 180.389 45.4646C180.594 45.0459 180.724 44.6273 180.78 44.2087C180.845 43.79 180.878 43.3807 180.878 42.9807V39.5059Z" fill="#040000"/>
<path d="M16.0705 0.078125C7.50873 0.078125 0.560913 7.02594 0.560913 15.5877C0.560913 24.1494 7.50873 31.0973 16.0705 31.0973H168.056C176.618 31.0973 183.566 24.1494 183.566 15.5877C183.566 7.02594 176.618 0.078125 168.056 0.078125H16.0705Z" fill="white"/>
<path d="M16.0705 0.078125C7.50873 0.078125 0.560913 7.02594 0.560913 15.5877C0.560913 24.1494 7.50873 31.0973 16.0705 31.0973H168.056C176.618 31.0973 183.566 24.1494 183.566 15.5877C183.566 7.02594 176.618 0.078125 168.056 0.078125H16.0705Z" stroke="#040000" stroke-width="1.12189" stroke-linecap="round" stroke-linejoin="round"/>
<path d="M18.1649 9.8413H24.8353V10.5111H18.1649V9.8413ZM19.7976 9.22729H20.6768V10.9995H19.7976V9.22729ZM22.3513 9.22729H23.2444V10.9995H22.3513V9.22729ZM19.4069 10.8181L20.2302 10.9437C20.0535 11.3344 19.8209 11.7019 19.5325 12.0461C19.2441 12.3904 18.8859 12.7113 18.458 13.009C18.3928 12.916 18.2998 12.8136 18.1789 12.702C18.0672 12.5904 17.9603 12.5066 17.8579 12.4508C18.2393 12.2182 18.5557 11.9578 18.8068 11.6694C19.0673 11.381 19.2673 11.0972 19.4069 10.8181ZM19.5743 11.2647H23.8863V11.8926H19.1836L19.5743 11.2647ZM26.133 10.3297H30.6125V11.1112H25.7004L26.133 10.3297ZM23.4956 11.2647H24.3887C24.3887 11.2647 24.3887 11.3112 24.3887 11.4042C24.3887 11.4879 24.3841 11.5624 24.3748 11.6275C24.3468 12.2229 24.3143 12.7113 24.2771 13.0927C24.2399 13.4649 24.1933 13.7533 24.1375 13.9579C24.091 14.1626 24.0259 14.3114 23.9422 14.4045C23.8584 14.4975 23.7654 14.5673 23.6631 14.6138C23.5607 14.6603 23.4351 14.6882 23.2863 14.6975C23.1653 14.7068 23.0025 14.7115 22.7979 14.7115C22.6025 14.7115 22.3932 14.7022 22.1699 14.6836C22.1606 14.5812 22.1374 14.4603 22.1001 14.3207C22.0629 14.1812 22.0164 14.0603 21.9606 13.9579C22.1653 13.9858 22.3467 14.0044 22.5048 14.0137C22.6723 14.0137 22.7932 14.0137 22.8676 14.0137C22.9421 14.0137 23.0025 14.0091 23.0491 13.9998C23.0956 13.9812 23.1374 13.9486 23.1747 13.9021C23.2491 13.8184 23.3095 13.5951 23.3561 13.2323C23.4119 12.8602 23.4584 12.2508 23.4956 11.4042V11.2647ZM26.2168 9.2552L27.1378 9.49243C26.8773 10.0599 26.547 10.6042 26.147 11.1251C25.747 11.6368 25.333 12.074 24.905 12.4369C24.8585 12.381 24.7887 12.3159 24.6957 12.2415C24.6027 12.1578 24.5096 12.0787 24.4166 12.0043C24.3236 11.9298 24.2399 11.8694 24.1654 11.8229C24.5934 11.5066 24.9888 11.1251 25.3516 10.6786C25.7144 10.2227 26.0028 9.74827 26.2168 9.2552ZM28.8263 10.6925L29.7613 10.8321C29.538 11.5298 29.1891 12.1206 28.7147 12.6043C28.2402 13.0881 27.6774 13.4974 27.0261 13.8323C26.3842 14.1579 25.6911 14.4324 24.9469 14.6557C24.9097 14.5905 24.8585 14.5115 24.7934 14.4184C24.7283 14.3254 24.6538 14.2324 24.5701 14.1393C24.4957 14.0463 24.4259 13.9719 24.3608 13.9161C25.0864 13.7486 25.7516 13.5253 26.3563 13.2462C26.961 12.9671 27.4773 12.6183 27.9053 12.1996C28.3332 11.781 28.6402 11.2786 28.8263 10.6925ZM26.1191 11.0135C26.4168 11.4879 26.8075 11.9252 27.2913 12.3252C27.775 12.7253 28.3286 13.0695 28.9519 13.3579C29.5752 13.6463 30.2311 13.8649 30.9195 14.0137C30.8079 14.0975 30.6916 14.2184 30.5706 14.3766C30.459 14.5347 30.3706 14.6743 30.3055 14.7952C29.5985 14.6091 28.924 14.3487 28.2821 14.0137C27.6495 13.6788 27.0773 13.2834 26.5656 12.8276C26.0633 12.3624 25.6493 11.8508 25.3237 11.2926L26.1191 11.0135ZM19.1418 12.3531H19.9093V13.8882H19.1418V12.3531ZM19.1418 12.3531H22.4071V14.1812H19.1418V13.623H21.6257V12.9113H19.1418V12.3531ZM20.5372 16.2884H28.6309V16.9024H20.5372V16.2884ZM20.5791 17.6001H28.6588V18.2001H20.5791V17.6001ZM20.5093 18.9118H29.5101V19.6096H20.5093V18.9118ZM19.8813 14.8789H29.1054V15.5767H20.9V19.6096H19.8813V14.8789ZM23.8724 15.158H24.8911V19.2328H23.8724V15.158ZM29.1752 18.9118H30.1939C30.1939 18.9118 30.1892 18.963 30.1799 19.0653C30.1706 19.1584 30.1613 19.2374 30.152 19.3026C30.059 20.0654 29.9659 20.6329 29.8729 21.005C29.7799 21.3865 29.6589 21.647 29.5101 21.7865C29.4077 21.8795 29.2961 21.9447 29.1752 21.9819C29.0635 22.0284 28.9286 22.0563 28.7705 22.0656C28.6216 22.0842 28.417 22.0889 28.1565 22.0795C27.896 22.0795 27.6169 22.0702 27.3192 22.0516C27.3099 21.94 27.282 21.8051 27.2355 21.647C27.1983 21.4981 27.1517 21.3679 27.0959 21.2562C27.3564 21.2748 27.5983 21.2888 27.8216 21.2981C28.0541 21.3074 28.2123 21.312 28.296 21.312C28.389 21.312 28.4681 21.3027 28.5332 21.2841C28.5984 21.2748 28.6542 21.2469 28.7007 21.2004C28.7937 21.1074 28.8775 20.8981 28.9519 20.5724C29.0356 20.2468 29.11 19.7352 29.1752 19.0374V18.9118ZM19.6302 19.7491L20.4954 20.1119C20.3279 20.4934 20.1093 20.8608 19.8395 21.2144C19.579 21.5679 19.2394 21.8609 18.8208 22.0935L18.0114 21.5353C18.3928 21.3399 18.7185 21.0841 18.9882 20.7678C19.2673 20.4422 19.4813 20.1026 19.6302 19.7491ZM21.4303 20.1817L22.2955 20.0422C22.3978 20.3027 22.4862 20.5957 22.5606 20.9213C22.6351 21.2469 22.6862 21.526 22.7141 21.7586L21.7931 21.94C21.7838 21.6981 21.742 21.4144 21.6675 21.0888C21.6024 20.7632 21.5233 20.4608 21.4303 20.1817ZM23.7607 20.2096L24.5562 19.9863C24.7236 20.2189 24.8725 20.4748 25.0027 20.7539C25.1423 21.0329 25.2446 21.2795 25.3097 21.4935L24.4585 21.7586C24.4027 21.5446 24.305 21.2888 24.1654 20.9911C24.0352 20.7027 23.9003 20.4422 23.7607 20.2096ZM26.0354 20.1119L26.761 19.8049C26.9471 19.9817 27.1285 20.1771 27.3052 20.391C27.4913 20.605 27.6308 20.7957 27.7239 20.9632L26.9564 21.326C26.8726 21.1585 26.7424 20.9632 26.5656 20.7399C26.3982 20.5073 26.2214 20.298 26.0354 20.1119ZM33.8221 11.3903C34.7989 11.5019 35.7292 11.567 36.613 11.5856C37.5061 11.6042 38.3108 11.581 39.0272 11.5159C39.5947 11.46 40.1575 11.3763 40.7157 11.2647C41.2832 11.1437 41.8181 11.0042 42.3205 10.846L42.474 11.8508C42.0181 11.981 41.5064 12.102 40.939 12.2136C40.3808 12.3252 39.8226 12.409 39.2644 12.4648C38.5574 12.5299 37.734 12.5625 36.7944 12.5625C35.8641 12.5532 34.8966 12.502 33.8918 12.409L33.8221 11.3903ZM33.5569 14.251C34.3477 14.3347 35.1292 14.3905 35.9013 14.4184C36.6735 14.437 37.4038 14.4324 38.0922 14.4045C38.7806 14.3766 39.3946 14.3301 39.9342 14.2649C40.604 14.1905 41.2134 14.0928 41.7623 13.9719C42.3112 13.8509 42.7717 13.73 43.1438 13.6091L43.3112 14.6557C42.9298 14.758 42.4833 14.8603 41.9716 14.9627C41.4599 15.0557 40.911 15.1394 40.3249 15.2138C39.7482 15.279 39.0923 15.3301 38.3573 15.3673C37.6224 15.3953 36.8456 15.4046 36.0269 15.3953C35.2175 15.3767 34.4128 15.3441 33.6127 15.2976L33.5569 14.251ZM38.3294 11.2089C38.2736 10.9949 38.2085 10.7856 38.1341 10.5809C38.0689 10.3669 38.0038 10.1623 37.9387 9.96689L39.1248 9.81339C39.1714 10.2041 39.2458 10.6135 39.3481 11.0414C39.4505 11.46 39.5621 11.874 39.683 12.2834C39.804 12.6834 39.9203 13.0462 40.0319 13.3718C40.1621 13.7347 40.3156 14.1207 40.4924 14.5301C40.6692 14.9394 40.8645 15.3441 41.0785 15.7441C41.2925 16.1442 41.5204 16.5256 41.7623 16.8884C41.8367 16.9907 41.9158 17.0931 41.9995 17.1954C42.0925 17.2884 42.1856 17.3861 42.2786 17.4885L41.7065 18.3397C41.446 18.2653 41.139 18.2048 40.7855 18.1583C40.4319 18.1025 40.0691 18.0559 39.697 18.0187C39.3249 17.9722 38.976 17.9304 38.6504 17.8931L38.7481 17.0419C39.1202 17.0791 39.5063 17.121 39.9063 17.1675C40.3063 17.214 40.618 17.2512 40.8413 17.2791C40.4505 16.6744 40.1063 16.0511 39.8086 15.4092C39.5202 14.7673 39.2737 14.1626 39.069 13.5951C38.9574 13.2788 38.8551 12.9857 38.762 12.716C38.6783 12.4369 38.5992 12.1717 38.5248 11.9205C38.4597 11.6694 38.3946 11.4321 38.3294 11.2089ZM35.5804 17.2512C35.4129 17.4931 35.2734 17.7396 35.1617 17.9908C35.0501 18.242 34.9943 18.5211 34.9943 18.8281C34.9943 19.4049 35.2547 19.8375 35.7757 20.1259C36.306 20.4143 37.12 20.5585 38.2178 20.5585C38.869 20.5585 39.4598 20.5352 39.99 20.4887C40.5203 20.4422 41.0366 20.3678 41.539 20.2654L41.4971 21.3818C41.0134 21.4562 40.4971 21.5121 39.9482 21.5493C39.3993 21.5958 38.8271 21.619 38.2317 21.619C37.32 21.619 36.5432 21.526 35.9013 21.3399C35.2687 21.1539 34.7849 20.8701 34.45 20.4887C34.1244 20.1073 33.957 19.6189 33.9477 19.0235C33.9384 18.6234 33.9849 18.2699 34.0872 17.9629C34.1988 17.6466 34.3337 17.335 34.4919 17.028L35.5804 17.2512ZM53.1493 11.4182C53.0563 12.1438 52.9353 12.902 52.7865 13.6928C52.6469 14.4836 52.4655 15.2511 52.2422 15.9953C51.9631 16.9535 51.6515 17.7536 51.3073 18.3955C50.9724 19.0374 50.6095 19.5212 50.2188 19.8468C49.8281 20.1724 49.4187 20.3352 48.9908 20.3352C48.5815 20.3352 48.1861 20.1864 47.8047 19.8887C47.4232 19.591 47.1116 19.163 46.8697 18.6048C46.6278 18.0373 46.5069 17.3722 46.5069 16.6093C46.5069 15.8465 46.6604 15.1255 46.9674 14.4463C47.2837 13.7672 47.7163 13.1672 48.2652 12.6462C48.8233 12.1159 49.4746 11.6973 50.2188 11.3903C50.9631 11.0833 51.7585 10.9298 52.6051 10.9298C53.4237 10.9298 54.1587 11.0647 54.8099 11.3344C55.4704 11.6042 56.0333 11.9764 56.4984 12.4508C56.9636 12.916 57.3217 13.4602 57.5729 14.0835C57.8241 14.6975 57.9497 15.358 57.9497 16.0651C57.9497 17.0419 57.7404 17.9024 57.3217 18.6467C56.9124 19.3909 56.317 19.9956 55.5355 20.4608C54.7634 20.926 53.8238 21.233 52.7167 21.3818L52.0608 20.3492C52.2841 20.3213 52.4981 20.2933 52.7027 20.2654C52.9074 20.2375 53.0935 20.205 53.2609 20.1678C53.7075 20.0654 54.1401 19.9073 54.5587 19.6933C54.9867 19.47 55.3681 19.1909 55.703 18.856C56.0379 18.5118 56.3031 18.1071 56.4984 17.642C56.7031 17.1675 56.8054 16.6279 56.8054 16.0232C56.8054 15.4557 56.7124 14.9301 56.5263 14.4463C56.3403 13.9533 56.0658 13.5207 55.703 13.1486C55.3402 12.7764 54.8983 12.4834 54.3773 12.2694C53.8563 12.0554 53.2609 11.9485 52.5911 11.9485C51.8283 11.9485 51.1352 12.088 50.5119 12.3671C49.8979 12.6462 49.3722 13.0137 48.935 13.4695C48.507 13.9161 48.1768 14.4091 47.9442 14.9487C47.7116 15.479 47.5953 16 47.5953 16.5116C47.5953 17.0977 47.6698 17.5815 47.8186 17.9629C47.9768 18.335 48.1628 18.6095 48.3768 18.7862C48.6001 18.963 48.8187 19.0514 49.0327 19.0514C49.2559 19.0514 49.4839 18.9444 49.7164 18.7304C49.949 18.5072 50.1863 18.1536 50.4281 17.6699C50.67 17.1768 50.9072 16.5395 51.1398 15.7581C51.3445 15.0883 51.5166 14.3766 51.6561 13.623C51.805 12.8695 51.912 12.1299 51.9771 11.4042L53.1493 11.4182ZM66.2946 17.4326H72.0718V18.3397H66.2946V17.4326ZM65.4294 20.7678H72.6998V21.7028H65.4294V20.7678ZM66.0434 9.92502H71.4299V10.846H66.0434V9.92502ZM68.6529 15.6185H69.6856V21.326H68.6529V15.6185ZM71.1369 9.92502H71.3322L71.5276 9.88316L72.1835 10.1483C71.8579 11.2461 71.3881 12.195 70.7741 12.9951C70.16 13.7858 69.4437 14.451 68.625 14.9906C67.8157 15.5302 66.9551 15.9534 66.0434 16.2604C65.9876 16.1302 65.9039 15.9814 65.7922 15.8139C65.6899 15.6464 65.5876 15.5115 65.4852 15.4092C66.1085 15.2325 66.7132 14.9859 67.2993 14.6696C67.8947 14.344 68.4436 13.9579 68.946 13.5114C69.4484 13.0648 69.8903 12.5578 70.2717 11.9903C70.6531 11.4228 70.9415 10.7949 71.1369 10.1064V9.92502ZM67.5366 10.8181C67.8436 11.5531 68.2483 12.2229 68.7506 12.8276C69.2623 13.4323 69.8623 13.9533 70.5508 14.3905C71.2485 14.8185 72.016 15.1394 72.8533 15.3534C72.7882 15.4185 72.7138 15.5069 72.63 15.6185C72.5463 15.7209 72.4672 15.8232 72.3928 15.9255C72.3184 16.0279 72.2579 16.1302 72.2114 16.2325C71.3369 15.9534 70.5415 15.572 69.8251 15.0883C69.1181 14.5952 68.4994 14.0137 67.9692 13.3439C67.4389 12.6648 67.0016 11.9066 66.6574 11.0693L67.5366 10.8181ZM59.9452 10.7204H65.7504V11.6554H59.9452V10.7204ZM59.7778 18.7025H65.876V19.6375H59.7778V18.7025ZM62.3733 9.21334H63.3223V13.0648H62.3733V9.21334ZM62.4571 13.1067H63.2246V17.1675H63.3223V22.0935H62.3733V17.1675H62.4571V13.1067ZM60.9779 15.5069V16.7907H64.7317V15.5069H60.9779ZM60.9779 13.4974V14.7533H64.7317V13.4974H60.9779ZM60.1825 12.716H65.555V17.5722H60.1825V12.716ZM80.5005 11.0554C80.4539 10.9065 80.3981 10.7344 80.333 10.539C80.2772 10.3437 80.2167 10.153 80.1516 9.96689L81.3377 9.81339C81.3843 10.0832 81.4494 10.3902 81.5331 10.7344C81.6168 11.0693 81.7145 11.4135 81.8262 11.767C81.9378 12.1113 82.0494 12.4322 82.1611 12.7299C82.375 13.3346 82.6448 13.9393 82.9704 14.544C83.296 15.1394 83.603 15.6418 83.8914 16.0511C83.9938 16.1814 84.0961 16.307 84.1984 16.4279C84.3008 16.5488 84.4031 16.6698 84.5055 16.7907L83.9333 17.5722C83.7659 17.535 83.5426 17.4978 83.2635 17.4605C82.9937 17.4233 82.696 17.3908 82.3704 17.3629C82.0541 17.3257 81.7378 17.2931 81.4215 17.2652C81.1052 17.2373 80.8214 17.214 80.5702 17.1954L80.654 16.2604C80.9144 16.2791 81.1889 16.3023 81.4773 16.3302C81.775 16.3581 82.0541 16.386 82.3146 16.4139C82.5844 16.4326 82.803 16.4512 82.9704 16.4698C82.7751 16.1721 82.5658 15.8325 82.3425 15.4511C82.1192 15.0603 81.9006 14.651 81.6866 14.2231C81.4819 13.7858 81.3005 13.3579 81.1424 12.9392C80.9935 12.5299 80.8679 12.1671 80.7656 11.8508C80.6633 11.5345 80.5749 11.2693 80.5005 11.0554ZM75.393 12.1438C76.1745 12.2368 76.9281 12.302 77.6537 12.3392C78.3887 12.3764 79.0817 12.3857 79.733 12.3671C80.3935 12.3485 80.9889 12.3113 81.5192 12.2555C81.8913 12.2089 82.282 12.1531 82.6913 12.088C83.11 12.0229 83.524 11.9391 83.9333 11.8368C84.3426 11.7345 84.7287 11.6275 85.0915 11.5159L85.2171 12.6043C84.8915 12.7067 84.5334 12.795 84.1426 12.8695C83.7519 12.9439 83.3612 13.0137 82.9704 13.0788C82.5797 13.1439 82.2122 13.1951 81.868 13.2323C80.9842 13.3346 79.9934 13.3904 78.8957 13.3997C77.8072 13.409 76.649 13.3625 75.421 13.2602L75.393 12.1438ZM77.5421 16.5954C77.3374 16.9303 77.1746 17.2559 77.0537 17.5722C76.942 17.8792 76.8862 18.2001 76.8862 18.5351C76.8862 19.1956 77.1746 19.6793 77.7514 19.9863C78.3282 20.2933 79.1329 20.4515 80.1655 20.4608C80.8819 20.4701 81.5378 20.4422 82.1332 20.3771C82.7379 20.312 83.2821 20.2236 83.7659 20.1119L83.71 21.2283C83.2821 21.3027 82.7704 21.3725 82.175 21.4376C81.5796 21.5028 80.8912 21.5353 80.1097 21.5353C79.2259 21.526 78.4584 21.4144 77.8072 21.2004C77.1653 20.9864 76.6676 20.6701 76.3141 20.2515C75.9605 19.8235 75.7838 19.2933 75.7838 18.6607C75.7838 18.2792 75.8442 17.9024 75.9652 17.5303C76.0954 17.1489 76.2582 16.7535 76.4536 16.3442L77.5421 16.5954ZM88.2453 11.767C88.5058 11.7577 88.743 11.7484 88.957 11.7391C89.1803 11.7205 89.357 11.7066 89.4873 11.6973C89.7106 11.6694 90.0315 11.6368 90.4501 11.5996C90.8781 11.5531 91.3665 11.5066 91.9154 11.46C92.4643 11.4042 93.055 11.3484 93.6876 11.2926C94.3202 11.2368 94.9575 11.1809 95.5994 11.1251C96.1111 11.0786 96.5949 11.0414 97.0507 11.0135C97.5066 10.9763 97.9299 10.9484 98.3206 10.9298C98.7113 10.9019 99.0602 10.8832 99.3672 10.8739V11.9903C99.1067 11.9903 98.809 11.995 98.4741 12.0043C98.1392 12.0136 97.8089 12.0322 97.4833 12.0601C97.1577 12.088 96.874 12.1392 96.6321 12.2136C96.139 12.3717 95.6925 12.6136 95.2924 12.9392C94.9017 13.2555 94.5668 13.623 94.2877 14.0417C94.0086 14.4603 93.7946 14.8929 93.6458 15.3394C93.5062 15.786 93.4365 16.2186 93.4365 16.6372C93.4365 17.1768 93.5295 17.6513 93.7155 18.0606C93.9016 18.4606 94.1528 18.8002 94.4691 19.0793C94.7947 19.3584 95.1622 19.5863 95.5715 19.7631C95.9809 19.9398 96.4134 20.0747 96.8693 20.1678C97.3345 20.2515 97.795 20.298 98.2508 20.3073L97.8461 21.4655C97.3252 21.4469 96.8042 21.3725 96.2832 21.2423C95.7622 21.1213 95.2645 20.9446 94.7901 20.712C94.3156 20.4701 93.8923 20.1678 93.5202 19.8049C93.1481 19.4421 92.855 19.0188 92.641 18.5351C92.4271 18.0513 92.3201 17.4978 92.3201 16.8745C92.3201 16.1488 92.4457 15.479 92.6969 14.865C92.9573 14.2417 93.2876 13.6974 93.6876 13.2323C94.0877 12.7671 94.5017 12.409 94.9296 12.1578C94.6319 12.195 94.2598 12.2368 93.8132 12.2834C93.376 12.3299 92.9062 12.381 92.4038 12.4369C91.9014 12.4834 91.3944 12.5392 90.8827 12.6043C90.3804 12.6694 89.9106 12.7346 89.4733 12.7997C89.0361 12.8555 88.6686 12.916 88.3709 12.9811L88.2453 11.767ZM97.3577 13.7067C97.46 13.8556 97.581 14.0463 97.7205 14.2789C97.8694 14.5022 98.0136 14.7347 98.1531 14.9766C98.2927 15.2092 98.409 15.4325 98.502 15.6464L97.7903 15.9814C97.6322 15.6371 97.4554 15.2976 97.26 14.9627C97.0647 14.6184 96.86 14.3021 96.646 14.0137L97.3577 13.7067ZM98.8788 13.1206C98.9904 13.2695 99.1207 13.4556 99.2695 13.6788C99.4184 13.9021 99.5626 14.1347 99.7021 14.3766C99.8509 14.6091 99.9812 14.8324 100.093 15.0464L99.3672 15.3953C99.1997 15.051 99.0137 14.7115 98.809 14.3766C98.6136 14.0417 98.409 13.73 98.195 13.4416L98.8788 13.1206ZM101.516 17.1954C101.833 17.0466 102.2 16.8651 102.619 16.6512C103.047 16.4279 103.488 16.1907 103.944 15.9395L104.196 16.7349C103.805 16.9861 103.409 17.228 103.009 17.4605C102.619 17.6838 102.242 17.9024 101.879 18.1164L101.516 17.1954ZM102.507 11.7531C102.73 12.1903 102.926 12.6601 103.093 13.1625C103.27 13.6649 103.381 14.0928 103.428 14.4463L102.591 14.8231C102.563 14.5719 102.507 14.2928 102.423 13.9858C102.34 13.6695 102.237 13.3439 102.116 13.009C101.995 12.6741 101.865 12.3578 101.726 12.0601L102.507 11.7531ZM109.317 9.22729V11.0414H108.228V9.22729H109.317ZM104.642 15.0045C104.642 15.5441 104.614 16.1256 104.558 16.7489C104.512 17.3722 104.419 18.0048 104.279 18.6467C104.149 19.2793 103.949 19.8933 103.679 20.4887C103.419 21.0841 103.074 21.619 102.647 22.0935C102.6 22.0191 102.53 21.9353 102.437 21.8423C102.344 21.7586 102.251 21.6749 102.158 21.5911C102.065 21.5074 101.981 21.4469 101.907 21.4097C102.307 20.9539 102.623 20.4608 102.856 19.9305C103.088 19.4002 103.261 18.8514 103.372 18.2839C103.493 17.7164 103.572 17.1535 103.609 16.5954C103.647 16.0372 103.665 15.5069 103.665 15.0045V10.4832H104.642V15.0045ZM114.327 10.4832V11.3903H104.182V10.4832H114.327ZM113.21 13.0369L113.378 13.009L114.089 13.1625C113.959 13.5718 113.81 13.9905 113.643 14.4184C113.485 14.8464 113.331 15.2045 113.182 15.4929L112.317 15.3115C112.438 15.0417 112.564 14.7115 112.694 14.3207C112.833 13.9207 112.954 13.5439 113.057 13.1904V13.0369H113.21ZM106.889 15.7023C106.889 16.186 106.861 16.707 106.805 17.2652C106.759 17.8141 106.665 18.3769 106.526 18.9537C106.396 19.5305 106.205 20.0887 105.954 20.6283C105.703 21.1678 105.377 21.6656 104.977 22.1214C104.93 22.0563 104.856 21.9819 104.754 21.8981C104.661 21.8237 104.563 21.7539 104.461 21.6888C104.358 21.6237 104.27 21.5725 104.196 21.5353C104.586 21.1074 104.893 20.6469 105.117 20.1538C105.349 19.6607 105.521 19.1537 105.633 18.6327C105.754 18.1118 105.833 17.6047 105.87 17.1117C105.907 16.6093 105.926 16.1349 105.926 15.6883V13.0369H106.889V15.7023ZM108.187 16.3302C108.652 17.6234 109.401 18.6839 110.433 19.5119C111.475 20.3306 112.778 20.8934 114.341 21.2004C114.238 21.3027 114.122 21.4423 113.992 21.619C113.871 21.7958 113.778 21.954 113.713 22.0935C112.633 21.833 111.675 21.4562 110.838 20.9632C110.001 20.4701 109.289 19.8608 108.703 19.1351C108.117 18.4002 107.642 17.5443 107.279 16.5675L108.187 16.3302ZM112.373 15.8418L112.554 15.7999L113.21 16.0511C112.959 16.8977 112.619 17.6559 112.192 18.3257C111.764 18.9863 111.261 19.5584 110.684 20.0422C110.117 20.5259 109.494 20.9353 108.815 21.2702C108.145 21.6051 107.438 21.8795 106.693 22.0935C106.647 21.9633 106.568 21.8098 106.456 21.633C106.354 21.4655 106.256 21.3306 106.163 21.2283C106.842 21.0609 107.498 20.8329 108.131 20.5445C108.763 20.2468 109.345 19.884 109.875 19.4561C110.415 19.0188 110.88 18.5165 111.271 17.949C111.671 17.3722 111.978 16.7256 112.192 16.0093V15.8418H112.373ZM110.308 11.7391V16.3163H109.359V11.7391H110.308ZM113.168 13.0369V13.944H106.4V13.0369H113.168ZM112.443 15.8418V16.721H106.4V15.8418H112.443ZM128.644 19.8887C128.272 20.2608 127.872 20.5492 127.444 20.7539C127.016 20.9492 126.56 21.0469 126.076 21.0469C125.621 21.0469 125.248 20.8981 124.96 20.6004C124.672 20.3027 124.527 19.8654 124.527 19.2886C124.527 18.8979 124.555 18.4746 124.611 18.0187C124.667 17.5629 124.727 17.0977 124.793 16.6233C124.858 16.1395 124.918 15.6837 124.974 15.2557C125.03 14.8185 125.058 14.4277 125.058 14.0835C125.058 13.6835 124.96 13.3951 124.765 13.2183C124.569 13.0323 124.29 12.9392 123.927 12.9392C123.602 12.9392 123.239 13.0369 122.839 13.2323C122.439 13.4183 122.03 13.6742 121.611 13.9998C121.192 14.3161 120.783 14.6743 120.383 15.0743C119.983 15.465 119.615 15.8558 119.281 16.2465L119.308 14.865C119.485 14.6789 119.708 14.4603 119.978 14.2091C120.257 13.9579 120.564 13.6974 120.899 13.4276C121.243 13.1579 121.606 12.9067 121.988 12.6741C122.369 12.4415 122.746 12.2555 123.118 12.1159C123.499 11.9764 123.862 11.9066 124.207 11.9066C124.644 11.9066 125.007 11.9857 125.295 12.1438C125.583 12.2927 125.797 12.5113 125.937 12.7997C126.076 13.0788 126.146 13.4044 126.146 13.7765C126.146 14.1207 126.118 14.5208 126.062 14.9766C126.016 15.4232 125.955 15.8883 125.881 16.3721C125.816 16.8558 125.755 17.3257 125.7 17.7815C125.653 18.2374 125.63 18.642 125.63 18.9956C125.63 19.2281 125.686 19.4282 125.797 19.5956C125.918 19.7631 126.104 19.8468 126.356 19.8468C126.69 19.8468 127.035 19.7491 127.388 19.5538C127.751 19.3491 128.109 19.0607 128.463 18.6886L128.644 19.8887ZM119.267 13.2183C119.155 13.2276 118.983 13.2509 118.75 13.2881C118.527 13.316 118.271 13.3486 117.983 13.3858C117.694 13.423 117.401 13.4649 117.104 13.5114C116.806 13.5486 116.527 13.5858 116.266 13.623L116.155 12.4787C116.304 12.488 116.448 12.4927 116.587 12.4927C116.736 12.4834 116.894 12.4741 117.062 12.4648C117.257 12.4555 117.494 12.4369 117.773 12.409C118.062 12.3717 118.359 12.3345 118.666 12.2973C118.983 12.2508 119.276 12.2043 119.546 12.1578C119.825 12.102 120.043 12.0461 120.202 11.9903L120.606 12.4787C120.522 12.5904 120.429 12.7299 120.327 12.8974C120.225 13.0555 120.122 13.2183 120.02 13.3858C119.918 13.5532 119.829 13.7021 119.755 13.8323L119.322 15.7302C119.164 15.9814 118.969 16.2791 118.736 16.6233C118.504 16.9675 118.257 17.3303 117.997 17.7117C117.745 18.0839 117.49 18.456 117.229 18.8281C116.969 19.1909 116.731 19.5258 116.517 19.8328L115.806 18.87C115.983 18.656 116.187 18.3955 116.42 18.0885C116.662 17.7722 116.913 17.4326 117.173 17.0698C117.443 16.707 117.704 16.3535 117.955 16.0093C118.215 15.6557 118.443 15.3301 118.639 15.0324C118.843 14.7347 118.997 14.4929 119.099 14.3068L119.155 13.5951L119.267 13.2183ZM119.141 10.9019C119.141 10.7437 119.136 10.5762 119.127 10.3995C119.127 10.2227 119.113 10.046 119.085 9.86921L120.397 9.91107C120.36 10.0971 120.313 10.3902 120.257 10.7902C120.202 11.1809 120.146 11.6461 120.09 12.1857C120.043 12.7253 119.992 13.2928 119.936 13.8882C119.89 14.4836 119.853 15.0743 119.825 15.6604C119.797 16.2372 119.783 16.7721 119.783 17.2652C119.783 17.6838 119.783 18.0746 119.783 18.4374C119.783 18.7909 119.788 19.1444 119.797 19.4979C119.806 19.8421 119.82 20.2189 119.839 20.6283C119.848 20.7492 119.857 20.8887 119.867 21.0469C119.876 21.2051 119.89 21.3493 119.908 21.4795H118.694C118.713 21.3493 118.722 21.2051 118.722 21.0469C118.732 20.8981 118.736 20.7678 118.736 20.6562C118.746 20.2096 118.75 19.8142 118.75 19.47C118.75 19.1258 118.75 18.7723 118.75 18.4095C118.76 18.0373 118.769 17.5954 118.778 17.0838C118.778 16.8791 118.787 16.6 118.806 16.2465C118.825 15.8837 118.848 15.4883 118.876 15.0603C118.904 14.6231 118.932 14.1812 118.96 13.7347C118.987 13.2881 119.015 12.8695 119.043 12.4787C119.071 12.0787 119.094 11.7391 119.113 11.46C119.132 11.1809 119.141 10.9949 119.141 10.9019ZM137.087 19.5677H141.217V20.5585H137.087V19.5677ZM136.64 10.4413H141.678V21.5074H140.617V11.4321H137.659V21.6609H136.64V10.4413ZM132.523 11.5856H133.57V14.3766C133.57 14.972 133.528 15.6092 133.444 16.2884C133.37 16.9582 133.212 17.6373 132.97 18.3257C132.737 19.0049 132.398 19.6654 131.951 20.3073C131.514 20.9399 130.933 21.5121 130.207 22.0237C130.17 21.9586 130.105 21.8749 130.012 21.7725C129.919 21.6702 129.826 21.5679 129.733 21.4655C129.64 21.3632 129.556 21.2888 129.481 21.2423C130.16 20.7585 130.7 20.2329 131.1 19.6654C131.509 19.0979 131.812 18.5118 132.007 17.9071C132.212 17.2931 132.347 16.6837 132.412 16.079C132.486 15.4743 132.523 14.9022 132.523 14.3626V11.5856ZM131.086 11.0972H135.789V12.074H131.086V11.0972ZM129.635 14.865H136.194V15.8697H129.635V14.865ZM133.235 16.693C133.347 16.7954 133.5 16.9535 133.696 17.1675C133.9 17.3722 134.124 17.6094 134.366 17.8792C134.607 18.1397 134.849 18.4048 135.091 18.6746C135.333 18.9351 135.547 19.1723 135.733 19.3863C135.919 19.6003 136.059 19.7584 136.152 19.8608L135.44 20.7539C135.319 20.5771 135.166 20.3724 134.98 20.1398C134.793 19.898 134.589 19.6421 134.366 19.3723C134.142 19.0932 133.919 18.8235 133.696 18.563C133.472 18.2932 133.263 18.0513 133.068 17.8373C132.882 17.6141 132.724 17.4326 132.593 17.2931L133.235 16.693ZM131.198 9.21334L132.216 9.42266C132.086 10.046 131.923 10.6553 131.728 11.2507C131.542 11.8368 131.328 12.3904 131.086 12.9113C130.854 13.423 130.598 13.8788 130.319 14.2789C130.263 14.2138 130.184 14.144 130.081 14.0696C129.979 13.9951 129.867 13.9207 129.747 13.8463C129.635 13.7719 129.542 13.7114 129.467 13.6649C129.877 13.1253 130.226 12.4648 130.514 11.6833C130.812 10.8925 131.04 10.0692 131.198 9.21334ZM147.636 10.0088C147.934 10.1018 148.32 10.2041 148.795 10.3158C149.278 10.4274 149.785 10.539 150.316 10.6507C150.855 10.753 151.367 10.846 151.851 10.9298C152.334 11.0042 152.73 11.0554 153.037 11.0833L152.772 12.1578C152.511 12.1206 152.19 12.0694 151.809 12.0043C151.437 11.9391 151.037 11.8647 150.609 11.781C150.181 11.6973 149.758 11.6135 149.339 11.5298C148.92 11.4368 148.539 11.3531 148.195 11.2786C147.85 11.1949 147.571 11.1251 147.357 11.0693L147.636 10.0088ZM147.329 12.5485C147.283 12.7904 147.232 13.0881 147.176 13.4416C147.129 13.7858 147.078 14.1486 147.022 14.5301C146.967 14.9115 146.915 15.2743 146.869 15.6185C146.822 15.9627 146.781 16.2465 146.743 16.4698C147.422 15.8837 148.139 15.4557 148.892 15.1859C149.655 14.9068 150.455 14.7673 151.293 14.7673C152.009 14.7673 152.632 14.8975 153.162 15.158C153.693 15.4092 154.107 15.7581 154.404 16.2046C154.702 16.6419 154.851 17.1349 154.851 17.6838C154.851 18.3071 154.707 18.8746 154.418 19.3863C154.139 19.8887 153.697 20.312 153.093 20.6562C152.497 21.0004 151.734 21.2423 150.804 21.3818C149.874 21.5307 148.757 21.5493 147.455 21.4376L147.12 20.2933C148.599 20.4701 149.823 20.4655 150.79 20.2794C151.758 20.084 152.479 19.7584 152.953 19.3026C153.437 18.8374 153.679 18.2885 153.679 17.6559C153.679 17.2838 153.572 16.9535 153.358 16.6651C153.144 16.3767 152.851 16.1535 152.479 15.9953C152.116 15.8279 151.697 15.7441 151.223 15.7441C150.311 15.7441 149.483 15.9116 148.739 16.2465C148.004 16.5721 147.39 17.028 146.897 17.6141C146.794 17.735 146.711 17.8559 146.646 17.9769C146.581 18.0885 146.525 18.2001 146.478 18.3118L145.446 18.0606C145.501 17.8001 145.557 17.4885 145.613 17.1256C145.669 16.7535 145.725 16.3581 145.78 15.9395C145.836 15.5115 145.887 15.0836 145.934 14.6557C145.99 14.2277 146.036 13.8184 146.073 13.4276C146.111 13.0276 146.139 12.6834 146.157 12.395L147.329 12.5485ZM164.989 10.0506C164.989 10.0971 164.979 10.1809 164.961 10.3018C164.951 10.4227 164.942 10.5437 164.933 10.6646C164.933 10.7856 164.928 10.8739 164.919 10.9298C164.91 11.1065 164.905 11.3484 164.905 11.6554C164.905 11.9624 164.905 12.2973 164.905 12.6601C164.905 13.023 164.905 13.3904 164.905 13.7626C164.914 14.1347 164.919 14.4882 164.919 14.8231C164.928 15.1487 164.933 15.4232 164.933 15.6464L163.872 15.1022C163.872 14.972 163.872 14.7766 163.872 14.5161C163.872 14.2463 163.868 13.9393 163.858 13.5951C163.858 13.2509 163.854 12.9067 163.844 12.5625C163.844 12.2089 163.84 11.888 163.83 11.5996C163.83 11.3112 163.826 11.0879 163.816 10.9298C163.807 10.7437 163.793 10.5669 163.775 10.3995C163.756 10.2227 163.737 10.1064 163.719 10.0506H164.989ZM157.579 11.9903C157.96 11.9903 158.393 11.9857 158.876 11.9764C159.37 11.9578 159.886 11.9438 160.425 11.9345C160.974 11.9159 161.528 11.9019 162.086 11.8926C162.644 11.874 163.179 11.8601 163.691 11.8508C164.212 11.8415 164.686 11.8368 165.114 11.8368C165.542 11.8368 165.961 11.8415 166.37 11.8508C166.789 11.8508 167.179 11.8508 167.542 11.8508C167.914 11.8508 168.24 11.8508 168.519 11.8508C168.808 11.8508 169.035 11.8508 169.203 11.8508L169.189 12.8974C168.798 12.8788 168.273 12.8648 167.612 12.8555C166.961 12.8369 166.124 12.8276 165.1 12.8276C164.505 12.8276 163.877 12.8322 163.216 12.8416C162.565 12.8509 161.909 12.8695 161.249 12.8974C160.588 12.916 159.946 12.9439 159.323 12.9811C158.709 13.009 158.142 13.0416 157.621 13.0788L157.579 11.9903ZM164.905 16.0511C164.905 16.6744 164.812 17.1954 164.626 17.6141C164.449 18.0234 164.198 18.3304 163.872 18.5351C163.556 18.7397 163.188 18.8421 162.77 18.8421C162.472 18.8421 162.184 18.7955 161.905 18.7025C161.635 18.6002 161.388 18.4513 161.165 18.256C160.951 18.0513 160.779 17.8048 160.649 17.5164C160.528 17.2187 160.467 16.8838 160.467 16.5116C160.467 16.0465 160.579 15.6325 160.802 15.2697C161.025 14.9068 161.323 14.6184 161.695 14.4045C162.077 14.1905 162.491 14.0835 162.937 14.0835C163.477 14.0835 163.928 14.2091 164.291 14.4603C164.654 14.7022 164.923 15.0371 165.1 15.465C165.286 15.8837 165.379 16.3628 165.379 16.9024C165.379 17.3675 165.314 17.842 165.184 18.3257C165.054 18.8095 164.83 19.2747 164.514 19.7212C164.198 20.1678 163.77 20.5771 163.23 20.9492C162.7 21.312 162.03 21.6144 161.221 21.8563L160.286 20.9353C160.918 20.7957 161.481 20.6097 161.974 20.3771C162.477 20.1352 162.9 19.8468 163.244 19.5119C163.598 19.177 163.863 18.7862 164.04 18.3397C164.216 17.8931 164.305 17.3815 164.305 16.8047C164.305 16.1721 164.17 15.7162 163.9 15.4371C163.64 15.158 163.314 15.0185 162.923 15.0185C162.681 15.0185 162.454 15.079 162.24 15.1999C162.026 15.3208 161.849 15.4929 161.709 15.7162C161.579 15.9302 161.514 16.1907 161.514 16.4977C161.514 16.9349 161.653 17.2745 161.933 17.5164C162.221 17.7582 162.556 17.8792 162.937 17.8792C163.226 17.8792 163.472 17.8001 163.677 17.642C163.891 17.4745 164.04 17.228 164.123 16.9024C164.207 16.5675 164.216 16.1535 164.151 15.6604L164.905 16.0511ZM166.914 9.77152C167.082 10.0041 167.263 10.2785 167.459 10.5948C167.654 10.9112 167.821 11.1996 167.961 11.46L167.166 11.8089C167.026 11.5298 166.863 11.2368 166.677 10.9298C166.5 10.6135 166.324 10.3344 166.147 10.0925L166.914 9.77152ZM168.617 9.4087C168.775 9.64128 168.952 9.91107 169.147 10.2181C169.342 10.5251 169.515 10.8135 169.663 11.0833L168.868 11.4321C168.719 11.1437 168.552 10.8507 168.366 10.553C168.189 10.246 168.012 9.97619 167.835 9.74361L168.617 9.4087Z" fill="#040000"/>
</svg>
