<svg width="192" height="21" viewBox="0 0 192 21" fill="none" xmlns="http://www.w3.org/2000/svg">
<rect width="191.01" height="19.5048" transform="translate(0.147339) rotate(0.432811)" fill="#FFEE00"/>
<path d="M8.24583 7.79535L10.6587 7.81358L10.6514 8.7696L8.23861 8.75138L8.24583 7.79535ZM7.7675 6.02527L8.80547 6.03311L8.75437 12.7981L7.71509 12.9633L7.7675 6.02527ZM7.08981 12.567C7.38769 12.5086 7.72513 12.4383 8.10211 12.3561C8.48521 12.268 8.8896 12.1739 9.31528 12.0739C9.74096 11.9739 10.1636 11.8739 10.5832 11.7739L10.703 12.7946C10.3319 12.9011 9.95168 13.0075 9.56238 13.1138C9.17307 13.2201 8.79595 13.3205 8.43102 13.4149C8.06604 13.5153 7.72541 13.6068 7.40913 13.6894L7.08981 12.567ZM9.35885 11.1273L10.2362 10.7059C10.4285 10.9623 10.6145 11.243 10.7943 11.5479C10.9803 11.8467 11.145 12.1424 11.2884 12.4348C11.438 12.7273 11.5483 12.9922 11.6193 13.2295L10.6506 13.7048C10.5916 13.4737 10.4935 13.2089 10.3561 12.9104C10.2187 12.6119 10.0632 12.3072 9.88951 11.9963C9.71586 11.6793 9.53898 11.3897 9.35885 11.1273ZM8.25007 6.02891L11.3185 6.05209L11.2846 10.5318L8.21623 10.5086L8.22386 9.49792L10.2816 9.51346L10.3002 7.05511L8.24243 7.03957L8.25007 6.02891ZM14.2322 6.05589L15.3703 6.06449L15.3286 11.5821C15.3267 11.8431 15.2946 12.0645 15.2326 12.2461C15.1766 12.4217 15.0663 12.5605 14.9016 12.6624C14.737 12.7583 14.5423 12.8206 14.3175 12.8493C14.0987 12.8719 13.8407 12.8821 13.5433 12.8798C13.5319 12.7705 13.5086 12.6428 13.4733 12.4969C13.438 12.3448 13.3936 12.1988 13.34 12.0588C13.2865 11.9127 13.2328 11.7879 13.179 11.6842C13.3549 11.6977 13.5248 11.7051 13.6887 11.7063C13.8587 11.7076 13.977 11.7055 14.0439 11.6999C14.0985 11.7003 14.135 11.6915 14.1533 11.6734C14.1778 11.6493 14.1903 11.6069 14.1907 11.5462L14.2322 6.05589ZM11.8285 6.03773L14.824 6.06036L14.8157 7.16207L12.931 7.14783L12.8781 14.1496L11.7673 14.1412L11.8285 6.03773ZM21.0299 7.80997L22.0769 7.81788L22.0337 13.5449L20.9866 13.537L21.0299 7.80997ZM18.7095 11.2161L24.4912 11.2598L24.4841 12.1976L18.7025 12.1539L18.7095 11.2161ZM18.122 13.051L24.9781 13.1028L24.971 14.0406L18.1149 13.9888L18.122 13.051ZM19.4083 7.9161L20.4002 7.99643C20.3223 8.66358 20.1662 9.24212 19.9318 9.73205C19.6974 10.222 19.3756 10.6293 18.9665 10.954C18.9184 10.8929 18.843 10.8226 18.7404 10.7429C18.644 10.6572 18.5444 10.5745 18.4418 10.4948C18.3392 10.4151 18.2486 10.3537 18.17 10.3106C18.5544 10.0585 18.8422 9.72989 19.0334 9.32462C19.2247 8.91328 19.3497 8.44377 19.4083 7.9161ZM19.2601 9.45381L19.8477 8.81176C19.9925 8.92819 20.1432 9.06287 20.2999 9.21582C20.4627 9.36273 20.6164 9.50958 20.761 9.65636C20.9055 9.80314 21.0199 9.93452 21.104 10.0505L20.4976 10.7744C20.4134 10.6584 20.3022 10.524 20.1637 10.3712C20.0253 10.2123 19.8778 10.0534 19.7211 9.89436C19.5645 9.73534 19.4108 9.5885 19.2601 9.45381ZM23.0685 7.94375L24.051 8.06043C23.9492 8.68491 23.775 9.23903 23.5285 9.7228C23.2821 10.2066 22.9574 10.6017 22.5544 10.9083C22.5002 10.8471 22.4279 10.7768 22.3375 10.6972C22.247 10.6176 22.1535 10.538 22.057 10.4583C21.9605 10.3726 21.876 10.3052 21.8036 10.2561C22.1696 10.016 22.4543 9.69647 22.6576 9.29736C22.861 8.89826 22.9979 8.44705 23.0685 7.94375ZM22.8019 9.48056L23.4262 8.81147C23.5951 8.95237 23.7821 9.10857 23.9872 9.28009C24.1923 9.44554 24.3883 9.61092 24.5753 9.77623C24.7683 9.94159 24.925 10.0885 25.0454 10.2168L24.4024 10.9677C24.288 10.8333 24.1374 10.6804 23.9506 10.5091C23.7698 10.3317 23.5769 10.1542 23.3718 9.97657C23.1729 9.79295 22.9829 9.62762 22.8019 9.48056ZM20.527 5.66638L21.6652 5.67498L21.653 7.28656L20.5149 7.27796L20.527 5.66638ZM17.7528 6.48313L24.9639 6.5376L24.9563 7.54826L17.7452 7.49379L17.7528 6.48313ZM17.1792 6.4788L18.2445 6.48684L18.2257 8.97251C18.2229 9.34278 18.2077 9.75241 18.18 10.2014C18.1584 10.6444 18.1125 11.1023 18.0421 11.5753C17.9779 12.0422 17.8834 12.4968 17.7587 12.939C17.634 13.3751 17.4731 13.7715 17.2762 14.1282C17.2099 14.0609 17.1194 13.9874 17.0047 13.9076C16.896 13.8278 16.7813 13.7511 16.6604 13.6773C16.5396 13.6036 16.4368 13.5482 16.3521 13.5111C16.5367 13.1847 16.682 12.8307 16.7881 12.4491C16.8942 12.0614 16.9731 11.6643 17.0247 11.258C17.0764 10.8456 17.1098 10.4422 17.1249 10.0477C17.1461 9.65334 17.1579 9.28921 17.1605 8.95536L17.1792 6.4788ZM29.7036 7.11063C29.9825 7.14916 30.2949 7.17884 30.6408 7.19966C30.9928 7.21446 31.3478 7.22321 31.7059 7.22592C32.0702 7.2226 32.4193 7.2131 32.7533 7.19741C33.0873 7.17565 33.3758 7.15355 33.6188 7.1311L33.6099 8.30565C33.3305 8.32782 33.0238 8.34675 32.6898 8.36244C32.3559 8.37205 32.0129 8.37553 31.6608 8.37287C31.3088 8.37021 30.9628 8.36153 30.623 8.34682C30.2893 8.32609 29.9799 8.30251 29.6948 8.27607L29.7036 7.11063ZM30.4026 11.004C30.3651 11.1554 30.3367 11.2918 30.3176 11.4131C30.2985 11.5283 30.2885 11.6466 30.2876 11.768C30.2869 11.8651 30.3104 11.9563 30.3584 12.0417C30.4063 12.1209 30.4786 12.1913 30.5753 12.2527C30.6781 12.3081 30.8083 12.3516 30.9659 12.3832C31.1296 12.4087 31.3267 12.4223 31.5574 12.424C31.9641 12.4271 32.3466 12.4118 32.705 12.3781C33.0635 12.3383 33.4433 12.2805 33.8445 12.2046L33.8535 13.4339C33.5617 13.4863 33.2245 13.5263 32.8418 13.5537C32.4653 13.5812 32.019 13.593 31.5031 13.5891C30.72 13.5832 30.1383 13.4483 29.7579 13.1844C29.3775 12.9145 29.189 12.5458 29.1926 12.0784C29.1939 11.9024 29.2074 11.7203 29.2331 11.5324C29.2649 11.3383 29.306 11.1262 29.3563 10.8959L30.4026 11.004ZM28.306 6.49001C28.2813 6.55052 28.2533 6.6353 28.2222 6.74433C28.191 6.85336 28.1598 6.95935 28.1287 7.06231C28.1036 7.16532 28.0848 7.24409 28.0723 7.29863C28.0531 7.42596 28.0215 7.59266 27.9775 7.79872C27.9395 7.99875 27.8983 8.22608 27.8539 8.4807C27.8156 8.72929 27.7773 8.98396 27.7389 9.24469C27.7005 9.50543 27.6682 9.7571 27.6421 9.99972C27.6221 10.2424 27.6114 10.4548 27.61 10.6369C27.6094 10.7218 27.6086 10.819 27.6078 10.9282C27.613 11.0375 27.6244 11.1378 27.642 11.229C27.6852 11.1261 27.7315 11.0232 27.7809 10.9204C27.8302 10.8176 27.8795 10.7148 27.9289 10.612C27.9783 10.5031 28.0215 10.4002 28.0587 10.3033L28.6198 10.7538C28.533 11.002 28.4429 11.2684 28.3497 11.553C28.2626 11.8377 28.1816 12.1072 28.1069 12.3616C28.0382 12.6099 27.9851 12.8159 27.9474 12.9795C27.9348 13.0462 27.9221 13.122 27.9093 13.2069C27.9026 13.2918 27.899 13.3586 27.8987 13.4071C27.8983 13.4557 27.8979 13.5133 27.8974 13.5801C27.9029 13.653 27.9084 13.7198 27.9141 13.7806L26.8573 13.8454C26.7687 13.5291 26.6899 13.1096 26.621 12.5871C26.5521 12.0584 26.52 11.4845 26.5247 10.8654C26.5273 10.5255 26.5451 10.1796 26.5781 9.82778C26.6111 9.47595 26.6501 9.13934 26.695 8.81795C26.7399 8.4905 26.7816 8.19336 26.8201 7.92656C26.8646 7.6598 26.9027 7.43852 26.9344 7.26272C26.9475 7.13534 26.9637 6.99281 26.9831 6.83513C27.0086 6.67142 27.025 6.51675 27.0322 6.37112L28.306 6.49001ZM37.4825 10.3563L40.0137 10.3754L40.007 11.2586L37.4758 11.2395L37.4825 10.3563ZM37.5127 8.7722L40.7358 8.79654L40.705 12.8847L37.4818 12.8603L37.4888 11.9316L39.6558 11.948L39.6725 9.73548L37.5055 9.71911L37.5127 8.7722ZM36.9391 8.76786L37.9679 8.77563L37.9331 13.3828L36.9043 13.375L36.9391 8.76786ZM37.2805 6.96755L42.8709 7.00978L42.863 8.05685L37.2726 8.01462L37.2805 6.96755ZM42.5431 7.0073L43.6722 7.01583C43.6722 7.01583 43.6719 7.05225 43.6713 7.12509C43.6708 7.19186 43.6672 7.26771 43.6605 7.35265C43.6599 7.43763 43.6593 7.50743 43.6589 7.56206C43.6267 8.61806 43.5895 9.51619 43.5475 10.2565C43.5116 10.9968 43.4705 11.6096 43.4244 12.0948C43.3783 12.574 43.3208 12.95 43.252 13.2226C43.1892 13.4892 43.1088 13.6859 43.0108 13.8127C42.8697 13.9998 42.7261 14.1292 42.5799 14.2009C42.4336 14.2727 42.2602 14.323 42.0597 14.3518C41.8774 14.3808 41.6436 14.3912 41.3583 14.3829C41.0731 14.3808 40.7848 14.3725 40.4935 14.3582C40.4886 14.2064 40.4505 14.021 40.3793 13.8019C40.3142 13.5889 40.2306 13.4062 40.1285 13.2537C40.444 13.2803 40.7322 13.2977 40.9932 13.3057C41.2542 13.3077 41.4514 13.3092 41.585 13.3102C41.676 13.3109 41.752 13.2993 41.8129 13.2755C41.8798 13.2517 41.9409 13.2097 41.9959 13.1494C42.0694 13.071 42.1344 12.9046 42.1909 12.6501C42.2536 12.3895 42.3049 12.0257 42.3449 11.5586C42.3849 11.0854 42.4197 10.4938 42.4493 9.78378C42.485 9.07382 42.5157 8.22724 42.5414 7.24403L42.5431 7.0073ZM37.4077 5.7939L38.571 6.08496C38.3908 6.636 38.1743 7.17462 37.9214 7.70083C37.6747 8.22102 37.4039 8.7046 37.1092 9.15158C36.8144 9.59856 36.508 9.98778 36.1898 10.3192C36.1235 10.252 36.027 10.1723 35.9002 10.0803C35.7735 9.98223 35.6467 9.88718 35.5199 9.79517C35.3932 9.70316 35.2814 9.6325 35.1846 9.58321C35.5086 9.29428 35.8086 8.95054 36.0848 8.55198C36.367 8.15347 36.6192 7.71831 36.8413 7.2465C37.0695 6.77474 37.2583 6.29054 37.4077 5.7939ZM45.1335 7.62784C45.3276 7.65358 45.5338 7.67335 45.7523 7.68714C45.9768 7.69491 46.1741 7.69943 46.344 7.70072C46.7204 7.70356 47.0999 7.68518 47.4826 7.64558C47.8714 7.60603 48.2451 7.55422 48.6038 7.49015C48.9624 7.42002 49.2878 7.34052 49.5799 7.25168L49.6083 8.30813C49.3468 8.37293 49.0337 8.44037 48.6689 8.51046C48.3103 8.57453 47.9305 8.62932 47.5295 8.67486C47.1285 8.71432 46.7338 8.73259 46.3453 8.72965C46.1632 8.72828 45.9781 8.72384 45.79 8.71635C45.6019 8.70886 45.4077 8.69829 45.2075 8.68463L45.1335 7.62784ZM48.6857 6.28884C48.6481 6.44032 48.5981 6.63723 48.5355 6.87957C48.473 7.12191 48.4013 7.37632 48.3203 7.6428C48.2455 7.90933 48.1646 8.17278 48.0776 8.43315C47.9408 8.86918 47.7613 9.33221 47.539 9.82223C47.3168 10.3122 47.0764 10.79 46.818 11.2554C46.5595 11.7209 46.2984 12.1348 46.0346 12.497L44.9372 11.9242C45.1455 11.6708 45.351 11.3901 45.5536 11.082C45.7563 10.7739 45.9468 10.4567 46.1253 10.1302C46.3038 9.80379 46.464 9.48934 46.6059 9.1869C46.754 8.87843 46.8714 8.60008 46.9583 8.35185C47.076 8.03101 47.1789 7.67364 47.2668 7.27973C47.3609 6.8798 47.4154 6.50385 47.4302 6.15188L48.6857 6.28884ZM50.7949 9.13659C50.7813 9.33074 50.7737 9.52493 50.7723 9.71917C50.7769 9.90739 50.7815 10.1017 50.7861 10.302C50.7911 10.4417 50.7958 10.6208 50.8002 10.8394C50.8107 11.0519 50.8212 11.2796 50.8315 11.5225C50.8418 11.7593 50.8492 11.987 50.8536 12.2056C50.8642 12.4181 50.869 12.5881 50.868 12.7156C50.8659 12.9948 50.8063 13.2493 50.6892 13.4791C50.5722 13.7028 50.3857 13.8805 50.1298 14.0121C49.8799 14.1438 49.5364 14.208 49.0994 14.2047C48.723 14.2018 48.3836 14.1416 48.0809 14.024C47.7783 13.9124 47.5367 13.7467 47.3562 13.5268C47.1758 13.3008 47.0869 13.0209 47.0894 12.6871C47.0917 12.3896 47.1726 12.1232 47.3322 11.8876C47.4919 11.646 47.7209 11.4596 48.0193 11.3283C48.3239 11.1909 48.6886 11.1239 49.1135 11.1271C49.6477 11.1311 50.1388 11.2107 50.5868 11.3659C51.0349 11.5149 51.4371 11.7062 51.7935 11.9395C52.1499 12.1729 52.4547 12.4059 52.7079 12.6385L52.0905 13.6081C51.9277 13.4612 51.7408 13.2958 51.5297 13.1121C51.3247 12.9285 51.0923 12.7568 50.8325 12.597C50.5787 12.4372 50.3005 12.3046 49.9978 12.1991C49.7011 12.0937 49.3798 12.0397 49.0338 12.0371C48.7728 12.0351 48.563 12.0851 48.4044 12.1871C48.2458 12.2891 48.1659 12.422 48.1646 12.5859C48.1633 12.7559 48.2291 12.893 48.3618 12.9972C48.5007 13.1014 48.6945 13.1545 48.9434 13.1563C49.1498 13.1579 49.3139 13.1258 49.4358 13.0599C49.5578 12.988 49.6435 12.8885 49.693 12.7614C49.7426 12.6282 49.768 12.4797 49.7692 12.3158C49.7703 12.1762 49.7657 11.9788 49.7555 11.7238C49.7453 11.4688 49.7322 11.1864 49.7164 10.8767C49.7066 10.567 49.6968 10.2574 49.687 9.94772C49.6772 9.63806 49.6671 9.36481 49.6567 9.12799L50.7949 9.13659ZM52.3573 9.63098C52.1824 9.48398 51.965 9.32754 51.7052 9.16168C51.4455 8.99582 51.1765 8.83899 50.8984 8.6912C50.6264 8.53739 50.3875 8.41418 50.1818 8.32157L50.7714 7.42458C50.9347 7.49865 51.1192 7.5911 51.3247 7.70192C51.5364 7.80672 51.748 7.91758 51.9596 8.03452C52.1772 8.1515 52.3767 8.26834 52.5579 8.38505C52.7453 8.49573 52.8963 8.59399 53.011 8.67984L52.3573 9.63098ZM58.2853 10.7957L61.9 10.823L61.8923 11.8337L58.2776 11.8064L58.2853 10.7957ZM56.4149 11.2915C56.5755 11.7298 56.7853 12.0865 57.0442 12.3616C57.3093 12.6307 57.6112 12.8394 57.95 12.9876C58.2888 13.1359 58.6584 13.2388 59.0586 13.2965C59.4648 13.3542 59.8865 13.3847 60.3235 13.388C60.4025 13.3886 60.5147 13.3894 60.6604 13.3905C60.8061 13.3916 60.9639 13.3928 61.1339 13.3941C61.3099 13.3955 61.489 13.3968 61.6711 13.3982C61.8593 13.3996 62.0322 13.4009 62.1901 13.4021C62.3479 13.3972 62.4785 13.3952 62.5816 13.396C62.5264 13.4745 62.471 13.5772 62.4154 13.7043C62.3659 13.8314 62.3224 13.9616 62.285 14.0948C62.2476 14.2281 62.2163 14.3462 62.1913 14.4492L61.7815 14.4461L60.2519 14.4346C59.6935 14.4304 59.1748 14.387 58.6958 14.3045C58.2169 14.228 57.7778 14.0881 57.3787 13.8848C56.9857 13.6815 56.6327 13.3996 56.3198 13.0391C56.0069 12.6725 55.7403 12.2 55.5201 11.6217L56.4149 11.2915ZM57.8041 9.39897L58.9332 9.40749L58.8992 13.9054L57.7728 13.5417L57.8041 9.39897ZM56.2806 7.37514L56.2712 8.62252L60.4686 8.65423L60.478 7.40685L56.2806 7.37514ZM55.1959 6.31981L61.6422 6.36851L61.6171 9.70093L55.1707 9.65224L55.1959 6.31981ZM55.5673 10.1925L56.7044 10.3376C56.6156 10.8408 56.4934 11.3528 56.3377 11.8737C56.1881 12.3885 55.9871 12.8727 55.7348 13.326C55.4826 13.7733 55.1671 14.1473 54.7885 14.448C54.7344 14.3747 54.6592 14.2892 54.5628 14.1913C54.4724 14.0996 54.379 14.0078 54.2826 13.916C54.1861 13.8303 54.0986 13.7598 54.0201 13.7046C54.356 13.4461 54.6255 13.1234 54.8287 12.7364C55.038 12.3495 55.199 11.9349 55.3116 11.4926C55.4303 11.0443 55.5156 10.6109 55.5673 10.1925ZM68.2266 9.84192L69.3556 9.85045L69.3318 13.0099C69.3304 13.1859 69.3478 13.2983 69.3838 13.3472C69.426 13.39 69.523 13.412 69.6747 13.4131C69.7051 13.4133 69.7567 13.4137 69.8295 13.4143C69.9023 13.4148 69.9812 13.4154 70.0662 13.4161C70.1573 13.4168 70.2392 13.4174 70.3121 13.4179C70.391 13.4185 70.4547 13.419 70.5033 13.4194C70.6065 13.4202 70.6826 13.3843 70.7317 13.3118C70.7869 13.2333 70.8275 13.0849 70.8535 12.8666C70.8794 12.6422 70.9001 12.3115 70.9156 11.8746C70.994 11.9358 71.0937 11.9973 71.2147 12.0589C71.3356 12.1205 71.4596 12.1761 71.5867 12.2256C71.7138 12.2752 71.8259 12.3124 71.9228 12.3374C71.8823 12.8835 71.8153 13.3109 71.7219 13.6198C71.6346 13.9227 71.5025 14.1341 71.3256 14.2542C71.1486 14.3803 70.9053 14.4422 70.5957 14.4399C70.5411 14.4395 70.4622 14.4389 70.359 14.4381C70.2619 14.4374 70.1556 14.4366 70.0403 14.4357C69.925 14.4348 69.8157 14.434 69.7125 14.4332C69.6154 14.4325 69.5395 14.4319 69.4849 14.4315C69.145 14.4289 68.8813 14.3814 68.6938 14.2889C68.5063 14.2025 68.3769 14.0559 68.3056 13.8489C68.2343 13.642 68.2 13.3625 68.2027 13.0105L68.2266 9.84192ZM63.6065 9.115L71.7737 9.17669L71.7657 10.2329L63.5985 10.1712L63.6065 9.115ZM64.4538 6.6447L70.9547 6.69381L70.9468 7.74088L64.4458 7.69177L64.4538 6.6447ZM65.6852 9.96841L66.8597 9.97728C66.8196 10.4747 66.7553 10.9477 66.6669 11.3963C66.5785 11.8448 66.4388 12.2657 66.2476 12.6588C66.0565 13.0458 65.7837 13.3989 65.4292 13.7179C65.0748 14.0309 64.6114 14.3006 64.0391 14.5269C63.9794 14.3869 63.8835 14.2283 63.7513 14.0513C63.6191 13.8803 63.4926 13.7397 63.3721 13.6296C63.8712 13.4512 64.2674 13.2357 64.5607 12.9829C64.854 12.7241 65.0777 12.4405 65.2318 12.1321C65.3859 11.8176 65.4917 11.4785 65.5491 11.1147C65.6065 10.7448 65.6519 10.3627 65.6852 9.96841ZM76.9474 6.52965C76.9158 6.69331 76.8656 6.90539 76.7969 7.1659C76.7281 7.42641 76.6288 7.72007 76.4989 8.04688C76.4 8.27074 76.286 8.50359 76.1567 8.74542C76.0335 8.98124 75.9074 9.19275 75.7786 9.37995C75.8577 9.34413 75.9581 9.31454 76.0797 9.29117C76.2013 9.26174 76.3259 9.24143 76.4535 9.23026C76.5872 9.21306 76.7056 9.20485 76.8088 9.20563C77.1912 9.20851 77.506 9.32016 77.7532 9.54056C78.0065 9.761 78.1315 10.0867 78.1283 10.5177C78.1274 10.6391 78.1262 10.7878 78.1249 10.9638C78.1297 11.1399 78.1343 11.3251 78.1389 11.5194C78.1436 11.7076 78.1483 11.8928 78.1529 12.0749C78.1576 12.2571 78.1594 12.421 78.1583 12.5666L77.0657 12.5584C77.0787 12.4553 77.0856 12.3339 77.0867 12.1943C77.0939 12.0487 77.0981 11.897 77.0992 11.7392C77.1065 11.5814 77.1107 11.4297 77.1118 11.284C77.119 11.1323 77.1231 10.9957 77.124 10.8743C77.1262 10.583 77.0488 10.382 76.8918 10.2716C76.7409 10.1551 76.5714 10.0962 76.3832 10.0948C76.1283 10.0928 75.8698 10.1546 75.6079 10.2801C75.352 10.3996 75.1354 10.5436 74.9581 10.7123C74.8236 10.8448 74.6859 10.9925 74.545 11.1553C74.4102 11.3182 74.2631 11.5022 74.1038 11.7074L73.135 10.9717C73.5323 10.6104 73.8749 10.2609 74.1628 9.92318C74.4567 9.58546 74.7051 9.25044 74.9079 8.9181C75.1107 8.58576 75.2772 8.25315 75.4071 7.92027C75.5 7.67815 75.5748 7.4268 75.6314 7.1662C75.6941 6.89958 75.7324 6.65099 75.7463 6.42042L76.9474 6.52965ZM73.5176 7.34145C73.748 7.37961 74.0148 7.40894 74.3182 7.42945C74.6216 7.44995 74.8886 7.46107 75.1192 7.46281C75.5198 7.46584 75.957 7.46004 76.4306 7.4454C76.9102 7.43082 77.3961 7.40413 77.888 7.36536C78.3801 7.32051 78.8479 7.26334 79.2916 7.19385L79.2745 8.24996C78.9525 8.29002 78.6031 8.32684 78.2265 8.36042C77.856 8.38797 77.4765 8.41242 77.0878 8.43376C76.7052 8.44909 76.3379 8.46149 75.9857 8.47097C75.6336 8.47438 75.321 8.47505 75.0479 8.47299C74.9265 8.47207 74.7747 8.47092 74.5926 8.46955C74.4166 8.46215 74.2346 8.4547 74.0464 8.44721C73.8584 8.43365 73.6794 8.42016 73.5095 8.40673L73.5176 7.34145ZM80.7092 9.98174C80.6118 10.0114 80.4962 10.0499 80.3623 10.0975C80.2345 10.139 80.1037 10.1836 79.9698 10.2311C79.842 10.2726 79.7263 10.3143 79.6228 10.356C79.3306 10.4691 78.9835 10.6061 78.5817 10.767C78.1859 10.9279 77.7717 11.116 77.3391 11.3312C77.0648 11.4748 76.8331 11.6157 76.6439 11.7539C76.4546 11.8921 76.3109 12.0337 76.2127 12.1786C76.1145 12.3175 76.0648 12.4719 76.0635 12.6419C76.0625 12.7693 76.0891 12.8758 76.143 12.9612C76.1971 13.0405 76.2785 13.1048 76.3874 13.1542C76.4963 13.2036 76.6326 13.238 76.7964 13.2575C76.9601 13.2769 77.1543 13.2875 77.3789 13.2892C77.7674 13.2921 78.1955 13.2741 78.6632 13.2352C79.131 13.1901 79.5654 13.1297 79.9667 13.0538L79.9214 14.2281C79.7269 14.2509 79.4809 14.2733 79.1833 14.2953C78.8856 14.3234 78.5759 14.3423 78.2541 14.3521C77.9384 14.3618 77.6348 14.3656 77.3435 14.3634C76.87 14.3598 76.4455 14.3111 76.0698 14.2172C75.6942 14.1233 75.3979 13.9663 75.181 13.7461C74.9703 13.5199 74.8664 13.2126 74.8693 12.8241C74.8717 12.5084 74.9436 12.2237 75.0852 11.9698C75.2328 11.7159 75.4257 11.4867 75.664 11.2821C75.9023 11.0775 76.1617 10.8944 76.4421 10.7326C76.7287 10.5648 77.0091 10.4121 77.2833 10.2746C77.5636 10.131 77.8165 10.0085 78.0418 9.90696C78.2672 9.80547 78.4773 9.716 78.6722 9.63855C78.8731 9.55509 79.065 9.47155 79.2477 9.38795C79.4243 9.31037 79.5949 9.23578 79.7593 9.16417C79.9238 9.0865 80.0913 9.00582 80.2619 8.92212L80.7092 9.98174ZM84.821 6.88051L90.6209 6.92432L90.6082 8.60874L89.5611 8.60083L89.5671 7.79959L85.8068 7.77119L85.8007 8.57243L84.8083 8.56493L84.821 6.88051ZM87.0936 6.16923L88.2136 6.17769L88.2026 7.62539L87.0827 7.61693L87.0936 6.16923ZM87.1095 8.8919L88.1475 8.89974L88.1205 12.4689L87.0825 12.4611L87.1095 8.8919ZM87.9586 13.4146L88.8004 12.8747C89.0059 12.9916 89.2264 13.1268 89.462 13.2803C89.7037 13.4278 89.9332 13.5783 90.1506 13.7317C90.3741 13.8791 90.5612 14.0171 90.712 14.1457L89.806 14.7489C89.6795 14.6265 89.5075 14.4856 89.2902 14.3262C89.0789 14.1728 88.8555 14.0163 88.6199 13.8567C88.3844 13.6971 88.1639 13.5497 87.9586 13.4146ZM86.2958 12.9468L87.3308 13.3462C87.1473 13.5269 86.9335 13.7074 86.6893 13.8877C86.4452 14.0618 86.189 14.2238 85.9208 14.3735C85.6586 14.5233 85.4057 14.6519 85.1621 14.7594C85.1019 14.6921 85.0206 14.6065 84.9182 14.5026C84.8158 14.3986 84.7134 14.2977 84.6109 14.1998C84.5084 14.1079 84.4149 14.0313 84.3304 13.97C84.6955 13.8513 85.0578 13.7023 85.4173 13.5229C85.7769 13.3375 86.0697 13.1454 86.2958 12.9468ZM86.1415 11.6709L86.1379 12.1534L89.1607 12.1763L89.1644 11.6937L86.1415 11.6709ZM86.1509 10.4326L86.1472 10.9152L89.1701 10.938L89.1737 10.4554L86.1509 10.4326ZM85.1918 9.62407L90.1905 9.66183L90.1653 12.9943L85.1666 12.9565L85.1918 9.62407ZM85.5385 8.3246L89.8543 8.3572L89.8478 9.22217L85.532 9.18957L85.5385 8.3246ZM82.6258 6.98229L83.2329 6.17649C83.4144 6.24464 83.605 6.33106 83.8045 6.43576C84.0102 6.53444 84.2036 6.6391 84.3849 6.74973C84.5723 6.86042 84.7202 6.96473 84.8287 7.06267L84.1846 7.95925C84.0822 7.85528 83.9403 7.74495 83.7591 7.62824C83.584 7.50551 83.3967 7.38876 83.1972 7.27799C82.9978 7.16114 82.8073 7.06258 82.6258 6.98229ZM82.1337 9.44617L82.7317 8.63119C82.9134 8.69327 83.104 8.77059 83.3036 8.86315C83.5093 8.95576 83.7028 9.05435 83.8841 9.15891C84.0655 9.26348 84.2134 9.36779 84.3279 9.47185L83.6928 10.3776C83.5843 10.2736 83.4395 10.1663 83.2582 10.0556C83.083 9.93897 82.8957 9.82829 82.6961 9.72359C82.5027 9.61893 82.3152 9.52646 82.1337 9.44617ZM82.3274 13.9367C82.4749 13.701 82.6348 13.423 82.8072 13.1026C82.9796 12.7821 83.1582 12.4436 83.343 12.0868C83.5278 11.724 83.6975 11.3641 83.852 11.0071L84.7029 11.6691C84.5669 11.9959 84.4187 12.3286 84.2583 12.6674C84.104 13.0001 83.9467 13.3297 83.7864 13.6563C83.6261 13.9829 83.4659 14.2943 83.3059 14.5905L82.3274 13.9367ZM92.6862 13.1681L98.9049 13.2151L98.8969 14.2804L92.6782 14.2334L92.6862 13.1681ZM95.2145 6.33074L96.3436 6.33927L96.2868 13.8509L95.1578 13.8424L95.2145 6.33074ZM92.1662 10.8878L93.277 10.8962L93.2477 14.7749L92.1369 14.7665L92.1662 10.8878ZM98.3394 10.9344L99.4775 10.943L99.4483 14.8126L98.3102 14.804L98.3394 10.9344ZM92.5501 7.07547L93.6427 7.08373L93.6257 9.34177L97.9778 9.37464L97.995 7.1075L99.1422 7.11617L99.117 10.4486L92.525 10.3988L92.5501 7.07547ZM106.603 6.71725C106.596 6.76576 106.586 6.8446 106.574 6.95377C106.567 7.05692 106.56 7.16309 106.553 7.27231C106.546 7.37545 106.539 7.45128 106.533 7.4998C106.526 7.62115 106.522 7.78502 106.52 7.9914C106.519 8.19171 106.517 8.4163 106.515 8.66517C106.513 8.91404 106.511 9.16594 106.509 9.42088C106.514 9.6698 106.515 9.90655 106.513 10.1311C106.518 10.3497 106.519 10.5318 106.518 10.6775L105.383 10.2865C105.384 10.1712 105.385 10.0194 105.386 9.83125C105.388 9.63701 105.389 9.4276 105.391 9.20301C105.393 8.97235 105.391 8.7447 105.387 8.52006C105.389 8.29547 105.387 8.09211 105.383 7.90996C105.378 7.72781 105.373 7.59119 105.367 7.5001C105.357 7.31184 105.343 7.14783 105.326 7.00808C105.309 6.86227 105.294 6.762 105.282 6.70727L106.603 6.71725ZM101.45 7.80741C101.717 7.80942 102.02 7.80868 102.36 7.80518C102.7 7.80168 103.055 7.79829 103.426 7.79502C103.796 7.79174 104.16 7.78842 104.519 7.78506C104.877 7.7817 105.214 7.78121 105.529 7.78359C105.845 7.7799 106.118 7.77893 106.349 7.78068C106.579 7.78242 106.831 7.78432 107.104 7.78638C107.378 7.78238 107.648 7.78138 107.915 7.7834C108.182 7.78542 108.425 7.78725 108.643 7.7889C108.868 7.7906 109.041 7.79191 109.162 7.79282L109.145 8.86714C108.86 8.85285 108.484 8.8409 108.016 8.8313C107.549 8.81563 106.978 8.80525 106.305 8.80016C105.892 8.79704 105.473 8.79995 105.048 8.80888C104.623 8.81174 104.201 8.81766 103.782 8.82663C103.363 8.83561 102.96 8.84773 102.571 8.86301C102.182 8.87222 101.815 8.88765 101.469 8.90932L101.45 7.80741ZM106.355 10.5397C106.351 11.0374 106.288 11.4497 106.164 11.7766C106.046 12.1035 105.868 12.351 105.63 12.5192C105.392 12.6813 105.097 12.761 104.745 12.7584C104.575 12.7571 104.396 12.7193 104.209 12.6451C104.027 12.5708 103.858 12.4633 103.701 12.3225C103.544 12.1817 103.418 12.0078 103.323 11.8007C103.233 11.5936 103.189 11.3505 103.192 11.0712C103.194 10.7252 103.278 10.4284 103.444 10.1808C103.61 9.9271 103.83 9.73147 104.104 9.59393C104.385 9.45036 104.692 9.37983 105.025 9.38235C105.426 9.38538 105.759 9.47895 106.025 9.66307C106.297 9.84116 106.498 10.0825 106.63 10.387C106.767 10.6915 106.834 11.035 106.831 11.4174C106.829 11.7148 106.778 12.0241 106.678 12.345C106.579 12.666 106.416 12.9804 106.189 13.2883C105.968 13.5902 105.668 13.8641 105.29 14.1101C104.918 14.3562 104.452 14.556 103.893 14.7096L102.926 13.7371C103.315 13.6612 103.677 13.5607 104.011 13.4358C104.346 13.3108 104.639 13.1522 104.889 12.9598C105.146 12.7675 105.345 12.5292 105.486 12.245C105.634 11.9608 105.71 11.6184 105.713 11.2178C105.715 10.9264 105.644 10.7073 105.499 10.5605C105.361 10.4138 105.191 10.3397 104.991 10.3382C104.876 10.3373 104.763 10.3638 104.653 10.4176C104.544 10.4714 104.455 10.5527 104.388 10.6614C104.32 10.7702 104.286 10.9035 104.284 11.0613C104.283 11.2677 104.351 11.4351 104.49 11.5636C104.635 11.6861 104.798 11.7481 104.98 11.7494C105.126 11.7505 105.254 11.706 105.364 11.6158C105.48 11.5256 105.557 11.3744 105.595 11.1622C105.633 10.9501 105.605 10.6645 105.51 10.3057L106.355 10.5397ZM112.035 7.15893C112.163 7.1781 112.299 7.19127 112.445 7.19844C112.59 7.20562 112.73 7.2097 112.863 7.21071C112.961 7.21145 113.106 7.21255 113.301 7.21401C113.495 7.20941 113.713 7.20499 113.956 7.20076C114.205 7.19657 114.451 7.19235 114.694 7.18812C114.937 7.18388 115.155 7.17946 115.35 7.17486C115.55 7.16423 115.705 7.1563 115.814 7.15105C116.002 7.13426 116.151 7.12021 116.261 7.1089C116.37 7.09151 116.452 7.07392 116.507 7.05613L117.093 7.87094C116.989 7.93693 116.882 8.0029 116.772 8.06884C116.663 8.13479 116.556 8.20683 116.452 8.28496C116.33 8.36902 116.183 8.48021 116.012 8.61854C115.842 8.7508 115.658 8.89206 115.463 9.04235C115.274 9.19268 115.087 9.33999 114.904 9.4843C114.727 9.62865 114.565 9.75794 114.419 9.87217C114.571 9.83689 114.717 9.81371 114.856 9.80263C114.996 9.78547 115.139 9.77744 115.284 9.77854C115.8 9.78244 116.261 9.88608 116.666 10.0895C117.077 10.2929 117.4 10.5685 117.634 10.9163C117.874 11.258 117.993 11.6505 117.989 12.0936C117.986 12.5731 117.861 13.0062 117.615 13.3928C117.37 13.7795 117 14.0863 116.507 14.3132C116.019 14.5402 115.408 14.6509 114.674 14.6454C114.255 14.6422 113.876 14.5787 113.537 14.4547C113.204 14.3308 112.942 14.1558 112.749 13.9297C112.556 13.7037 112.461 13.4389 112.464 13.1354C112.466 12.8865 112.534 12.6564 112.669 12.4449C112.81 12.2275 113.003 12.0529 113.247 11.9212C113.497 11.7895 113.782 11.7249 114.104 11.7273C114.523 11.7305 114.874 11.8181 115.158 11.9902C115.449 12.1563 115.668 12.3796 115.818 12.6599C115.974 12.9403 116.053 13.2475 116.057 13.5814L114.991 13.719C114.987 13.3851 114.904 13.1174 114.742 12.9158C114.585 12.7083 114.374 12.6035 114.107 12.6015C113.937 12.6002 113.8 12.6447 113.696 12.7349C113.592 12.8191 113.54 12.9189 113.539 13.0342C113.538 13.2042 113.622 13.3414 113.791 13.4459C113.96 13.5504 114.181 13.6036 114.454 13.6057C114.97 13.6096 115.402 13.5521 115.748 13.4334C116.095 13.3085 116.355 13.1314 116.526 12.902C116.704 12.6666 116.794 12.3881 116.797 12.0663C116.799 11.7932 116.716 11.5528 116.547 11.3451C116.385 11.1375 116.162 10.975 115.877 10.8575C115.593 10.74 115.271 10.6799 114.913 10.6772C114.561 10.6745 114.239 10.7176 113.947 10.8065C113.655 10.8893 113.378 11.0116 113.116 11.1735C112.86 11.3294 112.606 11.5217 112.356 11.7505C112.111 11.9733 111.867 12.2234 111.622 12.5007L110.8 11.6386C110.964 11.5063 111.151 11.359 111.358 11.1967C111.566 11.0283 111.777 10.8538 111.991 10.6733C112.21 10.4929 112.415 10.3244 112.604 10.168C112.8 10.0056 112.965 9.87029 113.099 9.76204C113.227 9.65981 113.377 9.53953 113.548 9.40121C113.719 9.26288 113.896 9.12157 114.079 8.97726C114.263 8.82689 114.437 8.68555 114.602 8.55325C114.767 8.41488 114.904 8.29754 115.014 8.20125C114.923 8.20056 114.805 8.2027 114.659 8.20767C114.513 8.21264 114.352 8.2175 114.176 8.22224C114.006 8.22702 113.833 8.23179 113.657 8.23653C113.487 8.24131 113.326 8.2492 113.174 8.2602C113.029 8.26516 112.907 8.27032 112.81 8.27565C112.688 8.28081 112.561 8.28895 112.427 8.30008C112.294 8.31121 112.172 8.32547 112.063 8.34285L112.035 7.15893ZM122.226 6.96274C122.371 7.04882 122.537 7.15024 122.724 7.26699C122.912 7.38374 123.102 7.50355 123.295 7.62642C123.495 7.74933 123.679 7.8691 123.848 7.98571C124.023 8.0963 124.171 8.19454 124.292 8.28044L123.601 9.28594C123.481 9.19397 123.333 9.08966 123.158 8.973C122.982 8.85634 122.801 8.7366 122.614 8.61378C122.427 8.49095 122.239 8.3742 122.052 8.26352C121.871 8.14682 121.705 8.0454 121.554 7.95927L122.226 6.96274ZM120.483 13.4145C120.83 13.3564 121.176 13.2862 121.523 13.2038C121.876 13.1154 122.226 13.0058 122.573 12.8748C122.926 12.744 123.267 12.5917 123.596 12.4182C124.114 12.1307 124.596 11.8066 125.042 11.4457C125.494 11.0849 125.897 10.6995 126.253 10.2894C126.614 9.87931 126.918 9.45971 127.164 9.03058L127.855 10.2742C127.426 10.9022 126.896 11.4931 126.267 12.0468C125.643 12.6006 124.957 13.0901 124.207 13.5155C123.896 13.6892 123.555 13.8505 123.183 13.9994C122.818 14.1484 122.456 14.2762 122.097 14.3828C121.744 14.4954 121.431 14.575 121.157 14.6215L120.483 13.4145ZM120.808 9.02809C120.959 9.11422 121.128 9.21566 121.316 9.33241C121.509 9.44314 121.702 9.55993 121.896 9.6828C122.089 9.80567 122.27 9.92237 122.439 10.0329C122.615 10.1435 122.76 10.2417 122.874 10.3276L122.202 11.3423C122.069 11.2503 121.918 11.149 121.749 11.0384C121.58 10.9218 121.399 10.8021 121.205 10.6792C121.018 10.5503 120.831 10.4305 120.643 10.3198C120.462 10.2092 120.293 10.1138 120.136 10.0337L120.808 9.02809ZM129.606 10.0142C129.715 10.0211 129.854 10.0313 130.024 10.0447C130.194 10.052 130.37 10.0594 130.552 10.0669C130.74 10.0744 130.913 10.0787 131.071 10.0799C131.223 10.0811 131.411 10.0825 131.636 10.0842C131.86 10.0859 132.103 10.0877 132.364 10.0897C132.631 10.0917 132.904 10.0938 133.183 10.0959C133.469 10.098 133.751 10.1002 134.03 10.1023C134.309 10.1044 134.573 10.1064 134.822 10.1082C135.071 10.1101 135.293 10.1118 135.487 10.1133C135.687 10.1148 135.845 10.116 135.96 10.1168C136.173 10.1184 136.373 10.1139 136.562 10.1032C136.75 10.0864 136.905 10.0754 137.026 10.0703L137.015 11.4997C136.912 11.4929 136.757 11.4826 136.551 11.4689C136.345 11.4552 136.145 11.4476 135.95 11.4462C135.835 11.4453 135.677 11.4441 135.477 11.4426C135.277 11.4411 135.052 11.4394 134.803 11.4375C134.554 11.4356 134.29 11.4336 134.011 11.4315C133.738 11.4295 133.459 11.4274 133.173 11.4252C132.888 11.423 132.612 11.421 132.345 11.4189C132.084 11.417 131.841 11.4151 131.616 11.4134C131.398 11.4118 131.213 11.4104 131.061 11.4092C130.8 11.4073 130.533 11.4113 130.26 11.4214C129.986 11.4254 129.765 11.4328 129.595 11.4437L129.606 10.0142ZM145.301 8.17509C145.264 8.22944 145.209 8.31401 145.135 8.42879C145.067 8.54361 145.015 8.64945 144.978 8.74629C144.848 9.03062 144.688 9.3481 144.497 9.69874C144.312 10.0494 144.1 10.4029 143.861 10.7593C143.628 11.1096 143.379 11.4386 143.116 11.7462C142.773 12.126 142.394 12.5025 141.978 12.8757C141.569 13.2429 141.135 13.5826 140.678 13.8948C140.226 14.201 139.763 14.4646 139.288 14.6856L138.357 13.6952C138.85 13.5108 139.329 13.2776 139.792 12.9958C140.256 12.714 140.686 12.4077 141.083 12.0768C141.48 11.7459 141.822 11.4238 142.11 11.1103C142.312 10.8811 142.502 10.6367 142.68 10.377C142.864 10.1174 143.027 9.86064 143.169 9.60675C143.31 9.3468 143.415 9.10781 143.484 8.8898C143.423 8.88934 143.314 8.88851 143.156 8.88732C142.998 8.88613 142.813 8.88473 142.6 8.88313C142.394 8.88157 142.175 8.87992 141.945 8.87817C141.714 8.87643 141.493 8.87476 141.28 8.87315C141.074 8.87159 140.892 8.87022 140.734 8.86903C140.576 8.86783 140.464 8.86699 140.397 8.86648C140.269 8.86552 140.136 8.87058 139.996 8.88166C139.857 8.88668 139.723 8.89478 139.595 8.90595C139.474 8.91111 139.38 8.91647 139.313 8.92203L139.323 7.62912C139.414 7.63588 139.526 7.64583 139.659 7.65898C139.793 7.67213 139.926 7.68224 140.06 7.68932C140.199 7.69645 140.315 7.70035 140.406 7.70104C140.485 7.70164 140.609 7.70258 140.779 7.70386C140.949 7.70515 141.143 7.70661 141.362 7.70826C141.58 7.70991 141.805 7.71161 142.036 7.71335C142.272 7.71514 142.497 7.71684 142.709 7.71844C142.928 7.72009 143.116 7.72152 143.274 7.72271C143.432 7.7239 143.547 7.72477 143.62 7.72532C143.82 7.72683 144.002 7.71607 144.166 7.69303C144.337 7.67003 144.467 7.6437 144.559 7.61404L145.301 8.17509ZM143.24 10.9913C143.475 11.1813 143.726 11.4017 143.991 11.6526C144.256 11.9035 144.518 12.1635 144.777 12.4325C145.036 12.7016 145.274 12.9613 145.491 13.2119C145.713 13.4564 145.9 13.6702 146.05 13.8535L145.005 14.747C144.783 14.4358 144.528 14.1121 144.239 13.7761C143.956 13.4401 143.655 13.1069 143.336 12.7767C143.023 12.4405 142.703 12.1224 142.378 11.8225L143.24 10.9913ZM151.62 14.196C151.639 14.1051 151.655 14.0021 151.668 13.8868C151.687 13.7656 151.697 13.6442 151.698 13.5228C151.699 13.456 151.7 13.3225 151.701 13.1222C151.703 12.9219 151.704 12.6791 151.707 12.3938C151.709 12.1085 151.711 11.802 151.714 11.4742C151.716 11.1403 151.719 10.8035 151.721 10.4635C151.724 10.1236 151.726 9.80495 151.728 9.50752C151.731 9.20402 151.733 8.93997 151.734 8.71538C151.736 8.48472 151.737 8.3178 151.738 8.21461C151.74 8.00823 151.729 7.82907 151.706 7.67714C151.689 7.52525 151.677 7.44321 151.671 7.43103L153.028 7.44128C153.022 7.45337 153.009 7.53826 152.99 7.69594C152.97 7.84755 152.96 8.02655 152.958 8.23293C152.957 8.33612 152.956 8.4909 152.955 8.69728C152.953 8.89759 152.951 9.13129 152.949 9.39837C152.947 9.65938 152.945 9.9386 152.943 10.236C152.941 10.5335 152.939 10.8279 152.936 11.1192C152.934 11.4045 152.932 11.6777 152.93 11.9387C152.928 12.1936 152.927 12.4121 152.925 12.5942C152.924 12.7763 152.923 12.9099 152.922 12.9948C153.172 12.8875 153.431 12.7407 153.7 12.5545C153.968 12.3684 154.231 12.1518 154.488 11.9049C154.75 11.6519 154.983 11.3805 155.186 11.0907L155.879 12.0975C155.628 12.4234 155.322 12.7428 154.961 13.0558C154.607 13.3688 154.241 13.6543 153.862 13.9125C153.484 14.1707 153.121 14.3865 152.774 14.5599C152.676 14.6138 152.597 14.6617 152.536 14.7038C152.475 14.7519 152.423 14.794 152.38 14.8301L151.62 14.196ZM147.406 14.0276C147.808 13.7514 148.139 13.417 148.397 13.0244C148.655 12.6318 148.846 12.2447 148.97 11.8632C149.038 11.6634 149.089 11.4179 149.121 11.1268C149.16 10.8297 149.19 10.5142 149.21 10.1805C149.231 9.84073 149.243 9.50695 149.245 9.17917C149.254 8.84537 149.259 8.53885 149.261 8.25963C149.263 8.07753 149.255 7.92268 149.237 7.79507C149.226 7.66144 149.209 7.53687 149.186 7.42136L150.524 7.43147C150.518 7.44356 150.508 7.49509 150.496 7.58605C150.489 7.67098 150.479 7.7741 150.466 7.89541C150.459 8.01069 150.455 8.13207 150.454 8.25954C150.452 8.52662 150.447 8.8392 150.438 9.19729C150.429 9.5493 150.414 9.91037 150.393 10.2805C150.372 10.6506 150.342 11.0025 150.303 11.3361C150.264 11.6636 150.214 11.9424 150.151 12.1726C150.008 12.6875 149.795 13.1655 149.512 13.6065C149.236 14.0414 148.902 14.4305 148.511 14.7735L147.406 14.0276ZM157.287 10.2233C157.396 10.2302 157.535 10.2404 157.705 10.2538C157.875 10.2611 158.051 10.2685 158.233 10.276C158.421 10.2835 158.594 10.2878 158.752 10.289C158.904 10.2902 159.092 10.2916 159.317 10.2933C159.541 10.295 159.784 10.2968 160.045 10.2988C160.312 10.3008 160.585 10.3029 160.864 10.305C161.15 10.3071 161.432 10.3093 161.711 10.3114C161.99 10.3135 162.254 10.3155 162.503 10.3174C162.752 10.3192 162.974 10.3209 163.168 10.3224C163.368 10.3239 163.526 10.3251 163.641 10.3259C163.854 10.3276 164.054 10.323 164.242 10.3123C164.431 10.2955 164.586 10.2845 164.707 10.2794L164.696 11.7089C164.593 11.702 164.438 11.6917 164.232 11.678C164.026 11.6643 163.826 11.6567 163.631 11.6553C163.516 11.6544 163.358 11.6532 163.158 11.6517C162.958 11.6502 162.733 11.6485 162.484 11.6466C162.235 11.6447 161.971 11.6427 161.692 11.6406C161.419 11.6386 161.14 11.6365 160.854 11.6343C160.569 11.6321 160.293 11.6301 160.026 11.628C159.765 11.6261 159.522 11.6242 159.297 11.6225C159.079 11.6209 158.894 11.6195 158.742 11.6183C158.481 11.6164 158.214 11.6204 157.941 11.6305C157.667 11.6345 157.446 11.6419 157.276 11.6528L157.287 10.2233ZM169.796 12.7854L170.88 12.7936L170.861 15.3339L169.777 15.3257L169.796 12.7854ZM169.482 9.82374L170.462 10.2955C170.181 10.5241 169.894 10.7465 169.601 10.9628C169.308 11.1731 169.039 11.3501 168.795 11.494L168.061 11.0878C168.22 10.9797 168.384 10.8535 168.555 10.7091C168.733 10.5587 168.901 10.4082 169.06 10.2576C169.225 10.101 169.365 9.95641 169.482 9.82374ZM171.39 10.339L172.351 10.8743C171.997 11.1327 171.613 11.3938 171.198 11.6578C170.783 11.9218 170.369 12.1706 169.954 12.4042C169.54 12.6317 169.153 12.8321 168.793 13.0055L168.096 12.5085C168.461 12.3292 168.845 12.1166 169.248 11.8707C169.65 11.6188 170.038 11.3607 170.41 11.0964C170.788 10.8261 171.115 10.5736 171.39 10.339ZM167.067 11.2897L167.782 10.6941C168.005 10.799 168.244 10.9283 168.498 11.082C168.758 11.2296 169.003 11.3802 169.232 11.5337C169.462 11.6872 169.652 11.8282 169.803 11.9569L169.042 12.6249C168.903 12.4903 168.722 12.3433 168.499 12.1837C168.281 12.0243 168.046 11.8677 167.792 11.714C167.544 11.5543 167.303 11.4129 167.067 11.2897ZM171.779 11.8716L172.539 11.331C172.781 11.4785 173.034 11.6504 173.3 11.8467C173.572 12.043 173.825 12.2392 174.06 12.4352C174.296 12.6312 174.488 12.8178 174.639 12.995L173.815 13.5988C173.683 13.4279 173.502 13.2414 173.273 13.0393C173.05 12.8373 172.805 12.6351 172.54 12.4328C172.28 12.2245 172.027 12.0374 171.779 11.8716ZM171.436 13.9087L172.25 13.3594C172.474 13.4703 172.716 13.5966 172.976 13.7382C173.242 13.8798 173.496 14.0274 173.738 14.181C173.979 14.3285 174.182 14.4666 174.345 14.5953L173.484 15.1989C173.333 15.0824 173.14 14.9444 172.904 14.7848C172.675 14.6313 172.43 14.4777 172.17 14.324C171.917 14.1642 171.672 14.0258 171.436 13.9087ZM166.348 12.4133C166.803 12.4168 167.313 12.4176 167.878 12.4158C168.449 12.414 169.053 12.4095 169.69 12.4022C170.327 12.3948 170.98 12.3907 171.648 12.3896C172.322 12.3826 172.983 12.3755 173.633 12.3682L173.581 13.1782C172.926 13.1854 172.27 13.1956 171.614 13.2089C170.959 13.2221 170.318 13.2325 169.693 13.2399C169.067 13.2473 168.472 13.255 167.908 13.2628C167.349 13.2708 166.845 13.2761 166.396 13.2787L166.348 12.4133ZM168.226 13.3563L169.234 13.7463C169.038 13.933 168.809 14.1195 168.547 14.3057C168.284 14.4919 168.013 14.6628 167.732 14.8186C167.458 14.9743 167.193 15.1059 166.937 15.2132C166.877 15.146 166.796 15.0634 166.693 14.9655C166.597 14.8737 166.497 14.7789 166.395 14.681C166.298 14.5892 166.208 14.5157 166.123 14.4604C166.513 14.3298 166.899 14.1688 167.283 13.9775C167.667 13.78 167.981 13.573 168.226 13.3563ZM169.833 6.78515L170.934 6.79347L170.91 10.0622L169.808 10.0538L169.833 6.78515ZM166.851 7.26343L174.063 7.3179L174.057 8.11004L166.845 8.05556L166.851 7.26343ZM167.325 8.4052L173.581 8.45245L173.575 9.23548L167.32 9.18823L167.325 8.4052ZM166.343 9.52686L174.446 9.58807L174.44 10.4166L166.336 10.3554L166.343 9.52686ZM179.552 8.75251L184.022 8.78628L184.014 9.82425L179.544 9.79048L179.552 8.75251ZM182.006 6.89532L183.162 6.90405L183.108 14.1152C183.105 14.4248 183.067 14.6612 182.993 14.8246C182.919 14.9879 182.788 15.1114 182.599 15.1949C182.41 15.2845 182.17 15.3404 181.878 15.3625C181.593 15.3846 181.25 15.3942 180.849 15.3911C180.832 15.2392 180.785 15.0537 180.707 14.8346C180.636 14.6216 180.565 14.439 180.493 14.2867C180.742 14.2946 180.988 14.3025 181.23 14.3105C181.473 14.3123 181.637 14.3135 181.722 14.3142C181.807 14.3087 181.865 14.291 181.896 14.2608C181.932 14.2308 181.951 14.1763 181.951 14.0974L182.006 6.89532ZM181.897 9.28014L182.776 9.8149C182.609 10.2082 182.406 10.6073 182.166 11.0122C181.926 11.4171 181.662 11.8097 181.374 12.19C181.086 12.5641 180.783 12.9139 180.465 13.2393C180.153 13.5587 179.838 13.8356 179.52 14.0699C179.424 13.9235 179.301 13.7647 179.151 13.5936C179.006 13.4226 178.865 13.2819 178.726 13.1716C179.049 12.9737 179.367 12.7302 179.678 12.4412C179.99 12.1461 180.284 11.8266 180.56 11.4827C180.836 11.1327 181.087 10.7704 181.315 10.3957C181.548 10.0211 181.742 9.64926 181.897 9.28014ZM175.627 8.72287L179.297 8.75059L179.289 9.78855L175.619 9.76084L175.627 8.72287ZM177.053 6.84879L178.154 6.85712L178.09 15.4067L176.988 15.3984L177.053 6.84879ZM176.988 9.43427L177.705 9.68554C177.617 10.0612 177.508 10.4459 177.378 10.8395C177.253 11.2331 177.114 11.6205 176.959 12.0018C176.805 12.377 176.638 12.7278 176.46 13.0543C176.281 13.3747 176.091 13.6525 175.889 13.8877C175.835 13.7234 175.752 13.5376 175.638 13.3303C175.524 13.1231 175.422 12.9463 175.332 12.7999C175.516 12.5949 175.691 12.3625 175.857 12.1027C176.029 11.8369 176.186 11.5559 176.327 11.2595C176.469 10.957 176.596 10.6514 176.708 10.3427C176.825 10.0279 176.919 9.72512 176.988 9.43427ZM178.049 9.94309C178.11 9.99211 178.191 10.0686 178.293 10.1726C178.396 10.2705 178.507 10.3836 178.628 10.512C178.754 10.6344 178.878 10.7567 178.998 10.879C179.119 11.0013 179.227 11.1145 179.323 11.2184C179.42 11.3223 179.489 11.3987 179.531 11.4476L178.887 12.3715C178.815 12.2435 178.716 12.094 178.59 11.9231C178.47 11.7461 178.343 11.5691 178.211 11.3921C178.079 11.209 177.95 11.038 177.824 10.8793C177.697 10.7205 177.589 10.5891 177.499 10.4853L178.049 9.94309Z" fill="#61BDD1"/>
</svg>
