<svg width="146" height="32" viewBox="0 0 146 32" fill="none" xmlns="http://www.w3.org/2000/svg">
<rect width="144.01" height="19.5048" transform="translate(0 11.6475) rotate(-4.63914)" fill="#FFEE00"/>
<path d="M14.4851 16.6783C14.4894 16.8059 14.4916 16.9458 14.4917 17.098C14.4975 17.2437 14.5077 17.4073 14.5224 17.5888C14.5352 17.7461 14.5507 17.9367 14.5688 18.1606C14.587 18.3844 14.6052 18.6083 14.6233 18.8321C14.641 19.0499 14.656 19.2345 14.6683 19.3857C14.7075 19.8698 14.7177 20.2952 14.6987 20.6622C14.6859 21.0286 14.6451 21.3517 14.5764 21.6313C14.5078 21.9109 14.4155 22.162 14.2995 22.3846C14.1892 22.6006 14.0569 22.8093 13.9027 23.0106C13.7207 23.2446 13.5068 23.4599 13.2608 23.6564C13.0144 23.847 12.7628 24.0105 12.5059 24.1471C12.2556 24.2892 12.0214 24.4056 11.8034 24.4964L10.7695 23.5754C11.2149 23.4357 11.6118 23.2604 11.9601 23.0495C12.3139 22.8319 12.6152 22.5669 12.8639 22.2544C13.007 22.0662 13.1198 21.8804 13.2023 21.6971C13.2849 21.5138 13.3418 21.3143 13.373 21.0986C13.4098 20.8764 13.4262 20.6284 13.4223 20.3547C13.4244 20.0805 13.4112 19.7679 13.3827 19.417C13.37 19.2597 13.3547 19.0721 13.3371 18.8543C13.3194 18.6365 13.302 18.4217 13.2848 18.2099C13.2676 17.9982 13.2536 17.8257 13.2428 17.6926C13.2281 17.5111 13.2088 17.3483 13.1849 17.204C13.1666 17.0533 13.1432 16.9151 13.1147 16.7895L14.4851 16.6783ZM10.28 17.0926C10.2828 17.202 10.2856 17.3114 10.2884 17.4208C10.2906 17.5242 10.2977 17.6484 10.3095 17.7936C10.3149 17.8602 10.3237 17.9691 10.336 18.1204C10.3483 18.2716 10.3627 18.4501 10.3794 18.6558C10.3956 18.8555 10.4128 19.0672 10.431 19.2911C10.4487 19.5089 10.4658 19.7207 10.4825 19.9264C10.4992 20.1321 10.5144 20.3196 10.5282 20.489C10.5414 20.6524 10.5515 20.7764 10.5584 20.8611C10.5677 20.9761 10.5815 21.1089 10.5999 21.2597C10.6182 21.4105 10.6348 21.5401 10.6497 21.6485L9.33374 21.7553C9.33292 21.6701 9.33218 21.5483 9.33151 21.39C9.33085 21.2317 9.32512 21.0861 9.31432 20.9529C9.30744 20.8682 9.29738 20.7442 9.28412 20.5809C9.27087 20.4175 9.25589 20.233 9.2392 20.0273C9.22202 19.8155 9.20459 19.6007 9.18691 19.3829C9.16875 19.159 9.15156 18.9473 9.13536 18.7476C9.11916 18.548 9.10492 18.3725 9.09265 18.2212C9.08038 18.07 9.07154 17.9611 9.06614 17.8945C9.05926 17.8098 9.0474 17.7012 9.03055 17.5685C9.01321 17.4299 8.99407 17.3066 8.97313 17.1987L10.28 17.0926ZM19.1532 23.0961C19.7548 22.7793 20.2602 22.4399 20.6693 22.0778C21.0844 21.7153 21.426 21.3465 21.694 20.9715C21.968 20.5961 22.1816 20.2255 22.3346 19.8599C22.4876 19.4942 22.6028 19.1499 22.6801 18.827C22.757 18.4979 22.8126 18.2072 22.8469 17.9547C22.8781 17.739 22.8979 17.5334 22.9064 17.3378C22.9144 17.1362 22.911 16.9812 22.8961 16.8728L24.3529 17.0378C24.3117 17.2055 24.2747 17.3882 24.242 17.5857C24.2093 17.7833 24.1846 17.9284 24.1677 18.0211C24.0942 18.4656 23.9835 18.9404 23.8357 19.4457C23.6935 19.9445 23.4822 20.4549 23.2017 20.9771C22.9274 21.4987 22.5578 22.0098 22.0929 22.5104C21.6281 23.011 21.0362 23.4853 20.3174 23.9334L19.1532 23.0961ZM18.4636 16.8488C18.5853 16.9972 18.7283 17.1836 18.8926 17.4077C19.057 17.6319 19.2253 17.868 19.3977 18.1158C19.5696 18.3577 19.7286 18.5914 19.8748 18.8171C20.021 19.0427 20.1429 19.2308 20.2403 19.3812L19.0976 20.1591C18.9686 19.9198 18.8242 19.6788 18.6644 19.436C18.5102 19.1866 18.3534 18.9436 18.1942 18.7068C18.0344 18.464 17.8796 18.2451 17.7298 18.0502C17.5855 17.8488 17.4561 17.6796 17.3415 17.5428L18.4636 16.8488ZM23.3537 15.4197C23.4352 15.5227 23.5274 15.6462 23.6304 15.79C23.733 15.9279 23.8297 16.0692 23.9206 16.2141C24.0171 16.3525 24.097 16.4739 24.1603 16.5784L23.4328 16.9571C23.362 16.835 23.2814 16.7045 23.1909 16.5657C23.1 16.4208 23.0065 16.2822 22.9105 16.1499C22.814 16.0116 22.719 15.8914 22.6255 15.7894L23.3537 15.4197ZM24.5553 15.0299C24.6428 15.1324 24.7378 15.2526 24.8404 15.3904C24.9429 15.5282 25.0424 15.6663 25.1389 15.8047C25.2354 15.943 25.3153 16.0644 25.3786 16.1689L24.6518 16.5567C24.5337 16.3775 24.4019 16.1781 24.2561 15.9585C24.1104 15.7389 23.9674 15.5526 23.8271 15.3995L24.5553 15.0299ZM26.9583 18.5255C27.0677 18.5227 27.2076 18.5205 27.378 18.5188C27.5479 18.5111 27.7239 18.5029 27.9059 18.4943C28.0939 18.4851 28.2666 18.4741 28.4239 18.4614C28.5752 18.4491 28.7627 18.4339 28.9866 18.4157C29.2104 18.3975 29.4525 18.3779 29.7126 18.3568C29.9788 18.3352 30.2511 18.3131 30.5294 18.2905C30.8138 18.2674 31.0951 18.2446 31.3734 18.222C31.6517 18.1994 31.9149 18.1781 32.163 18.158C32.411 18.1378 32.6319 18.1199 32.8255 18.1042C33.0251 18.088 33.1825 18.0752 33.2974 18.0659C33.5092 18.0487 33.7083 18.0265 33.8949 17.9991C34.081 17.9658 34.2343 17.9412 34.3548 17.9253L34.4704 19.3501C34.3671 19.3524 34.2121 19.3559 34.0054 19.3605C33.7987 19.365 33.5985 19.3752 33.4049 19.3909C33.29 19.4002 33.1327 19.413 32.933 19.4292C32.7333 19.4454 32.5095 19.4636 32.2614 19.4837C32.0134 19.5038 31.7502 19.5252 31.4719 19.5478C31.1996 19.5699 30.9213 19.5924 30.6369 19.6155C30.3526 19.6386 30.0773 19.6609 29.8111 19.6825C29.5509 19.7036 29.3089 19.7233 29.085 19.7415C28.8672 19.7591 28.6827 19.7741 28.5314 19.7864C28.2713 19.8075 28.0055 19.8351 27.7343 19.8693C27.4625 19.8975 27.2424 19.9245 27.074 19.9503L26.9583 18.5255ZM38.591 20.9341C38.5817 20.8192 38.5665 20.6316 38.5454 20.3715C38.5238 20.1053 38.499 19.7997 38.471 19.4548C38.4425 19.1039 38.4128 18.7379 38.3819 18.3567C38.351 17.9756 38.3213 17.6095 38.2928 17.2586C38.2638 16.9016 38.2383 16.587 38.2162 16.3148C38.1941 16.0425 38.1779 15.8428 38.1676 15.7158C38.1548 15.5585 38.131 15.3777 38.0962 15.1735C38.0674 14.9687 38.0315 14.7889 37.9885 14.6341L39.4042 14.5192C39.3989 14.678 39.3949 14.8549 39.3925 15.05C39.3896 15.239 39.3957 15.4273 39.4109 15.6149C39.4247 15.7843 39.4433 16.0142 39.4669 16.3046C39.4905 16.595 39.5167 16.9187 39.5457 17.2757C39.5742 17.6266 39.6034 17.9866 39.6333 18.3557C39.6628 18.7187 39.6913 19.0696 39.7188 19.4084C39.7463 19.7472 39.7703 20.0437 39.7909 20.2978C39.8111 20.5459 39.8255 20.7243 39.8344 20.8333C39.8413 20.918 39.8541 21.0387 39.8729 21.1955C39.8912 21.3463 39.9161 21.5026 39.9475 21.6645C39.9789 21.8264 40.0028 21.9706 40.0192 22.0972L38.6034 22.2121C38.6129 22.0286 38.6169 21.8151 38.6154 21.5716C38.6139 21.3281 38.6058 21.1157 38.591 20.9341ZM39.241 16.8985C39.5499 16.9526 39.8971 17.0279 40.2825 17.1245C40.6675 17.2151 41.0562 17.3145 41.4486 17.4227C41.8411 17.531 42.2093 17.6412 42.5534 17.7533C42.903 17.8589 43.1944 17.9601 43.4276 18.0569L43.0119 19.3513C42.747 19.2388 42.4549 19.1285 42.1355 19.0205C41.8157 18.9063 41.4902 18.7988 41.1593 18.6977C40.8343 18.5962 40.5132 18.5035 40.1958 18.4196C39.8844 18.3353 39.6013 18.2608 39.3463 18.1962L39.241 16.8985ZM48.7108 14.6045C48.992 14.6182 49.3058 14.6201 49.6522 14.6103C50.0041 14.5939 50.3585 14.5712 50.7155 14.5423C51.078 14.5068 51.4249 14.4664 51.7562 14.4213C52.087 14.3701 52.3724 14.3226 52.6125 14.2787L52.7075 15.4494C52.4311 15.4962 52.1273 15.5422 51.796 15.5874C51.4642 15.6265 51.1229 15.6602 50.772 15.6887C50.421 15.7172 50.0757 15.7391 49.7359 15.7545C49.4016 15.7634 49.0914 15.7672 48.805 15.7661L48.7108 14.6045ZM49.7513 18.4207C49.7272 18.575 49.7111 18.7133 49.7027 18.8358C49.6939 18.9522 49.6944 19.0709 49.7042 19.1919C49.7121 19.2887 49.7436 19.3775 49.7989 19.4583C49.8537 19.533 49.9319 19.5967 50.0337 19.6494C50.1409 19.6955 50.2744 19.7273 50.4342 19.7447C50.5995 19.7557 50.7971 19.7518 51.0271 19.7332C51.4324 19.7003 51.8121 19.6512 52.1661 19.5859C52.5197 19.5146 52.8929 19.4234 53.2858 19.3124L53.4034 20.5361C53.1174 20.6141 52.7851 20.6837 52.4064 20.7449C52.0337 20.8056 51.5902 20.8568 51.0759 20.8985C50.2955 20.9618 49.7041 20.8789 49.3018 20.6497C48.899 20.4144 48.6787 20.0638 48.6409 19.5979C48.6267 19.4225 48.6241 19.24 48.6331 19.0505C48.6476 18.8544 48.6697 18.6394 48.6995 18.4056L49.7513 18.4207ZM47.2638 14.1098C47.2445 14.1723 47.2242 14.2592 47.2028 14.3706C47.1813 14.4819 47.1597 14.5902 47.1378 14.6956C47.1219 14.8004 47.1102 14.8805 47.1025 14.9359C47.0946 15.0645 47.0779 15.2333 47.0522 15.4425C47.0321 15.6451 47.0112 15.8751 46.9895 16.1327C46.9733 16.3837 46.9576 16.6407 46.9424 16.9039C46.9272 17.167 46.9174 17.4205 46.9128 17.6645C46.9143 17.908 46.9224 18.1205 46.9371 18.302C46.944 18.3867 46.9518 18.4835 46.9607 18.5924C46.9756 18.7008 46.9958 18.7996 47.0213 18.8889C47.0553 18.7826 47.0923 18.6761 47.1324 18.5693C47.1724 18.4625 47.2125 18.3557 47.2526 18.249C47.2921 18.1361 47.3261 18.0298 47.3546 17.9301L47.9533 18.3291C47.8888 18.5841 47.8226 18.8574 47.7549 19.1491C47.6933 19.4404 47.6365 19.716 47.5845 19.976C47.5381 20.2294 47.5034 20.4393 47.4803 20.6056C47.4736 20.6732 47.4677 20.7498 47.4624 20.8355C47.4633 20.9207 47.4656 20.9875 47.4696 21.0359C47.4735 21.0843 47.4782 21.1417 47.4836 21.2083C47.4955 21.2804 47.5069 21.3465 47.5179 21.4065L46.471 21.5645C46.3548 21.2573 46.2392 20.8464 46.1244 20.332C46.0091 19.8115 45.9264 19.2427 45.8763 18.6256C45.8488 18.2867 45.8359 17.9407 45.8377 17.5873C45.8395 17.2339 45.8485 16.8952 45.8649 16.5711C45.8807 16.2409 45.896 15.9413 45.9107 15.6721C45.9314 15.4025 45.9498 15.1787 45.9658 15.0008C45.9676 14.8727 45.9712 14.7293 45.9766 14.5705C45.9875 14.4052 45.9901 14.2497 45.9844 14.104L47.2638 14.1098ZM57.6228 13.5433L62.3693 13.1581L62.4495 14.1474L57.7031 14.5325L57.6228 13.5433ZM57.6069 17.0616L62.9886 16.6249L63.0681 17.6051L57.6864 18.0418L57.6069 17.0616ZM57.386 15.353L62.9129 14.9045L62.9932 15.8937L57.4663 16.3422L57.386 15.353ZM59.4121 12.4024L60.4467 12.3184L60.7133 15.6037L59.6787 15.6877L59.4121 12.4024ZM60.8744 15.9012L61.909 15.8173L62.2132 19.5654C62.2348 19.8316 62.2212 20.0398 62.1725 20.1899C62.1243 20.3461 62.0159 20.4736 61.8473 20.5726C61.6843 20.665 61.4795 20.7303 61.2329 20.7686C60.9923 20.8064 60.7087 20.8385 60.382 20.865C60.3516 20.7153 60.298 20.543 60.2213 20.3482C60.1451 20.1595 60.068 19.9983 59.9902 19.8646C60.1964 19.8539 60.4026 19.8433 60.6088 19.8326C60.8145 19.8159 60.9474 19.8021 61.0074 19.7912C61.08 19.7853 61.1277 19.7723 61.1504 19.7522C61.1726 19.726 61.1813 19.6827 61.1764 19.6221L60.8744 15.9012ZM58.2192 18.5284L59.0423 17.9774C59.1877 18.1179 59.3345 18.2765 59.4829 18.4532C59.6307 18.6239 59.7664 18.7956 59.8901 18.9683C60.0132 19.1349 60.1142 19.2912 60.193 19.437L59.3017 20.0483C59.2415 19.907 59.1526 19.7498 59.0351 19.5767C58.917 19.3975 58.7866 19.2162 58.6438 19.0329C58.5071 18.8491 58.3655 18.6809 58.2192 18.5284ZM54.4462 17.4003C54.8084 17.2857 55.2412 17.1409 55.7447 16.9661C56.2542 16.7908 56.7632 16.6094 57.2718 16.4219L57.4874 17.391C57.0207 17.569 56.5483 17.7504 56.07 17.9354C55.5972 18.1139 55.1629 18.277 54.7668 18.4248L54.4462 17.4003ZM54.3572 14.5025L57.1615 14.275L57.2425 15.2733L54.4382 15.5008L54.3572 14.5025ZM55.2435 12.7041L56.2418 12.6231L56.8354 19.9379C56.8555 20.1859 56.8442 20.3848 56.8016 20.5344C56.7654 20.6896 56.6812 20.8152 56.5489 20.9112C56.4162 21.0011 56.2482 21.0696 56.0449 21.1165C55.8477 21.1629 55.6006 21.1952 55.3037 21.2132C55.2808 21.0811 55.234 20.9174 55.1633 20.7221C55.0932 20.5329 55.0189 20.3684 54.9406 20.2286C55.1044 20.2214 55.2562 20.2152 55.3958 20.21C55.541 20.1982 55.6406 20.1871 55.6946 20.1766C55.749 20.1722 55.7876 20.1599 55.8104 20.1398C55.8326 20.1136 55.8413 20.0703 55.8363 20.0098L55.2435 12.7041ZM64.8414 15.8168C64.9781 15.7753 65.1355 15.726 65.3136 15.6689C65.4911 15.6058 65.6478 15.5474 65.7835 15.4937C65.9308 15.4331 66.1284 15.3531 66.3761 15.2538C66.6238 15.1545 66.8958 15.0533 67.1919 14.9501C67.4941 14.8464 67.7972 14.7548 68.1014 14.6753C68.4116 14.5953 68.7058 14.5441 68.9841 14.5215C69.4621 14.4827 69.8869 14.5396 70.2586 14.6921C70.6359 14.8381 70.9379 15.0694 71.1645 15.386C71.3912 15.7025 71.5232 16.0907 71.5605 16.5505C71.5939 16.962 71.5335 17.3444 71.3795 17.698C71.2316 18.051 70.9864 18.3693 70.644 18.6529C70.3016 18.9365 69.8645 19.179 69.3328 19.3805C68.8075 19.5876 68.1867 19.7415 67.4701 19.8423L66.8985 18.765C67.4179 18.7107 67.8922 18.6265 68.3214 18.5125C68.7567 18.398 69.1288 18.2552 69.4377 18.0839C69.7521 17.9062 69.9877 17.6952 70.1445 17.4511C70.3074 17.2064 70.3765 16.9328 70.352 16.6303C70.3333 16.4004 70.2627 16.2052 70.14 16.0446C70.0229 15.8775 69.8636 15.7534 69.6622 15.6723C69.4607 15.5912 69.2269 15.5615 68.9607 15.5831C68.7489 15.6002 68.5152 15.6466 68.2594 15.7222C68.0037 15.7977 67.7401 15.8892 67.4686 15.9965C67.2032 16.1033 66.9414 16.2159 66.683 16.3343C66.4247 16.4527 66.1842 16.5666 65.9617 16.676C65.7391 16.7854 65.5549 16.8795 65.4091 16.9583L64.8414 15.8168ZM72.8885 12.743C73.0695 12.7222 73.2415 12.7022 73.4043 12.6829C73.5667 12.6575 73.693 12.6382 73.7833 12.6247C73.9694 12.5914 74.1976 12.5515 74.4679 12.5052C74.7382 12.459 75.0415 12.4069 75.3778 12.3492C75.7203 12.291 76.0838 12.231 76.4686 12.1693C76.8529 12.1016 77.2523 12.0327 77.6668 11.9625C77.9795 11.9127 78.2923 11.866 78.6055 11.8224C78.9181 11.7726 79.2131 11.7304 79.4905 11.6957C79.7734 11.6545 80.0174 11.6225 80.2226 11.5998L80.326 12.7607C80.1626 12.774 79.9753 12.7922 79.764 12.8154C79.5528 12.8387 79.342 12.868 79.1317 12.9033C78.927 12.9321 78.7444 12.9713 78.584 13.0208C78.3176 13.1155 78.0736 13.2602 77.8518 13.4548C77.6357 13.6428 77.4494 13.862 77.2931 14.1122C77.1368 14.3624 77.0213 14.6275 76.9466 14.9076C76.8774 15.1812 76.8539 15.4541 76.876 15.7264C76.9001 16.0229 76.9728 16.2819 77.0944 16.5034C77.2154 16.719 77.3733 16.901 77.568 17.0497C77.7684 17.1917 77.997 17.3072 78.2539 17.3959C78.5103 17.4787 78.7829 17.5357 79.0717 17.5671C79.3665 17.598 79.6689 17.61 79.979 17.6031L79.6533 18.881C79.2702 18.8878 78.8932 18.8575 78.5223 18.7901C78.1575 18.7223 77.8109 18.6164 77.4825 18.4725C77.1602 18.3282 76.8713 18.1446 76.6157 17.9217C76.3596 17.6928 76.1522 17.4264 75.9936 17.1226C75.8344 16.8127 75.7389 16.4612 75.707 16.0679C75.6712 15.6262 75.7081 15.2182 75.8178 14.8439C75.9275 14.4696 76.0742 14.138 76.2578 13.849C76.4409 13.554 76.6292 13.3226 76.8226 13.1546C76.6547 13.1865 76.4509 13.2274 76.2114 13.2773C75.9774 13.3206 75.7227 13.3718 75.4473 13.4306C75.1775 13.483 74.9019 13.5388 74.6205 13.5982C74.3391 13.6576 74.0672 13.7223 73.8049 13.7923C73.5482 13.8558 73.3157 13.9173 73.1074 13.9768L72.8885 12.743ZM85.5712 10.7547L90 10.3953L90.0847 11.439L85.6559 11.7984L85.5712 10.7547ZM88.0971 13.3999L89.2133 13.3093L89.5315 17.2299C89.5546 17.5143 89.5364 17.7411 89.4771 17.9103C89.4243 18.0851 89.3015 18.223 89.1087 18.3239C88.9154 18.4187 88.6743 18.487 88.3854 18.5288C88.0969 18.5765 87.75 18.6168 87.3446 18.6497C87.3077 18.4944 87.2471 18.3105 87.1628 18.0981C87.0851 17.8913 87.0039 17.7152 86.919 17.5698C87.0949 17.5616 87.2709 17.5534 87.4468 17.5452C87.6228 17.537 87.7803 17.5273 87.9195 17.516C88.0582 17.4987 88.1547 17.4878 88.2092 17.4834C88.2939 17.4765 88.3504 17.4597 88.3787 17.4331C88.4065 17.4004 88.4179 17.3538 88.413 17.2933L88.0971 13.3999ZM85.3857 13.3093L90.4407 12.8991L90.5247 13.9337L85.4697 14.3439L85.3857 13.3093ZM83.4306 14.5459L84.3055 13.5066L84.446 13.55L84.8791 18.8864L83.79 18.9747L83.4306 14.5459ZM84.2831 12.33L85.3501 12.6453C85.1465 13.0638 84.9039 13.4885 84.6222 13.9194C84.346 14.3437 84.05 14.7484 83.7341 15.1334C83.4242 15.5178 83.1167 15.8564 82.8116 16.1491C82.7569 16.0744 82.6794 15.9832 82.5793 15.8757C82.4788 15.762 82.3752 15.6486 82.2685 15.5355C82.168 15.4218 82.0754 15.3319 81.9909 15.2657C82.2878 15.0223 82.5788 14.7429 82.8638 14.4275C83.1483 14.106 83.4132 13.7678 83.6584 13.4129C83.9032 13.052 84.1114 12.691 84.2831 12.33ZM83.7777 10.3795L84.8658 10.7297C84.665 11.0322 84.4375 11.343 84.1832 11.6621C83.9285 11.9751 83.6606 12.277 83.3797 12.5677C83.0988 12.8585 82.8213 13.1155 82.547 13.3387C82.4978 13.2574 82.4325 13.1653 82.351 13.0623C82.2691 12.9532 82.1844 12.8474 82.0969 12.7449C82.0155 12.6419 81.9385 12.5568 81.8661 12.4896C82.1074 12.3116 82.3491 12.1002 82.5911 11.8552C82.8331 11.6102 83.0595 11.3605 83.2702 11.1058C83.4805 10.8452 83.6497 10.6031 83.7777 10.3795ZM92.4058 10.8852C93.0777 10.9099 93.6927 10.9087 94.2508 10.8817C94.8145 10.8481 95.3338 10.7938 95.8088 10.7187C96.2234 10.6485 96.6183 10.5617 96.9935 10.4581C97.3688 10.3546 97.7363 10.2304 98.0961 10.0855L98.326 11.1174C98.0066 11.2346 97.659 11.342 97.2833 11.4395C96.9075 11.537 96.5214 11.6201 96.1251 11.6888C95.6621 11.7629 95.1251 11.8247 94.5141 11.8743C93.9085 11.9174 93.2552 11.9338 92.554 11.9237L92.4058 10.8852ZM92.3971 12.8043C92.9516 12.8081 93.4807 12.7986 93.9843 12.776C94.488 12.7534 94.9599 12.7151 95.4001 12.6611C95.8403 12.6071 96.2406 12.5503 96.6012 12.4906C97.0878 12.4085 97.5034 12.3138 97.848 12.2067C98.192 12.0935 98.4912 11.9901 98.7454 11.8964L99.0138 12.9525C98.747 13.0412 98.4526 13.129 98.1308 13.216C97.809 13.303 97.4653 13.3827 97.0997 13.455C96.7154 13.5227 96.2732 13.5891 95.773 13.654C95.2783 13.7124 94.7555 13.7609 94.2044 13.7996C93.6528 13.8321 93.1005 13.8556 92.5475 13.8701L92.3971 12.8043ZM95.2942 10.9066C95.2381 10.7407 95.1762 10.5782 95.1085 10.4193C95.0403 10.2543 94.9658 10.0868 94.885 9.91669L96.0992 9.68114C96.1586 9.96256 96.2268 10.2402 96.3038 10.5141C96.3864 10.7815 96.4743 11.0393 96.5675 11.2875C96.6668 11.5352 96.7623 11.7741 96.8541 12.0042C96.9434 12.204 97.0563 12.4323 97.1928 12.6892C97.335 12.9396 97.4864 13.1922 97.6472 13.4471C97.8074 13.696 97.9657 13.9207 98.1221 14.1211C98.1894 14.2009 98.2566 14.2777 98.3235 14.3514C98.3959 14.4186 98.4774 14.4851 98.568 14.5508L98.0822 15.4307C97.9098 15.4081 97.6951 15.389 97.4381 15.3733C97.187 15.3572 96.9242 15.345 96.6495 15.3368C96.3808 15.3282 96.1336 15.3209 95.9077 15.3148L95.9285 14.4453C96.1176 14.4482 96.3217 14.4499 96.541 14.4504C96.7663 14.4504 96.9463 14.4541 97.0809 14.4614C96.806 14.0757 96.5651 13.6963 96.3582 13.3233C96.1574 12.9499 95.986 12.6014 95.844 12.278C95.7542 12.0721 95.679 11.8955 95.6183 11.7482C95.5571 11.5948 95.5 11.4533 95.4468 11.3236C95.3992 11.1874 95.3484 11.0484 95.2942 10.9066ZM94.3104 14.7684C94.2138 14.9285 94.1328 15.0934 94.0674 15.2632C94.0015 15.4269 93.9766 15.6085 93.9928 15.8082C94.0198 16.141 94.1938 16.3705 94.5146 16.4967C94.841 16.6164 95.3037 16.6519 95.9027 16.6033C96.3322 16.5684 96.7361 16.5174 97.1144 16.4502C97.4986 16.3824 97.8486 16.3053 98.1644 16.2188L98.1944 17.3765C97.8842 17.4565 97.5337 17.5276 97.1429 17.5897C96.7521 17.6519 96.3721 17.698 96.0031 17.7279C95.398 17.777 94.8695 17.7559 94.4175 17.6647C93.9716 17.573 93.6168 17.4039 93.3532 17.1573C93.0891 16.9047 92.9366 16.5638 92.8957 16.1347C92.8661 15.8448 92.8813 15.5817 92.9413 15.3454C93.0068 15.1026 93.0822 14.8681 93.1674 14.6419L94.3104 14.7684ZM104.508 9.17238C104.481 9.29633 104.457 9.44751 104.435 9.62591C104.413 9.80432 104.397 9.94266 104.387 10.0409C104.361 10.2501 104.327 10.5056 104.284 10.8074C104.248 11.1088 104.204 11.4291 104.152 11.7682C104.107 12.1069 104.057 12.4307 104.003 12.7396C103.95 13.0666 103.881 13.4224 103.797 13.8068C103.712 14.1852 103.619 14.5734 103.517 14.9714C103.421 15.3629 103.32 15.7395 103.216 16.1012C103.111 16.4569 103.006 16.776 102.901 17.0586L101.605 16.7344C101.719 16.4937 101.839 16.2038 101.963 15.8648C102.088 15.5198 102.204 15.1511 102.312 14.7586C102.426 14.3656 102.529 13.9767 102.619 13.5918C102.71 13.2068 102.784 12.8506 102.843 12.5231C102.887 12.3064 102.926 12.0839 102.963 11.8556C102.999 11.6273 103.03 11.4056 103.055 11.1904C103.08 10.9752 103.1 10.7756 103.116 10.5917C103.137 10.4012 103.151 10.2356 103.158 10.095C103.162 9.92409 103.16 9.7537 103.153 9.5838C103.145 9.41391 103.131 9.27802 103.111 9.17615L104.508 9.17238ZM102.303 10.7124C102.673 10.6825 103.055 10.6331 103.452 10.5644C103.848 10.4957 104.246 10.4116 104.646 10.3122C105.046 10.2128 105.442 10.1015 105.834 9.97829L105.926 11.1127C105.558 11.2279 105.164 11.3329 104.746 11.4277C104.327 11.5226 103.914 11.6049 103.505 11.6746C103.096 11.7382 102.719 11.784 102.374 11.812C102.157 11.8297 101.96 11.8426 101.784 11.8508C101.607 11.8529 101.437 11.8576 101.273 11.8648L101.154 10.7326C101.392 10.7376 101.596 10.7394 101.767 10.7377C101.937 10.7361 102.116 10.7276 102.303 10.7124ZM105.266 11.8697C105.518 11.8249 105.798 11.7809 106.105 11.7377C106.412 11.6945 106.711 11.6611 107.001 11.6376C107.261 11.6164 107.525 11.6011 107.792 11.5916C108.065 11.5816 108.336 11.581 108.605 11.5896L108.666 12.6809C108.44 12.6688 108.19 12.6647 107.916 12.6687C107.648 12.6661 107.374 12.6761 107.096 12.6986C106.788 12.7237 106.489 12.7571 106.2 12.7988C105.917 12.834 105.634 12.8812 105.353 12.9406L105.266 11.8697ZM105.941 14.1169C105.915 14.2469 105.896 14.3825 105.883 14.5236C105.87 14.6587 105.867 14.7777 105.876 14.8805C105.883 14.9773 105.912 15.0664 105.961 15.1476C106.01 15.2289 106.083 15.2991 106.179 15.3583C106.275 15.4114 106.403 15.4498 106.563 15.4733C106.729 15.4964 106.934 15.4981 107.176 15.4784C107.484 15.4534 107.791 15.4132 108.098 15.3579C108.409 15.2961 108.726 15.2217 109.048 15.1347L109.097 16.3C108.845 16.3509 108.566 16.4009 108.259 16.4502C107.953 16.5055 107.619 16.5478 107.256 16.5773C106.493 16.6392 105.899 16.5625 105.474 16.3473C105.054 16.1256 104.825 15.7849 104.788 15.325C104.771 15.1193 104.772 14.9091 104.792 14.6944C104.811 14.4797 104.831 14.2801 104.853 14.0957L105.941 14.1169ZM116.272 8.92119C116.135 9.03583 116.002 9.15627 115.872 9.28252C115.742 9.40271 115.629 9.51236 115.533 9.61146C115.391 9.73869 115.221 9.8956 115.023 10.0822C114.831 10.2622 114.627 10.4524 114.412 10.6525C114.202 10.8461 113.998 11.0362 113.8 11.2228C113.602 11.4094 113.433 11.5754 113.293 11.7208C113.147 11.8727 113.05 11.9963 113.003 12.0914C112.955 12.1806 112.962 12.2653 113.024 12.3455C113.091 12.4253 113.212 12.5312 113.387 12.6632C113.53 12.7673 113.711 12.8958 113.93 13.0485C114.156 13.2007 114.398 13.3698 114.657 13.5559C114.921 13.7354 115.189 13.9238 115.461 14.121C115.738 14.3116 116.003 14.5033 116.256 14.6959C116.515 14.882 116.746 15.0581 116.948 15.2244L115.965 16.2817C115.688 16.0179 115.402 15.7579 115.107 15.5017C114.956 15.3739 114.761 15.2192 114.521 15.0377C114.287 14.8496 114.03 14.6543 113.752 14.4515C113.479 14.2483 113.207 14.048 112.936 13.8509C112.663 13.6476 112.417 13.4666 112.197 13.3078C111.874 13.0783 111.659 12.8613 111.551 12.6569C111.449 12.452 111.444 12.2423 111.536 12.0278C111.634 11.8067 111.824 11.5598 112.106 11.2872C112.277 11.1333 112.469 10.9533 112.684 10.7471C112.898 10.5348 113.118 10.319 113.344 10.0997C113.569 9.87437 113.783 9.65908 113.986 9.45385C114.188 9.24256 114.359 9.05818 114.498 8.9007C114.62 8.75679 114.742 8.60986 114.864 8.4599C114.986 8.30995 115.076 8.18084 115.134 8.07258L116.272 8.92119ZM119.76 9.24106C119.956 9.24955 120.163 9.25101 120.382 9.24544C120.606 9.23332 120.803 9.22039 120.972 9.20664C121.347 9.1762 121.724 9.12434 122.102 9.05106C122.485 8.97729 122.853 8.89264 123.205 8.79712C123.556 8.69555 123.873 8.58761 124.156 8.47329L124.278 9.52309C124.023 9.61076 123.717 9.70562 123.36 9.80768C123.008 9.9032 122.635 9.99136 122.239 10.0722C121.843 10.1469 121.452 10.2 121.065 10.2314C120.883 10.2462 120.698 10.2581 120.51 10.2673C120.322 10.2764 120.128 10.2831 119.927 10.2872L119.76 9.24106ZM123.18 7.59328C123.156 7.74748 123.124 7.94804 123.083 8.19496C123.042 8.44188 122.993 8.70164 122.936 8.97423C122.885 9.24634 122.828 9.51591 122.764 9.78294C122.666 10.2294 122.528 10.7064 122.35 11.2142C122.172 11.7219 121.975 12.2191 121.759 12.7056C121.542 13.192 121.319 13.6274 121.088 14.0115L119.944 13.5379C120.129 13.2671 120.309 12.9693 120.484 12.6446C120.659 12.3198 120.82 11.9869 120.969 11.646C121.118 11.305 121.25 10.9777 121.365 10.6638C121.485 10.3435 121.577 10.0559 121.642 9.80092C121.731 9.47093 121.802 9.10586 121.854 8.70572C121.913 8.29904 121.934 7.91975 121.917 7.56785L123.18 7.59328ZM125.533 10.2434C125.536 10.438 125.546 10.6321 125.562 10.8257C125.583 11.0128 125.605 11.2059 125.627 11.4051C125.644 11.5437 125.665 11.7217 125.689 11.939C125.718 12.1498 125.748 12.3757 125.78 12.6168C125.811 12.8517 125.839 13.0779 125.863 13.2952C125.892 13.506 125.912 13.6749 125.922 13.8019C125.945 14.0803 125.908 14.339 125.811 14.5783C125.715 14.8115 125.545 15.0049 125.301 15.1586C125.064 15.3119 124.728 15.4062 124.292 15.4415C123.917 15.472 123.573 15.442 123.261 15.3516C122.95 15.2672 122.695 15.1235 122.496 14.9204C122.296 14.7113 122.183 14.4403 122.156 14.1076C122.132 13.8111 122.189 13.5385 122.327 13.2898C122.464 13.035 122.676 12.829 122.962 12.6719C123.253 12.5082 123.61 12.4091 124.034 12.3748C124.566 12.3316 125.063 12.3674 125.523 12.4824C125.982 12.5912 126.4 12.7461 126.775 12.9471C127.151 13.148 127.475 13.3531 127.748 13.5624L127.219 14.5828C127.043 14.4509 126.843 14.3028 126.616 14.1384C126.396 13.9736 126.149 13.8231 125.876 13.6869C125.609 13.5502 125.32 13.4427 125.009 13.3644C124.705 13.2856 124.38 13.2602 124.035 13.2882C123.775 13.3093 123.57 13.3777 123.421 13.4933C123.272 13.6089 123.204 13.7484 123.218 13.9118C123.231 14.0812 123.309 14.2119 123.45 14.304C123.598 14.3955 123.796 14.4312 124.044 14.4111C124.25 14.3944 124.41 14.3479 124.526 14.2715C124.641 14.1891 124.718 14.0824 124.756 13.9514C124.793 13.8144 124.805 13.6642 124.792 13.5008C124.781 13.3617 124.759 13.1655 124.726 12.9124C124.693 12.6593 124.655 12.3791 124.612 12.0721C124.575 11.7645 124.538 11.4569 124.501 11.1493C124.464 10.8417 124.43 10.5704 124.398 10.3355L125.533 10.2434ZM127.133 10.5977C126.945 10.4668 126.715 10.3302 126.442 10.1879C126.168 10.0457 125.887 9.91323 125.596 9.79061C125.312 9.66145 125.063 9.55983 124.85 9.48577L125.358 8.54017C125.527 8.59952 125.719 8.6753 125.934 8.76751C126.154 8.85319 126.374 8.94491 126.595 9.04268C126.823 9.13996 127.032 9.23871 127.222 9.33894C127.419 9.43263 127.578 9.51716 127.7 9.59253L127.133 10.5977ZM130.272 7.41058C130.401 7.41842 130.538 7.41947 130.684 7.41374C130.829 7.40801 130.969 7.39974 131.102 7.38894C131.199 7.38108 131.344 7.3693 131.538 7.35359C131.731 7.33183 131.948 7.3081 132.189 7.28241C132.437 7.25624 132.682 7.2303 132.923 7.20461C133.165 7.17892 133.382 7.1552 133.575 7.13344C133.774 7.10514 133.927 7.08354 134.036 7.06866C134.222 7.03528 134.369 7.00813 134.477 6.98719C134.584 6.9602 134.664 6.93543 134.717 6.91286L135.373 7.6727C135.275 7.7476 135.175 7.82275 135.071 7.89814C134.968 7.97353 134.868 8.05472 134.771 8.14172C134.657 8.23624 134.521 8.35996 134.363 8.51286C134.204 8.65971 134.034 8.81662 133.853 8.98359C133.678 9.15007 133.505 9.31327 133.336 9.47321C133.172 9.63265 133.022 9.77575 132.886 9.90248C133.035 9.85391 133.178 9.81792 133.316 9.79453C133.454 9.76509 133.595 9.74448 133.74 9.73269C134.255 9.69096 134.723 9.75348 135.144 9.92024C135.572 10.0865 135.917 10.3325 136.181 10.6582C136.451 10.9774 136.604 11.3578 136.639 11.7995C136.678 12.2775 136.592 12.7199 136.382 13.1267C136.171 13.5336 135.83 13.8719 135.359 14.1416C134.893 14.4107 134.295 14.575 133.563 14.6344C133.145 14.6683 132.762 14.6385 132.413 14.545C132.071 14.451 131.794 14.2999 131.582 14.0918C131.37 13.8836 131.252 13.6283 131.227 13.3258C131.207 13.0777 131.255 12.8424 131.371 12.6198C131.493 12.3907 131.669 12.1998 131.9 12.0471C132.137 11.8938 132.416 11.8042 132.737 11.7782C133.154 11.7443 133.512 11.8005 133.81 11.9469C134.114 12.0866 134.353 12.2896 134.527 12.5556C134.707 12.8212 134.813 13.1201 134.846 13.4523L133.796 13.6837C133.763 13.3514 133.657 13.0921 133.477 12.9057C133.303 12.7127 133.083 12.6271 132.817 12.6487C132.647 12.6624 132.515 12.7188 132.419 12.8179C132.323 12.911 132.28 13.015 132.289 13.13C132.303 13.2994 132.399 13.4286 132.577 13.5177C132.754 13.6068 132.979 13.6403 133.252 13.6183C133.766 13.5765 134.191 13.4812 134.526 13.3322C134.86 13.1771 135.103 12.9778 135.254 12.7341C135.41 12.4839 135.475 12.1985 135.449 11.8778C135.427 11.6056 135.323 11.3735 135.137 11.1815C134.957 10.989 134.72 10.8469 134.426 10.755C134.133 10.6631 133.807 10.6317 133.45 10.6606C133.099 10.6891 132.782 10.7605 132.499 10.8748C132.216 10.9831 131.95 11.1294 131.704 11.3139C131.462 11.4918 131.227 11.7058 130.997 11.9559C130.774 12.1994 130.552 12.4701 130.333 12.768L129.437 11.982C129.59 11.8356 129.763 11.6724 129.955 11.4924C130.147 11.3063 130.341 11.1139 130.538 10.9152C130.742 10.716 130.93 10.5301 131.105 10.3576C131.286 10.1785 131.438 10.0291 131.562 9.90944C131.681 9.79627 131.819 9.66324 131.977 9.51033C132.136 9.35743 132.299 9.20101 132.469 9.04108C132.638 8.87509 132.799 8.71892 132.952 8.57255C133.104 8.42014 133.231 8.29112 133.332 8.18547C133.241 8.19284 133.123 8.20544 132.978 8.22327C132.834 8.2411 132.674 8.26016 132.499 8.28045C132.33 8.30025 132.158 8.32029 131.983 8.34058C131.814 8.36038 131.655 8.38246 131.504 8.40684C131.36 8.42467 131.239 8.44054 131.143 8.45444C131.022 8.47031 130.896 8.4897 130.764 8.5126C130.632 8.5355 130.512 8.56045 130.404 8.58744L130.272 7.41058Z" fill="#61BDD1"/>
</svg>
