<svg width="192" height="35" viewBox="0 0 192 35" fill="none" xmlns="http://www.w3.org/2000/svg">
<rect width="191.01" height="19.5048" transform="translate(0 15.4492) rotate(-4.63914)" fill="#FFEE00"/>
<path d="M9.3438 23.3272L14.2808 22.9266L14.3641 23.9521L9.42702 24.3527L9.3438 23.3272ZM8.14199 20.6751L10.7194 20.4659L10.7953 21.4007L8.21784 21.6098L8.14199 20.6751ZM8.33043 25.474L15.5726 24.8863L15.6536 25.8846L8.41144 26.4723L8.33043 25.474ZM10.3292 20.4976L10.5288 20.4814L10.7165 20.4296L11.469 20.6974C11.3495 21.176 11.1847 21.6218 10.9746 22.0347C10.7706 22.4471 10.5275 22.8292 10.2455 23.181C9.96291 23.5267 9.65347 23.8411 9.31712 24.1242C8.98077 24.4072 8.6266 24.6583 8.2546 24.8772C8.17169 24.7561 8.05705 24.6192 7.91069 24.4667C7.77038 24.3136 7.64184 24.1931 7.52508 24.1051C7.8526 23.9385 8.16484 23.7335 8.46178 23.4902C8.75872 23.2468 9.03227 22.978 9.28244 22.6836C9.53817 22.3827 9.75588 22.0636 9.93557 21.7262C10.1213 21.3884 10.2574 21.0393 10.3439 20.6791L10.3292 20.4976ZM10.1572 23.7819L11.2372 23.6943L11.3646 25.2643C11.3906 25.585 11.3864 25.9081 11.3519 26.2337C11.3174 26.5593 11.2247 26.8804 11.0738 27.1972C10.9224 27.5079 10.6876 27.804 10.3694 28.0857C10.0517 28.3733 9.61911 28.6337 9.07165 28.867C9.02242 28.7857 8.95104 28.694 8.8575 28.592C8.77001 28.4895 8.67647 28.3875 8.57688 28.2859C8.47778 28.1904 8.38922 28.1123 8.31122 28.0517C8.78297 27.8612 9.15619 27.6573 9.4309 27.4401C9.7056 27.223 9.90647 26.9965 10.0335 26.7609C10.1606 26.5253 10.2387 26.2875 10.268 26.0476C10.2967 25.8017 10.3015 25.5607 10.2824 25.3248L10.1572 23.7819ZM12.5526 19.9792C12.788 20.4777 13.0846 20.9439 13.4426 21.3777C13.8066 21.811 14.2209 22.1885 14.6855 22.5101C15.1501 22.8317 15.6542 23.077 16.1977 23.2461C16.1189 23.3256 16.0358 23.4267 15.9483 23.5495C15.8664 23.6658 15.785 23.7881 15.704 23.9165C15.6287 24.0383 15.5677 24.1498 15.5211 24.2511C14.9368 24.0305 14.4008 23.7299 13.9132 23.3493C13.4316 22.9681 12.9965 22.5223 12.6079 22.0118C12.2254 21.5008 11.8876 20.9405 11.5946 20.3309L12.5526 19.9792ZM8.00302 22.3398L8.63802 21.7219C8.76541 21.7907 8.8968 21.8714 9.03221 21.964C9.17366 22.056 9.30882 22.1455 9.43768 22.2325C9.56654 22.3195 9.67349 22.3991 9.75852 22.4714L9.09311 23.1649C9.02018 23.0916 8.91879 23.0054 8.78895 22.9064C8.66515 22.8068 8.53229 22.7079 8.39034 22.6098C8.25445 22.5112 8.12534 22.4212 8.00302 22.3398ZM13.8244 20.0038L14.6967 20.5086C14.4723 20.746 14.2387 20.9812 13.9957 21.2141C13.7588 21.4464 13.5373 21.6441 13.3313 21.807L12.6366 21.3518C12.7674 21.2376 12.9058 21.1046 13.0518 20.9526C13.1974 20.7947 13.3396 20.6339 13.4786 20.4704C13.6171 20.3008 13.7324 20.1453 13.8244 20.0038ZM14.9982 20.9591L15.8417 21.4479C15.6179 21.6914 15.3729 21.9367 15.1067 22.1836C14.846 22.424 14.6039 22.6294 14.3802 22.7998L13.6862 22.3537C13.8287 22.2325 13.9787 22.0924 14.1363 21.9335C14.2995 21.768 14.4564 21.5999 14.607 21.4294C14.7636 21.2583 14.894 21.1016 14.9982 20.9591ZM12.3753 23.6476L13.5097 23.5556L13.791 27.0224C13.8048 27.1918 13.8287 27.2995 13.8629 27.3454C13.9026 27.3848 13.983 27.3996 14.104 27.3898C14.1343 27.3873 14.1797 27.3837 14.2402 27.3787C14.3067 27.3733 14.3763 27.3677 14.4489 27.3618C14.5215 27.3559 14.5911 27.3503 14.6576 27.3449C14.7242 27.3395 14.7726 27.3355 14.8028 27.3331C14.8875 27.3262 14.9458 27.2941 14.9777 27.2367C15.0156 27.1788 15.0378 27.0765 15.0442 26.9298C15.05 26.7771 15.0475 26.5581 15.0365 26.2727C15.1583 26.3481 15.3195 26.4203 15.52 26.4893C15.72 26.5522 15.8971 26.5957 16.0513 26.6197C16.0474 27.022 16.0124 27.3415 15.9464 27.5783C15.8803 27.8151 15.7693 27.9855 15.6133 28.0895C15.4638 28.1991 15.256 28.2646 14.9898 28.2862C14.9414 28.2902 14.8718 28.2958 14.7811 28.3032C14.6903 28.3105 14.5935 28.3184 14.4907 28.3267C14.3878 28.3351 14.291 28.3429 14.2002 28.3503C14.1095 28.3577 14.0399 28.3633 13.9915 28.3672C13.6587 28.3943 13.4012 28.3725 13.2189 28.3021C13.037 28.2376 12.9047 28.1083 12.822 27.914C12.7397 27.7258 12.6848 27.4623 12.6573 27.1235L12.3753 23.6476ZM20.437 19.312L21.539 19.4966C21.4333 19.9193 21.2965 20.3354 21.1287 20.7449C20.9605 21.1483 20.7752 21.5287 20.5728 21.8862C20.3764 22.2432 20.1673 22.5555 19.9454 22.8232C19.8739 22.7681 19.7773 22.7029 19.6555 22.6275C19.5336 22.5521 19.412 22.4798 19.2907 22.4105C19.1689 22.3351 19.0606 22.2769 18.9659 22.2358C19.3024 21.8797 19.5988 21.4415 19.855 20.9213C20.1168 20.3946 20.3108 19.8581 20.437 19.312ZM23.7925 20.1359L24.8906 20.0468C24.8906 20.0468 24.8931 20.077 24.898 20.1375C24.9024 20.192 24.9075 20.2555 24.9134 20.3281C24.9193 20.4007 24.921 20.4585 24.9184 20.5013C24.9596 21.2349 24.9923 21.8625 25.0163 22.3843C25.0399 22.9001 25.0503 23.3286 25.0476 23.6699C25.0448 24.0111 25.0304 24.2833 25.0042 24.4864C24.9836 24.683 24.9465 24.826 24.8929 24.9157C24.819 25.0556 24.7389 25.1565 24.6525 25.2184C24.5662 25.2802 24.4637 25.3311 24.3452 25.3712C24.2443 25.4037 24.1124 25.4297 23.9496 25.449C23.7927 25.4678 23.6233 25.4815 23.4413 25.4902C23.416 25.3278 23.371 25.1488 23.3064 24.953C23.2474 24.7508 23.1724 24.5772 23.0814 24.4323C23.2039 24.4407 23.3078 24.4444 23.3929 24.4436C23.4837 24.4362 23.5624 24.4298 23.6289 24.4244C23.6834 24.42 23.728 24.4073 23.7628 24.3862C23.8037 24.3646 23.8398 24.3221 23.8712 24.2586C23.9031 24.2012 23.925 24.0959 23.937 23.9427C23.9484 23.7834 23.9514 23.5578 23.946 23.266C23.9401 22.968 23.9271 22.5823 23.9069 22.109C23.8868 21.6356 23.8548 21.0535 23.8109 20.3628L23.7925 20.1359ZM20.6664 24.0528L22.1275 23.9342L22.0487 22.9631L20.1701 23.1156L20.0935 22.1717L23.0339 21.9331L23.2667 24.801L20.7437 25.0057L20.6664 24.0528ZM20.1763 24.0926L21.2563 24.0049L21.447 26.3554C21.4612 26.5309 21.5127 26.6394 21.6013 26.6809C21.696 26.722 21.8976 26.73 22.2062 26.7049C22.2606 26.7005 22.3453 26.6936 22.4603 26.6843C22.5813 26.6745 22.7144 26.6637 22.8596 26.6519C23.0109 26.6396 23.1621 26.6274 23.3134 26.6151C23.4646 26.6028 23.6038 26.5915 23.7308 26.5812C23.8639 26.5704 23.9638 26.5623 24.0303 26.5569C24.2118 26.5422 24.3458 26.5039 24.4321 26.4421C24.5184 26.3803 24.5731 26.2662 24.5962 26.0999C24.6192 25.9336 24.6293 25.6831 24.6265 25.3484C24.7096 25.3964 24.8111 25.4461 24.9309 25.4972C25.0564 25.5419 25.1843 25.5802 25.3148 25.6122C25.4448 25.6382 25.562 25.6561 25.6663 25.6659C25.6557 26.1357 25.6063 26.5021 25.518 26.7651C25.4357 27.0275 25.2897 27.216 25.0797 27.3305C24.8702 27.451 24.5719 27.527 24.1847 27.5584C24.1242 27.5633 24.0274 27.5712 23.8943 27.582C23.7612 27.5928 23.6099 27.605 23.4405 27.6188C23.2711 27.6325 23.1017 27.6463 22.9323 27.66C22.7629 27.6738 22.6116 27.686 22.4785 27.6968C22.3454 27.7076 22.2516 27.7152 22.1972 27.7197C21.7615 27.755 21.4135 27.7437 21.153 27.6856C20.8985 27.6271 20.7115 27.4992 20.592 27.3018C20.4729 27.1105 20.3984 26.8303 20.3685 26.4612L20.1763 24.0926ZM17.1574 20.4368L17.6908 19.5805C17.8777 19.6323 18.0752 19.7015 18.2832 19.7882C18.4967 19.8683 18.6987 19.9555 18.889 20.0496C19.0854 20.1433 19.242 20.2341 19.3588 20.3221L18.7964 21.2721C18.6852 21.1776 18.5342 21.0803 18.3433 20.98C18.1581 20.8733 17.9612 20.7735 17.7527 20.6808C17.5437 20.5821 17.3452 20.5007 17.1574 20.4368ZM16.885 22.9345L17.4086 22.0699C17.595 22.1157 17.7918 22.1758 17.9988 22.2504C18.2119 22.3244 18.4133 22.4055 18.6032 22.4937C18.793 22.5818 18.9496 22.6726 19.0729 22.7661L18.5204 23.7245C18.4031 23.6305 18.2493 23.5364 18.059 23.4422C17.8742 23.3415 17.6778 23.2478 17.4698 23.1611C17.2678 23.074 17.0729 22.9985 16.885 22.9345ZM17.4749 27.3903C17.601 27.1426 17.7357 26.8515 17.8791 26.5171C18.0225 26.1827 18.1705 25.8296 18.323 25.4579C18.4751 25.0802 18.6122 24.7067 18.7345 24.3374L19.6406 24.9216C19.534 25.2592 19.4158 25.6037 19.286 25.9553C19.1618 26.3003 19.0342 26.6426 18.9035 26.9821C18.7727 27.3215 18.6406 27.6459 18.5074 27.9551L17.4749 27.3903ZM20.4527 20.4069L24.21 20.102L24.2924 21.1185L20.5352 21.4234L20.4527 20.4069ZM27.7955 19.4822C27.924 19.4901 28.0762 19.4899 28.2522 19.4817C28.4281 19.4735 28.5917 19.4633 28.743 19.451C28.8579 19.4417 29.0334 19.4274 29.2694 19.4083C29.5114 19.3887 29.7776 19.367 30.068 19.3435C30.3645 19.3194 30.6579 19.2956 30.9483 19.272C31.2387 19.2485 31.4989 19.2274 31.7288 19.2087C31.9587 19.1901 32.1281 19.1763 32.237 19.1675C32.3762 19.1562 32.5423 19.1397 32.7354 19.1179C32.9286 19.0961 33.0879 19.071 33.2135 19.0426L33.3085 20.2133C33.1865 20.211 33.0287 20.2177 32.8351 20.2334C32.647 20.2426 32.4713 20.2538 32.308 20.2671C32.2112 20.2749 32.0448 20.2884 31.8088 20.3076C31.5789 20.3262 31.3157 20.3476 31.0193 20.3716C30.7289 20.3952 30.4354 20.419 30.139 20.4431C29.8485 20.4666 29.5854 20.488 29.3494 20.5072C29.1134 20.5263 28.941 20.5403 28.8321 20.5491C28.6869 20.5609 28.5268 20.5769 28.3518 20.5972C28.1829 20.617 28.0291 20.6356 27.8905 20.6529L27.7955 19.4822ZM34.1894 21.6126C34.164 21.6755 34.1362 21.7448 34.1058 21.8203C34.0814 21.8954 34.0621 21.9579 34.0479 22.0077C33.9441 22.4546 33.804 22.9045 33.6276 23.3573C33.4567 23.8036 33.2171 24.228 32.9087 24.6306C32.4962 25.1757 32.0216 25.6314 31.4849 25.9977C30.9478 26.3579 30.3954 26.6433 29.8279 26.8538L28.8462 25.9012C29.5181 25.7005 30.1089 25.4394 30.6188 25.1179C31.1286 24.7964 31.5415 24.4431 31.8574 24.0582C32.0793 23.7905 32.2518 23.5146 32.3749 23.2306C32.5036 22.94 32.6002 22.6672 32.6648 22.4123C32.5982 22.4177 32.4833 22.427 32.3199 22.4403C32.1565 22.4535 31.9599 22.4695 31.73 22.4881C31.5061 22.5063 31.2641 22.526 31.004 22.5471C30.7438 22.5682 30.4776 22.5898 30.2053 22.6119C29.9331 22.634 29.6729 22.6551 29.4248 22.6752C29.1768 22.6953 28.9529 22.7135 28.7533 22.7297C28.5596 22.7454 28.4023 22.7582 28.2813 22.768C28.1724 22.7768 28.0184 22.7924 27.8192 22.8146C27.6201 22.8369 27.4244 22.8649 27.2323 22.8988L27.1365 21.719C27.3311 21.7154 27.5197 21.7123 27.7021 21.7096C27.8907 21.7065 28.0545 21.6993 28.1937 21.688C28.2844 21.6807 28.4206 21.6696 28.6021 21.6549C28.7896 21.6397 29.0044 21.6222 29.2464 21.6026C29.4885 21.583 29.7456 21.5621 30.0179 21.54C30.2962 21.5174 30.5715 21.4951 30.8437 21.473C31.122 21.4504 31.3852 21.429 31.6333 21.4089C31.8813 21.3888 32.0961 21.3714 32.2776 21.3566C32.4591 21.3419 32.5953 21.3308 32.686 21.3235C32.8312 21.3117 32.9606 21.2921 33.0741 21.2646C33.1936 21.2366 33.2826 21.2081 33.3412 21.179L34.1894 21.6126ZM42.0867 18.0394C42.1742 18.1419 42.2664 18.2653 42.3634 18.4097C42.4664 18.5536 42.5664 18.6977 42.6634 18.8421C42.7604 18.9865 42.8408 19.114 42.9046 19.2245L42.2043 19.6011C42.0923 19.4214 41.9632 19.2187 41.817 18.993C41.6703 18.7613 41.5293 18.5627 41.394 18.397L42.0867 18.0394ZM43.1245 17.5441C43.2124 17.6526 43.3082 17.7819 43.4117 17.9318C43.5208 18.0752 43.6238 18.2191 43.7208 18.3635C43.8173 18.5018 43.8969 18.6202 43.9597 18.7187L43.2587 19.0861C43.1528 18.9059 43.0206 18.7035 42.8623 18.4788C42.7101 18.2537 42.5666 18.0613 42.4318 17.9017L43.1245 17.5441ZM37.109 22.8921C37.1912 22.6296 37.2664 22.3556 37.3346 22.0699C37.4083 21.7777 37.4695 21.4804 37.518 21.178C37.5661 20.8696 37.6053 20.565 37.6357 20.2641C37.6721 19.9627 37.6907 19.6659 37.6913 19.3735L39.0384 19.5382C39.0211 19.6249 39.002 19.7269 38.981 19.8443C38.9601 19.9618 38.942 20.0759 38.9266 20.1868C38.9112 20.2976 38.9005 20.3899 38.8943 20.4634C38.8768 20.6232 38.8499 20.8172 38.8136 21.0455C38.7773 21.2738 38.7332 21.5179 38.6812 21.7779C38.6287 22.0319 38.5735 22.2891 38.5154 22.5496C38.463 22.8036 38.406 23.0396 38.3445 23.2577C38.2592 23.557 38.1536 23.8701 38.0279 24.197C37.9082 24.5233 37.7755 24.8386 37.6296 25.1428C37.4898 25.4465 37.3506 25.7196 37.212 25.9623L35.898 25.53C36.1579 25.1313 36.3935 24.695 36.6048 24.2211C36.8221 23.7467 36.9901 23.3037 37.109 22.8921ZM41.5768 22.3377C41.4664 22.1031 41.3457 21.854 41.2147 21.5906C41.0837 21.3272 40.9467 21.0643 40.8036 20.8018C40.6605 20.5394 40.5216 20.2918 40.387 20.0591C40.2524 19.8264 40.1296 19.6263 40.0186 19.4587L41.1939 18.9705C41.2989 19.1386 41.422 19.3418 41.5631 19.58C41.7043 19.8182 41.8466 20.0716 41.9902 20.3401C42.1333 20.6026 42.2734 20.8652 42.4104 21.1282C42.5475 21.3911 42.6702 21.6278 42.7786 21.8382C42.8735 22.0315 42.9773 22.2606 43.0902 22.5255C43.2091 22.7899 43.329 23.0664 43.4498 23.355C43.5763 23.6371 43.6931 23.9139 43.8004 24.1853C43.9137 24.4562 44.0097 24.7012 44.0884 24.9201L42.7806 25.4648C42.673 25.1142 42.5528 24.7585 42.42 24.3978C42.2872 24.0371 42.1488 23.6829 42.0049 23.3353C41.867 22.9871 41.7243 22.6546 41.5768 22.3377ZM45.4372 20.8278C45.5466 20.825 45.6865 20.8228 45.8569 20.8211C46.0268 20.8134 46.2027 20.8052 46.3847 20.7965C46.5728 20.7874 46.7455 20.7764 46.9028 20.7636C47.054 20.7514 47.2416 20.7362 47.4654 20.718C47.6893 20.6998 47.9313 20.6802 48.1915 20.6591C48.4577 20.6375 48.7299 20.6154 49.0083 20.5928C49.2926 20.5697 49.574 20.5469 49.8523 20.5243C50.1306 20.5017 50.3938 20.4804 50.6418 20.4602C50.8899 20.4401 51.1107 20.4222 51.3043 20.4065C51.504 20.3903 51.6613 20.3775 51.7763 20.3682C51.988 20.351 52.1872 20.3287 52.3738 20.3014C52.5599 20.2681 52.7132 20.2434 52.8337 20.2276L52.9493 21.6524C52.8459 21.6547 52.6909 21.6581 52.4842 21.6627C52.2775 21.6673 52.0774 21.6775 51.8838 21.6932C51.7688 21.7025 51.6115 21.7153 51.4119 21.7315C51.2122 21.7477 50.9883 21.7659 50.7403 21.786C50.4922 21.8061 50.229 21.8275 49.9507 21.8501C49.6785 21.8721 49.4001 21.8947 49.1158 21.9178C48.8314 21.9409 48.5561 21.9632 48.2899 21.9848C48.0298 22.0059 47.7877 22.0256 47.5639 22.0437C47.3461 22.0614 47.1615 22.0764 47.0103 22.0887C46.7501 22.1098 46.4844 22.1374 46.2131 22.1716C45.9413 22.1998 45.7212 22.2268 45.5528 22.2526L45.4372 20.8278ZM59.15 17.687C59.1268 18.1517 59.088 18.6482 59.0334 19.1764C58.9788 19.7046 58.8914 20.2415 58.7713 20.7872C58.6454 21.4125 58.4824 21.9556 58.2823 22.4164C58.0822 22.8772 57.8497 23.2401 57.585 23.5052C57.3258 23.7638 57.0299 23.9065 56.6971 23.9335C56.3643 23.9605 56.0467 23.8737 55.7442 23.6729C55.4472 23.4655 55.1978 23.1691 54.996 22.7835C54.8002 22.3975 54.6817 21.9503 54.6405 21.4421C54.5978 20.9157 54.6634 20.411 54.8374 19.9279C55.0113 19.4449 55.2714 19.0097 55.6175 18.6223C55.9692 18.2283 56.3878 17.9081 56.8733 17.6616C57.3648 17.4147 57.9041 17.2674 58.4909 17.2198C59.0536 17.1741 59.5662 17.2239 60.0286 17.3691C60.4971 17.5138 60.9047 17.7334 61.2514 18.0281C61.5981 18.3227 61.8736 18.6779 62.0778 19.0938C62.2821 19.5096 62.4044 19.9656 62.4446 20.4617C62.4962 21.097 62.4122 21.6762 62.1928 22.1995C61.9734 22.7228 61.6198 23.1687 61.1321 23.5371C60.6503 23.9051 60.0332 24.1805 59.2807 24.3634L58.5124 23.3386C58.6864 23.3062 58.839 23.2725 58.9701 23.2375C59.1012 23.2025 59.2261 23.165 59.3446 23.1249C59.6292 23.0288 59.8901 22.9041 60.1273 22.7508C60.3701 22.591 60.5772 22.4037 60.7486 22.1888C60.9195 21.9679 61.0453 21.7171 61.126 21.4365C61.2128 21.1554 61.243 20.8515 61.2165 20.5248C61.1875 20.1678 61.1066 19.8455 60.9736 19.5579C60.8406 19.2703 60.6594 19.0262 60.43 18.8255C60.2001 18.6189 59.9292 18.4703 59.6173 18.3799C59.305 18.2834 58.9522 18.2512 58.5589 18.2831C58.0749 18.3224 57.6555 18.4447 57.3007 18.6501C56.9453 18.8495 56.6517 19.0956 56.4197 19.3885C56.1876 19.6814 56.0178 19.9905 55.9103 20.3159C55.8087 20.6408 55.7695 20.9455 55.7926 21.2298C55.8171 21.5324 55.8741 21.7835 55.9633 21.9833C56.0522 22.1771 56.1522 22.3213 56.2634 22.4158C56.3801 22.5037 56.499 22.5428 56.62 22.533C56.7471 22.5227 56.8659 22.4491 56.9766 22.3122C57.0929 22.1688 57.2007 21.9591 57.3001 21.683C57.3995 21.407 57.4933 21.0614 57.5814 20.6462C57.6852 20.1993 57.7654 19.7238 57.8219 19.2199C57.8785 18.7159 57.9088 18.2262 57.9128 17.7509L59.15 17.687ZM65.5252 21.8378L72.2229 21.2943L72.2906 22.1292L65.593 22.6727L65.5252 21.8378ZM66.0419 20.3251L70.4344 19.9686L70.4941 20.7038L66.1016 21.0602L66.0419 20.3251ZM67.0296 18.8747L67.0598 19.2467L70.091 19.0008L70.0608 18.6287L67.0296 18.8747ZM66.95 17.8945L66.9795 18.2575L70.0107 18.0116L69.9812 17.6485L66.95 17.8945ZM65.8617 17.316L71.0075 16.8984L71.2247 19.5757L66.0789 19.9932L65.8617 17.316ZM68.239 21.1699L69.3099 21.083L69.4608 22.9435C69.4805 23.1855 69.4592 23.373 69.3969 23.5059C69.3411 23.6444 69.2161 23.7551 69.0218 23.8378C68.8336 23.9201 68.6039 23.9783 68.3326 24.0125C68.0674 24.0462 67.753 24.0748 67.3895 24.0982C67.3484 23.9675 67.2847 23.8204 67.1984 23.6569C67.1186 23.499 67.0375 23.3624 66.955 23.2473C67.1249 23.2396 67.2948 23.2319 67.4647 23.2242C67.6346 23.2165 67.7861 23.2073 67.9193 23.1965C68.0579 23.1791 68.1515 23.1685 68.1999 23.1646C68.278 23.1521 68.3285 23.1359 68.3512 23.1158C68.3795 23.0891 68.3912 23.0455 68.3863 22.985L68.239 21.1699ZM70.2711 19.9819L70.5433 19.9598L70.7658 19.8869L71.4293 20.4086C71.2233 20.5715 70.9963 20.7391 70.7484 20.9115C70.5061 21.0773 70.2512 21.2381 69.9837 21.3938C69.7217 21.5429 69.4618 21.6797 69.204 21.8042C69.1426 21.7239 69.0561 21.6335 68.9444 21.5329C68.8322 21.4263 68.7402 21.3424 68.6682 21.2813C68.8676 21.1859 69.0715 21.0719 69.2799 20.9393C69.4884 20.8067 69.6815 20.6722 69.8593 20.536C70.037 20.3998 70.1794 20.2786 70.2865 20.1725L70.2711 19.9819ZM64.6938 16.0953L71.6728 15.5289L71.7531 16.5182L64.7741 17.0845L64.6938 16.0953ZM64.0585 16.1468L65.1294 16.0599L65.3555 18.8461C65.3874 19.2393 65.4102 19.6699 65.4238 20.1377C65.4434 20.6051 65.4399 21.0865 65.4131 21.5819C65.3858 22.0714 65.3273 22.5511 65.2376 23.0213C65.1473 23.4854 65.0176 23.9131 64.8484 24.3044C64.7709 24.2498 64.6717 24.1908 64.5508 24.1276C64.43 24.0643 64.3064 24.0043 64.18 23.9475C64.054 23.8969 63.9445 23.8601 63.8513 23.8372C64.0174 23.4827 64.1382 23.0953 64.2137 22.675C64.2888 22.2487 64.3361 21.8186 64.3557 21.3846C64.3753 20.9506 64.3742 20.5244 64.3524 20.1059C64.3362 19.6809 64.3136 19.2899 64.2846 18.933L64.0585 16.1468ZM74.3619 15.7949C74.4899 15.7967 74.624 15.798 74.7641 15.7988C74.9098 15.7931 75.0311 15.7863 75.1279 15.7784C75.261 15.7676 75.412 15.7523 75.5809 15.7325C75.7559 15.7122 75.9339 15.6917 76.1149 15.6709C76.2959 15.6501 76.4676 15.6271 76.63 15.6017C76.7924 15.5764 76.9247 15.5565 77.0271 15.5421C77.1355 15.5272 77.2432 15.5032 77.3501 15.4702C77.4631 15.4367 77.5577 15.4016 77.6339 15.365L78.4056 15.8687C78.351 15.9462 78.2989 16.0175 78.2494 16.0824C78.1994 16.1412 78.1589 16.2054 78.128 16.2749C78.0389 16.4527 77.9398 16.6952 77.8307 17.0025C77.7212 17.3037 77.6046 17.6298 77.4808 17.9809C77.3631 18.3315 77.2477 18.6728 77.1345 19.0047C77.0605 19.2178 76.9843 19.4432 76.9062 19.681C76.8281 19.9188 76.7469 20.1568 76.6627 20.395C76.578 20.6272 76.4953 20.8471 76.4147 21.0546C76.3336 21.2561 76.2536 21.4331 76.1746 21.5857C76.0152 21.8727 75.829 22.0918 75.6159 22.2431C75.4024 22.3883 75.1383 22.4737 74.8237 22.4992C74.4244 22.5316 74.081 22.4285 73.7937 22.19C73.5064 21.9514 73.3441 21.6022 73.3068 21.1424C73.2773 20.7794 73.3315 20.4339 73.4693 20.1061C73.6072 19.7782 73.815 19.4873 74.0928 19.2333C74.3761 18.9728 74.7154 18.7626 75.1104 18.6026C75.5055 18.4427 75.945 18.343 76.429 18.3038C76.9554 18.2611 77.4685 18.2803 77.9684 18.3616C78.4683 18.4428 78.9376 18.56 79.3764 18.7132C79.8212 18.8659 80.2213 19.0314 80.5768 19.2096C80.9379 19.3813 81.2461 19.539 81.5013 19.6827L81.0682 20.9876C80.7754 20.7556 80.4499 20.5353 80.092 20.3269C79.734 20.1184 79.3536 19.9331 78.9506 19.7709C78.5533 19.6022 78.1321 19.478 77.6872 19.3984C77.2483 19.3183 76.7959 19.2971 76.33 19.3349C75.8883 19.3708 75.5158 19.471 75.2125 19.6357C74.9152 19.7999 74.6935 19.9945 74.5473 20.2196C74.4007 20.4385 74.3364 20.6599 74.3546 20.8838C74.3664 21.029 74.4118 21.138 74.4908 21.2107C74.5758 21.283 74.6697 21.315 74.7726 21.3066C74.8694 21.2988 74.9491 21.2679 75.0117 21.2141C75.0744 21.1603 75.1434 21.0725 75.2187 20.9507C75.2886 20.8354 75.3536 20.6992 75.414 20.542C75.4803 20.3844 75.5455 20.2116 75.6094 20.0237C75.6794 19.8354 75.7461 19.6442 75.8095 19.4503C75.879 19.2558 75.946 19.0677 76.0104 18.8859C76.0996 18.635 76.1912 18.3748 76.285 18.1053C76.3784 17.8298 76.4664 17.5638 76.5492 17.3074C76.6379 17.0505 76.7201 16.8246 76.7956 16.6297C76.7054 16.6431 76.5939 16.6582 76.4613 16.6751C76.3282 16.6859 76.1863 16.7005 76.0355 16.7188C75.8908 16.7366 75.7463 16.7575 75.6021 16.7814C75.4634 16.7987 75.3429 16.8146 75.2405 16.829C75.1503 16.8424 75.033 16.861 74.8888 16.8849C74.7506 16.9083 74.6248 16.9337 74.5113 16.9612L74.3619 15.7949ZM80.5171 17.4605C80.5329 18.1047 80.5142 18.7001 80.4611 19.2464C80.4135 19.7862 80.3048 20.2852 80.1349 20.7436C79.9706 21.1954 79.7275 21.6141 79.4055 21.9995C79.0831 22.3789 78.6612 22.7329 78.1397 23.0614L77.1136 22.3499C77.6506 22.0627 78.0727 21.7483 78.38 21.4067C78.6933 21.0646 78.9206 20.7143 79.062 20.3556C79.2095 19.9965 79.3033 19.6509 79.3433 19.3188C79.3829 18.9806 79.4009 18.6777 79.3975 18.41C79.3953 18.2336 79.3874 18.0607 79.3736 17.8913C79.3594 17.7158 79.3406 17.559 79.3172 17.4208L80.5171 17.4605ZM87.1931 15.4114C87.1699 15.8762 87.131 16.3726 87.0764 16.9008C87.0219 17.429 86.9345 17.9659 86.8143 18.5116C86.6885 19.1369 86.5255 19.68 86.3253 20.1408C86.1252 20.6016 85.8928 20.9646 85.6281 21.2297C85.3689 21.4882 85.0729 21.631 84.7402 21.658C84.4074 21.685 84.0898 21.5981 83.7872 21.3973C83.4903 21.19 83.2409 20.8935 83.0391 20.508C82.8433 20.1219 82.7248 19.6747 82.6836 19.1665C82.6408 18.6401 82.7065 18.1354 82.8804 17.6524C83.0544 17.1693 83.3144 16.7341 83.6606 16.3467C84.0123 15.9527 84.4309 15.6325 84.9164 15.3861C85.4079 15.1391 85.9471 14.9918 86.534 14.9442C87.0967 14.8986 87.6092 14.9483 88.0717 15.0935C88.5402 15.2382 88.9478 15.4578 89.2945 15.7525C89.6411 16.0471 89.9166 16.4024 90.1209 16.8182C90.3251 17.234 90.4474 17.69 90.4877 18.1861C90.5392 18.8214 90.4553 19.4007 90.2359 19.924C90.0165 20.4472 89.6629 20.8931 89.1751 21.2616C88.6934 21.6295 88.0763 21.9049 87.3238 22.0878L86.5555 21.063C86.7295 21.0307 86.882 20.997 87.0132 20.962C87.1443 20.927 87.2692 20.8894 87.3877 20.8494C87.6722 20.7532 87.9331 20.6285 88.1704 20.4752C88.4132 20.3155 88.6203 20.1281 88.7916 19.9133C88.9625 19.6923 89.0883 19.4416 89.1691 19.161C89.2559 18.8799 89.2861 18.5759 89.2595 18.2492C89.2306 17.8923 89.1496 17.57 89.0166 17.2823C88.8837 16.9947 88.7025 16.7506 88.4731 16.55C88.2431 16.3433 87.9722 16.1947 87.6604 16.1043C87.3481 16.0079 86.9953 15.9756 86.602 16.0075C86.118 16.0468 85.6986 16.1691 85.3437 16.3745C84.9884 16.5739 84.6947 16.82 84.4627 17.1129C84.2307 17.4058 84.0609 17.7149 83.9533 18.0403C83.8518 18.3653 83.8126 18.6699 83.8356 18.9543C83.8602 19.2568 83.9171 19.508 84.0064 19.7078C84.0952 19.9015 84.1952 20.0457 84.3064 20.1402C84.4232 20.2282 84.5421 20.2672 84.6631 20.2574C84.7901 20.2471 84.909 20.1735 85.0197 20.0366C85.1359 19.8932 85.2438 19.6835 85.3432 19.4075C85.4426 19.1314 85.5363 18.7858 85.6245 18.3706C85.7283 17.9237 85.8084 17.4483 85.865 16.9443C85.9215 16.4403 85.9518 15.9507 85.9559 15.4753L87.1931 15.4114ZM95.5902 13.6338C95.5729 13.7205 95.5556 13.8072 95.5383 13.8938C95.5265 13.974 95.5145 14.0511 95.5022 14.1251C95.4708 14.4139 95.4459 14.7448 95.4275 15.1178C95.4085 15.4847 95.4001 15.8691 95.4023 16.2709C95.4039 16.6666 95.4202 17.055 95.4512 17.4362C95.4895 17.9081 95.549 18.3418 95.6298 18.7372C95.7101 19.1265 95.8064 19.4872 95.9186 19.8191C96.0363 20.1445 96.1589 20.4543 96.2863 20.7485L95.2684 21.1508C95.1556 20.8859 95.0416 20.5693 94.9264 20.2011C94.8173 19.8323 94.7181 19.4354 94.6288 19.0102C94.539 18.579 94.4762 18.1426 94.4404 17.7009C94.4158 17.3984 94.4004 17.0952 94.394 16.7912C94.3931 16.4807 94.3928 16.1762 94.3929 15.8778C94.3926 15.5733 94.3965 15.2837 94.4046 15.009C94.4184 14.7277 94.4282 14.4742 94.4343 14.2483C94.4334 14.1631 94.4321 14.0719 94.4303 13.9746C94.428 13.8713 94.4207 13.7805 94.4082 13.7023L95.5902 13.6338ZM94.0566 14.7723C94.6313 14.7256 95.1688 14.6698 95.669 14.6049C96.1753 14.5395 96.6589 14.4576 97.1199 14.3593C97.5869 14.2605 98.0487 14.1347 98.5052 13.9819L98.5997 15.034C98.2895 15.1139 97.9458 15.1936 97.5686 15.2729C97.1969 15.3457 96.8066 15.4139 96.3976 15.4776C95.9947 15.5407 95.5973 15.5973 95.2055 15.6474C94.8132 15.6914 94.4447 15.7274 94.0998 15.7554C93.9425 15.7681 93.7638 15.7796 93.5636 15.7897C93.3695 15.7994 93.1754 15.8091 92.9813 15.8187C92.7928 15.8218 92.6287 15.826 92.489 15.8313L92.3764 14.7807C92.4802 14.7845 92.6299 14.7906 92.8255 14.7991C93.0206 14.8015 93.2278 14.803 93.447 14.8035C93.6719 14.7974 93.8751 14.787 94.0566 14.7723ZM98.0756 15.7799C98.0619 15.8358 98.0408 15.9137 98.0123 16.0134C97.9839 16.1132 97.9557 16.2159 97.9277 16.3217C97.9058 16.427 97.8882 16.5107 97.875 16.5727C97.7437 17.1314 97.5694 17.648 97.3522 18.1224C97.1404 18.5902 96.9031 19.0054 96.6402 19.3677C96.3768 19.7241 96.1115 20.0197 95.8443 20.2545C95.566 20.5024 95.2431 20.7265 94.8757 20.9269C94.5078 21.1212 94.1302 21.234 93.743 21.2654C93.5252 21.2831 93.3188 21.2542 93.1239 21.1786C92.929 21.1031 92.7662 20.9732 92.6355 20.7889C92.5104 20.5981 92.4356 20.3514 92.4111 20.0489C92.3845 19.7222 92.4251 19.3961 92.5326 19.0707C92.6402 18.7453 92.8005 18.4308 93.0133 18.1273C93.2262 17.8238 93.4811 17.5504 93.7781 17.3071C94.0745 17.0577 94.3991 16.8547 94.7518 16.6982C95.0394 16.5652 95.356 16.4512 95.7015 16.3562C96.0531 16.2607 96.4013 16.1989 96.7462 16.171C97.3089 16.1253 97.8194 16.1874 98.2777 16.3573C98.7422 16.5267 99.1159 16.7795 99.399 17.1159C99.6821 17.4522 99.843 17.8594 99.8818 18.3373C99.9078 18.658 99.8819 18.9768 99.8041 19.2937C99.7258 19.6046 99.5792 19.8997 99.3643 20.179C99.1555 20.4578 98.8682 20.7064 98.5022 20.9249C98.1363 21.1434 97.6784 21.3176 97.1287 21.4475L96.4524 20.5431C97.0278 20.4295 97.4892 20.2611 97.8365 20.038C98.1833 19.8089 98.4271 19.5486 98.5678 19.257C98.7147 18.9649 98.7761 18.6707 98.752 18.3742C98.7304 18.108 98.6384 17.8749 98.476 17.6749C98.3197 17.4745 98.0942 17.3222 97.7995 17.2183C97.5104 17.1077 97.1601 17.0692 96.7487 17.1025C96.3373 17.1359 95.9719 17.2113 95.6525 17.3285C95.3392 17.4453 95.0779 17.5639 94.8684 17.6845C94.5777 17.8542 94.3234 18.0606 94.1056 18.3036C93.8873 18.5406 93.7214 18.7855 93.608 19.0383C93.4945 19.2911 93.4461 19.5203 93.4628 19.7261C93.4746 19.8713 93.5169 19.9805 93.5899 20.0537C93.6623 20.1209 93.7712 20.1487 93.9164 20.1369C94.1342 20.1192 94.3796 20.0292 94.6527 19.867C94.9253 19.6987 95.1902 19.4732 95.4474 19.1905C95.7495 18.8615 96.0286 18.4734 96.2847 18.0263C96.5407 17.5792 96.737 17.0335 96.8735 16.389C96.8867 16.327 96.8985 16.2469 96.9088 16.1486C96.9191 16.0504 96.9264 15.9523 96.9306 15.8545C96.9404 15.7502 96.9459 15.6675 96.947 15.6066L98.0756 15.7799ZM102.465 13.4688C102.593 13.4766 102.73 13.4777 102.876 13.472C103.022 13.4662 103.161 13.458 103.294 13.4472C103.391 13.4393 103.536 13.4275 103.73 13.4118C103.923 13.3901 104.14 13.3663 104.382 13.3406C104.629 13.3145 104.874 13.2885 105.116 13.2628C105.357 13.2372 105.574 13.2134 105.767 13.1917C105.966 13.1634 106.12 13.1418 106.228 13.1269C106.414 13.0935 106.561 13.0664 106.669 13.0454C106.777 13.0184 106.857 12.9937 106.91 12.9711L107.565 13.7309C107.468 13.8058 107.367 13.881 107.264 13.9564C107.16 14.0318 107.06 14.1129 106.964 14.1999C106.85 14.2945 106.714 14.4182 106.555 14.5711C106.397 14.7179 106.227 14.8748 106.046 15.0418C105.87 15.2083 105.698 15.3715 105.528 15.5314C105.364 15.6909 105.215 15.834 105.079 15.9607C105.227 15.9121 105.37 15.8761 105.508 15.8528C105.646 15.8233 105.788 15.8027 105.933 15.7909C106.447 15.7492 106.915 15.8117 107.337 15.9785C107.764 16.1447 108.11 16.3907 108.374 16.7165C108.643 17.0356 108.796 17.4161 108.832 17.8577C108.871 18.3357 108.785 18.7781 108.574 19.185C108.364 19.5918 108.023 19.9301 107.551 20.1998C107.086 20.469 106.487 20.6333 105.755 20.6927C105.338 20.7265 104.954 20.6967 104.606 20.6032C104.263 20.5092 103.986 20.3581 103.774 20.15C103.563 19.9418 103.444 19.6865 103.42 19.384C103.4 19.1359 103.448 18.9006 103.563 18.6781C103.685 18.4489 103.861 18.258 104.093 18.1053C104.33 17.952 104.609 17.8624 104.929 17.8364C105.347 17.8025 105.705 17.8587 106.003 18.0051C106.306 18.1449 106.545 18.3478 106.719 18.6138C106.899 18.8794 107.005 19.1783 107.038 19.5106L105.988 19.7419C105.955 19.4097 105.849 19.1503 105.67 18.9639C105.496 18.771 105.275 18.6853 105.009 18.7069C104.84 18.7206 104.707 18.7771 104.612 18.8762C104.516 18.9692 104.473 19.0732 104.482 19.1882C104.496 19.3576 104.591 19.4868 104.769 19.576C104.947 19.6651 105.172 19.6986 105.444 19.6765C105.958 19.6347 106.383 19.5394 106.718 19.3904C107.053 19.2354 107.295 19.036 107.446 18.7923C107.602 18.5422 107.668 18.2567 107.642 17.9361C107.619 17.6638 107.515 17.4317 107.329 17.2397C107.149 17.0473 106.912 16.9051 106.619 16.8132C106.325 16.7213 106 16.6899 105.643 16.7188C105.292 16.7473 104.975 16.8187 104.692 16.933C104.408 17.0413 104.143 17.1877 103.896 17.3721C103.655 17.5501 103.419 17.7641 103.19 18.0141C102.966 18.2576 102.744 18.5283 102.525 18.8263L101.63 18.0402C101.782 17.8938 101.955 17.7306 102.147 17.5506C102.339 17.3645 102.534 17.1721 102.731 16.9734C102.934 16.7742 103.123 16.5883 103.298 16.4158C103.478 16.2368 103.63 16.0874 103.755 15.9677C103.873 15.8545 104.012 15.7215 104.17 15.5686C104.328 15.4157 104.492 15.2592 104.662 15.0993C104.831 14.9333 104.992 14.7771 105.144 14.6308C105.296 14.4784 105.423 14.3493 105.524 14.2437C105.433 14.2511 105.316 14.2637 105.171 14.2815C105.026 14.2993 104.866 14.3184 104.691 14.3387C104.522 14.3585 104.35 14.3785 104.175 14.3988C104.007 14.4186 103.847 14.4407 103.697 14.4651C103.552 14.4829 103.431 14.4988 103.335 14.5127C103.215 14.5285 103.088 14.5479 102.956 14.5708C102.824 14.5937 102.704 14.6187 102.597 14.6457L102.465 13.4688ZM112.549 19.0817C113.256 18.7137 113.843 18.2946 114.31 17.8243C114.784 17.3535 115.164 16.8658 115.452 16.3613C115.752 15.8498 115.958 15.3459 116.069 14.8496C116.181 14.3533 116.259 13.9147 116.301 13.5336C116.332 13.324 116.349 13.1156 116.35 12.9084C116.352 12.7012 116.345 12.5404 116.33 12.4259L117.816 12.5063C117.776 12.6862 117.74 12.8809 117.708 13.0906C117.676 13.2942 117.65 13.4607 117.63 13.5902C117.558 14.132 117.445 14.6832 117.289 15.2439C117.139 15.7981 116.918 16.3428 116.627 16.8781C116.321 17.4571 115.93 18.0065 115.454 18.5262C114.979 19.0459 114.395 19.5104 113.704 19.9198L112.549 19.0817ZM111.85 12.8351C111.978 12.9831 112.124 13.1692 112.288 13.3934C112.452 13.6175 112.618 13.8538 112.784 14.1022C112.956 14.344 113.115 14.5778 113.261 14.8034C113.413 15.0286 113.538 15.2164 113.636 15.3668L112.493 16.1447C112.364 15.9055 112.22 15.6644 112.06 15.4216C111.906 15.1723 111.749 14.9292 111.59 14.6924C111.43 14.4496 111.275 14.2307 111.125 14.0358C110.981 13.8344 110.852 13.6652 110.737 13.5284L111.85 12.8351ZM120.219 14.7596C120.328 14.7568 120.468 14.7546 120.638 14.7529C120.808 14.7452 120.984 14.737 121.166 14.7284C121.354 14.7192 121.527 14.7082 121.684 14.6955C121.836 14.6832 122.023 14.668 122.247 14.6498C122.471 14.6316 122.713 14.612 122.973 14.5909C123.239 14.5693 123.511 14.5472 123.79 14.5246C124.074 14.5015 124.355 14.4787 124.634 14.4561C124.912 14.4335 125.175 14.4122 125.423 14.392C125.671 14.3719 125.892 14.354 126.086 14.3383C126.285 14.3221 126.443 14.3093 126.558 14.3C126.77 14.2828 126.969 14.2606 127.155 14.2332C127.341 14.1999 127.495 14.1752 127.615 14.1594L127.731 15.5842C127.627 15.5865 127.472 15.59 127.266 15.5946C127.059 15.5991 126.859 15.6093 126.665 15.625C126.55 15.6343 126.393 15.6471 126.193 15.6633C125.994 15.6795 125.77 15.6977 125.522 15.7178C125.274 15.7379 125.011 15.7593 124.732 15.7819C124.46 15.804 124.182 15.8265 123.897 15.8496C123.613 15.8727 123.338 15.895 123.071 15.9166C122.811 15.9377 122.569 15.9574 122.345 15.9755C122.128 15.9932 121.943 16.0082 121.792 16.0205C121.532 16.0416 121.266 16.0692 120.995 16.1034C120.723 16.1316 120.503 16.1586 120.334 16.1844L120.219 14.7596ZM133.621 17.7006C133.632 17.6084 133.639 17.5043 133.641 17.3884C133.65 17.2659 133.649 17.1442 133.639 17.0232C133.634 16.9566 133.623 16.8235 133.607 16.6238C133.591 16.4242 133.571 16.1822 133.548 15.8978C133.525 15.6134 133.5 15.3079 133.474 14.9812C133.447 14.6484 133.419 14.3126 133.392 13.9738C133.364 13.635 133.339 13.3174 133.314 13.0209C133.29 12.7184 133.269 12.4552 133.25 12.2313C133.232 12.0014 133.218 11.835 133.21 11.7322C133.193 11.5265 133.167 11.349 133.13 11.1997C133.1 11.0499 133.081 10.9692 133.074 10.9576L134.426 10.8479C134.421 10.8605 134.416 10.9461 134.411 11.1049C134.405 11.2577 134.41 11.4369 134.427 11.6426C134.435 11.7454 134.448 11.8997 134.464 12.1054C134.481 12.3051 134.499 12.538 134.521 12.8042C134.542 13.0644 134.565 13.3427 134.589 13.6392C134.613 13.9356 134.637 14.2291 134.66 14.5195C134.683 14.8039 134.705 15.0761 134.726 15.3363C134.747 15.5904 134.765 15.8082 134.78 15.9897C134.794 16.1712 134.805 16.3043 134.812 16.389C135.051 16.26 135.296 16.0909 135.547 15.8817C135.798 15.6726 136.041 15.4337 136.275 15.165C136.514 14.8897 136.722 14.5988 136.898 14.2922L137.678 15.2338C137.456 15.5807 137.18 15.9259 136.848 16.2694C136.523 16.6125 136.183 16.9294 135.829 17.22C135.475 17.5106 135.133 17.7576 134.802 17.961C134.71 18.0234 134.635 18.0781 134.578 18.1254C134.522 18.1787 134.474 18.2252 134.434 18.265L133.621 17.7006ZM129.408 17.9055C129.785 17.5948 130.084 17.2325 130.307 16.8186C130.529 16.4047 130.685 16.0022 130.775 15.6112C130.825 15.4062 130.854 15.1572 130.861 14.8644C130.873 14.5649 130.874 14.2481 130.866 13.9139C130.856 13.5736 130.838 13.2401 130.812 12.9134C130.791 12.5801 130.769 12.2743 130.747 11.996C130.732 11.8145 130.71 11.661 130.682 11.5354C130.659 11.4033 130.631 11.2807 130.597 11.1677L131.931 11.0595C131.926 11.0721 131.921 11.1242 131.916 11.216C131.917 11.3011 131.917 11.4047 131.914 11.5267C131.918 11.6422 131.924 11.7634 131.935 11.8905C131.956 12.1567 131.979 12.4685 132.001 12.826C132.024 13.1774 132.041 13.5384 132.053 13.9089C132.065 14.2794 132.066 14.6326 132.057 14.9683C132.047 15.2979 132.021 15.5802 131.979 15.815C131.882 16.3406 131.712 16.8355 131.469 17.2997C131.232 17.7574 130.934 18.1744 130.575 18.5507L129.408 17.9055ZM138.541 11.2356C138.722 11.2149 138.894 11.1948 139.057 11.1755C139.219 11.1502 139.343 11.131 139.427 11.1181C139.613 11.0908 139.842 11.054 140.112 11.0077C140.388 10.9548 140.694 10.8995 141.03 10.8418C141.373 10.7836 141.736 10.7236 142.121 10.6619C142.506 10.6003 142.906 10.5343 143.32 10.4642C143.632 10.4084 143.942 10.3589 144.249 10.3157C144.562 10.266 144.857 10.2238 145.134 10.1891C145.417 10.1479 145.664 10.1156 145.875 10.0924L145.979 11.2533C145.815 11.2666 145.628 11.2848 145.417 11.308C145.205 11.3313 144.995 11.3606 144.784 11.3959C144.58 11.4247 144.397 11.4669 144.237 11.5225C143.971 11.6172 143.727 11.7618 143.505 11.9565C143.283 12.145 143.094 12.3644 142.937 12.6146C142.787 12.8582 142.674 13.1201 142.599 13.4002C142.524 13.6743 142.497 13.9475 142.52 14.2197C142.544 14.5162 142.616 14.7752 142.738 14.9968C142.865 15.2118 143.026 15.3936 143.221 15.5423C143.421 15.6844 143.65 15.7998 143.906 15.8886C144.163 15.9713 144.435 16.0283 144.724 16.0597C145.019 16.0906 145.322 16.1026 145.632 16.0957L145.306 17.3737C144.923 17.3804 144.546 17.3501 144.175 17.2827C143.81 17.2149 143.463 17.109 143.135 16.9652C142.807 16.8213 142.515 16.6379 142.259 16.415C142.009 16.1856 141.802 15.9193 141.637 15.6159C141.478 15.3061 141.382 14.9545 141.351 14.5613C141.315 14.1256 141.352 13.7207 141.462 13.3464C141.571 12.966 141.718 12.6313 141.901 12.3424C142.09 12.0469 142.282 11.8152 142.475 11.6472C142.308 11.6852 142.104 11.7261 141.864 11.7699C141.63 11.8132 141.375 11.8644 141.1 11.9232C140.83 11.9756 140.555 12.0315 140.273 12.0908C139.992 12.1502 139.72 12.2149 139.458 12.2849C139.201 12.3484 138.968 12.4099 138.76 12.4694L138.541 11.2356ZM144.753 12.248C144.84 12.3505 144.933 12.474 145.03 12.6184C145.132 12.7562 145.232 12.8973 145.329 13.0417C145.425 13.18 145.509 13.3073 145.579 13.4234L144.914 13.7879C144.779 13.5431 144.649 13.3283 144.524 13.1436C144.406 12.9583 144.266 12.7717 144.104 12.5838L144.753 12.248ZM145.736 11.7481C145.823 11.8506 145.918 11.9708 146.021 12.1086C146.129 12.2399 146.234 12.3775 146.337 12.5214C146.44 12.6592 146.526 12.7832 146.596 12.8932L145.942 13.2752C145.801 13.043 145.666 12.8378 145.535 12.6595C145.411 12.4808 145.266 12.2978 145.098 12.1104L145.736 11.7481ZM148.274 9.25828L149.762 9.1375L149.84 10.0904L148.351 10.2112L148.274 9.25828ZM147.857 9.29215L148.737 9.22072L149.001 12.4788C149.03 12.8358 149.053 13.2298 149.07 13.6608C149.093 14.0914 149.101 14.5352 149.096 14.9925C149.096 15.4492 149.074 15.8925 149.03 16.3224C148.992 16.7518 148.926 17.1438 148.833 17.4985C148.775 17.4545 148.694 17.4032 148.592 17.3445C148.49 17.2858 148.385 17.2304 148.277 17.1782C148.176 17.1316 148.091 17.0989 148.023 17.0801C148.106 16.7506 148.162 16.3928 148.191 16.0068C148.221 15.6207 148.235 15.2268 148.232 14.825C148.23 14.4172 148.216 14.0194 148.19 13.6317C148.171 13.2435 148.148 12.886 148.122 12.5593L147.857 9.29215ZM149.236 9.18022L150.171 9.10436L150.747 16.2104C150.765 16.4222 150.758 16.6054 150.728 16.7601C150.698 16.9148 150.623 17.0396 150.503 17.1347C150.383 17.2297 150.239 17.2962 150.071 17.3341C149.91 17.3716 149.711 17.3999 149.475 17.419C149.452 17.2869 149.406 17.1232 149.335 16.928C149.264 16.7327 149.191 16.5773 149.114 16.4617C149.242 16.4574 149.36 16.4509 149.469 16.4421C149.584 16.4327 149.662 16.4233 149.704 16.4138C149.783 16.4074 149.819 16.3589 149.811 16.2681L149.236 9.18022ZM153.172 8.94302L155.232 8.77585L155.311 9.74692L154.213 9.83603L154.796 17.0147L153.834 17.0928L153.172 8.94302ZM150.714 15.3453C151.05 15.2815 151.439 15.2012 151.882 15.1044C152.325 15.0075 152.779 14.9037 153.245 14.7928L153.385 15.7315C152.974 15.8379 152.556 15.9449 152.132 16.0524C151.708 16.1538 151.314 16.2497 150.95 16.3402L150.714 15.3453ZM152.201 13.9731L152.963 13.5732C153.099 13.818 153.227 14.0847 153.348 14.3733C153.475 14.6614 153.587 14.9478 153.683 15.2323C153.778 15.5108 153.85 15.7607 153.899 15.9821L153.085 16.4227C153.042 16.1947 152.976 15.9413 152.886 15.6623C152.796 15.3773 152.69 15.0875 152.569 14.7928C152.454 14.4977 152.331 14.2244 152.201 13.9731ZM154.724 8.81709L155.704 8.73756L156.168 14.4551C156.185 14.6547 156.181 14.8347 156.157 14.9949C156.133 15.1491 156.061 15.2738 155.941 15.3688C155.827 15.4693 155.699 15.5406 155.556 15.5827C155.419 15.6182 155.254 15.6438 155.06 15.6595C155.046 15.5632 155.013 15.4562 154.961 15.3387C154.914 15.2146 154.862 15.0909 154.803 14.9678C154.744 14.8447 154.687 14.7427 154.632 14.6619C154.735 14.6597 154.83 14.6551 154.914 14.6482C154.999 14.6413 155.059 14.6364 155.096 14.6335C155.162 14.6281 155.192 14.586 155.186 14.5074L154.724 8.81709ZM151.144 8.71479L152.124 8.63526L152.431 12.4197L151.451 12.4992L151.144 8.71479ZM151.201 12.9032L152.204 12.8858C152.175 13.1987 152.137 13.5215 152.091 13.8541C152.05 14.1802 152.009 14.4942 151.966 14.796C151.924 15.0979 151.878 15.3635 151.83 15.5927L150.977 15.5523C151.019 15.3175 151.055 15.0436 151.084 14.7306C151.12 14.4171 151.146 14.1014 151.163 13.7833C151.185 13.4587 151.198 13.1654 151.201 12.9032ZM150.499 10.0004L152.995 9.79784L153.072 10.7508L150.577 10.9533L150.499 10.0004ZM150.545 12.1343L153.276 11.9127L153.354 12.8656L150.622 13.0872L150.545 12.1343ZM148.446 11.3729L149.898 11.255L149.975 12.2079L148.523 12.3258L148.446 11.3729ZM148.61 13.5063L150.071 13.3877L150.148 14.3407L148.687 14.4592L148.61 13.5063ZM157.264 12.5391L165.496 11.8712L165.574 12.8332L157.342 13.5011L157.264 12.5391ZM159.167 9.75379L164.077 9.35538L164.145 10.1994L159.235 10.5978L159.167 9.75379ZM159.273 11.0606L164.183 10.6622L164.251 11.5063L159.341 11.9047L159.273 11.0606ZM157.922 15.6922C158.276 15.6209 158.68 15.5363 159.135 15.4385C159.595 15.3341 160.077 15.225 160.579 15.1112C161.087 14.9968 161.587 14.8832 162.077 14.7704L162.209 15.7189C161.749 15.8293 161.283 15.9432 160.811 16.0606C160.34 16.1781 159.886 16.285 159.449 16.3813C159.013 16.4837 158.612 16.5801 158.248 16.6706L157.922 15.6922ZM161.779 12.4468C162.14 13.2154 162.661 13.8277 163.344 14.2839C164.026 14.7401 164.89 15.0202 165.933 15.1243C165.861 15.2094 165.784 15.313 165.703 15.4354C165.627 15.5572 165.555 15.6818 165.486 15.8092C165.418 15.9366 165.363 16.0536 165.323 16.1604C164.565 16.0454 163.903 15.8433 163.337 15.5542C162.772 15.2712 162.282 14.8968 161.867 14.4312C161.457 13.965 161.102 13.4092 160.8 12.7638L161.779 12.4468ZM164.403 12.8094L165.332 13.3461C165.122 13.5276 164.899 13.7071 164.663 13.8845C164.434 14.0554 164.2 14.2175 163.963 14.3707C163.726 14.5239 163.505 14.6606 163.302 14.7806L162.53 14.2768C162.733 14.1507 162.95 14.0053 163.18 13.8404C163.41 13.6695 163.63 13.4933 163.84 13.3118C164.057 13.1298 164.244 12.9623 164.403 12.8094ZM158.457 8.44108L164.211 7.97418L164.283 8.86357L159.646 9.23989L159.929 12.7249L158.812 12.8154L158.457 8.44108ZM158.804 12.7065L159.92 12.6159L160.164 15.629L159.058 15.8375L158.804 12.7065ZM168.695 9.98546L168.741 10.5481L172.544 10.2396L172.498 9.6769L168.695 9.98546ZM168.813 11.4375L168.86 12.0093L172.662 11.7007L172.616 11.129L168.813 11.4375ZM168.578 8.54247L168.624 9.10514L172.427 8.79658L172.381 8.2339L168.578 8.54247ZM167.449 7.68405L173.412 7.20021L173.846 12.5547L167.883 13.0385L167.449 7.68405ZM171.192 12.0393L172.308 11.9487L172.484 14.1177C172.496 14.263 172.524 14.355 172.57 14.3939C172.622 14.4263 172.732 14.4356 172.901 14.4219C172.938 14.4189 172.995 14.4143 173.074 14.4079C173.158 14.401 173.252 14.3934 173.355 14.385C173.458 14.3767 173.555 14.3688 173.645 14.3615C173.736 14.3541 173.806 14.3485 173.854 14.3445C173.957 14.3362 174.034 14.3026 174.084 14.2437C174.134 14.1848 174.164 14.0667 174.174 13.8893C174.184 13.7119 174.18 13.4442 174.163 13.0862C174.247 13.1403 174.348 13.193 174.468 13.2442C174.594 13.2948 174.722 13.3362 174.853 13.3683C174.989 13.3998 175.104 13.427 175.198 13.4499C175.2 13.9308 175.166 14.3051 175.097 14.5726C175.028 14.8462 174.91 15.0415 174.742 15.1586C174.575 15.2757 174.341 15.3465 174.038 15.371C173.99 15.375 173.923 15.3804 173.838 15.3872C173.76 15.3936 173.672 15.4007 173.575 15.4086C173.478 15.4165 173.379 15.4246 173.276 15.4329C173.179 15.4408 173.091 15.4479 173.012 15.4543C172.934 15.4606 172.873 15.4656 172.831 15.469C172.474 15.498 172.192 15.4782 171.986 15.4097C171.785 15.3407 171.638 15.2096 171.543 15.0163C171.454 14.8225 171.396 14.5562 171.368 14.2174L171.192 12.0393ZM169.007 12.5911L170.169 12.4968C170.166 12.9112 170.13 13.2947 170.061 13.6474C169.998 13.9936 169.872 14.3114 169.682 14.6009C169.498 14.8898 169.224 15.1496 168.859 15.3802C168.495 15.6168 168.012 15.8295 167.413 16.0183C167.374 15.9179 167.314 15.8101 167.231 15.695C167.155 15.5855 167.07 15.4736 166.976 15.3595C166.888 15.2509 166.801 15.1635 166.717 15.0973C167.235 14.9578 167.646 14.8057 167.95 14.641C168.252 14.4702 168.478 14.2845 168.626 14.0837C168.78 13.8823 168.881 13.661 168.928 13.4197C168.975 13.1722 169.002 12.8961 169.007 12.5911ZM178.045 6.88816C178.303 6.91595 178.597 6.94078 178.928 6.96267C179.258 6.97851 179.598 6.99362 179.946 7.00799C180.3 7.02186 180.636 7.03116 180.953 7.03588C181.276 7.03406 181.553 7.0329 181.784 7.0324L181.725 8.106C181.487 8.107 181.207 8.10538 180.884 8.10115C180.567 8.09038 180.234 8.07781 179.885 8.06344C179.543 8.04858 179.204 8.03348 178.868 8.01813C178.531 8.00278 178.228 7.98171 177.958 7.9549L178.045 6.88816ZM182.3 9.44791C182.186 9.54243 182.083 9.63295 181.993 9.71946C181.902 9.79992 181.82 9.87964 181.747 9.95862C181.645 10.0522 181.527 10.1714 181.393 10.3163C181.264 10.4607 181.13 10.6086 180.99 10.76C180.85 10.9054 180.724 11.0405 180.612 11.1652C180.506 11.2895 180.429 11.3841 180.379 11.4491C180.415 11.4401 180.47 11.4387 180.543 11.4449C180.617 11.4511 180.679 11.4643 180.729 11.4846C180.866 11.5161 180.981 11.5799 181.074 11.6759C181.166 11.7658 181.25 11.893 181.324 12.0575C181.361 12.1337 181.395 12.2223 181.428 12.3232C181.466 12.4175 181.504 12.5119 181.542 12.6062C181.58 12.7006 181.617 12.7858 181.654 12.862C181.708 12.9978 181.789 13.0978 181.898 13.162C182.006 13.2263 182.149 13.2513 182.324 13.237C182.56 13.2179 182.783 13.1937 182.994 13.1644C183.204 13.1291 183.402 13.0917 183.588 13.0523C183.774 13.0128 183.941 12.9719 184.09 12.9293L184.113 14.1241C183.994 14.1581 183.824 14.1933 183.601 14.2296C183.385 14.2715 183.16 14.3081 182.925 14.3393C182.696 14.3701 182.503 14.3918 182.346 14.4046C181.916 14.4394 181.573 14.4095 181.315 14.3146C181.064 14.2254 180.869 14.0372 180.73 13.75C180.699 13.6612 180.66 13.5608 180.615 13.4488C180.569 13.3368 180.527 13.2276 180.488 13.1211C180.454 13.0081 180.422 12.9163 180.392 12.8457C180.33 12.6863 180.252 12.58 180.156 12.5268C180.06 12.4677 179.967 12.4417 179.876 12.4491C179.779 12.457 179.685 12.4981 179.593 12.5725C179.502 12.6409 179.406 12.7369 179.306 12.8607C179.251 12.9261 179.181 13.0109 179.099 13.1151C179.022 13.2188 178.931 13.3358 178.826 13.4661C178.726 13.596 178.622 13.7354 178.512 13.8843C178.409 14.0328 178.299 14.1879 178.185 14.3494C178.07 14.511 177.956 14.6786 177.842 14.8523L176.71 14.1859C176.783 14.1069 176.87 14.0176 176.971 13.918C177.072 13.8124 177.179 13.6972 177.29 13.5724C177.363 13.4874 177.465 13.3664 177.599 13.2094C177.732 13.0463 177.884 12.8634 178.057 12.6607C178.235 12.4574 178.419 12.2415 178.607 12.0131C178.801 11.7781 178.996 11.5461 179.19 11.3172C179.385 11.0882 179.565 10.8726 179.731 10.6703C179.903 10.4615 180.053 10.2788 180.18 10.1223C180.054 10.1387 179.912 10.1593 179.756 10.1842C179.599 10.203 179.436 10.2253 179.268 10.2512C179.099 10.271 178.934 10.2966 178.772 10.328C178.609 10.3533 178.459 10.3777 178.321 10.4011C178.183 10.4245 178.06 10.4466 177.952 10.4676C177.796 10.4924 177.652 10.5224 177.521 10.5574C177.389 10.5863 177.275 10.6108 177.18 10.6307L176.969 9.38718C177.072 9.38488 177.203 9.3834 177.361 9.38274C177.519 9.37602 177.68 9.36301 177.842 9.3437C177.927 9.33683 178.066 9.32251 178.259 9.30075C178.458 9.2785 178.688 9.25077 178.947 9.21756C179.206 9.18435 179.468 9.15089 179.733 9.11719C180.004 9.07694 180.257 9.03817 180.491 9.00087C180.731 8.95704 180.923 8.92015 181.067 8.89022C181.151 8.87124 181.243 8.84851 181.345 8.82201C181.452 8.79502 181.529 8.77049 181.576 8.74841L182.3 9.44791Z" fill="#61BDD1"/>
</svg>
