<svg width="211" height="33" viewBox="0 0 211 33" fill="none" xmlns="http://www.w3.org/2000/svg">
<rect width="210.01" height="19.5048" transform="translate(1.17361) rotate(3.44958)" fill="white"/>
<path d="M9.04459 6.00729L9.96256 6.06262L9.44811 14.597L8.53015 14.5416L9.04459 6.00729ZM7.75316 7.60785L10.6525 7.78262L10.5949 8.73694L8.49544 8.61038L8.25329 12.6276L7.45348 12.5794L7.75316 7.60785ZM10.2707 7.75961L11.0433 7.80618L10.8088 11.6962C10.7989 11.8598 10.7747 12.0103 10.736 12.1479C10.7033 12.2858 10.6362 12.3912 10.5345 12.4641C10.4328 12.537 10.3267 12.5823 10.2161 12.6C10.1056 12.6176 9.96855 12.6215 9.80495 12.6117C9.80693 12.478 9.78897 12.3219 9.75109 12.1432C9.71321 11.9646 9.66763 11.8129 9.61434 11.688C9.69311 11.6928 9.76279 11.697 9.82338 11.7006C9.89003 11.7046 9.93548 11.7074 9.95971 11.7088C10.0082 11.7118 10.0343 11.6829 10.0379 11.6223L10.2707 7.75961ZM11.3665 6.53037L16.0563 6.81306L16.0031 7.69467L11.3133 7.41197L11.3665 6.53037ZM12.546 8.7542L12.5049 9.43586L14.568 9.56023L14.6091 8.87857L12.546 8.7542ZM11.6768 7.88997L15.6213 8.12774L15.4838 10.409L11.5392 10.1712L11.6768 7.88997ZM11.4771 12.1104L15.3398 12.3433L15.29 13.1704L11.4272 12.9375L11.4771 12.1104ZM11.3707 13.5726L15.2607 13.8071L15.2097 14.6524L11.3198 14.4179L11.3707 13.5726ZM11.1199 10.6203L15.7734 10.9008L15.5301 14.9362L14.5213 14.8754L14.7136 11.6853L12.0324 11.5236L11.8396 14.7229L10.8761 14.6648L11.1199 10.6203ZM12.9119 11.1571L13.8299 11.2124L13.6436 14.3026L12.7257 14.2472L12.9119 11.1571ZM18.3103 13.6078C18.7961 13.6189 19.3578 13.6315 19.9955 13.6456C20.6396 13.654 21.3201 13.6646 22.0369 13.6774C22.7601 13.6845 23.4742 13.6911 24.1793 13.6971L24.1014 14.6867C23.4199 14.6942 22.7323 14.7014 22.0386 14.7083C21.3446 14.7212 20.6814 14.7268 20.049 14.7252C19.4163 14.7296 18.8474 14.7348 18.3423 14.7409L18.3103 13.6078ZM20.8471 9.35493L22.0769 9.68447C21.949 10.0903 21.8087 10.5014 21.6559 10.9179C21.5092 11.3347 21.3567 11.7452 21.1986 12.1491C21.0408 12.5471 20.8811 12.9266 20.7195 13.2878C20.5639 13.6494 20.4135 13.9748 20.2684 14.2641L19.2481 13.938C19.394 13.6367 19.539 13.2988 19.6832 12.9244C19.8335 12.5503 19.9816 12.1609 20.1276 11.7562C20.274 11.3454 20.4081 10.9369 20.5299 10.5308C20.652 10.1185 20.7578 9.72658 20.8471 9.35493ZM22.3704 11.9279L23.4237 11.5535C23.6574 11.9142 23.8922 12.3054 24.1283 12.7271C24.3647 13.1427 24.5771 13.5538 24.7655 13.9605C24.9542 14.361 25.0934 14.7252 25.1831 15.0529L24.0254 15.4939C23.9531 15.1794 23.8289 14.8192 23.6527 14.4133C23.4829 14.0017 23.2864 13.5794 23.0632 13.1463C22.8403 12.7072 22.6094 12.3011 22.3704 11.9279ZM18.2637 7.72148L25.3984 8.15155L25.3354 9.19676L18.2007 8.76669L18.2637 7.72148ZM17.7366 7.6897L18.8363 7.75599L18.6977 10.0554C18.6758 10.419 18.6364 10.821 18.5794 11.2615C18.5289 11.6963 18.4562 12.145 18.3614 12.6075C18.267 13.064 18.1402 13.5033 17.981 13.9255C17.8217 14.3477 17.6226 14.7248 17.3837 15.0571C17.3207 14.9925 17.2342 14.9143 17.1242 14.8225C17.0138 14.7368 16.9004 14.6509 16.784 14.5648C16.6672 14.4848 16.5673 14.4271 16.4843 14.3917C16.6975 14.0822 16.8732 13.7401 17.0113 13.3653C17.1495 12.9906 17.2579 12.6049 17.3365 12.2082C17.4151 11.8116 17.472 11.4228 17.5071 11.0418C17.5483 10.6612 17.5786 10.3103 17.598 9.98916L17.7366 7.6897ZM21.0332 6.72083L22.1693 6.78932L22.0685 8.46165L20.9324 8.39317L21.0332 6.72083ZM31.4131 8.85162C31.3247 9.30846 31.2164 9.79451 31.088 10.3098C30.9596 10.825 30.7976 11.3443 30.6019 11.8676C30.3892 12.469 30.1515 12.9838 29.8885 13.4118C29.6255 13.8399 29.3443 14.1665 29.0449 14.3917C28.752 14.6112 28.4389 14.711 28.1056 14.6909C27.7724 14.6708 27.4701 14.5401 27.1988 14.2987C26.934 14.0517 26.7288 13.7231 26.5832 13.3129C26.4438 12.9032 26.3893 12.4438 26.42 11.9348C26.4518 11.4077 26.5878 10.9172 26.828 10.4634C27.0682 10.0097 27.3869 9.61536 27.7841 9.28051C28.1877 8.93997 28.6472 8.68186 29.1626 8.50616C29.6839 8.33083 30.2385 8.26088 30.8263 8.29631C31.3898 8.33027 31.8902 8.45166 32.3276 8.66046C32.7711 8.86963 33.1437 9.14446 33.4455 9.48496C33.7473 9.82545 33.9701 10.2159 34.1138 10.6563C34.2575 11.0968 34.3144 11.5654 34.2844 12.0623C34.2461 12.6985 34.0815 13.2602 33.7906 13.7474C33.4998 14.2346 33.087 14.6263 32.5522 14.9224C32.0235 15.2189 31.3738 15.4048 30.603 15.4799L29.9866 14.3573C30.1634 14.3497 30.3192 14.3378 30.4539 14.3216C30.5887 14.3054 30.7176 14.2858 30.8406 14.2628C31.1358 14.2076 31.4117 14.1209 31.6681 14.0026C31.931 13.8785 32.1624 13.7222 32.3623 13.5336C32.5625 13.3389 32.7224 13.1083 32.8418 12.8419C32.9673 12.5758 33.0399 12.2791 33.0597 11.9519C33.0812 11.5945 33.0464 11.264 32.9552 10.9605C32.8641 10.657 32.719 10.3898 32.5201 10.1589C32.3215 9.92194 32.0742 9.73676 31.7782 9.60337C31.4826 9.46393 31.1378 9.38234 30.744 9.35859C30.2592 9.32938 29.8268 9.39148 29.4466 9.54492C29.0667 9.6923 28.7414 9.89465 28.4704 10.152C28.1995 10.4093 27.9879 10.6915 27.8356 10.9985C27.6894 11.3059 27.6077 11.602 27.5905 11.8868C27.5722 12.1898 27.5933 12.4464 27.6536 12.6568C27.7142 12.8612 27.7929 13.0179 27.8897 13.1272C27.993 13.2307 28.1052 13.2861 28.2263 13.2934C28.3536 13.3011 28.4816 13.2449 28.6105 13.125C28.7458 12.9994 28.882 12.8069 29.0193 12.5476C29.1565 12.2883 29.298 11.9593 29.4436 11.5607C29.6093 11.1328 29.7556 10.6734 29.8825 10.1824C30.0094 9.69135 30.1083 9.21081 30.1792 8.74076L31.4131 8.85162ZM37.4747 8.46903C37.6009 8.49488 37.7516 8.51613 37.927 8.53278C38.1023 8.54943 38.2658 8.56232 38.4172 8.57145C38.5324 8.57839 38.7081 8.58898 38.9444 8.60323C39.1867 8.61784 39.4534 8.63391 39.7442 8.65144C40.0411 8.66934 40.335 8.68705 40.6258 8.70458C40.9166 8.72211 41.1772 8.73782 41.4074 8.7517C41.6377 8.76558 41.8073 8.7758 41.9164 8.78238C42.0558 8.79078 42.2226 8.79779 42.4168 8.80342C42.6111 8.80905 42.7724 8.80661 42.9007 8.7961L42.8301 9.96855C42.7096 9.94913 42.5524 9.93357 42.3585 9.92189C42.1711 9.90451 41.9955 9.89088 41.8319 9.88102C41.735 9.87518 41.5684 9.86513 41.3321 9.85089C41.1018 9.83701 40.8382 9.82112 40.5413 9.80323C40.2505 9.78569 39.9566 9.76798 39.6597 9.75008C39.3689 9.73255 39.1053 9.71666 38.869 9.70242C38.6327 9.68817 38.46 9.67776 38.3509 9.67119C38.2055 9.66242 38.0448 9.65577 37.8687 9.65124C37.6987 9.64707 37.5438 9.64382 37.4041 9.64148L37.4747 8.46903ZM43.5053 11.4779C43.4714 11.5366 43.434 11.6013 43.3933 11.6718C43.3586 11.7427 43.3307 11.8018 43.3096 11.8492C43.1439 12.277 42.9419 12.7027 42.7036 13.1262C42.4716 13.544 42.1747 13.9305 41.8127 14.2857C41.3276 14.7673 40.7936 15.1516 40.2107 15.4388C39.6282 15.7199 39.0412 15.9247 38.4497 16.0533L37.6118 14.972C38.3053 14.8679 38.927 14.6925 39.477 14.4459C40.027 14.1993 40.4855 13.9077 40.8524 13.571C41.1097 13.3372 41.3193 13.0884 41.4812 12.8245C41.6495 12.5549 41.7835 12.2984 41.8833 12.0551C41.8167 12.0511 41.7015 12.0441 41.5379 12.0343C41.3743 12.0244 41.1774 12.0126 40.9472 11.9987C40.723 11.9852 40.4806 11.9705 40.2201 11.9548C39.9595 11.9391 39.6929 11.9231 39.4203 11.9066C39.1476 11.8902 38.8871 11.8745 38.6386 11.8595C38.3902 11.8445 38.166 11.831 37.9661 11.819C37.7722 11.8073 37.6146 11.7978 37.4934 11.7905C37.3844 11.7839 37.2297 11.7776 37.0294 11.7716C36.8291 11.7656 36.6314 11.7659 36.4364 11.7724L36.5076 10.5908C36.7008 10.6146 36.8879 10.6381 37.0689 10.6612C37.2561 10.6846 37.4193 10.7005 37.5586 10.7089C37.6495 10.7144 37.7859 10.7226 37.9676 10.7336C38.1555 10.7449 38.3706 10.7579 38.6129 10.7725C38.8553 10.7871 39.1128 10.8026 39.3855 10.819C39.6642 10.8358 39.9399 10.8525 40.2126 10.8689C40.4913 10.8857 40.7549 10.9016 41.0033 10.9166C41.2517 10.9315 41.4668 10.9445 41.6486 10.9555C41.8304 10.9664 41.9667 10.9746 42.0576 10.9801C42.203 10.9889 42.3338 10.9876 42.45 10.9764C42.5723 10.9655 42.6645 10.9498 42.7265 10.9292L43.5053 11.4779ZM50.0355 8.7701C50.0057 8.96289 49.981 9.11952 49.9616 9.23997C49.9425 9.35437 49.9292 9.47518 49.9215 9.60243C49.9168 9.6812 49.9094 9.80238 49.8996 9.96598C49.8897 10.1296 49.8795 10.2992 49.8689 10.4749C49.8583 10.6507 49.8495 10.7961 49.8426 10.9112L48.5793 10.8351C48.5869 10.7078 48.5961 10.5563 48.6067 10.3806C48.6173 10.2049 48.6273 10.0383 48.6368 9.88074C48.6463 9.7232 48.6534 9.60504 48.6582 9.52627C48.6658 9.39903 48.6671 9.27748 48.6619 9.16163C48.6631 9.04008 48.6545 8.88145 48.6359 8.68573L50.0355 8.7701ZM52.9828 10.8725C52.9406 10.9672 52.8968 11.0892 52.8513 11.2385C52.8122 11.3821 52.7809 11.4988 52.7572 11.5886C52.7081 11.7985 52.6497 12.0108 52.582 12.2257C52.5204 12.4409 52.4466 12.6554 52.3608 12.8691C52.281 13.0832 52.1892 13.2936 52.0856 13.5002C51.988 13.7071 51.8784 13.9103 51.7569 14.1098C51.4879 14.5375 51.1546 14.9218 50.757 15.2627C50.3655 15.604 49.9258 15.8876 49.4378 16.1136C48.9502 16.3335 48.4324 16.4999 47.8844 16.6129L47.0049 15.4652C47.2131 15.4413 47.4341 15.406 47.668 15.3593C47.9023 15.3065 48.1155 15.2494 48.3078 15.188C48.5681 15.1064 48.8268 15.0004 49.084 14.8699C49.3477 14.7338 49.5976 14.5725 49.8338 14.3861C50.0701 14.1996 50.2803 13.9903 50.4646 13.7582C50.6296 13.5432 50.7743 13.3117 50.8987 13.0638C51.0235 12.8098 51.1274 12.5485 51.2105 12.2798C51.2939 12.0051 51.3619 11.7356 51.4143 11.4712L46.9063 11.1994C46.9015 11.2782 46.8955 11.3782 46.8882 11.4993C46.8812 11.6145 46.8736 11.7417 46.8652 11.8811C46.8571 12.0144 46.8497 12.1386 46.8427 12.2537C46.8361 12.3628 46.8307 12.4537 46.8263 12.5264C46.8201 12.6294 46.8162 12.7447 46.8145 12.8723C46.8129 12.9999 46.8124 13.1093 46.813 13.2006L45.5588 13.125C45.5778 13.0106 45.5944 12.8869 45.6085 12.754C45.629 12.6154 45.6429 12.4854 45.6502 12.3643C45.6546 12.2916 45.661 12.1855 45.6694 12.0462C45.6778 11.9068 45.6867 11.7583 45.6962 11.6008C45.7061 11.4372 45.7154 11.2827 45.7242 11.1373C45.7329 10.9919 45.7399 10.8767 45.745 10.7919C45.7512 10.6889 45.7558 10.5615 45.7589 10.4096C45.7624 10.2517 45.7583 10.1177 45.7467 10.0075C45.9031 10.0352 46.0539 10.0565 46.1989 10.0713C46.344 10.0861 46.5013 10.0986 46.671 10.1089L51.4608 10.3976C51.6486 10.4089 51.8006 10.409 51.9168 10.3977C52.0395 10.3808 52.1409 10.3626 52.2212 10.3431L52.9828 10.8725ZM56.3573 9.67111C56.5083 9.78968 56.6851 9.93412 56.8877 10.1044C57.0902 10.2748 57.2979 10.4606 57.5108 10.6619C57.7301 10.8576 57.9344 11.0493 58.1238 11.2371C58.3132 11.4248 58.4673 11.5922 58.5861 11.7393L57.6021 12.6286C57.4946 12.4944 57.3523 12.3338 57.175 12.1468C56.9978 11.9598 56.8058 11.7657 56.5989 11.5648C56.3921 11.3638 56.1878 11.1721 55.986 10.9896C55.7841 10.8072 55.6049 10.6535 55.4482 10.5285L56.3573 9.67111ZM54.8564 15.6557C55.333 15.6176 55.784 15.5505 56.2094 15.4545C56.6348 15.3585 57.031 15.2426 57.398 15.1066C57.765 14.9706 58.102 14.8267 58.4091 14.6749C58.9428 14.397 59.4366 14.074 59.8905 13.7061C60.3445 13.3382 60.7448 12.9519 61.0915 12.5471C61.4386 12.1362 61.7183 11.7335 61.9306 11.3388L62.5622 12.6631C62.3075 13.0552 61.9983 13.444 61.6345 13.8295C61.2768 14.2154 60.8747 14.5803 60.4283 14.9244C59.9822 15.2623 59.505 15.562 58.9967 15.8232C58.6763 15.9924 58.3323 16.1511 57.9646 16.2992C57.5972 16.4412 57.2098 16.5638 56.8022 16.667C56.4003 16.7765 55.9821 16.8547 55.5475 16.9015L54.8564 15.6557ZM69.7181 10.6224C69.7957 10.7487 69.881 10.8968 69.9741 11.0666C70.0673 11.2364 70.1544 11.4058 70.2354 11.5749C70.3225 11.7444 70.3982 11.901 70.4625 12.0447L69.6504 12.3515C69.5773 12.1525 69.5028 11.9747 69.4271 11.8181C69.3575 11.6619 69.2845 11.5115 69.208 11.367C69.132 11.2165 69.0411 11.059 68.9355 10.8945L69.7181 10.6224ZM70.9389 10.1943C71.0225 10.321 71.111 10.4662 71.2045 10.6299C71.3041 10.7941 71.3974 10.9608 71.4845 11.1303C71.578 11.294 71.6539 11.4476 71.7122 11.591L70.9262 11.9176C70.841 11.7178 70.7573 11.5425 70.6752 11.3916C70.5995 11.235 70.5202 11.0874 70.4373 10.9486C70.3609 10.8041 70.2695 10.6557 70.1632 10.5033L70.9389 10.1943ZM65.7285 16.4297C65.7358 16.3085 65.7473 16.1176 65.763 15.8571C65.7791 15.5905 65.7975 15.2845 65.8183 14.9391C65.8395 14.5877 65.8614 14.2242 65.8841 13.8485C65.9071 13.4668 65.9292 13.1002 65.9504 12.7487C65.9719 12.3913 65.9909 12.0762 66.0074 11.8035C66.0238 11.5309 66.0358 11.3309 66.0435 11.2037C66.0534 11.0401 66.0554 10.8547 66.0497 10.6476C66.05 10.4409 66.0397 10.2578 66.0189 10.0984L67.4368 10.1839C67.4091 10.3403 67.3803 10.515 67.3505 10.7078C67.3206 10.9006 67.3 11.0909 67.2887 11.2787C67.2788 11.4423 67.2651 11.6695 67.2476 11.9604C67.23 12.2512 67.2105 12.5754 67.189 12.9329C67.1678 13.2843 67.146 13.6448 67.1238 14.0144C67.1015 14.384 67.0801 14.7385 67.0597 15.0778C67.0396 15.4111 67.0219 15.7049 67.0065 15.9594C66.9915 16.2078 66.9806 16.3896 66.9736 16.5047C66.9689 16.5835 66.9648 16.7019 66.9614 16.8598C66.9644 17.012 66.967 17.1702 66.9692 17.3346C66.9776 17.4993 66.9839 17.6456 66.9884 17.7736L65.5614 17.6875C65.6023 17.5137 65.6361 17.3059 65.6629 17.0643C65.696 16.8169 65.7179 16.6054 65.7285 16.4297ZM66.9495 12.5171C67.2477 12.6141 67.5778 12.7374 67.9397 12.8869C68.3081 13.0307 68.6787 13.1869 69.0517 13.3553C69.425 13.5177 69.7772 13.6788 70.1081 13.8386C70.4393 13.9923 70.7108 14.1303 70.9223 14.2525L70.3372 15.4852C70.085 15.3301 69.8085 15.1766 69.5075 15.0247C69.2065 14.8728 68.8993 14.7235 68.5858 14.5769C68.2788 14.4246 67.9771 14.2848 67.6807 14.1575C67.3843 14.0301 67.1143 13.9196 66.8706 13.8259L66.9495 12.5171ZM75.3799 16.8746C75.3868 16.7595 75.3981 16.5717 75.4138 16.3111C75.4299 16.0445 75.4484 15.7385 75.4692 15.3932C75.4904 15.0417 75.5125 14.6752 75.5355 14.2934C75.5585 13.9117 75.5806 13.5451 75.6018 13.1937C75.6233 12.8362 75.6423 12.5211 75.6587 12.2485C75.6752 11.9758 75.6872 11.7759 75.6949 11.6486C75.7044 11.4911 75.7063 11.3087 75.7005 11.1016C75.7008 10.8949 75.6905 10.7118 75.6697 10.5525L77.0876 10.6379C77.0599 10.7944 77.0312 10.969 77.0013 11.1618C76.9718 11.3485 76.9514 11.5358 76.9401 11.7237C76.9298 11.8933 76.9159 12.1236 76.8984 12.4144C76.8809 12.7053 76.8613 13.0294 76.8398 13.3869C76.8186 13.7383 76.7969 14.0989 76.7746 14.4685C76.7527 14.832 76.7315 15.1835 76.711 15.5228C76.6906 15.8621 76.6727 16.159 76.6574 16.4135C76.6424 16.6619 76.6316 16.8406 76.625 16.9497C76.6199 17.0345 76.6156 17.1559 76.6122 17.3138C76.6091 17.4656 76.6118 17.6239 76.6201 17.7886C76.6284 17.9533 76.6317 18.0995 76.6301 18.2271L75.2123 18.1416C75.2475 17.9613 75.2815 17.7505 75.3143 17.5092C75.347 17.2679 75.3689 17.0564 75.3799 16.8746ZM76.5912 12.9706C76.8894 13.0676 77.2226 13.1911 77.5906 13.3409C77.9589 13.4848 78.3298 13.6379 78.7031 13.8002C79.0764 13.9626 79.4255 14.1235 79.7504 14.283C80.0816 14.4367 80.3559 14.5779 80.5731 14.7066L79.9795 15.9296C79.733 15.7809 79.4593 15.6307 79.1583 15.4787C78.8577 15.3207 78.5507 15.1684 78.2372 15.0218C77.9298 14.8756 77.6249 14.7386 77.3224 14.611C77.0261 14.4836 76.7562 14.3701 76.5129 14.2703L76.5912 12.9706ZM87.3297 12.6327C87.3024 12.7831 87.2828 12.9066 87.2709 13.0032C87.259 13.0998 87.2499 13.1995 87.2437 13.3026C87.2401 13.3631 87.2338 13.4662 87.2251 13.6116C87.2167 13.7509 87.2079 13.8964 87.1988 14.0478C87.19 14.1933 87.1825 14.3175 87.1763 14.4205L86.013 14.3503C86.0195 14.2413 86.0272 14.114 86.036 13.9686C86.0451 13.8171 86.0539 13.6717 86.0623 13.5324C86.0707 13.393 86.0767 13.293 86.0803 13.2324C86.0866 13.1294 86.0896 13.0293 86.0893 12.9319C86.0891 12.8346 86.0784 12.7093 86.0573 12.556L87.3297 12.6327ZM89.8836 14.3009C89.8482 14.3839 89.8143 14.4913 89.7821 14.6232C89.7501 14.7489 89.7259 14.8478 89.7094 14.9198C89.6603 15.1297 89.5881 15.3686 89.4929 15.6365C89.4038 15.9048 89.2995 16.1721 89.18 16.4386C89.0606 16.705 88.9337 16.9437 88.7994 17.1545C88.5839 17.5003 88.3037 17.8118 87.9586 18.089C87.6199 18.3605 87.2382 18.5898 86.8134 18.777C86.3943 18.9707 85.9512 19.1082 85.4841 19.1895L84.6457 18.1173C84.7623 18.1 84.8911 18.0804 85.0323 18.0585C85.1739 18.0306 85.3124 18.0024 85.4479 17.9741C85.5838 17.9397 85.692 17.9098 85.7726 17.8842C86.095 17.782 86.4167 17.6403 86.7378 17.459C87.0649 17.278 87.3499 17.0398 87.5927 16.7443C87.718 16.5815 87.8322 16.4029 87.9351 16.2085C88.0441 16.0144 88.1357 15.807 88.2098 15.5865C88.2899 15.3663 88.3491 15.1418 88.3872 14.9131L84.7062 14.6912C84.7026 14.7518 84.6978 14.8305 84.692 14.9275C84.6862 15.0244 84.6799 15.1274 84.6734 15.2365C84.6668 15.3456 84.6608 15.4455 84.6553 15.5364C84.6498 15.6273 84.6454 15.7 84.6421 15.7546C84.637 15.8394 84.6344 15.9335 84.6342 16.0369C84.6341 16.1402 84.6349 16.2285 84.6365 16.3015L83.4823 16.232C83.4999 16.1418 83.515 16.0424 83.5276 15.9337C83.5402 15.825 83.5495 15.7221 83.5553 15.6252C83.5586 15.5707 83.5639 15.4828 83.5712 15.3616C83.5789 15.2344 83.5871 15.098 83.5959 14.9526C83.605 14.8011 83.6134 14.6618 83.6211 14.5345C83.6287 14.4073 83.6346 14.3104 83.6386 14.2437C83.6437 14.1589 83.6446 14.0434 83.6412 13.8972C83.6383 13.745 83.6336 13.6201 83.6274 13.5224C83.7539 13.5422 83.8955 13.5629 84.0523 13.5845C84.2095 13.6001 84.3578 13.612 84.4971 13.6204L88.478 13.8604C88.6355 13.8699 88.7632 13.8715 88.8608 13.8652C88.9646 13.8593 89.0503 13.8493 89.1181 13.8351L89.8836 14.3009ZM92.1992 12.5067C92.3813 12.5116 92.5544 12.5159 92.7184 12.5197C92.8827 12.5174 93.0075 12.5158 93.0926 12.5149C93.2812 12.5141 93.5126 12.5098 93.7867 12.502C94.0672 12.4885 94.3781 12.4768 94.7192 12.467C95.0664 12.4575 95.4348 12.4493 95.8244 12.4424C96.214 12.4355 96.619 12.4264 97.0393 12.4153C97.3562 12.404 97.6697 12.3986 97.9798 12.399C98.2963 12.3938 98.5943 12.3935 98.8738 12.3982C99.1596 12.3972 99.4088 12.4 99.6212 12.4067L99.5602 13.5707C99.3966 13.5608 99.2086 13.5525 98.9962 13.5458C98.7837 13.539 98.5709 13.5384 98.3577 13.5438C98.151 13.5435 97.9646 13.5596 97.7984 13.5922C97.5214 13.6484 97.2594 13.7573 97.0125 13.9188C96.7659 14.0742 96.5477 14.2648 96.3577 14.4905C96.1742 14.7105 96.0257 14.9539 95.9124 15.2207C95.7993 15.4815 95.7346 15.7482 95.7182 16.0209C95.7003 16.3178 95.7359 16.5844 95.825 16.8209C95.9206 17.0517 96.0543 17.2543 96.2262 17.4289C96.4046 17.5977 96.6147 17.7442 96.8565 17.8682C97.0987 17.9862 97.3606 18.081 97.6421 18.1527C97.9296 18.2248 98.2274 18.2792 98.5353 18.316L98.0331 19.5355C97.6528 19.4882 97.2838 19.4052 96.9261 19.2863C96.5745 19.1678 96.2462 19.0142 95.9414 18.8256C95.6365 18.6369 95.3732 18.4143 95.1515 18.1577C94.9363 17.8954 94.7684 17.6025 94.6481 17.279C94.5341 16.9498 94.489 16.5883 94.5128 16.1945C94.5391 15.7582 94.6328 15.3625 94.7941 15.0074C94.9558 14.6462 95.1478 14.3354 95.3703 14.0752C95.5991 13.8093 95.8211 13.6068 96.0363 13.4677C95.8652 13.4817 95.6577 13.4935 95.4139 13.5031C95.1761 13.5131 94.9168 13.5279 94.6358 13.5475C94.3613 13.5613 94.0806 13.5779 93.7936 13.597C93.5067 13.6162 93.2284 13.642 92.9589 13.6744C92.6958 13.7011 92.4569 13.7293 92.2423 13.7589L92.1992 12.5067ZM98.2068 14.383C98.279 14.4968 98.353 14.632 98.4287 14.7886C98.5108 14.9395 98.5897 15.0933 98.6654 15.2499C98.7414 15.4004 98.8061 15.5381 98.8594 15.6629L98.15 15.9303C98.0503 15.6689 97.9517 15.4379 97.8543 15.2374C97.763 15.0373 97.6506 14.8329 97.5173 14.6242L98.2068 14.383ZM99.25 14.0263C99.3222 14.1401 99.3993 14.2725 99.4814 14.4234C99.57 14.5686 99.6551 14.7196 99.7369 14.8766C99.819 15.0275 99.8869 15.1623 99.9406 15.2811L99.2392 15.5672C99.1326 15.3175 99.0274 15.0953 98.9236 14.9005C98.8259 14.7061 98.7073 14.5044 98.5679 14.2953L99.25 14.0263ZM102.515 12.6815C102.647 12.6956 102.786 12.7131 102.931 12.734C103.076 12.7548 103.233 12.7704 103.402 12.7806C103.53 12.7883 103.705 12.7989 103.93 12.8124C104.154 12.8259 104.408 12.8413 104.693 12.8584C104.978 12.8756 105.272 12.8933 105.575 12.9116C105.878 12.9298 106.172 12.9475 106.456 12.9647C106.741 12.9819 106.999 12.9974 107.229 13.0113C107.459 13.0252 107.641 13.0361 107.774 13.0441C107.932 13.0536 108.08 13.0596 108.22 13.0619C108.36 13.0582 108.485 13.0536 108.595 13.048L108.526 14.1841C108.412 14.1711 108.288 14.1576 108.155 14.1435C108.028 14.1297 107.88 14.1178 107.71 14.1075C107.577 14.0995 107.389 14.0882 107.147 14.0736C106.904 14.059 106.629 14.0423 106.319 14.0237C106.017 14.0054 105.704 13.9866 105.383 13.9673C105.068 13.9483 104.768 13.9302 104.484 13.913C104.199 13.8959 103.953 13.8811 103.747 13.8687C103.547 13.8566 103.411 13.8484 103.338 13.844C103.169 13.8338 103.011 13.8273 102.865 13.8246C102.72 13.8158 102.58 13.8135 102.446 13.8176L102.515 12.6815ZM105.448 16.0692C105.442 16.1783 105.433 16.3237 105.422 16.5055C105.411 16.6872 105.399 16.8811 105.387 17.0871C105.375 17.2871 105.364 17.4719 105.353 17.6416C105.343 17.8112 105.336 17.9354 105.331 18.0142C105.316 18.2626 105.387 18.4433 105.545 18.5561C105.702 18.669 105.962 18.7364 106.326 18.7583C106.738 18.7831 107.142 18.7953 107.537 18.7948C107.932 18.7943 108.313 18.7869 108.679 18.7724L108.523 19.9945C108.328 19.9949 108.091 19.9928 107.812 19.9881C107.538 19.9838 107.247 19.9753 106.938 19.9628C106.628 19.9502 106.331 19.9353 106.046 19.9182C105.495 19.8849 105.071 19.7986 104.776 19.6591C104.486 19.52 104.29 19.338 104.188 19.1129C104.087 18.8818 104.045 18.6117 104.064 18.3027C104.073 18.1573 104.083 17.9785 104.096 17.7664C104.109 17.5544 104.122 17.3332 104.136 17.103C104.15 16.8727 104.163 16.6576 104.175 16.4577C104.187 16.2577 104.197 16.0911 104.205 15.9578C104.21 15.8851 104.217 15.7699 104.226 15.6124C104.236 15.4549 104.246 15.2761 104.258 15.0762C104.271 14.8702 104.283 14.6702 104.295 14.4763C104.306 14.2824 104.317 14.1097 104.326 13.9583C104.335 13.8007 104.342 13.6947 104.345 13.6402L105.59 13.7152C105.587 13.7697 105.58 13.8818 105.57 14.0515C105.56 14.2211 105.548 14.4181 105.534 14.6423C105.521 14.8604 105.508 15.0755 105.495 15.2876C105.483 15.4996 105.472 15.6784 105.463 15.8238C105.454 15.9692 105.449 16.051 105.448 16.0692ZM101.757 15.2538C101.89 15.2679 102.053 15.2868 102.247 15.3107C102.446 15.3348 102.615 15.3511 102.754 15.3595C102.876 15.3668 103.051 15.3774 103.282 15.3913C103.518 15.4055 103.788 15.4218 104.091 15.44C104.4 15.4587 104.724 15.4782 105.063 15.4987C105.408 15.5195 105.748 15.5399 106.081 15.56C106.414 15.5801 106.726 15.5989 107.017 15.6165C107.314 15.6344 107.565 15.6495 107.771 15.6619C107.984 15.6747 108.135 15.6838 108.226 15.6893C108.293 15.6933 108.381 15.6956 108.49 15.6961C108.599 15.6966 108.709 15.7002 108.818 15.7068C108.933 15.7076 109.031 15.7074 109.11 15.7061L109.049 16.87C108.928 16.8506 108.78 16.8356 108.604 16.825C108.429 16.8083 108.29 16.7969 108.187 16.7907C108.096 16.7852 107.941 16.7759 107.723 16.7628C107.511 16.75 107.257 16.7346 106.96 16.7167C106.663 16.6989 106.345 16.6797 106.006 16.6592C105.666 16.6388 105.327 16.6183 104.988 16.5979C104.648 16.5774 104.324 16.5579 104.015 16.5392C103.712 16.521 103.446 16.5049 103.215 16.491C102.985 16.4771 102.809 16.4666 102.688 16.4593C102.561 16.4516 102.397 16.4478 102.196 16.4478C101.996 16.4418 101.826 16.4407 101.686 16.4444L101.757 15.2538ZM111.009 15.6746C111.118 15.6873 111.256 15.7048 111.425 15.7271C111.595 15.7434 111.77 15.7601 111.951 15.7771C112.139 15.7945 112.311 15.8079 112.469 15.8174C112.62 15.8265 112.808 15.8378 113.032 15.8514C113.257 15.8649 113.499 15.8795 113.76 15.8952C114.026 15.9113 114.299 15.9277 114.578 15.9445C114.862 15.9617 115.144 15.9786 115.423 15.9954C115.701 16.0122 115.965 16.0281 116.213 16.0431C116.462 16.0581 116.683 16.0714 116.877 16.0831C117.077 16.0952 117.234 16.1047 117.35 16.1116C117.562 16.1244 117.762 16.1304 117.951 16.1296C118.139 16.1227 118.295 16.1199 118.416 16.1212L118.33 17.5481C118.228 17.5358 118.074 17.5174 117.868 17.4929C117.663 17.4684 117.463 17.4502 117.27 17.4386C117.154 17.4316 116.997 17.4221 116.797 17.4101C116.597 17.398 116.373 17.3845 116.124 17.3695C115.876 17.3545 115.612 17.3387 115.334 17.3219C115.061 17.3054 114.782 17.2886 114.498 17.2715C114.213 17.2543 113.937 17.2377 113.67 17.2216C113.41 17.2059 113.168 17.1913 112.943 17.1778C112.725 17.1646 112.54 17.1535 112.389 17.1443C112.128 17.1286 111.861 17.1186 111.588 17.1143C111.315 17.1039 111.093 17.0997 110.923 17.1016L111.009 15.6746ZM125.887 14.0083C125.964 14.1345 126.05 14.2826 126.143 14.4524C126.236 14.6222 126.323 14.7917 126.404 14.9607C126.491 15.1302 126.567 15.2868 126.631 15.4305L125.819 15.7373C125.746 15.5383 125.671 15.3605 125.596 15.2039C125.526 15.0477 125.453 14.8973 125.377 14.7529C125.3 14.6023 125.21 14.4448 125.104 14.2803L125.887 14.0083ZM127.107 13.5801C127.191 13.7068 127.28 13.852 127.373 14.0158C127.473 14.1799 127.566 14.3466 127.653 14.5161C127.747 14.6798 127.822 14.8334 127.881 14.9768L127.095 15.3034C127.009 15.1037 126.926 14.9283 126.844 14.7774C126.768 14.6208 126.689 14.4732 126.606 14.3344C126.529 14.1899 126.438 14.0415 126.332 13.8891L127.107 13.5801ZM121.897 19.8155C121.904 19.6943 121.916 19.5035 121.932 19.2429C121.948 18.9763 121.966 18.6703 121.987 18.3249C122.008 17.9735 122.03 17.61 122.053 17.2343C122.076 16.8526 122.098 16.486 122.119 16.1346C122.14 15.7771 122.159 15.462 122.176 15.1893C122.192 14.9167 122.204 14.7167 122.212 14.5895C122.222 14.4259 122.224 14.2405 122.218 14.0334C122.218 13.8267 122.208 13.6436 122.187 13.4842L123.605 13.5697C123.578 13.7262 123.549 13.9008 123.519 14.0936C123.489 14.2864 123.469 14.4767 123.457 14.6645C123.447 14.8281 123.434 15.0553 123.416 15.3462C123.399 15.637 123.379 15.9612 123.357 16.3187C123.336 16.6701 123.315 17.0306 123.292 17.4002C123.27 17.7698 123.249 18.1243 123.228 18.4636C123.208 18.7969 123.19 19.0907 123.175 19.3452C123.16 19.5937 123.149 19.7754 123.142 19.8906C123.137 19.9693 123.133 20.0877 123.13 20.2456C123.133 20.3978 123.135 20.556 123.138 20.7204C123.146 20.8851 123.152 21.0314 123.157 21.1594L121.73 21.0734C121.771 20.8995 121.805 20.6917 121.831 20.4501C121.865 20.2027 121.886 19.9912 121.897 19.8155ZM123.118 15.9029C123.416 15.9999 123.746 16.1232 124.108 16.2727C124.477 16.4165 124.847 16.5727 125.22 16.7411C125.594 16.9035 125.946 17.0646 126.277 17.2244C126.608 17.3781 126.879 17.5161 127.091 17.6383L126.506 18.871C126.254 18.7159 125.977 18.5624 125.676 18.4105C125.375 18.2586 125.068 18.1093 124.754 17.9627C124.447 17.8104 124.146 17.6706 123.849 17.5433C123.553 17.4159 123.283 17.3054 123.039 17.2117L123.118 15.9029ZM131.591 16.0761L131.557 16.6396L135.365 16.8692L135.399 16.3057L131.591 16.0761ZM131.503 17.5303L131.469 18.1029L135.277 18.3325L135.311 17.7599L131.503 17.5303ZM131.678 14.631L131.644 15.1945L135.452 15.4241L135.486 14.8606L131.678 14.631ZM130.681 13.6222L136.652 13.9822L136.329 19.3445L130.357 18.9846L130.681 13.6222ZM133.773 18.4607L134.891 18.5281L134.76 20.7003C134.751 20.8458 134.767 20.941 134.807 20.9859C134.853 21.0252 134.961 21.05 135.131 21.0602C135.167 21.0624 135.225 21.0658 135.303 21.0706C135.388 21.0757 135.482 21.0814 135.585 21.0876C135.688 21.0938 135.785 21.0996 135.876 21.1051C135.967 21.1106 136.036 21.1148 136.085 21.1177C136.188 21.1239 136.268 21.1014 136.326 21.0502C136.384 20.9989 136.43 20.8862 136.465 20.7119C136.5 20.5376 136.534 20.2721 136.568 19.9154C136.643 19.9807 136.736 20.0472 136.848 20.1147C136.965 20.1826 137.086 20.2416 137.211 20.2917C137.342 20.3421 137.452 20.3852 137.541 20.421C137.476 20.8975 137.39 21.2633 137.283 21.5183C137.176 21.7794 137.032 21.9562 136.85 22.0486C136.668 22.141 136.425 22.1781 136.122 22.1599C136.074 22.1569 136.007 22.1529 135.923 22.1478C135.844 22.1431 135.756 22.1378 135.659 22.1319C135.562 22.1261 135.462 22.12 135.359 22.1138C135.262 22.108 135.174 22.1027 135.095 22.0979C135.017 22.0932 134.956 22.0895 134.914 22.087C134.556 22.0654 134.28 22.0062 134.085 21.9093C133.896 21.8128 133.769 21.6622 133.702 21.4575C133.641 21.2532 133.621 20.9814 133.642 20.642L133.773 18.4607ZM131.533 18.6997L132.696 18.7698C132.635 19.1797 132.546 19.5543 132.428 19.8939C132.317 20.2277 132.147 20.5246 131.918 20.7844C131.696 21.0447 131.388 21.2633 130.994 21.4402C130.6 21.6232 130.092 21.766 129.472 21.8684C129.448 21.7636 129.403 21.6484 129.338 21.5228C129.278 21.4037 129.209 21.281 129.132 21.1547C129.06 21.0348 128.987 20.9361 128.913 20.8587C129.446 20.7935 129.874 20.7007 130.197 20.5804C130.521 20.4539 130.771 20.3017 130.945 20.1238C131.126 19.9462 131.257 19.7412 131.338 19.5089C131.42 19.2706 131.484 19.0008 131.533 18.6997ZM141.283 14.3252C141.535 14.389 141.823 14.455 142.147 14.5232C142.472 14.5853 142.805 14.648 143.148 14.7113C143.497 14.7749 143.828 14.8313 144.141 14.8806C144.461 14.9242 144.736 14.962 144.965 14.9941L144.755 16.0487C144.52 16.0163 144.243 15.9752 143.923 15.9256C143.611 15.8702 143.283 15.8109 142.94 15.7477C142.603 15.6848 142.269 15.6222 141.939 15.5597C141.608 15.4972 141.311 15.4336 141.047 15.3691L141.283 14.3252ZM145.135 17.4581C145.009 17.5356 144.895 17.6109 144.793 17.6838C144.692 17.7507 144.6 17.8181 144.517 17.886C144.403 17.9643 144.269 18.0657 144.115 18.1902C143.968 18.3151 143.814 18.4427 143.654 18.5729C143.495 18.6971 143.351 18.8131 143.223 18.9209C143.101 19.0291 143.011 19.1118 142.953 19.1691C142.989 19.1653 143.044 19.1716 143.116 19.1881C143.188 19.2046 143.247 19.2264 143.294 19.2536C143.425 19.304 143.53 19.3833 143.608 19.4914C143.687 19.5935 143.752 19.7312 143.802 19.9045C143.828 19.9851 143.849 20.0776 143.868 20.1821C143.892 20.2809 143.916 20.3796 143.941 20.4784C143.965 20.5772 143.99 20.6669 144.016 20.7475C144.05 20.8894 144.116 20.9998 144.215 21.0787C144.313 21.1576 144.451 21.2024 144.626 21.213C144.863 21.2272 145.087 21.2347 145.3 21.2353C145.513 21.2299 145.714 21.2208 145.904 21.2079C146.093 21.195 146.264 21.1779 146.418 21.1568L146.273 22.343C146.15 22.3599 145.977 22.3707 145.751 22.3754C145.532 22.3865 145.303 22.391 145.066 22.3888C144.835 22.3871 144.641 22.3814 144.483 22.372C144.053 22.346 143.717 22.268 143.476 22.1379C143.24 22.0142 143.074 21.8005 142.976 21.4966C142.958 21.4043 142.934 21.2995 142.904 21.1821C142.875 21.0648 142.848 20.9507 142.824 20.8398C142.807 20.7232 142.789 20.6279 142.769 20.5537C142.73 20.3872 142.667 20.2709 142.58 20.2048C142.493 20.1327 142.404 20.0939 142.313 20.0884C142.216 20.0826 142.117 20.11 142.016 20.1708C141.916 20.2256 141.808 20.3072 141.692 20.4158C141.627 20.4727 141.547 20.5469 141.45 20.6384C141.359 20.7302 141.253 20.8333 141.13 20.9475C141.014 21.0621 140.891 21.1855 140.762 21.3175C140.638 21.4499 140.508 21.588 140.372 21.7319C140.235 21.8757 140.099 22.0255 139.961 22.1815L138.934 21.3624C139.018 21.2945 139.116 21.2183 139.231 21.134C139.346 21.0437 139.467 20.9446 139.596 20.8367C139.679 20.7627 139.798 20.6574 139.952 20.5207C140.107 20.378 140.284 20.2184 140.483 20.0419C140.688 19.8658 140.9 19.6779 141.119 19.4782C141.344 19.2729 141.569 19.0705 141.794 18.8712C142.019 18.672 142.228 18.4839 142.421 18.307C142.62 18.1244 142.794 17.9646 142.942 17.8276C142.815 17.826 142.672 17.8265 142.513 17.8291C142.355 17.8257 142.191 17.8249 142.021 17.8268C141.851 17.8226 141.684 17.8247 141.519 17.833C141.355 17.8353 141.202 17.8383 141.062 17.842C140.922 17.8457 140.797 17.8503 140.687 17.8559C140.529 17.8585 140.383 17.8679 140.248 17.8841C140.113 17.8943 139.997 17.9025 139.9 17.9088L139.866 16.6479C139.969 16.6602 140.099 16.6771 140.255 16.6988C140.413 16.7143 140.573 16.724 140.737 16.7278C140.822 16.7329 140.962 16.7383 141.156 16.7439C141.356 16.7499 141.587 16.7547 141.848 16.7583C142.109 16.7619 142.374 16.7656 142.641 16.7696C142.915 16.7678 143.17 16.765 143.408 16.7611C143.652 16.7514 143.847 16.7419 143.993 16.7325C144.079 16.7255 144.174 16.716 144.278 16.7041C144.388 16.6924 144.468 16.679 144.517 16.6638L145.135 17.4581ZM153.741 15.1218C153.732 15.1699 153.718 15.2481 153.7 15.3564C153.688 15.4591 153.675 15.5647 153.662 15.6734C153.65 15.7761 153.64 15.8515 153.631 15.8996C153.617 16.0204 153.604 16.1838 153.592 16.3898C153.58 16.5898 153.566 16.8139 153.551 17.0624C153.536 17.3108 153.521 17.5623 153.506 17.8167C153.497 18.0655 153.486 18.302 153.472 18.5262C153.465 18.7447 153.457 18.9267 153.448 19.0721L152.335 18.6219C152.342 18.5068 152.351 18.3553 152.363 18.1674C152.374 17.9735 152.387 17.7645 152.401 17.5403C152.414 17.3101 152.425 17.0827 152.433 16.8581C152.446 16.6339 152.455 16.4308 152.46 16.2486C152.465 16.0665 152.467 15.9298 152.467 15.8385C152.466 15.65 152.461 15.4854 152.451 15.345C152.441 15.1985 152.432 15.0976 152.423 15.0423L153.741 15.1218ZM148.538 15.9392C148.805 15.9553 149.108 15.9705 149.448 15.9849C149.787 15.9993 150.142 16.0146 150.512 16.0308C150.882 16.0471 151.246 16.0629 151.604 16.0784C151.962 16.0939 152.298 16.1111 152.613 16.1301C152.929 16.1431 153.202 16.1565 153.432 16.1704C153.662 16.1842 153.914 16.1994 154.186 16.2158C154.459 16.2262 154.729 16.2394 154.996 16.2555C155.262 16.2716 155.505 16.2862 155.723 16.2993C155.947 16.3128 156.12 16.3233 156.241 16.3306L156.167 17.4025C155.883 17.3732 155.508 17.3415 155.042 17.3073C154.576 17.267 154.007 17.2266 153.334 17.1861C152.922 17.1613 152.504 17.1421 152.079 17.1287C151.654 17.1092 151.233 17.0929 150.814 17.0798C150.395 17.0667 149.991 17.0576 149.602 17.0524C149.214 17.0411 148.846 17.0372 148.499 17.0406L148.538 15.9392ZM153.293 18.9259C153.263 19.4227 153.178 19.8311 153.037 20.151C152.902 20.4713 152.711 20.7091 152.465 20.8645C152.219 21.0139 151.92 21.0779 151.568 21.0568C151.399 21.0465 151.222 20.9994 151.039 20.9154C150.861 20.8317 150.698 20.7154 150.549 20.5666C150.4 20.4177 150.283 20.2374 150.198 20.0255C150.12 19.814 150.089 19.5689 150.106 19.2902C150.127 18.9448 150.226 18.6529 150.405 18.4143C150.584 18.1697 150.814 17.9859 151.095 17.863C151.382 17.7344 151.693 17.6801 152.026 17.7002C152.426 17.7243 152.754 17.8353 153.009 18.0331C153.271 18.2253 153.46 18.4768 153.575 18.7878C153.696 19.0992 153.745 19.4457 153.722 19.8275C153.704 20.1244 153.637 20.4304 153.521 20.7457C153.405 21.061 153.225 21.3664 152.982 21.6619C152.746 21.9517 152.432 22.2095 152.042 22.4353C151.657 22.6615 151.181 22.8365 150.614 22.9604L149.7 21.9384C150.092 21.883 150.459 21.8017 150.8 21.6946C151.141 21.5874 151.442 21.4444 151.702 21.2655C151.968 21.0869 152.179 20.8595 152.336 20.5831C152.498 20.3071 152.592 19.9691 152.616 19.5692C152.633 19.2784 152.574 19.0558 152.437 18.9017C152.306 18.7478 152.141 18.6649 151.941 18.6528C151.826 18.6459 151.712 18.6664 151.6 18.7144C151.488 18.7623 151.395 18.8388 151.322 18.9439C151.248 19.0489 151.207 19.1802 151.198 19.3378C151.185 19.5438 151.245 19.7146 151.377 19.8502C151.515 19.9802 151.675 20.0506 151.856 20.0616C152.002 20.0704 152.132 20.0326 152.246 19.9483C152.367 19.8643 152.452 19.7174 152.501 19.5075C152.55 19.2977 152.537 19.0111 152.462 18.6477L153.293 18.9259ZM159.143 15.8487C159.269 15.8746 159.405 15.8949 159.55 15.9098C159.695 15.9246 159.834 15.936 159.967 15.944C160.064 15.9499 160.21 15.9587 160.404 15.9703C160.598 15.976 160.817 15.9831 161.059 15.9916C161.308 16.0005 161.554 16.0093 161.797 16.0178C162.039 16.0264 162.258 16.0334 162.452 16.0391C162.653 16.039 162.808 16.0392 162.917 16.0398C163.106 16.0329 163.255 16.0267 163.365 16.0212C163.475 16.0096 163.558 15.9963 163.614 15.9814L164.156 16.8259C164.049 16.8864 163.939 16.9466 163.826 17.0067C163.713 17.0668 163.602 17.1331 163.495 17.2057C163.368 17.2832 163.216 17.3865 163.038 17.5156C162.86 17.6387 162.67 17.7702 162.467 17.9099C162.27 18.0501 162.076 18.1874 161.886 18.3219C161.701 18.4567 161.533 18.5773 161.38 18.6837C161.534 18.6564 161.681 18.641 161.821 18.6372C161.962 18.6275 162.104 18.627 162.25 18.6357C162.765 18.6668 163.219 18.7945 163.613 19.0189C164.013 19.2437 164.321 19.5359 164.536 19.8955C164.758 20.2495 164.856 20.6476 164.829 21.0899C164.801 21.5686 164.653 21.9945 164.387 22.3677C164.122 22.7409 163.737 23.0278 163.232 23.2284C162.733 23.4295 162.117 23.5079 161.384 23.4637C160.966 23.4385 160.591 23.3551 160.259 23.2134C159.933 23.0722 159.68 22.8836 159.5 22.6477C159.319 22.4118 159.238 22.1424 159.256 21.8395C159.271 21.591 159.352 21.3648 159.498 21.1608C159.65 20.951 159.852 20.7868 160.102 20.6681C160.359 20.5498 160.648 20.5003 160.969 20.5197C161.387 20.5449 161.733 20.6509 162.008 20.8377C162.289 21.0188 162.496 21.2533 162.631 21.5412C162.772 21.8294 162.835 22.1403 162.821 22.4739L161.749 22.5553C161.763 22.2216 161.694 21.9499 161.543 21.7401C161.398 21.5246 161.192 21.4088 160.925 21.3927C160.756 21.3825 160.616 21.4197 160.508 21.5044C160.4 21.583 160.342 21.6799 160.335 21.795C160.325 21.9647 160.402 22.1061 160.565 22.2194C160.729 22.3326 160.947 22.3974 161.219 22.4139C161.734 22.4449 162.168 22.4103 162.521 22.3099C162.874 22.2035 163.142 22.0403 163.326 21.8202C163.516 21.5945 163.62 21.3211 163.64 21C163.656 20.7273 163.586 20.4828 163.429 20.2666C163.277 20.0507 163.063 19.8766 162.785 19.7444C162.507 19.6121 162.19 19.5351 161.832 19.5136C161.481 19.4924 161.157 19.5185 160.86 19.5919C160.565 19.6591 160.281 19.7667 160.011 19.9146C159.747 20.0568 159.484 20.2356 159.221 20.4508C158.966 20.6604 158.708 20.8973 158.449 21.1614L157.673 20.2572C157.845 20.1337 158.039 19.9964 158.255 19.8453C158.471 19.688 158.69 19.5249 158.914 19.3559C159.143 19.1873 159.356 19.0299 159.553 18.8836C159.757 18.7317 159.929 18.6053 160.069 18.5042C160.202 18.4089 160.358 18.2967 160.536 18.1675C160.714 18.0384 160.898 17.9066 161.089 17.7721C161.28 17.6316 161.461 17.4996 161.633 17.3762C161.805 17.2467 161.948 17.1368 162.063 17.0464C161.972 17.0409 161.854 17.0368 161.708 17.0341C161.562 17.0314 161.401 17.0278 161.225 17.0232C161.055 17.0191 160.882 17.0147 160.706 17.0102C160.536 17.006 160.375 17.0054 160.223 17.0084C160.077 17.0057 159.955 17.0045 159.858 17.0047C159.736 17.0034 159.609 17.0049 159.475 17.0089C159.341 17.013 159.218 17.0209 159.108 17.0325L159.143 15.8487ZM173.762 17.1222C173.753 17.2676 173.797 17.3949 173.894 17.5041C173.991 17.6073 174.112 17.6632 174.258 17.672C174.403 17.6808 174.53 17.6398 174.639 17.549C174.748 17.4523 174.807 17.3311 174.816 17.1857C174.825 17.0403 174.781 16.913 174.684 16.8038C174.587 16.6946 174.466 16.6356 174.321 16.6268C174.175 16.618 174.048 16.662 173.939 16.7588C173.829 16.8556 173.77 16.9768 173.762 17.1222ZM173.198 17.0882C173.21 16.8883 173.27 16.7094 173.376 16.5516C173.49 16.3882 173.631 16.2629 173.8 16.1758C173.97 16.0888 174.155 16.0512 174.354 16.0633C174.554 16.0754 174.733 16.1348 174.891 16.2416C175.049 16.3484 175.171 16.4896 175.258 16.6651C175.351 16.8349 175.391 17.0197 175.379 17.2197C175.368 17.4136 175.305 17.5892 175.193 17.7466C175.086 17.9044 174.947 18.0298 174.778 18.123C174.608 18.21 174.423 18.2476 174.224 18.2355C174.024 18.2235 173.845 18.164 173.687 18.0572C173.53 17.9444 173.404 17.803 173.311 17.6332C173.224 17.4638 173.186 17.2821 173.198 17.0882ZM168.003 20.4967C168.121 20.2485 168.234 19.9877 168.342 19.7145C168.456 19.4355 168.559 19.1498 168.649 18.8573C168.74 18.5587 168.822 18.2626 168.894 17.969C168.973 17.6757 169.033 17.3844 169.075 17.0951L170.385 17.4477C170.356 17.5311 170.323 17.6294 170.285 17.7427C170.248 17.856 170.214 17.9665 170.183 18.0741C170.152 18.1817 170.129 18.2715 170.112 18.3434C170.072 18.4991 170.019 18.6875 169.95 18.9084C169.882 19.1293 169.804 19.3648 169.716 19.6149C169.629 19.8589 169.538 20.1058 169.444 20.3555C169.356 20.5996 169.266 20.8253 169.175 21.0326C169.048 21.3168 168.9 21.612 168.729 21.9179C168.565 22.2242 168.389 22.5177 168.202 22.7983C168.021 23.0793 167.844 23.3301 167.673 23.5509L166.433 22.9379C166.746 22.5798 167.041 22.181 167.317 21.7415C167.599 21.3024 167.827 20.8875 168.003 20.4967ZM172.504 20.5765C172.428 20.3287 172.344 20.0651 172.251 19.7859C172.158 19.5067 172.06 19.2271 171.955 18.9471C171.85 18.6671 171.748 18.4025 171.647 18.1532C171.547 17.9039 171.453 17.6884 171.367 17.5069L172.599 17.1889C172.679 17.3701 172.773 17.5886 172.879 17.8443C172.985 18.1 173.09 18.3709 173.195 18.6569C173.299 18.9369 173.401 19.2167 173.5 19.4963C173.599 19.7759 173.687 20.0275 173.765 20.2511C173.831 20.4558 173.902 20.6972 173.976 20.9754C174.057 21.2539 174.137 21.5445 174.216 21.8473C174.301 22.1443 174.378 22.4347 174.446 22.7186C174.52 23.0028 174.581 23.2588 174.628 23.4866L173.256 23.8418C173.199 23.4796 173.13 23.1106 173.049 22.7347C172.969 22.3589 172.881 21.9888 172.788 21.6244C172.7 21.2603 172.606 20.911 172.504 20.5765ZM178.508 17.0343C178.659 17.1529 178.836 17.2973 179.039 17.4676C179.241 17.638 179.449 17.8238 179.662 18.0251C179.881 18.2208 180.086 18.4125 180.275 18.6003C180.464 18.7881 180.618 18.9555 180.737 19.1025L179.753 19.9918C179.646 19.8576 179.503 19.697 179.326 19.51C179.149 19.323 178.957 19.129 178.75 18.928C178.543 18.727 178.339 18.5353 178.137 18.3528C177.935 18.1704 177.756 18.0167 177.599 17.8917L178.508 17.0343ZM177.007 23.0189C177.484 22.9808 177.935 22.9137 178.361 22.8177C178.786 22.7217 179.182 22.6058 179.549 22.4698C179.916 22.3338 180.253 22.1899 180.56 22.0382C181.094 21.7602 181.588 21.4372 182.042 21.0693C182.496 20.7014 182.896 20.3151 183.243 19.9103C183.59 19.4994 183.869 19.0967 184.082 18.702L184.713 20.0263C184.459 20.4184 184.149 20.8072 183.786 21.1927C183.428 21.5786 183.026 21.9435 182.579 22.2876C182.133 22.6256 181.656 22.9252 181.148 23.1864C180.827 23.3556 180.483 23.5143 180.116 23.6624C179.748 23.8044 179.361 23.927 178.953 24.0302C178.551 24.1397 178.133 24.2179 177.699 24.2647L177.007 23.0189ZM192.697 18.1359C192.688 18.2813 192.732 18.4086 192.829 18.5178C192.926 18.621 193.044 18.6768 193.184 18.6852C193.329 18.6939 193.456 18.6529 193.565 18.5622C193.674 18.4654 193.733 18.3443 193.742 18.1989C193.751 18.0535 193.707 17.9261 193.61 17.8169C193.513 17.7077 193.392 17.6487 193.247 17.64C193.107 17.6316 192.983 17.6758 192.874 17.7726C192.765 17.8693 192.706 17.9905 192.697 18.1359ZM192.133 18.1019C192.145 17.902 192.205 17.7231 192.312 17.5653C192.425 17.4019 192.566 17.2766 192.736 17.1895C192.905 17.1025 193.087 17.0648 193.281 17.0765C193.481 17.0885 193.659 17.1479 193.817 17.2547C193.981 17.3619 194.106 17.5033 194.193 17.6788C194.28 17.8482 194.318 18.0329 194.306 18.2328C194.294 18.4267 194.235 18.6026 194.128 18.7603C194.021 18.9181 193.88 19.0433 193.704 19.1361C193.534 19.2232 193.35 19.2607 193.15 19.2487C192.956 19.237 192.78 19.1777 192.622 19.0709C192.465 18.9581 192.34 18.8167 192.246 18.6469C192.159 18.4775 192.122 18.2958 192.133 18.1019ZM193.19 18.8862C193.142 18.9685 193.1 19.0693 193.062 19.1887C193.025 19.302 192.988 19.4062 192.952 19.5013C192.89 19.7226 192.811 19.9702 192.716 20.2441C192.621 20.5121 192.509 20.7912 192.382 21.0815C192.256 21.3718 192.108 21.6578 191.939 21.9396C191.776 22.2216 191.593 22.4842 191.389 22.7274C191.095 23.0745 190.756 23.3947 190.374 23.6878C189.991 23.981 189.568 24.2413 189.104 24.4688C188.641 24.6962 188.134 24.8815 187.584 25.0248L186.659 23.8744C187.274 23.7655 187.806 23.6182 188.255 23.4324C188.704 23.2466 189.097 23.0271 189.434 22.7738C189.778 22.5208 190.083 22.2473 190.351 21.9533C190.566 21.7109 190.752 21.4454 190.909 21.1569C191.073 20.8688 191.209 20.579 191.317 20.2876C191.433 19.9904 191.516 19.7127 191.568 19.4544C191.478 19.4489 191.326 19.4398 191.114 19.427C190.908 19.4146 190.663 19.3998 190.378 19.3826C190.099 19.3658 189.805 19.3481 189.496 19.3294C189.193 19.3112 188.899 19.2935 188.615 19.2763C188.33 19.2591 188.072 19.2436 187.842 19.2297C187.618 19.2162 187.451 19.2062 187.342 19.1996C187.13 19.1868 186.924 19.1774 186.724 19.1714C186.529 19.1658 186.374 19.1656 186.258 19.1708L186.336 17.8892C186.426 17.9068 186.534 17.9255 186.661 17.9453C186.793 17.9655 186.926 17.9826 187.059 17.9967C187.198 18.0112 187.316 18.0213 187.413 18.0272C187.51 18.033 187.646 18.0412 187.822 18.0518C188.004 18.0628 188.213 18.0754 188.449 18.0896C188.685 18.1039 188.931 18.1186 189.185 18.134C189.446 18.1497 189.703 18.1652 189.958 18.1806C190.218 18.1963 190.461 18.2109 190.685 18.2244C190.909 18.2379 191.103 18.2496 191.266 18.2595C191.43 18.2693 191.548 18.2764 191.621 18.2808C191.712 18.2863 191.821 18.2898 191.949 18.2915C192.082 18.2934 192.211 18.2799 192.334 18.2508L193.19 18.8862ZM202.301 19.2165C202.261 19.2688 202.202 19.3504 202.122 19.4611C202.048 19.5722 201.99 19.6752 201.948 19.7699C201.804 20.047 201.627 20.3556 201.418 20.6957C201.215 21.0362 200.985 21.3781 200.727 21.7213C200.475 22.0589 200.21 22.3743 199.931 22.6676C199.569 23.0289 199.17 23.3849 198.735 23.7358C198.307 24.0809 197.856 24.3973 197.383 24.685C196.916 24.967 196.439 25.2058 195.953 25.4015L195.076 24.3635C195.578 24.2053 196.068 23.9976 196.546 23.7406C197.024 23.4836 197.469 23.2003 197.883 22.8908C198.297 22.5813 198.656 22.2776 198.96 21.9797C199.174 21.7615 199.376 21.5274 199.568 21.2775C199.765 21.0279 199.941 20.78 200.096 20.534C200.251 20.2818 200.369 20.0487 200.448 19.8346C200.388 19.8309 200.279 19.8243 200.121 19.8148C199.964 19.8054 199.779 19.7942 199.567 19.7814C199.361 19.769 199.143 19.7559 198.912 19.742C198.682 19.7281 198.461 19.7148 198.249 19.702C198.043 19.6896 197.861 19.6786 197.704 19.6691C197.546 19.6596 197.434 19.6529 197.367 19.6488C197.24 19.6412 197.106 19.6392 196.966 19.6429C196.827 19.6406 196.693 19.6416 196.565 19.6461C196.443 19.6448 196.349 19.6452 196.282 19.6473L196.36 18.3567C196.45 18.3682 196.562 18.384 196.694 18.4042C196.827 18.4244 196.96 18.4415 197.093 18.4556C197.232 18.47 197.347 18.48 197.437 18.4855C197.516 18.4902 197.64 18.4977 197.81 18.5079C197.98 18.5182 198.174 18.5299 198.392 18.543C198.61 18.5562 198.834 18.5697 199.064 18.5836C199.301 18.5978 199.525 18.6113 199.737 18.6241C199.955 18.6372 200.143 18.6486 200.3 18.6581C200.458 18.6676 200.573 18.6745 200.646 18.6789C200.846 18.6909 201.028 18.6898 201.193 18.6754C201.364 18.6614 201.496 18.642 201.589 18.6172L202.301 19.2165ZM200.095 21.9204C200.32 22.1225 200.558 22.3557 200.809 22.6202C201.061 22.8847 201.309 23.1581 201.554 23.4404C201.798 23.7228 202.022 23.9947 202.225 24.2563C202.435 24.5122 202.61 24.7355 202.75 24.9265L201.66 25.7638C201.454 25.4413 201.216 25.1046 200.945 24.7538C200.681 24.4034 200.398 24.0549 200.096 23.7083C199.801 23.3561 199.499 23.0217 199.19 22.705L200.095 21.9204Z" fill="#61BDD1"/>
</svg>
