<svg width="182" height="25" viewBox="0 0 182 25" fill="none" xmlns="http://www.w3.org/2000/svg">
<rect width="181.01" height="19.5048" transform="translate(0 5.125) rotate(-1.62236)" fill="white"/>
<path d="M7.31685 10.7967L15.1351 10.5753L15.1601 11.4582L7.34185 11.6796L7.31685 10.7967ZM9.97549 16.2232C10.3199 16.59 10.7746 16.8868 11.3397 17.1137C11.9109 17.3404 12.5715 17.5069 13.3214 17.6132C14.0713 17.7195 14.8897 17.7752 15.7764 17.7805C15.6706 17.9049 15.5628 18.0629 15.4528 18.2542C15.3491 18.4515 15.2629 18.624 15.1942 18.7716C14.2823 18.7367 13.4415 18.6391 12.6718 18.4787C11.9084 18.3242 11.2248 18.0946 10.6211 17.7899C10.0232 17.4789 9.51084 17.0774 9.08397 16.5855L9.97549 16.2232ZM13.0855 15.7161L13.3039 15.7099L13.4847 15.6593L14.1885 16.0675C13.8859 16.5315 13.5025 16.931 13.0383 17.266C12.5741 17.601 12.0476 17.88 11.4588 18.1032C10.87 18.3263 10.2436 18.508 9.57962 18.6483C8.92167 18.7884 8.24475 18.9017 7.54885 18.9882C7.50867 18.8557 7.44673 18.7057 7.36303 18.538C7.28558 18.3762 7.20578 18.2388 7.12363 18.1258C7.75972 18.0713 8.38289 17.9899 8.99315 17.8815C9.60948 17.773 10.1853 17.6292 10.7207 17.45C11.2559 17.2648 11.7263 17.042 12.1319 16.7815C12.5434 16.5148 12.8625 16.2052 13.0893 15.8526L13.0855 15.7161ZM10.0088 15.1474L11.0981 15.3352C10.7347 15.8009 10.2879 16.2113 9.75749 16.5664C9.23315 16.9213 8.58938 17.2402 7.82616 17.5229C7.78128 17.4392 7.72106 17.3498 7.6455 17.2548C7.56976 17.1537 7.48813 17.0588 7.40061 16.9702C7.31915 16.8814 7.24133 16.8138 7.16714 16.7673C7.8778 16.5589 8.46903 16.3145 8.94082 16.0339C9.41261 15.7533 9.7686 15.4579 10.0088 15.1474ZM10.6068 11.1772L11.8803 11.1138C11.8204 11.3584 11.7539 11.582 11.6807 11.7844C11.6074 11.9869 11.5397 12.168 11.4774 12.3276L10.4471 12.293C10.4787 12.1221 10.5099 11.936 10.5406 11.7347C10.5773 11.5272 10.5993 11.3414 10.6068 11.1772ZM9.25297 13.5474L9.26302 13.9024L13.3405 13.7869L13.3305 13.432L9.25297 13.5474ZM9.2803 14.5122L9.29061 14.8763L13.3681 14.7608L13.3578 14.3967L9.2803 14.5122ZM9.22565 12.5827L9.2357 12.9376L13.3132 12.8221L13.3032 12.4672L9.22565 12.5827ZM8.15259 12.0028L14.3963 11.8259L14.4958 15.3391L8.25209 15.516L8.15259 12.0028ZM10.1002 15.8007L13.4769 15.705L13.4977 16.4423L9.38381 16.5588L10.1002 15.8007ZM20.3163 10.5105C20.2845 10.6754 20.2583 10.8219 20.2376 10.95C20.217 11.0781 20.1992 11.2031 20.1845 11.325C20.1638 11.4531 20.1387 11.639 20.1092 11.8827C20.0855 12.1202 20.0568 12.3913 20.0229 12.6959C19.9949 12.9942 19.9643 13.3078 19.9311 13.6367C19.9038 13.9593 19.8764 14.2759 19.8487 14.5863C19.8211 14.8968 19.7987 15.1798 19.7817 15.4354C19.7707 15.6907 19.7674 15.8943 19.7716 16.046C19.7823 16.4222 19.9027 16.7072 20.1329 16.9011C20.369 17.0887 20.7115 17.1762 21.1605 17.1634C21.5853 17.1514 21.9416 17.0836 22.2296 16.9601C22.5174 16.8305 22.7344 16.6634 22.8804 16.4589C23.0264 16.2544 23.0959 16.0277 23.0888 15.7789C23.0801 15.4695 22.9897 15.1714 22.8176 14.8848C22.6514 14.592 22.4127 14.3103 22.1014 14.0398L23.377 13.7304C23.6912 14.1041 23.923 14.4618 24.0723 14.8038C24.2276 15.1394 24.3107 15.5014 24.3217 15.8898C24.3346 16.3448 24.2156 16.7551 23.9649 17.1205C23.7141 17.4858 23.3488 17.7755 22.8691 17.9895C22.3954 18.2033 21.8248 18.3197 21.1574 18.3386C20.6841 18.352 20.2603 18.2911 19.8861 18.156C19.5118 18.0208 19.2171 17.7984 19.0018 17.4887C18.7866 17.1791 18.6718 16.7724 18.6576 16.2688C18.6522 16.0807 18.6604 15.8315 18.6819 15.5212C18.7033 15.2048 18.7299 14.8579 18.7618 14.4805C18.7995 14.0969 18.8371 13.7102 18.8747 13.3205C18.912 12.9247 18.9439 12.5503 18.9704 12.1974C19.0029 11.8442 19.0277 11.5399 19.0447 11.2844C19.0508 11.0717 19.0523 10.9107 19.0492 10.8015C19.0521 10.686 19.0459 10.5769 19.0309 10.4741L20.3163 10.5105ZM17.0989 11.7312C17.3744 11.8084 17.6738 11.8728 17.9971 11.9243C18.3202 11.9698 18.6521 12.0029 18.9928 12.0237C19.3333 12.0383 19.6552 12.0413 19.9586 12.0327C20.3166 12.0226 20.65 12.001 20.9587 11.968C21.2675 11.9349 21.5366 11.897 21.7662 11.854L21.7605 12.9381C21.4881 12.9701 21.2156 12.9991 20.9431 13.0251C20.6706 13.051 20.3432 13.0694 19.9609 13.0802C19.6515 13.089 19.3294 13.0829 18.9949 13.062C18.6601 13.0351 18.3281 12.9989 17.9989 12.9536C17.6695 12.9022 17.3612 12.8441 17.074 12.7794L17.0989 11.7312ZM16.9717 13.9938C17.3025 14.0937 17.6356 14.1693 17.971 14.2205C18.3125 14.2716 18.6475 14.3046 18.9758 14.3196C19.3101 14.3283 19.6289 14.3284 19.9323 14.3198C20.2114 14.3119 20.5115 14.2943 20.8326 14.267C21.1597 14.2395 21.4684 14.2034 21.7586 14.1588L21.762 15.2427C21.5078 15.2741 21.2475 15.3028 20.981 15.3285C20.7144 15.3482 20.4385 15.3621 20.1533 15.3702C19.5465 15.3874 18.9632 15.3735 18.4032 15.3287C17.8431 15.2777 17.3551 15.2005 16.9392 15.0969L16.9717 13.9938ZM26.7931 9.88075L27.8762 9.85008L28.1182 18.3965L27.0351 18.4272L26.7931 9.88075ZM26.0523 11.7053L26.8472 11.7921C26.8425 12.0533 26.8232 12.3393 26.7895 12.65C26.7619 12.9604 26.722 13.2682 26.6699 13.5733C26.6237 13.8722 26.5675 14.138 26.5012 14.3706L25.6832 14.1114C25.7502 13.903 25.8071 13.6615 25.854 13.387C25.9067 13.1061 25.9502 12.8195 25.9845 12.527C26.0187 12.2346 26.0413 11.9607 26.0523 11.7053ZM27.682 11.6774L28.4195 11.3468C28.5157 11.5262 28.6123 11.7208 28.7093 11.9306C28.8124 12.1403 28.9032 12.3442 28.9817 12.5423C29.0663 12.7403 29.1289 12.9147 29.1696 13.0653L28.3883 13.4609C28.3535 13.304 28.2968 13.1234 28.2181 12.9192C28.1455 12.7148 28.0637 12.5046 27.9725 12.2885C27.8812 12.0664 27.7844 11.8627 27.682 11.6774ZM28.9711 11.2036L33.6311 11.0716L33.7232 14.3209L32.6583 14.3511L32.5949 12.1121L28.9997 12.2139L28.9711 11.2036ZM28.6376 13.9002L34.2806 13.7404L34.31 14.7779L28.667 14.9378L28.6376 13.9002ZM31.8658 14.0274C32.0133 14.5211 32.2055 14.9803 32.4422 15.4047C32.6848 15.8229 32.9805 16.188 33.3295 16.5C33.6844 16.8118 34.1011 17.052 34.5796 17.2206C34.4906 17.296 34.3993 17.3957 34.3057 17.5198C34.212 17.644 34.1215 17.771 34.0341 17.901C33.9467 18.031 33.8773 18.1544 33.826 18.2713C33.3032 18.0371 32.8541 17.728 32.4789 17.3439C32.1096 16.9535 31.7961 16.4979 31.5384 15.9768C31.2807 15.4558 31.0639 14.876 30.8879 14.2372L31.8658 14.0274ZM30.5156 9.77532L31.6169 9.74413L31.7084 12.9752C31.7189 13.3453 31.7084 13.7252 31.6769 14.1147C31.6455 14.5042 31.5806 14.8947 31.4824 15.2862C31.3902 15.6774 31.2462 16.058 31.0502 16.4279C30.8603 16.7976 30.6062 17.154 30.288 17.497C29.9757 17.8338 29.5897 18.1423 29.13 18.4225C29.0791 18.3389 29.0067 18.2468 28.9127 18.1463C28.8188 18.0457 28.7187 17.9422 28.6124 17.8359C28.5064 17.7357 28.41 17.6565 28.3233 17.5982C28.7721 17.3608 29.1412 17.1014 29.4308 16.8199C29.7202 16.5324 29.9455 16.2315 30.1066 15.9172C30.2738 15.6028 30.3922 15.2806 30.4618 14.9507C30.5375 14.6206 30.5828 14.2914 30.5978 13.9631C30.6126 13.6287 30.6157 13.3098 30.6071 13.0064L30.5156 9.77532ZM37.3058 13.1355L37.401 16.494L36.3543 16.5236L36.2878 14.1754L35.2593 14.2045L35.2307 13.1942L37.3058 13.1355ZM37.3886 16.0571C37.5731 16.3555 37.8283 16.5729 38.154 16.7095C38.4795 16.8399 38.8731 16.9077 39.3348 16.9129C39.6082 16.9173 39.9361 16.9171 40.3186 16.9123C40.7069 16.9013 41.1103 16.8869 41.5288 16.8689C41.9534 16.8508 42.3657 16.83 42.7659 16.8066C43.1719 16.7768 43.5353 16.7423 43.856 16.7028C43.8157 16.7829 43.7732 16.8904 43.7285 17.0252C43.6896 17.1539 43.6508 17.2855 43.6121 17.4202C43.5795 17.5547 43.5556 17.6738 43.5403 17.7775C43.2617 17.8036 42.9404 17.8249 42.5765 17.8412C42.2127 17.8576 41.8365 17.8713 41.4482 17.8823C41.06 17.8994 40.6838 17.91 40.3196 17.9143C39.9555 17.9246 39.6338 17.9276 39.3543 17.9234C38.8075 17.9146 38.3409 17.8398 37.9543 17.6989C37.5677 17.558 37.2329 17.3155 36.9499 16.9713C36.7791 17.1583 36.5961 17.3426 36.4008 17.5243C36.2118 17.7118 36.0048 17.9059 35.7797 18.1066L35.2302 17.0382C35.4208 16.9053 35.62 16.7569 35.8279 16.5932C36.0419 16.4292 36.2466 16.2595 36.442 16.0839L37.3886 16.0571ZM35.1908 10.4991L36.0015 9.85677C36.1812 9.98528 36.3676 10.1318 36.5605 10.2964C36.7534 10.461 36.9311 10.626 37.0937 10.7914C37.2563 10.9568 37.3883 11.114 37.4896 11.2629L36.6082 11.9802C36.5189 11.8309 36.396 11.6704 36.2393 11.4987C36.0885 11.3208 35.9196 11.1465 35.7326 10.9757C35.5454 10.7988 35.3648 10.64 35.1908 10.4991ZM37.5963 10.2033L43.4577 10.0373L43.4817 10.8837L37.6202 11.0497L37.5963 10.2033ZM39.1314 12.9471L42.0621 12.8641L42.0809 13.5285L39.1502 13.6115L39.1314 12.9471ZM39.9085 9.50928L40.9643 9.47938L40.9965 10.6171L39.9407 10.647L39.9085 9.50928ZM40.1818 12.4073L40.9646 12.3851L41.0169 14.2327L40.2342 14.2549L40.1818 12.4073ZM37.8752 11.6892L42.6444 11.5542L42.6679 12.3824L38.8816 12.4897L38.9966 16.549L38.0136 16.5768L37.8752 11.6892ZM39.3922 14.1148L40.1385 14.0937L40.1955 16.1051L39.4492 16.1262L39.3922 14.1148ZM39.8109 14.1029L41.8769 14.0444L41.9256 15.7646L39.8596 15.8231L39.8423 15.2133L41.1529 15.1762L41.1385 14.6665L39.8279 14.7036L39.8109 14.1029ZM42.2986 11.564L43.2997 11.5356L43.4106 15.4493C43.4169 15.6738 43.3977 15.8535 43.353 15.9884C43.308 16.1172 43.2139 16.2231 43.0705 16.3061C42.9209 16.3832 42.7462 16.4337 42.5465 16.4575C42.3467 16.4814 42.1134 16.4971 41.8464 16.5047C41.8244 16.3717 41.7807 16.2211 41.7152 16.053C41.6558 15.8846 41.594 15.7406 41.5299 15.621C41.6818 15.6228 41.8305 15.6216 41.9761 15.6174C42.1218 15.6133 42.2219 15.6105 42.2765 15.6089C42.3311 15.6074 42.3672 15.5973 42.3849 15.5785C42.4024 15.5538 42.4105 15.5171 42.4091 15.4686L42.2986 11.564ZM41.3998 10.7059L42.4345 10.8952C42.3484 11.0737 42.2682 11.243 42.1938 11.403C42.1194 11.563 42.0505 11.7046 41.9872 11.8278L41.1073 11.6341C41.164 11.4929 41.2203 11.3364 41.2762 11.1648C41.3319 10.9871 41.3731 10.8341 41.3998 10.7059ZM38.6679 11.0565L39.5631 10.8216C39.6454 10.9408 39.7192 11.0814 39.7845 11.2435C39.8557 11.3994 39.9022 11.5377 39.9238 11.6586L38.9837 11.9129C38.9683 11.798 38.931 11.6593 38.8717 11.4971C38.8125 11.3348 38.7445 11.1879 38.6679 11.0565ZM44.9646 11.1423C45.1595 11.1611 45.3663 11.1734 45.5851 11.1794C45.8098 11.1791 46.007 11.1766 46.1769 11.1717C46.5531 11.1611 46.9318 11.1291 47.3128 11.0758C47.7 11.0223 48.0716 10.9572 48.4277 10.8803C48.7836 10.7973 49.1059 10.7062 49.3946 10.6069L49.4609 11.6617C49.2019 11.7358 48.8914 11.8145 48.5294 11.8976C48.1733 11.9745 47.7957 12.0429 47.3966 12.1027C46.9973 12.1566 46.6035 12.189 46.2152 12.2C46.0331 12.2051 45.848 12.2073 45.6597 12.2066C45.4714 12.2058 45.277 12.2022 45.0764 12.1958L44.9646 11.1423ZM48.4665 9.67679C48.4344 9.82952 48.3914 10.0281 48.3376 10.2725C48.2838 10.517 48.2212 10.7738 48.1499 11.043C48.0847 11.312 48.0133 11.5782 47.9357 11.8415C47.8146 12.2822 47.6518 12.7514 47.4473 13.249C47.2427 13.7467 47.0197 14.2328 46.7781 14.7072C46.5365 15.1816 46.2904 15.6046 46.0397 15.976L44.9225 15.4429C45.1216 15.1822 45.3168 14.8943 45.5083 14.5792C45.6998 14.2641 45.8789 13.9402 46.0455 13.6075C46.2122 13.2749 46.361 12.9549 46.492 12.6476C46.6289 12.334 46.7363 12.0516 46.8142 11.8004C46.9203 11.4756 47.0103 11.1147 47.0841 10.7179C47.1638 10.3149 47.2047 9.93722 47.2069 9.58495L48.4665 9.67679ZM50.6764 12.4471C50.6698 12.6416 50.6692 12.8359 50.6747 13.0301C50.6861 13.218 50.6977 13.412 50.7094 13.6121C50.7194 13.7515 50.7306 13.9303 50.7428 14.1486C50.761 14.3606 50.7796 14.5878 50.7986 14.8301C50.8174 15.0664 50.833 15.2937 50.8452 15.512C50.8634 15.724 50.8742 15.8937 50.8779 16.0212C50.8858 16.3003 50.8353 16.5568 50.7266 16.7906C50.6177 17.0184 50.4377 17.2026 50.1866 17.3433C49.9416 17.4839 49.6007 17.5603 49.1638 17.5727C48.7876 17.5833 48.4462 17.5353 48.1395 17.4286C47.833 17.328 47.5857 17.171 47.3975 16.9578C47.2091 16.7384 47.1101 16.4619 47.1007 16.1281C47.0923 15.8308 47.1636 15.5616 47.3146 15.3205C47.4655 15.0733 47.6877 14.8788 47.9813 14.7369C48.2807 14.5887 48.6428 14.5086 49.0675 14.4966C49.6015 14.4815 50.0951 14.5434 50.5485 14.6824C51.0016 14.8153 51.4104 14.992 51.7749 15.2124C52.1395 15.4328 52.4524 15.6547 52.7138 15.8781L52.1316 16.8692C51.9636 16.7282 51.7709 16.5697 51.5534 16.3937C51.3419 16.2175 51.1035 16.0542 50.8381 15.9039C50.5788 15.7533 50.296 15.6308 49.9897 15.5362C49.6894 15.4415 49.3664 15.399 49.0205 15.4088C48.7596 15.4162 48.5517 15.4737 48.3969 15.5813C48.242 15.689 48.1669 15.8247 48.1716 15.9885C48.1764 16.1584 48.247 16.293 48.3834 16.3924C48.5259 16.4916 48.7215 16.5377 48.9703 16.5306C49.1766 16.5248 49.3395 16.4868 49.459 16.4166C49.5783 16.3404 49.6604 16.2378 49.7053 16.109C49.7501 15.9742 49.7701 15.8248 49.7655 15.661C49.7615 15.5214 49.7499 15.3244 49.7305 15.0699C49.7112 14.8154 49.688 14.5337 49.661 14.2247C49.6401 13.9156 49.6192 13.6065 49.5983 13.2974C49.5774 12.9883 49.5576 12.7156 49.5387 12.4793L50.6764 12.4471ZM52.2556 12.8851C52.0755 12.7445 51.8527 12.5959 51.5871 12.4395C51.3216 12.2831 51.0472 12.136 50.7639 11.9983C50.4866 11.8543 50.2435 11.7397 50.0346 11.6546L50.5916 10.737C50.7574 10.8052 50.9451 10.8909 51.1545 10.9943C51.3698 11.0915 51.5852 11.1947 51.8009 11.3039C52.0226 11.413 52.2261 11.5227 52.4114 11.6328C52.6026 11.7367 52.757 11.8295 52.8747 11.9111L52.2556 12.8851ZM61.2359 9.95275C61.1781 10.0576 61.1152 10.196 61.0472 10.368C60.9791 10.5339 60.9223 10.6721 60.8768 10.7827C60.7762 11.0892 60.649 11.4238 60.4953 11.7864C60.3415 12.143 60.1665 12.5032 59.9703 12.867C59.7741 13.2308 59.5563 13.5801 59.3168 13.9148C59.0482 14.2929 58.7402 14.675 58.3928 15.0614C58.0514 15.4415 57.6582 15.817 57.2133 16.1879C56.7683 16.5588 56.2562 16.9164 55.6769 17.2607L54.6315 16.3703C55.4514 15.9463 56.1546 15.474 56.7411 14.9533C57.3273 14.4266 57.8482 13.841 58.3036 13.1966C58.6605 12.7189 58.9415 12.2433 59.1468 11.7699C59.3579 11.2903 59.5328 10.8208 59.6716 10.3614C59.7167 10.2387 59.7552 10.0979 59.7872 9.93913C59.825 9.77409 59.8514 9.63368 59.8663 9.51787L61.2359 9.95275ZM56.255 10.9774C56.4895 11.1104 56.7367 11.2613 56.9965 11.43C57.2623 11.5926 57.5282 11.7611 57.7942 11.9358C58.0664 12.1102 58.3232 12.2821 58.5649 12.4514C58.8126 12.6205 59.0356 12.7751 59.2338 12.9152C59.7301 13.2837 60.2146 13.6677 60.6875 14.0673C61.1603 14.4668 61.5874 14.8586 61.9687 15.2425L61.0606 16.3066C60.6471 15.8568 60.2285 15.4436 59.8049 15.0669C59.3811 14.6842 58.9239 14.2994 58.4332 13.9125C58.2654 13.7776 58.073 13.6312 57.856 13.4734C57.639 13.3156 57.4035 13.1492 57.1496 12.9742C56.9017 12.7991 56.6387 12.6243 56.3605 12.45C56.0821 12.2697 55.7978 12.0955 55.5077 11.9277L56.255 10.9774ZM67.5705 11.0577C67.6158 11.1536 67.6743 11.2916 67.7462 11.4717C67.824 11.6456 67.9053 11.8346 67.99 12.0387C68.0746 12.2367 68.1497 12.4258 68.2156 12.6061C68.2814 12.7865 68.334 12.9277 68.3733 13.0298L67.292 13.443C67.2644 13.3284 67.2178 13.184 67.1522 13.0097C67.0865 12.8355 67.0145 12.6523 66.9362 12.4602C66.8577 12.262 66.7795 12.073 66.7015 11.893C66.6236 11.713 66.5555 11.5631 66.4975 11.4433L67.5705 11.0577ZM70.9478 11.627C70.9034 11.774 70.8645 11.8996 70.831 12.0038C70.8036 12.1078 70.776 12.2057 70.7482 12.2976C70.646 12.762 70.5013 13.2276 70.3141 13.6944C70.1268 14.1552 69.884 14.5902 69.5859 14.9994C69.1767 15.5575 68.7074 16.0354 68.1782 16.4329C67.6549 16.8243 67.1291 17.1276 66.6008 17.343L65.6176 16.3962C65.9487 16.2957 66.2969 16.1522 66.662 15.9658C67.027 15.7733 67.3788 15.5447 67.7175 15.2801C68.0561 15.0154 68.3454 14.7248 68.5854 14.4083C68.7843 14.1416 68.958 13.8391 69.1063 13.5009C69.2605 13.1565 69.3837 12.7917 69.4761 12.4065C69.5743 12.0151 69.6363 11.6307 69.662 11.2535L70.9478 11.627ZM65.4726 11.5999C65.5366 11.7134 65.6075 11.8602 65.6855 12.0402C65.7695 12.22 65.8538 12.4089 65.9384 12.6069C66.0229 12.8049 66.1043 12.9969 66.1824 13.1829C66.2666 13.3688 66.3318 13.5248 66.3778 13.6511L65.2793 14.1012C65.2395 13.9809 65.1804 13.8247 65.1021 13.6325C65.0298 13.4403 64.9482 13.2392 64.8573 13.0292C64.7661 12.8132 64.6785 12.6152 64.5945 12.4354C64.5165 12.2555 64.4489 12.1177 64.3915 12.0222L65.4726 11.5999ZM75.1102 9.04057C75.2583 9.1214 75.428 9.21679 75.6193 9.32675C75.8107 9.43671 76.0052 9.54962 76.2028 9.66547C76.4064 9.78115 76.5949 9.89423 76.768 10.0047C76.9471 10.1089 77.0985 10.2018 77.2223 10.2833L76.5682 11.3129C76.4443 11.2254 76.2927 11.1264 76.1135 11.0161C75.9343 10.9058 75.7489 10.7926 75.5574 10.6766C75.3658 10.5606 75.1745 10.4506 74.9833 10.3467C74.798 10.2366 74.6283 10.1412 74.4742 10.0606L75.1102 9.04057ZM73.6004 15.5507C73.9445 15.4802 74.2883 15.3976 74.6318 15.3028C74.9811 15.2019 75.3268 15.0797 75.6689 14.9364C76.017 14.793 76.3525 14.6286 76.6751 14.4434C77.1826 14.1375 77.6527 13.7963 78.0853 13.4197C78.524 13.0429 78.9135 12.6432 79.2538 12.2206C79.6001 11.7979 79.8885 11.3677 80.119 10.93L80.8549 12.148C80.448 12.791 79.94 13.4005 79.3308 13.9765C78.7277 14.5522 78.0591 15.0661 77.325 15.518C77.0205 15.7028 76.6853 15.8762 76.3195 16.0384C75.9597 16.2004 75.6024 16.3411 75.2475 16.4604C74.8988 16.5857 74.5887 16.6765 74.317 16.7327L73.6004 15.5507ZM73.7674 11.1554C73.9215 11.2361 74.0942 11.3314 74.2855 11.4414C74.4828 11.5451 74.6802 11.6549 74.8778 11.7707C75.0755 11.8866 75.2608 11.9967 75.4337 12.1011C75.6128 12.2053 75.7612 12.2983 75.8789 12.38L75.2433 13.4182C75.1073 13.331 74.9527 13.2351 74.7797 13.1307C74.6066 13.0203 74.4212 12.9071 74.2236 12.7912C74.0319 12.6691 73.8404 12.5561 73.6492 12.4522C73.4641 12.3482 73.2915 12.2589 73.1316 12.1845L73.7674 11.1554ZM88.6618 11.5261C88.6392 11.5874 88.6229 11.6547 88.6129 11.7278C88.6028 11.801 88.5924 11.862 88.5816 11.9109C88.567 12.0388 88.5447 12.2156 88.5146 12.4411C88.4907 12.6665 88.4613 12.9163 88.4266 13.1905C88.3977 13.4586 88.3659 13.7297 88.3312 14.0039C88.2964 14.2782 88.2641 14.5281 88.234 14.7536C88.21 14.979 88.1878 15.1588 88.1673 15.2929L86.9204 15.3282C86.941 15.2001 86.9638 15.0386 86.9886 14.8435C87.0133 14.6424 87.0406 14.4261 87.0704 14.1945C87.1062 13.9566 87.1359 13.719 87.1596 13.4815C87.1893 13.2438 87.2134 13.0245 87.232 12.8236C87.2506 12.6227 87.2612 12.4614 87.2639 12.3399C87.1789 12.3423 87.0485 12.346 86.8725 12.351C86.7026 12.3558 86.5084 12.3613 86.29 12.3675C86.0776 12.3735 85.8652 12.3795 85.6529 12.3855C85.4466 12.3914 85.2676 12.3964 85.1159 12.4007C84.9642 12.405 84.861 12.408 84.8064 12.4095C84.6608 12.4136 84.5032 12.4242 84.3337 12.4411C84.17 12.4518 84.0246 12.4651 83.8976 12.4808L83.8635 11.2794C83.9428 11.2893 84.0371 11.2957 84.1465 11.2987C84.2558 11.3017 84.3652 11.3046 84.4746 11.3076C84.5901 11.3104 84.6873 11.3107 84.7661 11.3085C84.8572 11.3059 84.9815 11.3024 85.1393 11.2979C85.2971 11.2934 85.47 11.2885 85.6581 11.2832C85.8462 11.2779 86.0343 11.2726 86.2224 11.2672C86.4105 11.2619 86.5804 11.2571 86.7321 11.2528C86.8898 11.2483 87.0112 11.2449 87.0961 11.2425C87.1629 11.2406 87.2417 11.2353 87.3325 11.2267C87.4234 11.218 87.5111 11.2064 87.5957 11.1919C87.6801 11.1713 87.7372 11.1484 87.7668 11.1233L88.6618 11.5261ZM83.1306 14.9893C83.2523 14.9979 83.3922 15.0061 83.5503 15.0138C83.7143 15.0152 83.8752 15.0137 84.0329 15.0092C84.1239 15.0067 84.2908 15.0019 84.5335 14.9951C84.7823 14.988 85.0736 14.9798 85.4073 14.9703C85.7471 14.9607 86.096 14.9508 86.454 14.9407C86.818 14.9304 87.1639 14.9206 87.4915 14.9113C87.8253 14.9018 88.1105 14.8937 88.3471 14.887C88.5837 14.8803 88.7354 14.876 88.8022 14.8742C88.9175 14.8709 89.066 14.8636 89.2479 14.8524C89.4298 14.8412 89.5782 14.8279 89.6931 14.8125L89.7264 15.9866C89.6655 15.9822 89.5804 15.9786 89.471 15.9756C89.3678 15.9785 89.2585 15.9786 89.1431 15.9758C89.0339 15.9789 88.9368 15.9816 88.8518 15.984C88.779 15.9861 88.6213 15.9906 88.3785 15.9974C88.1358 16.0043 87.8476 16.0125 87.5139 16.0219C87.1802 16.0314 86.8282 16.0414 86.4581 16.0518C86.094 16.0621 85.7421 16.0721 85.4023 16.0817C85.0686 16.0912 84.7804 16.0994 84.5377 16.1062C84.295 16.1131 84.1372 16.1176 84.0644 16.1196C83.9066 16.1241 83.761 16.1282 83.6275 16.132C83.4942 16.1419 83.3397 16.1553 83.1641 16.1725L83.1306 14.9893ZM96.4538 9.41071C96.4062 9.87358 96.3412 10.3673 96.2589 10.8919C96.1766 11.4164 96.0611 11.948 95.9124 12.4866C95.7538 13.1045 95.5624 13.6382 95.3383 14.0878C95.1142 14.5375 94.863 14.8877 94.5847 15.1385C94.3123 15.383 94.0092 15.51 93.6755 15.5195C93.3418 15.5289 93.0291 15.4255 92.7376 15.209C92.452 14.9864 92.2185 14.6772 92.0373 14.2815C91.8621 13.8857 91.7673 13.4329 91.7529 12.9233C91.7379 12.3954 91.83 11.8948 92.0291 11.4216C92.2283 10.9483 92.5109 10.5274 92.8769 10.1588C93.2489 9.78386 93.6838 9.48613 94.1815 9.26556C94.6854 9.04482 95.2316 8.92612 95.8202 8.90945C96.3845 8.89347 96.8937 8.97013 97.3479 9.13945C97.8081 9.30859 98.2036 9.5494 98.5343 9.86188C98.865 10.1744 99.1214 10.5436 99.3035 10.9696C99.4856 11.3956 99.5837 11.8574 99.5978 12.3549C99.6158 12.992 99.5015 13.5661 99.2548 14.0771C99.0082 14.5881 98.6316 15.0148 98.1252 15.357C97.6247 15.6991 96.994 15.9417 96.2329 16.0847L95.5196 15.0209C95.695 14.9977 95.8492 14.9721 95.982 14.9441C96.1148 14.916 96.2414 14.8851 96.3619 14.8513C96.6511 14.7703 96.9182 14.6595 97.1632 14.5189C97.4141 14.3722 97.6308 14.196 97.8132 13.9904C97.9954 13.7788 98.1343 13.535 98.2297 13.259C98.3312 12.9829 98.3773 12.681 98.368 12.3533C98.3579 11.9953 98.294 11.6692 98.1763 11.375C98.0587 11.0808 97.8906 10.8274 97.672 10.615C97.4533 10.3965 97.1906 10.2339 96.884 10.1272C96.5771 10.0145 96.2265 9.96368 95.8321 9.97485C95.3467 9.9886 94.9214 10.0887 94.5563 10.2751C94.191 10.4555 93.8847 10.6858 93.6376 10.9661C93.3905 11.2464 93.2047 11.5462 93.0801 11.8655C92.9616 12.1846 92.9064 12.4868 92.9145 12.7719C92.9231 13.0753 92.9667 13.3291 93.0454 13.5334C93.1239 13.7316 93.2162 13.8808 93.3222 13.981C93.4342 14.075 93.5509 14.1203 93.6722 14.1168C93.7996 14.1132 93.9222 14.046 94.04 13.9151C94.1636 13.778 94.2823 13.5743 94.3961 13.3038C94.5099 13.0334 94.6217 12.6932 94.7316 12.2833C94.8588 11.8424 94.9638 11.3719 95.0468 10.8715C95.1298 10.3712 95.1859 9.88385 95.2149 9.40936L96.4538 9.41071ZM107.134 7.9696C107.216 8.07658 107.305 8.20463 107.4 8.35375C107.495 8.50286 107.585 8.65215 107.668 8.80161C107.757 8.9509 107.834 9.08232 107.898 9.19589L107.169 9.52623C107.073 9.34071 106.955 9.13152 106.814 8.89865C106.68 8.65955 106.55 8.45374 106.423 8.28121L107.134 7.9696ZM108.197 7.52961C108.285 7.64249 108.376 7.77348 108.472 7.9226C108.567 8.07172 108.659 8.22092 108.749 8.3702C108.844 8.51325 108.917 8.6387 108.969 8.74654L108.259 9.07636C108.156 8.88494 108.035 8.67281 107.894 8.43994C107.754 8.20708 107.618 8.00751 107.486 7.84122L108.197 7.52961ZM103.222 8.47207C103.202 8.61232 103.188 8.77363 103.181 8.956C103.175 9.13838 103.173 9.29328 103.176 9.4207C103.179 9.51172 103.184 9.67251 103.19 9.90309C103.196 10.1276 103.204 10.3946 103.213 10.704C103.222 11.0135 103.231 11.3381 103.24 11.6779C103.25 12.0116 103.259 12.3362 103.268 12.6518C103.277 12.9612 103.285 13.2373 103.291 13.48C103.298 13.7227 103.303 13.9017 103.307 14.017C103.312 14.2112 103.364 14.3433 103.464 14.4134C103.563 14.4834 103.713 14.5369 103.914 14.5737C104.055 14.5879 104.216 14.5985 104.398 14.6055C104.58 14.6064 104.772 14.604 104.972 14.5984C105.208 14.5917 105.469 14.5782 105.754 14.558C106.045 14.5315 106.335 14.5021 106.626 14.4695C106.923 14.4368 107.201 14.3956 107.46 14.3457C107.72 14.2958 107.943 14.244 108.13 14.1901L108.168 15.5189C107.884 15.5695 107.554 15.6122 107.179 15.6471C106.803 15.6881 106.418 15.7203 106.024 15.7436C105.637 15.7728 105.273 15.7922 104.933 15.8018C104.636 15.8103 104.353 15.8091 104.086 15.7985C103.824 15.7877 103.596 15.7699 103.401 15.745C103.004 15.6773 102.694 15.5373 102.469 15.3251C102.244 15.1068 102.127 14.8034 102.116 14.4151C102.111 14.2391 102.104 14.0116 102.096 13.7325C102.088 13.4473 102.079 13.1348 102.07 12.795C102.06 12.4492 102.05 12.1033 102.04 11.7574C102.03 11.4055 102.021 11.0748 102.012 10.7654C102.003 10.4498 101.995 10.1768 101.989 9.94621C101.982 9.71564 101.978 9.55181 101.975 9.45473C101.973 9.38798 101.968 9.29705 101.958 9.18194C101.949 9.06682 101.936 8.94876 101.921 8.82775C101.911 8.70657 101.896 8.60072 101.875 8.51022L103.222 8.47207ZM102.701 11.2833C102.99 11.2144 103.298 11.1328 103.623 11.0385C103.948 10.9382 104.276 10.8318 104.607 10.7192C104.938 10.6066 105.25 10.4945 105.545 10.3829C105.845 10.2651 106.112 10.1513 106.346 10.0414C106.508 9.97611 106.667 9.90178 106.822 9.81843C106.984 9.73491 107.151 9.63605 107.324 9.52185L107.848 10.6638C107.674 10.7356 107.491 10.8166 107.299 10.9071C107.113 10.9913 106.945 11.0629 106.795 11.1218C106.531 11.2325 106.228 11.3504 105.885 11.4755C105.549 11.6004 105.197 11.7257 104.83 11.8515C104.463 11.9712 104.099 12.0847 103.738 12.1921C103.382 12.2994 103.051 12.3938 102.744 12.4753L102.701 11.2833ZM114.444 9.73009C114.489 9.82597 114.548 9.96398 114.619 10.1441C114.697 10.318 114.779 10.507 114.863 10.7111C114.948 10.9091 115.023 11.0982 115.089 11.2785C115.155 11.4589 115.207 11.6001 115.247 11.7022L114.165 12.1154C114.138 12.0008 114.091 11.8564 114.025 11.6821C113.96 11.5079 113.888 11.3247 113.809 11.1326C113.731 10.9344 113.653 10.7454 113.575 10.5654C113.497 10.3854 113.429 10.2355 113.371 10.1157L114.444 9.73009ZM117.821 10.2994C117.777 10.4464 117.738 10.572 117.704 10.6762C117.677 10.7802 117.649 10.8781 117.621 10.97C117.519 11.4344 117.375 11.9 117.187 12.3668C117 12.8276 116.757 13.2626 116.459 13.6718C116.05 14.2299 115.581 14.7078 115.051 15.1053C114.528 15.4967 114.002 15.8 113.474 16.0154L112.491 15.0686C112.822 14.9681 113.17 14.8246 113.535 14.6382C113.9 14.4457 114.252 14.2171 114.591 13.9525C114.929 13.6878 115.219 13.3972 115.459 13.0807C115.658 12.814 115.831 12.5115 115.98 12.1733C116.134 11.8289 116.257 11.4641 116.349 11.0789C116.448 10.6875 116.51 10.3031 116.535 9.9259L117.821 10.2994ZM112.346 10.2723C112.41 10.3858 112.481 10.5326 112.559 10.7126C112.643 10.8924 112.727 11.0813 112.812 11.2793C112.896 11.4773 112.978 11.6693 113.056 11.8553C113.14 12.0412 113.205 12.1973 113.251 12.3235L112.153 12.7736C112.113 12.6533 112.054 12.4971 111.975 12.305C111.903 12.1127 111.821 11.9116 111.731 11.7016C111.639 11.4856 111.552 11.2876 111.468 11.1078C111.39 10.9279 111.322 10.7901 111.265 10.6946L112.346 10.2723ZM122.208 14.0464C122.205 13.9311 122.2 13.743 122.192 13.4821C122.185 13.2151 122.176 12.9087 122.166 12.5628C122.156 12.2109 122.146 11.8438 122.135 11.4615C122.124 11.0793 122.114 10.7122 122.104 10.3603C122.094 10.0023 122.085 9.68674 122.077 9.41369C122.069 9.14064 122.064 8.9404 122.06 8.81298C122.056 8.65522 122.041 8.47345 122.017 8.26766C121.999 8.0617 121.973 7.88027 121.938 7.72337L123.358 7.68315C123.344 7.84143 123.331 8.01791 123.318 8.21259C123.306 8.40121 123.302 8.58957 123.307 8.77766C123.312 8.94756 123.318 9.17814 123.327 9.46939C123.335 9.76064 123.344 10.0853 123.354 10.4433C123.364 10.7952 123.374 11.1562 123.385 11.5263C123.395 11.8904 123.405 12.2423 123.415 12.5821C123.424 12.9219 123.433 13.2192 123.44 13.4741C123.447 13.7229 123.452 13.9019 123.455 14.0111C123.458 14.096 123.464 14.2173 123.475 14.3749C123.485 14.5264 123.502 14.6838 123.525 14.8471C123.547 15.0105 123.564 15.1557 123.573 15.283L122.153 15.3232C122.173 15.1405 122.188 14.9275 122.199 14.6843C122.21 14.4411 122.214 14.2284 122.208 14.0464ZM123.07 10.0505C123.376 10.1208 123.718 10.2143 124.098 10.3311C124.478 10.4418 124.861 10.5615 125.247 10.6902C125.633 10.819 125.995 10.9484 126.333 11.0785C126.676 11.2024 126.962 11.3188 127.19 11.4277L126.706 12.6984C126.448 12.5721 126.162 12.4466 125.849 12.3219C125.535 12.1911 125.216 12.0666 124.891 11.9483C124.572 11.8298 124.256 11.7203 123.943 11.6198C123.637 11.5192 123.358 11.43 123.107 11.3521L123.07 10.0505ZM129.714 8.25006C129.902 8.2508 130.078 8.25189 130.242 8.25332C130.412 8.2485 130.558 8.24438 130.679 8.24094C130.776 8.23819 130.925 8.23398 131.125 8.22831C131.332 8.22247 131.571 8.21568 131.844 8.20795C132.117 8.20021 132.409 8.19196 132.718 8.1832C133.027 8.17443 133.337 8.16567 133.646 8.1569C133.962 8.14797 134.256 8.13963 134.529 8.1319C134.802 8.12417 135.039 8.11746 135.239 8.11179C135.445 8.10595 135.594 8.10174 135.685 8.09916C135.8 8.09589 135.937 8.09203 136.095 8.08756C136.258 8.07685 136.422 8.06614 136.586 8.05544C136.584 8.19517 136.582 8.344 136.58 8.50193C136.584 8.65362 136.589 8.79925 136.592 8.93881C136.595 9.02376 136.599 9.15725 136.604 9.33928C136.609 9.51524 136.615 9.72761 136.622 9.97639C136.629 10.2191 136.636 10.48 136.644 10.7591C136.652 11.0322 136.66 11.3083 136.667 11.5874C136.675 11.8665 136.683 12.1304 136.69 12.3792C136.697 12.6219 136.703 12.8343 136.708 13.0163C136.713 13.1923 136.717 13.3197 136.719 13.3986C136.721 13.4896 136.725 13.6049 136.729 13.7445C136.738 13.8778 136.745 14.0142 136.749 14.1538C136.753 14.2873 136.756 14.4056 136.759 14.5087C136.768 14.6056 136.773 14.6571 136.773 14.6632L135.517 14.6988C135.516 14.6866 135.514 14.6138 135.511 14.4803C135.513 14.3406 135.511 14.1767 135.506 13.9886C135.507 13.8003 135.505 13.6243 135.5 13.4604C135.498 13.3816 135.494 13.2481 135.489 13.06C135.483 12.8719 135.477 12.6504 135.47 12.3956C135.463 12.1407 135.455 11.8707 135.447 11.5855C135.439 11.3003 135.431 11.0212 135.423 10.7482C135.415 10.4751 135.408 10.2263 135.402 10.0018C135.396 9.77733 135.391 9.59833 135.387 9.46484C135.383 9.33135 135.381 9.2646 135.381 9.2646L130.985 9.38911C130.985 9.38911 130.987 9.45586 130.991 9.58935C130.994 9.72284 131 9.90184 131.006 10.1263C131.012 10.3448 131.019 10.5936 131.027 10.8727C131.035 11.1457 131.043 11.4248 131.051 11.71C131.059 11.9891 131.066 12.2592 131.074 12.5201C131.081 12.7749 131.087 12.9964 131.093 13.1845C131.098 13.3726 131.102 13.5061 131.104 13.585C131.107 13.6942 131.11 13.8186 131.114 13.9581C131.118 14.0916 131.122 14.2221 131.126 14.3495C131.135 14.4767 131.141 14.5828 131.144 14.6678C131.146 14.7588 131.148 14.8104 131.148 14.8225L129.892 14.8581C129.892 14.846 129.89 14.7944 129.888 14.7034C129.891 14.6122 129.891 14.4998 129.887 14.3663C129.889 14.2327 129.889 14.0961 129.885 13.9565C129.887 13.8168 129.886 13.6923 129.883 13.5831C129.881 13.5042 129.877 13.3768 129.872 13.2008C129.867 13.0188 129.861 12.8034 129.854 12.5546C129.847 12.3058 129.84 12.0449 129.832 11.7719C129.824 11.4928 129.816 11.2136 129.808 10.9345C129.8 10.6554 129.793 10.3945 129.786 10.1518C129.779 9.90301 129.773 9.69064 129.768 9.51467C129.763 9.33871 129.759 9.21129 129.757 9.1324C129.754 9.00498 129.749 8.85936 129.745 8.69553C129.74 8.52563 129.73 8.37714 129.714 8.25006ZM135.943 13.0289L135.976 14.1939L130.506 14.3488L130.473 13.1838L135.943 13.0289ZM138.843 10.2323C138.952 10.2353 139.092 10.2404 139.262 10.2478C139.432 10.249 139.608 10.2501 139.79 10.251C139.979 10.2517 140.152 10.2499 140.309 10.2454C140.461 10.2411 140.649 10.2358 140.874 10.2294C141.098 10.2231 141.341 10.2162 141.602 10.2088C141.869 10.2012 142.142 10.1935 142.421 10.1856C142.706 10.1775 142.988 10.1695 143.267 10.1616C143.547 10.1537 143.811 10.1462 144.059 10.1392C144.308 10.1322 144.53 10.1259 144.724 10.1204C144.924 10.1147 145.082 10.1102 145.197 10.107C145.409 10.101 145.609 10.0892 145.797 10.0718C145.985 10.0482 146.139 10.0317 146.26 10.0222L146.301 11.4512C146.198 11.448 146.043 11.4433 145.836 11.437C145.629 11.4307 145.429 11.4303 145.235 11.4358C145.119 11.4391 144.962 11.4435 144.761 11.4492C144.561 11.4549 144.337 11.4612 144.088 11.4683C143.839 11.4753 143.575 11.4828 143.296 11.4907C143.023 11.4985 142.744 11.5064 142.459 11.5144C142.173 11.5225 141.897 11.5303 141.63 11.5379C141.37 11.5453 141.127 11.5522 140.902 11.5585C140.684 11.5647 140.499 11.5699 140.347 11.5742C140.086 11.5816 139.819 11.5953 139.547 11.6151C139.274 11.6289 139.053 11.6443 138.883 11.6613L138.843 10.2323ZM154.877 7.92906C154.837 8.01521 154.8 8.11948 154.767 8.24187C154.74 8.35801 154.716 8.468 154.694 8.57184C154.652 8.79166 154.595 9.04224 154.524 9.32359C154.453 9.60494 154.368 9.89582 154.267 10.1962C154.166 10.4966 154.044 10.7946 153.9 11.0902C153.763 11.3855 153.604 11.6633 153.423 11.9235C153.16 12.2892 152.851 12.638 152.496 12.9699C152.141 13.2958 151.743 13.5925 151.301 13.86C150.859 14.1215 150.37 14.3479 149.835 14.5392L148.813 13.4842C149.409 13.3215 149.923 13.1278 150.354 12.9031C150.791 12.6721 151.169 12.4185 151.489 12.1422C151.809 11.8599 152.086 11.5606 152.32 11.2442C152.513 10.9837 152.675 10.7028 152.806 10.4016C152.943 10.1001 153.053 9.79642 153.136 9.49045C153.224 9.18432 153.283 8.90331 153.312 8.64743C153.221 8.65001 153.069 8.65431 152.857 8.66032C152.651 8.66617 152.405 8.67313 152.12 8.6812C151.841 8.68911 151.546 8.69744 151.237 8.70621C150.934 8.7148 150.639 8.72314 150.354 8.73121C150.069 8.73929 149.811 8.7466 149.58 8.75313C149.356 8.75948 149.186 8.7643 149.071 8.76756C148.864 8.77341 148.661 8.7822 148.461 8.79394C148.267 8.8055 148.11 8.81907 147.989 8.83465L147.952 7.55132C148.05 7.55464 148.162 7.56056 148.29 7.56909C148.418 7.57761 148.551 7.58597 148.691 7.59415C148.831 7.59626 148.949 7.59595 149.047 7.5932C149.138 7.59062 149.274 7.58675 149.456 7.5816C149.638 7.57644 149.847 7.57051 150.084 7.56381C150.321 7.55711 150.567 7.55015 150.821 7.54293C151.082 7.53554 151.34 7.52824 151.595 7.52102C151.85 7.5138 152.09 7.50701 152.314 7.50065C152.539 7.49429 152.733 7.48879 152.897 7.48415C153.066 7.47934 153.185 7.47599 153.251 7.4741C153.343 7.47152 153.455 7.46531 153.588 7.45546C153.721 7.43954 153.845 7.41478 153.959 7.38118L154.877 7.92906ZM164.294 9.18351C164.253 9.23325 164.206 9.29531 164.154 9.36966C164.101 9.44402 164.061 9.5059 164.032 9.55531C163.956 9.68496 163.852 9.84582 163.717 10.0379C163.589 10.2298 163.443 10.4373 163.28 10.6606C163.116 10.8777 162.948 11.0829 162.778 11.276C162.607 11.469 162.442 11.6316 162.282 11.7637L161.353 11.1524C161.52 11.0262 161.689 10.8787 161.86 10.7099C162.031 10.5411 162.184 10.3697 162.319 10.1959C162.454 10.016 162.556 9.86127 162.625 9.73179C162.552 9.73385 162.415 9.73772 162.215 9.74339C162.015 9.74906 161.778 9.75576 161.505 9.76349C161.238 9.77106 160.956 9.77905 160.659 9.78747C160.361 9.79589 160.076 9.80397 159.803 9.8117C159.53 9.81943 159.294 9.82614 159.093 9.83181C158.893 9.83748 158.754 9.84143 158.675 9.84367C158.523 9.84796 158.368 9.85841 158.211 9.87502C158.059 9.88538 157.899 9.90207 157.73 9.92509L157.696 8.75098C157.843 8.77112 157.998 8.78495 158.162 8.79244C158.332 8.79976 158.493 8.80128 158.645 8.79698C158.724 8.79475 158.87 8.79062 159.082 8.78461C159.3 8.77842 159.558 8.77112 159.856 8.7627C160.153 8.75427 160.462 8.74551 160.784 8.7364C161.105 8.72729 161.412 8.71861 161.703 8.71037C161.994 8.70212 162.243 8.69507 162.449 8.68923C162.662 8.68321 162.801 8.67926 162.868 8.67737C162.935 8.67548 163.017 8.67012 163.114 8.66131C163.211 8.65249 163.304 8.64376 163.395 8.63511C163.492 8.62023 163.561 8.60612 163.604 8.59278L164.294 9.18351ZM161.2 10.2276C161.197 10.5677 161.191 10.9049 161.183 11.2392C161.174 11.5673 161.137 11.8902 161.073 12.2078C161.016 12.5191 160.915 12.8256 160.772 13.1272C160.628 13.4228 160.424 13.7049 160.158 13.9735C159.899 14.2481 159.56 14.5097 159.142 14.7584L158.155 14.012C158.275 13.9601 158.392 13.9051 158.506 13.8473C158.625 13.7831 158.75 13.7007 158.881 13.5998C159.22 13.3534 159.474 13.0972 159.643 12.8313C159.811 12.5593 159.918 12.2678 159.964 11.9568C160.016 11.6396 160.036 11.2898 160.026 10.9076C160.022 10.7984 160.013 10.6893 159.998 10.5804C159.983 10.4655 159.965 10.3597 159.944 10.2632L161.2 10.2276ZM166.424 9.4511C166.534 9.45408 166.674 9.45922 166.844 9.46655C167.014 9.4678 167.19 9.46889 167.372 9.4698C167.56 9.47054 167.733 9.46868 167.891 9.46421C168.043 9.45991 168.231 9.45458 168.456 9.44822C168.68 9.44187 168.923 9.43499 169.184 9.4276C169.451 9.42004 169.724 9.41231 170.003 9.4044C170.288 9.39632 170.57 9.38833 170.849 9.38043C171.128 9.37252 171.392 9.36505 171.641 9.358C171.89 9.35095 172.111 9.34468 172.306 9.33918C172.506 9.33351 172.664 9.32904 172.779 9.32578C172.991 9.31976 173.191 9.30802 173.379 9.29056C173.567 9.26703 173.721 9.25051 173.842 9.24101L173.883 10.67C173.779 10.6668 173.624 10.6621 173.418 10.6558C173.211 10.6495 173.011 10.6491 172.816 10.6546C172.701 10.6579 172.543 10.6623 172.343 10.668C172.143 10.6737 171.918 10.68 171.67 10.6871C171.421 10.6941 171.157 10.7016 170.878 10.7095C170.605 10.7173 170.326 10.7252 170.04 10.7332C169.755 10.7413 169.479 10.7491 169.212 10.7567C168.951 10.7641 168.709 10.771 168.484 10.7773C168.266 10.7835 168.081 10.7887 167.929 10.793C167.668 10.8004 167.401 10.8141 167.128 10.8339C166.856 10.8477 166.634 10.8631 166.465 10.8801L166.424 9.4511Z" fill="#61BDD1"/>
</svg>
