<svg width="166" height="65" viewBox="0 0 166 65" fill="none" xmlns="http://www.w3.org/2000/svg">
<path d="M165.213 5.19336H5.19641V64.1022H165.213V5.19336Z" fill="#F5F0E7"/>
<path d="M160.292 0.275391H0.275513V59.1842H160.292V0.275391Z" fill="white"/>
<path d="M160.292 0.275391H0.275513V59.1842H160.292V0.275391Z" stroke="#4EAAB4" stroke-width="0.551101" stroke-linecap="round" stroke-linejoin="round"/>
<path d="M39.9378 26.7891L37.0543 27.6052C36.8729 27.1246 36.6054 26.6576 36.2518 26.2042C35.9072 25.7418 35.4357 25.3609 34.8372 25.0617C34.2388 24.7625 33.4726 24.6129 32.5386 24.6129C31.2601 24.6129 30.1946 24.9076 29.3423 25.4969C28.499 26.0773 28.0773 26.8163 28.0773 27.714C28.0773 28.5119 28.3675 29.1421 28.9478 29.6046C29.5282 30.067 30.4349 30.4524 31.6681 30.7607L34.7692 31.5224C36.6372 31.9757 38.029 32.6694 38.9449 33.6034C39.8607 34.5283 40.3186 35.7207 40.3186 37.1806C40.3186 38.3775 39.974 39.4475 39.2849 40.3905C38.6048 41.3335 37.6527 42.0771 36.4286 42.6211C35.2045 43.1652 33.7809 43.4372 32.1578 43.4372C30.0269 43.4372 28.2632 42.9748 26.8668 42.0499C25.4704 41.125 24.5863 39.7739 24.2145 37.9966L27.2613 37.235C27.5514 38.3593 28.1 39.2026 28.907 39.7648C29.7231 40.327 30.7886 40.6081 32.1034 40.6081C33.5995 40.6081 34.7874 40.2907 35.6669 39.656C36.5556 39.0122 36.9999 38.2415 36.9999 37.3438C36.9999 36.6184 36.746 36.0108 36.2382 35.5212C35.7304 35.0225 34.9506 34.6507 33.8987 34.4059L30.4168 33.5898C28.5035 33.1364 27.098 32.4337 26.2004 31.4816C25.3117 30.5204 24.8674 29.3189 24.8674 27.8772C24.8674 26.6984 25.1984 25.6556 25.8603 24.7489C26.5313 23.8421 27.4426 23.1303 28.5942 22.6135C29.7549 22.0966 31.0697 21.8382 32.5386 21.8382C34.606 21.8382 36.2291 22.2916 37.4079 23.1983C38.5958 24.1051 39.439 25.302 39.9378 26.7891ZM54.2362 22.1102V24.8305H43.4095V22.1102H54.2362ZM46.565 17.1049H49.775V37.0173C49.775 37.9241 49.9065 38.6042 50.1694 39.0575C50.4414 39.5019 50.786 39.8011 51.2031 39.9552C51.6293 40.1003 52.0782 40.1729 52.5497 40.1729C52.9033 40.1729 53.1935 40.1547 53.4202 40.1185C53.6468 40.0731 53.8282 40.0368 53.9642 40.0096L54.6171 42.8931C54.3995 42.9748 54.0957 43.0564 53.7058 43.138C53.3159 43.2286 52.8217 43.274 52.2232 43.274C51.3165 43.274 50.4278 43.079 49.5574 42.6891C48.6959 42.2992 47.9796 41.7053 47.4083 40.9073C46.8461 40.1094 46.565 39.1029 46.565 37.8878V17.1049ZM67.5996 43.4372C65.5866 43.4372 63.8502 42.9929 62.3903 42.1043C60.9395 41.2066 59.8196 39.9552 59.0307 38.3503C58.2509 36.7362 57.861 34.8592 57.861 32.7193C57.861 30.5793 58.2509 28.6933 59.0307 27.0611C59.8196 25.4199 60.9168 24.1413 62.3223 23.2255C63.7368 22.3006 65.3871 21.8382 67.2732 21.8382C68.3613 21.8382 69.4358 22.0195 70.4967 22.3822C71.5576 22.7449 72.5233 23.3343 73.3938 24.1504C74.2643 24.9574 74.958 26.0274 75.4748 27.3603C75.9917 28.6933 76.2501 30.3345 76.2501 32.284V33.6442H60.1461V30.8695H72.9858C72.9858 29.6907 72.75 28.6389 72.2785 27.714C71.8161 26.7891 71.1541 26.0591 70.2927 25.5242C69.4403 24.9892 68.4338 24.7217 67.2732 24.7217C65.9947 24.7217 64.8884 25.039 63.9544 25.6738C63.0295 26.2994 62.3177 27.1155 61.819 28.122C61.3203 29.1285 61.0709 30.2076 61.0709 31.3592V33.2089C61.0709 34.7867 61.343 36.1242 61.887 37.2214C62.4402 38.3095 63.2064 39.1392 64.1857 39.7104C65.165 40.2726 66.303 40.5537 67.5996 40.5537C68.4429 40.5537 69.2046 40.4358 69.8847 40.2001C70.5738 39.9552 71.1677 39.5925 71.6664 39.112C72.1652 38.6223 72.5505 38.0148 72.8226 37.2894L75.9237 38.1599C75.5972 39.2117 75.0487 40.1366 74.2779 40.9345C73.5072 41.7234 72.5551 42.34 71.4216 42.7843C70.2882 43.2196 69.0142 43.4372 67.5996 43.4372ZM81.133 50.8364V22.1102H84.2341V25.4289H84.615C84.8507 25.0662 85.1772 24.6038 85.5943 24.0416C86.0205 23.4703 86.628 22.9626 87.4169 22.5182C88.2148 22.0649 89.2939 21.8382 90.654 21.8382C92.4131 21.8382 93.9637 22.278 95.3057 23.1575C96.6477 24.0371 97.695 25.2839 98.4476 26.8979C99.2002 28.5119 99.5765 30.4161 99.5765 32.6105C99.5765 34.823 99.2002 36.7408 98.4476 38.3639C97.695 39.9779 96.6522 41.2292 95.3193 42.1179C93.9863 42.9974 92.4494 43.4372 90.7084 43.4372C89.3664 43.4372 88.2919 43.215 87.4849 42.7707C86.6779 42.3173 86.0567 41.805 85.6215 41.2338C85.1862 40.6534 84.8507 40.1729 84.615 39.792H84.3429V50.8364H81.133ZM84.2885 32.5561C84.2885 34.1338 84.5198 35.5257 84.9822 36.7317C85.4447 37.9286 86.1202 38.8671 87.0088 39.5472C87.8974 40.2182 88.9856 40.5537 90.2732 40.5537C91.6152 40.5537 92.735 40.2001 93.6327 39.4928C94.5395 38.7765 95.2195 37.8153 95.6729 36.6093C96.1354 35.3942 96.3666 34.0432 96.3666 32.5561C96.3666 31.0871 96.1399 29.7633 95.6865 28.5845C95.2422 27.3966 94.5667 26.4581 93.6599 25.769C92.7622 25.0708 91.6333 24.7217 90.2732 24.7217C88.9674 24.7217 87.8702 25.0526 86.9816 25.7146C86.093 26.3674 85.422 27.2833 84.9686 28.4621C84.5152 29.6318 84.2885 30.9964 84.2885 32.5561ZM104.473 50.8364V22.1102H107.574V25.4289H107.955C108.191 25.0662 108.517 24.6038 108.934 24.0416C109.36 23.4703 109.968 22.9626 110.757 22.5182C111.555 22.0649 112.634 21.8382 113.994 21.8382C115.753 21.8382 117.304 22.278 118.646 23.1575C119.988 24.0371 121.035 25.2839 121.788 26.8979C122.54 28.5119 122.917 30.4161 122.917 32.6105C122.917 34.823 122.54 36.7408 121.788 38.3639C121.035 39.9779 119.992 41.2292 118.659 42.1179C117.326 42.9974 115.789 43.4372 114.048 43.4372C112.706 43.4372 111.632 43.215 110.825 42.7707C110.018 42.3173 109.397 41.805 108.961 41.2338C108.526 40.6534 108.191 40.1729 107.955 39.792H107.683V50.8364H104.473ZM107.629 32.5561C107.629 34.1338 107.86 35.5257 108.322 36.7317C108.785 37.9286 109.46 38.8671 110.349 39.5472C111.237 40.2182 112.326 40.5537 113.613 40.5537C114.955 40.5537 116.075 40.2001 116.973 39.4928C117.879 38.7765 118.56 37.8153 119.013 36.6093C119.475 35.3942 119.707 34.0432 119.707 32.5561C119.707 31.0871 119.48 29.7633 119.027 28.5845C118.582 27.3966 117.907 26.4581 117 25.769C116.102 25.0708 114.973 24.7217 113.613 24.7217C112.307 24.7217 111.21 25.0526 110.322 25.7146C109.433 26.3674 108.762 27.2833 108.309 28.4621C107.855 29.6318 107.629 30.9964 107.629 32.5561ZM127.813 43.002V22.1102H131.023V43.002H127.813ZM129.445 18.6282C128.82 18.6282 128.28 18.4152 127.827 17.989C127.382 17.5628 127.16 17.0505 127.16 16.452C127.16 15.8536 127.382 15.3412 127.827 14.9151C128.28 14.4889 128.82 14.2758 129.445 14.2758C130.071 14.2758 130.606 14.4889 131.05 14.9151C131.504 15.3412 131.73 15.8536 131.73 16.452C131.73 17.0505 131.504 17.5628 131.05 17.989C130.606 18.4152 130.071 18.6282 129.445 18.6282Z" fill="#4EAAB4"/>
</svg>
