<svg width="211" height="34" viewBox="0 0 211 34" fill="none" xmlns="http://www.w3.org/2000/svg">
<rect width="210.01" height="19.5048" transform="translate(0 14.1941) rotate(-3.87546)" fill="white"/>
<path d="M8.72277 20.3328C8.95291 20.3172 9.24664 20.2973 9.60396 20.2731C9.96087 20.2428 10.3355 20.2053 10.728 20.1605C11.12 20.1096 11.4809 20.0486 11.8107 19.9776C12.0388 19.9317 12.2604 19.8802 12.4756 19.823C12.6968 19.7655 12.9059 19.7087 13.1029 19.6528C13.3055 19.5904 13.4867 19.5264 13.6466 19.4608C13.8124 19.3948 13.9513 19.3337 14.0631 19.2774L14.8757 20.2263C14.7207 20.2733 14.5867 20.3158 14.4737 20.3539C14.3606 20.392 14.2654 20.4228 14.1879 20.4463C14.0034 20.5074 13.8038 20.5696 13.5891 20.6328C13.3739 20.69 13.1525 20.7445 12.9248 20.7965C12.6971 20.8484 12.4664 20.9005 12.2327 20.9529C11.8908 21.0247 11.5268 21.0859 11.1409 21.1364C10.7549 21.1868 10.3809 21.2335 10.0187 21.2763C9.65615 21.313 9.34184 21.3434 9.07577 21.3675L8.72277 20.3328ZM9.53741 26.5655C10.054 26.2872 10.4701 25.9639 10.7859 25.5957C11.1073 25.221 11.3344 24.8011 11.4671 24.3358C11.6055 23.864 11.6554 23.3435 11.6169 22.7742C11.6169 22.7742 11.6124 22.7076 11.6033 22.5743C11.5939 22.435 11.5799 22.2291 11.5615 21.9566C11.5426 21.678 11.5188 21.3267 11.4901 20.9028L12.6709 20.6859C12.6816 20.8434 12.6931 21.013 12.7054 21.1946C12.7173 21.3703 12.7292 21.5459 12.7411 21.7215C12.753 21.8972 12.7638 22.0577 12.7737 22.203C12.7831 22.3423 12.7909 22.4574 12.7971 22.5482C12.8028 22.633 12.8057 22.6754 12.8057 22.6754C12.8467 23.281 12.81 23.8615 12.6955 24.4168C12.5871 24.9717 12.3759 25.491 12.0618 25.9747C11.7474 26.4523 11.3083 26.8866 10.7447 27.2777L9.53741 26.5655ZM8.18852 22.5501C8.31652 22.5536 8.45361 22.5565 8.59978 22.5588C8.74595 22.561 8.88868 22.5575 9.02798 22.548C9.11277 22.5423 9.27326 22.5314 9.50945 22.5154C9.74565 22.4994 10.0303 22.4801 10.3634 22.4576C10.7025 22.4346 11.0659 22.41 11.4535 22.3837C11.8411 22.3574 12.2287 22.3312 12.6163 22.3049C13.0039 22.2787 13.3673 22.2541 13.7065 22.2311C14.0456 22.2081 14.3363 22.1884 14.5786 22.172C14.8208 22.1556 14.9843 22.1445 15.0691 22.1388C15.1357 22.1343 15.2203 22.1255 15.3229 22.1125C15.4254 22.0994 15.528 22.0864 15.6305 22.0734C15.7387 22.0539 15.8259 22.0388 15.8921 22.0283L15.9715 23.2002C15.8496 23.1963 15.7157 23.1962 15.5699 23.2C15.4302 23.2034 15.2968 23.2094 15.1696 23.218C15.0848 23.2237 14.9213 23.2348 14.6791 23.2512C14.4429 23.2672 14.1522 23.2869 13.8069 23.3103C13.4678 23.3333 13.1014 23.3581 12.7077 23.3848C12.3201 23.411 11.9295 23.4375 11.5358 23.4641C11.1482 23.4904 10.7849 23.515 10.4457 23.538C10.1066 23.561 9.81888 23.5804 9.58269 23.5964C9.34649 23.6125 9.19206 23.6229 9.11938 23.6278C8.98009 23.6373 8.83191 23.6504 8.67486 23.6671C8.51781 23.6838 8.38215 23.7021 8.26791 23.722L8.18852 22.5501ZM18.5878 21.2707C18.6919 21.2819 18.8139 21.2858 18.9536 21.2824C19.0933 21.2791 19.2116 21.2741 19.3085 21.2675L23.4692 20.9857C23.5782 20.9783 23.6961 20.9672 23.8229 20.9526C23.9496 20.9379 24.0669 20.9178 24.1747 20.8922L24.2522 22.0369C24.1363 22.0326 24.0146 22.0317 23.887 22.0342C23.7594 22.0368 23.6441 22.0416 23.5412 22.0485L19.3805 22.3304C19.2836 22.337 19.1657 22.348 19.0268 22.3635C18.8879 22.379 18.7674 22.3963 18.6653 22.4153L18.5878 21.2707ZM21.0377 25.7773L20.7651 21.7529L21.9551 21.6723L22.2278 25.6967L21.0377 25.7773ZM18.394 25.2811C18.5099 25.2854 18.6349 25.2891 18.7689 25.2922C18.903 25.2953 19.0275 25.2929 19.1426 25.2851L24.1663 24.9448C24.2935 24.9362 24.4142 24.9219 24.5285 24.902C24.6484 24.8756 24.7565 24.8561 24.853 24.8435L24.9337 26.0336C24.8355 26.022 24.7136 26.0181 24.5678 26.0219C24.4281 26.0252 24.3189 26.0296 24.2402 26.0349L19.2165 26.3753C19.1075 26.3826 18.9865 26.3939 18.8537 26.409C18.7209 26.424 18.5945 26.4448 18.4746 26.4711L18.394 25.2811ZM30.7107 19.9749C30.7597 20.0689 30.8236 20.2045 30.9026 20.3817C30.9871 20.5524 31.0758 20.7381 31.1684 20.9386C31.2607 21.1332 31.3433 21.3192 31.4162 21.4968C31.489 21.6744 31.5471 21.8134 31.5904 21.9139L30.5261 22.3693C30.4941 22.2559 30.4419 22.1134 30.3694 21.9419C30.297 21.7704 30.2178 21.5902 30.132 21.4013C30.0458 21.2063 29.9602 21.0205 29.8752 20.8437C29.7902 20.667 29.7164 20.5199 29.6537 20.4024L30.7107 19.9749ZM34.1078 20.411C34.0692 20.5596 34.0352 20.6866 34.0059 20.7921C33.9826 20.8971 33.9588 20.996 33.9347 21.0889C33.8508 21.557 33.7245 22.0279 33.5559 22.5018C33.3868 22.9695 33.1613 23.4137 32.8795 23.8344C32.4925 24.4081 32.0424 24.9041 31.5293 25.3221C31.0218 25.7337 30.5083 26.0575 29.9889 26.2935L28.9692 25.386C29.2961 25.2726 29.6383 25.1156 29.9959 24.9149C30.353 24.7082 30.6956 24.466 31.0235 24.1882C31.3515 23.9105 31.6292 23.6088 31.8566 23.2831C32.0448 23.0087 32.2064 22.6996 32.3413 22.3559C32.4819 22.0056 32.5907 21.6363 32.6678 21.2478C32.7506 20.8528 32.7974 20.4663 32.8083 20.0883L34.1078 20.411ZM28.6358 20.5992C28.7041 20.7101 28.7808 20.854 28.8658 21.0308C28.9568 21.2071 29.0485 21.3925 29.1407 21.5871C29.233 21.7816 29.3218 21.9703 29.4072 22.1531C29.4987 22.3355 29.5699 22.4889 29.6209 22.6132L28.5409 23.1061C28.4964 22.9875 28.4312 22.8337 28.3454 22.6448C28.2657 22.4555 28.1762 22.2578 28.0771 22.0516C27.9775 21.8393 27.8822 21.645 27.7912 21.4686C27.7062 21.2918 27.6332 21.1568 27.5721 21.0636L28.6358 20.5992ZM43.6297 18.8442C43.587 18.9323 43.5425 19.0387 43.4962 19.1635C43.4495 19.2823 43.4089 19.4007 43.3743 19.5186C43.3136 19.7904 43.2223 20.1038 43.1003 20.4589C42.984 20.8075 42.8323 21.1737 42.6454 21.5575C42.4641 21.9348 42.2487 22.3023 41.9991 22.6599C41.5983 23.2103 41.1216 23.7171 40.5689 24.1804C40.0223 24.6433 39.3335 25.0733 38.5025 25.4703L37.3653 24.58C37.9708 24.3564 38.4896 24.1114 38.9217 23.8448C39.3539 23.5783 39.7275 23.3005 40.0426 23.0114C40.3572 22.7163 40.6345 22.4086 40.8744 22.0881C41.0703 21.8376 41.2461 21.558 41.4016 21.2493C41.5567 20.9346 41.6878 20.6245 41.7949 20.3192C41.902 20.0138 41.9691 19.7476 41.9964 19.5207L38.9349 19.7281L39.2832 18.6732C39.368 18.6675 39.4982 18.6587 39.6739 18.6468C39.8556 18.6344 40.0584 18.6207 40.2825 18.6055C40.5127 18.5899 40.7367 18.5748 40.9548 18.56C41.1789 18.5448 41.3727 18.5317 41.5362 18.5206C41.7058 18.5091 41.8208 18.5013 41.8814 18.4972C42.0207 18.4878 42.1594 18.4693 42.2974 18.4416C42.4415 18.4136 42.5639 18.378 42.6643 18.3347L43.6297 18.8442ZM40.571 17.6095C40.4726 17.7743 40.3781 17.9511 40.2875 18.1398C40.1968 18.3284 40.1275 18.473 40.0796 18.5736C39.8983 18.951 39.6696 19.3467 39.3934 19.7609C39.1229 20.1686 38.8094 20.5701 38.4529 20.9654C38.096 21.3546 37.7128 21.7152 37.3033 22.0471L36.2257 21.3627C36.6086 21.0873 36.9426 20.8091 37.2278 20.5282C37.519 20.2468 37.768 19.9714 37.9749 19.7018C38.1813 19.4262 38.3553 19.165 38.4967 18.9181C38.6438 18.6648 38.7686 18.4404 38.8709 18.2448C38.9358 18.1248 39.0015 17.9713 39.0679 17.7843C39.1339 17.5912 39.183 17.4176 39.2151 17.2633L40.571 17.6095ZM45.2124 18.3628L48.1195 18.1659L48.1878 19.1743L45.2808 19.3712L45.2124 18.3628ZM46.1421 16.5933L47.1595 16.5243L47.7374 25.0546L46.7199 25.1235L46.1421 16.5933ZM46.3894 19.0314L46.9771 19.2198C46.9411 19.5872 46.8913 19.9739 46.8275 20.3798C46.7694 20.7792 46.6925 21.1707 46.5968 21.5544C46.5072 21.9377 46.4038 22.2976 46.2866 22.6341C46.1695 22.9706 46.0432 23.262 45.9078 23.5085C45.8706 23.4076 45.8173 23.2956 45.7482 23.1725C45.6846 23.0429 45.6152 22.9168 45.54 22.7942C45.4704 22.665 45.4023 22.5571 45.3356 22.4704C45.4678 22.2667 45.5887 22.0304 45.6982 21.7613C45.8073 21.4862 45.9094 21.1964 46.0043 20.8919C46.0989 20.5813 46.1779 20.2656 46.2414 19.9449C46.3109 19.6239 46.3602 19.3194 46.3894 19.0314ZM47.2959 19.4811C47.361 19.5436 47.4566 19.6527 47.5828 19.8084C47.7085 19.9581 47.8446 20.1253 47.9909 20.3101C48.1369 20.4888 48.2699 20.6563 48.39 20.8124C48.5157 20.9621 48.6023 21.0718 48.6496 21.1416L48.1071 21.8902C48.0436 21.7606 47.957 21.6053 47.8474 21.4241C47.7373 21.2369 47.621 21.047 47.4985 20.8545C47.3755 20.656 47.2566 20.4724 47.1418 20.3037C47.0265 20.129 46.9319 19.9894 46.8579 19.8849L47.2959 19.4811ZM48.2416 16.8708L53.3834 16.5225L53.4517 17.5309L48.3099 17.8792L48.2416 16.8708ZM48.5526 18.7662L52.8313 18.4764L52.8972 19.4484L49.6359 19.6694L49.9916 24.9202L48.9741 24.9891L48.5526 18.7662ZM52.3589 18.5084L53.3946 18.4382L53.7386 23.5164C53.7562 23.7769 53.7429 23.9846 53.6987 24.1397C53.6544 24.2948 53.5534 24.4203 53.3956 24.5162C53.2374 24.606 53.0409 24.668 52.8059 24.7021C52.5709 24.7363 52.2869 24.7647 51.9538 24.7872C51.9379 24.6423 51.8959 24.4717 51.8279 24.2756C51.7602 24.0855 51.6886 23.926 51.613 23.7973C51.7951 23.7911 51.9802 23.7846 52.1683 23.778C52.3561 23.7652 52.4831 23.7536 52.5493 23.743C52.6094 23.7329 52.651 23.7179 52.674 23.6981C52.6966 23.6722 52.7058 23.629 52.7017 23.5684L52.3589 18.5084ZM50.6927 20.1818L51.4021 19.7414C51.5607 20.0166 51.7237 20.3128 51.8912 20.63C52.0644 20.9407 52.2248 21.2432 52.3725 21.5374C52.5262 21.8311 52.6438 22.0848 52.7252 22.2983L51.9675 22.8333C51.8852 22.6077 51.7699 22.3417 51.6214 22.0354C51.4789 21.7287 51.3267 21.4135 51.1649 21.0898C51.003 20.7662 50.8456 20.4635 50.6927 20.1818ZM50.5175 18.9434L51.4805 18.8782L51.5347 19.6776C51.5416 19.7806 51.5356 19.9605 51.5165 20.2173C51.4969 20.4681 51.4526 20.757 51.3835 21.0842C51.314 21.4052 51.2118 21.7377 51.0769 22.0814C50.942 22.4252 50.7627 22.7415 50.5389 23.0305C50.4471 22.9333 50.3214 22.8292 50.1618 22.7184C50.0018 22.6014 49.8616 22.5075 49.7412 22.4366C49.9448 22.2098 50.1019 21.968 50.2122 21.7111C50.3282 21.4477 50.4113 21.1926 50.4615 20.9458C50.5174 20.6926 50.5505 20.4622 50.5607 20.2547C50.5767 20.0406 50.5801 19.867 50.5711 19.7338L50.5175 18.9434ZM50.4008 17.3543L51.4364 17.2841L51.5607 19.1192L50.5251 19.1893L50.4008 17.3543ZM58.2111 16.3871C58.1947 16.5038 58.176 16.6329 58.1552 16.7742C58.1339 16.9095 58.1151 17.0355 58.0987 17.1522C58.0835 17.2871 58.0634 17.4405 58.0386 17.6126C58.0133 17.7786 57.9883 17.9476 57.9634 18.1196C57.9442 18.2852 57.9218 18.4479 57.8961 18.6078C57.8532 18.8724 57.798 19.1803 57.7305 19.5317C57.6631 19.883 57.5823 20.2627 57.4883 20.6706C57.3938 21.0725 57.2844 21.4784 57.1601 21.8884C57.0358 22.2983 56.9017 22.6998 56.758 23.0929C56.6139 23.4798 56.4551 23.8313 56.2819 24.1472L55.0689 23.7549C55.2616 23.4559 55.4369 23.1246 55.5948 22.761C55.7583 22.391 55.9033 22.0161 56.0296 21.6364C56.1556 21.2506 56.2638 20.8722 56.3543 20.501C56.4504 20.1234 56.5301 19.7742 56.5936 19.4536C56.6631 19.1325 56.7145 18.8582 56.7478 18.6309C56.8047 18.2133 56.8444 17.8121 56.867 17.4273C56.8896 17.0425 56.8834 16.6809 56.8483 16.3425L58.2111 16.3871ZM61.3983 17.0929C61.5572 17.283 61.7222 17.5182 61.8933 17.7986C62.07 18.0726 62.245 18.365 62.4181 18.6757C62.5913 18.9864 62.7485 19.2861 62.8897 19.5746C63.0309 19.8632 63.1422 20.1142 63.2236 20.3277L62.1056 20.9328C62.0339 20.6821 61.933 20.406 61.8031 20.1045C61.6792 19.8026 61.5369 19.4989 61.3763 19.1934C61.2153 18.8819 61.0464 18.5891 60.8696 18.3152C60.699 18.0408 60.5253 17.8122 60.3486 17.6295L61.3983 17.0929ZM54.649 18.4993C54.8133 18.5003 54.9742 18.4955 55.1317 18.4848C55.2948 18.4677 55.4579 18.4506 55.621 18.4334C55.772 18.4171 55.9531 18.3957 56.1642 18.3693C56.375 18.3367 56.5978 18.3034 56.8328 18.2692C57.0738 18.2346 57.3148 18.2 57.5558 18.1655C57.7965 18.1248 58.0193 18.0915 58.2244 18.0654C58.4295 18.0394 58.5987 18.0218 58.7319 18.0128C59.0589 17.9906 59.3473 18.0259 59.5969 18.1185C59.8461 18.205 60.049 18.3707 60.2055 18.6157C60.3681 18.8602 60.4642 19.2005 60.4937 19.6365C60.5179 19.9938 60.529 20.3825 60.5271 20.8024C60.5251 21.2223 60.4977 21.6258 60.4448 22.0126C60.398 22.3991 60.317 22.7301 60.2018 23.0056C60.0777 23.3304 59.8927 23.5619 59.6465 23.7003C59.4064 23.8382 59.1137 23.9189 58.7685 23.9423C58.599 23.9538 58.4132 23.9511 58.2113 23.9344C58.0098 23.9237 57.8293 23.9086 57.6698 23.889L57.3978 22.7027C57.5149 22.7252 57.6441 22.7469 57.7855 22.7677C57.9329 22.7882 58.0708 22.8032 58.1992 22.8127C58.3337 22.8219 58.4403 22.8238 58.519 22.8184C58.6704 22.8082 58.8018 22.7719 58.9132 22.7096C59.0241 22.6412 59.111 22.5319 59.1739 22.3816C59.2468 22.2003 59.301 21.9684 59.3367 21.6862C59.3723 21.4039 59.3914 21.1014 59.3938 20.7788C59.402 20.4497 59.396 20.1368 59.3759 19.84C59.3595 19.5978 59.311 19.4216 59.2305 19.3114C59.1561 19.2009 59.0511 19.1319 58.9154 19.1046C58.7853 19.0708 58.6264 19.0603 58.4387 19.073C58.2994 19.0825 58.1125 19.1073 57.8779 19.1475C57.6429 19.1817 57.3902 19.2231 57.1197 19.2719C56.8549 19.3142 56.6084 19.3582 56.3803 19.4041C56.1523 19.45 55.975 19.4833 55.8487 19.504C55.7171 19.5373 55.5493 19.576 55.3455 19.6202C55.1473 19.658 54.9793 19.6937 54.8417 19.7274L54.649 18.4993ZM61.1492 15.8413C61.2354 15.945 61.3259 16.0696 61.421 16.2153C61.5221 16.3606 61.6202 16.506 61.7152 16.6517C61.8102 16.7973 61.8919 16.9257 61.9603 17.0366L61.246 17.4044C61.1768 17.2813 61.0977 17.1468 61.0087 17.0007C60.9198 16.8546 60.8277 16.7088 60.7327 16.5631C60.6377 16.4174 60.544 16.293 60.4519 16.1897L61.1492 15.8413ZM62.2026 15.3593C62.2891 15.469 62.3829 15.5965 62.484 15.7417C62.5851 15.887 62.6832 16.0324 62.7782 16.1781C62.8794 16.3234 62.9576 16.4458 63.013 16.5455L62.3163 16.903C62.2067 16.7218 62.0772 16.5176 61.928 16.2905C61.7784 16.0572 61.6342 15.8601 61.4955 15.6992L62.2026 15.3593ZM72.1755 16.4085C72.1312 16.4723 72.0759 16.5552 72.0098 16.657C71.9433 16.7528 71.8911 16.8354 71.8532 16.9049C71.7299 17.1505 71.5637 17.4356 71.3545 17.76C71.1448 18.0784 70.911 18.3985 70.6529 18.7202C70.3944 19.0358 70.124 19.3096 69.8416 19.5417L68.8457 18.8517C69.02 18.7304 69.1901 18.5911 69.3558 18.4339C69.5216 18.2766 69.6719 18.1143 69.8066 17.947C69.9469 17.7732 70.0666 17.61 70.1658 17.4573C70.271 17.3041 70.35 17.1679 70.4028 17.0488C70.3241 17.0541 70.1908 17.0631 70.0031 17.0759C69.8153 17.0886 69.5912 17.1038 69.3308 17.1214C69.0704 17.139 68.7888 17.1581 68.486 17.1786C68.1892 17.1987 67.8925 17.2188 67.5957 17.2389C67.2989 17.259 67.0173 17.2781 66.7508 17.2962C66.4904 17.3138 66.2633 17.3292 66.0695 17.3423C65.8818 17.355 65.7485 17.3641 65.6698 17.3694C65.4821 17.3821 65.3038 17.4003 65.135 17.4239C64.9663 17.4475 64.7765 17.4755 64.5658 17.5081L64.4803 16.2453C64.6575 16.2577 64.8407 16.2666 65.0296 16.272C65.2186 16.2775 65.407 16.2738 65.5947 16.2611C65.6734 16.2558 65.8127 16.2463 66.0126 16.2328C66.2125 16.2193 66.4487 16.2033 66.7212 16.1848C66.9998 16.1659 67.2935 16.146 67.6024 16.1251C67.9173 16.1038 68.2292 16.0826 68.5381 16.0617C68.853 16.0404 69.1437 16.0207 69.4102 16.0026C69.6827 15.9842 69.9128 15.9686 70.1006 15.9559C70.2944 15.9427 70.4246 15.9339 70.4912 15.9294C70.576 15.9237 70.6788 15.9136 70.7995 15.8994C70.9202 15.8851 71.0377 15.868 71.1519 15.8481C71.2722 15.8278 71.359 15.8067 71.4123 15.7849L72.1755 16.4085ZM68.5521 17.886C68.5825 18.3341 68.6028 18.7678 68.6129 19.1869C68.623 19.606 68.5988 20.0122 68.5403 20.4056C68.4874 20.7925 68.3818 21.1647 68.2235 21.5222C68.0713 21.8793 67.8481 22.2229 67.5541 22.5532C67.2601 22.8834 66.8767 23.1953 66.4038 23.4889L65.2824 22.6979C65.4245 22.6396 65.5746 22.5656 65.7328 22.4758C65.8906 22.3799 66.0471 22.2659 66.2024 22.1337C66.4796 21.9141 66.6984 21.6863 66.8589 21.4504C67.0254 21.214 67.1483 20.9623 67.2275 20.6953C67.3064 20.4223 67.3535 20.1301 67.3689 19.8187C67.3839 19.5013 67.3789 19.1579 67.3539 18.7885C67.3444 18.6492 67.3324 18.5162 67.3177 18.3894C67.3026 18.2566 67.275 18.1185 67.2349 17.9752L68.5521 17.886ZM80.6051 16.3394C80.5624 16.4275 80.5179 16.5339 80.4716 16.6587C80.4249 16.7775 80.3843 16.8958 80.3497 17.0138C80.289 17.2856 80.1977 17.599 80.0757 17.9541C79.9594 18.3027 79.8077 18.6688 79.6208 19.0526C79.4395 19.43 79.2241 19.7974 78.9745 20.1551C78.5738 20.7054 78.097 21.2123 77.5443 21.6756C76.9977 22.1385 76.3089 22.5685 75.478 22.9655L74.3408 22.0752C74.9462 21.8516 75.465 21.6066 75.8972 21.34C76.3293 21.0735 76.7029 20.7957 77.018 20.5066C77.3326 20.2115 77.6099 19.9037 77.8498 19.5833C78.0457 19.3327 78.2215 19.0531 78.377 18.7445C78.5321 18.4298 78.6632 18.1197 78.7703 17.8143C78.8774 17.509 78.9445 17.2428 78.9718 17.0159L75.9103 17.2232L76.2587 16.1684C76.3434 16.1627 76.4736 16.1538 76.6493 16.1419C76.831 16.1296 77.0339 16.1159 77.2579 16.1007C77.4881 16.0851 77.7122 16.0699 77.9302 16.0552C78.1543 16.04 78.3481 16.0269 78.5116 16.0158C78.6812 16.0043 78.7962 15.9965 78.8568 15.9924C78.9961 15.983 79.1348 15.9644 79.2728 15.9368C79.417 15.9088 79.5393 15.8731 79.6398 15.8298L80.6051 16.3394ZM77.5464 15.1047C77.448 15.2695 77.3535 15.4463 77.2629 15.6349C77.1722 15.8236 77.1029 15.9682 77.055 16.0688C76.8737 16.4461 76.645 16.8419 76.3688 17.2561C76.0983 17.6638 75.7848 18.0653 75.4283 18.4605C75.0714 18.8498 74.6882 19.2104 74.2787 19.5423L73.2011 18.8578C73.584 18.5824 73.918 18.3043 74.2032 18.0234C74.4944 17.742 74.7434 17.4666 74.9503 17.197C75.1567 16.9214 75.3307 16.6602 75.4721 16.4133C75.6193 16.16 75.744 15.9356 75.8463 15.74C75.9112 15.62 75.9769 15.4665 76.0433 15.2795C76.1093 15.0864 76.1584 14.9127 76.1905 14.7585L77.5464 15.1047ZM84.6579 20.5275C84.6493 20.4003 84.637 20.2186 84.621 19.9824C84.6046 19.7402 84.5861 19.4677 84.5656 19.1648C84.5447 18.856 84.523 18.535 84.5004 18.2019C84.4774 17.8627 84.4551 17.5327 84.4333 17.2117C84.4112 16.8847 84.3907 16.5818 84.3718 16.3032C84.3529 16.0247 84.3371 15.7915 84.3244 15.6037C84.3178 15.5068 84.3072 15.395 84.2925 15.2682C84.2839 15.1411 84.2693 15.0143 84.2485 14.8879C84.2278 14.7616 84.2053 14.6536 84.1809 14.564L85.5345 14.4723C85.5258 14.6128 85.5193 14.7866 85.5151 14.9938C85.5105 15.1949 85.5133 15.3711 85.5235 15.5225C85.5358 15.7042 85.5506 15.9222 85.5679 16.1766C85.5847 16.4249 85.6029 16.6944 85.6226 16.9851C85.6419 17.2698 85.6616 17.5605 85.6817 17.8572C85.7018 18.154 85.7215 18.4447 85.7408 18.7293C85.7601 19.014 85.7777 19.2744 85.7937 19.5106C85.8097 19.7468 85.8237 19.9527 85.8356 20.1283C85.8479 20.31 85.8852 20.4565 85.9475 20.5679C86.0098 20.6793 86.1243 20.7537 86.2911 20.791C86.464 20.828 86.717 20.8352 87.0501 20.8126C87.371 20.7909 87.6912 20.757 88.0105 20.7111C88.3355 20.6586 88.6571 20.6003 88.9752 20.5362C89.2929 20.466 89.5981 20.3906 89.8907 20.3099L89.9381 21.5479C89.6922 21.601 89.4129 21.6534 89.1 21.705C88.7871 21.7566 88.4617 21.803 88.1238 21.8442C87.7919 21.8849 87.4625 21.9163 87.1354 21.9385C86.6207 21.9734 86.2036 21.9682 85.8841 21.9229C85.5651 21.8836 85.3195 21.806 85.1474 21.6899C84.9813 21.5734 84.8612 21.4172 84.7871 21.2215C84.719 21.0253 84.676 20.794 84.6579 20.5275ZM90.1104 16.1427C90.0725 16.2121 90.0265 16.2974 89.9725 16.3984C89.9242 16.4929 89.8815 16.581 89.8444 16.6626C89.7602 16.8569 89.6504 17.0773 89.515 17.3237C89.3857 17.5698 89.2446 17.8227 89.0919 18.0825C88.9391 18.3423 88.7795 18.5904 88.613 18.8268C88.4525 19.0628 88.2959 19.265 88.143 19.4336L87.1037 18.9108C87.2917 18.7216 87.472 18.5086 87.6445 18.2718C87.8227 18.0285 87.9802 17.7928 88.1168 17.5645C88.253 17.3301 88.3584 17.1344 88.4329 16.9773C88.349 16.9951 88.2026 17.0354 87.994 17.0983C87.7909 17.1546 87.54 17.2233 87.2413 17.3044C86.9426 17.3855 86.6171 17.4744 86.2647 17.5713C85.9118 17.6621 85.5562 17.7562 85.1978 17.8535C84.8393 17.9508 84.493 18.0473 84.1587 18.1429C83.8241 18.2325 83.5226 18.3168 83.2541 18.3958C82.9853 18.4688 82.7703 18.529 82.6093 18.5764L82.3106 17.4011C82.4846 17.365 82.7125 17.3161 82.9943 17.2544C83.2757 17.1867 83.5899 17.1106 83.9371 17.0263C84.2838 16.9359 84.6455 16.8414 85.0221 16.7429C85.3988 16.6444 85.7724 16.546 86.1429 16.4479C86.5135 16.3498 86.8602 16.2594 87.1832 16.1767C87.5057 16.0879 87.7865 16.0111 88.0254 15.9462C88.264 15.8753 88.4428 15.8206 88.5619 15.7821C88.687 15.7432 88.8031 15.7049 88.91 15.6673C89.0166 15.6236 89.1108 15.5776 89.1927 15.5295L90.1104 16.1427ZM93.2566 14.2229C93.4214 14.3213 93.6152 14.442 93.8378 14.5851C94.0605 14.7282 94.2902 14.886 94.527 15.0586C94.7694 15.2247 94.9965 15.3888 95.2083 15.5509C95.42 15.713 95.5942 15.8594 95.7308 15.9901L94.8682 16.9976C94.7445 16.8782 94.5829 16.7371 94.3832 16.5742C94.1836 16.4112 93.9684 16.2433 93.7377 16.0703C93.5069 15.8974 93.2798 15.7333 93.0564 15.578C92.8329 15.4228 92.6355 15.2932 92.4642 15.1892L93.2566 14.2229ZM92.5309 20.3501C92.9988 20.2515 93.4376 20.1274 93.8472 19.978C94.2569 19.8286 94.6351 19.663 94.9817 19.4814C95.3284 19.2997 95.6443 19.114 95.9296 18.9243C96.4235 18.5806 96.8721 18.1973 97.2754 17.7745C97.6787 17.3517 98.0265 16.9175 98.3188 16.4718C98.6106 16.0201 98.8367 15.585 98.997 15.1665L99.7923 16.3994C99.5897 16.8207 99.3325 17.2458 99.0208 17.6745C98.7152 18.1029 98.363 18.5161 97.9641 18.9143C97.5647 19.3064 97.1296 19.6644 96.6588 19.9883C96.3626 20.197 96.0416 20.3982 95.6958 20.592C95.3496 20.7797 94.9809 20.9507 94.5898 21.105C94.2051 21.2649 93.8003 21.3957 93.3752 21.4975L92.5309 20.3501ZM103.685 19.5762C103.678 19.4611 103.665 19.2734 103.647 19.013C103.629 18.7465 103.608 18.4407 103.585 18.0954C103.561 17.7442 103.536 17.3778 103.511 16.9962C103.485 16.6147 103.46 16.2483 103.436 15.897C103.412 15.5397 103.391 15.2248 103.372 14.9522C103.354 14.6797 103.34 14.4798 103.331 14.3527C103.321 14.1952 103.299 14.0141 103.267 13.8094C103.241 13.6043 103.208 13.4241 103.167 13.2687L104.584 13.1727C104.576 13.3314 104.57 13.5082 104.565 13.7033C104.56 13.8922 104.563 14.0806 104.576 14.2683C104.588 14.4379 104.603 14.6681 104.623 14.9588C104.643 15.2495 104.664 15.5735 104.689 15.9308C104.712 16.2821 104.737 16.6424 104.762 17.0118C104.787 17.3752 104.81 17.7265 104.833 18.0656C104.856 18.4048 104.876 18.7015 104.894 18.9559C104.91 19.2042 104.923 19.3829 104.93 19.4919C104.936 19.5767 104.947 19.6976 104.964 19.8547C104.98 20.0057 105.003 20.1623 105.032 20.3246C105.061 20.4869 105.083 20.6314 105.098 20.7582L103.681 20.8542C103.693 20.6709 103.699 20.4574 103.701 20.214C103.703 19.9705 103.698 19.7579 103.685 19.5762ZM104.389 15.5495C104.697 15.6078 105.043 15.6877 105.427 15.7895C105.811 15.8852 106.198 15.9897 106.589 16.1032C106.98 16.2166 107.347 16.3317 107.69 16.4485C108.038 16.5587 108.328 16.6638 108.56 16.7637L108.127 18.0524C107.864 17.9364 107.573 17.8223 107.255 17.7099C106.937 17.5916 106.613 17.4797 106.283 17.3742C105.96 17.2684 105.64 17.1714 105.323 17.0833C105.013 16.9948 104.731 16.9166 104.477 16.8486L104.389 15.5495ZM115.196 13.4211C115.167 13.8855 115.121 14.3814 115.06 14.9088C114.998 15.4362 114.904 15.9719 114.776 16.516C114.642 17.1396 114.472 17.6804 114.266 18.1385C114.059 18.5966 113.822 18.9564 113.554 19.218C113.291 19.473 112.993 19.6119 112.66 19.6344C112.327 19.657 112.011 19.5659 111.711 19.3611C111.417 19.1498 111.171 18.8501 110.975 18.4618C110.784 18.0732 110.672 17.6245 110.637 17.1158C110.601 16.5889 110.674 16.0851 110.854 15.6044C111.034 15.1237 111.3 14.692 111.652 14.3092C112.009 13.92 112.431 13.6054 112.92 13.3654C113.415 13.1251 113.956 12.985 114.543 12.9452C115.107 12.907 115.619 12.9636 116.079 13.1149C116.546 13.2659 116.95 13.4909 117.293 13.7902C117.636 14.0894 117.906 14.4483 118.105 14.8668C118.304 15.2853 118.42 15.7429 118.454 16.2395C118.497 16.8754 118.405 17.4535 118.179 17.9738C117.952 18.4941 117.593 18.9352 117.1 19.2972C116.614 19.6587 115.993 19.9258 115.238 20.0986L114.483 19.0637C114.658 19.0337 114.811 19.002 114.942 18.9688C115.074 18.9355 115.199 18.8996 115.318 18.8612C115.604 18.7688 115.867 18.6476 116.106 18.4975C116.351 18.341 116.56 18.1564 116.735 17.9439C116.908 17.7252 117.038 17.4762 117.122 17.1967C117.213 16.9167 117.247 16.6133 117.225 16.2862C117.2 15.9289 117.124 15.6056 116.995 15.3162C116.866 15.0268 116.688 14.7803 116.461 14.5766C116.234 14.3669 115.965 14.2148 115.654 14.1202C115.343 14.0196 114.991 13.9826 114.597 14.0093C114.113 14.0421 113.692 14.1588 113.334 14.3595C112.976 14.5541 112.679 14.7963 112.443 15.0861C112.208 15.3758 112.034 15.6827 111.922 16.0066C111.816 16.3302 111.773 16.6343 111.792 16.9189C111.812 17.2217 111.866 17.4736 111.953 17.6746C112.039 17.8696 112.137 18.015 112.247 18.111C112.362 18.2005 112.481 18.2412 112.602 18.233C112.729 18.2243 112.849 18.1523 112.961 18.017C113.08 17.8751 113.19 17.6668 113.293 17.3922C113.396 17.1175 113.495 16.7731 113.588 16.3592C113.698 15.9137 113.785 15.4393 113.848 14.9362C113.911 14.433 113.948 13.9438 113.958 13.4685L115.196 13.4211ZM126.765 12.7013C126.732 12.7583 126.684 12.8468 126.619 12.9668C126.56 13.0863 126.516 13.1958 126.486 13.2952C126.378 13.5884 126.242 13.9171 126.078 14.281C125.92 14.6446 125.735 15.0131 125.523 15.3864C125.317 15.7532 125.094 16.0999 124.854 16.4264C124.541 16.831 124.191 17.2349 123.805 17.6383C123.424 18.0352 123.017 18.4065 122.584 18.7522C122.157 19.0915 121.715 19.3891 121.258 19.6452L120.256 18.7275C120.733 18.5065 121.193 18.2381 121.634 17.9223C122.075 17.6064 122.481 17.2686 122.852 16.9089C123.223 16.5491 123.54 16.2021 123.804 15.8679C123.988 15.6242 124.159 15.3662 124.317 15.0939C124.481 14.8212 124.624 14.5529 124.746 14.2891C124.868 14.0193 124.955 13.7731 125.006 13.5505C124.946 13.5546 124.837 13.562 124.679 13.5727C124.522 13.5834 124.337 13.5959 124.125 13.6102C123.919 13.6242 123.701 13.639 123.471 13.6545C123.241 13.6701 123.02 13.6851 122.808 13.6995C122.602 13.7134 122.42 13.7257 122.263 13.7364C122.105 13.7471 121.993 13.7546 121.927 13.7592C121.8 13.7678 121.667 13.7829 121.528 13.8044C121.389 13.8199 121.257 13.838 121.13 13.8587C121.01 13.873 120.916 13.8854 120.85 13.896L120.763 12.606C120.854 12.6059 120.967 12.6074 121.101 12.6105C121.235 12.6136 121.369 12.6136 121.502 12.6107C121.642 12.6073 121.757 12.6025 121.848 12.5964C121.927 12.591 122.051 12.5826 122.221 12.5711C122.39 12.5596 122.584 12.5465 122.802 12.5317C123.02 12.517 123.244 12.5018 123.474 12.4862C123.71 12.4702 123.934 12.455 124.146 12.4407C124.364 12.4259 124.552 12.4132 124.71 12.4025C124.867 12.3918 124.982 12.384 125.055 12.3791C125.255 12.3656 125.436 12.3412 125.597 12.3059C125.765 12.2701 125.894 12.2341 125.983 12.1976L126.765 12.7013ZM124.922 15.6644C125.17 15.8362 125.437 16.0372 125.72 16.2674C126.003 16.4977 126.284 16.7372 126.562 16.9861C126.841 17.2349 127.098 17.4761 127.332 17.7096C127.573 17.9367 127.775 18.1359 127.939 18.3074L126.964 19.2769C126.719 18.9832 126.44 18.6797 126.127 18.3663C125.819 18.0524 125.494 17.7429 125.151 17.4376C124.814 17.1258 124.471 16.8326 124.124 16.558L124.922 15.6644ZM131.756 17.6746C131.748 17.5595 131.736 17.3718 131.718 17.1114C131.7 16.8449 131.679 16.539 131.656 16.1938C131.632 15.8426 131.607 15.4762 131.581 15.0946C131.556 14.7131 131.531 14.3467 131.507 13.9954C131.483 13.6381 131.461 13.3232 131.443 13.0506C131.425 12.7781 131.411 12.5782 131.402 12.4511C131.392 12.2936 131.37 12.1125 131.338 11.9078C131.312 11.7027 131.279 11.5225 131.238 11.3671L132.655 11.2711C132.647 11.4298 132.641 11.6066 132.636 11.8017C132.631 11.9906 132.634 12.179 132.647 12.3667C132.658 12.5363 132.674 12.7665 132.694 13.0572C132.713 13.3479 132.735 13.6719 132.76 14.0292C132.783 14.3805 132.808 14.7408 132.833 15.1102C132.857 15.4736 132.881 15.8249 132.904 16.164C132.927 16.5032 132.947 16.7999 132.965 17.0543C132.981 17.3026 132.993 17.4813 133.001 17.5903C133.007 17.6751 133.018 17.796 133.035 17.9531C133.051 18.1041 133.074 18.2607 133.103 18.423C133.132 18.5853 133.154 18.7298 133.169 18.8566L131.752 18.9526C131.763 18.7692 131.77 18.5558 131.772 18.3124C131.774 18.0689 131.769 17.8563 131.756 17.6746ZM132.46 13.6479C132.768 13.7062 133.114 13.7861 133.498 13.8879C133.882 13.9836 134.269 14.0881 134.66 14.2016C135.051 14.315 135.418 14.4301 135.761 14.5469C136.109 14.6571 136.399 14.7622 136.631 14.8621L136.198 16.1508C135.934 16.0348 135.644 15.9206 135.326 15.8083C135.008 15.69 134.684 15.5781 134.354 15.4726C134.031 15.3668 133.711 15.2698 133.394 15.1817C133.084 15.0932 132.802 15.015 132.548 14.947L132.46 13.6479ZM139.874 11.0011C140.002 11.0106 140.154 11.0125 140.33 11.0066C140.506 11.0008 140.67 10.9928 140.821 10.9825C140.937 10.9747 141.112 10.9628 141.348 10.9468C141.591 10.9304 141.857 10.9123 142.148 10.8927C142.445 10.8725 142.738 10.8527 143.029 10.833C143.32 10.8133 143.58 10.7956 143.81 10.78C144.04 10.7644 144.21 10.753 144.319 10.7456C144.458 10.7361 144.625 10.7218 144.818 10.7026C145.011 10.6835 145.171 10.6605 145.297 10.6337L145.376 11.8056C145.254 11.8017 145.097 11.8063 144.903 11.8194C144.715 11.8261 144.539 11.8349 144.375 11.846C144.278 11.8526 144.112 11.8639 143.876 11.8799C143.645 11.8955 143.382 11.9133 143.085 11.9334C142.795 11.9531 142.501 11.973 142.204 11.9931C141.913 12.0128 141.65 12.0306 141.414 12.0466C141.178 12.0626 141.005 12.0743 140.896 12.0817C140.751 12.0916 140.59 12.1055 140.415 12.1234C140.246 12.141 140.092 12.1575 139.953 12.173L139.874 11.0011ZM146.239 13.2165C146.212 13.2791 146.184 13.348 146.152 13.4231C146.127 13.4978 146.107 13.56 146.092 13.6097C145.982 14.0552 145.836 14.5032 145.654 14.9536C145.477 15.3975 145.231 15.8187 144.918 16.2172C144.498 16.7567 144.017 17.206 143.476 17.5651C142.934 17.9182 142.378 18.1962 141.808 18.3991L140.839 17.4335C141.513 17.2418 142.107 16.9886 142.622 16.6739C143.136 16.3592 143.553 16.0115 143.874 15.6308C144.1 15.3661 144.276 15.0925 144.403 14.8102C144.535 14.5213 144.635 14.2499 144.703 13.9958C144.637 14.0003 144.522 14.0081 144.358 14.0192C144.195 14.0303 143.998 14.0436 143.768 14.0592C143.544 14.0744 143.301 14.0908 143.041 14.1084C142.781 14.1261 142.514 14.1441 142.242 14.1626C141.969 14.181 141.709 14.1987 141.46 14.2155C141.212 14.2323 140.988 14.2475 140.788 14.261C140.594 14.2742 140.437 14.2848 140.316 14.293C140.207 14.3004 140.052 14.3139 139.853 14.3335C139.653 14.3531 139.457 14.3786 139.265 14.4099L139.185 13.2289C139.38 13.2279 139.568 13.2273 139.751 13.2271C139.939 13.2265 140.103 13.2214 140.242 13.212C140.333 13.2058 140.47 13.1966 140.651 13.1843C140.839 13.1716 141.054 13.157 141.296 13.1406C141.538 13.1242 141.796 13.1068 142.068 13.0883C142.347 13.0694 142.623 13.0508 142.895 13.0323C143.174 13.0134 143.437 12.9956 143.685 12.9788C143.934 12.9619 144.149 12.9474 144.33 12.9351C144.512 12.9228 144.648 12.9135 144.739 12.9074C144.885 12.8975 145.014 12.8796 145.128 12.8537C145.248 12.8273 145.337 12.7999 145.396 12.7716L146.239 13.2165ZM151.899 11.7653C151.948 11.8593 152.012 11.9949 152.091 12.1721C152.175 12.3428 152.264 12.5284 152.357 12.729C152.449 12.9235 152.531 13.1096 152.604 13.2872C152.677 13.4648 152.735 13.6038 152.779 13.7043L151.714 14.1597C151.682 14.0463 151.63 13.9038 151.558 13.7323C151.485 13.5607 151.406 13.3805 151.32 13.1917C151.234 12.9967 151.148 12.8109 151.063 12.6341C150.978 12.4573 150.904 12.3102 150.842 12.1928L151.899 11.7653ZM155.296 12.2014C155.257 12.35 155.223 12.477 155.194 12.5824C155.171 12.6874 155.147 12.7864 155.123 12.8793C155.039 13.3474 154.913 13.8183 154.744 14.2921C154.575 14.7599 154.349 15.2041 154.068 15.6247C153.681 16.1985 153.231 16.6944 152.717 17.1125C152.21 17.5241 151.696 17.8479 151.177 18.0838L150.157 17.1764C150.484 17.063 150.826 16.906 151.184 16.7053C151.541 16.4986 151.884 16.2564 152.212 15.9786C152.54 15.7009 152.817 15.3991 153.045 15.0734C153.233 14.7991 153.395 14.49 153.529 14.1462C153.67 13.796 153.779 13.4266 153.856 13.0381C153.939 12.6431 153.985 12.2567 153.996 11.8787L155.296 12.2014ZM149.824 12.3895C149.892 12.5005 149.969 12.6444 150.054 12.8211C150.145 12.9975 150.237 13.1829 150.329 13.3774C150.421 13.572 150.51 13.7606 150.595 13.9435C150.687 14.1259 150.758 14.2792 150.809 14.4035L149.729 14.8965C149.684 14.7778 149.619 14.6241 149.533 14.4352C149.454 14.2459 149.364 14.0481 149.265 13.8419C149.166 13.6296 149.07 13.4353 148.979 13.259C148.894 13.0822 148.821 12.9472 148.76 12.854L149.824 12.3895ZM163.886 9.68467C163.896 9.83002 163.956 9.95069 164.066 10.0467C164.176 10.1366 164.3 10.1768 164.439 10.1674C164.585 10.1576 164.706 10.1007 164.802 9.99682C164.898 9.88689 164.941 9.75925 164.931 9.6139C164.921 9.46855 164.861 9.34788 164.752 9.2519C164.642 9.15591 164.514 9.11285 164.369 9.12269C164.229 9.13213 164.112 9.19181 164.016 9.30174C163.92 9.41168 163.877 9.53932 163.886 9.68467ZM163.323 9.72282C163.31 9.52297 163.346 9.33799 163.432 9.16791C163.523 8.99136 163.647 8.8491 163.804 8.74112C163.961 8.63314 164.137 8.57259 164.33 8.55946C164.53 8.54592 164.715 8.58206 164.885 8.66788C165.062 8.7533 165.204 8.87751 165.312 9.04052C165.42 9.19748 165.481 9.37588 165.494 9.57574C165.508 9.76954 165.471 9.95148 165.385 10.1216C165.3 10.2917 165.175 10.4339 165.013 10.5484C164.856 10.6563 164.677 10.7171 164.478 10.7306C164.284 10.7438 164.102 10.7074 163.932 10.6216C163.761 10.5297 163.619 10.4055 163.505 10.249C163.397 10.092 163.336 9.91662 163.323 9.72282ZM164.471 10.366C164.434 10.4537 164.405 10.5591 164.383 10.6823C164.361 10.7994 164.337 10.9074 164.314 11.0064C164.28 11.2338 164.234 11.4894 164.174 11.7733C164.114 12.0512 164.039 12.3422 163.95 12.6463C163.861 12.9505 163.751 13.253 163.619 13.554C163.494 13.8545 163.346 14.1384 163.175 14.4054C162.927 14.7873 162.632 15.148 162.29 15.4875C161.948 15.8271 161.562 16.1392 161.131 16.4239C160.7 16.7086 160.221 16.9571 159.694 17.1692L158.63 16.1462C159.225 15.9598 159.734 15.7458 160.156 15.5043C160.577 15.2628 160.94 14.9949 161.242 14.7007C161.551 14.406 161.819 14.0958 162.046 13.7701C162.229 13.5022 162.38 13.2151 162.499 12.9089C162.624 12.6023 162.722 12.2976 162.793 11.9947C162.869 11.6853 162.917 11.3992 162.935 11.1363C162.844 11.1424 162.693 11.1527 162.481 11.167C162.275 11.181 162.03 11.1976 161.745 11.2169C161.467 11.2358 161.173 11.2557 160.864 11.2766C160.561 11.2971 160.268 11.317 159.983 11.3363C159.698 11.3556 159.441 11.373 159.211 11.3886C158.987 11.4038 158.82 11.4151 158.711 11.4224C158.499 11.4368 158.293 11.4538 158.094 11.4734C157.901 11.4926 157.747 11.5121 157.632 11.532L157.546 10.2511C157.637 10.2571 157.747 10.2618 157.875 10.2653C158.009 10.2684 158.143 10.2684 158.277 10.2655C158.416 10.2621 158.535 10.2571 158.632 10.2505C158.729 10.244 158.865 10.2347 159.04 10.2229C159.222 10.2105 159.431 10.1964 159.667 10.1804C159.904 10.1644 160.149 10.1478 160.403 10.1305C160.664 10.1129 160.921 10.0955 161.175 10.0782C161.436 10.0606 161.678 10.0442 161.902 10.029C162.126 10.0138 162.32 10.0007 162.483 9.98961C162.647 9.97854 162.765 9.97054 162.838 9.96561C162.929 9.95946 163.037 9.94904 163.164 9.93437C163.297 9.91929 163.423 9.88948 163.541 9.84493L164.471 10.366ZM172.914 11.7288C172.952 12.2921 172.944 12.8067 172.891 13.2727C172.843 13.7323 172.731 14.1566 172.557 14.5456C172.382 14.9286 172.126 15.2805 171.789 15.6015C171.452 15.9225 171.019 16.2225 170.49 16.5017L169.456 15.65C169.882 15.4691 170.246 15.2741 170.548 15.065C170.856 14.8555 171.104 14.6075 171.292 14.321C171.479 14.0285 171.607 13.6851 171.678 13.291C171.754 12.8903 171.774 12.4114 171.736 11.8543L171.572 9.4378C171.56 9.25005 171.542 9.08694 171.521 8.94847C171.499 8.80394 171.479 8.68666 171.46 8.59664L172.76 8.50863C172.754 8.6003 172.746 8.71942 172.738 8.86601C172.735 9.00612 172.74 9.17005 172.753 9.3578L172.914 11.7288ZM169.422 8.81686C169.416 8.90247 169.411 9.01836 169.409 9.16453C169.406 9.30465 169.411 9.46252 169.423 9.63816L169.643 12.8904C169.652 13.0236 169.664 13.1536 169.679 13.2804C169.693 13.4011 169.703 13.5099 169.71 13.6068C169.722 13.6973 169.734 13.7756 169.744 13.8418L168.472 13.9279C168.48 13.8605 168.484 13.7812 168.484 13.6899C168.483 13.5926 168.482 13.4832 168.48 13.3616C168.477 13.234 168.471 13.1036 168.462 12.9704L168.242 9.71816C168.233 9.58492 168.218 9.44906 168.196 9.31059C168.181 9.17171 168.159 9.03626 168.132 8.90425L169.422 8.81686ZM166.535 10.6551C166.596 10.6571 166.675 10.6639 166.774 10.6755C166.871 10.681 166.984 10.6856 167.112 10.6891C167.24 10.6865 167.379 10.6801 167.531 10.6698L173.49 10.2661C173.732 10.2497 173.929 10.2303 174.079 10.208C174.23 10.1856 174.365 10.1612 174.485 10.1348L174.567 11.3431C174.469 11.3375 174.339 11.3403 174.175 11.3514C174.011 11.3564 173.808 11.3671 173.566 11.3835L167.606 11.7872C167.455 11.7975 167.316 11.8099 167.189 11.8246C167.068 11.8328 166.959 11.8432 166.863 11.8558C166.772 11.8681 166.691 11.8796 166.619 11.8906L166.535 10.6551ZM177.469 8.51812C177.634 8.61647 177.828 8.7372 178.051 8.8803C178.273 9.0234 178.503 9.18124 178.74 9.3538C178.982 9.5199 179.209 9.684 179.421 9.84609C179.633 10.0082 179.807 10.1546 179.944 10.2853L179.081 11.2928C178.957 11.1734 178.796 11.0323 178.596 10.8694C178.396 10.7064 178.181 10.5385 177.95 10.3655C177.72 10.1925 177.493 10.0284 177.269 9.87323C177.046 9.71801 176.848 9.58841 176.677 9.48442L177.469 8.51812ZM176.744 14.6453C177.211 14.5467 177.65 14.4226 178.06 14.2732C178.47 14.1238 178.848 13.9582 179.194 13.7765C179.541 13.5949 179.857 13.4092 180.142 13.2195C180.636 12.8758 181.085 12.4925 181.488 12.0697C181.891 11.6469 182.239 11.2127 182.531 10.767C182.823 10.3153 183.049 9.88016 183.21 9.46167L184.005 10.6946C183.802 11.1159 183.545 11.541 183.234 11.9697C182.928 12.3981 182.576 12.8113 182.177 13.2095C181.777 13.6016 181.342 13.9596 180.871 14.2835C180.575 14.4922 180.254 14.6934 179.908 14.8872C179.562 15.0749 179.194 15.2459 178.802 15.4002C178.418 15.5601 178.013 15.6909 177.588 15.7927L176.744 14.6453ZM191.676 6.99902C191.762 7.09664 191.852 7.22131 191.948 7.37303C192.049 7.51829 192.147 7.66374 192.242 7.80941C192.337 7.95507 192.416 8.08359 192.478 8.19497L191.772 8.55307C191.669 8.37148 191.542 8.1671 191.393 7.93993C191.25 7.7063 191.111 7.50576 190.978 7.33834L191.676 6.99902ZM192.72 6.50852C192.806 6.61825 192.9 6.74878 193.002 6.90008C193.109 7.04493 193.21 7.19018 193.305 7.33584C193.406 7.47504 193.484 7.59448 193.539 7.69415L192.843 8.06072C192.733 7.87349 192.604 7.66628 192.454 7.43911C192.305 7.21195 192.161 7.01788 192.022 6.85692L192.72 6.50852ZM188.51 10.6449C188.8 10.7896 189.118 10.9596 189.466 11.1551C189.814 11.3445 190.162 11.543 190.51 11.7506C190.865 11.9577 191.198 12.1603 191.51 12.3582C191.827 12.5496 192.098 12.726 192.321 12.8873L191.519 13.9729C191.306 13.7987 191.044 13.6035 190.731 13.3875C190.424 13.171 190.093 12.95 189.737 12.7247C189.38 12.4933 189.031 12.2736 188.688 12.0656C188.346 11.8577 188.035 11.6779 187.757 11.5264L188.51 10.6449ZM192.675 8.81133C192.632 8.8994 192.588 9.00585 192.542 9.13067C192.495 9.24943 192.454 9.36778 192.42 9.48572C192.348 9.77046 192.244 10.0877 192.11 10.4376C191.981 10.787 191.823 11.1475 191.636 11.5192C191.448 11.8909 191.229 12.2555 190.98 12.6131C190.591 13.1688 190.111 13.7093 189.538 14.2349C188.965 14.7543 188.256 15.21 187.413 15.6017L186.297 14.7556C186.913 14.5131 187.446 14.2458 187.895 13.9538C188.343 13.6557 188.729 13.3436 189.054 13.0174C189.379 12.6912 189.658 12.368 189.892 12.048C190.081 11.7918 190.257 11.5122 190.419 11.2092C190.581 10.9001 190.718 10.5957 190.832 10.296C190.951 9.99586 191.031 9.72887 191.07 9.49504L187.999 9.70305L188.347 8.63911L190.936 8.46372C191.075 8.45429 191.214 8.43577 191.352 8.40816C191.496 8.38015 191.618 8.34448 191.719 8.30117L192.675 8.81133ZM189.583 7.6245C189.485 7.78935 189.387 7.96631 189.29 8.15538C189.2 8.34404 189.13 8.48867 189.083 8.58927C188.907 8.96013 188.673 9.36234 188.379 9.79591C188.092 10.2291 187.765 10.6528 187.398 11.0671C187.036 11.4809 186.648 11.854 186.232 12.1864L185.2 11.4898C185.71 11.1266 186.138 10.7508 186.483 10.3624C186.834 9.96756 187.121 9.59214 187.347 9.23617C187.578 8.87373 187.76 8.55414 187.893 8.27741C187.959 8.16347 188.024 8.01299 188.091 7.82597C188.163 7.63248 188.212 7.4588 188.238 7.30493L189.583 7.6245ZM199.017 13.7935C199.03 13.7014 199.038 13.5974 199.042 13.4815C199.052 13.3592 199.053 13.2374 199.045 13.1163C199.04 13.0497 199.031 12.9164 199.018 12.7166C199.004 12.5167 198.988 12.2745 198.968 11.9898C198.949 11.7052 198.928 11.3993 198.906 11.0723C198.884 10.7392 198.861 10.4031 198.838 10.0639C198.815 9.72477 198.793 9.40682 198.773 9.11006C198.753 8.80725 198.735 8.5438 198.72 8.31971C198.704 8.08958 198.693 7.92303 198.686 7.82007C198.672 7.61416 198.648 7.43632 198.613 7.28655C198.585 7.13637 198.567 7.05543 198.56 7.04373L199.914 6.95204C199.909 6.96456 199.902 7.05017 199.895 7.20886C199.887 7.3615 199.89 7.54078 199.904 7.74669C199.911 7.84965 199.921 8.00408 199.935 8.21C199.949 8.40985 199.964 8.64302 199.983 8.9095C200 9.16992 200.019 9.44851 200.039 9.74527C200.059 10.042 200.079 10.3358 200.099 10.6265C200.118 10.9111 200.137 11.1836 200.154 11.4441C200.171 11.6984 200.186 11.9164 200.199 12.0981C200.211 12.2798 200.22 12.4131 200.226 12.4978C200.467 12.372 200.714 12.2062 200.968 12.0004C201.221 11.7946 201.467 11.5589 201.705 11.2934C201.948 11.0214 202.159 10.7333 202.34 10.429L203.107 11.3809C202.881 11.7248 202.6 12.0663 202.264 12.4054C201.934 12.7441 201.59 13.0564 201.232 13.3423C200.874 13.6281 200.529 13.8706 200.195 14.0696C200.102 14.1307 200.027 14.1845 199.969 14.231C199.912 14.2835 199.863 14.3294 199.823 14.3686L199.017 13.7935ZM194.802 13.9421C195.183 13.6365 195.487 13.2782 195.715 12.8673C195.943 12.4564 196.104 12.0561 196.199 11.6663C196.253 11.462 196.284 11.2134 196.295 10.9206C196.311 10.6214 196.317 10.3047 196.313 9.97033C196.308 9.62995 196.294 9.29623 196.272 8.96919C196.256 8.63569 196.238 8.32964 196.219 8.05105C196.207 7.86936 196.187 7.71554 196.161 7.58959C196.139 7.45717 196.113 7.33425 196.081 7.22082L197.416 7.13036C197.411 7.14288 197.405 7.19497 197.399 7.28664C197.399 7.37184 197.397 7.47541 197.393 7.59736C197.395 7.71284 197.4 7.83417 197.409 7.96135C197.427 8.22783 197.445 8.53993 197.463 8.89766C197.481 9.24934 197.493 9.61051 197.5 9.98117C197.507 10.3518 197.503 10.7049 197.489 11.0405C197.475 11.37 197.446 11.6519 197.401 11.8861C197.296 12.4103 197.12 12.9029 196.871 13.3639C196.628 13.8184 196.325 14.2314 195.96 14.6029L194.802 13.9421Z" fill="#61BDD1"/>
</svg>
