<svg width="173" height="25" viewBox="0 0 173 25" fill="none" xmlns="http://www.w3.org/2000/svg">
<rect width="172.01" height="19.5048" transform="translate(0 4.8699) rotate(-1.62236)" fill="white"/>
<path d="M13.6256 10.363C13.7076 10.4699 13.7963 10.598 13.8916 10.7471C13.9869 10.8962 14.0761 11.0455 14.1593 11.195C14.2485 11.3443 14.3251 11.4757 14.3891 11.5892L13.6606 11.9196C13.5643 11.7341 13.446 11.5249 13.3058 11.292C13.1715 11.0529 13.0412 10.8471 12.9149 10.6746L13.6256 10.363ZM14.688 9.92296C14.7762 10.0358 14.868 10.1668 14.9633 10.316C15.0586 10.4651 15.1509 10.6143 15.2401 10.7636C15.3353 10.9066 15.4087 11.0321 15.4603 11.1399L14.75 11.4697C14.6475 11.2783 14.5261 11.0662 14.3859 10.8333C14.2457 10.6004 14.1095 10.4009 13.9772 10.2346L14.688 9.92296ZM9.71393 10.8654C9.69361 11.0057 9.67996 11.167 9.67298 11.3494C9.666 11.5317 9.66431 11.6866 9.66792 11.8141C9.6705 11.9051 9.67506 12.0659 9.68159 12.2964C9.68795 12.5209 9.69551 12.7879 9.70427 13.0974C9.71304 13.4068 9.72223 13.7315 9.73185 14.0713C9.74131 14.405 9.7505 14.7296 9.75944 15.0451C9.7682 15.3546 9.77602 15.6307 9.7829 15.8734C9.78977 16.1161 9.79484 16.2951 9.79811 16.4104C9.80361 16.6045 9.85593 16.7366 9.95507 16.8067C10.0542 16.8768 10.2045 16.9302 10.406 16.967C10.546 16.9813 10.7072 16.9919 10.8896 16.9989C11.0718 16.9998 11.263 16.9974 11.4633 16.9917C11.6999 16.985 11.9607 16.9716 12.2455 16.9513C12.5362 16.9249 12.8269 16.8954 13.1175 16.8629C13.4141 16.8302 13.6923 16.7889 13.952 16.7391C14.2117 16.6892 14.4349 16.6373 14.6216 16.5835L14.6593 17.9123C14.3753 17.9628 14.0455 18.0056 13.67 18.0405C13.2947 18.0815 12.91 18.1136 12.5159 18.137C12.1281 18.1662 11.7643 18.1856 11.4245 18.1952C11.1272 18.2036 10.8448 18.2025 10.5773 18.1919C10.3158 18.181 10.0876 18.1632 9.89259 18.1384C9.49596 18.0707 9.18532 17.9307 8.9607 17.7184C8.7359 17.5001 8.618 17.1968 8.60701 16.8085C8.60202 16.6325 8.59558 16.405 8.58767 16.1258C8.57959 15.8407 8.57074 15.5282 8.56112 15.1884C8.55132 14.8425 8.54153 14.4966 8.53173 14.1508C8.52176 13.7989 8.5124 13.4682 8.50363 13.1587C8.4947 12.8432 8.48696 12.5701 8.48043 12.3396C8.4739 12.109 8.46926 11.9452 8.46651 11.8481C8.46462 11.7813 8.45901 11.6904 8.44968 11.5753C8.44034 11.4602 8.42789 11.3421 8.41232 11.2211C8.40281 11.0999 8.38767 10.9941 8.36689 10.9036L9.71393 10.8654ZM9.19236 13.6766C9.48189 13.6077 9.78929 13.5261 10.1145 13.4319C10.4396 13.3316 10.7676 13.2252 11.0984 13.1125C11.4292 12.9999 11.7418 12.8879 12.0362 12.7763C12.3365 12.6585 12.6035 12.5446 12.8372 12.4348C12.9993 12.3695 13.1581 12.2951 13.3136 12.2118C13.4752 12.1283 13.6425 12.0294 13.8153 11.9152L14.3396 13.0572C14.1655 13.1289 13.9826 13.21 13.7908 13.3004C13.6049 13.3847 13.4369 13.4562 13.2868 13.5151C13.0227 13.6258 12.7194 13.7437 12.3768 13.8688C12.0403 13.9937 11.6886 14.1191 11.3217 14.2448C10.9547 14.3645 10.5905 14.4781 10.2292 14.5855C9.87394 14.6927 9.54262 14.7871 9.23523 14.8687L9.19236 13.6766ZM22.9383 10.4818C23.0269 10.6068 23.1221 10.7529 23.224 10.92C23.3318 11.0809 23.4366 11.2449 23.5385 11.4121C23.6402 11.5732 23.7296 11.7255 23.8065 11.8691L23.0242 12.2282C22.9277 12.0366 22.8378 11.8661 22.7547 11.7167C22.6713 11.5611 22.5821 11.4118 22.4869 11.2688C22.3977 11.1195 22.2963 10.9706 22.1828 10.822L22.9383 10.4818ZM24.1728 10.0096C24.2732 10.1221 24.3773 10.2588 24.4851 10.4197C24.5928 10.5806 24.6976 10.7416 24.7993 10.9027C24.9011 11.0638 24.9902 11.21 25.0668 11.3415L24.303 11.7092C24.2006 11.5239 24.1017 11.3567 24.0064 11.2075C23.9171 11.0583 23.825 10.9151 23.7301 10.7781C23.6351 10.6412 23.5278 10.4985 23.4082 10.35L24.1728 10.0096ZM18.9742 10.421C19.1281 10.4956 19.3008 10.5878 19.4921 10.6978C19.6835 10.8077 19.8781 10.9237 20.0759 11.0456C20.2735 11.1615 20.4619 11.2745 20.6411 11.3848C20.8202 11.4891 20.9685 11.582 21.0862 11.6637L20.4411 12.684C20.3112 12.6026 20.1567 12.5068 19.9775 12.3965C19.8043 12.286 19.6189 12.1729 19.4213 12.057C19.2298 11.941 19.0384 11.831 18.8472 11.7271C18.6619 11.617 18.4953 11.5215 18.3472 11.4407L18.9742 10.421ZM17.4734 16.9308C17.8115 16.8605 18.1552 16.7749 18.5046 16.6739C18.8539 16.5729 19.1997 16.4538 19.542 16.3166C19.8841 16.1733 20.2163 16.006 20.5388 15.8147C21.0464 15.5088 21.5164 15.1676 21.9491 14.791C22.3878 14.4142 22.7804 14.0175 23.1268 13.6008C23.4731 13.178 23.7584 12.7449 23.9827 12.3013L24.7186 13.5193C24.3178 14.1622 23.8129 14.7746 23.2039 15.3566C22.6008 15.9324 21.9322 16.4462 21.1981 16.8982C20.8934 17.0768 20.5583 17.2503 20.1926 17.4185C19.8268 17.5807 19.4664 17.7215 19.1115 17.8408C18.7627 17.96 18.4554 18.0477 18.1898 18.1038L17.4734 16.9308ZM17.6313 12.5358C17.7853 12.6104 17.9609 12.7026 18.1584 12.8124C18.3558 12.9222 18.5533 13.035 18.7509 13.1509C18.9484 13.2606 19.1337 13.3708 19.3068 13.4812C19.4859 13.5855 19.6343 13.6784 19.7519 13.7601L19.1164 14.7983C18.9803 14.7111 18.8227 14.6123 18.6435 14.502C18.4703 14.3915 18.2849 14.2784 18.0873 14.1625C17.8958 14.0465 17.7044 13.9365 17.5132 13.8326C17.3279 13.7225 17.1583 13.6302 17.0044 13.5556L17.6313 12.5358ZM32.012 12.8755C31.9894 12.9368 31.9731 13.0041 31.963 13.0772C31.9529 13.1504 31.9425 13.2114 31.9318 13.2603C31.9172 13.3882 31.8949 13.565 31.8648 13.7905C31.8408 14.0159 31.8115 14.2657 31.7767 14.5399C31.7479 14.808 31.7161 15.0791 31.6813 15.3533C31.6466 15.6276 31.6142 15.8775 31.5842 16.103C31.5602 16.3284 31.5379 16.5082 31.5175 16.6423L30.2705 16.6776C30.2912 16.5495 30.3139 16.388 30.3388 16.1929C30.3635 15.9918 30.3907 15.7755 30.4206 15.5439C30.4564 15.306 30.4861 15.0684 30.5097 14.8309C30.5394 14.5932 30.5636 14.3739 30.5822 14.173C30.6008 13.9721 30.6114 13.8108 30.614 13.6893C30.5291 13.6917 30.3986 13.6954 30.2226 13.7004C30.0528 13.7052 29.8586 13.7107 29.6401 13.7169C29.4278 13.7229 29.2154 13.7289 29.003 13.7349C28.7967 13.7408 28.6177 13.7458 28.466 13.7501C28.3143 13.7544 28.2112 13.7574 28.1566 13.7589C28.011 13.763 27.8534 13.7736 27.6838 13.7905C27.5202 13.8012 27.3748 13.8145 27.2477 13.8302L27.2137 12.6288C27.2929 12.6387 27.3872 12.6451 27.4966 12.6481C27.606 12.6511 27.7154 12.654 27.8248 12.657C27.9402 12.6598 28.0374 12.6601 28.1163 12.6579C28.2073 12.6553 28.3317 12.6518 28.4895 12.6473C28.6472 12.6428 28.8201 12.6379 29.0082 12.6326C29.1963 12.6273 29.3844 12.622 29.5725 12.6166C29.7606 12.6113 29.9305 12.6065 30.0822 12.6022C30.24 12.5977 30.3614 12.5943 30.4463 12.5919C30.513 12.59 30.5918 12.5847 30.6827 12.5761C30.7735 12.5674 30.8613 12.5558 30.9459 12.5413C31.0303 12.5207 31.0873 12.4978 31.117 12.4727L32.012 12.8755ZM26.4807 16.3387C26.6024 16.3474 26.7423 16.3555 26.9004 16.3632C27.0644 16.3646 27.2253 16.3631 27.3831 16.3586C27.4741 16.3561 27.641 16.3513 27.8837 16.3445C28.1325 16.3374 28.4237 16.3292 28.7574 16.3197C29.0972 16.3101 29.4461 16.3002 29.8041 16.2901C30.1682 16.2798 30.514 16.27 30.8417 16.2607C31.1754 16.2512 31.4606 16.2432 31.6972 16.2364C31.9339 16.2297 32.0856 16.2254 32.1523 16.2236C32.2676 16.2203 32.4162 16.213 32.598 16.2018C32.7799 16.1906 32.9283 16.1773 33.0433 16.1619L33.0765 17.336C33.0157 17.3316 32.9305 17.328 32.8211 17.325C32.718 17.3279 32.6087 17.328 32.4932 17.3252C32.384 17.3283 32.2869 17.331 32.202 17.3334C32.1292 17.3355 31.9714 17.34 31.7287 17.3468C31.486 17.3537 31.1978 17.3619 30.864 17.3713C30.5303 17.3808 30.1784 17.3908 29.8083 17.4012C29.4442 17.4115 29.0923 17.4215 28.7525 17.4311C28.4187 17.4406 28.1305 17.4488 27.8878 17.4556C27.6451 17.4625 27.4874 17.467 27.4145 17.469C27.2568 17.4735 27.1112 17.4776 26.9777 17.4814C26.8443 17.4913 26.6899 17.5047 26.5143 17.5219L26.4807 16.3387ZM35.3194 12.9093C35.4288 12.9123 35.5687 12.9174 35.7389 12.9248C35.909 12.926 36.0851 12.9271 36.2673 12.928C36.4556 12.9287 36.6286 12.9269 36.7864 12.9224C36.938 12.9181 37.1261 12.9128 37.3507 12.9064C37.5752 12.9001 37.8179 12.8932 38.0788 12.8858C38.3458 12.8782 38.6188 12.8705 38.8979 12.8626C39.1831 12.8545 39.4653 12.8465 39.7444 12.8386C40.0235 12.8307 40.2874 12.8232 40.5362 12.8162C40.785 12.8092 41.0065 12.8029 41.2006 12.7974C41.4009 12.7917 41.5586 12.7872 41.6739 12.784C41.8863 12.778 42.0863 12.7662 42.2741 12.7488C42.4617 12.7252 42.6161 12.7087 42.7373 12.6992L42.7777 14.1282C42.6744 14.125 42.5194 14.1203 42.3128 14.114C42.1061 14.1077 41.9057 14.1073 41.7116 14.1128C41.5963 14.1161 41.4385 14.1205 41.2383 14.1262C41.038 14.1319 40.8135 14.1382 40.5647 14.1453C40.316 14.1523 40.052 14.1598 39.7729 14.1677C39.4999 14.1755 39.2207 14.1834 38.9356 14.1914C38.6504 14.1995 38.3743 14.2073 38.1073 14.2149C37.8464 14.2223 37.6037 14.2292 37.3792 14.2355C37.1607 14.2417 36.9757 14.2469 36.824 14.2512C36.5631 14.2586 36.2963 14.2723 36.0236 14.2921C35.7507 14.3059 35.5295 14.3213 35.3599 14.3383L35.3194 12.9093ZM47.9155 9.63769C47.8945 9.75367 47.8708 9.88186 47.8444 10.0223C47.8178 10.1566 47.7941 10.2818 47.7731 10.3978C47.7526 10.5319 47.7265 10.6845 47.6949 10.8554C47.6632 11.0203 47.6315 11.1882 47.5999 11.3591C47.5742 11.5238 47.5454 11.6855 47.5134 11.8443C47.4601 12.107 47.3929 12.4125 47.3117 12.7609C47.2305 13.1094 47.1348 13.4855 47.0248 13.8895C46.9146 14.2873 46.7894 14.6886 46.649 15.0934C46.5087 15.4981 46.359 15.8941 46.1999 16.2811C46.0406 16.6621 45.8682 17.0071 45.6827 17.316L44.4861 16.8762C44.6903 16.585 44.8785 16.2609 45.0506 15.9038C45.2285 15.5405 45.3881 15.1716 45.5293 14.7972C45.6704 14.4167 45.7934 14.0427 45.8984 13.6754C46.0092 13.3018 46.1027 12.9561 46.1787 12.6382C46.2608 12.3201 46.3229 12.0481 46.3651 11.8222C46.4383 11.4072 46.4938 11.0079 46.5315 10.6242C46.5693 10.2406 46.5772 9.87903 46.5555 9.53958L47.9155 9.63769ZM51.0725 10.4683C51.2238 10.6644 51.3794 10.9059 51.5393 11.1929C51.7052 11.4736 51.8685 11.7726 52.0293 12.0899C52.1901 12.4072 52.3354 12.7128 52.4652 13.0067C52.5949 13.3005 52.6963 13.5557 52.7692 13.7723L51.6283 14.3329C51.5664 14.0796 51.4765 13.7998 51.3586 13.4934C51.2466 13.1869 51.1164 12.8779 50.9679 12.5663C50.8193 12.2487 50.662 11.9495 50.4962 11.6688C50.3364 11.3879 50.1719 11.1527 50.0025 10.9631L51.0725 10.4683ZM44.2731 11.6082C44.4373 11.6157 44.5982 11.6172 44.756 11.6127C44.9196 11.602 45.0833 11.5913 45.247 11.5806C45.3985 11.5702 45.5802 11.556 45.7923 11.5378C46.0041 11.5136 46.2281 11.489 46.4642 11.4641C46.7064 11.4391 46.9486 11.414 47.1908 11.3889C47.4329 11.3578 47.6568 11.3332 47.8628 11.3152C48.0688 11.2972 48.2385 11.2864 48.372 11.2826C48.6996 11.2733 48.9864 11.3198 49.2322 11.4222C49.4778 11.5185 49.674 11.692 49.8208 11.9429C49.9736 12.1937 50.0562 12.5375 50.0686 12.9743C50.0787 13.3323 50.0746 13.7211 50.0561 14.1406C50.0376 14.5602 49.9943 14.9622 49.9263 15.3467C49.8643 15.731 49.7703 16.0586 49.6444 16.3293C49.5077 16.649 49.3137 16.8731 49.0623 17.0016C48.8169 17.13 48.5213 17.1991 48.1755 17.2089C48.0056 17.2138 47.8201 17.2038 47.619 17.1792C47.4181 17.1606 47.2383 17.1383 47.0797 17.1125L46.8545 15.9165C46.9707 15.9435 47.0989 15.9703 47.2394 15.9966C47.3858 16.0229 47.5231 16.0433 47.651 16.0579C47.785 16.0723 47.8914 16.0784 47.9703 16.0761C48.122 16.0718 48.2547 16.0408 48.3685 15.9829C48.482 15.9189 48.5732 15.8131 48.6419 15.6654C48.7218 15.4871 48.7852 15.2575 48.8319 14.9769C48.8786 14.6962 48.9095 14.3948 48.9247 14.0725C48.9457 13.744 48.952 13.431 48.9436 13.1337C48.9367 12.891 48.8953 12.713 48.8192 12.5998C48.7492 12.4864 48.6469 12.4134 48.5124 12.3808C48.3838 12.3419 48.2254 12.3252 48.0373 12.3305C47.8977 12.3344 47.71 12.3519 47.474 12.3829C47.2379 12.4078 46.9837 12.4393 46.7116 12.4773C46.4453 12.5092 46.1973 12.5435 45.9675 12.5804C45.7378 12.6173 45.5594 12.6436 45.4324 12.6593C45.2996 12.6874 45.1304 12.7195 44.925 12.7557C44.7254 12.7856 44.5562 12.8147 44.4174 12.8429L44.2731 11.6082ZM50.8728 9.2078C50.9548 9.31478 51.0404 9.44292 51.1296 9.5922C51.225 9.74132 51.3172 9.89052 51.4065 10.0398C51.4957 10.1891 51.5723 10.3205 51.6363 10.4341L50.9081 10.7735C50.8438 10.6478 50.77 10.5102 50.6869 10.3608C50.6037 10.2113 50.5175 10.062 50.4282 9.91266C50.339 9.76338 50.2503 9.63533 50.1623 9.52851L50.8728 9.2078ZM51.9443 8.76755C52.0265 8.8806 52.1152 9.01168 52.2105 9.1608C52.3058 9.30991 52.3981 9.45912 52.4873 9.6084C52.5826 9.75752 52.656 9.88297 52.7075 9.98474L51.9972 10.3146C51.8948 10.1292 51.7735 9.92011 51.6333 9.68725C51.493 9.44832 51.3567 9.24571 51.2244 9.07942L51.9443 8.76755ZM60.2112 9.59004C60.2151 9.72959 60.267 9.84654 60.3668 9.94087C60.4665 10.0291 60.5861 10.0713 60.7257 10.0673C60.8592 10.0636 60.9732 10.0148 61.0677 9.92102C61.162 9.82119 61.2072 9.7015 61.2032 9.56194C61.1995 9.42845 61.1476 9.31454 61.0478 9.2202C60.948 9.12587 60.8313 9.08059 60.6978 9.08437C60.5583 9.08832 60.4413 9.14022 60.347 9.24005C60.2527 9.33988 60.2074 9.45655 60.2112 9.59004ZM59.656 9.60576C59.6505 9.41159 59.691 9.23434 59.7775 9.074C59.8702 8.91349 59.994 8.78246 60.149 8.68091C60.3101 8.57918 60.4877 8.52557 60.6818 8.52007C60.876 8.51457 61.0534 8.55813 61.2139 8.65075C61.3744 8.74336 61.5024 8.86726 61.5979 9.02244C61.6994 9.17746 61.7529 9.35204 61.7584 9.54621C61.7639 9.74038 61.7205 9.92075 61.628 10.0873C61.5415 10.2477 61.4207 10.3786 61.2657 10.4802C61.1105 10.5757 60.9358 10.6261 60.7417 10.6316C60.5475 10.6371 60.3672 10.5967 60.2008 10.5103C60.0403 10.4177 59.9093 10.2939 59.8077 10.1389C59.712 9.97764 59.6615 9.79993 59.656 9.60576ZM58.3899 9.28637C58.385 9.32902 58.3779 9.39906 58.3685 9.49648C58.3591 9.59391 58.3499 9.69741 58.3409 9.80697C58.3317 9.91046 58.3282 10.0017 58.3304 10.0805C58.3356 10.2626 58.3412 10.4628 58.3474 10.6812C58.3536 10.8997 58.3598 11.1181 58.366 11.3366C58.372 11.5489 58.3775 11.7431 58.3825 11.9191C58.3859 12.0404 58.3907 12.2103 58.3969 12.4287C58.4031 12.6472 58.4101 12.8929 58.4178 13.166C58.4255 13.439 58.4336 13.7242 58.442 14.0215C58.4503 14.3128 58.4584 14.598 58.4663 14.8771C58.474 15.1501 58.481 15.3989 58.4874 15.6234C58.4936 15.8418 58.4985 16.0148 58.5021 16.1422C58.5095 16.4031 58.4364 16.6117 58.283 16.7678C58.1358 16.9299 57.9013 17.0155 57.5798 17.0246C57.4159 17.0292 57.249 17.0309 57.0789 17.0296C56.9088 17.0284 56.7417 17.024 56.5775 17.0165C56.4134 17.009 56.2521 16.9984 56.0939 16.9847L55.9527 15.8592C56.1479 15.8901 56.3368 15.912 56.5193 15.9251C56.7079 15.938 56.8568 15.9429 56.9661 15.9398C57.0874 15.9363 57.1717 15.9097 57.2188 15.8597C57.2658 15.8038 57.2907 15.718 57.2935 15.6026C57.292 15.548 57.2886 15.4296 57.2835 15.2476C57.2844 15.0654 57.2813 14.8499 57.2743 14.6011C57.2672 14.3524 57.2598 14.0884 57.2519 13.8093C57.2439 13.5302 57.2364 13.2632 57.2292 13.0084C57.222 12.7535 57.2157 12.532 57.2104 12.3439C57.205 12.1558 57.2013 12.0254 57.1993 11.9526C57.1962 11.8433 57.1915 11.6795 57.1853 11.4611C57.179 11.2366 57.1723 10.9999 57.1652 10.7512C57.1582 10.5024 57.1522 10.29 57.1472 10.114C57.1438 9.99269 57.1306 9.85036 57.1078 9.68704C57.0848 9.51766 57.0631 9.39682 57.0429 9.32453L58.3899 9.28637ZM53.9711 10.8598C54.1112 10.8741 54.2573 10.8882 54.4095 10.9021C54.5616 10.9099 54.7104 10.9118 54.856 10.9077C54.9288 10.9056 55.0744 10.9015 55.2929 10.8953C55.5174 10.8889 55.7844 10.8814 56.0938 10.8726C56.4033 10.8638 56.734 10.8545 57.0859 10.8445C57.4439 10.8344 57.8019 10.8242 58.1599 10.8141C58.524 10.8038 58.8607 10.7942 59.1702 10.7855C59.4857 10.7765 59.7587 10.7688 59.9893 10.7623C60.2199 10.7557 60.3807 10.7512 60.4717 10.7486C60.5991 10.745 60.7476 10.7347 60.9172 10.7178C61.0928 10.7006 61.244 10.6812 61.371 10.6594L61.4047 11.8517C61.2648 11.8435 61.113 11.8417 60.9491 11.8464C60.7851 11.8449 60.6394 11.846 60.512 11.8496C60.421 11.8522 60.2602 11.8568 60.0296 11.8633C59.8051 11.8697 59.5351 11.8773 59.2196 11.8862C58.9101 11.895 58.5764 11.9045 58.2184 11.9146C57.8604 11.9247 57.5024 11.9349 57.1444 11.945C56.7864 11.9552 56.4527 11.9646 56.1432 11.9734C55.8338 11.9821 55.5668 11.9897 55.3423 11.9961C55.1238 12.0022 54.9722 12.0065 54.8872 12.0089C54.7537 12.0127 54.6051 12.02 54.4415 12.0307C54.2839 12.0412 54.1385 12.0544 54.0054 12.0704L53.9711 10.8598ZM56.3619 13.2606C56.2646 13.4699 56.1464 13.6949 56.0075 13.9356C55.8686 14.1764 55.7175 14.4175 55.5543 14.659C55.3972 14.9002 55.2427 15.1263 55.0908 15.337C54.9387 15.5417 54.8008 15.7126 54.6772 15.8497L53.6751 15.2041C53.8229 15.0602 53.973 14.892 54.1254 14.6994C54.2837 14.5006 54.4357 14.2929 54.5814 14.0762C54.7331 13.8594 54.8697 13.643 54.9911 13.427C55.1186 13.2108 55.2281 13.0043 55.3197 12.8074L56.3619 13.2606ZM60.2611 12.6401C60.3805 12.7825 60.5128 12.9518 60.6581 13.1481C60.8094 13.3442 60.9611 13.5555 61.1133 13.7819C61.2652 14.0023 61.408 14.2199 61.5416 14.4347C61.6751 14.6435 61.7896 14.8285 61.8853 14.9897L60.8278 15.6027C60.7252 15.4112 60.607 15.2051 60.4732 14.9842C60.3455 14.7631 60.2118 14.5422 60.0719 14.3215C59.9321 14.1008 59.7926 13.8952 59.6536 13.7048C59.5206 13.5082 59.3974 13.3417 59.2842 13.2052L60.2611 12.6401ZM63.1894 12.794C64.0026 12.5584 64.7359 12.2917 65.3893 11.9939C66.0487 11.6898 66.6258 11.3759 67.1207 11.0522C67.4307 10.8491 67.74 10.6186 68.0484 10.3609C68.3628 10.097 68.6558 9.82756 68.9273 9.55267C69.2049 9.27761 69.4374 9.01598 69.6247 8.76777L70.6342 9.6774C70.3628 9.95835 70.0642 10.2431 69.7384 10.5317C69.4187 10.8201 69.0834 11.0968 68.7326 11.3617C68.3818 11.6267 68.0335 11.8704 67.6876 12.0927C67.3474 12.3028 66.9649 12.5201 66.5401 12.7446C66.1214 12.969 65.678 13.182 65.2101 13.3835C64.7421 13.585 64.2705 13.7654 63.7953 13.9246L63.1894 12.794ZM66.9461 11.6401L68.23 11.3031L68.346 15.3988C68.3498 15.5323 68.3569 15.6779 68.3675 15.8355C68.378 15.993 68.3912 16.1384 68.4071 16.2716C68.4232 16.4108 68.4414 16.5165 68.4617 16.5888L67.0236 16.6296C67.0337 16.5564 67.0398 16.45 67.0419 16.3102C67.0502 16.1764 67.0552 16.0305 67.0568 15.8726C67.0584 15.7146 67.0573 15.5689 67.0535 15.4354L66.9461 11.6401ZM74.0976 9.10564C74.2585 9.21039 74.4473 9.33864 74.6642 9.49038C74.881 9.64213 75.1043 9.80887 75.3342 9.99062C75.5699 10.1661 75.7904 10.339 75.9956 10.5093C76.2008 10.6796 76.3691 10.8327 76.5005 10.9687L75.5989 11.9415C75.48 11.8174 75.3241 11.67 75.131 11.4993C74.9379 11.3287 74.7295 11.1524 74.5057 10.9705C74.2819 10.7886 74.0615 10.6157 73.8443 10.4518C73.6271 10.2879 73.4349 10.1507 73.2679 10.04L74.0976 9.10564ZM73.1316 15.1995C73.603 15.1194 74.0463 15.0127 74.4616 14.8795C74.8768 14.7463 75.2612 14.5957 75.6147 14.4278C75.9682 14.2599 76.2912 14.0868 76.5838 13.9085C77.0907 13.5844 77.5541 13.2191 77.9737 12.8125C78.3933 12.4059 78.7579 11.9857 79.0675 11.5518C79.3769 11.1119 79.6199 10.686 79.7965 10.2741L80.5427 11.5373C80.3237 11.9504 80.05 12.365 79.7217 12.7812C79.3995 13.1972 79.0313 13.5963 78.617 13.9784C78.2026 14.3545 77.7538 14.6952 77.2705 15.0003C76.9664 15.1972 76.6377 15.3856 76.2846 15.5657C75.9312 15.7396 75.5561 15.896 75.1592 16.0348C74.7686 16.1794 74.3589 16.2943 73.9302 16.3793L73.1316 15.1995ZM84.3079 14.8648C84.3046 14.7495 84.2993 14.5614 84.2919 14.3005C84.2843 14.0335 84.2756 13.7271 84.2658 13.3812C84.2559 13.0293 84.2455 12.6622 84.2347 12.2799C84.2238 11.8976 84.2134 11.5305 84.2035 11.1786C84.1933 10.8206 84.1844 10.5051 84.1767 10.232C84.1689 9.959 84.1632 9.75877 84.1596 9.63134C84.1552 9.47358 84.1409 9.29181 84.1169 9.08602C84.0989 8.88006 84.0725 8.69863 84.0377 8.54173L85.4575 8.50151C85.4438 8.65979 85.4306 8.83627 85.4179 9.03095C85.405 9.21957 85.4012 9.40793 85.4066 9.59603C85.4114 9.76592 85.4179 9.9965 85.4261 10.2877C85.4344 10.579 85.4436 10.9036 85.4537 11.2616C85.4637 11.6135 85.4739 11.9746 85.4844 12.3447C85.4947 12.7088 85.5047 13.0607 85.5143 13.4005C85.5239 13.7403 85.5324 14.0376 85.5396 14.2925C85.5466 14.5412 85.5517 14.7202 85.5548 14.8294C85.5572 14.9144 85.5637 15.0357 85.5742 15.1933C85.5846 15.3448 85.6012 15.5022 85.624 15.6655C85.6469 15.8288 85.6631 15.9741 85.6728 16.1014L84.2529 16.1416C84.2721 15.9588 84.2873 15.7459 84.2986 15.5027C84.3099 15.2594 84.313 15.0468 84.3079 14.8648ZM85.1693 10.8689C85.475 10.9392 85.8177 11.0327 86.1975 11.1495C86.5771 11.2602 86.9601 11.3799 87.3463 11.5086C87.7325 11.6373 88.0944 11.7668 88.4321 11.8969C88.7757 12.0207 89.0614 12.1371 89.2891 12.2461L88.8059 13.5168C88.5473 13.3905 88.2614 13.265 87.9481 13.1403C87.6347 13.0095 87.3154 12.8849 86.9902 12.7666C86.6711 12.6481 86.3552 12.5387 86.0427 12.4382C85.7362 12.3376 85.4574 12.2483 85.2062 12.1704L85.1693 10.8689ZM96.0518 9.16699C96.0042 9.62986 95.9393 10.1236 95.857 10.6482C95.7746 11.1727 95.6591 11.7043 95.5104 12.2429C95.3518 12.8607 95.1605 13.3945 94.9364 13.8441C94.7123 14.2938 94.4611 14.644 94.1828 14.8948C93.9104 15.1393 93.6073 15.2663 93.2736 15.2758C92.9398 15.2852 92.6272 15.1817 92.3357 14.9653C92.05 14.7426 91.8166 14.4335 91.6353 14.0378C91.4602 13.642 91.3654 13.1892 91.3509 12.6795C91.336 12.1516 91.4281 11.6511 91.6272 11.1779C91.8263 10.7046 92.1089 10.2837 92.475 9.91503C92.847 9.54014 93.2818 9.24241 93.7796 9.02185C94.2834 8.80111 94.8297 8.6824 95.4182 8.66573C95.9825 8.64975 96.4918 8.72642 96.9459 8.89573C97.4062 9.06487 97.8016 9.30569 98.1323 9.61817C98.463 9.93065 98.7194 10.2999 98.9015 10.7259C99.0836 11.1519 99.1817 11.6137 99.1958 12.1112C99.2139 12.7483 99.0996 13.3224 98.8529 13.8334C98.6063 14.3444 98.2297 14.771 97.7232 15.1133C97.2228 15.4554 96.5921 15.698 95.831 15.841L95.1177 14.7772C95.2931 14.754 95.4472 14.7284 95.58 14.7004C95.7128 14.6723 95.8395 14.6414 95.96 14.6076C96.2492 14.5265 96.5163 14.4158 96.7613 14.2752C97.0122 14.1284 97.2288 13.9523 97.4112 13.7467C97.5935 13.5351 97.7323 13.2913 97.8278 13.0153C97.9292 12.7392 97.9753 12.4373 97.9661 12.1096C97.9559 11.7516 97.892 11.4255 97.7744 11.1313C97.6568 10.837 97.4887 10.5837 97.2701 10.3713C97.0514 10.1528 96.7887 9.99022 96.482 9.88352C96.1752 9.77076 95.8246 9.71997 95.4302 9.73114C94.9448 9.74488 94.5195 9.84498 94.1543 10.0314C93.789 10.2118 93.4828 10.4421 93.2357 10.7224C92.9886 11.0027 92.8027 11.3024 92.6782 11.6218C92.5597 11.9409 92.5045 12.243 92.5126 12.5282C92.5212 12.8316 92.5648 13.0854 92.6435 13.2897C92.7219 13.4878 92.8142 13.637 92.9203 13.7373C93.0323 13.8313 93.1489 13.8765 93.2703 13.8731C93.3977 13.8695 93.5203 13.8023 93.638 13.6714C93.7617 13.5343 93.8804 13.3305 93.9942 13.0601C94.108 12.7897 94.2198 12.4495 94.3296 12.0395C94.4568 11.5987 94.5619 11.1281 94.6449 10.6278C94.7279 10.1275 94.7839 9.64013 94.813 9.16565L96.0518 9.16699ZM103.057 14.3337C103.054 14.2184 103.049 14.0303 103.041 13.7694C103.034 13.5024 103.025 13.196 103.015 12.8502C103.005 12.4982 102.995 12.1311 102.984 11.7489C102.973 11.3666 102.963 10.9995 102.953 10.6476C102.943 10.2896 102.934 9.97406 102.926 9.70101C102.918 9.42796 102.913 9.22773 102.909 9.1003C102.904 8.94254 102.89 8.76077 102.866 8.55498C102.848 8.34902 102.822 8.16759 102.787 8.01069L104.207 7.97047C104.193 8.12875 104.18 8.30523 104.167 8.49991C104.154 8.68853 104.151 8.87689 104.156 9.06499C104.161 9.23488 104.167 9.46546 104.175 9.75671C104.184 10.048 104.193 10.3726 104.203 10.7306C104.213 11.0825 104.223 11.4435 104.234 11.8137C104.244 12.1777 104.254 12.5297 104.264 12.8695C104.273 13.2093 104.282 13.5066 104.289 13.7614C104.296 14.0102 104.301 14.1892 104.304 14.2984C104.307 14.3834 104.313 14.5046 104.324 14.6622C104.334 14.8137 104.35 14.9712 104.373 15.1345C104.396 15.2978 104.412 15.4431 104.422 15.5703L103.002 15.6105C103.021 15.4278 103.037 15.2148 103.048 14.9716C103.059 14.7284 103.062 14.5158 103.057 14.3337ZM103.919 10.3378C104.224 10.4081 104.567 10.5017 104.947 10.6184C105.326 10.7291 105.709 10.8488 106.096 10.9776C106.482 11.1063 106.844 11.2357 107.181 11.3658C107.525 11.4897 107.811 11.6061 108.038 11.715L107.555 12.9857C107.297 12.8595 107.011 12.734 106.697 12.6092C106.384 12.4784 106.065 12.3539 105.74 12.2356C105.42 12.1171 105.105 12.0076 104.792 11.9072C104.486 11.8065 104.207 11.7173 103.956 11.6394L103.919 10.3378ZM111.596 8.04356C111.757 8.14831 111.946 8.27656 112.163 8.42831C112.38 8.58005 112.603 8.74679 112.833 8.92854C113.069 9.10404 113.289 9.27694 113.494 9.44723C113.699 9.61752 113.868 9.77064 113.999 9.90659L113.098 10.8795C112.979 10.7553 112.823 10.6079 112.63 10.4373C112.436 10.2666 112.228 10.0903 112.004 9.90844C111.781 9.72652 111.56 9.55363 111.343 9.38974C111.126 9.22586 110.934 9.0886 110.766 8.97795L111.596 8.04356ZM110.63 14.1375C111.102 14.0573 111.545 13.9506 111.96 13.8174C112.375 13.6842 112.76 13.5336 113.113 13.3657C113.467 13.1978 113.79 13.0247 114.082 12.8464C114.589 12.5223 115.053 12.157 115.472 11.7504C115.892 11.3438 116.257 10.9236 116.566 10.4897C116.876 10.0498 117.118 9.62392 117.295 9.21205L118.041 10.4753C117.822 10.8883 117.549 11.303 117.22 11.7191C116.898 12.1351 116.53 12.5342 116.116 12.9163C115.701 13.2924 115.252 13.6331 114.769 13.9382C114.465 14.1351 114.136 14.3236 113.783 14.5036C113.43 14.6776 113.055 14.8339 112.658 14.9727C112.267 15.1174 111.858 15.2322 111.429 15.3172L110.63 14.1375ZM125.852 7.10236C125.934 7.20934 126.02 7.33748 126.109 7.48677C126.204 7.63588 126.297 7.78508 126.386 7.93437C126.475 8.08366 126.549 8.21517 126.607 8.32891L125.887 8.65899C125.791 8.47347 125.673 8.26428 125.533 8.03141C125.398 7.79231 125.268 7.5865 125.142 7.41397L125.852 7.10236ZM126.915 6.66237C126.997 6.76935 127.085 6.90043 127.181 7.05562C127.282 7.20456 127.378 7.35368 127.467 7.50296C127.562 7.64601 127.635 7.77146 127.687 7.8793L126.977 8.20912C126.874 8.01771 126.753 7.80557 126.613 7.5727C126.472 7.33984 126.336 7.14027 126.204 6.97398L126.915 6.66237ZM126.728 9.08151C126.676 9.168 126.624 9.2727 126.573 9.3956C126.522 9.51244 126.48 9.62901 126.446 9.74533C126.375 10.0145 126.272 10.3241 126.136 10.6741C126 11.018 125.834 11.375 125.638 11.7449C125.442 12.1148 125.209 12.4766 124.94 12.8304C124.524 13.3644 124.03 13.852 123.46 14.2933C122.896 14.7343 122.19 15.1369 121.344 15.5009L120.243 14.5666C120.857 14.3609 121.385 14.1365 121.827 13.8932C122.27 13.6438 122.654 13.3779 122.98 13.0954C123.306 12.8129 123.595 12.5163 123.847 12.2055C124.047 11.963 124.23 11.6906 124.398 11.3883C124.572 11.0858 124.715 10.7842 124.828 10.4835C124.947 10.1825 125.027 9.91912 125.069 9.69324L122.002 9.78011L122.392 8.73978C122.471 8.73754 122.601 8.73385 122.783 8.72869C122.965 8.72353 123.168 8.71778 123.393 8.71142C123.617 8.70506 123.839 8.69879 124.057 8.6926C124.282 8.68624 124.479 8.68066 124.649 8.67584C124.819 8.67103 124.931 8.66785 124.986 8.66631C125.131 8.66218 125.274 8.64904 125.413 8.62689C125.558 8.59849 125.678 8.56775 125.774 8.53466L126.728 9.08151ZM123.72 7.72749C123.616 7.88835 123.514 8.06125 123.416 8.24621C123.318 8.43116 123.243 8.57295 123.191 8.67158C122.995 9.04149 122.751 9.42794 122.459 9.83094C122.167 10.2279 121.835 10.6168 121.463 10.9978C121.097 11.3725 120.7 11.7177 120.272 12.0335L119.231 11.2978C119.624 11.0438 119.969 10.782 120.265 10.5125C120.561 10.243 120.818 9.97763 121.035 9.71642C121.252 9.44915 121.439 9.19488 121.596 8.95359C121.753 8.70624 121.884 8.48394 121.987 8.28668C122.057 8.1754 122.129 8.02762 122.202 7.84336C122.282 7.65285 122.338 7.48124 122.37 7.32851L123.72 7.72749ZM135.042 10.2761C135.058 10.8404 135.03 11.3544 134.958 11.8179C134.892 12.2752 134.764 12.6948 134.575 13.0767C134.385 13.4525 134.115 13.7941 133.766 14.1016C133.416 14.409 132.972 14.6919 132.433 14.95L131.433 14.0584C131.865 13.8943 132.237 13.7137 132.547 13.5167C132.863 13.3195 133.121 13.0814 133.319 12.8026C133.518 12.5176 133.66 12.1796 133.746 11.7885C133.838 11.3912 133.876 10.9134 133.86 10.3552L133.792 7.93413C133.786 7.74603 133.776 7.58237 133.759 7.44316C133.743 7.29787 133.728 7.1799 133.713 7.08922L135.014 7.05236C135.005 7.14372 134.993 7.26247 134.979 7.40861C134.971 7.54851 134.969 7.71251 134.975 7.90061L135.042 10.2761ZM131.667 7.22914C131.658 7.31443 131.649 7.43006 131.641 7.57603C131.633 7.71593 131.631 7.87387 131.636 8.04983L131.728 11.3082C131.732 11.4417 131.739 11.5721 131.748 11.6993C131.758 11.8205 131.764 11.9296 131.767 12.0267C131.776 12.1176 131.784 12.1963 131.792 12.2628L130.518 12.2989C130.528 12.2318 130.535 12.1527 130.538 12.0615C130.541 11.9643 130.544 11.8549 130.547 11.7333C130.55 11.6058 130.549 11.4752 130.545 11.3417L130.453 8.08334C130.449 7.94985 130.439 7.8135 130.423 7.67429C130.413 7.5349 130.397 7.39872 130.375 7.26575L131.667 7.22914ZM128.71 8.9525C128.771 8.95685 128.85 8.96675 128.948 8.9822C129.045 8.99159 129.158 9.00054 129.286 9.00907C129.413 9.01153 129.553 9.01061 129.705 9.00631L135.675 8.83721C135.918 8.83033 136.115 8.81868 136.266 8.80225C136.418 8.78582 136.554 8.76678 136.675 8.74514L136.709 9.95565C136.612 9.94627 136.481 9.94389 136.317 9.94853C136.153 9.94711 135.95 9.94983 135.707 9.9567L129.736 10.1258C129.585 10.1301 129.445 10.1371 129.318 10.1468C129.197 10.1502 129.087 10.1563 128.991 10.1652C128.9 10.1738 128.818 10.1822 128.745 10.1903L128.71 8.9525ZM139.72 7.247C139.881 7.35175 140.07 7.48 140.287 7.63175C140.504 7.78349 140.727 7.95024 140.957 8.13198C141.192 8.30748 141.413 8.48038 141.618 8.65067C141.823 8.82096 141.992 8.97408 142.123 9.11003L141.222 10.0829C141.103 9.95874 140.947 9.81134 140.754 9.6407C140.56 9.47007 140.352 9.29379 140.128 9.11188C139.904 8.92996 139.684 8.75707 139.467 8.59319C139.25 8.4293 139.058 8.29204 138.89 8.18139L139.72 7.247ZM138.754 13.3409C139.226 13.2607 139.669 13.1541 140.084 13.0208C140.499 12.8876 140.884 12.7371 141.237 12.5692C141.591 12.4013 141.914 12.2282 142.206 12.0498C142.713 11.7258 143.177 11.3605 143.596 10.9538C144.016 10.5472 144.381 10.127 144.69 9.69317C144.999 9.25325 145.242 8.82736 145.419 8.41549L146.165 9.67871C145.946 10.0918 145.673 10.5064 145.344 10.9226C145.022 11.3385 144.654 11.7376 144.24 12.1198C143.825 12.4959 143.376 12.8365 142.893 13.1417C142.589 13.3385 142.26 13.527 141.907 13.707C141.554 13.881 141.179 14.0374 140.782 14.1761C140.391 14.3208 139.981 14.4356 139.553 14.5206L138.754 13.3409ZM153.976 6.28759C154.058 6.38851 154.143 6.51665 154.233 6.672C154.328 6.82112 154.42 6.97032 154.509 7.11961C154.599 7.26889 154.672 7.40041 154.73 7.51415L154.011 7.84423C153.914 7.6587 153.796 7.44951 153.656 7.21665C153.522 6.97755 153.391 6.77174 153.265 6.59921L153.976 6.28759ZM155.038 5.8385C155.12 5.95155 155.209 6.08567 155.304 6.24086C155.406 6.3898 155.501 6.53891 155.59 6.6882C155.685 6.83125 155.759 6.95366 155.81 7.05544L155.1 7.39436C154.998 7.20294 154.876 6.9908 154.736 6.75794C154.596 6.52508 154.46 6.32551 154.327 6.15922L155.038 5.8385ZM150.669 9.80621C150.952 9.96213 151.264 10.1446 151.604 10.3536C151.944 10.5565 152.284 10.7685 152.624 10.9896C152.971 11.2106 153.295 11.4261 153.599 11.6361C153.908 11.8399 154.172 12.0267 154.389 12.1967L153.544 13.2499C153.339 13.0675 153.084 12.8622 152.78 12.6339C152.482 12.4055 152.16 12.1718 151.813 11.9326C151.466 11.6874 151.125 11.4541 150.791 11.2328C150.457 11.0115 150.154 10.8197 149.882 10.6574L150.669 9.80621ZM154.903 8.13778C154.857 8.2241 154.808 8.32871 154.757 8.45161C154.705 8.56845 154.66 8.68511 154.621 8.8016C154.538 9.08329 154.422 9.39627 154.274 9.74053C154.132 10.0846 153.96 10.4387 153.758 10.8027C153.555 11.1667 153.322 11.5225 153.059 11.87C152.649 12.4099 152.148 12.9312 151.555 13.4338C150.962 13.9303 150.236 14.3577 149.378 14.716L148.296 13.8267C148.921 13.6086 149.464 13.3624 149.924 13.0883C150.383 12.8081 150.782 12.5114 151.119 12.1982C151.456 11.885 151.748 11.5731 151.994 11.2625C152.194 11.014 152.38 10.7415 152.554 10.4451C152.728 10.1426 152.877 9.84386 153.002 9.54882C153.134 9.25362 153.223 8.98996 153.271 8.75784L150.195 8.84497L150.584 7.79553L153.178 7.72206C153.318 7.71811 153.457 7.70505 153.596 7.6829C153.741 7.66057 153.865 7.62974 153.967 7.59041L154.903 8.13778ZM151.86 6.8303C151.755 6.99116 151.651 7.16415 151.546 7.34927C151.448 7.53422 151.374 7.67602 151.322 7.77465C151.132 8.13831 150.882 8.53101 150.572 8.95272C150.268 9.37426 149.924 9.78479 149.541 10.1843C149.163 10.5836 148.761 10.9412 148.332 11.2569L147.328 10.5202C147.852 10.1775 148.295 9.8188 148.655 9.44425C149.02 9.06346 149.323 8.69965 149.562 8.35281C149.807 7.99973 150.001 7.68755 150.146 7.41627C150.215 7.30499 150.287 7.15722 150.361 6.97295C150.44 6.78245 150.496 6.61083 150.528 6.45811L151.86 6.8303ZM161.044 13.3654C161.06 13.2739 161.072 13.1703 161.081 13.0547C161.096 12.9328 161.102 12.8112 161.098 12.6898C161.096 12.6231 161.092 12.4896 161.087 12.2894C161.081 12.0891 161.074 11.8464 161.066 11.5612C161.058 11.276 161.049 10.9696 161.04 10.642C161.031 10.3082 161.021 9.97148 161.011 9.63168C161.002 9.29189 160.993 8.97334 160.984 8.67602C160.976 8.37263 160.968 8.10868 160.962 7.88418C160.955 7.6536 160.951 7.48674 160.948 7.38359C160.942 7.17729 160.925 6.99863 160.896 6.84763C160.874 6.69645 160.859 6.61488 160.853 6.60291L162.209 6.5645C162.203 6.57681 162.194 6.6621 162.18 6.82038C162.166 6.97259 162.162 7.15184 162.168 7.35815C162.171 7.4613 162.175 7.61603 162.181 7.82233C162.187 8.02256 162.193 8.25617 162.201 8.52315C162.208 8.78406 162.216 9.06318 162.224 9.3605C162.233 9.65782 162.241 9.9521 162.249 10.2434C162.257 10.5285 162.265 10.8016 162.273 11.0625C162.28 11.3173 162.286 11.5358 162.291 11.7178C162.296 11.8998 162.3 12.0333 162.303 12.1183C162.548 12.002 162.802 11.8461 163.064 11.6504C163.325 11.4547 163.58 11.2289 163.828 10.9729C164.081 10.7107 164.304 10.4311 164.496 10.1342L165.225 11.1155C164.986 11.4502 164.692 11.7804 164.343 12.106C164 12.4315 163.644 12.7301 163.275 13.0016C162.906 13.2732 162.551 13.5019 162.21 13.6876C162.115 13.745 162.037 13.7958 161.978 13.84C161.919 13.8902 161.868 13.9342 161.827 13.9718L161.044 13.3654ZM156.826 13.3482C157.219 13.0578 157.537 12.7117 157.781 12.3101C158.024 11.9085 158.202 11.5148 158.312 11.1291C158.373 10.927 158.415 10.6799 158.437 10.3878C158.465 10.0894 158.483 9.77313 158.492 9.43889C158.501 9.09858 158.5 8.7646 158.491 8.43694C158.488 8.10304 158.482 7.79653 158.474 7.51742C158.469 7.33539 158.455 7.18092 158.434 7.05401C158.418 6.92086 158.396 6.79699 158.368 6.68239L159.706 6.6445C159.701 6.6568 159.693 6.70864 159.683 6.8C159.68 6.88512 159.674 6.98853 159.665 7.11022C159.662 7.22568 159.662 7.34712 159.666 7.47455C159.674 7.74153 159.679 8.0541 159.683 8.41227C159.687 8.76437 159.685 9.12574 159.678 9.49639C159.67 9.86704 159.653 10.2197 159.626 10.5545C159.599 10.8832 159.558 11.1637 159.504 11.396C159.379 11.9157 159.183 12.401 158.917 12.8518C158.656 13.2964 158.336 13.6972 157.958 14.054L156.826 13.3482Z" fill="#61BDD1"/>
</svg>
