<svg width="165" height="33" viewBox="0 0 165 33" fill="none" xmlns="http://www.w3.org/2000/svg">
<rect width="163.01" height="19.5048" transform="translate(0 13.1842) rotate(-4.63914)" fill="#FFEE00"/>
<path d="M11.2753 18.3476C11.24 18.588 11.2 18.8835 11.173 19.1141C11.1316 19.3915 11.0953 19.7325 11.0583 20.0643C11.3563 20.0219 11.6271 19.9817 11.8177 19.9662C12.7797 19.8881 13.4949 20.2594 13.601 21.5663C13.6879 22.6372 13.6801 24.1177 13.354 24.939C13.106 25.5985 12.614 25.8394 11.9333 25.8947C11.5794 25.9234 11.1477 25.8945 10.834 25.856L10.5371 24.6742C10.8992 24.7453 11.4238 24.7941 11.6689 24.7742C11.9683 24.7499 12.1969 24.64 12.3178 24.3288C12.5209 23.7916 12.5498 22.6839 12.4769 21.7854C12.418 21.0594 12.1013 20.9846 11.5295 21.031C11.3843 21.0428 11.1589 21.0793 10.9063 21.1181C10.6734 22.5255 10.1763 24.7309 9.44962 26.1328L8.23152 25.7566C9.01537 24.4963 9.49281 22.6122 9.71864 21.3424C9.39487 21.4052 9.11648 21.4643 8.94551 21.4964C8.69509 21.5624 8.21924 21.665 7.95066 21.7325L7.7416 20.5071C8.07053 20.5078 8.37762 20.4646 8.71267 20.4283C8.99327 20.3963 9.41761 20.3345 9.87751 20.2607C9.9486 19.5606 9.96744 18.8922 9.91197 18.3212L11.2753 18.3476ZM14.4664 18.9474C15.0924 19.6822 15.9954 21.3537 16.3377 22.1938L15.2285 22.8228C14.9108 21.8346 14.1332 20.2442 13.424 19.4978L14.4664 18.9474ZM20.6229 17.5891C20.5876 17.8295 20.5477 18.125 20.5207 18.3556C20.4793 18.633 20.443 18.974 20.406 19.3058C20.704 19.2634 20.9748 19.2231 21.1654 19.2077C22.1274 19.1296 22.8426 19.5009 22.9487 20.8078C23.0356 21.8787 23.0278 23.3592 22.7016 24.1804C22.4537 24.84 21.9617 25.0809 21.281 25.1361C20.9271 25.1649 20.4954 25.136 20.1817 25.0975L19.8848 23.9157C20.2468 23.9868 20.7715 24.0356 21.0165 24.0157C21.316 23.9914 21.5446 23.8815 21.6655 23.5702C21.8686 23.0331 21.8975 21.9254 21.8246 21.0269C21.7656 20.3009 21.449 20.2261 20.8772 20.2725C20.732 20.2842 20.5066 20.3208 20.254 20.3596C20.021 21.767 19.524 23.9724 18.7973 25.3742L17.5792 24.998C18.3631 23.7377 18.8405 21.8537 19.0663 20.5838C18.7426 20.6466 18.4642 20.7058 18.2932 20.7379C18.0428 20.8039 17.5669 20.9065 17.2983 20.9739L17.0893 19.7485C17.4182 19.7492 17.7253 19.7061 18.0604 19.6697C18.341 19.6378 18.7653 19.576 19.2252 19.5021C19.2963 18.8021 19.3151 18.1337 19.2597 17.5627L20.6229 17.5891ZM23.8141 18.1888C24.4401 18.9237 25.3431 20.5952 25.6853 21.4353L24.5762 22.0643C24.2585 21.076 23.4809 19.4857 22.7717 18.7393L23.8141 18.1888ZM28.7675 16.8642C29.189 17.7801 29.6862 18.6167 30.1059 19.2861C30.8148 18.7901 31.5727 18.3358 31.9793 18.0561C32.308 17.8285 32.5587 17.6528 32.7784 17.434L33.4901 18.4359C33.231 18.6214 32.9531 18.7992 32.6314 18.9989C32.0915 19.3259 30.9907 19.9451 30.2083 20.5476C29.4955 21.1078 29.0293 21.6664 29.0808 22.3016C29.1339 22.9551 29.7881 23.2491 31.0495 23.1468C31.9843 23.0709 33.1984 22.8354 33.99 22.5702L34.0779 23.8785C33.3175 24.0772 32.3629 24.246 31.1831 24.3418C29.377 24.4883 27.9662 24.1004 27.8395 22.5394C27.7585 21.5411 28.3326 20.7363 29.1516 20.0212C28.6715 19.2837 28.1571 18.348 27.6706 17.4191L28.7675 16.8642ZM39.2583 16.9082C40.3871 16.9719 42.1894 16.78 43.16 16.5825L43.255 17.7532C42.1468 17.9436 40.5049 18.086 39.3525 18.0699L39.2583 16.9082ZM40.2988 20.7245C40.2505 21.0299 40.2318 21.2506 40.2517 21.4957C40.2841 21.895 40.6489 22.112 41.5746 22.0369C42.3823 21.9714 43.048 21.8443 43.8333 21.6161L43.9509 22.8398C43.3699 22.9966 42.649 23.119 41.6235 23.2023C40.0625 23.3289 39.2643 22.8364 39.1884 21.9017C39.1597 21.5477 39.1847 21.1803 39.247 20.7094L40.2988 20.7245ZM37.8113 16.4136C37.7542 16.61 37.673 17.0734 37.65 17.2397C37.5813 17.8573 37.411 19.6982 37.4846 20.6057C37.4986 20.7781 37.5268 21.0134 37.5688 21.1927C37.6799 20.8731 37.7993 20.5436 37.9021 20.2338L38.5008 20.6329C38.3078 21.4068 38.0886 22.4203 38.0278 22.9094C38.0116 23.0477 38.0097 23.2488 38.0171 23.3396C38.0252 23.4394 38.046 23.5839 38.0654 23.7102L37.0186 23.8683C36.7862 23.2568 36.524 22.1636 36.4238 20.9293C36.3133 19.568 36.4702 18.0114 36.5133 17.3045C36.5199 17.0482 36.5464 16.6989 36.5319 16.4078L37.8113 16.4136ZM47.9785 19.9003L47.8968 18.893L47.4339 18.9305L47.5157 19.9379L47.9785 19.9003ZM46.1997 19.0307L46.2814 20.0381L46.7352 20.0012L46.6534 18.9939L46.1997 19.0307ZM47.3136 16.5469L46.406 16.6205L46.4465 17.1197L47.3541 17.046L47.3136 16.5469ZM49.5639 14.7839L50.5821 14.9479C50.488 15.4763 50.3659 15.9977 50.215 16.5033L50.7548 23.1556L49.7656 23.2358L49.379 18.4712C49.2667 18.6631 49.1438 18.8375 49.0202 19.0028C48.9562 18.8892 48.831 18.6984 48.7059 18.5076L48.8761 20.604L47.7053 20.699L47.7399 21.1255L49.1376 21.0121L49.2105 21.9106L47.8128 22.024L47.9226 23.3763L46.897 23.4595L46.7873 22.1072L45.3353 22.2251L45.2623 21.3266L46.7144 21.2088L46.6798 20.7822L45.5272 20.8757L45.321 18.3346L46.5008 18.2389L46.4662 17.8123L45.6041 17.8823L45.5076 16.6934L44.8904 16.7435L44.8198 15.8723L45.4369 15.8222L45.3758 15.0689L46.2742 14.996L46.3353 15.7493L47.2429 15.6756L47.1818 14.9224L48.1165 14.8465L48.1777 15.5998L48.7857 15.5504L48.8564 16.4217L48.2484 16.471L48.3448 17.6599L47.4282 17.7343L47.4628 18.1608L48.3794 18.0864L48.3493 18.0524C48.9695 17.2529 49.3918 16.0402 49.5639 14.7839ZM52.5527 21.8952L52.7977 21.8753C52.8612 21.8701 52.9331 21.8552 52.9755 21.8152C53.0172 21.7661 53.0545 21.6626 53.0555 21.5621C53.068 21.3783 53.0454 20.9874 53.0078 20.5245C53.232 20.6982 53.5546 20.8455 53.8433 20.9135C53.8642 21.3959 53.8623 21.9351 53.8179 22.1762C53.7757 22.4445 53.6877 22.5978 53.5331 22.72C53.3786 22.8422 53.1561 22.915 52.9474 22.932L52.3484 22.9806C52.0852 23.0019 51.8252 22.9499 51.629 22.7832C51.4426 22.6247 51.3727 22.4386 51.3204 21.7942L50.7519 14.788L51.7411 14.7077L51.9679 17.5029C52.2296 17.1254 52.4709 16.7222 52.6531 16.3785L53.5119 17.1675C53.0631 17.7155 52.5598 18.2679 52.0695 18.7553L52.3067 21.6776C52.3125 21.7502 52.3366 21.8214 52.3842 21.8449C52.4242 21.8873 52.4892 21.9003 52.5527 21.8952ZM58.1532 20.6642L59.0708 20.8273C58.851 21.3841 58.4716 21.9995 58.101 22.3859C57.9077 22.2554 57.5082 22.0594 57.2724 21.969C57.646 21.6189 57.9805 21.1259 58.1532 20.6642ZM61.0468 20.7492L61.7858 20.2872C62.1903 20.6564 62.6966 21.1543 62.9438 21.4996L62.1533 22.0022C61.934 21.6638 61.4513 21.1183 61.0468 20.7492ZM59.1695 18.2158L60.8393 18.0803C60.4329 17.5743 60.0924 16.9807 59.8269 16.2988C59.7119 17.0207 59.4807 17.6607 59.1695 18.2158ZM58.3419 18.0363C58.4071 17.9396 58.4633 17.8437 58.5194 17.7478C58.3828 17.6401 58.191 17.5278 58.0097 17.4329C57.9528 17.5197 57.8959 17.6066 57.8307 17.7032C58.0119 17.7981 58.1954 17.9203 58.3419 18.0363ZM58.9162 16.7838L58.3172 16.8324L58.2557 16.9744C58.4264 17.0519 58.6175 17.1552 58.7625 17.253C58.8233 17.1019 58.8743 16.9425 58.9162 16.7838ZM61.6168 16.6286L60.9089 16.6861C61.0159 16.8784 61.141 17.0692 61.2737 17.2411C61.3951 17.0486 61.515 16.8379 61.6168 16.6286ZM62.044 15.9271L62.6415 16.1983C62.4611 16.7885 62.1346 17.3814 61.8062 17.8374C62.1715 18.1731 62.5853 18.4319 63.0552 18.5947C62.8696 18.7833 62.6503 19.1209 62.5333 19.3679C61.9569 19.1315 61.4617 18.7697 61.0407 18.3106L61.0842 18.846L58.9424 19.0198L58.91 18.6205C58.6475 18.9889 58.3542 19.3142 58.0194 19.5789L62.176 19.2416L62.2422 20.0584L60.5451 20.1961L60.6526 21.5211C60.6858 21.9295 60.637 22.1162 60.3652 22.257C60.1116 22.3963 59.7493 22.4348 59.2593 22.4746C59.1947 22.2423 59.0524 21.9524 58.9259 21.7434C59.2087 21.7388 59.4991 21.7152 59.5891 21.6987C59.6791 21.6823 59.714 21.6612 59.7066 21.5705L59.6013 20.2727L57.9042 20.4104L57.8475 19.7116C57.7437 19.7839 57.64 19.8563 57.5355 19.9196C57.4285 19.7273 57.1842 19.4183 56.9985 19.2689C57.3664 19.0746 57.7005 18.8008 57.9938 18.4756C57.8557 18.3498 57.6722 18.2276 57.4895 18.1146C57.4054 18.2036 57.3212 18.2926 57.2273 18.3734C57.1866 18.3218 57.1368 18.2711 57.0772 18.212L57.2399 18.8656C56.975 18.9785 56.701 19.0921 56.4361 19.2049L56.6261 21.5464C56.6666 22.0455 56.6063 22.3153 56.3382 22.5015C56.089 22.6953 55.7017 22.7633 55.1201 22.8013C55.0715 22.5404 54.9189 22.1234 54.7683 21.8433C55.0965 21.8349 55.4142 21.8091 55.5231 21.8003C55.632 21.7915 55.6744 21.7515 55.6641 21.6244L55.4991 19.5915C55.207 19.7066 54.9232 19.8118 54.6667 19.9149L54.3467 18.8994C54.6494 18.8018 55.0134 18.6718 55.4122 18.5206L55.287 16.9778L54.3613 17.0529L54.2811 16.0637L55.2068 15.9886L55.0683 14.2824L56.0303 14.2044L56.1688 15.9105L56.8676 15.8538L56.9478 16.843L56.249 16.8998L56.3514 18.1612L56.7941 17.9883C56.7262 17.939 56.6688 17.9071 56.6114 17.8752C57.1932 17.3895 57.5552 16.7846 57.7364 16.2035L57.0376 16.2603L56.9212 14.8263L59.0176 14.6562L58.9609 13.9574L59.9865 13.8742L60.0432 14.573L62.4572 14.3771L62.5721 15.7929L61.6101 15.8709L61.5615 15.272L57.9132 15.568L57.9331 15.813L58.6302 15.8478C58.6027 15.9597 58.576 16.0806 58.5394 16.1932L59.1566 16.1431L59.2996 16.1041L59.8044 16.2458C59.7479 16.1134 59.6999 15.9711 59.6518 15.8289L60.4281 15.6014C60.5363 15.9215 60.6611 16.222 60.8125 16.5112L60.7771 16.0756L61.9116 15.9835L62.044 15.9271ZM65.6879 14.5626C65.6665 14.2994 65.6535 14.0264 65.5853 13.7487L66.914 13.6866C66.8801 13.9451 66.836 14.4146 66.8181 14.9824L67.1893 15.3908C67.0755 15.5645 66.9183 15.8787 66.7831 16.1272C66.7792 16.1914 66.7844 16.255 66.7812 16.3283C67.4473 15.6439 68.4314 14.8241 69.3117 14.7527C70.2918 14.6732 70.7837 15.2179 70.8455 15.9802C70.9221 16.9241 70.7309 18.2825 70.8067 19.2172C70.8259 19.4532 70.9578 19.6161 71.1847 19.5976C71.5205 19.5704 71.9279 19.2998 72.3115 18.8485L72.5606 20.1163C72.1747 20.5404 71.644 20.8667 70.9089 20.9264C70.2282 20.9816 69.7347 20.5283 69.6632 19.648C69.5837 18.6679 69.8022 17.3073 69.7351 16.4814C69.6991 16.0367 69.4447 15.829 69.0635 15.8599C68.3919 15.9144 67.4795 16.8289 66.8016 17.7061C66.8132 17.9609 66.824 18.2067 66.8431 18.4426C66.9035 19.1868 66.9654 19.9492 67.0891 20.7978C67.1114 20.9605 67.1651 21.285 67.2093 21.4915L65.9569 21.5931C65.9581 21.3829 65.9414 21.0645 65.9296 20.9193C65.8903 20.21 65.8567 19.6829 65.8039 18.9198C65.4691 19.5225 65.0782 20.2211 64.7952 20.6734L63.9979 19.7423C64.4637 19.0651 65.274 17.7935 65.7295 16.9892C65.7307 16.779 65.7312 16.5597 65.7226 16.3411C65.2823 16.4317 64.5908 16.5791 64.0885 16.693L63.8763 15.5409C64.1402 15.5286 64.3489 15.5117 64.6651 15.4677C64.9268 15.4282 65.3224 15.3505 65.7083 15.2643C65.6984 14.918 65.696 14.6624 65.6879 14.5626ZM75.488 12.9634L76.2578 13.3303C76.0775 14.1489 75.8416 15.182 75.6275 15.9211C76.2658 16.5818 76.4255 17.1992 76.469 17.7346C76.5176 18.3336 76.4215 18.7251 76.148 18.9574C76.0116 19.0781 75.8353 19.1563 75.6287 19.2005C75.4585 19.2417 75.2407 19.2594 75.0229 19.2771C74.991 18.9965 74.8754 18.5856 74.6991 18.3259C74.8639 18.3308 74.9909 18.3205 75.1082 18.3018C75.208 18.2937 75.2882 18.2689 75.3655 18.2078C75.4678 18.1173 75.4984 17.9321 75.4771 17.669C75.4424 17.2424 75.269 16.681 74.6925 16.1066C74.8353 15.5012 74.977 14.6584 75.0706 14.0113L74.272 14.0761L74.8501 21.2003L73.8427 21.2821L73.1866 13.1959L75.3374 13.0213L75.488 12.9634ZM81.3582 14.6065L78.5086 14.8377C78.5297 15.2105 78.541 15.575 78.5508 15.9214L81.0375 15.7196C81.0375 15.7196 81.0535 16.0289 81.0645 16.165C81.1888 18.8224 81.1918 19.8727 80.9392 20.2495C80.7609 20.5289 80.5595 20.6366 80.2546 20.707C79.986 20.7744 79.5504 20.8098 79.077 20.8299C79.0422 20.513 78.8881 20.0779 78.6816 19.7841C79.0755 19.7978 79.4483 19.7767 79.6298 19.7619C79.7841 19.7494 79.8628 19.7065 79.9364 19.6C80.0858 19.4143 80.1063 18.6545 80.0091 16.7805L78.5389 16.8998C78.4504 18.6244 77.9899 20.0412 76.4724 21.0413C76.324 20.7884 75.9852 20.4414 75.7149 20.2623C77.5829 19.0785 77.583 17.2788 77.4377 14.9246L76.1943 15.0255L76.1133 14.0272L78.1281 13.8637L78.0102 12.4116L79.0811 12.3247L79.199 13.7768L81.2772 13.6082L81.3582 14.6065ZM87.8668 18.6002L91.0614 18.341L91.149 19.421L82.8632 20.0934L82.7755 19.0134L83.9281 18.9198L83.5157 13.8376L84.6501 13.7456L85.0625 18.8278L86.7143 18.6938L86.1509 11.7511L87.3035 11.6575L87.5332 14.4891L90.2377 14.2696L90.3261 15.3587L87.6216 15.5781L87.8668 18.6002ZM99.9471 15.1535C100.102 17.0684 99.0414 18.5156 96.7832 19.0552L96.0149 18.0304C96.3568 17.9661 96.6065 17.8911 96.8471 17.8167C97.9867 17.4502 98.8265 16.5416 98.7189 15.2166C98.6173 13.9642 97.8608 13.0847 96.6187 12.9753C96.5542 13.7571 96.4677 14.6045 96.2737 15.479C95.878 17.3564 95.1888 18.5451 94.1996 18.6253C93.1922 18.7071 92.2674 17.6676 92.143 16.1339C91.9728 14.0375 93.6428 12.1023 95.9934 11.9116C98.2441 11.7289 99.7865 13.175 99.9471 15.1535ZM93.295 15.9216C93.3694 16.8383 93.7685 17.2535 94.1225 17.2248C94.5036 17.1938 94.8112 16.5934 95.0838 15.338C95.2381 14.6495 95.3479 13.8641 95.3866 13.1027C93.9142 13.5328 93.214 14.9233 93.295 15.9216ZM105.767 10.7714C105.584 11.1059 105.381 11.5335 105.288 11.742C105.281 11.7609 105.272 11.7707 105.265 11.7896L107.089 11.6416C107.37 11.6187 107.666 11.549 107.87 11.4686L108.842 11.9652C108.756 12.1457 108.65 12.4102 108.595 12.6429C108.416 13.4705 107.996 14.7195 107.262 15.8023C106.485 16.925 105.455 17.849 103.803 18.6591L102.654 17.784C104.47 17.0794 105.413 16.2081 106.13 15.2456C106.69 14.4876 107.128 13.3558 107.218 12.6634L104.667 12.8703C104.123 13.7092 103.399 14.5719 102.559 15.2522L101.481 14.5814C102.99 13.4814 103.685 12.2466 104.075 11.4293C104.193 11.1914 104.35 10.7585 104.406 10.4433L105.767 10.7714ZM114.634 11.751C114.838 12.1272 115.379 13.2709 115.54 13.6781L114.482 14.1476C114.337 13.7118 113.848 12.646 113.583 12.1925L114.634 11.751ZM118.037 12.1417C117.952 12.441 117.913 12.636 117.873 12.8219C117.711 13.7577 117.407 14.7324 116.854 15.5812C116.099 16.7387 115.026 17.5931 113.997 18.0786L112.965 17.1848C113.942 16.8406 115.148 16.0485 115.824 15.0436C116.379 14.2221 116.716 12.9797 116.733 11.8364L118.037 12.1417ZM112.568 12.4028C112.832 12.8472 113.357 13.91 113.58 14.4035L112.507 14.9108C112.312 14.4333 111.761 13.2631 111.511 12.8814L112.568 12.4028ZM122.057 9.33984C122.683 9.61795 123.734 10.1813 124.232 10.4697L123.633 11.5323C123.096 11.2196 122.102 10.6791 121.476 10.3919L122.057 9.33984ZM120.892 15.9204C121.895 15.6655 122.96 15.2776 123.905 14.6528C125.377 13.6654 126.538 12.3197 127.159 10.963L127.958 12.1406C127.215 13.4615 126.029 14.7179 124.61 15.6918C123.727 16.2933 122.466 16.8523 121.67 17.0631L120.892 15.9204ZM120.828 11.5224C121.462 11.7998 122.511 12.345 123.001 12.6342L122.421 13.7044C121.875 13.3924 120.881 12.8519 120.247 12.5836L120.828 11.5224ZM130.701 10.7121C130.939 10.7202 131.494 10.6934 131.83 10.6662L135.261 10.3878C135.478 10.3701 135.814 10.3338 135.958 10.313C135.958 10.4317 135.983 10.7312 135.998 10.9218L136.368 15.4776C136.38 15.6228 136.414 15.9307 136.427 16.094L135.284 16.1868C135.286 16.1044 135.274 15.9592 135.263 15.823L131.824 16.1022C131.569 16.1228 131.199 16.1711 131.045 16.1927L130.955 15.0764C131.111 15.0821 131.421 15.0752 131.747 15.0487L135.178 14.7703L135.08 13.5633L132.185 13.7982C131.84 13.8262 131.405 13.8706 131.197 13.8966L131.11 12.8257C131.348 12.8247 131.757 12.8006 132.102 12.7727L134.997 12.5377L134.907 11.4396L131.913 11.6826C131.577 11.7099 131.007 11.7744 130.79 11.8103L130.701 10.7121ZM140.159 8.16328C140.829 8.53828 142.086 9.38638 142.657 9.89727L141.808 10.9162C141.295 10.4463 140.08 9.54913 139.38 9.14005L140.159 8.16328ZM139.515 14.2996C140.915 13.985 142.057 13.4264 142.895 12.8286C144.372 11.7861 145.439 10.3018 145.912 9.03023L146.723 10.2524C146.133 11.5336 145.028 12.8839 143.638 13.8828C142.766 14.5108 141.637 15.114 140.375 15.4357L139.515 14.2996ZM148.001 8.203C148.363 8.16447 148.715 8.1176 148.886 8.08546C149.643 7.96007 151.13 7.70243 152.78 7.43153C153.708 7.274 154.692 7.13927 155.335 7.05976L155.438 8.22068C154.949 8.26952 154.168 8.33285 153.697 8.48987C152.622 8.86939 151.891 10.1071 151.979 11.1871C152.1 12.6846 153.542 13.1066 155.091 13.0631L154.765 14.341C152.849 14.3686 150.97 13.498 150.81 11.5286C150.704 10.2218 151.355 9.12751 151.935 8.61458C151.089 8.77456 149.254 9.12445 148.219 9.43676L148.001 8.203ZM154.212 9.21538C154.466 9.52368 154.837 10.0508 155.039 10.3907L154.374 10.7553C154.106 10.2745 153.887 9.93604 153.564 9.55121L154.212 9.21538ZM155.195 8.71543C155.448 9.01466 155.836 9.52212 156.055 9.8606L155.401 10.2425C155.116 9.77236 154.88 9.45351 154.557 9.07775L155.195 8.71543Z" fill="#61BDD1"/>
</svg>
