<svg width="282" height="110" viewBox="0 0 282 110" fill="none" xmlns="http://www.w3.org/2000/svg">
<path d="M281.962 8.86328H8.86768V109.401H281.962V8.86328Z" fill="#F5F0E7"/>
<path d="M273.565 0.470703H0.470215V101.008H273.565V0.470703Z" fill="white"/>
<path d="M273.565 0.470703H0.470215V101.008H273.565V0.470703Z" stroke="#4EAAB4" stroke-width="0.940547" stroke-linecap="round" stroke-linejoin="round"/>
<path d="M68.1592 49.5742L63.2381 50.967C62.9286 50.1468 62.472 49.3498 61.8685 48.576C61.2804 47.7868 60.4757 47.1368 59.4543 46.6261C58.433 46.1154 57.1253 45.8601 55.5313 45.8601C53.3493 45.8601 51.5309 46.363 50.0763 47.3689C48.6371 48.3594 47.9174 49.6206 47.9174 51.1527C47.9174 52.5145 48.4127 53.59 49.4031 54.3793C50.3935 55.1685 51.941 55.8262 54.0457 56.3524L59.3383 57.6523C62.5262 58.4261 64.9017 59.61 66.4647 61.2039C68.0277 62.7824 68.8092 64.8174 68.8092 67.309C68.8092 69.3517 68.2211 71.1778 67.045 72.7872C65.8844 74.3967 64.2594 75.6657 62.1703 76.5942C60.0811 77.5227 57.6515 77.987 54.8814 77.987C51.2447 77.987 48.2347 77.1977 45.8515 75.6192C43.4683 74.0407 41.9594 71.7349 41.3249 68.7017L46.5247 67.4018C47.0199 69.3207 47.9561 70.76 49.3334 71.7194C50.7262 72.6789 52.5446 73.1586 54.7885 73.1586C57.342 73.1586 59.3692 72.617 60.8703 71.5337C62.3869 70.435 63.1452 69.1196 63.1452 67.5875C63.1452 66.3495 62.7119 65.3126 61.8453 64.477C60.9787 63.6258 59.6478 62.9913 57.8526 62.5735L51.9101 61.1807C48.6448 60.4069 46.2461 59.2076 44.714 57.5827C43.1975 55.9423 42.4392 53.8918 42.4392 51.4312C42.4392 49.4194 43.004 47.6397 44.1337 46.0922C45.2789 44.5447 46.8342 43.3299 48.7995 42.4478C50.7804 41.5657 53.0243 41.1246 55.5313 41.1246C59.0597 41.1246 61.8298 41.8984 63.8416 43.4459C65.8689 44.9935 67.3081 47.0362 68.1592 49.5742ZM92.562 41.5889V46.2315H74.0844V41.5889H92.562ZM79.4698 33.0465H84.9481V67.0304C84.9481 68.5779 85.1725 69.7386 85.6213 70.5124C86.0855 71.2706 86.6736 71.7813 87.3855 72.0444C88.1128 72.292 88.8788 72.4158 89.6835 72.4158C90.2871 72.4158 90.7823 72.3849 91.1692 72.323C91.5561 72.2456 91.8656 72.1837 92.0977 72.1373L93.2119 77.0584C92.8405 77.1977 92.3221 77.337 91.6567 77.4763C90.9912 77.631 90.1478 77.7084 89.1264 77.7084C87.5789 77.7084 86.0623 77.3757 84.5767 76.7102C83.1065 76.0448 81.884 75.0312 80.909 73.6693C79.9495 72.3075 79.4698 70.5897 79.4698 68.516V33.0465ZM115.369 77.987C111.933 77.987 108.97 77.2287 106.478 75.7121C104.002 74.18 102.091 72.0444 100.745 69.3053C99.4137 66.5507 98.7483 63.3473 98.7483 59.6951C98.7483 56.0429 99.4137 52.824 100.745 50.0384C102.091 47.2374 103.963 45.0554 106.362 43.4923C108.776 41.9139 111.593 41.1246 114.812 41.1246C116.669 41.1246 118.503 41.4341 120.313 42.0531C122.124 42.6722 123.772 43.6781 125.258 45.0708C126.743 46.4481 127.927 48.2742 128.809 50.5491C129.691 52.824 130.132 55.625 130.132 58.9522V61.2736H102.648V56.5381H124.561C124.561 54.5263 124.159 52.7311 123.354 51.1527C122.565 49.5742 121.435 48.3284 119.965 47.4154C118.51 46.5023 116.793 46.0458 114.812 46.0458C112.63 46.0458 110.742 46.5874 109.148 47.6707C107.569 48.7385 106.354 50.1313 105.503 51.849C104.652 53.5668 104.227 55.4084 104.227 57.3738V60.5307C104.227 63.2235 104.691 65.5061 105.619 67.3786C106.563 69.2356 107.871 70.6516 109.542 71.6266C111.214 72.5861 113.156 73.0658 115.369 73.0658C116.808 73.0658 118.108 72.8646 119.269 72.4622C120.445 72.0444 121.458 71.4254 122.31 70.6052C123.161 69.7695 123.818 68.7327 124.283 67.4947L129.575 68.9803C129.018 70.7754 128.082 72.3539 126.766 73.7158C125.451 75.0621 123.826 76.1144 121.892 76.8727C119.957 77.6155 117.783 77.987 115.369 77.987ZM138.466 90.6149V41.5889H143.758V47.2529H144.408C144.811 46.6338 145.368 45.8446 146.08 44.8851C146.807 43.9102 147.844 43.0436 149.19 42.2853C150.552 41.5115 152.394 41.1246 154.715 41.1246C157.717 41.1246 160.363 41.8752 162.654 43.3763C164.944 44.8774 166.732 47.0053 168.016 49.7599C169.3 52.5145 169.943 55.7643 169.943 59.5094C169.943 63.2854 169.3 66.5584 168.016 69.3285C166.732 72.0831 164.952 74.2187 162.677 75.7353C160.402 77.2364 157.779 77.987 154.808 77.987C152.517 77.987 150.684 77.6078 149.306 76.8495C147.929 76.0757 146.869 75.2014 146.126 74.2264C145.383 73.236 144.811 72.4158 144.408 71.7659H143.944V90.6149H138.466ZM143.851 59.4165C143.851 62.1092 144.246 64.4847 145.035 66.5429C145.824 68.5857 146.977 70.1874 148.494 71.348C150.01 72.4932 151.867 73.0658 154.065 73.0658C156.355 73.0658 158.267 72.4622 159.799 71.2552C161.346 70.0326 162.507 68.3922 163.281 66.334C164.07 64.2603 164.464 61.9545 164.464 59.4165C164.464 56.9095 164.078 54.6501 163.304 52.6383C162.545 50.611 161.393 49.0093 159.845 47.8332C158.313 46.6416 156.386 46.0458 154.065 46.0458C151.837 46.0458 149.964 46.6106 148.447 47.7403C146.931 48.8546 145.786 50.4176 145.012 52.4294C144.238 54.4257 143.851 56.7547 143.851 59.4165ZM178.299 90.6149V41.5889H183.592V47.2529H184.242C184.644 46.6338 185.201 45.8446 185.913 44.8851C186.641 43.9102 187.677 43.0436 189.024 42.2853C190.386 41.5115 192.227 41.1246 194.549 41.1246C197.551 41.1246 200.197 41.8752 202.487 43.3763C204.778 44.8774 206.565 47.0053 207.85 49.7599C209.134 52.5145 209.776 55.7643 209.776 59.5094C209.776 63.2854 209.134 66.5584 207.85 69.3285C206.565 72.0831 204.786 74.2187 202.511 75.7353C200.236 77.2364 197.613 77.987 194.641 77.987C192.351 77.987 190.517 77.6078 189.14 76.8495C187.763 76.0757 186.703 75.2014 185.96 74.2264C185.217 73.236 184.644 72.4158 184.242 71.7659H183.778V90.6149H178.299ZM183.685 59.4165C183.685 62.1092 184.079 64.4847 184.869 66.5429C185.658 68.5857 186.811 70.1874 188.327 71.348C189.844 72.4932 191.701 73.0658 193.899 73.0658C196.189 73.0658 198.1 72.4622 199.632 71.2552C201.18 70.0326 202.34 68.3922 203.114 66.334C203.903 64.2603 204.298 61.9545 204.298 59.4165C204.298 56.9095 203.911 54.6501 203.137 52.6383C202.379 50.611 201.226 49.0093 199.679 47.8332C198.147 46.6416 196.22 46.0458 193.899 46.0458C191.67 46.0458 189.798 46.6106 188.281 47.7403C186.764 48.8546 185.619 50.4176 184.845 52.4294C184.072 54.4257 183.685 56.7547 183.685 59.4165ZM218.133 77.2441V41.5889H223.611V77.2441H218.133ZM220.919 35.6463C219.851 35.6463 218.93 35.2827 218.156 34.5553C217.398 33.828 217.019 32.9536 217.019 31.9322C217.019 30.9109 217.398 30.0365 218.156 29.3092C218.93 28.5818 219.851 28.2182 220.919 28.2182C221.986 28.2182 222.899 28.5818 223.658 29.3092C224.432 30.0365 224.818 30.9109 224.818 31.9322C224.818 32.9536 224.432 33.828 223.658 34.5553C222.899 35.2827 221.986 35.6463 220.919 35.6463Z" fill="#4EAAB4"/>
<path d="M116.642 21.9555C116.538 22.0985 116.304 22.5015 116.187 22.7615C115.745 23.7755 115.017 25.1665 114.146 26.3365C115.433 27.4545 117.006 29.1185 117.773 30.0545L116.291 31.3415C115.446 30.1715 114.237 28.8455 113.015 27.6625C111.637 29.1185 109.908 30.4705 108.127 31.3155L106.788 29.9115C108.881 29.1315 110.896 27.5455 112.118 26.1805C112.976 25.2055 113.769 23.9185 114.055 22.9955H109.648C109.102 22.9955 108.387 23.0735 108.114 23.0865V21.2405C108.465 21.2925 109.258 21.3315 109.648 21.3315H114.237C114.796 21.3315 115.316 21.2535 115.576 21.1625L116.642 21.9555ZM122.713 20.7985C123.142 20.8635 123.675 20.8895 124.104 20.8895H129.33C129.772 20.8895 130.292 20.8635 130.734 20.7985V22.4755C130.292 22.4495 129.785 22.4235 129.33 22.4235H124.117C123.662 22.4235 123.116 22.4495 122.713 22.4755V20.7985ZM121.205 24.1265C121.595 24.1655 122.05 24.2045 122.453 24.2045H130.968C131.241 24.2045 131.813 24.1785 132.151 24.1265V25.8165C131.826 25.7905 131.332 25.7775 130.968 25.7775H127.835C127.757 27.1165 127.471 28.2085 127.003 29.1185C126.548 30.0155 125.547 31.0295 124.39 31.6145L122.869 30.5095C123.792 30.1585 124.702 29.4045 125.222 28.6505C125.755 27.8445 125.976 26.8695 126.028 25.7775H122.453C122.063 25.7775 121.569 25.8035 121.205 25.8295V24.1265ZM140.965 23.0475C141.212 23.6065 141.849 25.2965 142.031 25.8945L140.471 26.4405C140.315 25.8035 139.743 24.2305 139.418 23.5545L140.965 23.0475ZM145.762 23.9965C145.606 24.4125 145.528 24.6855 145.45 24.9455C145.112 26.2585 144.566 27.6105 143.682 28.7545C142.473 30.3145 140.848 31.4065 139.327 31.9785L137.962 30.5875C139.392 30.2105 141.199 29.2225 142.278 27.8705C143.162 26.7655 143.786 25.0365 143.942 23.4115L145.762 23.9965ZM137.949 23.7365C138.274 24.3995 138.898 25.9725 139.158 26.7005L137.572 27.2985C137.351 26.5965 136.701 24.8675 136.389 24.2955L137.949 23.7365ZM158.762 21.5395C158.762 21.9555 159.1 22.2935 159.503 22.2935C159.919 22.2935 160.257 21.9555 160.257 21.5395C160.257 21.1235 159.919 20.7855 159.503 20.7855C159.1 20.7855 158.762 21.1235 158.762 21.5395ZM157.956 21.5395C157.956 20.6815 158.645 19.9795 159.503 19.9795C160.361 19.9795 161.063 20.6815 161.063 21.5395C161.063 22.3975 160.361 23.0995 159.503 23.0995C159.191 23.0995 158.905 23.0085 158.671 22.8525L159.204 24.1135C158.697 24.3215 158.112 24.5685 157.683 24.7245C156.37 25.2445 154.277 25.8945 152.587 26.3105V28.7155C152.587 29.2745 152.847 29.4175 153.432 29.5345C153.822 29.5865 154.355 29.6125 154.94 29.6125C156.292 29.6125 158.398 29.4435 159.464 29.1575V31.0555C158.242 31.2375 156.266 31.3285 154.836 31.3285C153.991 31.3285 153.211 31.2765 152.652 31.1855C151.521 30.9775 150.871 30.3535 150.871 29.2355V22.1505C150.871 21.8645 150.832 21.1885 150.767 20.7985H152.691C152.626 21.1885 152.587 21.7865 152.587 22.1505V24.6075C154.121 24.2305 155.928 23.6585 157.085 23.1645C157.501 23.0085 157.891 22.8265 158.333 22.5665C158.099 22.2935 157.956 21.9295 157.956 21.5395Z" fill="#4EAAB4"/>
</svg>
