<svg width="164" height="24" viewBox="0 0 164 24" fill="none" xmlns="http://www.w3.org/2000/svg">
<rect width="163.189" height="19.0946" transform="translate(0 4.28359) rotate(-1.50414)" fill="#FFEE00"/>
<path d="M9.02445 16.5706C9.75056 16.2418 10.3598 15.8554 10.8521 15.4114C11.3505 14.9672 11.7573 14.5011 12.0724 14.0131C12.3994 13.5187 12.6324 13.0268 12.7714 12.5374C12.9104 12.0479 13.0113 11.6142 13.0742 11.236C13.1174 11.0284 13.1453 10.8212 13.1581 10.6145C13.1709 10.4077 13.1727 10.2467 13.1636 10.1316L14.6434 10.2931C14.5935 10.4705 14.5469 10.663 14.5038 10.8706C14.4605 11.0721 14.4253 11.237 14.3983 11.3652C14.2971 11.9022 14.1535 12.4464 13.9676 12.9978C13.7876 13.543 13.5374 14.0748 13.217 14.5933C12.8796 15.1547 12.4593 15.6819 11.9561 16.1748C11.4529 16.6677 10.8448 17.0996 10.132 17.4706L9.02445 16.5706ZM8.66839 10.2951C8.78783 10.4499 8.92347 10.6437 9.07532 10.8765C9.22717 11.1093 9.37934 11.3543 9.53182 11.6114C9.69022 11.8623 9.83623 12.1044 9.96988 12.3377C10.1096 12.5708 10.224 12.7652 10.3131 12.9207L9.12954 13.6349C9.01378 13.389 8.88277 13.1404 8.73651 12.8892C8.59616 12.6318 8.45294 12.3806 8.30684 12.1354C8.16058 11.8842 8.01799 11.6572 7.87908 11.4544C7.74607 11.2454 7.62608 11.0694 7.5191 10.9265L8.66839 10.2951ZM24.1252 10.6362C24.0849 10.7222 24.0482 10.8264 24.015 10.9487C23.9877 11.0648 23.9632 11.1748 23.9417 11.2786C23.8989 11.4983 23.8417 11.7488 23.7701 12.03C23.6986 12.3112 23.6121 12.6019 23.5107 12.9021C23.4092 13.2023 23.2865 13.5 23.1425 13.7953C23.0045 14.0903 22.8448 14.3678 22.6633 14.6276C22.3997 14.9928 22.09 15.341 21.7344 15.6721C21.3786 15.9972 20.9795 16.2931 20.5372 16.5597C20.0947 16.8203 19.6057 17.0457 19.0703 17.2359L18.0497 16.1788C18.6466 16.0173 19.1607 15.8247 19.592 15.6009C20.0293 15.3708 20.4082 15.1179 20.7289 14.8423C21.0494 14.5607 21.327 14.2619 21.5616 13.9461C21.7551 13.6859 21.9178 13.4054 22.0495 13.1044C22.1873 12.8032 22.2978 12.4998 22.3808 12.194C22.47 11.888 22.5294 11.6071 22.5591 11.3513C22.4681 11.3537 22.3164 11.3577 22.104 11.3633C21.8977 11.3687 21.6519 11.3751 21.3667 11.3826C21.0876 11.3899 20.7933 11.3977 20.4838 11.4058C20.1804 11.4138 19.8861 11.4215 19.6009 11.429C19.3157 11.4365 19.0578 11.4432 18.8272 11.4493C18.6027 11.4552 18.4328 11.4597 18.3175 11.4627C18.1112 11.4681 17.908 11.4765 17.7079 11.4878C17.5139 11.499 17.3564 11.5122 17.2353 11.5275L17.2016 10.2441C17.2989 10.2477 17.4114 10.2538 17.5391 10.2626C17.6669 10.2714 17.8007 10.28 17.9406 10.2885C18.0803 10.2909 18.1987 10.2908 18.2958 10.2883C18.3868 10.2859 18.5233 10.2823 18.7054 10.2775C18.8874 10.2727 19.0968 10.2672 19.3334 10.261C19.5701 10.2548 19.8158 10.2484 20.0707 10.2417C20.3316 10.2348 20.5895 10.228 20.8444 10.2213C21.0992 10.2147 21.3389 10.2084 21.5634 10.2025C21.788 10.1966 21.9821 10.1915 22.146 10.1872C22.3159 10.1827 22.4342 10.1796 22.501 10.1779C22.592 10.1755 22.7042 10.1695 22.8375 10.1599C22.9707 10.1443 23.0945 10.1198 23.209 10.0864L24.1252 10.6362ZM28.4029 15.7156C28.3999 15.6003 28.3949 15.4122 28.3881 15.1513C28.381 14.8843 28.373 14.5779 28.3639 14.232C28.3547 13.88 28.345 13.5129 28.335 13.1306C28.325 12.7483 28.3153 12.3812 28.3061 12.0293C28.2967 11.6712 28.2884 11.3557 28.2812 11.0826C28.2741 10.8096 28.2688 10.6093 28.2654 10.4819C28.2613 10.3241 28.2474 10.1423 28.2238 9.93649C28.2062 9.7305 28.1802 9.54901 28.1457 9.39204L29.5657 9.35476C29.5516 9.513 29.538 9.68946 29.5249 9.88411C29.5117 10.0727 29.5075 10.2611 29.5124 10.4492C29.5169 10.6191 29.523 10.8497 29.5306 11.1409C29.5383 11.4322 29.5468 11.7568 29.5562 12.1148C29.5654 12.4668 29.5749 12.8278 29.5846 13.198C29.5942 13.5621 29.6034 13.914 29.6123 14.2538C29.6213 14.5937 29.6291 14.891 29.6358 15.1459C29.6423 15.3946 29.647 15.5737 29.6499 15.6829C29.6521 15.7678 29.6583 15.8891 29.6685 16.0467C29.6786 16.1983 29.6949 16.3557 29.7174 16.5191C29.7399 16.6824 29.7558 16.8278 29.7652 16.955L28.3453 16.9923C28.3648 16.8096 28.3805 16.5967 28.3923 16.3535C28.4041 16.1103 28.4077 15.8977 28.4029 15.7156ZM29.2726 11.7215C29.5781 11.7924 29.9206 11.8867 30.3002 12.0042C30.6796 12.1157 31.0622 12.2362 31.4482 12.3657C31.8342 12.4953 32.1958 12.6254 32.5332 12.7562C32.8766 12.8808 33.162 12.9978 33.3895 13.1072L32.9037 14.3769C32.6453 14.2501 32.3597 14.124 32.0467 13.9986C31.7336 13.8672 31.4145 13.742 31.0896 13.623C30.7707 13.5039 30.4551 13.3937 30.1427 13.2926C29.8364 13.1914 29.5578 13.1015 29.3068 13.0231L29.2726 11.7215ZM35.5419 10.4366C35.7367 10.4557 35.9435 10.4685 36.1622 10.4749C36.3869 10.4751 36.5842 10.473 36.7541 10.4685C37.1303 10.4586 37.509 10.4274 37.8902 10.3749C38.2775 10.3222 38.6492 10.2578 39.0055 10.1817C39.3616 10.0995 39.6841 10.009 39.9729 9.91034L40.0371 10.9652C39.7779 11.0388 39.4672 11.1168 39.1051 11.1992C38.7488 11.2753 38.3711 11.343 37.9718 11.402C37.5725 11.455 37.1786 11.4866 36.7902 11.4968C36.6082 11.5016 36.423 11.5034 36.2348 11.5023C36.0465 11.5011 35.8521 11.4971 35.6515 11.4903L35.5419 10.4366ZM39.0467 8.97828C39.0143 9.13094 38.9709 9.32943 38.9166 9.57374C38.8623 9.81806 38.7992 10.0748 38.7274 10.3438C38.6616 10.6127 38.5896 10.8788 38.5115 11.1419C38.3895 11.5823 38.2257 12.0512 38.0202 12.5484C37.8146 13.0457 37.5905 13.5312 37.3479 14.0052C37.1054 14.4791 36.8584 14.9015 36.607 15.2725L35.4908 14.7371C35.6905 14.4768 35.8863 14.1893 36.0785 13.8746C36.2706 13.5598 36.4503 13.2363 36.6177 12.904C36.7851 12.5717 36.9345 12.252 37.0661 11.945C37.2036 11.6317 37.3116 11.3495 37.39 11.0985C37.4969 10.7739 37.5876 10.4132 37.6622 10.0166C37.7427 9.61368 37.7844 9.2361 37.7873 8.88383L39.0467 8.97828ZM41.251 11.7531C41.2439 11.9476 41.243 12.1419 41.2481 12.3361C41.2591 12.5241 41.2702 12.7181 41.2816 12.9182C41.2913 13.0576 41.3021 13.2364 41.3139 13.4547C41.3316 13.6668 41.3497 13.894 41.3682 14.1364C41.3865 14.3728 41.4016 14.6001 41.4134 14.8184C41.4311 15.0304 41.4417 15.2002 41.445 15.3276C41.4523 15.6067 41.4014 15.8631 41.2922 16.0967C41.1828 16.3243 41.0024 16.5081 40.751 16.6483C40.5057 16.7884 40.1646 16.8641 39.7277 16.8756C39.3515 16.8855 39.0102 16.8367 38.7038 16.7294C38.3975 16.6282 38.1505 16.4707 37.9627 16.257C37.7748 16.0373 37.6764 15.7605 37.6676 15.4268C37.6598 15.1295 37.7317 14.8604 37.8833 14.6196C38.0347 14.3727 38.2573 14.1787 38.5511 14.0373C38.8508 13.8898 39.2131 13.8105 39.6379 13.7993C40.1718 13.7853 40.6654 13.8482 41.1184 13.9882C41.5712 14.122 41.9797 14.2995 42.3438 14.5207C42.7078 14.7419 43.0203 14.9644 43.2813 15.1883L42.697 16.1783C42.5293 16.0369 42.3369 15.878 42.1197 15.7016C41.9087 15.5249 41.6706 15.3612 41.4055 15.2102C41.1465 15.0592 40.8639 14.936 40.5578 14.8408C40.2578 14.7455 39.9348 14.7024 39.5889 14.7114C39.328 14.7183 39.12 14.7754 38.965 14.8827C38.8099 14.99 38.7345 15.1255 38.7388 15.2894C38.7433 15.4593 38.8136 15.5941 38.9498 15.6937C39.0921 15.7932 39.2876 15.8397 39.5364 15.8332C39.7427 15.8277 39.9057 15.7901 40.0253 15.7201C40.1448 15.6441 40.2271 15.5418 40.2723 15.4131C40.3173 15.2783 40.3377 15.129 40.3334 14.9651C40.3297 14.8256 40.3185 14.6285 40.2996 14.374C40.2808 14.1194 40.2582 13.8377 40.2319 13.5287C40.2116 13.2195 40.1914 12.9104 40.1711 12.6012C40.1509 12.2921 40.1315 12.0193 40.1132 11.783L41.251 11.7531ZM42.8292 12.1944C42.6494 12.0534 42.4269 11.9044 42.1617 11.7474C41.8964 11.5904 41.6223 11.4428 41.3394 11.3045C41.0623 11.1599 40.8195 11.0449 40.6107 10.9593L41.1696 10.0429C41.3354 10.1114 41.5228 10.1975 41.732 10.3014C41.9471 10.3989 42.1624 10.5026 42.3778 10.6123C42.5993 10.7219 42.8025 10.8319 42.9876 10.9424C43.1786 11.0467 43.3328 11.1398 43.4504 11.2217L42.8292 12.1944ZM45.1047 8.66437L46.1969 8.63569L46.2691 11.3845C46.2796 11.785 46.279 12.2253 46.2674 12.7053C46.2617 13.1851 46.2323 13.6808 46.1789 14.1923C46.1314 14.6975 46.0532 15.1884 45.9443 15.6649C45.8354 16.1414 45.6858 16.5734 45.4956 16.961C45.4212 16.9022 45.3223 16.838 45.1991 16.7684C45.076 16.7048 44.9498 16.6413 44.8206 16.5779C44.6916 16.5206 44.5812 16.4779 44.4894 16.45C44.6681 16.087 44.8065 15.6917 44.9045 15.2641C45.0024 14.8304 45.0729 14.3913 45.1159 13.9469C45.1587 13.4965 45.1805 13.0557 45.1813 12.6245C45.1881 12.1871 45.1867 11.7864 45.1771 11.4223L45.1047 8.66437ZM45.9512 8.64214L52.35 8.47412L52.4066 10.6313L46.0078 10.7993L45.9861 9.97105L51.2926 9.83171L51.2797 9.34019L45.9732 9.47954L45.9512 8.64214ZM49.7007 14.4186L51.9489 14.3596L51.9644 14.9512L49.7162 15.0102L49.7007 14.4186ZM49.1248 11.2185L52.6837 11.125L52.7014 11.7986L49.1425 11.892L49.1248 11.2185ZM51.7304 14.3653L51.9125 14.3605L52.0756 14.3289L52.6457 14.5325C52.4849 14.8829 52.2743 15.189 52.014 15.4509C51.7598 15.7126 51.462 15.936 51.1207 16.121C50.7856 16.3059 50.4161 16.4583 50.0124 16.5782C49.6087 16.6981 49.1832 16.7973 48.7359 16.8759C48.6968 16.7737 48.6329 16.6509 48.5441 16.5075C48.4616 16.37 48.3826 16.2536 48.3072 16.1585C48.7007 16.1117 49.0754 16.0442 49.4314 15.9559C49.7932 15.8614 50.1242 15.7464 50.4242 15.611C50.7303 15.4755 50.9933 15.3137 51.213 15.1258C51.4388 14.9377 51.6123 14.7206 51.7333 14.4745L51.7304 14.3653ZM49.7292 14.8095C49.9356 15.0409 50.205 15.2403 50.5373 15.4077C50.8755 15.5688 51.2644 15.6952 51.704 15.7869C52.1436 15.8786 52.6157 15.936 53.1203 15.9592C53.0317 16.0526 52.9408 16.1734 52.8475 16.3216C52.7542 16.4698 52.6788 16.6023 52.6211 16.7192C52.0852 16.6604 51.5877 16.5611 51.1286 16.4214C50.6695 16.2816 50.2609 16.098 49.9028 15.8706C49.5444 15.6372 49.2456 15.3566 49.0062 15.0289L49.7292 14.8095ZM49.7167 13.9901L50.5422 14.2052C50.3323 14.5386 50.052 14.8466 49.7011 15.129C49.3563 15.4113 49.0042 15.6453 48.6447 15.8308C48.601 15.7834 48.5387 15.7243 48.4579 15.6535C48.3771 15.5828 48.2933 15.5121 48.2064 15.4415C48.1194 15.3649 48.045 15.3061 47.9832 15.2652C48.3313 15.1104 48.6604 14.9226 48.9703 14.7019C49.2864 14.4811 49.5352 14.2438 49.7167 13.9901ZM49.6734 13.381L49.6813 13.6813L51.5108 13.6333L51.503 13.3329L49.6734 13.381ZM49.6538 12.6346L49.6615 12.9259L51.491 12.8778L51.4834 12.5865L49.6538 12.6346ZM48.7587 12.1936L52.3905 12.0982L52.4426 14.0825L48.8108 14.1778L48.7587 12.1936ZM49.1476 10.6987L49.9742 10.9593C49.8141 11.34 49.6025 11.7221 49.3394 12.1054C49.0821 12.4826 48.8111 12.7994 48.5263 13.0559C48.5003 12.9897 48.4555 12.9029 48.392 12.7952C48.3345 12.6874 48.2709 12.5768 48.2011 12.4632C48.1374 12.3495 48.0804 12.2599 48.0301 12.1945C48.2498 12.0065 48.4595 11.7824 48.6591 11.5222C48.8647 11.2556 49.0275 10.9812 49.1476 10.6987ZM47.6131 12.2692L48.4586 12.5567C48.3139 12.8276 48.1389 13.0994 47.9335 13.372C47.728 13.6385 47.5069 13.8902 47.2702 14.1272C47.0335 14.3642 46.7961 14.5708 46.5578 14.7471C46.5377 14.6747 46.4988 14.5816 46.4412 14.4678C46.3834 14.3478 46.3225 14.228 46.2587 14.1082C46.1948 13.9884 46.1376 13.8928 46.0872 13.8212C46.3797 13.6314 46.6651 13.3992 46.9433 13.1247C47.2215 12.8503 47.4447 12.5651 47.6131 12.2692ZM46.8884 13.8093L47.4997 13.1557L47.8298 13.2381L47.9256 16.888L46.9699 16.9131L46.8884 13.8093ZM47.4934 10.8332L48.3379 11.0843C48.1631 11.3621 47.9456 11.635 47.6854 11.9029C47.4253 12.1709 47.164 12.3963 46.9016 12.5793C46.8636 12.5196 46.8041 12.4483 46.723 12.3654C46.6479 12.2824 46.5698 12.1994 46.4887 12.1165C46.4135 12.0274 46.3449 11.9564 46.2827 11.9033C46.5159 11.7636 46.7423 11.5998 46.9621 11.4119C47.1818 11.2239 47.3589 11.031 47.4934 10.8332ZM55.0144 9.35143C55.684 9.41279 56.2982 9.44524 56.8569 9.44878C57.4215 9.4461 57.9431 9.42026 58.4215 9.37126C58.8392 9.32386 59.2383 9.25873 59.6187 9.17588C59.9991 9.09302 60.3728 8.98909 60.7399 8.86408L60.9131 9.90699C60.5878 10.0066 60.2349 10.0948 59.8543 10.1716C59.4738 10.2484 59.0837 10.3103 58.6842 10.3572C58.2179 10.4059 57.6783 10.4382 57.0655 10.4543C56.4585 10.4642 55.8052 10.4449 55.1056 10.3965L55.0144 9.35143ZM54.9008 11.2672C55.4543 11.3012 55.9831 11.3207 56.4872 11.3257C56.9913 11.3307 57.4646 11.3183 57.9071 11.2884C58.3496 11.2586 58.7525 11.2237 59.1158 11.1838C59.6062 11.1284 60.0263 11.0567 60.3762 10.9686C60.7259 10.8744 61.0303 10.7874 61.2893 10.7078L61.4995 11.777C61.2282 11.851 60.9295 11.9226 60.6035 11.9918C60.2774 12.0611 59.9298 12.1219 59.5608 12.1741C59.1734 12.2207 58.7282 12.2627 58.2252 12.3002C57.7281 12.3315 57.2033 12.3513 56.651 12.3598C56.0985 12.3621 55.5457 12.3554 54.9927 12.3396L54.9008 11.2672ZM57.8974 9.53076C57.8505 9.36197 57.7975 9.19637 57.7386 9.03397C57.6795 8.8655 57.6143 8.69415 57.543 8.51993L58.7682 8.35113C58.8121 8.63537 58.865 8.91634 58.9269 9.19404C58.9948 9.46551 59.0684 9.72772 59.148 9.98067C59.2335 10.2335 59.3158 10.4772 59.3949 10.712C59.4731 10.9164 59.5734 11.1506 59.6957 11.4145C59.8239 11.6723 59.9613 11.9328 60.1079 12.1961C60.2543 12.4534 60.4001 12.6864 60.5452 12.8951C60.6081 12.9785 60.6709 13.0588 60.7337 13.1361C60.8024 13.2071 60.8801 13.278 60.967 13.3486L60.4337 14.2005C60.2629 14.1686 60.0495 14.1377 59.7937 14.108C59.544 14.0782 59.2822 14.0516 59.0083 14.0285C58.7405 14.0051 58.4941 13.9843 58.2689 13.9659L58.3372 13.0988C58.5258 13.1121 58.7296 13.1249 58.9485 13.1374C59.1735 13.1497 59.353 13.1632 59.4869 13.1779C59.2335 12.7777 59.0138 12.3858 58.8276 12.002C58.6475 11.6181 58.4954 11.2608 58.3713 10.9301C58.293 10.7196 58.2275 10.5392 58.175 10.3888C58.1223 10.2323 58.0729 10.0878 58.027 9.95545C57.9869 9.81684 57.9437 9.67528 57.8974 9.53076ZM56.7038 13.333C56.5986 13.4875 56.5087 13.6478 56.4341 13.8137C56.3594 13.9735 56.3246 14.1536 56.3299 14.3538C56.3386 14.6876 56.4998 14.9262 56.8132 15.0698C57.1326 15.2072 57.5926 15.2679 58.1934 15.2522C58.6242 15.2409 59.0303 15.212 59.4116 15.1655C59.799 15.1189 60.1527 15.0611 60.4727 14.9919L60.4394 16.1496C60.1253 16.2125 59.7714 16.2643 59.3778 16.305C58.9842 16.3457 58.6023 16.3709 58.2321 16.3806C57.6253 16.3965 57.0987 16.3466 56.6524 16.2308C56.2122 16.1148 55.8672 15.9265 55.6175 15.6659C55.3676 15.3992 55.2339 15.0506 55.2165 14.6199C55.2028 14.3288 55.2324 14.0669 55.3052 13.8342C55.3839 13.5953 55.472 13.3653 55.5695 13.1442L56.7038 13.333ZM65.6463 10.4841L66.7841 10.4542L66.8981 14.7959C66.904 15.0204 66.9351 15.1623 66.9913 15.2215C67.0534 15.2746 67.1937 15.2982 67.4121 15.2925C67.4546 15.2913 67.5335 15.2893 67.6488 15.2862C67.7641 15.2832 67.8885 15.28 68.022 15.2764C68.1555 15.2729 68.2799 15.2697 68.3951 15.2666C68.5104 15.2636 68.5984 15.2613 68.6591 15.2597C68.8047 15.2559 68.9129 15.2105 68.9834 15.1237C69.0599 15.0306 69.1131 14.8592 69.143 14.6094C69.1729 14.3597 69.1907 13.9979 69.1965 13.5241C69.3265 13.6179 69.4928 13.7076 69.6954 13.7934C69.8979 13.8731 70.0755 13.9322 70.2283 13.9707C70.2067 14.5359 70.1518 14.9867 70.0635 15.323C69.975 15.6533 69.8293 15.8878 69.6265 16.0267C69.4239 16.1717 69.1375 16.2491 68.7673 16.2588C68.7188 16.2601 68.6429 16.2621 68.5398 16.2648C68.4427 16.2673 68.3304 16.2703 68.203 16.2736C68.0816 16.2768 67.9603 16.28 67.8389 16.2832C67.7175 16.2864 67.6053 16.2893 67.5021 16.292C67.405 16.2946 67.3353 16.2964 67.2928 16.2975C66.9044 16.3077 66.5997 16.2671 66.3787 16.1758C66.164 16.0903 66.0082 15.9396 65.9114 15.7235C65.8208 15.5073 65.7704 15.2081 65.7604 14.8258L65.6463 10.4841ZM65.6282 8.75393L66.316 7.88879C66.6834 8.00666 67.0576 8.15168 67.4386 8.32384C67.8196 8.49601 68.1826 8.67472 68.5275 8.85997C68.8724 9.04523 69.1686 9.22569 69.4161 9.40136L68.7221 10.376C68.4804 10.188 68.1869 9.99532 67.8417 9.79793C67.5024 9.59431 67.139 9.40043 66.7516 9.21629C66.3703 9.03199 65.9958 8.87787 65.6282 8.75393ZM64.0249 11.1733L65.0956 11.3638C65.0641 11.7836 65.0177 12.2129 64.9564 12.6518C64.895 13.0906 64.8058 13.5089 64.6888 13.9066C64.5715 14.2983 64.4137 14.6456 64.2151 14.9483L63.1802 14.3834C63.3554 14.1177 63.4992 13.8134 63.6116 13.4704C63.7241 13.1274 63.8146 12.7607 63.8833 12.3702C63.952 11.9798 63.9992 11.5808 64.0249 11.1733ZM69.2622 11.1724L70.2506 10.6546C70.5203 10.9815 70.7725 11.3362 71.0072 11.7187C71.2419 12.1011 71.4432 12.4814 71.611 12.8596C71.7848 13.2376 71.9123 13.5834 71.9934 13.897L70.9064 14.472C70.8376 14.1642 70.7223 13.818 70.5604 13.4337C70.3983 13.0432 70.2058 12.6505 69.9829 12.2556C69.76 11.8607 69.5198 11.4996 69.2622 11.1724ZM77.8656 7.54909L78.885 7.52232L79.0538 13.9484L78.0343 13.9752L77.8656 7.54909ZM75.2677 11.288L79.9298 9.15261L80.3458 10.0799L75.6935 12.2423L75.2677 11.288ZM76.0957 8.47908L77.1333 8.45183L77.2882 14.35C77.2928 14.526 77.3085 14.6592 77.3351 14.7495C77.3677 14.8337 77.4299 14.8897 77.5217 14.9177C77.6196 14.9455 77.7595 14.957 77.9416 14.9522C77.9962 14.9508 78.0812 14.9486 78.1965 14.9455C78.3178 14.9423 78.4513 14.9388 78.5969 14.935C78.7486 14.931 78.8973 14.9271 79.0429 14.9233C79.1946 14.9193 79.3281 14.9158 79.4434 14.9128C79.5648 14.9096 79.6558 14.9072 79.7165 14.9056C79.8803 14.9013 80.0039 14.8677 80.0873 14.8048C80.1707 14.7419 80.2314 14.6279 80.2696 14.463C80.3078 14.298 80.3349 14.0575 80.3508 13.7413C80.4684 13.8232 80.6192 13.9012 80.8033 13.9753C80.9933 14.0432 81.1646 14.0903 81.3171 14.1167C81.2799 14.5488 81.2129 14.8906 81.1163 15.1421C81.0197 15.3936 80.8696 15.5767 80.6662 15.6913C80.4627 15.806 80.185 15.8679 79.8331 15.8771C79.7724 15.8787 79.6753 15.8813 79.5418 15.8848C79.4083 15.8883 79.2597 15.8922 79.0958 15.8965C78.932 15.9008 78.7682 15.9051 78.6043 15.9094C78.4405 15.9137 78.2918 15.9176 78.1583 15.9211C78.0309 15.9245 77.9399 15.9269 77.8852 15.9283C77.4726 15.9391 77.1468 15.9021 76.9077 15.8173C76.6748 15.7324 76.5097 15.5758 76.4127 15.3476C76.3156 15.1194 76.2615 14.7959 76.2506 14.3772L76.0957 8.47908ZM79.7235 9.27644L79.6507 9.27835L79.8383 9.1368L80.0352 9.00411L80.7978 9.25734L80.7662 9.44034C80.7775 9.87117 80.7848 10.2657 80.7882 10.6238C80.7974 10.9758 80.8026 11.2884 80.8037 11.5616C80.8107 11.8286 80.8105 12.0533 80.8032 12.2356C80.8019 12.4178 80.7964 12.5546 80.7866 12.646C80.7801 12.8587 80.7389 13.0267 80.6632 13.1502C80.5874 13.2675 80.4805 13.3584 80.3425 13.4227C80.2106 13.4869 80.0538 13.5275 79.872 13.5444C79.6964 13.5611 79.5357 13.5714 79.3901 13.5752C79.3743 13.436 79.3429 13.2789 79.2958 13.1041C79.2485 12.9232 79.1961 12.7758 79.1384 12.6619C79.2175 12.6659 79.2995 12.6698 79.3846 12.6737C79.4696 12.6714 79.5333 12.6698 79.5758 12.6686C79.6304 12.6672 79.6726 12.654 79.7023 12.6289C79.738 12.6037 79.7609 12.5484 79.7708 12.4631C79.7757 12.4205 79.7792 12.3233 79.7813 12.1714C79.7834 12.0195 79.7811 11.8162 79.7744 11.5613C79.7676 11.3004 79.7592 10.9818 79.7493 10.6056C79.7454 10.2231 79.7368 9.78009 79.7235 9.27644ZM72.6054 9.80036L75.6182 9.72125L75.6455 10.7589L72.6327 10.838L72.6054 9.80036ZM73.6183 7.78813L74.6377 7.76136L74.7962 13.7961L73.7767 13.8228L73.6183 7.78813ZM72.5937 13.863C72.8401 13.7655 73.1285 13.6486 73.4589 13.5124C73.7891 13.3701 74.1373 13.2153 74.5033 13.0478C74.8753 12.8801 75.2445 12.7156 75.6106 12.5542L75.8817 13.5125C75.4027 13.768 74.9144 14.0207 74.417 14.2706C73.9256 14.5203 73.473 14.7447 73.0593 14.9438L72.5937 13.863ZM89.2616 9.68179C89.1303 9.77025 88.9898 9.85591 88.8402 9.93878C88.6966 10.0215 88.541 10.1076 88.3734 10.197C88.2357 10.2734 88.065 10.3629 87.8612 10.4654C87.6635 10.5678 87.4479 10.6828 87.2145 10.8103C86.9869 10.9317 86.7566 11.0622 86.5234 11.2019C86.2901 11.3356 86.072 11.4718 85.8692 11.6108C85.4995 11.8694 85.1999 12.1354 84.9702 12.4086C84.7467 12.6816 84.6391 12.979 84.6475 13.3006C84.656 13.6222 84.8203 13.8668 85.1404 14.0345C85.4605 14.1961 85.936 14.2687 86.5671 14.2521C86.8826 14.2438 87.216 14.2229 87.5673 14.1894C87.9246 14.1496 88.2755 14.101 88.6201 14.0433C88.9645 13.9796 89.2694 13.9109 89.5346 13.8372L89.5508 15.1483C89.2971 15.1975 89.019 15.2443 88.7165 15.2887C88.4202 15.3329 88.0962 15.3687 87.7448 15.3961C87.3994 15.4234 87.0295 15.4423 86.635 15.4526C86.1799 15.4646 85.7572 15.4392 85.367 15.3766C84.9829 15.3199 84.6432 15.2165 84.3478 15.0664C84.0584 14.9161 83.8283 14.7096 83.6575 14.4469C83.4927 14.184 83.4052 13.8584 83.395 13.4701C83.3848 13.0817 83.4605 12.7275 83.6222 12.4075C83.7838 12.0875 84.0067 11.7902 84.291 11.5156C84.5813 11.2408 84.8993 10.9804 85.2451 10.7345C85.4597 10.5832 85.6866 10.4375 85.9258 10.2977C86.1649 10.1517 86.398 10.012 86.6253 9.87853C86.8586 9.74489 87.074 9.62386 87.2716 9.51544C87.475 9.4008 87.6424 9.30228 87.7739 9.21989C87.9471 9.11211 88.0994 9.014 88.2307 8.92554C88.3619 8.83708 88.487 8.74271 88.6058 8.64244L89.2616 9.68179ZM84.632 7.85416C84.7943 8.25067 84.9622 8.63185 85.1357 8.9977C85.3153 9.36339 85.4913 9.70489 85.6636 10.0222C85.8419 10.3393 86.0042 10.6235 86.1505 10.8747L85.138 11.5116C84.9668 11.2367 84.7887 10.9287 84.6036 10.5874C84.4186 10.2462 84.233 9.8867 84.047 9.50903C83.8608 9.12529 83.6807 8.73836 83.5065 8.34824L84.632 7.85416ZM98.6231 8.57067C98.5882 8.62624 98.5358 8.71263 98.466 8.82984C98.4023 8.94688 98.3535 9.05443 98.3196 9.15247C98.1997 9.44102 98.0503 9.76373 97.8714 10.1206C97.6986 10.4774 97.4986 10.8378 97.2713 11.2021C97.05 11.5601 96.8129 11.8972 96.5601 12.2136C96.2303 12.6048 95.8641 12.9939 95.4613 13.381C95.0645 13.7618 94.6426 14.1159 94.1958 14.4434C93.7549 14.7647 93.3008 15.0438 92.8333 15.2807L91.87 14.3223C92.3566 14.1213 92.8267 13.8722 93.2804 13.5748C93.7341 13.2775 94.1538 12.9568 94.5394 12.6127C94.9251 12.2686 95.2564 11.9351 95.5333 11.612C95.7275 11.3762 95.9091 11.1255 96.0783 10.8599C96.2534 10.5942 96.4075 10.3321 96.5403 10.0736C96.6731 9.80901 96.7699 9.56661 96.8309 9.34641C96.7703 9.348 96.661 9.35087 96.5033 9.35501C96.3455 9.35915 96.1604 9.36401 95.948 9.36959C95.7417 9.37501 95.5233 9.38074 95.2927 9.3868C95.0621 9.39285 94.8406 9.39867 94.6282 9.40424C94.4219 9.40966 94.2399 9.41444 94.0821 9.41858C93.9243 9.42273 93.8121 9.42568 93.7453 9.42743C93.6179 9.43077 93.4846 9.44035 93.3453 9.45615C93.2059 9.46588 93.0726 9.47849 92.9455 9.49397C92.8243 9.50323 92.7304 9.51176 92.6638 9.51958L92.6299 8.22708C92.7211 8.23076 92.8336 8.23692 92.9674 8.24555C93.1012 8.25418 93.235 8.25977 93.3686 8.26234C93.5083 8.26474 93.6237 8.26475 93.7147 8.26236C93.7936 8.26029 93.918 8.25702 94.0879 8.25256C94.2578 8.2481 94.452 8.243 94.6705 8.23726C94.8889 8.23153 95.1134 8.22563 95.344 8.21958C95.5807 8.21336 95.8052 8.20747 96.0176 8.20189C96.236 8.19615 96.4241 8.19121 96.5819 8.18707C96.7397 8.18293 96.855 8.1799 96.9278 8.17799C97.128 8.17273 97.3097 8.15581 97.4729 8.12724C97.6422 8.09851 97.772 8.06777 97.8622 8.03504L98.6231 8.57067ZM96.6586 11.455C96.9002 11.6369 97.1578 11.8487 97.4313 12.0905C97.7048 12.3323 97.9755 12.5832 98.2435 12.8434C98.5114 13.1035 98.7579 13.3551 98.9829 13.5982C99.2138 13.835 99.4074 14.0424 99.5639 14.2205L98.5499 15.1489C98.3173 14.8453 98.051 14.5304 97.7509 14.2043C97.457 13.8781 97.1449 13.5553 96.8147 13.2361C96.4904 12.9107 96.1605 12.6036 95.825 12.3148L96.6586 11.455ZM107.688 7.9592C107.692 8.10483 107.747 8.22787 107.853 8.32832C107.958 8.4227 108.084 8.46798 108.23 8.46416C108.375 8.46033 108.498 8.40852 108.599 8.30872C108.7 8.20286 108.748 8.07711 108.744 7.93147C108.74 7.78584 108.685 7.6628 108.579 7.56235C108.474 7.4619 108.348 7.41359 108.202 7.41741C108.057 7.42124 107.934 7.47608 107.833 7.58195C107.733 7.68781 107.684 7.81356 107.688 7.9592ZM107.124 7.97402C107.119 7.77377 107.162 7.59045 107.255 7.42407C107.354 7.25145 107.484 7.11445 107.645 7.01306C107.806 6.91166 107.987 6.85834 108.187 6.85308C108.388 6.84782 108.571 6.89159 108.737 6.98438C108.904 7.07716 109.038 7.20723 109.139 7.37459C109.247 7.53572 109.303 7.71641 109.308 7.91665C109.313 8.11083 109.267 8.2912 109.168 8.45774C109.075 8.62413 108.948 8.76105 108.787 8.86851C108.626 8.9699 108.445 9.02323 108.245 9.02849C108.044 9.03375 107.861 8.98998 107.695 8.89719C107.528 8.79834 107.391 8.66835 107.284 8.50722C107.182 8.34593 107.129 8.16819 107.124 7.97402ZM102.242 11.8184C102.339 11.5608 102.429 11.2913 102.513 11.0098C102.602 10.722 102.68 10.4285 102.745 10.1293C102.809 9.82397 102.865 9.52193 102.912 9.22316C102.965 8.92423 103 8.62881 103.016 8.33691L104.352 8.57508C104.33 8.66067 104.306 8.76151 104.278 8.8776C104.251 8.99369 104.227 9.10666 104.205 9.21653C104.184 9.32639 104.168 9.41789 104.158 9.49102C104.132 9.64959 104.094 9.84185 104.046 10.0678C103.997 10.2938 103.939 10.5351 103.873 10.7919C103.807 11.0426 103.738 11.2964 103.666 11.5533C103.599 11.804 103.529 12.0366 103.456 12.2511C103.355 12.5452 103.232 12.852 103.089 13.1716C102.951 13.4909 102.802 13.7985 102.639 14.0942C102.483 14.3898 102.329 14.6549 102.177 14.8897L100.889 14.3861C101.17 14.0022 101.429 13.5795 101.666 13.1178C101.909 12.656 102.101 12.2229 102.242 11.8184ZM106.734 11.5092C106.637 11.2689 106.53 11.0136 106.413 10.7434C106.297 10.4732 106.174 10.2032 106.046 9.9333C105.917 9.66342 105.792 9.40864 105.671 9.16894C105.549 8.92925 105.437 8.72269 105.335 8.54926L106.536 8.12608C106.631 8.29967 106.743 8.50926 106.871 8.75487C106.999 9.00047 107.127 9.26125 107.256 9.53719C107.384 9.80707 107.51 10.077 107.632 10.3471C107.755 10.6171 107.865 10.8601 107.961 11.0762C108.045 11.2744 108.137 11.5088 108.235 11.7795C108.339 12.05 108.444 12.3326 108.549 12.6274C108.659 12.916 108.761 13.1987 108.853 13.4756C108.951 13.7524 109.034 14.0022 109.101 14.2251L107.765 14.6974C107.677 14.3414 107.576 13.9798 107.463 13.6123C107.35 13.2449 107.231 12.8836 107.107 12.5287C106.988 12.1735 106.864 11.8337 106.734 11.5092ZM112.41 7.46177C112.57 7.56686 112.759 7.6955 112.975 7.84769C113.192 7.99988 113.415 8.16709 113.644 8.3493C113.88 8.52529 114.1 8.69864 114.305 8.86936C114.51 9.04007 114.678 9.19354 114.809 9.32976L113.905 10.3008C113.786 10.1764 113.631 10.0286 113.438 9.8576C113.245 9.68657 113.037 9.50986 112.814 9.32749C112.59 9.14512 112.37 8.97176 112.154 8.80743C111.937 8.6431 111.745 8.50544 111.578 8.39445L112.41 7.46177ZM111.431 13.5537C111.903 13.4745 112.346 13.3687 112.762 13.2364C113.177 13.104 113.562 12.9542 113.916 12.7871C114.27 12.6199 114.593 12.4475 114.886 12.2697C115.394 11.9467 115.858 11.5824 116.278 11.1766C116.699 10.7709 117.064 10.3514 117.374 9.91819C117.685 9.47891 117.929 9.05352 118.106 8.64202L118.85 9.90678C118.63 10.3194 118.355 10.7334 118.026 11.1489C117.703 11.5643 117.334 11.9626 116.919 12.3439C116.504 12.7191 116.054 13.0588 115.57 13.363C115.266 13.5592 114.937 13.747 114.583 13.9263C114.23 14.0995 113.854 14.2551 113.457 14.3931C113.066 14.5369 112.656 14.6509 112.227 14.7351L111.431 13.5537ZM121.032 7.69078C121.203 7.70452 121.394 7.71468 121.607 7.72123C121.819 7.72173 122.002 7.71998 122.153 7.716L126.741 7.59554C126.874 7.59203 127.02 7.58821 127.178 7.58406C127.341 7.57369 127.462 7.56444 127.541 7.5563C127.538 7.65962 127.535 7.79327 127.534 7.95727C127.532 8.1152 127.532 8.26091 127.536 8.39441L127.66 13.1093C127.664 13.2671 127.672 13.4521 127.683 13.6643C127.701 13.8764 127.715 14.0491 127.724 14.1824L126.404 14.2171C126.407 14.0834 126.406 13.9377 126.402 13.7799C126.404 13.6159 126.403 13.452 126.398 13.2882L126.28 8.78262L122.193 8.88993C121.999 8.89503 121.793 8.90348 121.574 8.91528C121.362 8.92693 121.193 8.94049 121.065 8.95598L121.032 7.69078ZM121.044 12.6363C121.202 12.6443 121.378 12.6518 121.573 12.6589C121.773 12.6658 121.977 12.6665 122.183 12.6611L127.098 12.532L127.129 13.7244L122.251 13.8525C122.075 13.8571 121.871 13.8685 121.641 13.8867C121.417 13.9047 121.229 13.9218 121.078 13.9379L121.044 12.6363ZM129.875 9.70836C129.984 9.71156 130.124 9.717 130.294 9.72468C130.464 9.72628 130.64 9.72773 130.823 9.72902C131.011 9.73015 131.184 9.72864 131.342 9.7245C131.493 9.72051 131.681 9.71557 131.906 9.70968C132.131 9.70378 132.373 9.69741 132.634 9.69056C132.901 9.68355 133.174 9.67638 133.453 9.66905C133.739 9.66156 134.021 9.65415 134.3 9.64682C134.579 9.63949 134.843 9.63256 135.092 9.62603C135.341 9.61949 135.562 9.61368 135.756 9.60858C135.956 9.60332 136.114 9.59918 136.23 9.59615C136.442 9.59057 136.642 9.57925 136.83 9.56217C137.017 9.53903 137.172 9.52283 137.293 9.51357L137.331 10.9426C137.227 10.9392 137.072 10.9342 136.866 10.9275C136.659 10.9208 136.459 10.92 136.264 10.9251C136.149 10.9281 135.991 10.9322 135.791 10.9375C135.591 10.9427 135.366 10.9486 135.118 10.9552C134.869 10.9617 134.605 10.9686 134.326 10.976C134.053 10.9831 133.773 10.9905 133.488 10.998C133.203 11.0054 132.927 11.0127 132.66 11.0197C132.399 11.0266 132.156 11.0329 131.932 11.0388C131.713 11.0446 131.528 11.0494 131.377 11.0534C131.116 11.0603 130.849 11.0733 130.576 11.0926C130.303 11.1059 130.082 11.1208 129.912 11.1374L129.875 9.70836ZM143.096 13.378C143.112 13.2865 143.125 13.1829 143.134 13.0673C143.149 12.9455 143.155 12.8239 143.151 12.7025C143.15 12.6358 143.146 12.5023 143.141 12.302C143.136 12.1018 143.129 11.8591 143.122 11.5739C143.114 11.2887 143.106 10.9822 143.098 10.6545C143.089 10.3208 143.08 9.98402 143.071 9.64421C143.062 9.3044 143.054 8.98582 143.046 8.68849C143.038 8.38508 143.031 8.12112 143.025 7.8966C143.019 7.66602 143.015 7.49914 143.012 7.39599C143.007 7.18967 142.99 7.01098 142.962 6.85992C142.939 6.70869 142.925 6.62709 142.919 6.61512L144.275 6.5795C144.269 6.5918 144.259 6.67707 144.245 6.83532C144.231 6.9875 144.227 7.16675 144.232 7.37306C144.235 7.47622 144.239 7.63096 144.244 7.83727C144.25 8.03752 144.256 8.27114 144.263 8.53813C144.27 8.79906 144.277 9.07819 144.285 9.37553C144.292 9.67286 144.3 9.96717 144.308 10.2584C144.315 10.5436 144.322 10.8167 144.329 11.0776C144.336 11.3325 144.342 11.5509 144.347 11.733C144.351 11.915 144.355 12.0485 144.357 12.1335C144.603 12.0177 144.857 11.8623 145.119 11.6671C145.381 11.472 145.636 11.2467 145.885 10.9912C146.139 10.7295 146.362 10.4504 146.555 10.1539L147.282 11.1367C147.042 11.4709 146.747 11.8005 146.397 12.1254C146.053 12.4502 145.697 12.748 145.328 13.0188C144.958 13.2896 144.603 13.5176 144.262 13.7026C144.166 13.7598 144.088 13.8104 144.029 13.8545C143.969 13.9046 143.919 13.9484 143.877 13.986L143.096 13.378ZM138.878 13.3521C139.272 13.0625 139.59 12.7171 139.835 12.316C140.079 11.9149 140.257 11.5216 140.369 11.1361C140.43 10.9341 140.472 10.687 140.495 10.395C140.524 10.0967 140.543 9.78044 140.552 9.44621C140.561 9.10592 140.562 8.77194 140.553 8.44426C140.55 8.11036 140.545 7.80384 140.538 7.52471C140.533 7.34267 140.52 7.18817 140.499 7.06122C140.483 6.92804 140.461 6.80412 140.434 6.68947L141.772 6.65433C141.766 6.66663 141.759 6.71845 141.749 6.80979C141.745 6.8949 141.739 6.99829 141.73 7.11998C141.727 7.23543 141.727 7.35687 141.73 7.4843C141.737 7.75129 141.742 8.06388 141.746 8.42206C141.749 8.77416 141.746 9.13553 141.738 9.50616C141.729 9.87679 141.711 10.2295 141.684 10.5642C141.656 10.8928 141.615 11.1732 141.56 11.4054C141.434 11.9248 141.237 12.4097 140.97 12.86C140.708 13.3041 140.388 13.7042 140.008 14.0602L138.878 13.3521ZM153.114 7.07608C153.065 7.53884 153 8.03243 152.916 8.55683C152.833 9.08124 152.716 9.61259 152.566 10.1509C152.406 10.7684 152.214 11.3017 151.989 11.7509C151.764 12.2001 151.512 12.5498 151.233 12.8C150.96 13.044 150.657 13.1704 150.323 13.1791C149.989 13.1879 149.677 13.0837 149.386 12.8667C149.101 12.6435 148.868 12.3338 148.688 11.9378C148.513 11.5416 148.419 11.0886 148.406 10.5789C148.392 10.051 148.485 9.55062 148.685 9.07781C148.885 8.60499 149.169 8.18463 149.536 7.81673C149.908 7.44261 150.344 7.14578 150.842 6.92624C151.346 6.70654 151.893 6.58896 152.481 6.57351C153.046 6.55869 153.555 6.63641 154.009 6.80666C154.469 6.97675 154.864 7.21838 155.194 7.53154C155.524 7.8447 155.779 8.21447 155.961 8.64084C156.142 9.06722 156.239 9.52919 156.252 10.0268C156.269 10.6639 156.153 11.2377 155.906 11.7483C155.658 12.2588 155.28 12.6846 154.773 13.0258C154.272 13.3669 153.641 13.6081 152.879 13.7496L152.168 12.6844C152.344 12.6615 152.498 12.6362 152.631 12.6085C152.764 12.5807 152.89 12.55 153.011 12.5165C153.3 12.436 153.568 12.3258 153.813 12.1858C154.064 12.0395 154.281 11.8638 154.464 11.6586C154.647 11.4473 154.786 11.2038 154.882 10.928C154.984 10.6521 155.031 10.3503 155.022 10.0226C155.013 9.66462 154.95 9.33837 154.833 9.04391C154.716 8.74944 154.548 8.49577 154.33 8.28289C154.112 8.06395 153.849 7.90082 153.543 7.79349C153.236 7.6801 152.886 7.62858 152.491 7.63893C152.006 7.65168 151.58 7.7509 151.215 7.9366C150.849 8.11622 150.542 8.34591 150.295 8.62567C150.047 8.90542 149.861 9.20482 149.735 9.52387C149.616 9.84276 149.56 10.1448 149.568 10.43C149.576 10.7334 149.619 10.9873 149.697 11.1917C149.775 11.39 149.867 11.5394 149.973 11.6399C150.085 11.7341 150.201 11.7796 150.323 11.7764C150.45 11.7731 150.573 11.7061 150.691 11.5755C150.815 11.4386 150.934 11.2351 151.048 10.965C151.163 10.6948 151.275 10.3548 151.386 9.94506C151.514 9.50449 151.62 9.03414 151.704 8.53401C151.788 8.03388 151.845 7.5466 151.875 7.07217L153.114 7.07608Z" fill="#61BDD1"/>
</svg>
