<svg width="192" height="25" viewBox="0 0 192 25" fill="none" xmlns="http://www.w3.org/2000/svg">
<rect width="191.01" height="19.5048" transform="translate(0 5.4082) rotate(-1.62236)" fill="white"/>
<path d="M9.6678 14.2015L9.76292 17.56L8.71623 17.5896L8.64973 15.2414L7.48472 15.2744L7.45611 14.2641L9.6678 14.2015ZM9.75054 17.1231C9.94134 17.4274 10.1965 17.6448 10.516 17.7755C10.8415 17.9059 11.2351 17.9737 11.6968 17.9789C11.9702 17.9833 12.2981 17.9831 12.6805 17.9783C13.0628 17.9675 13.4632 17.9531 13.8817 17.9352C14.3062 17.9171 14.7216 17.8962 15.1278 17.8726C15.5338 17.8428 15.8942 17.8084 16.2088 17.7691C16.1686 17.8492 16.1261 17.9566 16.0813 18.0915C16.0425 18.2201 16.0067 18.3517 15.9741 18.4862C15.9415 18.6207 15.9145 18.7399 15.8931 18.8438C15.6145 18.8699 15.2933 18.8911 14.9294 18.9075C14.5655 18.9239 14.1894 18.9376 13.8011 18.9486C13.4129 18.9656 13.0367 18.9763 12.6725 18.9805C12.3145 18.9907 11.9957 18.9936 11.7163 18.9894C11.1695 18.9806 10.7028 18.9057 10.3163 18.7649C9.93576 18.6238 9.604 18.3812 9.32099 18.037C9.11377 18.2251 8.9004 18.4103 8.68088 18.5926C8.4676 18.7808 8.23628 18.9756 7.98694 19.177L7.44631 18.0992C7.66131 17.9717 7.88794 17.8256 8.12618 17.661C8.36442 17.4963 8.59035 17.326 8.80398 17.1499L9.75054 17.1231ZM7.51736 11.6026L8.24384 10.8806C8.44161 11.0025 8.64303 11.1456 8.84807 11.3098C9.05902 11.4678 9.25791 11.6292 9.44475 11.7939C9.63143 11.9526 9.7784 12.1033 9.88568 12.246L9.0887 13.0519C8.99356 12.9089 8.85855 12.7518 8.68367 12.5806C8.50879 12.4095 8.31874 12.2388 8.11352 12.0685C7.90813 11.8921 7.70941 11.7368 7.51736 11.6026ZM11.2194 12.3813L11.9037 11.7789C12.1733 11.8624 12.4708 11.9663 12.7961 12.0907C13.1213 12.209 13.4346 12.3337 13.7358 12.4649C14.0432 12.5958 14.2986 12.7161 14.5021 12.8257L13.7743 13.5022C13.5889 13.386 13.3485 13.2622 13.0533 13.1309C12.7642 12.9994 12.4568 12.8685 12.1313 12.738C11.8056 12.6015 11.5016 12.4826 11.2194 12.3813ZM10.4147 12.9142L15.0474 12.783L15.0698 13.5748L11.4565 13.6771L11.5676 17.5999L10.5482 17.6288L10.4147 12.9142ZM14.5377 12.7974L15.5753 12.768L15.6823 16.5452C15.6887 16.7697 15.6663 16.9464 15.6153 17.0754C15.5702 17.1981 15.4759 17.298 15.3323 17.3749C15.1948 17.4517 15.0232 17.5021 14.8174 17.5261C14.6175 17.5439 14.381 17.5567 14.108 17.5644C14.0799 17.4316 14.0364 17.2871 13.9773 17.1309C13.9241 16.9684 13.8685 16.8273 13.8105 16.7075C13.9502 16.7096 14.0898 16.7087 14.2294 16.7047C14.3689 16.7008 14.463 16.6981 14.5115 16.6968C14.5601 16.6954 14.5932 16.6853 14.6109 16.6666C14.6345 16.6417 14.6456 16.6049 14.6442 16.5564L14.5377 12.7974ZM10.4407 10.9368L14.773 10.8141L14.7965 11.6423L10.4641 11.7651L10.4407 10.9368ZM11.0153 14.1815L14.929 14.0707L14.9507 14.8352L11.037 14.9461L11.0153 14.1815ZM11.0514 15.4557L14.9651 15.3449L14.9876 16.1367L11.0739 16.2476L11.0514 15.4557ZM12.4913 13.2288L13.4652 13.2012L13.5871 17.5063L12.6133 17.5339L12.4913 13.2288ZM14.3817 10.8252L14.6365 10.818L14.8443 10.7574L15.5052 11.2579C15.2985 11.4642 15.0646 11.6742 14.8035 11.8881C14.5484 12.1018 14.2808 12.3037 14.0008 12.4938C13.7206 12.6778 13.4428 12.8406 13.1675 12.982C13.1043 12.8927 13.0133 12.789 12.8945 12.6709C12.7819 12.5526 12.6881 12.4581 12.6132 12.3874C12.8407 12.2716 13.0676 12.1346 13.2939 11.9764C13.5261 11.8119 13.7369 11.645 13.9264 11.4757C14.122 11.3062 14.2756 11.1531 14.3871 11.0163L14.3817 10.8252ZM21.4672 12.3916L24.4616 12.3068L24.4903 13.3171L21.4958 13.4019L21.4672 12.3916ZM24.1613 12.3153L25.1716 12.2867C25.1716 12.2867 25.1724 12.3171 25.1742 12.3777C25.1759 12.4384 25.1748 12.5083 25.171 12.5873C25.173 12.6601 25.1747 12.7178 25.1759 12.7603C25.1843 13.7013 25.1857 14.4998 25.18 15.1558C25.1801 15.8055 25.1711 16.3432 25.1528 16.7688C25.1343 17.1884 25.1041 17.5171 25.0623 17.7552C25.0264 17.9869 24.9734 18.1554 24.9035 18.2606C24.8106 18.409 24.7134 18.515 24.612 18.5786C24.5105 18.6422 24.3874 18.6912 24.2427 18.7257C24.1159 18.7536 23.9585 18.7702 23.7704 18.7755C23.5885 18.7867 23.3944 18.7922 23.1879 18.792C23.1775 18.6405 23.1423 18.4684 23.0822 18.2758C23.0283 18.0891 22.9599 17.924 22.8769 17.7806C23.0475 17.8001 23.2026 17.8109 23.3424 17.813C23.488 17.8088 23.6002 17.8057 23.6791 17.8034C23.7519 17.8014 23.8092 17.7876 23.851 17.7621C23.8928 17.7367 23.9341 17.693 23.9748 17.6311C24.0213 17.5569 24.0569 17.4193 24.0815 17.2182C24.1121 17.0108 24.134 16.7127 24.1473 16.3236C24.1606 15.9346 24.1675 15.4304 24.1682 14.811C24.175 14.1914 24.1749 13.4384 24.168 12.552L24.1613 12.3153ZM22.2575 10.3835L23.2677 10.3549C23.2961 11.3561 23.3103 12.2848 23.3102 13.141C23.3102 13.9973 23.2656 14.7819 23.1765 15.4949C23.0933 16.2017 22.9322 16.8378 22.6931 17.4032C22.4602 17.9685 22.122 18.4639 21.6786 18.8894C21.6337 18.8057 21.5643 18.7135 21.4704 18.6129C21.3827 18.5182 21.2889 18.4237 21.1891 18.3294C21.0955 18.241 21.0085 18.1736 20.9283 18.1273C21.2477 17.8268 21.4992 17.4887 21.6829 17.113C21.8725 16.7312 22.0123 16.3082 22.1024 15.8441C22.1984 15.3738 22.2598 14.862 22.2867 14.3086C22.3133 13.7492 22.3205 13.1448 22.3082 12.4953C22.2957 11.8398 22.2788 11.1359 22.2575 10.3835ZM17.2535 16.3823L21.3583 16.266L21.38 17.0305L17.2752 17.1468L17.2535 16.3823ZM17.0824 15.1665L21.4239 15.0435L21.4463 15.8354L17.1049 15.9584L17.0824 15.1665ZM16.8489 11.1014L21.4452 10.9713L21.4682 11.7813L16.8718 11.9115L16.8489 11.1014ZM18.6581 12.9084L19.6684 12.8798L19.8138 18.0131L18.8035 18.0417L18.6581 12.9084ZM17.6497 10.432L18.6418 10.4039L18.6996 12.4427L17.7075 12.4708L17.6497 10.432ZM19.5156 10.3792L20.5258 10.3506L20.5836 12.3893L19.5733 12.4179L19.5156 10.3792ZM16.9575 17.8299C17.3389 17.7887 17.7779 17.7429 18.2744 17.6924C18.7768 17.6356 19.3034 17.5752 19.8542 17.511C20.4109 17.4406 20.9616 17.3733 21.5063 17.3093L21.5396 18.1646C21.0133 18.2342 20.4838 18.3008 19.9512 18.3645C19.4188 18.4342 18.9076 18.5003 18.4175 18.5628C17.9334 18.625 17.4918 18.6831 17.0925 18.7369L16.9575 17.8299ZM18.0786 13.353L18.0974 14.0174L20.3091 13.9547L20.2903 13.2903L18.0786 13.353ZM17.1203 12.6423L21.2615 12.525L21.3218 14.6548L17.1806 14.7721L17.1203 12.6423ZM29.9301 11.4506C30.2102 11.4791 30.5235 11.4975 30.8698 11.5059C31.2221 11.5081 31.5773 11.5041 31.9353 11.494C32.2991 11.4776 32.6477 11.4556 32.9809 11.4279C33.3139 11.3942 33.6015 11.3617 33.8435 11.3306L33.8768 12.5047C33.5983 12.5369 33.2925 12.5668 32.9593 12.5945C32.6259 12.616 32.2833 12.6318 31.9313 12.6418C31.5794 12.6518 31.2334 12.6555 30.8932 12.653C30.559 12.6442 30.2489 12.6317 29.9631 12.6156L29.9301 11.4506ZM30.7683 15.3163C30.7362 15.469 30.7127 15.6063 30.698 15.7282C30.683 15.844 30.6773 15.9626 30.6807 16.0839C30.6835 16.181 30.7103 16.2714 30.7612 16.3549C30.812 16.4324 30.8868 16.5001 30.9856 16.5581C31.0903 16.6098 31.222 16.6485 31.3806 16.6744C31.5451 16.694 31.7427 16.7006 31.9732 16.6941C32.3798 16.6826 32.7615 16.6535 33.1185 16.607C33.4753 16.5544 33.8528 16.4829 34.251 16.3927L34.304 17.6209C34.0143 17.6838 33.6788 17.7358 33.2974 17.777C32.922 17.818 32.4765 17.8458 31.9607 17.8604C31.178 17.8825 30.5918 17.7686 30.2021 17.5185C29.8123 17.2623 29.6108 16.9006 29.5975 16.4334C29.5925 16.2575 29.5995 16.0751 29.6185 15.8863C29.6433 15.6913 29.6767 15.4778 29.7187 15.2458L30.7683 15.3163ZM28.5111 10.8804C28.4886 10.9418 28.4637 11.0275 28.4364 11.1376C28.4092 11.2477 28.3819 11.3547 28.3545 11.4587C28.3331 11.5626 28.3171 11.642 28.3065 11.6969C28.292 11.8249 28.2663 11.9926 28.2297 12.2001C28.199 12.4014 28.166 12.63 28.1307 12.8861C28.1014 13.1359 28.0722 13.3918 28.0432 13.6537C28.0141 13.9156 27.9909 14.1683 27.9735 14.4117C27.9622 14.6549 27.9591 14.8676 27.9643 15.0496C27.9667 15.1345 27.9694 15.2316 27.9725 15.3408C27.9817 15.4499 27.9967 15.5497 28.0174 15.6402C28.057 15.5358 28.0996 15.4314 28.1452 15.3268C28.1908 15.2223 28.2364 15.1178 28.2821 15.0133C28.3275 14.9027 28.3671 14.7983 28.4007 14.7002L28.9777 15.1302C28.8997 15.3814 28.8193 15.6509 28.7364 15.9386C28.6595 16.2262 28.5883 16.4985 28.5227 16.7554C28.463 17.006 28.4173 17.2138 28.3855 17.3787C28.3752 17.4457 28.3653 17.5219 28.3555 17.6072C28.3519 17.6923 28.3507 17.7592 28.3521 17.8077C28.3535 17.8563 28.3551 17.9139 28.357 17.9806C28.3651 18.0533 28.3731 18.1199 28.3809 18.1804L27.3271 18.2831C27.2272 17.9701 27.1334 17.5538 27.0458 17.034C26.9581 16.5082 26.9054 15.9358 26.8879 15.3169C26.8783 14.9771 26.8836 14.6308 26.904 14.278C26.9244 13.9253 26.9512 13.5875 26.9846 13.2647C27.0178 12.9358 27.0488 12.6374 27.0777 12.3694C27.1126 12.1012 27.1427 11.8787 27.1681 11.7018C27.1766 11.5741 27.1877 11.4311 27.2015 11.2728C27.2211 11.1083 27.2319 10.9531 27.2338 10.8073L28.5111 10.8804ZM39.4696 10.2513C39.4378 10.4161 39.4116 10.5626 39.3909 10.6907C39.3703 10.8188 39.3525 10.9438 39.3378 11.0657C39.3171 11.1938 39.292 11.3797 39.2625 11.6235C39.2388 11.861 39.2101 12.132 39.1762 12.4366C39.1482 12.7349 39.1176 13.0485 39.0844 13.3774C39.0571 13.7 39.0297 14.0166 39.002 14.3271C38.9744 14.6376 38.952 14.9206 38.935 15.1761C38.924 15.4315 38.9207 15.635 38.925 15.7867C38.9356 16.1629 39.056 16.4479 39.2862 16.6418C39.5223 16.8294 39.8648 16.9169 40.3138 16.9042C40.7386 16.8921 41.0949 16.8244 41.3829 16.7008C41.6707 16.5712 41.8877 16.4041 42.0337 16.1996C42.1797 15.9951 42.2492 15.7684 42.2421 15.5197C42.2334 15.2102 42.143 14.9122 41.9709 14.6256C41.8047 14.3327 41.566 14.051 41.2547 13.7805L42.5303 13.4711C42.8445 13.8448 43.0763 14.2026 43.2256 14.5445C43.3809 14.8801 43.464 15.2421 43.475 15.6305C43.4879 16.0856 43.3689 16.4958 43.1182 16.8612C42.8674 17.2266 42.5021 17.5162 42.0224 17.7302C41.5487 17.944 40.9781 18.0604 40.3107 18.0793C39.8374 18.0927 39.4136 18.0318 39.0394 17.8967C38.6651 17.7616 38.3704 17.5391 38.1551 17.2295C37.9399 16.9198 37.8251 16.5131 37.8109 16.0095C37.8055 15.8214 37.8137 15.5722 37.8352 15.2619C37.8566 14.9455 37.8832 14.5986 37.9151 14.2212C37.9528 13.8376 37.9904 13.4509 38.028 13.0612C38.0653 12.6654 38.0972 12.291 38.1237 11.9381C38.1562 11.585 38.181 11.2806 38.198 11.0251C38.2041 10.8124 38.2056 10.6514 38.2026 10.5422C38.2054 10.4267 38.1992 10.3176 38.1842 10.2148L39.4696 10.2513ZM36.2522 11.4719C36.5277 11.5491 36.8271 11.6135 37.1504 11.6651C37.4735 11.7106 37.8054 11.7437 38.1461 11.7644C38.4866 11.779 38.8085 11.7821 39.1119 11.7735C39.4699 11.7633 39.8033 11.7417 40.112 11.7087C40.4208 11.6757 40.6899 11.6377 40.9195 11.5947L40.9138 12.6789C40.6414 12.7109 40.369 12.7398 40.0964 12.7658C39.8239 12.7917 39.4965 12.8101 39.1142 12.8209C38.8048 12.8297 38.4827 12.8236 38.1482 12.8027C37.8134 12.7758 37.4814 12.7396 37.1522 12.6943C36.8228 12.6429 36.5145 12.5848 36.2273 12.5201L36.2522 11.4719ZM36.125 13.7345C36.4558 13.8344 36.7889 13.91 37.1243 13.9612C37.4659 14.0123 37.8008 14.0453 38.1291 14.0603C38.4634 14.0691 38.7822 14.0691 39.0856 14.0605C39.3647 14.0526 39.6648 14.035 39.9859 14.0077C40.313 13.9802 40.6217 13.9442 40.9119 13.8995L40.9153 14.9834C40.6611 15.0149 40.4008 15.0435 40.1343 15.0693C39.8677 15.089 39.5918 15.1028 39.3066 15.1109C38.6998 15.1281 38.1165 15.1143 37.5565 15.0694C36.9964 15.0185 36.5084 14.9412 36.0925 14.8376L36.125 13.7345ZM45.1919 17.0757L53.4835 16.8409L53.508 17.7055L45.2164 17.9404L45.1919 17.0757ZM45.0821 11.2673L53.2553 11.0358L53.2796 11.8914L45.1063 12.1229L45.0821 11.2673ZM45.8286 15.7551L52.855 15.5561L52.8785 16.3843L45.8521 16.5833L45.8286 15.7551ZM48.5464 10.4041L49.6476 10.3729L49.8461 17.3811L48.7448 17.4123L48.5464 10.4041ZM51.8627 9.46301L52.3963 10.295C51.9554 10.3804 51.4718 10.4578 50.9455 10.5274C50.425 10.5907 49.8832 10.6486 49.3199 10.701C48.7566 10.7534 48.1902 10.7998 47.6205 10.8402C47.0506 10.8746 46.5018 10.9022 45.9741 10.9233C45.9645 10.796 45.9331 10.6542 45.8801 10.4978C45.8269 10.3354 45.7775 10.1971 45.7317 10.083C46.2593 10.0559 46.8018 10.0223 47.3594 9.98225C47.923 9.94199 48.4743 9.89601 49.0133 9.84431C49.5583 9.79244 50.0729 9.73536 50.5569 9.67307C51.0469 9.60454 51.4821 9.53452 51.8627 9.46301ZM47.1505 14.1874L47.1621 14.5969L51.3671 14.4778L51.3555 14.0683L47.1505 14.1874ZM47.1206 13.1316L47.132 13.532L51.3369 13.413L51.3256 13.0125L47.1206 13.1316ZM46.0354 12.4427L52.4156 12.262L52.4978 15.1654L46.1176 15.3461L46.0354 12.4427ZM57.9825 12.6326L59.102 12.6009L59.2268 17.0061L58.1073 17.0378L57.9825 12.6326ZM55.4852 12.257L61.647 12.0825L61.6753 13.0837L55.5135 13.2582L55.4852 12.257ZM55.8511 14.2415L61.4577 14.0827L61.486 15.0839L55.8794 15.2427L55.8511 14.2415ZM54.8173 16.6573L62.5992 16.4369L62.6278 17.4472L54.8459 17.6676L54.8173 16.6573ZM59.6664 15.4816L60.416 14.932C60.5708 15.037 60.7291 15.16 60.891 15.3012C61.0529 15.4423 61.2057 15.5837 61.3493 15.7254C61.4929 15.861 61.6058 15.9884 61.6881 16.1075L60.886 16.7314C60.8095 16.606 60.7025 16.4724 60.5649 16.3306C60.4271 16.1827 60.2802 16.035 60.1242 15.8876C59.9681 15.7342 59.8155 15.5988 59.6664 15.4816ZM57.8788 9.29262L59.0438 9.25962L59.0908 10.9161L57.9257 10.9491L57.8788 9.29262ZM54.6304 10.3775L62.4031 10.1573L62.4645 12.3235L61.2995 12.3565L61.2675 11.2279L55.7701 11.3836L55.8021 12.5122L54.6917 12.5437L54.6304 10.3775ZM69.2669 9.36175C69.2622 9.41047 69.2554 9.48961 69.2463 9.59917C69.2432 9.70249 69.2401 9.80885 69.2371 9.91824C69.234 10.0216 69.2301 10.0976 69.2254 10.1463C69.2227 10.2678 69.2244 10.4317 69.2302 10.638C69.2359 10.8383 69.2422 11.0628 69.2493 11.3116C69.2563 11.5603 69.2634 11.8121 69.2707 12.067C69.2838 12.3156 69.2935 12.5522 69.2999 12.7767C69.3121 12.9949 69.3203 13.1769 69.3244 13.3225L68.1759 12.9725C68.1727 12.8572 68.1684 12.7055 68.163 12.5174C68.1575 12.3232 68.1516 12.1139 68.1452 11.8894C68.1387 11.6588 68.1292 11.4313 68.1168 11.207C68.1104 10.9825 68.1017 10.7793 68.0904 10.5975C68.0792 10.4156 68.0693 10.2792 68.0606 10.1884C68.0432 10.0006 68.0234 9.83724 68.0012 9.6982C67.9789 9.55309 67.9609 9.4534 67.9472 9.39913L69.2669 9.36175ZM64.1565 10.636C64.4235 10.6284 64.7268 10.6168 65.0664 10.6011C65.406 10.5854 65.7608 10.5693 66.1308 10.5528C66.5007 10.5362 66.8646 10.5198 67.2224 10.5036C67.5803 10.4874 67.9169 10.4748 68.2324 10.4659C68.5478 10.4509 68.8208 10.4401 69.0513 10.4336C69.2819 10.4271 69.5337 10.4199 69.8068 10.4122C70.0796 10.3984 70.3496 10.3877 70.6166 10.3802C70.8835 10.3726 71.1262 10.3657 71.3447 10.3595C71.5692 10.3532 71.7421 10.3483 71.8635 10.3448L71.8848 11.4191C71.5993 11.415 71.2228 11.4166 70.7554 11.4238C70.2879 11.4248 69.7173 11.4349 69.0438 11.454C68.6312 11.4657 68.2127 11.4836 67.7883 11.5078C67.3637 11.5259 66.9423 11.5469 66.5239 11.5709C66.1056 11.5949 65.7025 11.6215 65.3147 11.6507C64.9267 11.6739 64.5601 11.7025 64.215 11.7365L64.1565 10.636ZM69.1567 13.1906C69.1708 13.6882 69.1219 14.1025 69.0098 14.4336C68.9038 14.7645 68.7349 15.0183 68.503 15.1949C68.271 15.3654 67.9791 15.4557 67.6271 15.4656C67.4572 15.4704 67.2772 15.4391 67.087 15.3716C66.9029 15.304 66.73 15.2026 66.5683 15.0675C66.4066 14.9324 66.2743 14.7631 66.1714 14.5595C66.0745 14.3558 66.0221 14.1144 66.0142 13.8353C66.0044 13.4894 66.0779 13.1898 66.2347 12.9363C66.3913 12.6769 66.6042 12.4735 66.8733 12.3262C67.1482 12.1727 67.4526 12.0912 67.7863 12.0817C68.1868 12.0704 68.5231 12.1519 68.7952 12.3264C69.0733 12.4946 69.2833 12.7285 69.4254 13.0282C69.5736 13.3276 69.6531 13.6684 69.6639 14.0507C69.6723 14.348 69.6325 14.6589 69.5446 14.9832C69.4566 15.3075 69.3047 15.6276 69.089 15.9434C68.8791 16.253 68.5896 16.5375 68.2205 16.7969C67.8574 17.0562 67.399 17.2726 66.8452 17.4462L65.844 16.509C66.2301 16.4191 66.5882 16.3057 66.9183 16.1689C67.2484 16.032 67.5351 15.8629 67.7784 15.6617C68.0278 15.4603 68.2182 15.2151 68.3497 14.9259C68.4872 14.6366 68.5503 14.2918 68.539 13.8913C68.5307 13.6 68.4517 13.3837 68.302 13.2422C68.1583 13.1005 67.9863 13.0325 67.7861 13.0381C67.6708 13.0414 67.5593 13.0719 67.4517 13.1296C67.344 13.1873 67.2583 13.2717 67.1947 13.3828C67.131 13.4939 67.1014 13.6284 67.1059 13.7861C67.1117 13.9924 67.1862 14.1573 67.3294 14.2808C67.4785 14.398 67.644 14.4541 67.8261 14.4489C67.9717 14.4448 68.0978 14.3957 68.2045 14.3015C68.3172 14.2073 68.3887 14.0534 68.4191 13.84C68.4495 13.6266 68.4111 13.3423 68.3039 12.987L69.1567 13.1906ZM74.7119 9.60833C74.8399 9.62292 74.9767 9.63119 75.1225 9.63313C75.2683 9.63508 75.408 9.63416 75.5414 9.63038C75.6385 9.62763 75.7842 9.6235 75.9783 9.618C76.1723 9.60644 76.3906 9.59418 76.6331 9.58124C76.8817 9.56812 77.1273 9.5551 77.3698 9.54215C77.6124 9.52921 77.8306 9.51696 78.0246 9.50539C78.2245 9.48758 78.379 9.4741 78.488 9.46494C78.6756 9.44141 78.8239 9.42203 78.9327 9.4068C79.0414 9.3855 79.1228 9.36498 79.1769 9.34523L79.7915 10.1385C79.6902 10.2082 79.5859 10.2779 79.4786 10.3478C79.3713 10.4176 79.2671 10.4934 79.1662 10.5752C79.0473 10.6636 78.9048 10.78 78.7389 10.9244C78.5728 11.0627 78.3948 11.2104 78.2049 11.3676C78.0211 11.5246 77.8402 11.6785 77.6623 11.8293C77.4905 11.9799 77.3334 12.1149 77.191 12.2343C77.3417 12.1936 77.4866 12.1652 77.6259 12.1492C77.7649 12.127 77.9072 12.1139 78.0529 12.1097C78.5686 12.0951 79.0326 12.1822 79.4448 12.3709C79.8631 12.5595 80.1954 12.8233 80.4419 13.1625C80.6942 13.4954 80.8267 13.8833 80.8392 14.3263C80.8528 14.8056 80.7437 15.2429 80.512 15.6381C80.2803 16.0333 79.922 16.3532 79.437 16.5977C78.9581 16.842 78.3516 16.9745 77.6174 16.9953C77.1987 17.0072 76.8177 16.9573 76.4745 16.8455C76.1374 16.7336 75.8685 16.5682 75.668 16.3492C75.4675 16.1302 75.3629 15.869 75.3543 15.5656C75.3473 15.3168 75.4075 15.0843 75.5349 14.8682C75.6683 14.6458 75.8545 14.4644 76.0934 14.324C76.3384 14.1835 76.6217 14.1087 76.9433 14.0996C77.362 14.0877 77.7163 14.1627 78.0063 14.3245C78.3022 14.4801 78.5299 14.6953 78.6895 14.9701C78.8552 15.2448 78.9458 15.5489 78.9613 15.8824L77.9005 16.0582C77.885 15.7247 77.7925 15.4601 77.623 15.2645C77.4594 15.0627 77.2441 14.9655 76.9771 14.9731C76.8072 14.9779 76.672 15.0273 76.5714 15.1212C76.4707 15.2091 76.4219 15.3106 76.4252 15.4259C76.43 15.5958 76.5188 15.73 76.6916 15.8283C76.8645 15.9266 77.0874 15.9719 77.3604 15.9642C77.8762 15.9496 78.3053 15.8767 78.6477 15.7456C78.99 15.6083 79.2428 15.422 79.4061 15.1867C79.5754 14.945 79.6555 14.6634 79.6464 14.3418C79.6386 14.0688 79.5469 13.8315 79.3712 13.63C79.2015 13.4284 78.9724 13.2739 78.684 13.1667C78.3955 13.0595 78.0723 13.011 77.7143 13.0211C77.3624 13.0311 77.0421 13.0857 76.7534 13.185C76.4646 13.2782 76.192 13.4104 75.9357 13.5816C75.6854 13.7466 75.439 13.9479 75.1968 14.1855C74.9604 14.4169 74.7249 14.6755 74.4901 14.9615L73.6376 14.1294C73.7976 13.9913 73.9785 13.8374 74.1802 13.6677C74.3816 13.492 74.586 13.3101 74.7932 13.1221C75.0065 12.9338 75.205 12.7582 75.3886 12.5951C75.5781 12.4258 75.7381 12.2846 75.8685 12.1716C75.993 12.0648 76.1382 11.9393 76.3041 11.7949C76.4701 11.6505 76.642 11.503 76.8199 11.3522C76.9977 11.1953 77.1665 11.0478 77.3266 10.9097C77.4865 10.7655 77.6196 10.6433 77.7261 10.5432C77.6351 10.5457 77.5169 10.5521 77.3714 10.5623C77.226 10.5725 77.0653 10.5831 76.8895 10.5942C76.7198 10.6051 76.5471 10.616 76.3713 10.6271C76.2015 10.638 76.041 10.6516 75.8896 10.668C75.7442 10.6782 75.623 10.6877 75.5261 10.6966C75.4049 10.7061 75.2778 10.7188 75.1446 10.7347C75.0115 10.7506 74.8905 10.7692 74.7818 10.7905L74.7119 9.60833ZM84.925 9.03668L90.7774 8.87093L90.8065 9.89941L84.9542 10.0652L84.925 9.03668ZM85.8622 15.4319L90.2583 15.3074L90.2871 16.3268L85.8911 16.4513L85.8622 15.4319ZM85.1895 10.9785L90.7324 10.8215L90.9031 16.8468L89.8655 16.8762L89.7234 11.8612L86.2102 11.9607L86.3541 17.0394L85.362 17.0675L85.1895 10.9785ZM86.6444 9.27947L87.6 9.2524L87.6617 11.4277L86.706 11.4548L86.6444 9.27947ZM88.1006 9.23822L89.0745 9.21064L89.1361 11.3859L88.1622 11.4135L88.1006 9.23822ZM86.8225 11.3877L87.6689 11.3637L87.6947 12.2739C87.7019 12.5287 87.6822 12.7965 87.6355 13.0771C87.5886 13.3517 87.4961 13.6215 87.3578 13.8866C87.2255 14.1454 87.0226 14.3789 86.7492 14.587C86.7053 14.5397 86.64 14.4838 86.5531 14.4195C86.4661 14.3491 86.3762 14.2818 86.2832 14.2176C86.1903 14.1534 86.1101 14.1071 86.0425 14.0787C86.2863 13.8957 86.466 13.7023 86.5817 13.4987C86.6972 13.2889 86.7702 13.0804 86.8008 12.8731C86.8373 12.6595 86.8528 12.4586 86.8475 12.2705L86.8225 11.3877ZM88.1604 11.3498L89.0069 11.3258L89.0533 12.9641C89.056 13.0612 89.0669 13.1216 89.0857 13.1454C89.1105 13.1629 89.1533 13.1708 89.2139 13.1691C89.2321 13.1686 89.2564 13.1679 89.2868 13.167C89.3232 13.166 89.3596 13.1649 89.396 13.1639C89.4384 13.1627 89.4779 13.1616 89.5143 13.1606C89.5507 13.1595 89.575 13.1588 89.5871 13.1585C89.6417 13.157 89.678 13.1529 89.6961 13.1463C89.7202 13.1395 89.7379 13.1239 89.7494 13.0992C89.8302 13.1638 89.9473 13.2272 90.1009 13.2897C90.2606 13.352 90.4045 13.3965 90.5328 13.4232C90.4785 13.6494 90.3859 13.8099 90.255 13.9047C90.1239 13.9935 89.9491 14.0409 89.7307 14.0471C89.6943 14.0481 89.6457 14.0495 89.5851 14.0512C89.5305 14.0528 89.4728 14.0544 89.4121 14.0561C89.3515 14.0578 89.2908 14.0596 89.2301 14.0613C89.1755 14.0628 89.13 14.0641 89.0936 14.0651C88.863 14.0717 88.6861 14.0433 88.5629 13.98C88.4396 13.9167 88.3515 13.8068 88.2985 13.6504C88.2455 13.4941 88.2151 13.2793 88.2074 13.0063L88.1604 11.3498ZM82.7681 9.42569L83.3929 8.65196C83.5652 8.73209 83.744 8.82419 83.9291 8.92826C84.1142 9.03232 84.2903 9.13968 84.4574 9.25032C84.6243 9.3549 84.7608 9.45731 84.8669 9.55754L84.1986 10.4054C84.1047 10.3048 83.9771 10.1961 83.8159 10.0792C83.6546 9.95623 83.4812 9.83969 83.2959 9.72956C83.1165 9.61319 82.9406 9.5119 82.7681 9.42569ZM82.4099 11.8952L82.9882 11.0864C83.1723 11.154 83.366 11.2396 83.5694 11.3432C83.7725 11.4407 83.9667 11.5445 84.152 11.6546C84.3434 11.7646 84.4982 11.8695 84.6164 11.9694L84.004 12.8612C83.8978 12.7549 83.7551 12.6466 83.5758 12.5363C83.3964 12.4199 83.2019 12.304 82.9921 12.1885C82.7884 12.0728 82.5944 11.975 82.4099 11.8952ZM82.7833 16.3936C82.9162 16.153 83.0571 15.8757 83.2061 15.5618C83.361 15.2416 83.5184 14.9032 83.6783 14.5464C83.8382 14.1897 83.986 13.8333 84.1217 13.4773L84.9305 14.0555C84.8244 14.3804 84.7032 14.7117 84.567 15.0496C84.4369 15.3873 84.3037 15.722 84.1673 16.0538C84.0308 16.3795 83.891 16.6962 83.7479 17.0039L82.7833 16.3936ZM95.7943 15.5514L98.8069 15.4661L98.8306 16.3034L95.818 16.3887L95.7943 15.5514ZM96.1117 10.6783L98.9514 10.5978L98.9738 11.3897L96.1341 11.4701L96.1117 10.6783ZM94.9831 13.9257L99.5248 13.797L99.6055 16.6458L98.5315 16.6763L98.4743 14.6557L96.0441 14.7245L96.1014 16.7451L95.0638 16.7745L94.9831 13.9257ZM96.1573 11.3237C96.3877 11.5236 96.6663 11.7131 96.9932 11.8921C97.3262 12.0709 97.6862 12.2368 98.0731 12.3898C98.4659 12.5366 98.8734 12.6678 99.2957 12.7833C99.7178 12.8928 100.136 12.9842 100.551 13.0575C100.439 13.1639 100.322 13.3069 100.199 13.4864C100.077 13.666 99.9809 13.8205 99.9117 13.95C99.5024 13.8645 99.0833 13.7518 98.6542 13.6122C98.2311 13.4663 97.8165 13.3019 97.4105 13.1191C97.0044 12.9302 96.6221 12.7254 96.2636 12.5048C95.9052 12.2842 95.5828 12.0505 95.2965 11.8035L96.1573 11.3237ZM98.7512 10.6035L98.9514 10.5978L99.1137 10.5386L99.8175 10.9468C99.5681 11.3607 99.254 11.74 98.8751 12.0847C98.5023 12.4293 98.0829 12.7387 97.6171 13.013C97.1572 13.2872 96.6721 13.5256 96.1617 13.7283C95.6512 13.931 95.1399 14.1034 94.6278 14.2454C94.5756 14.1194 94.4956 13.9729 94.3876 13.8059C94.2795 13.6329 94.1754 13.4961 94.0754 13.3957C94.5522 13.2911 95.028 13.1532 95.5029 12.9818C95.9776 12.8044 96.4274 12.6034 96.8522 12.3789C97.2768 12.1482 97.6523 11.8977 97.9786 11.6274C98.3108 11.3508 98.5697 11.058 98.7553 10.7491L98.7512 10.6035ZM92.0911 16.0206C92.2564 15.852 92.439 15.6525 92.639 15.4222C92.8389 15.1918 93.0445 14.9461 93.2557 14.6851C93.4669 14.4241 93.6721 14.1632 93.8712 13.9025L94.531 14.6854C94.3676 14.9208 94.1923 15.1626 94.005 15.4108C93.8236 15.6528 93.6391 15.8948 93.4517 16.137C93.2642 16.3791 93.0766 16.6152 92.8888 16.8452L92.0911 16.0206ZM92.3576 10.9577L92.9648 10.2026C93.1248 10.277 93.3034 10.3661 93.5007 10.4698C93.7038 10.5673 93.898 10.6681 94.0831 10.7721C94.2743 10.876 94.4347 10.9656 94.5644 11.0409L93.9325 11.8877C93.8146 11.7999 93.6631 11.704 93.478 11.6C93.2927 11.4898 93.1013 11.3769 92.9037 11.261C92.7061 11.1451 92.5241 11.044 92.3576 10.9577ZM91.835 12.7669L92.4513 12.0116C92.6173 12.0859 92.799 12.1749 92.9963 12.2786C93.1996 12.3821 93.3939 12.489 93.5792 12.5991C93.7643 12.7032 93.9188 12.799 94.0428 12.8866L93.4018 13.7336C93.2898 13.6396 93.1442 13.5375 92.965 13.4272C92.7856 13.3108 92.5941 13.1948 92.3904 13.0791C92.1928 12.9632 92.0077 12.8592 91.835 12.7669ZM96.0032 10.0619L97.0558 10.2416C96.771 10.693 96.4435 11.1364 96.0733 11.572C95.7091 12.0074 95.2896 12.4201 94.8149 12.81C94.7208 12.7034 94.5961 12.5885 94.4407 12.4654C94.2913 12.336 94.155 12.2397 94.0318 12.1764C94.4783 11.8601 94.8692 11.512 95.2046 11.1321C95.5458 10.7459 95.812 10.3892 96.0032 10.0619ZM93.8481 8.26475L94.913 8.23458L94.9715 10.3006L93.9066 10.3308L93.8481 8.26475ZM97.0064 8.17529L98.0713 8.14513L98.1298 10.2112L97.0649 10.2414L97.0064 8.17529ZM91.9512 8.82857L100.052 8.59914L100.079 9.56391L91.9785 9.79334L91.9512 8.82857ZM103.535 10.6775L103.551 11.2418L107.365 11.1338L107.349 10.5695L103.535 10.6775ZM103.577 12.1338L103.593 12.7072L107.407 12.5991L107.39 12.0257L103.577 12.1338ZM103.494 9.23034L103.51 9.79464L107.324 9.68663L107.308 9.12233L103.494 9.23034ZM102.412 8.31368L108.392 8.14431L108.544 13.5143L102.564 13.6836L102.412 8.31368ZM105.92 12.8599L107.04 12.8281L107.101 15.0034C107.105 15.1491 107.129 15.2425 107.173 15.2838C107.222 15.3188 107.332 15.3339 107.502 15.3291C107.538 15.3281 107.596 15.3264 107.675 15.3242C107.76 15.3218 107.854 15.3191 107.957 15.3162C108.06 15.3133 108.157 15.3105 108.248 15.308C108.339 15.3054 108.409 15.3034 108.458 15.302C108.561 15.2991 108.639 15.2696 108.692 15.2134C108.745 15.1573 108.781 15.0409 108.801 14.8642C108.82 14.6876 108.83 14.4201 108.832 14.0617C108.913 14.1202 109.012 14.1781 109.129 14.2355C109.252 14.2927 109.378 14.3408 109.506 14.3797C109.641 14.4184 109.754 14.4516 109.846 14.4793C109.823 14.9597 109.77 15.3317 109.687 15.5952C109.603 15.8647 109.475 16.0536 109.302 16.1617C109.129 16.2698 108.891 16.3282 108.587 16.3368C108.539 16.3382 108.472 16.3401 108.387 16.3425C108.308 16.3447 108.22 16.3472 108.123 16.3499C108.026 16.3527 107.926 16.3555 107.823 16.3584C107.726 16.3612 107.638 16.3637 107.559 16.3659C107.48 16.3682 107.419 16.3699 107.377 16.3711C107.019 16.3812 106.738 16.3466 106.536 16.2674C106.339 16.1879 106.199 16.0492 106.114 15.8512C106.036 15.653 105.992 15.384 105.982 15.0442L105.92 12.8599ZM103.71 13.2959L104.875 13.2629C104.85 13.6766 104.794 14.0577 104.707 14.4063C104.625 14.7487 104.482 15.0594 104.278 15.3384C104.079 15.6173 103.792 15.8623 103.415 16.0734C103.039 16.2905 102.546 16.4775 101.937 16.6344C101.904 16.5322 101.849 16.4214 101.773 16.3021C101.703 16.1887 101.624 16.0725 101.535 15.9536C101.453 15.8405 101.371 15.7487 101.291 15.6781C101.816 15.5661 102.234 15.4358 102.546 15.2873C102.857 15.1327 103.092 14.9591 103.25 14.7664C103.415 14.5734 103.527 14.3577 103.587 14.1192C103.647 13.8746 103.688 13.6002 103.71 13.2959ZM113.035 8.07655C113.291 8.11788 113.584 8.15817 113.913 8.19743C114.242 8.23062 114.58 8.26356 114.927 8.29624C115.28 8.32875 115.615 8.3557 115.931 8.3771C116.254 8.39226 116.53 8.40568 116.761 8.41735L116.646 9.48637C116.409 9.47487 116.129 9.4585 115.806 9.43727C115.49 9.4098 115.158 9.37973 114.811 9.34705C114.47 9.3142 114.132 9.28126 113.797 9.24824C113.462 9.21522 113.161 9.17822 112.892 9.13724L113.035 8.07655ZM117.149 10.8567C117.03 10.945 116.923 11.0301 116.829 11.1117C116.734 11.1872 116.648 11.2626 116.571 11.3376C116.464 11.4256 116.34 11.5385 116.198 11.6761C116.062 11.8135 115.92 11.9542 115.773 12.098C115.625 12.2358 115.492 12.3641 115.374 12.4828C115.261 12.6014 115.179 12.6917 115.126 12.754C115.162 12.7469 115.217 12.7484 115.29 12.7584C115.363 12.7685 115.425 12.785 115.474 12.8079C115.608 12.8466 115.72 12.9163 115.808 13.017C115.895 13.1117 115.972 13.2431 116.037 13.4113C116.07 13.4893 116.1 13.5796 116.127 13.682C116.16 13.7783 116.193 13.8745 116.226 13.9707C116.259 14.0669 116.292 14.1541 116.325 14.2321C116.371 14.3704 116.447 14.4746 116.552 14.5445C116.658 14.6144 116.798 14.6468 116.974 14.6418C117.211 14.6351 117.435 14.6227 117.647 14.6045C117.859 14.5803 118.059 14.5534 118.246 14.5238C118.433 14.4942 118.602 14.4621 118.753 14.4275L118.714 15.6218C118.594 15.6495 118.421 15.6757 118.197 15.7002C117.98 15.7307 117.753 15.7553 117.516 15.7742C117.286 15.7929 117.092 15.8044 116.934 15.8089C116.503 15.8211 116.162 15.7731 115.91 15.6648C115.664 15.5625 115.479 15.3643 115.356 15.0702C115.329 14.9799 115.296 14.8776 115.256 14.7634C115.216 14.6491 115.18 14.5378 115.146 14.4294C115.119 14.3148 115.092 14.2215 115.065 14.1493C115.012 13.9869 114.939 13.8766 114.847 13.8185C114.754 13.7543 114.662 13.7236 114.571 13.7261C114.474 13.7289 114.377 13.765 114.282 13.8345C114.187 13.8979 114.086 13.9888 113.98 14.1072C113.921 14.1696 113.848 14.2506 113.759 14.3503C113.677 14.4498 113.58 14.5618 113.468 14.6865C113.363 14.8109 113.251 14.9446 113.134 15.0876C113.022 15.2304 112.905 15.3795 112.782 15.5348C112.659 15.6901 112.536 15.8515 112.413 16.0189L111.318 15.2939C111.394 15.2189 111.486 15.1343 111.593 15.0402C111.699 14.94 111.812 14.8305 111.93 14.7118C112.006 14.6307 112.115 14.5153 112.257 14.3655C112.398 14.2097 112.56 14.0351 112.743 13.8417C112.932 13.6481 113.126 13.4421 113.327 13.2239C113.533 12.9995 113.739 12.7781 113.946 12.5597C114.152 12.3413 114.343 12.1355 114.52 11.9422C114.703 11.7427 114.862 11.5682 114.997 11.4186C114.87 11.4283 114.728 11.4414 114.57 11.458C114.413 11.4686 114.249 11.4823 114.08 11.4993C113.91 11.5101 113.743 11.527 113.58 11.5498C113.416 11.5666 113.265 11.583 113.126 11.5991C112.987 11.6152 112.863 11.6309 112.754 11.6461C112.596 11.6627 112.451 11.685 112.318 11.7131C112.185 11.7351 112.071 11.7535 111.974 11.7684L111.829 10.5155C111.932 10.5186 112.063 10.524 112.221 10.5317C112.379 10.5333 112.54 10.5287 112.704 10.518C112.789 10.5156 112.928 10.5086 113.122 10.4971C113.322 10.4853 113.552 10.4697 113.813 10.4502C114.074 10.4306 114.337 10.411 114.604 10.3913C114.876 10.3654 115.131 10.34 115.367 10.3151C115.609 10.2839 115.802 10.2572 115.947 10.2349C116.032 10.2203 116.126 10.2025 116.228 10.1814C116.337 10.1601 116.415 10.1396 116.463 10.12L117.149 10.8567ZM126.658 7.61783C126.74 7.72482 126.826 7.85296 126.915 8.00224C127.01 8.15136 127.103 8.30056 127.192 8.44985C127.281 8.59913 127.355 8.73065 127.413 8.84439L126.693 9.17447C126.597 8.98894 126.479 8.77975 126.338 8.54689C126.204 8.30779 126.074 8.10198 125.948 7.92945L126.658 7.61783ZM127.721 7.17784C127.803 7.28483 127.891 7.41591 127.987 7.5711C128.088 7.72004 128.184 7.86916 128.273 8.01844C128.368 8.16149 128.441 8.28694 128.493 8.39478L127.783 8.7246C127.68 8.53318 127.559 8.32104 127.419 8.08818C127.278 7.85532 127.142 7.65575 127.01 7.48946L127.721 7.17784ZM127.534 9.59699C127.482 9.68348 127.43 9.78818 127.379 9.91108C127.328 10.0279 127.285 10.1445 127.252 10.2608C127.181 10.53 127.077 10.8396 126.942 11.1896C126.806 11.5335 126.64 11.8904 126.444 12.2603C126.248 12.6303 126.015 12.9921 125.746 13.3459C125.33 13.8799 124.836 14.3675 124.266 14.8088C123.702 15.2498 122.996 15.6524 122.15 16.0164L121.049 15.082C121.663 14.8764 122.191 14.652 122.633 14.4087C123.076 14.1593 123.46 13.8934 123.786 13.6109C124.112 13.3284 124.401 13.0317 124.653 12.721C124.853 12.4785 125.036 12.2061 125.204 11.9038C125.377 11.6013 125.521 11.2997 125.634 10.9989C125.753 10.698 125.833 10.4346 125.875 10.2087L122.808 10.2956L123.198 9.25525C123.277 9.25302 123.407 9.24932 123.589 9.24417C123.771 9.23901 123.974 9.23326 124.199 9.2269C124.423 9.22054 124.645 9.21426 124.863 9.20808C125.088 9.20172 125.285 9.19613 125.455 9.19132C125.625 9.18651 125.737 9.18333 125.792 9.18178C125.937 9.17766 126.08 9.16452 126.219 9.14236C126.364 9.11397 126.484 9.08323 126.58 9.05014L127.534 9.59699ZM124.526 8.24297C124.422 8.40383 124.32 8.57673 124.222 8.76168C124.124 8.94664 124.049 9.08843 123.997 9.18706C123.801 9.55697 123.557 9.94342 123.265 10.3464C122.973 10.7433 122.641 11.1323 122.269 11.5132C121.903 11.888 121.506 12.2332 121.078 12.549L120.037 11.8133C120.43 11.5592 120.775 11.2975 121.071 11.028C121.367 10.7585 121.624 10.4931 121.841 10.2319C122.058 9.96463 122.245 9.71035 122.402 9.46907C122.559 9.22172 122.689 8.99942 122.793 8.80216C122.863 8.69087 122.935 8.5431 123.008 8.35883C123.088 8.16833 123.144 7.99671 123.176 7.84399L124.526 8.24297ZM133.726 14.6774C133.742 14.5859 133.754 14.4823 133.763 14.3667C133.778 14.2448 133.784 14.1232 133.78 14.0019C133.778 13.9351 133.774 13.8016 133.769 13.6014C133.763 13.4012 133.756 13.1584 133.748 12.8733C133.74 12.5881 133.731 12.2817 133.722 11.954C133.713 11.6203 133.703 11.2835 133.693 10.9437C133.684 10.6039 133.675 10.2854 133.666 9.98805C133.658 9.68467 133.65 9.42072 133.644 9.19621C133.637 8.96564 133.633 8.79878 133.63 8.69563C133.624 8.48932 133.607 8.31067 133.578 8.15966C133.556 8.00848 133.541 7.92691 133.535 7.91495L134.891 7.87654C134.885 7.88885 134.875 7.97414 134.862 8.13242C134.848 8.28463 134.844 8.46388 134.85 8.67018C134.853 8.77334 134.857 8.92806 134.863 9.13437C134.868 9.3346 134.875 9.56821 134.883 9.83519C134.89 10.0961 134.898 10.3752 134.906 10.6725C134.915 10.9699 134.923 11.2641 134.931 11.5554C134.939 11.8406 134.947 12.1136 134.955 12.3745C134.962 12.6294 134.968 12.8478 134.973 13.0299C134.978 13.2119 134.982 13.3454 134.984 13.4303C135.23 13.3141 135.484 13.1581 135.745 12.9624C136.007 12.7668 136.262 12.5409 136.51 12.2849C136.763 12.0227 136.986 11.7431 137.178 11.4462L137.907 12.4275C137.668 12.7622 137.374 13.0924 137.025 13.4181C136.682 13.7436 136.326 14.0421 135.957 14.3137C135.588 14.5852 135.233 14.8139 134.892 14.9997C134.797 15.057 134.719 15.1078 134.66 15.152C134.6 15.2023 134.55 15.2462 134.509 15.2838L133.726 14.6774ZM129.508 14.6603C129.901 14.3698 130.219 14.0238 130.463 13.6222C130.706 13.2205 130.884 12.8269 130.994 12.4412C131.055 12.239 131.097 11.9919 131.119 11.6998C131.147 11.4015 131.165 11.0852 131.174 10.7509C131.183 10.4106 131.182 10.0766 131.173 9.74897C131.17 9.41508 131.164 9.10857 131.156 8.82945C131.151 8.64742 131.137 8.49295 131.116 8.36605C131.1 8.2329 131.078 8.10903 131.05 7.99443L132.388 7.95653C132.383 7.96884 132.375 8.02067 132.365 8.11203C132.362 8.19715 132.355 8.30056 132.347 8.42226C132.344 8.53772 132.344 8.65916 132.348 8.78658C132.356 9.05356 132.361 9.36614 132.365 9.72431C132.369 10.0764 132.367 10.4378 132.36 10.8084C132.352 11.1791 132.335 11.5318 132.308 11.8665C132.281 12.1952 132.24 12.4757 132.186 12.708C132.061 13.2277 131.865 13.713 131.599 14.1638C131.338 14.6085 131.018 15.0092 130.64 15.3661L129.508 14.6603ZM142.888 7.313C142.879 7.41649 142.871 7.55033 142.863 7.7145C142.862 7.8785 142.86 8.0152 142.857 8.12459C142.858 9.02937 142.805 9.83549 142.697 10.543C142.59 11.2444 142.425 11.8684 142.204 12.4152C141.983 12.9619 141.696 13.4558 141.344 13.8969C140.992 14.332 140.569 14.7356 140.076 15.1079L138.996 14.2823C139.181 14.1677 139.377 14.0346 139.586 13.883C139.8 13.7251 139.992 13.5496 140.163 13.3565C140.452 13.0569 140.695 12.7312 140.891 12.3795C141.088 12.0217 141.241 11.6348 141.35 11.2187C141.466 10.7965 141.547 10.3357 141.593 9.8364C141.64 9.33713 141.655 8.78714 141.638 8.18644C141.636 8.11969 141.63 8.03483 141.622 7.93185C141.612 7.8228 141.6 7.71687 141.585 7.61407C141.576 7.51109 141.565 7.42336 141.55 7.35089L142.888 7.313ZM146.038 9.1731C146.028 9.24625 146.015 9.33163 146 9.42923C145.99 9.52666 145.986 9.60268 145.988 9.65728C145.987 9.85162 145.982 10.1007 145.973 10.4046C145.969 10.7084 145.957 11.0366 145.937 11.3894C145.922 11.736 145.899 12.0828 145.866 12.4298C145.84 12.7767 145.803 13.0996 145.757 13.3985C145.711 13.6913 145.651 13.9328 145.577 14.1232C145.487 14.3565 145.349 14.5335 145.164 14.6541C144.985 14.7806 144.738 14.8483 144.423 14.8573C144.162 14.8646 143.901 14.8629 143.639 14.8521C143.378 14.8474 143.135 14.8391 142.91 14.8272L142.739 13.6115C142.965 13.6476 143.19 13.6746 143.415 13.6925C143.64 13.7044 143.841 13.7078 144.017 13.7028C144.168 13.6985 144.28 13.6711 144.351 13.6205C144.423 13.5638 144.481 13.4802 144.526 13.3696C144.572 13.2468 144.612 13.0848 144.649 12.8833C144.686 12.6819 144.716 12.4563 144.739 12.2067C144.763 11.9571 144.78 11.6985 144.79 11.431C144.807 11.1633 144.815 10.905 144.814 10.6561C144.819 10.4009 144.819 10.1762 144.813 9.98205L140.371 10.1078C140.22 10.1121 140.032 10.1205 139.807 10.1329C139.583 10.1393 139.371 10.1544 139.171 10.1783L139.137 8.98597C139.332 8.99868 139.539 9.008 139.757 9.01395C139.976 9.0199 140.171 9.02047 140.341 9.01566L144.555 8.8963C144.67 8.89304 144.785 8.8837 144.9 8.8683C145.021 8.85273 145.133 8.83438 145.235 8.81326L146.038 9.1731ZM150.236 7.19598C150.384 7.27681 150.554 7.3722 150.745 7.48216C150.936 7.59212 151.131 7.70502 151.328 7.82088C151.532 7.93656 151.721 8.04964 151.894 8.16012C152.073 8.26435 152.224 8.35722 152.348 8.43874L151.694 9.46835C151.57 9.38077 151.418 9.28183 151.239 9.17152C151.06 9.06122 150.875 8.94806 150.683 8.83203C150.491 8.716 150.3 8.60604 150.109 8.50215C149.924 8.39202 149.754 8.29663 149.6 8.21598L150.236 7.19598ZM148.726 13.7061C149.07 13.6356 149.414 13.553 149.757 13.4582C150.107 13.3573 150.452 13.2351 150.795 13.0918C151.143 12.9484 151.478 12.784 151.801 12.5988C152.308 12.2929 152.778 11.9517 153.211 11.5751C153.65 11.1983 154.039 10.7986 154.379 10.376C154.726 9.9533 155.014 9.52309 155.245 9.0854L155.981 10.3034C155.574 10.9464 155.066 11.556 154.456 12.1319C153.853 12.7076 153.185 13.2215 152.451 13.6734C152.146 13.8582 151.811 14.0316 151.445 14.1938C151.085 14.3558 150.728 14.4965 150.373 14.6159C150.025 14.7411 149.714 14.8319 149.443 14.8881L148.726 13.7061ZM148.893 9.31085C149.047 9.3915 149.22 9.4868 149.411 9.59676C149.608 9.70048 149.806 9.81027 150.004 9.92613C150.201 10.042 150.386 10.1521 150.559 10.2565C150.738 10.3608 150.887 10.4537 151.005 10.5354L150.369 11.5736C150.233 11.4864 150.078 11.3905 149.905 11.2861C149.732 11.1757 149.547 11.0625 149.349 10.9466C149.158 10.8245 148.966 10.7115 148.775 10.6077C148.59 10.5036 148.417 10.4144 148.257 10.3399L148.893 9.31085ZM163.787 9.68146C163.765 9.74283 163.749 9.81009 163.739 9.88325C163.728 9.9564 163.718 10.0174 163.707 10.0663C163.693 10.1942 163.67 10.371 163.64 10.5965C163.616 10.8219 163.587 11.0717 163.552 11.3459C163.523 11.614 163.492 11.8851 163.457 12.1593C163.422 12.4336 163.39 12.6835 163.36 12.909C163.336 13.1344 163.313 13.3142 163.293 13.4483L162.046 13.4837C162.067 13.3555 162.089 13.194 162.114 12.9989C162.139 12.7979 162.166 12.5815 162.196 12.3499C162.232 12.1121 162.262 11.8744 162.285 11.6369C162.315 11.3992 162.339 11.1799 162.358 10.979C162.376 10.7781 162.387 10.6168 162.39 10.4953C162.305 10.4977 162.174 10.5014 161.998 10.5064C161.828 10.5112 161.634 10.5167 161.416 10.5229C161.203 10.5289 160.991 10.5349 160.779 10.5409C160.572 10.5468 160.393 10.5519 160.242 10.5562C160.09 10.5604 159.987 10.5634 159.932 10.5649C159.786 10.569 159.629 10.5796 159.459 10.5965C159.296 10.6072 159.15 10.6205 159.023 10.6362L158.989 9.43479C159.068 9.44469 159.163 9.45113 159.272 9.4541C159.382 9.45708 159.491 9.46005 159.6 9.46303C159.716 9.46583 159.813 9.46611 159.892 9.46388C159.983 9.4613 160.107 9.45778 160.265 9.45331C160.423 9.44884 160.596 9.44395 160.784 9.43862C160.972 9.43329 161.16 9.42796 161.348 9.42263C161.536 9.41731 161.706 9.4125 161.858 9.4082C162.016 9.40373 162.137 9.40029 162.222 9.39789C162.289 9.396 162.367 9.39073 162.458 9.38208C162.549 9.37344 162.637 9.36184 162.721 9.3473C162.806 9.32669 162.863 9.30382 162.893 9.27869L163.787 9.68146ZM158.256 13.1447C158.378 13.1534 158.518 13.1615 158.676 13.1692C158.84 13.1706 159.001 13.1691 159.159 13.1646C159.25 13.1621 159.417 13.1573 159.659 13.1505C159.908 13.1434 160.199 13.1352 160.533 13.1257C160.873 13.1161 161.222 13.1062 161.58 13.0961C161.944 13.0858 162.29 13.076 162.617 13.0667C162.951 13.0572 163.236 13.0492 163.473 13.0425C163.709 13.0358 163.861 13.0315 163.928 13.0296C164.043 13.0263 164.192 13.0191 164.374 13.0078C164.555 12.9966 164.704 12.9833 164.819 12.9679L164.852 14.142C164.791 14.1377 164.706 14.134 164.597 14.131C164.494 14.1339 164.384 14.134 164.269 14.1312C164.16 14.1343 164.062 14.137 163.978 14.1394C163.905 14.1415 163.747 14.146 163.504 14.1528C163.262 14.1597 162.973 14.1679 162.64 14.1773C162.306 14.1868 161.954 14.1968 161.584 14.2072C161.22 14.2176 160.868 14.2275 160.528 14.2371C160.194 14.2466 159.906 14.2548 159.663 14.2616C159.421 14.2685 159.263 14.273 159.19 14.275C159.032 14.2795 158.887 14.2836 158.753 14.2874C158.62 14.2973 158.465 14.3107 158.29 14.3279L158.256 13.1447ZM167.095 9.71531C167.204 9.71828 167.344 9.72343 167.514 9.73076C167.684 9.73201 167.861 9.7331 168.043 9.73401C168.231 9.73475 168.404 9.73288 168.562 9.72842C168.714 9.72412 168.902 9.71879 169.126 9.71243C169.351 9.70607 169.593 9.6992 169.854 9.69181C170.121 9.68425 170.394 9.67652 170.673 9.66861C170.959 9.66053 171.241 9.65254 171.52 9.64464C171.799 9.63673 172.063 9.62925 172.312 9.62221C172.561 9.61516 172.782 9.60889 172.976 9.60339C173.176 9.59772 173.334 9.59325 173.449 9.58999C173.662 9.58397 173.862 9.57223 174.05 9.55477C174.237 9.53124 174.392 9.51472 174.513 9.50521L174.553 10.9342C174.45 10.931 174.295 10.9263 174.088 10.92C173.882 10.9137 173.681 10.9133 173.487 10.9188C173.372 10.9221 173.214 10.9266 173.014 10.9322C172.814 10.9379 172.589 10.9443 172.34 10.9513C172.091 10.9583 171.828 10.9658 171.548 10.9737C171.275 10.9815 170.996 10.9894 170.711 10.9974C170.426 11.0055 170.15 11.0133 169.883 11.0209C169.622 11.0283 169.379 11.0352 169.155 11.0415C168.936 11.0477 168.751 11.053 168.599 11.0573C168.339 11.0646 168.072 11.0783 167.799 11.0981C167.526 11.1119 167.305 11.1273 167.135 11.1443L167.095 9.71531ZM182.074 5.92987C182.156 6.04293 182.245 6.17705 182.34 6.33223C182.442 6.48117 182.537 6.63029 182.626 6.77957C182.715 6.92886 182.786 7.05439 182.837 7.15617L182.109 7.48651C182.013 7.30705 181.894 7.10089 181.754 6.86803C181.62 6.635 181.49 6.42919 181.363 6.25059L182.074 5.92987ZM183.212 5.57884C183.3 5.69172 183.392 5.82272 183.487 5.97183C183.582 6.12095 183.675 6.27015 183.764 6.41944C183.859 6.56248 183.932 6.68793 183.984 6.79577L183.274 7.12559C183.171 6.94024 183.05 6.73114 182.91 6.49828C182.77 6.26542 182.633 6.06584 182.501 5.89955L183.212 5.57884ZM182.538 7.5381C182.504 7.59374 182.451 7.68024 182.382 7.79759C182.318 7.91476 182.27 8.02241 182.236 8.12053C182.117 8.40932 181.968 8.73234 181.79 9.0896C181.618 9.44668 181.419 9.80757 181.192 10.1723C180.972 10.5368 180.735 10.8745 180.483 11.1852C180.154 11.5832 179.789 11.9731 179.387 12.3549C178.99 12.7365 178.569 13.0916 178.123 13.42C177.683 13.7422 177.229 14.0222 176.762 14.2601L175.797 13.3037C176.283 13.1017 176.753 12.8515 177.206 12.5533C177.659 12.255 178.078 11.9335 178.463 11.5886C178.848 11.2437 179.179 10.9094 179.455 10.5858C179.649 10.3557 179.83 10.1076 179.999 9.84172C180.173 9.56959 180.326 9.30412 180.459 9.04532C180.591 8.78046 180.687 8.54089 180.748 8.32663C180.687 8.32835 180.578 8.33144 180.42 8.33591C180.263 8.34038 180.078 8.34562 179.865 8.35164C179.659 8.35748 179.44 8.36367 179.21 8.3702C178.979 8.37673 178.758 8.383 178.546 8.38902C178.339 8.39486 178.157 8.40001 177.999 8.40448C177.842 8.40895 177.729 8.41213 177.663 8.41402C177.535 8.41763 177.402 8.42444 177.262 8.43446C177.123 8.44448 176.99 8.45737 176.863 8.47311C176.742 8.48868 176.648 8.49742 176.581 8.49931L176.544 7.20688C176.636 7.21037 176.748 7.21629 176.882 7.22465C177.016 7.233 177.15 7.23832 177.283 7.24061C177.423 7.24272 177.538 7.24249 177.629 7.23991C177.708 7.23768 177.833 7.23416 178.003 7.22934C178.172 7.22453 178.367 7.21903 178.585 7.21285C178.803 7.20666 179.028 7.2003 179.259 7.19377C179.495 7.18707 179.72 7.18071 179.932 7.17469C180.151 7.16851 180.339 7.16318 180.496 7.15871C180.654 7.15424 180.769 7.15098 180.842 7.14892C181.042 7.14324 181.224 7.12899 181.388 7.10614C181.557 7.07706 181.686 7.04606 181.777 7.01314L182.538 7.5381ZM180.58 10.4264C180.822 10.6078 181.08 10.8191 181.354 11.0604C181.628 11.3016 181.899 11.552 182.168 11.8116C182.436 12.0712 182.683 12.3223 182.909 12.5648C183.14 12.8012 183.334 13.0082 183.491 13.186L182.479 14.1255C182.246 13.8164 181.979 13.499 181.678 13.1736C181.383 12.8479 181.07 12.5258 180.74 12.2073C180.415 11.8825 180.084 11.5761 179.748 11.288L180.58 10.4264Z" fill="#61BDD1"/>
</svg>
