<svg width="155" height="32" viewBox="0 0 155 32" fill="none" xmlns="http://www.w3.org/2000/svg">
<rect width="153.01" height="19.5048" transform="translate(0 12.3754) rotate(-4.63914)" fill="#FFEE00"/>
<path d="M12.7552 17.4389L13.7716 17.3565L14.4197 25.3428L13.4032 25.4253L12.7552 17.4389ZM14.4246 22.0264C14.5864 22.2934 14.7846 22.5605 15.0195 22.8277C15.2599 23.0883 15.5197 23.326 15.799 23.5409C16.0783 23.7557 16.3517 23.9345 16.619 24.0773C16.5054 24.1778 16.3824 24.3127 16.2499 24.4818C16.124 24.6564 16.0241 24.8137 15.9502 24.9537C15.6673 24.7696 15.384 24.5429 15.1003 24.2736C14.816 23.9982 14.548 23.6972 14.2962 23.3705C14.0504 23.0433 13.8318 22.7139 13.6405 22.3823L14.4246 22.0264ZM12.1615 19.5791L12.2123 20.2053L14.7806 19.9969L14.7298 19.3707L12.1615 19.5791ZM12.0451 18.1452L12.0952 18.7623L14.6635 18.5539L14.6135 17.9367L12.0451 18.1452ZM11.0124 17.352L15.5501 16.9838L15.8587 20.7864L11.321 21.1546L11.0124 17.352ZM11.0883 21.7764L16.1705 21.364L16.2486 22.326L11.1663 22.7384L11.0883 21.7764ZM12.9068 22.1221L13.7849 22.3615C13.6394 22.7448 13.4541 23.1252 13.229 23.5028C13.0033 23.8743 12.7513 24.2206 12.4728 24.5416C12.1999 24.8561 11.9143 25.1259 11.6158 25.3511C11.5208 25.2309 11.3941 25.095 11.2356 24.9435C11.0837 24.7975 10.9463 24.6807 10.8235 24.5932C11.1133 24.4114 11.3905 24.1879 11.6552 23.9228C11.9255 23.6512 12.1699 23.3604 12.3883 23.0503C12.6068 22.7402 12.7796 22.4309 12.9068 22.1221ZM8.92365 22.0068L9.82547 20.737L10.2254 25.6649L9.22706 25.7459L8.92365 22.0068ZM7.63572 18.9689L10.0679 18.7715L10.1467 19.7426L7.71452 19.9399L7.63572 18.9689ZM8.52942 17.2611L9.52772 17.1801L9.70151 19.3219L8.70322 19.4029L8.52942 17.2611ZM9.69597 20.8297C9.76743 20.8848 9.87307 20.9858 10.0129 21.1328C10.1583 21.2733 10.3112 21.4314 10.4716 21.6072C10.6315 21.7769 10.7784 21.9355 10.9122 22.083C11.0454 22.2244 11.142 22.3262 11.2019 22.3884L10.6248 23.1569C10.5474 23.0292 10.4441 22.8822 10.3149 22.7161C10.1918 22.5495 10.0593 22.3806 9.91755 22.2094C9.77527 22.0321 9.637 21.8667 9.50274 21.7132C9.37404 21.5531 9.26594 21.4218 9.17845 21.3193L9.69597 20.8297ZM9.72307 18.7995L9.92272 18.7833L10.1013 18.7322L10.6934 19.0496C10.553 19.6456 10.3571 20.234 10.1058 20.8147C9.8601 21.3888 9.58067 21.9231 9.26756 22.4174C8.95445 22.9118 8.62915 23.331 8.29166 23.6751C8.25355 23.5807 8.19909 23.4725 8.12828 23.3503C8.05698 23.2221 7.98314 23.1002 7.90677 22.9846C7.8299 22.863 7.76204 22.7771 7.70317 22.7271C8.00926 22.4464 8.29786 22.1003 8.56895 21.6885C8.84004 21.2767 9.07867 20.8402 9.28485 20.3789C9.49053 19.9115 9.642 19.4516 9.73927 18.9991L9.72307 18.7995ZM10.6435 20.4605L11.3163 20.8718C11.1863 21.0711 11.0568 21.2765 10.9278 21.4879C10.7983 21.6933 10.6787 21.8705 10.569 22.0195L10.0382 21.6698C10.1409 21.5092 10.2499 21.3146 10.3654 21.086C10.4864 20.8508 10.5791 20.6423 10.6435 20.4605ZM21.369 21.0335L24.9719 20.7411L25.0537 21.7485L21.4507 22.0409L21.369 21.0335ZM19.5498 21.6927C19.7485 22.1151 19.989 22.4518 20.2712 22.703C20.559 22.9476 20.8782 23.1287 21.2288 23.2465C21.5794 23.3642 21.9566 23.434 22.3603 23.4561C22.7701 23.4777 23.1928 23.4708 23.6285 23.4354C23.7071 23.429 23.819 23.4199 23.9642 23.4082C24.1095 23.3964 24.2668 23.3836 24.4362 23.3699C24.6116 23.3556 24.7901 23.3411 24.9716 23.3264C25.1592 23.3112 25.3316 23.2972 25.4889 23.2844C25.6457 23.2656 25.7756 23.252 25.8784 23.2437C25.8304 23.3268 25.7842 23.434 25.7401 23.5655C25.702 23.6965 25.6702 23.83 25.6447 23.9661C25.6192 24.1021 25.5985 24.2226 25.5827 24.3274L25.1743 24.3605L23.6496 24.4842C23.093 24.5294 22.5725 24.5321 22.0881 24.4922C21.6043 24.4584 21.1546 24.3578 20.7391 24.1906C20.3296 24.0228 19.9531 23.7732 19.6095 23.4418C19.2654 23.1043 18.9581 22.6573 18.6876 22.1007L19.5498 21.6927ZM20.7663 19.6847L21.8916 19.5934L22.2554 24.0767L21.1013 23.814L20.7663 19.6847ZM19.0698 17.8035L19.1706 19.0468L23.3544 18.7074L23.2535 17.464L19.0698 17.8035ZM17.896 16.8482L24.3214 16.3268L24.5909 19.6484L18.1655 20.1698L17.896 16.8482ZM18.6083 20.6729L19.7538 20.7169C19.7098 21.226 19.6333 21.7468 19.5243 22.2794C19.4208 22.8055 19.2635 23.3054 19.0522 23.7793C18.8405 24.2472 18.5594 24.6476 18.2088 24.9805C18.1484 24.9124 18.0659 24.8338 17.9613 24.7448C17.8632 24.6615 17.762 24.5783 17.6578 24.4954C17.5542 24.4186 17.4608 24.3561 17.3777 24.308C17.6894 24.0209 17.9293 23.6756 18.0976 23.2722C18.2718 22.8683 18.3955 22.441 18.4686 21.9905C18.5472 21.5335 18.5938 21.0943 18.6083 20.6729ZM26.5342 17.2526C26.7152 17.2318 26.8871 17.2118 27.05 17.1925C27.2124 17.1671 27.3357 17.148 27.4199 17.1351C27.6065 17.1078 27.8349 17.0709 28.1052 17.0247C28.3811 16.9718 28.6872 16.9165 29.0235 16.8588C29.3659 16.8005 29.7295 16.7406 30.1143 16.6789C30.499 16.6172 30.8987 16.5513 31.3132 16.4811C31.6254 16.4254 31.935 16.3759 32.2421 16.3327C32.5547 16.283 32.8497 16.2408 33.1271 16.2061C33.41 16.1648 33.657 16.1326 33.8683 16.1094L33.9716 17.2703C33.8083 17.2835 33.621 17.3018 33.4097 17.325C33.1984 17.3483 32.9877 17.3775 32.7774 17.4129C32.5726 17.4417 32.3903 17.4839 32.2304 17.5395C31.964 17.6342 31.72 17.7788 31.4983 17.9734C31.276 18.162 31.0868 18.3814 30.9305 18.6316C30.7797 18.8752 30.667 19.1371 30.5923 19.4172C30.5171 19.6913 30.4905 19.9645 30.5126 20.2367C30.5367 20.5332 30.6094 20.7922 30.731 21.0138C30.858 21.2288 31.0189 21.4106 31.2137 21.5592C31.414 21.7013 31.6426 21.8168 31.8995 21.9055C32.156 21.9883 32.4285 22.0453 32.7173 22.0767C33.0122 22.1076 33.3146 22.1196 33.6246 22.1127L33.299 23.3906C32.9158 23.3974 32.5388 23.3671 32.168 23.2997C31.8032 23.2319 31.4566 23.126 31.1282 22.9821C30.7998 22.8383 30.5079 22.6549 30.2523 22.432C30.0022 22.2026 29.7949 21.9363 29.6302 21.6329C29.471 21.3231 29.3755 20.9715 29.3436 20.5782C29.3083 20.1426 29.3454 19.7376 29.4551 19.3633C29.5643 18.983 29.7108 18.6483 29.8944 18.3594C30.0835 18.0639 30.2749 17.8321 30.4683 17.6642C30.3008 17.7021 30.0971 17.743 29.8571 17.7869C29.6231 17.8302 29.3684 17.8813 29.093 17.9402C28.8232 17.9926 28.5476 18.0484 28.2662 18.1078C27.9848 18.1672 27.7129 18.2319 27.4506 18.3019C27.1939 18.3653 26.9614 18.4268 26.753 18.4864L26.5342 17.2526ZM32.746 18.265C32.8335 18.3675 32.9258 18.491 33.0227 18.6354C33.1253 18.7732 33.225 18.9143 33.322 19.0587C33.4185 19.197 33.5019 19.3242 33.5722 19.4403L32.9075 19.8049C32.7719 19.5601 32.6419 19.3453 32.5172 19.1605C32.3987 18.9753 32.2587 18.7887 32.0973 18.6008L32.746 18.265ZM33.7286 17.765C33.8161 17.8676 33.9111 17.9878 34.0136 18.1256C34.1217 18.2569 34.2273 18.3945 34.3303 18.5384C34.4329 18.6762 34.519 18.8002 34.5889 18.9102L33.9347 19.2922C33.7941 19.06 33.6587 18.8548 33.5285 18.6765C33.4044 18.4978 33.2586 18.3148 33.0911 18.1274L33.7286 17.765ZM36.1356 15.2311L37.2247 15.1427L37.4471 17.8835C37.4795 18.2828 37.503 18.7225 37.5176 19.2024C37.5382 19.6819 37.5359 20.1784 37.5106 20.692C37.4908 21.1991 37.4396 21.6935 37.3569 22.1752C37.2742 22.657 37.1484 23.0965 36.9797 23.4939C36.9022 23.4393 36.8 23.3806 36.6731 23.3178C36.5467 23.2611 36.4173 23.2046 36.2848 23.1484C36.1528 23.0982 36.0402 23.0616 35.947 23.0387C36.1056 22.6665 36.2222 22.2643 36.2967 21.8319C36.3708 21.3935 36.4171 20.9513 36.4357 20.5052C36.4538 20.053 36.4515 19.6117 36.4288 19.1811C36.4116 18.744 36.3882 18.344 36.3588 17.981L36.1356 15.2311ZM36.9797 15.1626L43.3597 14.6449L43.5342 16.7958L37.1542 17.3135L37.0872 16.4876L42.3782 16.0583L42.3384 15.5682L37.0474 15.9976L36.9797 15.1626ZM41.0394 20.7254L43.2811 20.5435L43.3289 21.1334L41.0873 21.3153L41.0394 20.7254ZM40.2894 17.5615L43.8379 17.2736L43.8924 17.9452L40.3439 18.2331L40.2894 17.5615ZM43.0633 20.5612L43.2448 20.5464L43.4059 20.506L43.9863 20.6781C43.8449 21.0367 43.6513 21.3539 43.4058 21.6296C43.1662 21.9048 42.8811 22.1442 42.5505 22.3476C42.2259 22.5505 41.8654 22.7229 41.4688 22.8647C41.0723 23.0065 40.6529 23.1289 40.2106 23.2317C40.1659 23.1318 40.0953 23.0127 39.9989 22.8744C39.9089 22.7416 39.8237 22.6298 39.7432 22.5388C40.1336 22.4706 40.504 22.3827 40.8546 22.2751C41.2107 22.1609 41.5349 22.0281 41.8271 21.8765C42.1254 21.7244 42.3791 21.5485 42.5882 21.3488C42.8034 21.1486 42.9647 20.9224 43.0721 20.6701L43.0633 20.5612ZM41.0893 21.1142C41.3081 21.3339 41.588 21.5183 41.9289 21.6672C42.2754 21.8096 42.6707 21.9146 43.1146 21.9821C43.5586 22.0496 44.0331 22.0811 44.5383 22.0767C44.4549 22.1748 44.3707 22.3004 44.2856 22.4534C44.2006 22.6065 44.1325 22.743 44.0813 22.8628C43.543 22.8334 43.0408 22.7615 42.5748 22.6471C42.1088 22.5326 41.6907 22.3717 41.3206 22.1642C40.9501 21.9507 40.6363 21.6868 40.3794 21.3727L41.0893 21.1142ZM41.0321 20.2966L41.868 20.4663C41.6767 20.8107 41.4136 21.1335 41.0787 21.4347C40.7499 21.7355 40.4111 21.9883 40.0623 22.1932C40.0161 22.1483 39.9506 22.0927 39.8661 22.0264C39.7816 21.9602 39.694 21.8942 39.6034 21.8285C39.5123 21.7567 39.4348 21.7021 39.3708 21.6647C39.71 21.491 40.0283 21.2855 40.3257 21.0482C40.6292 20.8104 40.8646 20.5599 41.0321 20.2966ZM40.9555 19.6908L40.9798 19.9903L42.804 19.8423L42.7797 19.5428L40.9555 19.6908ZM40.8951 18.9466L40.9187 19.237L42.7428 19.089L42.7193 18.7986L40.8951 18.9466ZM39.9772 18.5552L43.5983 18.2614L43.7589 20.2398L40.1378 20.5336L39.9772 18.5552ZM40.2837 17.0413L41.1234 17.2563C40.9844 17.6452 40.794 18.0382 40.5522 18.4355C40.3159 18.8261 40.0626 19.1573 39.7923 19.4289C39.7627 19.3643 39.7133 19.28 39.6439 19.176C39.5806 19.0715 39.5111 18.9645 39.4352 18.855C39.3653 18.7449 39.3035 18.6586 39.2497 18.596C39.4589 18.3963 39.656 18.161 39.8411 17.8902C40.0317 17.6129 40.1793 17.3299 40.2837 17.0413ZM38.8374 18.6934L39.6974 18.9342C39.5677 19.2127 39.4078 19.4936 39.2177 19.777C39.027 20.0543 38.82 20.3178 38.5967 20.5673C38.3733 20.8169 38.1475 21.0362 37.9192 21.2252C37.8952 21.1541 37.8513 21.0633 37.7875 20.9527C37.7232 20.8361 37.6559 20.7198 37.5856 20.6037C37.5153 20.4876 37.453 20.3952 37.3987 20.3265C37.6804 20.121 37.9527 19.8736 38.2154 19.5843C38.4782 19.295 38.6855 18.998 38.8374 18.6934ZM38.1981 20.2708L38.7727 19.5847L39.1068 19.649L39.4021 23.2882L38.4492 23.3655L38.1981 20.2708ZM38.6394 17.2661L39.4964 17.4706C39.337 17.7576 39.1347 18.042 38.8896 18.3237C38.6445 18.6055 38.396 18.8449 38.144 19.042C38.1028 18.9844 38.0394 18.9165 37.9539 18.8381C37.8744 18.7593 37.7919 18.6808 37.7064 18.6024C37.6264 18.5176 37.554 18.4504 37.4891 18.4008C37.7142 18.2486 37.9314 18.0726 38.1405 17.8729C38.3496 17.6733 38.5159 17.471 38.6394 17.2661ZM46.9416 15.3317C46.9262 15.4426 46.9151 15.5683 46.9083 15.709C46.9074 15.8491 46.9064 15.9862 46.9051 16.1203C46.9098 16.2539 46.9157 16.3631 46.9225 16.4478C46.9327 16.6479 46.9463 16.8539 46.9635 17.0656C46.9868 17.2769 47.0105 17.4942 47.0347 17.7176C47.0645 17.9344 47.0973 18.151 47.1331 18.3673C47.2108 18.7995 47.3025 19.1788 47.4081 19.5052C47.5138 19.8316 47.6378 20.0834 47.78 20.2606C47.9218 20.4318 48.0895 20.5096 48.2831 20.4939C48.386 20.4855 48.4812 20.4199 48.5686 20.2971C48.6622 20.1738 48.7409 20.0182 48.8048 19.8303C48.8743 19.6359 48.9309 19.4334 48.9747 19.2228C49.0246 19.0117 49.0664 18.8134 49.1 18.6279L50.0974 19.6615C49.9405 20.2041 49.775 20.6408 49.6008 20.9716C49.4323 21.2959 49.2477 21.5362 49.0473 21.6925C48.8463 21.8428 48.6218 21.928 48.3737 21.9481C48.047 21.9747 47.7266 21.891 47.4125 21.6973C47.1044 21.503 46.8278 21.1722 46.5828 20.7049C46.3374 20.2315 46.1394 19.5929 45.9889 18.7891C45.9361 18.5132 45.888 18.2217 45.8449 17.9146C45.8077 17.607 45.7748 17.3143 45.7462 17.0365C45.7236 16.7582 45.705 16.5283 45.6902 16.3468C45.6799 16.2197 45.6616 16.069 45.6353 15.8945C45.6089 15.72 45.578 15.5642 45.5425 15.427L46.9416 15.3317ZM51.4962 15.1722C51.6823 15.3642 51.8661 15.602 52.0474 15.8857C52.2288 16.1694 52.3998 16.4753 52.5604 16.8033C52.721 17.1313 52.8672 17.4696 52.999 17.8183C53.1303 18.1608 53.24 18.4991 53.328 18.833C53.4216 19.1603 53.4887 19.4624 53.5294 19.7393L52.369 20.2993C52.3088 19.9327 52.2217 19.5348 52.1077 19.1056C51.9937 18.6763 51.8523 18.2463 51.6833 17.8154C51.5144 17.3845 51.3202 16.9801 51.1007 16.602C50.8873 16.2235 50.645 15.9021 50.3739 15.6379L51.4962 15.1722ZM54.3192 14.9797C54.5002 14.9589 54.6721 14.9389 54.835 14.9196C54.9974 14.8942 55.1237 14.8749 55.2139 14.8614C55.4 14.8281 55.6282 14.7882 55.8985 14.7419C56.1688 14.6956 56.4722 14.6436 56.8085 14.5859C57.1509 14.5276 57.5145 14.4677 57.8993 14.406C58.2835 14.3383 58.6829 14.2693 59.0975 14.1992C59.4101 14.1494 59.723 14.1027 60.0362 14.0591C60.3488 14.0093 60.6438 13.9671 60.9211 13.9324C61.204 13.8912 61.4481 13.8592 61.6533 13.8365L61.7566 14.9974C61.5933 15.0106 61.406 15.0289 61.1947 15.0521C60.9834 15.0754 60.7726 15.1046 60.5624 15.14C60.3576 15.1688 60.1751 15.2079 60.0147 15.2575C59.7483 15.3522 59.5042 15.4969 59.2825 15.6915C59.0663 15.8795 58.8801 16.0987 58.7238 16.3489C58.5675 16.5991 58.452 16.8642 58.3773 17.1443C58.3081 17.4179 58.2846 17.6908 58.3067 17.9631C58.3307 18.2596 58.4035 18.5186 58.525 18.7401C58.646 18.9556 58.8039 19.1377 58.9987 19.2863C59.199 19.4284 59.4276 19.5439 59.6845 19.6326C59.9409 19.7154 60.2135 19.7724 60.5023 19.8038C60.7972 19.8347 61.0996 19.8467 61.4096 19.8398L61.084 21.1177C60.7008 21.1245 60.3238 21.0942 59.953 21.0268C59.5881 20.959 59.2416 20.8531 58.9132 20.7092C58.5909 20.5649 58.3019 20.3812 58.0463 20.1584C57.7902 19.9295 57.5829 19.6631 57.4242 19.3593C57.2651 19.0494 57.1696 18.6979 57.1377 18.3046C57.1018 17.8629 57.1388 17.4549 57.2485 17.0806C57.3582 16.7063 57.5048 16.3747 57.6884 16.0857C57.8716 15.7907 58.0598 15.5592 58.2533 15.3913C58.0853 15.4232 57.8816 15.4641 57.642 15.514C57.408 15.5573 57.1534 15.6084 56.878 15.6673C56.6082 15.7197 56.3326 15.7755 56.0512 15.8349C55.7697 15.8943 55.4979 15.959 55.2356 16.029C54.9789 16.0924 54.7464 16.1539 54.538 16.2135L54.3192 14.9797ZM66.7437 12.9393C66.7206 13.1056 66.7021 13.2532 66.6882 13.3822C66.6744 13.5113 66.6632 13.637 66.6549 13.7595C66.641 13.8885 66.6257 14.0755 66.6091 14.3204C66.598 14.5589 66.5835 14.831 66.5657 15.137C66.5535 15.4364 66.5394 15.7512 66.5236 16.0813C66.5133 16.405 66.5025 16.7225 66.4913 17.034C66.48 17.3455 66.4726 17.6293 66.469 17.8854C66.4715 18.141 66.4788 18.3444 66.4911 18.4957C66.5216 18.8708 66.6568 19.1491 66.8969 19.3306C67.1425 19.5055 67.4892 19.5748 67.9369 19.5385C68.3604 19.5041 68.7127 19.4177 68.9938 19.2792C69.2744 19.1346 69.4822 18.9564 69.6173 18.7444C69.7523 18.5325 69.8098 18.3025 69.7897 18.0544C69.7646 17.7459 69.6586 17.453 69.4717 17.1758C69.2904 16.8922 69.0371 16.6234 68.712 16.3697L69.9696 15.9936C70.303 16.3502 70.5533 16.6953 70.7204 17.0288C70.8931 17.3559 70.9952 17.713 71.0266 18.1002C71.0634 18.554 70.9663 18.9699 70.7351 19.348C70.5039 19.7261 70.1544 20.0346 69.6865 20.2735C69.2248 20.512 68.6611 20.6582 67.9956 20.7122C67.5237 20.7505 67.0973 20.712 66.7164 20.5967C66.3356 20.4815 66.0295 20.2749 65.7983 19.977C65.5671 19.679 65.4311 19.279 65.3903 18.7768C65.3751 18.5893 65.3701 18.34 65.3753 18.029C65.38 17.7119 65.3883 17.3641 65.4003 16.9855C65.4177 16.6004 65.4349 16.2123 65.4519 15.8212C65.4684 15.424 65.4806 15.0484 65.4884 14.6946C65.5023 14.3402 65.511 14.035 65.5146 13.7789C65.5095 13.5662 65.5025 13.4054 65.4937 13.2965C65.4904 13.181 65.4786 13.0724 65.4581 12.9705L66.7437 12.9393ZM63.595 14.3275C63.8742 14.3901 64.1765 14.4387 64.5021 14.4731C64.8272 14.5016 65.1604 14.5172 65.5016 14.5199C65.8424 14.5166 66.1641 14.5027 66.4666 14.4782C66.8235 14.4492 67.1553 14.4101 67.4619 14.3609C67.7685 14.3116 68.0353 14.2595 68.2623 14.2046L68.3136 15.2875C68.0433 15.3338 67.7728 15.3771 67.502 15.4173C67.2312 15.4575 66.9052 15.4931 66.524 15.5241C66.2155 15.5491 65.8936 15.56 65.5584 15.5567C65.2227 15.5474 64.8892 15.5288 64.5581 15.5009C64.2265 15.4669 63.9155 15.4251 63.6253 15.3756L63.595 14.3275ZM63.5871 16.5937C63.9226 16.6761 64.2593 16.734 64.5969 16.7675C64.9407 16.8005 65.2769 16.8159 65.6055 16.8136C65.9398 16.8047 66.2582 16.788 66.5607 16.7635C66.839 16.7409 67.1377 16.7075 67.4569 16.6633C67.7822 16.6187 68.0885 16.5664 68.376 16.5065L68.4364 17.5887C68.1843 17.6335 67.9258 17.6758 67.6611 17.7156C67.3958 17.7493 67.121 17.7777 66.8367 17.8008C66.2317 17.8498 65.6484 17.8667 65.0868 17.8514C64.5248 17.83 64.0334 17.7785 63.6127 17.697L63.5871 16.5937ZM72.3302 12.5499L80.4618 11.89L80.5369 12.8157L72.4053 13.4756L72.3302 12.5499ZM73.9013 14.0119L78.0669 13.6739L78.1347 14.5088L73.9691 14.8468L73.9013 14.0119ZM74.3024 17.7157L79.2938 17.3106L79.3667 18.2091L74.3753 18.6141L74.3024 17.7157ZM72.6031 15.3505L74.7994 15.1723L74.8686 16.0254L72.6724 16.2036L72.6031 15.3505ZM74.2667 11.872L75.3466 11.7844L75.5035 13.7175L74.4235 13.8051L74.2667 11.872ZM77.2888 11.6268L78.3778 11.5384L78.5347 13.4715L77.4456 13.5599L77.2888 11.6268ZM76.0594 15.0518L77.1121 14.9663L77.2381 16.5182C77.2557 16.736 77.2453 16.9074 77.2067 17.0324C77.1676 17.1512 77.0721 17.2503 76.9202 17.3297C76.7739 17.4024 76.6014 17.453 76.4027 17.4813C76.204 17.5096 75.9746 17.5343 75.7144 17.5554C75.6799 17.4303 75.626 17.2916 75.5528 17.1392C75.4795 16.9868 75.408 16.8555 75.3381 16.7455C75.4899 16.7393 75.6353 16.7305 75.7745 16.7192C75.9197 16.7074 76.0165 16.6996 76.0649 16.6957C76.1496 16.6888 76.189 16.649 76.1831 16.5764L76.0594 15.0518ZM73.8935 18.6441L74.8251 18.9796C74.701 19.2515 74.55 19.5287 74.3719 19.8111C74.1999 20.093 73.9914 20.3383 73.7465 20.547L72.8296 20.055C73.0588 19.8781 73.2667 19.6633 73.4533 19.4106C73.6454 19.1514 73.7922 18.8959 73.8935 18.6441ZM75.3493 18.9096L76.301 18.7045C76.3973 18.9159 76.4802 19.1498 76.5497 19.406C76.6193 19.6622 76.6647 19.8839 76.6859 20.071L75.6729 20.3085C75.6642 20.1265 75.6279 19.9041 75.564 19.6413C75.5061 19.378 75.4345 19.1341 75.3493 18.9096ZM77.159 18.8085L78.027 18.4731C78.1708 18.6685 78.3072 18.8858 78.4362 19.125C78.5652 19.3643 78.6555 19.5762 78.707 19.7608L77.7868 20.1278C77.7423 19.9548 77.6611 19.7421 77.5431 19.4898C77.4257 19.2436 77.2977 19.0164 77.159 18.8085ZM78.9309 18.6921L79.7072 18.1266C79.8809 18.2404 80.0648 18.3686 80.2591 18.5112C80.4534 18.6538 80.6356 18.7974 80.8056 18.9419C80.9817 19.0859 81.1236 19.2206 81.2312 19.3458L80.3958 19.9709C80.2948 19.8512 80.1617 19.7128 79.9967 19.5556C79.8383 19.4041 79.6647 19.2537 79.476 19.1046C79.2867 18.9494 79.1051 18.8119 78.9309 18.6921ZM74.6269 15.1863L74.8175 15.1708L74.987 15.1205L75.6709 15.3299C75.5579 15.8141 75.3803 16.2518 75.138 16.643C74.8957 17.0341 74.6071 17.3803 74.2722 17.6816C73.9368 17.9767 73.5701 18.2227 73.1719 18.4194C73.1232 18.3442 73.0613 18.2579 72.9864 18.1604C72.9111 18.0569 72.8301 17.96 72.7436 17.8695C72.6626 17.7726 72.5862 17.6935 72.5142 17.6324C72.8558 17.4889 73.1726 17.3019 73.4644 17.0711C73.7558 16.8343 74.0021 16.5677 74.2034 16.2712C74.4103 15.9682 74.5551 15.6519 74.638 15.3224L74.6269 15.1863ZM77.7493 13.6997L78.0216 13.6776L78.235 13.6054L78.925 14.1158C78.6728 14.386 78.3821 14.6684 78.0528 14.9631C77.723 15.2517 77.3963 15.5036 77.0727 15.7186C77.0048 15.6328 76.9085 15.534 76.7837 15.4223C76.6645 15.3041 76.5659 15.2147 76.4879 15.154C76.6495 15.0435 76.8126 14.9145 76.9772 14.7672C77.1414 14.6138 77.2935 14.4614 77.4334 14.3099C77.5729 14.1525 77.6833 14.0126 77.7648 13.8902L77.7493 13.6997ZM78.1161 14.7296C78.312 15.0425 78.5548 15.3334 78.8446 15.6022C79.14 15.8645 79.4719 16.0903 79.8405 16.2797C80.2091 16.469 80.6045 16.6135 81.0267 16.7132C80.9474 16.7867 80.8668 16.8815 80.7849 16.9978C80.7025 17.108 80.6266 17.2238 80.5573 17.3451C80.4875 17.4604 80.4323 17.5684 80.3917 17.6691C79.9419 17.529 79.5242 17.3346 79.1386 17.0857C78.753 16.8368 78.403 16.5394 78.0887 16.1934C77.7744 15.8474 77.503 15.4675 77.2745 15.0537L78.1161 14.7296ZM79.7401 14.141L80.6682 14.6595C80.493 14.826 80.3086 14.9932 80.1152 15.1611C79.9273 15.3226 79.7419 15.4777 79.5591 15.6265C79.3758 15.7693 79.2034 15.8959 79.0419 16.0065L78.3109 15.5542C78.4654 15.432 78.6305 15.2908 78.8063 15.1303C78.9816 14.9638 79.1506 14.7948 79.3133 14.6233C79.482 14.4513 79.6243 14.2905 79.7401 14.141ZM90.5828 17.8471C90.3867 18.0579 90.1547 18.2381 89.8867 18.3877C89.6187 18.5373 89.3002 18.6271 88.9311 18.6571C88.5923 18.6846 88.3074 18.5889 88.0765 18.3702C87.8517 18.1509 87.7213 17.8204 87.6855 17.3788C87.6658 17.1367 87.6598 16.8754 87.6675 16.5946C87.6807 16.3073 87.697 16.0197 87.7163 15.7319C87.7355 15.4441 87.75 15.1719 87.7596 14.9154C87.7748 14.6523 87.7741 14.4179 87.7574 14.2121C87.7392 13.9883 87.6713 13.8263 87.5535 13.7263C87.4353 13.6201 87.2794 13.5749 87.0858 13.5906C86.874 13.6078 86.6442 13.7026 86.3963 13.875C86.1479 14.0413 85.8969 14.2505 85.6433 14.5025C85.3897 14.7545 85.1494 15.0206 84.9225 15.3009C84.7016 15.5807 84.5099 15.8459 84.3476 16.0966L84.2251 14.6998C84.3242 14.5699 84.4548 14.4162 84.617 14.2386C84.7853 14.0605 84.9742 13.8747 85.1838 13.681C85.3995 13.4869 85.6252 13.3042 85.861 13.1328C86.1024 12.9549 86.3462 12.8072 86.5924 12.6898C86.8447 12.5718 87.0919 12.5031 87.3339 12.4834C87.6606 12.4569 87.9317 12.4958 88.1473 12.6001C88.3684 12.6979 88.5387 12.8455 88.6582 13.0428C88.7773 13.2341 88.8471 13.4569 88.8677 13.711C88.8869 13.9469 88.8926 14.2053 88.885 14.4861C88.8768 14.7608 88.8631 15.042 88.8438 15.3298C88.8245 15.6176 88.8111 15.9019 88.8034 16.1827C88.8018 16.463 88.8103 16.7181 88.8289 16.948C88.8388 17.069 88.8771 17.1663 88.944 17.2401C89.0104 17.3078 89.098 17.3372 89.207 17.3284C89.3764 17.3146 89.5595 17.245 89.7564 17.1194C89.9528 16.9877 90.1452 16.8077 90.3337 16.5792L90.5828 17.8471ZM83.9604 14.027C83.8646 14.0469 83.7418 14.0721 83.592 14.1025C83.4422 14.133 83.2805 14.1674 83.1071 14.2058C82.9396 14.2438 82.7691 14.282 82.5956 14.3204C82.4222 14.3588 82.2605 14.3933 82.1107 14.4237L81.8985 13.2716C82.0321 13.2669 82.1564 13.2598 82.2713 13.2505C82.3918 13.2346 82.5305 13.2173 82.6873 13.1985C82.8315 13.1746 83.0027 13.1455 83.2009 13.1111C83.4047 13.0702 83.6082 13.0263 83.8114 12.9794C84.0207 12.9319 84.2147 12.8827 84.3932 12.8317C84.5718 12.7806 84.711 12.7328 84.8109 12.6881L85.2115 13.1215C85.163 13.1986 85.1068 13.2945 85.043 13.4093C84.9853 13.5236 84.9248 13.6411 84.8615 13.762C84.7978 13.8768 84.7421 13.9788 84.6945 14.0679L84.2975 15.8175C84.212 15.9645 84.1052 16.1498 83.9772 16.3733C83.8552 16.5964 83.7252 16.8323 83.587 17.081C83.4489 17.3297 83.313 17.5691 83.1794 17.7992C83.0458 18.0293 82.9251 18.2309 82.8174 18.4041L82.0202 17.4731C82.1233 17.3185 82.2399 17.1416 82.3699 16.9422C82.5055 16.7364 82.6463 16.5209 82.7925 16.2959C82.9382 16.0648 83.0811 15.837 83.2212 15.6125C83.3608 15.3819 83.4896 15.1675 83.6075 14.9691C83.7309 14.7642 83.8324 14.5885 83.9118 14.442L83.9108 14.2045L83.9604 14.027ZM83.7101 12.2933C83.6993 12.1602 83.6885 12.0271 83.6777 11.894C83.6664 11.7548 83.643 11.6167 83.6075 11.4795L84.9362 11.4173C84.9112 11.5594 84.8883 11.7653 84.8676 12.035C84.8524 12.2981 84.8373 12.6007 84.8225 12.943C84.8137 13.2848 84.8063 13.6447 84.8005 14.0227C84.8002 14.3943 84.8029 14.7655 84.8086 15.1366C84.8204 15.5071 84.8393 15.8527 84.8654 16.1734C84.8855 16.4214 84.9059 16.6725 84.9265 16.9266C84.9532 17.1803 84.9803 17.4399 85.008 17.7056C85.0356 17.9714 85.0701 18.2457 85.1113 18.5286C85.1237 18.6067 85.1416 18.7149 85.165 18.8531C85.1889 18.9973 85.2111 19.1203 85.2315 19.2222L83.9791 19.3238C83.9824 19.214 83.9786 19.0925 83.9678 18.9594C83.9631 18.8258 83.9577 18.7227 83.9518 18.6501C83.9338 18.3531 83.9176 18.0773 83.903 17.8227C83.8884 17.5681 83.8696 17.2986 83.8465 17.0143C83.8295 16.7294 83.8118 16.3989 83.7935 16.0228C83.7882 15.8832 83.7831 15.707 83.778 15.4943C83.7724 15.2755 83.7654 15.0385 83.7568 14.7834C83.7539 14.5218 83.7507 14.2571 83.7472 13.9894C83.7438 13.7218 83.7388 13.4725 83.7322 13.2416C83.7312 13.0041 83.7271 12.8035 83.7199 12.6397C83.7183 12.4693 83.715 12.3538 83.7101 12.2933ZM91.3911 12.273C91.5867 12.2814 91.7939 12.2829 92.0127 12.2773C92.237 12.2652 92.4339 12.2523 92.6033 12.2385C92.9784 12.2081 93.3548 12.1562 93.7326 12.083C94.1164 12.0092 94.484 11.9245 94.8356 11.829C95.1867 11.7274 95.5037 11.6195 95.7868 11.5052L95.9085 12.555C95.6538 12.6426 95.3478 12.7375 94.9907 12.8396C94.6391 12.9351 94.2656 13.0233 93.8702 13.1041C93.4744 13.1788 93.0828 13.2319 92.6956 13.2633C92.5141 13.2781 92.3293 13.29 92.1413 13.2992C91.9532 13.3083 91.7589 13.315 91.5582 13.3191L91.3911 12.273ZM94.811 10.6252C94.787 10.7794 94.7545 10.9799 94.7137 11.2269C94.6728 11.4738 94.6238 11.7335 94.5668 12.0061C94.5158 12.2782 94.4585 12.5478 94.3949 12.8148C94.2971 13.2613 94.1592 13.7383 93.9812 14.2461C93.8031 14.7538 93.606 15.251 93.3897 15.7374C93.1734 16.2239 92.9498 16.6592 92.7191 17.0434L91.5754 16.5698C91.7604 16.299 91.9403 16.0012 92.1149 15.6765C92.2895 15.3517 92.4513 15.0188 92.6003 14.6779C92.7492 14.3369 92.881 14.0095 92.9956 13.6957C93.1158 13.3754 93.2081 13.0877 93.2727 12.8328C93.3617 12.5028 93.4325 12.1378 93.4853 11.7376C93.5437 11.3309 93.5646 10.9516 93.5483 10.5997L94.811 10.6252ZM97.1637 13.2753C97.1673 13.4699 97.1769 13.664 97.1927 13.8576C97.2139 14.0447 97.2357 14.2378 97.2579 14.437C97.2753 14.5756 97.2958 14.7536 97.3195 14.9709C97.3488 15.1817 97.3793 15.4076 97.4111 15.6486C97.4423 15.8836 97.4698 16.1098 97.4935 16.3271C97.5228 16.5379 97.5426 16.7068 97.5529 16.8338C97.5755 17.1122 97.5386 17.3709 97.4423 17.6102C97.3456 17.8434 97.1755 18.0368 96.9322 18.1905C96.6949 18.3438 96.3585 18.4381 95.9229 18.4734C95.5478 18.5039 95.2043 18.4739 94.8924 18.3835C94.5811 18.2991 94.3258 18.1554 94.1266 17.9523C93.927 17.7432 93.8136 17.4722 93.7866 17.1395C93.7626 16.843 93.8196 16.5704 93.9578 16.3217C94.0954 16.0669 94.3071 15.8609 94.5928 15.7038C94.884 15.5401 95.2414 15.441 95.6649 15.4067C96.1973 15.3635 96.6935 15.3993 97.1535 15.5142C97.613 15.6231 98.0306 15.778 98.4062 15.979C98.7818 16.1799 99.106 16.385 99.3788 16.5943L98.8495 17.6147C98.6744 17.4828 98.4736 17.3347 98.2471 17.1703C98.0267 17.0055 97.78 16.855 97.507 16.7188C97.2402 16.5821 96.9513 16.4746 96.6404 16.3963C96.3356 16.3175 96.0108 16.2921 95.6659 16.3201C95.4058 16.3412 95.2012 16.4096 95.0522 16.5252C94.9033 16.6408 94.8354 16.7803 94.8487 16.9437C94.8624 17.1131 94.94 17.2438 95.0815 17.3358C95.229 17.4274 95.4268 17.4631 95.6748 17.443C95.8805 17.4263 96.0412 17.3798 96.1568 17.3034C96.2719 17.221 96.3485 17.1143 96.3866 16.9833C96.4242 16.8463 96.4364 16.6961 96.4231 16.5327C96.4118 16.3935 96.3898 16.1974 96.3571 15.9443C96.3244 15.6911 96.2864 15.411 96.2432 15.1039C96.2061 14.7964 96.169 14.4888 96.1318 14.1812C96.0947 13.8736 96.0605 13.6023 96.0292 13.3674L97.1637 13.2753ZM98.7637 13.6296C98.5764 13.4987 98.3461 13.3621 98.0727 13.2198C97.7993 13.0776 97.5175 12.9451 97.2274 12.8225C96.9429 12.6933 96.6941 12.5917 96.481 12.5177L96.9889 11.5721C97.1582 11.6314 97.3501 11.7072 97.5646 11.7994C97.7847 11.8851 98.0053 11.9768 98.2264 12.0746C98.4535 12.1719 98.6625 12.2706 98.8534 12.3708C99.0498 12.4645 99.2089 12.5491 99.3307 12.6244L98.7637 13.6296ZM102.301 10.8396C102.286 10.9504 102.274 11.0762 102.268 11.2168C102.267 11.3569 102.266 11.4941 102.264 11.6281C102.269 11.7617 102.275 11.8709 102.282 11.9556C102.292 12.1557 102.306 12.3617 102.323 12.5735C102.346 12.7847 102.37 13.002 102.394 13.2254C102.424 13.4422 102.457 13.6588 102.492 13.8752C102.57 14.3073 102.662 14.6866 102.768 15.013C102.873 15.3394 102.997 15.5912 103.139 15.7685C103.281 15.9397 103.449 16.0174 103.643 16.0017C103.745 15.9933 103.841 15.9278 103.928 15.805C104.022 15.6817 104.1 15.5261 104.164 15.3382C104.234 15.1437 104.29 14.9412 104.334 14.7306C104.384 14.5195 104.426 14.3212 104.459 14.1358L105.457 15.1693C105.3 15.7119 105.134 16.1486 104.96 16.4794C104.792 16.8037 104.607 17.044 104.407 17.2003C104.206 17.3506 103.981 17.4358 103.733 17.456C103.406 17.4825 103.086 17.3989 102.772 17.2051C102.464 17.0109 102.187 16.6801 101.942 16.2127C101.697 15.7394 101.499 15.1007 101.348 14.2969C101.295 14.021 101.247 13.7295 101.204 13.4225C101.167 13.1149 101.134 12.8222 101.106 12.5443C101.083 12.266 101.064 12.0361 101.05 11.8546C101.039 11.7276 101.021 11.5768 100.995 11.4023C100.968 11.2278 100.937 11.072 100.902 10.9348L102.301 10.8396ZM106.856 10.6801C107.042 10.872 107.225 11.1099 107.407 11.3936C107.588 11.6773 107.759 11.9831 107.92 12.3111C108.08 12.6392 108.227 12.9775 108.358 13.3261C108.49 13.6687 108.599 14.0069 108.687 14.3408C108.781 14.6682 108.848 14.9703 108.889 15.2471L107.728 15.8072C107.668 15.4406 107.581 15.0426 107.467 14.6134C107.353 14.1842 107.212 13.7541 107.043 13.3232C106.874 12.8924 106.68 12.4879 106.46 12.1099C106.247 11.7313 106.004 11.4099 105.733 11.1457L106.856 10.6801ZM111.973 12.3842L112.244 15.7331L111.201 15.8177L111.011 13.4763L109.849 13.5705L109.767 12.5632L111.973 12.3842ZM112.209 15.2974C112.416 15.5913 112.682 15.795 113.008 15.9086C113.34 16.0218 113.736 16.0687 114.198 16.0496C114.471 16.0396 114.798 16.0222 115.18 15.9973C115.561 15.9663 115.96 15.9309 116.377 15.891C116.8 15.8506 117.214 15.8079 117.618 15.7629C118.022 15.7118 118.38 15.6584 118.692 15.6026C118.656 15.6847 118.62 15.7943 118.582 15.9313C118.55 16.0618 118.521 16.1951 118.496 16.3311C118.47 16.4672 118.449 16.5876 118.434 16.6924C118.157 16.7332 117.837 16.7713 117.475 16.8068C117.112 16.8423 116.737 16.8758 116.35 16.9072C115.963 16.9447 115.588 16.9751 115.225 16.9985C114.868 17.0275 114.549 17.0472 114.27 17.0577C113.724 17.0777 113.254 17.0275 112.86 16.9072C112.473 16.7864 112.129 16.5615 111.828 16.2327C111.631 16.4314 111.428 16.6276 111.218 16.8212C111.015 17.0204 110.794 17.2271 110.556 17.4413L109.959 16.3935C110.167 16.2548 110.386 16.097 110.615 15.9201C110.844 15.7431 111.061 15.5611 111.265 15.374L112.209 15.2974ZM109.688 9.9021L110.376 9.14291C110.58 9.25425 110.788 9.38653 111.002 9.53973C111.221 9.6864 111.428 9.83707 111.623 9.99175C111.818 10.1404 111.973 10.2831 112.087 10.42L111.334 11.2668C111.231 11.1289 111.088 10.9791 110.905 10.8174C110.721 10.6557 110.522 10.4952 110.308 10.336C110.094 10.1707 109.887 10.026 109.688 9.9021ZM113.426 10.4849L114.078 9.84737C114.351 9.91652 114.654 10.0046 114.985 10.1117C115.316 10.2128 115.636 10.3208 115.944 10.4359C116.257 10.5505 116.519 10.6572 116.728 10.756L116.037 11.4698C115.845 11.3635 115.599 11.2526 115.297 11.137C115.001 11.0209 114.688 10.9063 114.356 10.7932C114.023 10.674 113.713 10.5712 113.426 10.4849ZM112.651 11.0594L117.27 10.6846L117.334 11.4741L113.731 11.7665L114.049 15.678L113.032 15.7605L112.651 11.0594ZM116.762 10.7258L117.796 10.6418L118.102 14.4081C118.12 14.632 118.107 14.8097 118.063 14.9411C118.025 15.0661 117.936 15.1707 117.796 15.2551C117.663 15.339 117.494 15.3984 117.29 15.4332C117.091 15.4615 116.856 15.4867 116.584 15.5088C116.549 15.3777 116.497 15.2357 116.43 15.0828C116.369 14.9234 116.306 14.7853 116.241 14.6688C116.381 14.6635 116.52 14.6552 116.66 14.644C116.799 14.6327 116.893 14.6251 116.941 14.6211C116.989 14.6172 117.022 14.6054 117.039 14.5858C117.061 14.5596 117.07 14.5224 117.066 14.4739L116.762 10.7258ZM112.573 9.08341L116.892 8.73287L116.959 9.55873L112.64 9.90927L112.573 9.08341ZM113.317 12.2934L117.22 11.9767L117.282 12.739L113.379 13.0557L113.317 12.2934ZM113.42 13.5639L117.323 13.2473L117.387 14.0368L113.484 14.3535L113.42 13.5639ZM114.741 11.2643L115.712 11.1855L116.06 15.4782L115.089 15.557L114.741 11.2643ZM116.502 8.76453L116.756 8.74391L116.961 8.67252L117.647 9.13753C117.451 9.35438 117.229 9.57645 116.979 9.80377C116.736 10.0306 116.479 10.2463 116.21 10.4509C115.94 10.6494 115.671 10.8265 115.403 10.9822C115.335 10.8964 115.239 10.7976 115.114 10.6859C114.996 10.5738 114.897 10.4843 114.818 10.4176C115.04 10.29 115.259 10.1413 115.477 9.97139C115.7 9.79494 115.902 9.61717 116.082 9.43811C116.268 9.25855 116.414 9.09755 116.518 8.95512L116.502 8.76453ZM120.869 8.98574L127.058 8.4835L127.131 9.38196L120.941 9.88421L120.869 8.98574ZM121.077 10.3117L126.34 9.8846L126.412 10.7649L121.148 11.192L121.077 10.3117ZM120.105 11.7335L125.341 11.3085L125.415 12.2161L120.179 12.641L120.105 11.7335ZM120.685 8.07796L121.849 8.23021C121.69 8.97997 121.452 9.68141 121.133 10.3345C120.815 10.9877 120.451 11.5348 120.042 11.976C119.97 11.9149 119.867 11.8471 119.734 11.7727C119.605 11.6918 119.474 11.6141 119.34 11.5397C119.206 11.4593 119.091 11.3985 118.996 11.3575C119.416 10.9763 119.77 10.4969 120.058 9.91934C120.352 9.33522 120.561 8.72143 120.685 8.07796ZM123.295 12.4338L124.385 12.6925C124.129 13.2858 123.802 13.8421 123.406 14.3614C123.015 14.8743 122.578 15.3391 122.094 15.756C121.61 16.1728 121.101 16.5369 120.566 16.8483C120.505 16.7801 120.422 16.6955 120.317 16.5945C120.217 16.4929 120.109 16.3951 119.991 16.3011C119.88 16.2066 119.783 16.1293 119.698 16.0691C120.237 15.8001 120.738 15.4823 121.202 15.1158C121.671 14.7489 122.082 14.3379 122.435 13.883C122.794 13.4275 123.081 12.9445 123.295 12.4338ZM124.987 11.3373L126.104 11.2467C126.148 11.7912 126.195 12.302 126.246 12.7789C126.297 13.2499 126.358 13.6621 126.429 14.0157C126.506 14.3626 126.595 14.6356 126.696 14.8344C126.797 15.0272 126.914 15.1182 127.047 15.1074C127.119 15.0954 127.159 14.9765 127.165 14.7507C127.171 14.5249 127.162 14.2302 127.139 13.8667C127.251 13.9794 127.376 14.0941 127.514 14.2108C127.657 14.321 127.786 14.4141 127.902 14.4899C127.908 14.867 127.888 15.1793 127.841 15.4267C127.8 15.6736 127.717 15.8569 127.593 15.9766C127.469 16.1024 127.292 16.1746 127.062 16.1932C126.681 16.2242 126.368 16.1186 126.123 15.8766C125.885 15.6402 125.693 15.2995 125.547 14.8546C125.401 14.4036 125.285 13.8771 125.2 13.275C125.114 12.6729 125.043 12.027 124.987 11.3373ZM120.282 13.6923L120.995 12.9127C121.342 13.0612 121.703 13.2298 122.078 13.4187C122.458 13.601 122.833 13.7959 123.203 14.0033C123.579 14.2103 123.928 14.4195 124.25 14.631C124.571 14.8363 124.843 15.0365 125.066 15.2316L124.262 16.1282C124.057 15.9377 123.8 15.7332 123.49 15.5148C123.186 15.2958 122.852 15.0793 122.488 14.8653C122.129 14.6448 121.758 14.4342 121.377 14.2338C120.995 14.0333 120.63 13.8528 120.282 13.6923ZM129.237 7.42055L130.326 7.33217L131.018 15.854L129.929 15.9424L129.237 7.42055ZM128.617 9.23396L129.397 9.28027C129.406 9.54142 129.405 9.82774 129.394 10.1393C129.383 10.4508 129.359 10.7572 129.322 11.0586C129.292 11.3595 129.25 11.6308 129.197 11.8727L128.365 11.6478C128.422 11.4423 128.466 11.1981 128.498 10.9154C128.536 10.6322 128.564 10.3436 128.583 10.0498C128.608 9.75544 128.619 9.4835 128.617 9.23396ZM130.265 9.1642L130.975 8.79598C131.121 9.01558 131.262 9.25988 131.4 9.52886C131.537 9.79785 131.638 10.0272 131.702 10.2169L130.942 10.6439C130.907 10.5128 130.853 10.365 130.778 10.2005C130.704 10.0299 130.622 9.85383 130.534 9.67216C130.447 9.49049 130.357 9.32117 130.265 9.1642ZM131.867 7.6274L132.942 7.70459C132.918 8.15722 132.872 8.60855 132.805 9.05856C132.744 9.50204 132.662 9.91976 132.56 10.3117C132.463 10.6972 132.347 11.0384 132.213 11.3356C132.143 11.2926 132.044 11.2427 131.918 11.186C131.792 11.1292 131.663 11.0788 131.531 11.0346C131.405 10.984 131.295 10.9442 131.202 10.9152C131.344 10.6478 131.462 10.3368 131.555 9.98213C131.648 9.62745 131.718 9.25028 131.765 8.85063C131.817 8.44444 131.851 8.03669 131.867 7.6274ZM132.309 9.02573L136.502 8.6855L136.585 9.71102L132.075 10.077L132.309 9.02573ZM133.407 7.13698L134.496 7.04861L135.124 14.7899L134.035 14.8783L133.407 7.13698ZM131.987 11.5914L136.507 11.2247L136.589 12.2411L132.07 12.6079L131.987 11.5914ZM131.536 14.4782L137.218 14.0172L137.302 15.0608L131.621 15.5218L131.536 14.4782ZM137.98 8.20931C138.161 8.18853 138.333 8.16848 138.495 8.14918C138.658 8.12382 138.781 8.10468 138.865 8.09176C139.052 8.06444 139.28 8.02763 139.551 7.98134C139.827 7.9285 140.133 7.87321 140.469 7.81547C140.811 7.75723 141.175 7.69728 141.56 7.63561C141.945 7.57393 142.344 7.50801 142.759 7.43783C143.071 7.38205 143.38 7.33256 143.688 7.28937C144 7.23964 144.295 7.19744 144.573 7.16275C144.855 7.12153 145.103 7.0893 145.314 7.06606L145.417 8.22698C145.254 8.24024 145.066 8.25848 144.855 8.28171C144.644 8.30495 144.433 8.33423 144.223 8.36957C144.018 8.39836 143.836 8.44056 143.676 8.49617C143.41 8.59086 143.165 8.73551 142.944 8.93012C142.722 9.11868 142.532 9.33805 142.376 9.58825C142.225 9.83191 142.112 10.0938 142.038 10.3739C141.963 10.648 141.936 10.9211 141.958 11.1934C141.982 11.4899 142.055 11.7489 142.176 11.9705C142.304 12.1855 142.464 12.3673 142.659 12.5159C142.86 12.658 143.088 12.7735 143.345 12.8622C143.601 12.945 143.874 13.002 144.163 13.0334C144.458 13.0643 144.76 13.0763 145.07 13.0694L144.744 14.3473C144.361 14.3541 143.984 14.3237 143.613 14.2564C143.249 14.1886 142.902 14.0827 142.574 13.9388C142.245 13.7949 141.953 13.6116 141.698 13.3887C141.448 13.1593 141.24 12.8929 141.076 12.5896C140.917 12.2798 140.821 11.9282 140.789 11.5349C140.754 11.0993 140.791 10.6943 140.901 10.32C141.01 9.93967 141.156 9.60501 141.34 9.31605C141.529 9.02056 141.72 8.78883 141.914 8.62088C141.746 8.65883 141.543 8.69973 141.303 8.74356C141.069 8.78691 140.814 8.83803 140.539 8.89692C140.269 8.94926 139.993 9.00512 139.712 9.0645C139.43 9.12387 139.158 9.18856 138.896 9.25857C138.639 9.32203 138.407 9.38353 138.199 9.44307L137.98 8.20931ZM144.192 9.22168C144.279 9.3242 144.371 9.44766 144.468 9.59204C144.571 9.72988 144.671 9.871 144.768 10.0154C144.864 10.1537 144.947 10.2809 145.018 10.397L144.353 10.7616C144.217 10.5168 144.087 10.302 143.963 10.1172C143.844 9.93196 143.704 9.74539 143.543 9.55752L144.192 9.22168ZM145.174 8.72173C145.262 8.82425 145.357 8.94444 145.459 9.08228C145.567 9.21358 145.673 9.35118 145.776 9.49507C145.878 9.63291 145.965 9.75686 146.034 9.8669L145.38 10.2489C145.24 10.0167 145.104 9.81145 144.974 9.63322C144.85 9.45449 144.704 9.27144 144.537 9.08406L145.174 8.72173Z" fill="#61BDD1"/>
</svg>
