<svg width="164" height="30" viewBox="0 0 164 30" fill="none" xmlns="http://www.w3.org/2000/svg">
<rect width="162.189" height="19.0946" transform="translate(0 10.1582) rotate(-3.59082)" fill="white"/>
<path d="M7.1516 18.6684L15.4302 18.1489L15.4878 19.0667L7.20919 19.5862L7.1516 18.6684ZM7.47039 21.5678L15.5218 21.0625L15.5805 21.9985L7.52913 22.5038L7.47039 21.5678ZM7.76179 17.1978L14.7136 16.7615L14.7695 17.6521L7.81768 18.0883L7.76179 17.1978ZM7.8534 20.1114L15.0052 19.6626L15.0616 20.5623L7.90986 21.0111L7.8534 20.1114ZM10.6551 17.3629L11.7365 17.295L12.1123 23.2836L11.0309 23.3515L10.6551 17.3629ZM8.71779 17.603L9.72649 17.5397L9.90726 20.4204L8.89856 20.4837L8.71779 17.603ZM12.7435 17.3504L13.7522 17.2871L13.933 20.1678L12.9243 20.2311L12.7435 17.3504ZM8.93237 14.9165L9.99559 14.8498L10.1205 16.8399L9.05726 16.9066L8.93237 14.9165ZM12.0857 14.7186L13.1489 14.6519L13.2738 16.642L12.2106 16.7087L12.0857 14.7186ZM7.05653 15.5542L15.1443 15.0467L15.2042 16.0009L7.1164 16.5084L7.05653 15.5542ZM20.7862 16.125C20.676 16.0163 20.5374 15.8912 20.3704 15.7497C20.203 15.602 20.0329 15.4606 19.8602 15.3255C19.6871 15.1843 19.5374 15.0751 19.4109 14.9979L20.2104 14.3638C20.3305 14.4354 20.4768 14.5387 20.6495 14.6738C20.8218 14.8029 20.9945 14.9381 21.1676 15.0792C21.3464 15.214 21.4909 15.3357 21.6011 15.4443L20.7862 16.125ZM18.2534 15.3077C18.2871 15.3604 18.3281 15.4308 18.3762 15.519C18.4243 15.6072 18.4754 15.6952 18.5296 15.7831C18.5834 15.8648 18.6273 15.9351 18.6614 15.9937C18.8713 16.3333 19.0864 16.7091 19.3069 17.121C19.527 17.5269 19.7308 17.9155 19.9183 18.2869C20.0369 18.5288 20.1737 18.8183 20.3286 19.1552C20.4896 19.4918 20.6486 19.8437 20.8054 20.2109C20.9623 20.5782 21.1091 20.9309 21.2459 21.269C21.3887 21.6067 21.5044 21.9005 21.5931 22.1504L20.3687 22.5556C20.2538 22.1797 20.1157 21.7717 19.9543 21.3318C19.7929 20.8918 19.6228 20.4585 19.4439 20.0318C19.2647 19.5991 19.088 19.2057 18.9137 18.8517C18.7747 18.5746 18.636 18.3035 18.4978 18.0385C18.3656 17.7731 18.2311 17.52 18.0943 17.2792C17.9633 17.032 17.8274 16.8063 17.6869 16.6023C17.6191 16.491 17.529 16.3628 17.4165 16.2178C17.31 16.0725 17.2047 15.9453 17.1006 15.8362L18.2534 15.3077ZM16.4576 18.0935C16.6367 18.0397 16.8092 17.9772 16.975 17.906C17.1469 17.8343 17.2682 17.7811 17.339 17.7463C17.6639 17.5921 17.9912 17.4286 18.3209 17.2559C18.6568 17.0827 18.9926 16.9096 19.3284 16.7365C19.6699 16.5569 20.0034 16.3961 20.329 16.254C20.6603 16.1055 20.9842 15.9848 21.3007 15.892C21.6229 15.7927 21.9264 15.7341 22.2111 15.7162C22.6837 15.6866 23.0919 15.7461 23.4357 15.8948C23.7856 16.0432 24.0576 16.2572 24.2515 16.537C24.4515 16.8164 24.5625 17.1318 24.5846 17.4832C24.6112 17.9072 24.5435 18.2825 24.3815 18.6089C24.2192 18.9293 23.9737 19.185 23.6451 19.3759C23.3164 19.5668 22.9189 19.6769 22.4524 19.7062C22.2101 19.7214 21.9569 19.7099 21.693 19.6717C21.4352 19.6332 21.2165 19.5891 21.037 19.5395L20.9924 18.3928C21.2041 18.4708 21.4209 18.5332 21.6428 18.5801C21.8643 18.6209 22.075 18.6351 22.2749 18.6225C22.4991 18.6085 22.6965 18.5565 22.8673 18.4668C23.0437 18.3705 23.1787 18.2435 23.2721 18.0855C23.3656 17.9276 23.4055 17.7396 23.3918 17.5215C23.3823 17.3701 23.3282 17.2336 23.2293 17.1121C23.1365 16.9902 23.006 16.898 22.8379 16.8356C22.6754 16.7667 22.4791 16.7395 22.2489 16.7539C21.952 16.7725 21.6194 16.8512 21.251 16.9899C20.8883 17.1221 20.5065 17.289 20.1056 17.4905C19.7046 17.6921 19.3135 17.9052 18.9323 18.1298C18.5507 18.3484 18.1988 18.556 17.8766 18.7526C17.554 18.9431 17.2839 19.0969 17.0662 19.214L16.4576 18.0935ZM29.4768 14.1746C29.4537 14.2916 29.4314 14.4208 29.4099 14.562C29.394 14.6968 29.3776 14.8225 29.3606 14.9392C29.3447 15.074 29.3239 15.2273 29.2982 15.3992C29.2721 15.5651 29.2462 15.734 29.2205 15.9059C29.2005 16.0714 29.1772 16.234 29.1508 16.3938C29.1065 16.6581 29.0498 16.9658 28.9806 17.3168C28.9114 17.6678 28.8288 18.047 28.7327 18.4545C28.6362 18.8559 28.5248 19.2612 28.3985 19.6706C28.2721 20.0799 28.1361 20.4808 27.9904 20.8731C27.8443 21.2593 27.6839 21.61 27.509 21.9251L26.298 21.5267C26.4922 21.2286 26.6691 20.8982 26.8288 20.5354C26.9942 20.1662 27.1408 19.789 27.2687 19.4039C27.3966 19.0188 27.5067 18.6409 27.599 18.2702C27.6973 17.8991 27.779 17.5534 27.8441 17.233C27.9091 16.9127 27.9589 16.6389 27.9933 16.4117C28.0522 15.9944 28.094 15.5934 28.1185 15.2087C28.143 14.824 28.1416 14.4622 28.1142 14.1233L29.4768 14.1746ZM32.6565 14.8327C32.814 15.0174 32.9778 15.2535 33.1479 15.5408C33.3237 15.8217 33.4945 16.1212 33.6605 16.4392C33.8325 16.7569 33.9885 17.0633 34.1287 17.3586C34.2749 17.6536 34.388 17.905 34.468 18.1128L33.3475 18.7214C33.271 18.4708 33.1685 18.1944 33.04 17.8922C32.9173 17.5837 32.7762 17.2732 32.6167 16.9609C32.4629 16.6421 32.2981 16.3422 32.1223 16.0613C31.9526 15.78 31.7799 15.5476 31.6041 15.364L32.6565 14.8327ZM25.9042 16.2691C26.0686 16.2709 26.2295 16.2669 26.387 16.257C26.5441 16.2411 26.7073 16.2248 26.8766 16.2081C27.0216 16.1929 27.1997 16.1726 27.411 16.1472C27.628 16.1153 27.854 16.0829 28.0892 16.0499C28.3303 16.0165 28.5715 15.9831 28.8127 15.9497C29.0535 15.9103 29.2765 15.878 29.4818 15.853C29.687 15.8279 29.8562 15.8112 29.9895 15.8029C30.3106 15.7827 30.5957 15.8196 30.8449 15.9134C31.0998 16.0008 31.3048 16.1674 31.4601 16.4131C31.6215 16.6584 31.7159 16.9992 31.7433 17.4354C31.7657 17.7928 31.7718 18.1817 31.7617 18.602C31.7577 19.0219 31.7313 19.425 31.6825 19.8112C31.6338 20.1974 31.5511 20.528 31.4346 20.8029C31.3089 21.1271 31.1227 21.3577 30.8759 21.4949C30.6351 21.6316 30.342 21.7108 29.9967 21.7325C29.821 21.7435 29.6323 21.7402 29.4304 21.7224C29.235 21.7103 29.0576 21.6941 28.8982 21.6737L28.623 20.4867C28.7461 20.5094 28.8782 20.5315 29.0195 20.5531C29.1668 20.5742 29.3046 20.5899 29.433 20.6001C29.5674 20.6099 29.674 20.6123 29.7528 20.6074C29.9042 20.5979 30.0358 20.5623 30.1475 20.5005C30.2588 20.4327 30.3462 20.3238 30.4098 20.1739C30.4836 19.9929 30.536 19.7615 30.5669 19.4798C30.604 19.1977 30.6245 18.8953 30.6286 18.5727C30.6384 18.2437 30.6339 17.9307 30.6153 17.6339C30.6001 17.3915 30.5556 17.2149 30.4817 17.104C30.4078 16.9931 30.3031 16.9236 30.1676 16.8956C30.0377 16.8612 29.8758 16.8501 29.6819 16.8622C29.5487 16.8706 29.3616 16.8945 29.1208 16.9339C28.8857 16.9669 28.6358 17.0069 28.3711 17.054C28.1061 17.0949 27.8564 17.138 27.622 17.1831C27.3937 17.2278 27.2163 17.2602 27.0898 17.2803C26.9641 17.3126 26.7992 17.3503 26.5952 17.3935C26.3968 17.4303 26.2286 17.4651 26.0908 17.4981L25.9042 16.2691ZM39.2914 14.2886C39.2485 14.1879 39.1981 14.0633 39.1402 13.9149C39.0822 13.7665 39.0182 13.6185 38.9481 13.4708L40.1658 13.2484C40.2291 13.4816 40.2984 13.7145 40.3738 13.947C40.4488 14.1734 40.5297 14.3964 40.6165 14.616C40.7029 14.8295 40.7885 15.0309 40.8734 15.2202C41.0363 15.5871 41.2231 15.9464 41.4337 16.2981C41.65 16.6434 41.8373 16.9144 41.9956 17.1113C42.0816 17.2215 42.1672 17.3256 42.2524 17.4236C42.3433 17.5152 42.434 17.6038 42.5245 17.6893L42.0124 18.5426C41.8837 18.5263 41.7216 18.5122 41.5262 18.5001C41.3305 18.482 41.1167 18.468 40.885 18.4582C40.6593 18.4481 40.4306 18.4381 40.1989 18.4283C39.9732 18.4181 39.7661 18.4129 39.5775 18.4126L39.6079 17.4436C39.7602 17.4462 39.9217 17.4513 40.0924 17.4588C40.2628 17.4603 40.4211 17.4625 40.5672 17.4655C40.7195 17.4681 40.8442 17.4694 40.9415 17.4694C40.8215 17.3005 40.6938 17.1078 40.5586 16.8913C40.4234 16.6747 40.2906 16.4489 40.1603 16.2138C40.0296 15.9726 39.908 15.7309 39.7954 15.4886C39.6825 15.2402 39.5833 15.0153 39.4977 14.8139C39.4181 14.6121 39.3493 14.437 39.2914 14.2886ZM36.0103 14.9233C36.5779 14.9546 37.1109 14.9667 37.6092 14.9598C38.1075 14.9528 38.5713 14.9298 39.0007 14.8907C39.4301 14.8516 39.8222 14.7996 40.1769 14.7348C40.4533 14.681 40.7204 14.6247 40.9783 14.5659C41.2422 14.5068 41.4995 14.4389 41.7501 14.3624C42.0068 14.2854 42.248 14.2034 42.4736 14.1163L42.6909 15.2521C42.4944 15.3192 42.2795 15.3844 42.0463 15.4477C41.8191 15.5106 41.5827 15.5711 41.337 15.6291C41.0908 15.681 40.8476 15.7297 40.6071 15.7752C39.9994 15.8802 39.3294 15.9618 38.5972 16.0199C37.8649 16.0781 37.033 16.0999 36.1015 16.0853L36.0103 14.9233ZM38.0223 17.908C37.8963 18.1288 37.8003 18.3447 37.7345 18.5556C37.6683 18.7604 37.6414 18.9628 37.654 19.1628C37.6779 19.5444 37.862 19.8127 38.2063 19.9674C38.5501 20.1162 39.031 20.1711 39.6489 20.1323C40.1457 20.1012 40.5927 20.0518 40.9899 19.9843C41.3931 19.9165 41.7534 19.8422 42.0707 19.7614L42.0789 20.9104C41.8275 20.9749 41.4974 21.0442 41.0884 21.1185C40.6856 21.1925 40.2055 21.2469 39.6481 21.2819C39.0358 21.3143 38.4976 21.2659 38.0333 21.1369C37.5695 21.014 37.2038 20.8089 36.9364 20.5215C36.6686 20.2281 36.5213 19.8664 36.4943 19.4362C36.4768 19.1576 36.499 18.8825 36.5611 18.611C36.6288 18.333 36.7317 18.0346 36.8698 17.7158L38.0223 17.908ZM48.1372 13.0675C48.1202 13.1841 48.1009 13.3131 48.0793 13.4543C48.0574 13.5895 48.0379 13.7154 48.0209 13.832C48.0051 13.9668 47.9843 14.1202 47.9586 14.2921C47.9325 14.4579 47.9066 14.6268 47.8809 14.7987C47.8609 14.9642 47.8376 15.1268 47.8112 15.2866C47.7669 15.5509 47.7102 15.8586 47.641 16.2096C47.5718 16.5607 47.4892 16.9399 47.3931 17.3473C47.2966 17.7487 47.1852 18.1541 47.0589 18.5634C46.9325 18.9728 46.7965 19.3736 46.6508 19.7659C46.5047 20.1522 46.3443 20.5029 46.1694 20.8179L44.9584 20.4195C45.1526 20.1215 45.3295 19.7911 45.4892 19.4283C45.6546 19.0591 45.8014 18.6849 45.9297 18.3059C46.0575 17.9208 46.1676 17.5428 46.2599 17.1721C46.3579 16.795 46.4394 16.4462 46.5045 16.1259C46.5756 15.8051 46.6283 15.5312 46.6627 15.304C46.7217 14.8867 46.7634 14.4857 46.7879 14.101C46.8125 13.7163 46.808 13.3547 46.7746 13.0162L48.1372 13.0675ZM51.3208 13.7891C51.4788 13.9799 51.6426 14.216 51.8123 14.4973C51.9877 14.7721 52.1612 15.0654 52.3328 15.3769C52.5044 15.6885 52.6601 15.9889 52.7999 16.2782C52.9397 16.5674 53.0497 16.819 53.1301 17.0329L52.009 17.6324C51.9386 17.3814 51.8391 17.1048 51.7107 16.8027C51.5883 16.5002 51.4475 16.1958 51.2884 15.8895C51.1289 15.5772 50.9615 15.2836 50.7861 15.0087C50.6168 14.7335 50.4443 14.5041 50.2685 14.3205L51.3208 13.7891ZM44.5646 15.1619C44.7289 15.1638 44.8899 15.1598 45.0474 15.1499C45.2106 15.1336 45.3738 15.1172 45.537 15.1009C45.688 15.0854 45.8692 15.0649 46.0805 15.0394C46.2914 15.008 46.5144 14.9757 46.7495 14.9427C46.9907 14.9093 47.2319 14.8759 47.4731 14.8426C47.7139 14.8031 47.9369 14.7709 48.1421 14.7458C48.3474 14.7208 48.5166 14.7041 48.6499 14.6957C48.977 14.6752 49.2652 14.7119 49.5144 14.8057C49.7632 14.8935 49.9652 15.0602 50.1205 15.3059C50.2819 15.5513 50.3763 15.892 50.4036 16.3282C50.4261 16.6856 50.4352 17.0743 50.4312 17.4942C50.4271 17.9142 50.3977 18.3174 50.3429 18.704C50.2941 19.0903 50.2115 19.4209 50.0949 19.6958C49.9693 20.0199 49.7831 20.2506 49.5362 20.3877C49.2954 20.5245 49.0024 20.6037 48.6571 20.6253C48.4874 20.636 48.3017 20.6324 48.0999 20.6147C47.8984 20.603 47.718 20.587 47.5586 20.5665L47.2925 19.379C47.4095 19.4021 47.5386 19.4244 47.6799 19.4459C47.8272 19.4671 47.965 19.4828 48.0934 19.493C48.2278 19.5028 48.3344 19.5052 48.4131 19.5003C48.5646 19.4907 48.6962 19.4551 48.8078 19.3934C48.9191 19.3256 49.0066 19.2167 49.0702 19.0667C49.144 18.8857 49.1994 18.6542 49.2364 18.3721C49.2734 18.09 49.294 17.7876 49.2981 17.465C49.3078 17.1359 49.3034 16.823 49.2848 16.5261C49.2696 16.2838 49.222 16.1074 49.1421 15.9968C49.0682 15.8859 48.9635 15.8164 48.8279 15.7885C48.6981 15.754 48.5392 15.7427 48.3514 15.7545C48.2121 15.7633 48.025 15.7872 47.7903 15.8262C47.5551 15.8592 47.3022 15.8994 47.0315 15.9468C46.7665 15.9878 46.5198 16.0306 46.2915 16.0754C46.0632 16.1201 45.8858 16.1525 45.7593 16.1726C45.6275 16.2052 45.4596 16.2431 45.2555 16.2863C45.0571 16.3231 44.889 16.358 44.7512 16.391L44.5646 15.1619ZM51.078 12.5363C51.1636 12.6404 51.2536 12.7655 51.3479 12.9116C51.4482 13.0574 51.5456 13.2033 51.6399 13.3495C51.7342 13.4956 51.8153 13.6243 51.8831 13.7356L51.167 14.0999C51.0984 13.9764 51.02 13.8415 50.9317 13.695C50.8435 13.5484 50.7522 13.4021 50.6579 13.256C50.5636 13.1099 50.4706 12.9849 50.3789 12.8812L51.078 12.5363ZM52.1337 12.0595C52.2197 12.1696 52.3129 12.2976 52.4133 12.4433C52.5136 12.5891 52.611 12.735 52.7053 12.8812C52.8057 13.0269 52.8833 13.1498 52.9383 13.2497L52.2398 13.6038C52.131 13.422 52.0026 13.2172 51.8545 12.9893C51.706 12.7553 51.5629 12.5575 51.425 12.3959L52.1337 12.0595ZM59.5207 11.8696L60.493 11.8086L60.9304 18.7786L59.9581 18.8396L59.5207 11.8696ZM58.3521 13.0195L61.7871 12.8039L61.843 13.6945L58.408 13.91L58.3521 13.0195ZM58.2514 14.7592L62.0954 14.518L62.153 15.4358L58.309 15.677L58.2514 14.7592ZM59.4602 15.2672L60.1322 15.5079C60.0543 15.8169 59.9565 16.1484 59.8388 16.5025C59.7207 16.8505 59.5834 17.1814 59.4267 17.4954C59.2757 17.8029 59.1065 18.0629 58.9191 18.2753C58.874 18.1383 58.803 17.9755 58.706 17.7869C58.6151 17.598 58.5291 17.4392 58.448 17.3105C58.5896 17.1434 58.7263 16.9463 58.858 16.7191C58.9893 16.4858 59.1078 16.2412 59.2133 15.9852C59.325 15.7288 59.4073 15.4895 59.4602 15.2672ZM61.0232 15.1691C61.1426 15.4232 61.2805 15.6821 61.4369 15.946C61.5994 16.2095 61.7761 16.4569 61.967 16.6882C62.1575 16.9135 62.3428 17.1025 62.5226 17.2555C62.4189 17.3471 62.2989 17.4702 62.1626 17.6247C62.0264 17.7793 61.9198 17.9228 61.843 18.0554C61.6725 17.8593 61.496 17.6149 61.3135 17.3222C61.1369 17.0292 60.9714 16.7172 60.8168 16.3863C60.6683 16.0551 60.5383 15.7287 60.4269 15.4073L61.0232 15.1691ZM55.8982 16.2206L56.816 16.163L56.9945 19.0074C57.0025 19.1346 57.033 19.233 57.086 19.3027C57.1386 19.3663 57.2414 19.4054 57.3944 19.4202C57.5474 19.4349 57.7753 19.4328 58.0783 19.4138C58.157 19.4088 58.2903 19.4004 58.4781 19.3887C58.6659 19.3769 58.8779 19.3636 59.1142 19.3487C59.3505 19.3339 59.5898 19.3189 59.8321 19.3037C60.0805 19.2881 60.3047 19.274 60.5046 19.2615C60.7045 19.2489 60.856 19.2394 60.959 19.233C61.171 19.2197 61.3274 19.1916 61.4281 19.1488C61.5348 19.1056 61.6094 19.034 61.6518 18.934C61.6999 18.8276 61.7269 18.6769 61.7329 18.4819C61.8522 18.5413 61.9986 18.596 62.172 18.646C62.3511 18.6895 62.505 18.7193 62.6338 18.7356C62.6119 19.0654 62.5519 19.3216 62.4539 19.5041C62.3563 19.6927 62.1977 19.8304 61.9781 19.9171C61.7645 20.0035 61.4639 20.0589 61.0762 20.0832C61.0095 20.0874 60.9005 20.0942 60.749 20.1037C60.6036 20.1129 60.4279 20.1239 60.222 20.1368C60.022 20.1493 59.813 20.1625 59.5949 20.1762C59.3768 20.1898 59.1648 20.2031 58.9588 20.2161C58.7589 20.2286 58.5862 20.2395 58.4408 20.2486C58.2954 20.2577 58.1924 20.2642 58.1319 20.268C57.6109 20.3007 57.2057 20.2896 56.9164 20.2348C56.6271 20.1799 56.4188 20.0592 56.2915 19.8726C56.1707 19.6916 56.0993 19.4254 56.0772 19.074L55.8982 16.2206ZM54.8767 15.2082L54.9155 15.8261L57.0056 15.695L56.9668 15.077L54.8767 15.2082ZM54.7929 13.8723L54.8311 14.4812L56.9212 14.35L56.883 13.7412L54.7929 13.8723ZM53.885 13.0717L57.7108 12.8316L57.9406 16.4939L54.1149 16.7339L53.885 13.0717ZM55.3925 13.3968L56.1922 13.3466L56.3661 16.1183L55.5664 16.1684L55.3925 13.3968ZM57.8216 17.5049L58.3203 17.3094C58.4312 17.5274 58.5343 17.7643 58.6294 18.0198C58.7245 18.2754 58.7929 18.4931 58.8346 18.6729L58.311 18.9065C58.2689 18.7206 58.2032 18.4966 58.1137 18.2346C58.0239 17.9666 57.9266 17.7233 57.8216 17.5049ZM55.2377 11.9468L56.3361 12.0056C56.2722 12.2468 56.2107 12.4787 56.1517 12.7014C56.0923 12.918 56.0342 13.1071 55.9775 13.2688L55.0324 13.1822C55.0759 13.0031 55.1178 12.7997 55.1583 12.5722C55.1984 12.3385 55.2248 12.1301 55.2377 11.9468ZM57.1739 16.6332L57.9367 16.7222C57.8641 17.0187 57.7953 17.3271 57.7302 17.6475C57.6712 17.9674 57.612 18.2357 57.5526 18.4523L57.0255 18.3394C57.052 18.1796 57.0741 17.9988 57.0919 17.797C57.1157 17.5948 57.1334 17.393 57.1451 17.1915C57.1625 16.9836 57.1721 16.7975 57.1739 16.6332ZM56.8261 18.2151C57.0431 18.1832 57.2777 18.1411 57.5298 18.0888C57.782 18.0365 58.0554 17.9829 58.3499 17.9279L58.4199 18.4617C58.1814 18.5375 57.955 18.6126 57.7407 18.6868C57.5321 18.7547 57.3235 18.8225 57.1148 18.8903L56.8261 18.2151ZM54.6947 16.5242L55.558 16.47L55.5894 16.9698C55.6038 17.2001 55.6054 17.4676 55.5941 17.7724C55.5889 18.0768 55.5543 18.3983 55.4904 18.7368C55.4322 19.0689 55.3314 19.4006 55.1879 19.732C55.0445 20.0633 54.8481 20.3737 54.5986 20.663C54.5513 20.5869 54.4882 20.5027 54.4094 20.4103C54.3371 20.3236 54.2587 20.2373 54.1742 20.1514C54.0898 20.0655 54.0125 19.9973 53.9424 19.947C54.2146 19.6319 54.4065 19.2975 54.5181 18.9438C54.6354 18.5837 54.7016 18.2328 54.7166 17.8913C54.7377 17.5494 54.7401 17.2482 54.7238 16.9877L54.6947 16.5242ZM63.4849 13.3999L70.455 12.9625L70.5251 14.0802L63.5551 14.5176L63.4849 13.3999ZM70.0006 12.991L71.1365 12.9197C71.1365 12.9197 71.1386 12.953 71.1428 13.0196C71.147 13.0863 71.1487 13.1622 71.148 13.2474C71.1529 13.3262 71.1539 13.39 71.1509 13.4388C71.1594 14.3506 71.1598 15.1321 71.152 15.7834C71.1438 16.4286 71.1228 16.9652 71.0888 17.393C71.0609 17.8205 71.0154 18.1609 70.9522 18.4143C70.8951 18.6672 70.8188 18.8575 70.7234 18.9851C70.5951 19.1696 70.4604 19.2997 70.3191 19.3754C70.184 19.4508 70.0172 19.5069 69.8188 19.5437C69.6567 19.5782 69.4424 19.6038 69.1759 19.6205C68.9093 19.6373 68.6365 19.6513 68.3574 19.6628C68.3411 19.4996 68.2898 19.3112 68.2034 19.0977C68.1231 18.8838 68.0266 18.7043 67.9141 18.5593C68.2065 18.5653 68.474 18.5637 68.7167 18.5546C68.9651 18.539 69.1499 18.5274 69.271 18.5198C69.3619 18.5141 69.4401 18.5 69.5056 18.4777C69.5711 18.4553 69.6292 18.4122 69.6799 18.3481C69.7537 18.2644 69.8169 18.1084 69.8695 17.8801C69.9217 17.6457 69.9593 17.324 69.9823 16.9151C70.0113 16.5058 70.0281 15.9969 70.0324 15.3884C70.0365 14.7738 70.0304 14.0474 70.0143 13.2091L70.0006 12.991ZM66.1567 11.3437L67.3199 11.2707L67.438 13.1518C67.4638 13.5637 67.4702 14.0043 67.457 14.4734C67.45 14.9422 67.401 15.4227 67.3103 15.915C67.2192 16.4012 67.0642 16.8884 66.8455 17.3765C66.6268 17.8646 66.3249 18.3367 65.9399 18.7927C65.561 19.2483 65.0734 19.6681 64.4772 20.0522C64.4109 19.9652 64.3226 19.8673 64.2124 19.7587C64.1083 19.6496 63.9954 19.5472 63.8738 19.4515C63.7583 19.3553 63.653 19.2768 63.558 19.2158C64.1085 18.8772 64.5567 18.5085 64.9027 18.1097C65.2547 17.7105 65.5301 17.3009 65.7287 16.8809C65.927 16.4549 66.0676 16.0295 66.1504 15.6046C66.2389 15.1733 66.2858 14.7568 66.291 14.355C66.3018 13.9469 66.2964 13.5701 66.2748 13.2248L66.1567 11.3437ZM77.5089 12.1184C77.4773 12.5826 77.4293 13.0783 77.3651 13.6054C77.3008 14.1324 77.2036 14.6677 77.0735 15.2111C76.9362 15.834 76.7633 16.374 76.5548 16.8311C76.3463 17.2881 76.1073 17.6468 75.8377 17.907C75.5739 18.1607 75.2754 18.2981 74.9421 18.319C74.6089 18.3399 74.2929 18.2472 73.9941 18.0409C73.701 17.8282 73.4571 17.5272 73.2624 17.138C73.0737 16.7485 72.9634 16.2992 72.9315 15.7903C72.8984 15.2633 72.9732 14.7598 73.156 14.28C73.3388 13.8002 73.6067 13.3698 73.9599 12.9888C74.3188 12.6014 74.7432 12.2889 75.2331 12.0514C75.729 11.8134 76.2708 11.676 76.8585 11.6392C77.4219 11.6038 77.9335 11.6629 78.3932 11.8166C78.859 11.9698 79.2625 12.1969 79.6037 12.4978C79.9449 12.7988 80.2139 13.159 80.4105 13.5785C80.6071 13.998 80.721 14.4561 80.7522 14.9529C80.7921 15.589 80.6976 16.1666 80.4687 16.6858C80.2397 17.205 79.878 17.6443 79.3836 18.0038C78.8952 18.3629 78.2732 18.6269 77.5174 18.796L76.768 17.7574C76.9426 17.7282 77.0957 17.6973 77.2275 17.6647C77.3593 17.6321 77.4848 17.5968 77.604 17.5589C77.8903 17.468 78.1534 17.3481 78.3934 17.1992C78.6391 17.0439 78.8496 16.8604 79.0249 16.6487C79.1997 16.4309 79.3301 16.1825 79.416 15.9034C79.5079 15.6239 79.5437 15.3206 79.5231 14.9935C79.5007 14.6361 79.4256 14.3123 79.298 14.0223C79.1703 13.7323 78.9936 13.4849 78.7679 13.2801C78.5417 13.0693 78.2736 12.9158 77.9635 12.8197C77.653 12.7175 77.3008 12.6788 76.907 12.7035C76.4224 12.734 76.0008 12.8486 75.6423 13.0475C75.2833 13.2403 74.9852 13.481 74.7479 13.7696C74.5105 14.0582 74.3351 14.3642 74.2216 14.6876C74.1142 15.0106 74.0694 15.3145 74.0872 15.5992C74.1062 15.9021 74.1586 16.1543 74.2442 16.3557C74.3294 16.551 74.4268 16.697 74.5362 16.7935C74.6514 16.8836 74.7695 16.9249 74.8907 16.9172C75.0179 16.9093 75.1381 16.8379 75.2513 16.703C75.3701 16.5618 75.4818 16.3541 75.5862 16.0799C75.6907 15.8057 75.7907 15.4619 75.8864 15.0484C75.9984 14.6034 76.0873 14.1295 76.153 13.6267C76.2188 13.1238 76.258 12.6348 76.2708 12.1596L77.5089 12.1184ZM89.7038 11.9279C89.6606 12.0157 89.6156 12.1219 89.5687 12.2465C89.5214 12.3651 89.4801 12.4832 89.445 12.601C89.3829 12.8725 89.29 13.1855 89.1663 13.5399C89.0483 13.8879 88.8948 14.2533 88.706 14.6362C88.5228 15.0126 88.3056 15.379 88.0542 15.7354C87.6507 16.2838 87.1715 16.7882 86.6165 17.2488C86.0676 17.709 85.3767 18.1355 84.5437 18.5284L83.411 17.6324C84.0175 17.4119 84.5375 17.1695 84.971 16.905C85.4045 16.6406 85.7795 16.3647 86.0959 16.0772C86.412 15.7837 86.6908 15.4773 86.9323 15.158C87.1295 14.9085 87.3067 14.6297 87.4637 14.3219C87.6204 14.0079 87.7531 13.6985 87.8617 13.3937C87.9702 13.0889 88.0387 12.823 88.0671 12.5962L85.0046 12.7884L85.3582 11.7353C85.443 11.73 85.5733 11.7218 85.7489 11.7108C85.9307 11.6994 86.1336 11.6866 86.3578 11.6726C86.588 11.6581 86.8122 11.644 87.0303 11.6304C87.2544 11.6163 87.4483 11.6041 87.6119 11.5939C87.7815 11.5832 87.8966 11.576 87.9572 11.5722C88.0965 11.5634 88.2353 11.5456 88.3735 11.5187C88.5177 11.4914 88.6402 11.4563 88.7409 11.4135L89.7038 11.9279ZM86.6512 10.678C86.552 10.8423 86.4567 11.0186 86.3651 11.2068C86.2735 11.395 86.2035 11.5393 86.155 11.6397C85.9719 12.0161 85.7412 12.4107 85.463 12.8235C85.1904 13.2298 84.8749 13.6298 84.5165 14.0233C84.1576 14.4107 83.7726 14.7694 83.3615 15.0993L82.2873 14.4095C82.6715 14.136 83.007 13.8595 83.2935 13.58C83.5861 13.3001 83.8365 13.0259 84.0447 12.7574C84.2525 12.4828 84.4278 12.2225 84.5705 11.9763C84.7188 11.7237 84.8447 11.4999 84.948 11.3049C85.0135 11.1852 85.0799 11.032 85.1472 10.8453C85.2142 10.6526 85.2642 10.4791 85.2971 10.325L86.6512 10.678ZM91.9896 10.9907C92.1778 10.985 92.3539 10.98 92.5178 10.9758C92.6875 10.9652 92.8329 10.956 92.954 10.9484C93.051 10.9423 93.1994 10.933 93.3993 10.9205C93.6053 10.9076 93.8446 10.8925 94.1172 10.8754C94.3898 10.8583 94.6806 10.8401 94.9896 10.8207C95.2986 10.8013 95.6075 10.7819 95.9165 10.7625C96.2315 10.7428 96.5254 10.7243 96.798 10.7072C97.0706 10.6901 97.3069 10.6753 97.5068 10.6627C97.7128 10.6498 97.8612 10.6405 97.9521 10.6348C98.0672 10.6276 98.2035 10.619 98.361 10.6091C98.5242 10.5928 98.6874 10.5765 98.8506 10.5601C98.8533 10.6999 98.8565 10.8487 98.8604 11.0066C98.8699 11.158 98.879 11.3034 98.8877 11.4428C98.8931 11.5276 98.9014 11.6609 98.9128 11.8426C98.9239 12.0183 98.9372 12.2303 98.9527 12.4787C98.968 12.7211 98.9843 12.9816 99.0018 13.2602C99.0189 13.5329 99.0362 13.8085 99.0537 14.0872C99.0712 14.3659 99.0877 14.6294 99.1033 14.8778C99.1185 15.1201 99.1318 15.3322 99.1432 15.5139C99.1542 15.6896 99.1622 15.8168 99.1672 15.8956C99.1729 15.9865 99.1801 16.1016 99.1888 16.2409C99.2033 16.3738 99.2148 16.5099 99.2236 16.6493C99.232 16.7825 99.2394 16.9007 99.2458 17.0037C99.258 17.1002 99.2642 17.1515 99.2646 17.1576L98.0106 17.2363C98.0098 17.2242 98.0052 17.1515 97.9969 17.0182C97.9942 16.8785 97.9869 16.7147 97.9752 16.5269C97.9694 16.3387 97.9614 16.1628 97.9512 15.9993C97.9462 15.9205 97.9379 15.7872 97.9261 15.5994C97.9143 15.4116 97.9004 15.1905 97.8845 14.936C97.8685 14.6816 97.8516 14.412 97.8337 14.1273C97.8158 13.8425 97.7983 13.5638 97.7812 13.2912C97.7641 13.0186 97.7485 12.7702 97.7345 12.5461C97.7204 12.3219 97.7092 12.1432 97.7008 12.0099C97.6925 11.8766 97.6883 11.81 97.6883 11.81L93.2991 12.0854C93.2991 12.0854 93.3033 12.1521 93.3116 12.2853C93.32 12.4186 93.3312 12.5973 93.3453 12.8215C93.359 13.0396 93.3745 13.288 93.392 13.5667C93.4091 13.8393 93.4266 14.118 93.4445 14.4027C93.462 14.6814 93.4789 14.951 93.4952 15.2115C93.5112 15.4659 93.5251 15.687 93.5369 15.8749C93.5487 16.0627 93.557 16.1959 93.562 16.2747C93.5688 16.3837 93.5766 16.5079 93.5853 16.6473C93.5937 16.7806 93.6019 16.9108 93.6099 17.038C93.6239 17.1649 93.6336 17.2707 93.6389 17.3555C93.6446 17.4464 93.6479 17.4979 93.6486 17.51L92.3946 17.5887C92.3938 17.5766 92.3906 17.5251 92.3849 17.4342C92.3852 17.343 92.3812 17.2307 92.3728 17.0974C92.3705 16.9638 92.365 16.8273 92.3563 16.6879C92.3536 16.5482 92.3488 16.4238 92.342 16.3148C92.337 16.236 92.3291 16.1088 92.318 15.9331C92.3066 15.7513 92.2931 15.5363 92.2775 15.2879C92.262 15.0395 92.2456 14.779 92.2285 14.5064C92.211 14.2277 92.1935 13.949 92.176 13.6703C92.1585 13.3917 92.1422 13.1312 92.127 12.8888C92.1114 12.6404 92.0981 12.4284 92.0871 12.2527C92.076 12.077 92.0681 11.9498 92.0631 11.871C92.0551 11.7438 92.046 11.5984 92.0357 11.4348C92.0251 11.2652 92.0097 11.1172 91.9896 10.9907ZM98.3793 15.5527L98.4523 16.7159L92.9908 17.0586L92.9178 15.8955L98.3793 15.5527ZM104.859 11.2322C104.908 11.3265 104.971 11.4624 105.049 11.64C105.133 11.8111 105.221 11.9972 105.312 12.1982C105.404 12.3932 105.485 12.5797 105.557 12.7576C105.629 12.9356 105.687 13.0749 105.729 13.1756L104.663 13.6257C104.631 13.5121 104.58 13.3694 104.508 13.1975C104.437 13.0256 104.358 12.845 104.274 12.6557C104.188 12.4604 104.104 12.2741 104.02 12.0969C103.935 11.9197 103.862 11.7723 103.8 11.6545L104.859 11.2322ZM108.254 11.6852C108.215 11.8336 108.18 11.9605 108.15 12.0658C108.127 12.1707 108.102 12.2695 108.078 12.3623C107.992 12.8299 107.863 13.3002 107.692 13.7732C107.52 14.2401 107.293 14.6832 107.009 15.1024C106.619 15.6743 106.167 16.168 105.651 16.5835C105.142 16.9925 104.627 17.3137 104.106 17.5471L103.091 16.6347C103.418 16.5229 103.761 16.3675 104.12 16.1687C104.478 15.9637 104.822 15.7232 105.151 15.4471C105.481 15.171 105.76 14.8706 105.989 14.5461C106.178 14.2726 106.341 13.9644 106.478 13.6213C106.62 13.2718 106.731 12.9029 106.81 12.5148C106.895 12.1202 106.944 11.734 106.956 11.3561L108.254 11.6852ZM102.781 11.8462C102.849 11.9575 102.925 12.1017 103.009 12.2789C103.099 12.4557 103.19 12.6416 103.281 12.8366C103.373 13.0316 103.461 13.2207 103.545 13.4039C103.636 13.5868 103.706 13.7405 103.756 13.8651L102.674 14.3527C102.63 14.2338 102.566 14.0797 102.481 13.8904C102.402 13.7007 102.313 13.5025 102.215 13.2958C102.117 13.083 102.023 12.8882 101.932 12.7114C101.848 12.5342 101.776 12.3989 101.715 12.3054L102.781 11.8462ZM116.581 8.44396C116.667 8.54806 116.757 8.67318 116.851 8.81932C116.951 8.96507 117.049 9.11101 117.143 9.25715C117.237 9.40328 117.315 9.53219 117.377 9.64388L116.669 9.99847C116.567 9.81636 116.441 9.61136 116.293 9.38345C116.151 9.1491 116.013 8.94789 115.881 8.7798L116.581 8.44396ZM117.628 7.96773C117.713 8.07184 117.806 8.1998 117.907 8.35161C118.014 8.49698 118.114 8.64274 118.208 8.78887C118.308 8.92857 118.386 9.05142 118.441 9.15742L117.743 9.51145C117.634 9.32366 117.505 9.11582 117.357 8.88791C117.209 8.66 117.066 8.46523 116.928 8.30358L117.628 7.96773ZM117.524 10.3919C117.475 10.4801 117.427 10.5865 117.38 10.7111C117.333 10.8296 117.295 10.9476 117.265 11.065C117.203 11.3365 117.111 11.6494 116.987 12.0039C116.863 12.3523 116.709 12.7147 116.526 13.0911C116.343 13.4675 116.123 13.8371 115.866 14.1999C115.468 14.7479 114.992 15.2522 114.437 15.7128C113.888 16.173 113.197 16.5995 112.364 16.9924L111.231 16.0964C111.838 15.8698 112.358 15.6274 112.792 15.369C113.225 15.1046 113.6 14.8257 113.916 14.5321C114.232 14.2386 114.511 13.9322 114.752 13.6129C114.943 13.3637 115.118 13.0852 115.275 12.7773C115.438 12.4691 115.571 12.1627 115.673 11.8583C115.782 11.5534 115.853 11.2874 115.888 11.0602L112.825 11.2524L113.179 10.1993C113.257 10.1943 113.388 10.1862 113.569 10.1748C113.751 10.1633 113.954 10.1506 114.178 10.1365C114.402 10.1225 114.624 10.1086 114.842 10.0949C115.066 10.0808 115.263 10.0685 115.432 10.0578C115.602 10.0472 115.714 10.0402 115.769 10.0367C115.914 10.0276 116.056 10.0096 116.194 9.98268C116.338 9.94933 116.457 9.91446 116.552 9.87809L117.524 10.3919ZM114.472 9.14196C114.373 9.30631 114.277 9.4826 114.186 9.67081C114.094 9.85902 114.024 10.0033 113.976 10.1037C113.792 10.4801 113.562 10.8747 113.283 11.2875C113.005 11.6942 112.686 12.0943 112.328 12.4878C111.975 12.8749 111.59 13.2336 111.173 13.5639L110.107 12.8644C110.492 12.597 110.827 12.3235 111.114 12.044C111.401 11.7645 111.648 11.4905 111.856 11.222C112.064 10.9474 112.242 10.6868 112.391 10.4403C112.539 10.1877 112.662 9.96105 112.759 9.76034C112.825 9.64673 112.891 9.49658 112.959 9.30989C113.032 9.11676 113.082 8.94333 113.108 8.78959L114.472 9.14196ZM125.874 11.3002C125.91 11.8636 125.899 12.3782 125.843 12.844C125.793 13.3033 125.68 13.727 125.503 14.1152C125.327 14.4973 125.069 14.8479 124.73 15.1672C124.391 15.4865 123.957 15.7844 123.427 16.061L122.397 15.2042C122.824 15.0253 123.189 14.8321 123.492 14.6246C123.801 14.4166 124.05 14.1699 124.239 13.8843C124.428 13.5927 124.558 13.25 124.631 12.8562C124.709 12.4559 124.731 11.9771 124.696 11.4198L124.544 9.00253C124.532 8.81472 124.516 8.65153 124.495 8.51295C124.474 8.36831 124.454 8.25094 124.436 8.16082L125.736 8.07928C125.73 8.17091 125.722 8.29 125.713 8.43654C125.709 8.57664 125.714 8.74059 125.725 8.92839L125.874 11.3002ZM122.397 8.37092C122.39 8.4565 122.385 8.57236 122.382 8.71852C122.379 8.85862 122.383 9.01652 122.394 9.19221L122.598 12.4455C122.606 12.5788 122.617 12.7088 122.632 12.8357C122.645 12.9565 122.655 13.0653 122.661 13.1623C122.673 13.2527 122.684 13.3311 122.694 13.3974L121.422 13.4772C121.43 13.4098 121.434 13.3305 121.434 13.2392C121.434 13.1419 121.434 13.0325 121.432 12.911C121.43 12.7833 121.425 12.6529 121.417 12.5196L121.212 9.26634C121.204 9.13306 121.189 8.99713 121.169 8.85855C121.154 8.71959 121.133 8.58404 121.107 8.4519L122.397 8.37092ZM119.501 10.1948C119.562 10.1971 119.641 10.2043 119.739 10.2164C119.837 10.2224 119.95 10.2275 120.078 10.2316C120.205 10.2297 120.345 10.224 120.496 10.2145L126.458 9.84037C126.7 9.82516 126.897 9.80675 127.047 9.78513C127.198 9.76351 127.333 9.73981 127.453 9.71403L127.529 10.9226C127.432 10.9166 127.301 10.9187 127.137 10.929C126.973 10.9332 126.77 10.9429 126.528 10.9581L120.567 11.3322C120.415 11.3417 120.276 11.3535 120.149 11.3675C120.028 11.3751 119.919 11.385 119.823 11.3971C119.732 11.4089 119.651 11.4201 119.578 11.4307L119.501 10.1948ZM130.446 8.11216C130.61 8.21133 130.803 8.33301 131.025 8.47722C131.247 8.62143 131.476 8.7804 131.712 8.95414C131.953 9.12144 132.18 9.28667 132.391 9.44981C132.602 9.61295 132.775 9.7602 132.911 9.89156L132.043 10.8948C131.92 10.7748 131.759 10.6329 131.561 10.469C131.362 10.3051 131.147 10.136 130.917 9.96192C130.688 9.7878 130.461 9.62258 130.239 9.46626C130.016 9.30993 129.819 9.17935 129.648 9.07451L130.446 8.11216ZM129.689 14.2356C130.158 14.1393 130.597 14.0175 131.008 13.8701C131.418 13.7227 131.797 13.559 132.145 13.3791C132.492 13.1991 132.809 13.015 133.095 12.8268C133.591 12.4855 134.041 12.1045 134.447 11.6837C134.852 11.2629 135.202 10.8304 135.497 10.3862C135.791 9.93589 136.019 9.5019 136.181 9.08422L136.97 10.3211C136.766 10.7414 136.506 11.1652 136.193 11.5924C135.885 12.0192 135.531 12.4307 135.13 12.8268C134.728 13.2169 134.292 13.5728 133.819 13.8944C133.522 14.1016 133.2 14.3012 132.853 14.4933C132.506 14.6793 132.136 14.8484 131.745 15.0007C131.359 15.1587 130.954 15.2876 130.528 15.3873L129.689 14.2356ZM144.66 6.66366C144.745 6.7617 144.835 6.88682 144.93 7.03902C145.03 7.18477 145.127 7.33071 145.222 7.47685C145.316 7.62298 145.394 7.75189 145.456 7.86358L144.748 8.21817C144.646 8.03606 144.52 7.83106 144.372 7.60315C144.23 7.3688 144.092 7.16759 143.96 6.9995L144.66 6.66366ZM145.706 6.17834C145.792 6.28851 145.885 6.4195 145.986 6.57131C146.092 6.71668 146.193 6.86244 146.287 7.00857C146.387 7.14827 146.465 7.26809 146.52 7.36804L145.822 7.73115C145.712 7.54336 145.584 7.33552 145.436 7.10761C145.288 6.8797 145.145 6.68493 145.007 6.52328L145.706 6.17834ZM141.476 10.2938C141.764 10.4399 142.082 10.6115 142.429 10.8087C142.776 10.9998 143.123 11.2 143.471 11.4093C143.824 11.6183 144.156 11.8225 144.467 12.0219C144.783 12.215 145.053 12.3927 145.276 12.5551L144.468 13.6367C144.256 13.4614 143.994 13.265 143.683 13.0473C143.377 12.8293 143.047 12.6067 142.692 12.3796C142.337 12.1465 141.988 11.9251 141.647 11.7154C141.305 11.5057 140.996 11.3244 140.719 11.1715L141.476 10.2938ZM145.65 8.48091C145.607 8.56877 145.561 8.67499 145.515 8.79958C145.467 8.9181 145.426 9.03625 145.391 9.15402C145.317 9.4384 145.213 9.75517 145.076 10.1043C144.946 10.4531 144.786 10.8128 144.597 11.1836C144.407 11.5543 144.187 11.9179 143.935 12.2742C143.544 12.8279 143.061 13.3661 142.486 13.8888C141.91 14.4054 141.199 14.8575 140.354 15.2451L139.242 14.3934C139.86 14.1539 140.394 13.8893 140.844 13.5995C141.293 13.3037 141.681 12.9935 142.008 12.6689C142.334 12.3443 142.615 12.0226 142.85 11.7037C143.041 11.4485 143.218 11.1697 143.382 10.8675C143.545 10.5593 143.684 10.2556 143.799 9.9564C143.92 9.65686 144.001 9.39027 144.041 9.15663L140.969 9.34938L141.322 8.28719L143.912 8.12466C144.052 8.11592 144.19 8.09809 144.328 8.07117C144.473 8.04387 144.595 8.00881 144.696 7.966L145.65 8.48091ZM142.564 7.27873C142.464 7.44309 142.366 7.61956 142.268 7.80815C142.177 7.99636 142.107 8.14064 142.058 8.241C141.881 8.61098 141.644 9.01203 141.349 9.44414C141.06 9.87587 140.731 10.298 140.361 10.7104C139.998 11.1225 139.608 11.4936 139.19 11.8239L138.161 11.1222C138.674 10.7616 139.103 10.3879 139.45 10.0012C139.803 9.6081 140.092 9.23412 140.319 8.87927C140.552 8.51798 140.736 8.1993 140.871 7.92323C140.936 7.80962 141.003 7.65947 141.07 7.47278C141.143 7.27966 141.193 7.10622 141.22 6.95249L142.564 7.27873ZM151.967 13.4945C151.98 13.4025 151.988 13.2985 151.993 13.1827C152.004 13.0604 152.005 12.9386 151.998 12.8175C151.994 12.7508 151.985 12.6175 151.973 12.4176C151.96 12.2177 151.945 11.9754 151.927 11.6906C151.909 11.4059 151.89 11.0999 151.87 10.7728C151.849 10.4396 151.828 10.1034 151.806 9.7641C151.785 9.42484 151.765 9.10678 151.746 8.80993C151.727 8.50701 151.711 8.24348 151.697 8.01933C151.682 7.78911 151.672 7.62251 151.665 7.51952C151.652 7.31354 151.629 7.13558 151.595 6.98565C151.568 6.83533 151.55 6.7543 151.544 6.74257L152.898 6.6576C152.892 6.67009 152.886 6.75567 152.877 6.91432C152.869 7.06692 152.871 7.24621 152.884 7.45219C152.89 7.55518 152.9 7.70967 152.913 7.91565C152.925 8.11557 152.94 8.34881 152.957 8.61538C152.973 8.87588 152.99 9.15456 153.009 9.45141C153.028 9.74827 153.046 10.0421 153.064 10.3329C153.082 10.6176 153.099 10.8902 153.116 11.1508C153.132 11.4052 153.145 11.6233 153.157 11.805C153.168 11.9868 153.177 12.1201 153.182 12.2049C153.423 12.0803 153.672 11.9157 153.926 11.7111C154.181 11.5066 154.428 11.2722 154.667 11.0078C154.911 10.737 155.124 10.4499 155.306 10.1466L156.069 11.1023C155.841 11.445 155.558 11.7851 155.22 12.1226C154.889 12.4597 154.543 12.7702 154.184 13.0543C153.825 13.3384 153.478 13.5791 153.144 13.7765C153.05 13.8371 152.974 13.8905 152.917 13.9367C152.859 13.989 152.81 14.0346 152.77 14.0736L151.967 13.4945ZM147.751 13.6222C148.134 13.3184 148.44 12.9617 148.669 12.5519C148.899 12.1422 149.063 11.7427 149.16 11.3534C149.214 11.1493 149.247 10.9009 149.259 10.6082C149.277 10.309 149.284 9.99231 149.282 9.65796C149.278 9.31756 149.267 8.98378 149.246 8.65664C149.231 8.32305 149.215 8.01692 149.198 7.73824C149.186 7.5565 149.167 7.40258 149.141 7.2765C149.121 7.14398 149.095 7.02092 149.063 6.90734L150.399 6.82351C150.394 6.836 150.388 6.88807 150.382 6.9797C150.381 7.0649 150.378 7.16846 150.374 7.29039C150.375 7.40587 150.379 7.52723 150.387 7.65445C150.404 7.92101 150.421 8.2332 150.437 8.59102C150.453 8.94278 150.464 9.30401 150.469 9.6747C150.474 10.0454 150.468 10.3985 150.453 10.734C150.437 11.0634 150.406 11.3451 150.36 11.5791C150.253 12.1028 150.074 12.5945 149.823 13.0543C149.578 13.5076 149.272 13.9191 148.906 14.2887L147.751 13.6222Z" fill="#61BDD1"/>
</svg>
