<svg width="14" height="13" viewBox="0 0 14 13" fill="none" xmlns="http://www.w3.org/2000/svg">
<path d="M1.76398 12.1684C1.21198 11.2724 0.779981 10.3324 0.467981 9.34841C0.155981 8.35641 -1.85966e-05 7.26841 -1.85966e-05 6.08441C-1.85966e-05 4.90841 0.155981 3.82441 0.467981 2.83241C0.779981 1.84041 1.21198 0.896406 1.76398 0.000406027L2.43598 0.312406C1.92398 1.16841 1.53998 2.09241 1.28398 3.08441C1.03598 4.06841 0.911981 5.06841 0.911981 6.08441C0.911981 7.10841 1.03598 8.11641 1.28398 9.10841C1.53998 10.0924 1.92398 11.0124 2.43598 11.8684L1.76398 12.1684ZM4.36667 9.81641V8.90441H6.33467V2.34041H4.76267V1.64441C5.15467 1.57241 5.49467 1.48441 5.78267 1.38041C6.07867 1.27641 6.34667 1.15641 6.58667 1.02041H7.42667V8.90441H9.19067V9.81641H4.36667ZM11.5149 12.1684L10.8309 11.8684C11.3509 11.0124 11.7389 10.0924 11.9949 9.10841C12.2509 8.11641 12.3789 7.10841 12.3789 6.08441C12.3789 5.06841 12.2509 4.06841 11.9949 3.08441C11.7389 2.09241 11.3509 1.16841 10.8309 0.312406L11.5149 0.000406027C12.0749 0.896406 12.5069 1.84041 12.8109 2.83241C13.1229 3.82441 13.2789 4.90841 13.2789 6.08441C13.2789 7.26841 13.1229 8.35641 12.8109 9.34841C12.5069 10.3324 12.0749 11.2724 11.5149 12.1684Z" fill="white"/>
</svg>
