<svg width="14" height="13" viewBox="0 0 14 13" fill="none" xmlns="http://www.w3.org/2000/svg">
<path d="M1.76398 12.1684C1.21198 11.2724 0.779981 10.3324 0.467981 9.34841C0.155981 8.35641 -1.85966e-05 7.26841 -1.85966e-05 6.08441C-1.85966e-05 4.90841 0.155981 3.82441 0.467981 2.83241C0.779981 1.84041 1.21198 0.896406 1.76398 0.000406027L2.43598 0.312406C1.92398 1.16841 1.53998 2.09241 1.28398 3.08441C1.03598 4.06841 0.911981 5.06841 0.911981 6.08441C0.911981 7.10841 1.03598 8.11641 1.28398 9.10841C1.53998 10.0924 1.92398 11.0124 2.43598 11.8684L1.76398 12.1684ZM6.92267 9.97241C6.50667 9.97241 6.11867 9.88441 5.75867 9.70841C5.39867 9.52441 5.08667 9.25241 4.82267 8.89241C4.55867 8.52441 4.35067 8.06841 4.19867 7.52441C4.05467 6.98041 3.98267 6.34441 3.98267 5.61641C3.98267 4.76041 4.07067 4.02841 4.24667 3.42041C4.42267 2.81241 4.66267 2.32041 4.96667 1.94441C5.27067 1.56841 5.61867 1.29641 6.01067 1.12841C6.40267 0.952406 6.81067 0.864406 7.23467 0.864406C7.69067 0.864406 8.08667 0.948406 8.42267 1.11641C8.75867 1.28441 9.05067 1.50041 9.29867 1.76441L8.67467 2.43641C8.50667 2.22841 8.29867 2.06441 8.05067 1.94441C7.80267 1.82441 7.54667 1.76441 7.28267 1.76441C6.86667 1.76441 6.48667 1.88841 6.14267 2.13641C5.79867 2.37641 5.52267 2.77641 5.31467 3.33641C5.11467 3.89641 5.01467 4.65641 5.01467 5.61641C5.01467 6.36841 5.08667 7.00441 5.23067 7.52441C5.38267 8.04441 5.59867 8.44041 5.87867 8.71241C6.16667 8.97641 6.51467 9.10841 6.92267 9.10841C7.21067 9.10841 7.46267 9.02441 7.67867 8.85641C7.90267 8.68841 8.07867 8.45641 8.20667 8.16041C8.34267 7.85641 8.41067 7.50841 8.41067 7.11641C8.41067 6.71641 8.35067 6.37241 8.23067 6.08441C8.11867 5.78841 7.94667 5.56441 7.71467 5.41241C7.48267 5.25241 7.18667 5.17241 6.82667 5.17241C6.54667 5.17241 6.24267 5.26441 5.91467 5.44841C5.58667 5.62441 5.27467 5.93241 4.97867 6.37241L4.94267 5.50841C5.12667 5.26841 5.33067 5.06441 5.55467 4.89641C5.77867 4.72041 6.01467 4.58841 6.26267 4.50041C6.51867 4.40441 6.76667 4.35641 7.00667 4.35641C7.50267 4.35641 7.93067 4.46041 8.29067 4.66841C8.65867 4.86841 8.94267 5.17241 9.14267 5.58041C9.35067 5.98841 9.45467 6.50041 9.45467 7.11641C9.45467 7.68441 9.33867 8.18441 9.10667 8.61641C8.87467 9.04041 8.56667 9.37241 8.18267 9.61241C7.80667 9.85241 7.38667 9.97241 6.92267 9.97241ZM11.5149 12.1684L10.8309 11.8684C11.3509 11.0124 11.7389 10.0924 11.9949 9.10841C12.2509 8.11641 12.3789 7.10841 12.3789 6.08441C12.3789 5.06841 12.2509 4.06841 11.9949 3.08441C11.7389 2.09241 11.3509 1.16841 10.8309 0.312406L11.5149 0.000406027C12.0749 0.896406 12.5069 1.84041 12.8109 2.83241C13.1229 3.82441 13.2789 4.90841 13.2789 6.08441C13.2789 7.26841 13.1229 8.35641 12.8109 9.34841C12.5069 10.3324 12.0749 11.2724 11.5149 12.1684Z" fill="white"/>
</svg>
