<svg width="113" height="10" viewBox="0 0 113 10" fill="none" xmlns="http://www.w3.org/2000/svg">
<g clip-path="url(#clip0_201_18210)">
<path d="M39.8868 3.73948C40.0408 3.70518 40.1948 3.67087 40.3488 3.63657C40.3488 3.53365 40.3681 3.44789 40.3873 3.34497C40.5413 3.31067 40.6953 3.27636 40.8493 3.24206C41.1574 3.00192 40.8878 2.899 41.3691 2.69317C41.4269 2.29866 41.4654 1.90415 41.5231 1.50964C41.3884 1.44103 41.2344 1.37242 41.0996 1.32096C40.9649 1.14943 40.8301 0.995058 40.7146 0.823531C40.1563 0.514783 36.8068 -0.102713 35.5747 0.000203334C35.5747 0.0516613 35.5747 0.103119 35.5555 0.154577C35.0357 0.103119 34.4967 0.0516613 33.9769 0.000203334C33.9769 0.0516613 33.9769 0.103119 33.9577 0.154577C33.4957 0.154577 33.0529 0.154577 32.5909 0.154577V0.308951C32.4177 0.308951 32.2637 0.274646 32.1289 0.257493C32.1289 0.308951 32.1289 0.360409 32.1289 0.411867C31.8979 0.394715 31.6861 0.360409 31.4551 0.343257C31.4551 0.394715 31.4551 0.446173 31.4551 0.49763C30.8584 0.49763 30.2424 0.480478 29.6263 0.463325V0.617699C29.4531 0.617699 29.2991 0.583394 29.1643 0.566241C29.1643 0.617699 29.1643 0.669157 29.1451 0.720615C28.9141 0.703462 28.7023 0.669157 28.4713 0.652004C28.4713 0.703462 28.4713 0.75492 28.4521 0.806378L27.5281 0.857836V1.01221C27.2778 0.995058 27.066 0.960752 26.835 0.9436C26.835 0.995058 26.835 1.04652 26.8158 1.09797C26.5078 1.11513 26.1998 1.13228 25.8918 1.14943C25.8918 1.20089 25.8918 1.25235 25.8918 1.30381C25.1217 1.37242 24.3517 1.44103 23.5817 1.50964L23.3122 1.78408C23.1582 1.78408 23.0042 1.74977 22.8694 1.73262C22.8694 1.78408 22.8694 1.83554 22.8502 1.887C22.5422 1.90415 22.2342 1.9213 21.9262 1.93845V2.09283C21.4449 2.09283 21.0022 2.09283 20.5401 2.09283C20.5401 2.14429 20.5401 2.19574 20.5401 2.2472C20.3861 2.2472 20.2321 2.2129 20.0974 2.19574C20.0011 2.28151 19.9241 2.36727 19.8279 2.47019C19.3659 2.52164 18.9039 2.5731 18.4419 2.62456C18.3456 2.71032 18.2686 2.81324 18.1723 2.899C17.7873 2.899 17.4023 2.91616 17.0366 2.93331C17.0366 2.98477 17.0366 3.03622 17.0173 3.08768C16.8633 3.08768 16.7093 3.05338 16.5746 3.03622C16.4976 3.12199 16.4013 3.2249 16.3051 3.31067L15.381 3.36212C15.2848 3.44789 15.2078 3.5508 15.1115 3.63657C14.9575 3.63657 14.8035 3.60226 14.6688 3.58511L14.1875 3.8424C14.0335 3.8424 13.8795 3.80809 13.7447 3.79094C13.7447 3.8424 13.7447 3.89386 13.7255 3.94532C13.5715 3.94532 13.4175 3.91101 13.2827 3.89386C13.1865 3.97962 13.1095 4.08254 13.0132 4.1683C12.7822 4.20261 12.5512 4.21976 12.3202 4.25406V4.40844C11.839 4.45989 11.3769 4.51135 10.9149 4.56281C10.9149 4.61427 10.9149 4.66573 10.8957 4.71719C10.6647 4.75149 10.4337 4.76864 10.2027 4.80295L9.93316 5.07739C9.77916 5.07739 9.62516 5.04309 9.4904 5.02593C9.24015 5.19746 8.98989 5.36899 8.73964 5.54051C8.35463 5.54051 7.96962 5.55767 7.60386 5.57482C7.35361 5.74634 7.10335 5.91787 6.8531 6.0894C6.69909 6.0894 6.54509 6.05509 6.41034 6.03794C6.31408 6.1237 6.23708 6.22662 6.14083 6.31238C5.90982 6.34669 5.67882 6.36384 5.44781 6.39815C5.44781 6.4496 5.44781 6.50106 5.42856 6.55252C5.27456 6.55252 5.12056 6.51821 4.9858 6.50106C4.81255 6.63828 4.6393 6.75835 4.48529 6.89557C4.33129 6.89557 4.17729 6.86127 4.04253 6.84411C3.86928 6.98134 3.71528 7.1014 3.54202 7.23863C3.38802 7.23863 3.23402 7.20432 3.09926 7.18717C3.00301 7.27293 2.92601 7.37585 2.82976 7.46161C2.67575 7.46161 2.52175 7.42731 2.387 7.41015C1.65548 7.83897 0.904715 8.25063 0.173198 8.67945C0.0961967 9.3484 0.211699 9.50278 0.481205 9.89729C0.846963 9.93159 1.23197 9.9659 1.59773 10.0174C2.00199 9.76007 2.4255 9.50278 2.82976 9.24549C3.23402 9.09111 3.63827 8.93674 4.02328 8.76521C4.11954 8.67945 4.19654 8.57653 4.29279 8.49077C4.44679 8.49077 4.6008 8.52507 4.73555 8.54223C4.9858 8.3707 5.23606 8.19917 5.48632 8.02765C5.64032 8.02765 5.79432 8.06195 5.92908 8.07911C6.17933 7.90758 6.42959 7.73605 6.67984 7.56453C6.83385 7.56453 6.98785 7.59883 7.1226 7.61598C7.21885 7.53022 7.29586 7.42731 7.39211 7.34154C7.54611 7.34154 7.70011 7.37585 7.83487 7.393C8.00812 7.25578 8.18137 7.13571 8.33538 6.99849C8.56638 6.96418 8.79739 6.94703 9.02839 6.91273C9.12465 6.82696 9.20165 6.72405 9.2979 6.63828C9.75991 6.58682 10.2219 6.53537 10.6839 6.48391C10.7609 6.39815 10.8572 6.29523 10.9534 6.20947C11.1074 6.20947 11.2614 6.24377 11.3962 6.26092C11.5695 6.1237 11.7235 6.00363 11.8967 5.86641C12.0507 5.86641 12.2047 5.90072 12.3395 5.91787C12.4357 5.83211 12.5127 5.72919 12.609 5.64343C12.917 5.62628 13.225 5.60912 13.533 5.59197C13.6292 5.50621 13.7062 5.40329 13.8025 5.31753C13.9565 5.31753 14.1105 5.35183 14.2453 5.36899L14.5148 5.09454C14.6688 5.09454 14.8228 5.12885 14.9575 5.146C15.0538 5.06024 15.1308 4.95732 15.227 4.87156C15.458 4.88871 15.6698 4.92302 15.9008 4.94017C15.9008 4.88871 15.9008 4.83725 15.92 4.7858C16.074 4.7858 16.2281 4.8201 16.3628 4.83725C16.4591 4.75149 16.5361 4.64857 16.6323 4.56281C16.9403 4.54566 17.2483 4.52851 17.5563 4.51135C17.6333 4.42559 17.7296 4.32267 17.8258 4.23691C17.9798 4.23691 18.1338 4.27122 18.2686 4.28837C18.2686 4.23691 18.2686 4.18545 18.2878 4.13399C18.4419 4.13399 18.5959 4.1683 18.7306 4.18545C18.7306 4.13399 18.7306 4.08254 18.7499 4.03108C18.9809 4.04823 19.1926 4.08254 19.4236 4.09969V3.94532C19.9049 3.89386 20.3669 3.8424 20.8289 3.79094C20.8289 3.73948 20.8289 3.68802 20.8289 3.63657C20.9829 3.63657 21.1369 3.67087 21.2717 3.68803C21.3679 3.60226 21.4449 3.49935 21.5412 3.41358C21.6952 3.41358 21.8492 3.44789 21.9839 3.46504L22.4652 3.20775C23.3122 3.08768 24.1592 2.98477 25.0255 2.8647C25.1217 2.77893 25.1988 2.67602 25.295 2.59026C25.757 2.59026 26.1998 2.59026 26.6618 2.59026C26.6618 2.5388 26.6618 2.48734 26.681 2.43588C26.989 2.41873 27.297 2.40158 27.6051 2.38442V2.23005C27.8553 2.2472 28.0671 2.28151 28.2981 2.29866C28.2981 2.2472 28.2981 2.19574 28.3173 2.14429C28.4713 2.14429 28.6253 2.17859 28.7601 2.19574C28.7601 2.14429 28.7601 2.09283 28.7793 2.04137C29.0103 2.05852 29.2221 2.09283 29.4531 2.10998C29.4531 2.05852 29.4531 2.00706 29.4723 1.95561C29.6264 1.95561 29.7804 1.98991 29.9151 2.00706C29.9151 1.95561 29.9151 1.90415 29.9344 1.85269C30.1654 1.86984 30.3771 1.90415 30.6081 1.9213C30.6081 1.86984 30.6081 1.81839 30.6274 1.76693C30.7814 1.76693 30.9354 1.80123 31.0701 1.81839V1.66401C31.3974 1.69832 31.6861 1.73262 31.9942 1.74977C31.9942 1.69832 31.9942 1.64686 32.0134 1.5954C32.2444 1.61255 32.4562 1.64686 32.6872 1.66401V1.50964C33.0144 1.54394 33.3032 1.5611 33.6112 1.5954C33.6112 1.54394 33.6112 1.49248 33.6112 1.44103C33.8422 1.45818 34.0539 1.49248 34.285 1.50964C34.285 1.45818 34.285 1.40672 34.3042 1.35526C35.286 1.23519 35.4207 1.62971 36.133 1.23519C37.1148 1.33811 38.0773 1.44103 39.0591 1.52679C39.0591 1.52679 39.3286 1.80123 39.4633 1.86984C39.2901 2.04137 39.0783 2.04137 38.9821 2.12713C38.9821 2.23005 38.9628 2.31581 38.9436 2.41873C38.7896 2.45303 38.6355 2.48734 38.4815 2.52164C38.4815 2.62456 38.4623 2.71032 38.443 2.81324L37.9618 3.07053C37.9618 3.17345 37.9425 3.25921 37.9233 3.36212C37.7693 3.39643 37.6153 3.43074 37.4613 3.46504C37.4613 3.56796 37.442 3.65372 37.4228 3.75664C37.2688 3.79094 37.1148 3.82525 36.9608 3.85955C36.672 4.09969 36.9223 4.18545 36.441 4.40844C36.3062 5.55767 36.0367 6.4496 37.2688 6.87842C38.135 7.18717 40.8686 6.68974 41.4076 6.55252C41.4076 6.50106 41.4076 6.4496 41.4269 6.39815C41.5809 6.39815 41.7349 6.43245 41.8696 6.4496C41.8696 6.39815 41.8696 6.34669 41.8696 6.29523C42.0236 6.29523 42.1776 6.32954 42.3124 6.34669C42.3124 6.29523 42.3124 6.24377 42.3124 6.19231C42.5434 6.20947 42.7551 6.24377 42.9861 6.26092C42.9861 6.20947 42.9861 6.15801 42.9861 6.10655C43.1401 6.10655 43.2942 6.14086 43.4289 6.15801V6.00363C43.9102 5.95218 44.3722 5.90072 44.8342 5.84926C44.8342 5.7978 44.8342 5.74634 44.8534 5.69489C45.0074 5.69489 45.1614 5.72919 45.2962 5.74634C45.2962 5.69489 45.2962 5.64343 45.2962 5.59197C45.5272 5.60912 45.739 5.64343 45.97 5.66058C45.97 5.60912 45.97 5.55767 45.9892 5.50621C46.1432 5.50621 46.2972 5.54051 46.432 5.55767C46.432 5.50621 46.432 5.45475 46.432 5.40329C46.74 5.38614 47.048 5.36899 47.356 5.35183C47.356 5.30037 47.356 5.24892 47.3752 5.19746C47.8373 5.19746 48.28 5.19746 48.742 5.19746C48.819 5.1117 48.9153 5.00878 49.0115 4.92302C49.1655 4.92302 49.3195 4.95732 49.4543 4.97447C49.4543 4.92302 49.4543 4.87156 49.4735 4.8201C49.7815 4.80295 50.0896 4.7858 50.3976 4.76864C50.3976 4.71719 50.3976 4.66573 50.4168 4.61427C50.9558 4.61427 51.4756 4.61427 52.0146 4.61427V4.45989C52.1878 4.45989 52.3419 4.4942 52.4766 4.51135C52.4766 4.4599 52.4766 4.40844 52.4959 4.35698C52.8809 4.35698 53.2659 4.33983 53.6316 4.32267C53.7279 4.23691 53.8049 4.13399 53.9011 4.04823C54.2091 4.08254 54.4979 4.09969 54.8059 4.13399C54.8059 4.08254 54.8059 4.03108 54.8252 3.97962C55.3642 3.97962 55.8839 3.97962 56.4229 3.97962V3.82525C56.7502 3.85955 57.039 3.89386 57.347 3.91101C57.347 3.96247 57.347 4.01393 57.347 4.06538C57.8475 4.52851 57.0967 5.36899 57.3277 6.00363C57.4047 6.00363 57.4817 6.00363 57.5587 6.02079C57.5395 6.17516 57.5202 6.31238 57.501 6.46676C57.578 6.46676 57.655 6.46676 57.732 6.48391C57.732 6.58682 57.7127 6.67259 57.6935 6.7755C57.7705 6.7755 57.8475 6.7755 57.9245 6.79266C58.0592 6.94703 58.194 7.11856 58.3095 7.27293C59.0602 7.44446 59.8303 7.94188 60.966 7.83897V7.68459C61.5821 7.68459 62.1981 7.70175 62.7948 7.7189C62.8911 7.63314 62.9681 7.53022 63.0643 7.44446C63.2183 7.44446 63.3723 7.47876 63.5071 7.49591C63.5071 7.44446 63.5071 7.393 63.5263 7.34154C64.2194 7.30724 64.8931 7.27293 65.5861 7.25578C65.6824 7.17001 65.7594 7.0671 65.8556 6.98134C66.1637 6.96418 66.4717 6.94703 66.7797 6.92988C66.7797 6.87842 66.7797 6.82696 66.7989 6.7755C67.1069 6.75835 67.4149 6.7412 67.7229 6.72405C67.7229 6.67259 67.7229 6.62113 67.7229 6.56967L68.3967 6.63828C68.3967 6.63828 68.3967 6.53537 68.416 6.48391C68.878 6.43245 69.34 6.38099 69.802 6.32954C69.802 6.27808 69.802 6.22662 69.8212 6.17516C70.2832 6.1237 70.7453 6.07225 71.2073 6.02079C71.3035 5.93502 71.3805 5.83211 71.4768 5.74634C71.7078 5.7635 71.9195 5.7978 72.1505 5.81496C72.1505 5.7635 72.1505 5.71204 72.1505 5.66058C72.3045 5.66058 72.4585 5.69489 72.5933 5.71204C72.5933 5.66058 72.5933 5.60912 72.6125 5.55767C73.0746 5.50621 73.5366 5.45475 73.9986 5.40329C73.9986 5.35183 73.9986 5.30037 74.0178 5.24892C74.2488 5.26607 74.4606 5.30037 74.6916 5.31753C74.6916 5.26607 74.6916 5.21461 74.6916 5.16315C74.8456 5.16315 74.9996 5.19746 75.1344 5.21461C75.1344 5.16315 75.1344 5.1117 75.1536 5.06024C75.3076 5.06024 75.4616 5.09454 75.5964 5.1117C75.5964 5.06024 75.5964 5.00878 75.5964 4.95732C76.2509 4.83725 76.2509 5.06024 76.7514 4.76864C77.0594 4.80295 77.3482 4.83725 77.6562 4.85441V5.00878C77.6562 5.00878 77.7909 5.00878 77.8679 5.02593C78.1374 5.40329 77.5407 6.02079 77.4829 6.17516C77.5599 6.17516 77.6369 6.17516 77.7139 6.19231C77.6754 6.43245 77.6562 6.68974 77.6177 6.92988C77.6754 7.03279 77.9257 6.96418 78.0027 7.4273C78.2144 7.49592 78.4454 7.56453 78.6572 7.65029C78.6572 7.70175 78.6572 7.75321 78.6379 7.80466L79.3117 7.87327C79.3117 7.87327 79.3117 7.97619 79.2924 8.02765C80.7555 8.50792 82.3533 8.07911 83.181 7.97619C83.489 8.0105 83.7778 8.02765 84.0858 8.06195C84.0858 8.0105 84.0858 7.95904 84.105 7.90758C84.3361 7.92473 84.5478 7.95904 84.7788 7.97619C84.7788 7.92473 84.7788 7.87327 84.7981 7.82182C85.0291 7.83897 85.2408 7.87327 85.4718 7.89043V7.73605C85.7221 7.75321 85.9338 7.78751 86.1648 7.80466C86.1648 7.75321 86.1648 7.70175 86.1841 7.65029C86.4151 7.66744 86.6269 7.70175 86.8579 7.7189C86.8579 7.66744 86.8579 7.61598 86.8579 7.56453L87.7819 7.51307C87.7819 7.51307 87.7819 7.41015 87.8011 7.35869C87.9551 7.35869 88.1091 7.393 88.2439 7.41015C88.2439 7.35869 88.2439 7.30724 88.2631 7.25578C88.4941 7.27293 88.7059 7.30724 88.9369 7.32439C88.9369 7.27293 88.9369 7.22147 88.9562 7.17001C89.1102 7.17001 89.2642 7.20432 89.3989 7.22147C89.3989 7.17001 89.3989 7.11856 89.3989 7.0671C89.7069 7.1014 89.9957 7.13571 90.3037 7.15286C90.3037 7.1014 90.3037 7.04995 90.3229 6.99849C90.4769 6.99849 90.631 7.03279 90.7657 7.04995V6.89557C90.939 6.89557 91.093 6.92988 91.2277 6.94703C91.324 6.86127 91.401 6.7755 91.4972 6.67259C92.0362 6.67259 92.556 6.67259 93.095 6.67259C93.095 6.62113 93.095 6.56967 93.095 6.51821C93.249 6.51821 93.403 6.55252 93.5378 6.56967C93.5378 6.51821 93.5378 6.46676 93.557 6.4153C94.019 6.4153 94.4618 6.4153 94.9238 6.4153V6.26092C95.2511 6.29523 95.5398 6.32954 95.8478 6.34669C95.9441 6.26092 96.0211 6.15801 96.1173 6.07225C96.2713 6.07225 96.4253 6.10655 96.5601 6.1237C96.5601 6.07225 96.5601 6.02079 96.5793 5.96933C97.3493 5.95218 98.1001 5.91787 98.8701 5.90072C98.8701 5.84926 98.8701 5.7978 98.8894 5.74634C99.1204 5.7635 99.3321 5.7978 99.5631 5.81496C99.5631 5.7635 99.5631 5.71204 99.5824 5.66058C99.8134 5.67773 100.025 5.71204 100.256 5.72919C100.256 5.67773 100.256 5.62628 100.275 5.57482C100.506 5.59197 100.718 5.62628 100.949 5.64343V5.48905C101.199 5.50621 101.411 5.54051 101.642 5.55767C101.642 5.50621 101.642 5.45475 101.661 5.40329C101.815 5.40329 101.969 5.4376 102.104 5.45475C102.104 5.40329 102.104 5.35183 102.123 5.30037C102.354 5.31753 102.566 5.35183 102.797 5.36899C102.797 5.31753 102.797 5.26607 102.797 5.21461C103.105 5.24892 103.394 5.28322 103.702 5.30037V5.146C103.952 5.16315 104.164 5.19746 104.395 5.21461C104.395 5.16315 104.395 5.1117 104.414 5.06024C104.645 5.07739 104.857 5.1117 105.088 5.12885C105.088 5.07739 105.088 5.02593 105.088 4.97447C105.396 5.00878 105.685 5.04309 105.993 5.06024C105.993 5.00878 105.993 4.95732 106.012 4.90586L107.129 5.02593C107.129 5.02593 107.129 4.92302 107.148 4.87156C107.456 4.85441 107.764 4.83725 108.072 4.8201C108.072 4.76864 108.072 4.71719 108.091 4.66573C108.476 4.70003 108.842 4.73434 109.227 4.7858V4.63142C109.477 4.64857 109.689 4.68288 109.92 4.70003C109.92 4.64857 109.92 4.59712 109.92 4.54566C111.171 4.35698 111.71 4.70003 112.499 4.06538C112.576 4.06538 112.653 4.06538 112.73 4.08254L112.576 3.46504C110.112 3.24206 108.495 3.39643 106.628 3.60226C106.031 3.60226 105.415 3.58511 104.819 3.56796C104.819 3.61941 104.819 3.67087 104.799 3.72233C104.645 3.72233 104.491 3.68803 104.356 3.67087C104.356 3.72233 104.356 3.77379 104.337 3.82525C103.875 3.82525 103.432 3.82525 102.97 3.82525C102.97 3.8767 102.97 3.92816 102.951 3.97962C102.335 3.97962 101.738 3.96247 101.122 3.94532C101.122 3.99677 101.122 4.04823 101.122 4.09969L100.449 4.03108C100.449 4.03108 100.449 4.13399 100.429 4.18545C100.198 4.1683 99.9866 4.13399 99.7556 4.11684C99.7556 4.1683 99.7557 4.21976 99.7364 4.27122C99.5054 4.25406 99.2936 4.21976 99.0626 4.20261C99.0626 4.25406 99.0626 4.30552 99.0434 4.35698C98.8894 4.35698 98.7354 4.32267 98.6006 4.30552C98.6006 4.35698 98.6006 4.40844 98.5814 4.45989C98.2734 4.42559 97.9846 4.39128 97.6766 4.37413V4.52851C97.4263 4.51135 97.2146 4.47705 96.9836 4.45989V4.61427C96.7333 4.59712 96.5216 4.56281 96.2906 4.54566V4.70003C96.0403 4.68288 95.8286 4.64857 95.5976 4.63142C95.5976 4.68288 95.5976 4.73434 95.5783 4.7858C95.3473 4.76864 95.1355 4.73434 94.9045 4.71719V4.87156C94.7313 4.87156 94.5773 4.83725 94.4425 4.8201C94.4425 4.87156 94.4425 4.92302 94.4233 4.97447C94.0383 4.97447 93.6533 4.99163 93.2875 5.00878C93.2875 5.06024 93.2875 5.1117 93.2875 5.16315C92.9795 5.12885 92.6907 5.1117 92.3827 5.07739C92.3827 5.12885 92.3827 5.18031 92.3635 5.23176C92.2095 5.23176 92.0555 5.19746 91.9207 5.18031V5.33468C91.4395 5.33468 90.9967 5.33468 90.5347 5.33468C90.5347 5.38614 90.5347 5.4376 90.5154 5.48905C90.2074 5.50621 89.8994 5.52336 89.5914 5.54051C89.5914 5.59197 89.5914 5.64343 89.5914 5.69489C89.4374 5.69489 89.2834 5.66058 89.1487 5.64343C89.1487 5.69489 89.1487 5.74634 89.1294 5.7978C88.4364 5.83211 87.7626 5.84926 87.0696 5.88357V6.03794C86.8964 6.03794 86.7424 6.00363 86.6076 5.98648C86.6076 6.03794 86.6076 6.0894 86.5884 6.14086C86.1263 6.14086 85.6836 6.14086 85.2216 6.14086C85.2216 6.19231 85.2216 6.24377 85.2023 6.29523C84.8943 6.31238 84.5863 6.32954 84.2783 6.34669C84.2783 6.39815 84.2783 6.4496 84.2591 6.50106C84.0281 6.48391 83.8163 6.4496 83.5853 6.43245V6.58682C83.027 6.58682 82.5073 6.58682 81.9683 6.58682V6.7412C81.2175 6.68974 80.0817 6.63828 79.716 6.36384C79.639 6.36384 79.562 6.36384 79.485 6.34669C79.3694 6.05509 79.639 6.15801 79.7545 6.07225C79.8315 5.52336 79.8892 4.99163 79.9662 4.44274C79.4657 4.15115 78.9844 3.8424 78.4839 3.5508C76.7899 3.41358 75.2306 3.46504 73.9023 3.68803C73.9023 3.73948 73.9023 3.79094 73.9023 3.8424C73.5173 3.8424 73.1323 3.85955 72.7665 3.8767C72.6703 3.96247 72.5933 4.06538 72.497 4.15115C72.343 4.15115 72.2083 4.11684 72.0543 4.09969L71.573 4.35698C70.726 4.47705 69.879 4.57996 69.0127 4.70003C68.9357 4.7858 68.8395 4.88871 68.7432 4.97447C68.4352 4.99163 68.1272 5.00878 67.8192 5.02593C67.8192 5.07739 67.8192 5.12885 67.7999 5.18031C67.4919 5.19746 67.1839 5.21461 66.8759 5.23176C66.8759 5.28322 66.8759 5.33468 66.8567 5.38614C66.3947 5.38614 65.9519 5.38614 65.4899 5.38614C65.4899 5.4376 65.4899 5.48905 65.4899 5.54051C65.3359 5.54051 65.1819 5.50621 65.0471 5.48905C64.9509 5.57482 64.8739 5.67773 64.7776 5.7635C64.4696 5.78065 64.1616 5.7978 63.8536 5.81496C63.8536 5.86641 63.8536 5.91787 63.8344 5.96933L62.9296 5.88357C62.9296 5.88357 62.9296 5.98648 62.9103 6.03794C62.7563 6.03794 62.6023 6.00363 62.4676 5.98648C62.4676 6.03794 62.4676 6.0894 62.4483 6.14086H61.0815L61.0623 6.29523C59.7918 6.15801 59.7533 5.98648 59.0988 5.64343C59.1373 5.30038 59.195 4.95732 59.2335 4.61427C59.3105 4.61427 59.3875 4.61427 59.4645 4.63142C59.7148 4.32267 59.9843 3.79094 59.6185 3.44789C59.4645 2.88185 58.964 2.88185 58.5982 2.45303C57.7705 2.41873 56.9427 2.38442 56.0957 2.35012C56.0957 2.40158 56.0957 2.45303 56.0764 2.50449C55.9224 2.50449 55.7684 2.47019 55.6337 2.45303C55.6337 2.50449 55.6337 2.55595 55.6144 2.60741C55.3064 2.5731 55.0177 2.55595 54.7097 2.52164C54.7097 2.5731 54.7097 2.62456 54.7097 2.67602C54.4786 2.65887 54.2669 2.62456 54.0359 2.60741C54.0359 2.65887 54.0359 2.71032 54.0166 2.76178C53.7856 2.74463 53.5739 2.71032 53.3429 2.69317C53.3429 2.74463 53.3429 2.79609 53.3236 2.84754C53.0926 2.83039 52.8809 2.79609 52.6499 2.77893C52.6499 2.83039 52.6499 2.88185 52.6306 2.93331C52.3996 2.91616 52.1878 2.88185 51.9568 2.8647C51.9568 2.91616 51.9568 2.96761 51.9376 3.01907C51.6296 3.03622 51.3216 3.05338 51.0136 3.07053V3.2249C50.6093 3.2249 50.2243 3.24206 49.8585 3.25921C49.8585 3.31067 49.8585 3.36212 49.8393 3.41358C49.5313 3.37928 49.2425 3.34497 48.9345 3.32782C48.9345 3.37928 48.9345 3.43074 48.9153 3.48219C48.4533 3.53365 47.9913 3.58511 47.5292 3.63657C47.5292 3.68802 47.5292 3.73948 47.5292 3.79094C47.2982 3.77379 47.0865 3.73948 46.8555 3.72233C46.8555 3.77379 46.8555 3.82525 46.8362 3.8767C46.6822 3.8767 46.5282 3.8424 46.3935 3.82525C46.3935 3.8767 46.3935 3.92816 46.3742 3.97962C45.9122 4.03108 45.4502 4.08254 44.9882 4.13399C44.9882 4.18545 44.9882 4.23691 44.9882 4.28837C44.7572 4.27122 44.5454 4.23691 44.3144 4.21976C44.3144 4.27122 44.3144 4.32267 44.2952 4.37413C43.9102 4.37413 43.5252 4.39128 43.1594 4.40844C43.0631 4.4942 42.9861 4.59712 42.8899 4.68288C42.7359 4.68288 42.5819 4.64857 42.4471 4.63142C42.4471 4.68288 42.4471 4.73434 42.4471 4.7858C42.2931 4.7858 42.1391 4.75149 42.0044 4.73434C42.0044 4.7858 42.0044 4.83725 41.9851 4.88871C41.7541 4.87156 41.5424 4.83725 41.3114 4.8201V4.97447C40.9841 4.99163 40.6761 5.00878 40.3681 5.02593C40.3681 5.07739 40.3681 5.12885 40.3681 5.18031C40.1371 5.16315 39.9253 5.12885 39.6943 5.1117C39.6943 5.16315 39.6943 5.21461 39.6751 5.26607C39.1553 5.18031 39.1361 5.146 38.7896 5.02593C39.0013 4.40844 39.4248 4.32267 39.8483 3.92816C39.8483 3.82525 39.8676 3.73948 39.8868 3.63657" fill="#00AFA1"/>
</g>
<defs>
<clipPath id="clip0_201_18210">
<rect width="113" height="10" fill="white"/>
</clipPath>
</defs>
</svg>
