<svg width="556" height="111" viewBox="0 0 556 111" fill="none" xmlns="http://www.w3.org/2000/svg">
<path d="M192.01 11.9158L192.549 11.6889C193.116 12.4546 193.768 13.362 194.732 13.362C196.519 13.362 201.765 12.3979 203.211 12.0292C203.863 11.8591 204.288 11.1502 204.799 11.1502C205.848 11.1502 208.117 13.0501 208.117 13.8441C208.117 14.5246 206.982 14.8933 206.642 15.4037C205.678 16.8499 204.09 19.402 202.162 21.5288C206.784 23.2018 211.179 26.0943 211.179 28.9299C211.179 29.6672 210.669 30.4045 209.761 30.4045C208.797 30.4045 208.202 29.5254 207.011 27.9658C205.479 25.839 204.062 23.9391 201.453 22.2944C198.844 25.0167 194.59 28.7598 188.324 30.8582L187.955 30.2627C194.647 26.8032 201.509 19.799 203.948 14.1276C204.09 13.7306 203.92 13.6456 203.608 13.6739C202.105 13.8724 198.334 14.8933 196.859 15.3186C195.952 15.6022 195.725 16.226 194.959 16.226C193.881 16.226 192.634 14.7515 192.293 13.8441C192.123 13.362 192.01 12.6814 192.01 11.9158ZM223.288 8.96667L223.543 8.56967C224.507 8.71146 225.358 8.90995 226.01 9.25024C226.917 9.73231 228.08 10.7248 228.08 11.4337C228.08 12.0009 227.456 12.1994 227.031 12.8799C226.464 13.8724 225.84 14.8649 225.159 15.8007C225.471 15.8574 225.783 15.9141 226.067 15.9141C227.541 15.9141 233.298 15.0351 234.829 14.7798C236.133 14.553 236.474 14.0426 237.012 14.0426C238.175 14.0426 239.876 14.7798 239.876 15.7723C239.876 16.3111 239.65 16.7648 238.657 16.7648C237.665 16.7648 235.992 16.7081 234.63 16.7932C233.723 16.8499 232.277 17.02 230.859 17.1902C232.163 17.7857 233.071 18.5797 233.071 19.1184C233.071 19.7423 232.447 20.0259 232.192 20.6781C230.093 25.5271 226.435 29.5254 220.65 32.2193L220.253 31.7089C225.925 28.0225 229.668 21.6706 229.668 18.8916C229.668 18.2677 229.413 17.814 228.987 17.4454L227.711 17.6439C226.974 17.7573 226.379 17.9558 225.84 17.9558C225.386 17.9558 224.762 17.5021 224.252 17.02C222.437 19.2886 220.225 21.3019 217.304 23.0601L216.851 22.578C220.934 19.0334 224.564 13.1635 224.564 10.9517C224.564 10.2994 224.195 9.81738 223.288 8.96667ZM264.787 14.6948C264.333 14.6948 263.993 14.2411 263.483 13.5321C262.916 12.7665 262.15 11.7173 260.902 10.6114L261.242 10.186C262.774 10.7532 264.05 11.3487 264.815 12.1143C265.468 12.7381 265.723 13.2202 265.723 13.7873C265.723 14.3261 265.326 14.6948 264.787 14.6948ZM267.736 12.3695C267.226 12.3695 266.914 11.8591 266.318 11.1502C265.751 10.4412 265.071 9.64724 263.738 8.51296L264.05 8.0876C265.609 8.54131 266.8 9.13681 267.566 9.73231C268.247 10.2994 268.587 10.8382 268.587 11.4904C268.587 12.0292 268.247 12.3695 267.736 12.3695ZM252.423 13.6172C251.374 12.6814 250.297 11.9158 249.418 11.377L249.644 10.8382C250.637 10.98 251.97 11.2069 253.473 11.6606C255.429 12.3695 256.734 13.3053 256.734 14.7515C256.734 15.432 256.252 16.0275 255.571 16.0275C254.465 16.0275 253.926 14.9216 252.423 13.6172ZM249.503 28.5329C252.197 28.5329 262.717 21.6989 267.651 15.347L268.218 15.6873C265.241 21.4437 259.002 26.8882 252.764 30.4329C251.998 30.9149 251.658 31.7656 250.779 31.7656C249.701 31.7656 247.858 30.4896 247.121 29.3837C246.695 28.7882 246.469 27.5688 246.44 26.9733L246.866 26.7465C247.546 27.4837 248.453 28.5329 249.503 28.5329ZM248.964 19.5154C247.773 18.4379 246.724 17.6722 245.731 17.1335L245.958 16.5663C247.234 16.7932 248.34 16.9917 249.758 17.417C251.658 17.9842 253.217 19.0617 253.217 20.5363C253.217 21.1034 252.906 21.8124 251.998 21.8124C250.864 21.8124 250.353 20.6497 248.964 19.5154ZM278.071 17.8707L278.355 17.7573C278.979 18.2961 279.688 18.7498 280.312 18.7498C281.474 18.7498 284.452 18.2677 285.643 18.0409C286.068 17.9275 286.55 17.3036 286.975 17.3036C287.656 17.3036 290.066 18.5797 290.066 19.3453C290.066 19.9975 289.244 20.2811 289.074 20.8766C288.762 21.8974 288.025 24.7048 287.429 26.7748C287.996 26.7181 288.478 26.6897 288.904 26.6614C290.095 26.5763 290.378 26.3211 290.719 26.3211C291.825 26.3211 293.895 27.4837 293.895 28.3628C293.895 28.9299 293.526 29.3553 292.93 29.3553C292.108 29.3553 290.066 28.6464 287.174 28.618C284.962 28.5613 281.616 28.9867 279.744 29.4404C278.695 29.7239 277.958 30.1209 277.362 30.1209C276.54 30.1209 275.321 28.8732 275.037 28.221C274.867 27.824 274.81 27.4554 274.782 26.7748L275.094 26.6614C275.661 27.2285 276.313 27.6539 277.164 27.6539C278.071 27.6539 281.815 27.2852 285.076 26.9733C285.614 24.4496 286.238 20.7631 286.323 19.9124C286.352 19.7139 286.238 19.6572 286.04 19.6572C285.444 19.6572 282.977 20.3094 281.985 20.6497C281.361 20.8482 281.021 21.1318 280.51 21.1318C279.773 21.1318 278.724 20.1393 278.327 19.2886C278.128 18.8632 278.071 18.3528 278.071 17.8707ZM300.955 18.5513L301.466 18.3812C302.203 19.4304 302.685 20.2527 304.075 20.2527C306.882 20.2527 316.013 19.6572 317.573 19.5438C319.473 19.402 320.55 19.1752 321.259 19.1752C322.677 19.1752 324.095 19.9124 324.095 20.9333C324.095 21.6139 323.556 21.9825 322.478 21.9825C321.401 21.9825 320.408 21.8974 318.508 21.8974C316.523 21.8974 309.491 22.3228 307.336 22.578C305.464 22.7765 305.096 23.3153 304.131 23.3153C303.139 23.3153 301.579 21.6706 301.097 20.4796C300.87 19.8841 300.899 19.1752 300.955 18.5513ZM338.145 12.1426L338.116 11.6322C338.939 11.2352 339.506 11.0934 340.215 11.0934C341.576 11.0934 343.703 12.3695 343.703 13.1919C343.703 13.8724 343.05 13.9575 342.937 14.95C342.738 16.4529 342.54 23.1735 342.568 25.2435C342.568 25.6405 342.767 25.754 343.107 25.6122C346.68 24.1376 350.565 21.3019 353.542 18.4095L354.053 18.8065C351.643 22.5496 347.588 26.0375 343.929 28.3344C343.277 28.7598 342.824 29.6389 342.115 29.6389C341.236 29.6389 339.789 27.8524 339.789 27.1435C339.789 26.5763 340.13 26.2644 340.243 25.1585C340.357 23.6839 340.498 16.2544 340.328 13.5321C340.3 12.7665 339.534 12.3695 338.145 12.1426ZM334.316 16.935C334.316 16.0275 333.097 15.5738 332.246 15.2903V14.7515C332.814 14.553 333.466 14.3545 334.203 14.3828C335.394 14.4396 337.719 15.6873 337.719 16.7081C337.719 17.3887 337.124 17.7857 336.982 18.4946C336.046 23.0884 333.154 27.8524 327.539 30.9716L327.114 30.4612C331.509 26.7181 334.316 20.7348 334.316 16.935ZM375.321 9.59052H368.657V16.9066H370.925V11.4054L373.336 12.3979H375.321V9.59052ZM372.967 13.1919V16.9066H375.321V13.1919H372.967ZM366.36 17.729V28.0509C366.36 28.3061 365.311 28.8732 364.318 28.8732H363.949V15.829L366.303 16.8215V7.69061L368.969 8.79653H375.037L376.2 7.26525L379.064 9.30695C378.837 9.59052 378.497 9.76066 377.759 9.84573V16.7648L378.752 15.6589L381.332 17.5588C381.19 17.729 380.822 17.9558 380.368 18.0409V26.633C380.368 28.221 379.999 29.0434 377.221 29.2702C377.192 28.6747 377.107 28.1927 376.767 27.9091C376.483 27.6255 376.03 27.3987 375.009 27.2569V26.8599C375.009 26.8599 376.909 27.0017 377.419 27.0017C377.816 27.0017 377.901 26.8032 377.901 26.4912V17.729H366.36ZM370.613 24.2794H373.733V20.6214H370.613V24.2794ZM374.073 26.1793H373.733V25.0734H370.613V26.2928C370.613 26.4912 369.706 26.945 368.855 26.945H368.572V18.8632L370.755 19.799H373.506L374.527 18.7498L376.682 20.3945C376.568 20.5647 376.228 20.7631 375.803 20.8199V25.4988C375.803 25.6973 374.753 26.1793 374.073 26.1793ZM356.945 8.65474L357.201 8.45624C364.914 10.2994 362.673 15.8858 360.008 13.9008C359.668 12.0859 358.25 9.9308 356.945 8.65474ZM361.596 20.5363V27.8524C363.609 29.9792 365.679 30.2911 370.783 30.2911C374.101 30.2911 378.553 30.2627 382.07 30.1776V30.5463C380.964 30.7731 380.368 31.5388 380.255 32.7865H370.812C365.481 32.7865 363.212 32.0208 361.227 28.3628C360.178 29.7523 358.477 31.6522 357.399 32.7298C357.456 33.0701 357.286 33.2402 357.03 33.382L355.442 30.3478C356.378 29.9792 357.711 29.3553 359.072 28.6747V20.1677H355.669L355.499 19.3453H358.675L360.036 17.5021L363.014 19.9692C362.815 20.196 362.39 20.4229 361.596 20.5363ZM407.08 18.9767L409.944 21.4437C409.718 21.7273 409.264 21.8124 408.527 21.8407C403.904 28.7031 396.844 32.1059 385.047 33.3536L384.905 32.9283C394.518 30.7448 401.154 27.5688 405.266 21.2736H398.233C397.155 21.9825 396.021 22.6914 394.802 23.3436C400.955 24.1376 399.736 28.8449 397.099 27.5972C396.588 26.236 395.085 24.8182 393.696 23.9108C391.484 24.9883 389.074 25.9241 386.522 26.5763L386.351 26.2077C391.739 23.9391 396.532 20.1677 398.97 17.02C395.199 19.3737 390.435 21.0184 384.423 21.9541L384.196 21.5288C392.051 19.2886 397.921 16.0843 401.749 11.1785H395.029C394.178 11.774 393.271 12.3411 392.306 12.8799C397.581 13.2769 396.758 17.2469 394.376 16.3962C393.809 15.3753 392.477 14.2127 391.229 13.4471C389.329 14.4396 387.231 15.2903 385.047 15.9141L384.849 15.5738C389.357 13.3903 393.582 9.76066 395.539 6.98168L399.708 8.05925C399.566 8.39953 399.197 8.59803 398.29 8.56967C397.666 9.16517 396.957 9.76066 396.163 10.3562H402.09L403.649 8.8816L406.485 11.3203C406.258 11.5755 405.804 11.6606 405.067 11.7173C403.479 13.6456 401.607 15.347 399.367 16.7648L403.451 17.7573C403.309 18.0976 402.912 18.2961 402.033 18.2677C401.239 19.005 400.331 19.7423 399.339 20.4796H405.492L407.08 18.9767ZM419.019 9.19352V8.76817C419.529 8.54131 420.38 8.2861 421.06 8.2861C421.996 8.2861 422.904 8.54131 423.442 8.93831C424.009 9.30695 423.754 10.0442 422.847 12.9934C425.172 12.2277 425.824 11.6322 426.278 11.6322C426.902 11.6322 427.554 12.0576 427.554 12.7665C427.554 13.3336 427.044 13.7023 426.647 13.9858C425.711 14.5246 423.953 15.1201 422.053 15.5171C421.117 18.4379 419.274 23.4287 417.034 26.8315C416.438 27.739 415.984 28.3344 415.304 28.3344C414.51 28.3344 414.085 27.5688 414.085 26.7748C414.085 26.1793 414.255 25.7256 414.708 25.1301C416.523 22.8332 418.622 19.7139 419.898 15.8574C419.16 15.9425 418.451 15.9992 417.799 15.9992C415.531 15.9992 414.51 15.2619 413.688 12.5964L414.113 12.2844C415.332 13.2486 416.126 13.9008 417.998 13.9008C418.82 13.9008 419.756 13.759 420.55 13.5888C420.777 12.5964 420.919 11.6322 420.947 10.9517C420.975 10.3562 420.777 10.0442 420.295 9.76066C419.841 9.47709 419.359 9.30695 419.019 9.19352ZM428.235 27.5405C428.235 27.3136 428.235 27.0584 428.235 26.8315C427.469 26.6614 426.647 26.5763 425.739 26.5763C423.301 26.5763 422.11 27.6539 422.11 28.5897C422.11 29.5538 422.96 30.2911 424.974 30.2911C427.327 30.2911 428.235 29.1852 428.235 27.5405ZM429.369 14.2694V13.6739C430.872 13.3053 432.46 13.3903 433.566 13.759C435.409 14.3545 436.486 15.5738 436.486 16.9633C436.486 17.7857 436.175 18.3245 435.437 18.3245C434.501 18.3245 433.878 17.6155 432.46 17.6722C431.552 17.729 430.617 18.0692 430.106 18.6931C429.596 19.3169 429.596 20.2527 429.681 21.3303C429.766 22.1526 430.049 23.7123 430.305 25.3003C431.921 25.6973 433.225 26.3778 434.218 26.9733C435.834 27.9091 436.798 28.9016 436.798 29.9508C436.798 30.8299 436.316 31.2269 435.749 31.2269C435.04 31.2269 434.643 30.5746 433.764 29.7807C432.885 28.9583 431.864 28.1927 430.56 27.5972C430.588 27.9942 430.617 28.3628 430.617 28.7031C430.617 31.1418 428.745 32.5029 425.654 32.5029C422.592 32.5029 420.862 30.9716 420.862 29.0434C420.862 26.8315 423.13 24.9316 427.1 24.9316C427.469 24.9316 427.809 24.9316 428.15 24.96C428.093 23.9391 428.008 22.8899 428.008 21.9825C428.008 20.2811 428.376 19.0901 429.255 18.1543C430.248 17.02 431.609 16.5096 432.545 16.0275C432.885 15.8007 432.772 15.4888 432.403 15.1768C431.694 14.6381 430.617 14.3261 429.369 14.2694ZM450.098 12.1143L450.325 11.8591C458.009 12.2561 456.592 17.5588 453.869 16.141C453.302 14.6664 451.572 12.9934 450.098 12.1143ZM449.332 21.0751L449.559 20.8482C457.726 21.387 456.336 26.9733 453.529 25.4988C452.877 23.9108 450.92 22.0676 449.332 21.0751ZM445.759 27.6255H458.633C459.03 25.754 459.342 22.9183 459.541 19.2886H446.95C446.553 22.1243 446.156 25.0734 445.759 27.6255ZM459.909 10.1577H448.056C447.829 12.2844 447.461 15.2903 447.035 18.4662H459.597C459.739 15.9992 459.824 13.2202 459.909 10.1577ZM466.545 19.2886H462.291C462.093 22.7765 461.838 25.5555 461.469 27.6255H462.745L464.191 25.6405C464.191 25.6405 465.808 27.03 466.772 27.9942C466.715 28.3061 466.403 28.4479 466.006 28.4479H461.327C460.959 30.1493 460.533 31.2836 459.994 31.9074C458.945 33.0701 457.669 33.4103 455.826 33.4103C455.826 32.6447 455.684 32.0492 455.202 31.6522C454.663 31.1985 453.444 30.8299 452.026 30.5463L452.083 30.1209C453.557 30.2344 455.684 30.4329 456.478 30.4329C457.074 30.4329 457.329 30.3194 457.726 29.9792C457.981 29.7239 458.236 29.2135 458.435 28.4479H445.646L445.334 30.3478C444.767 30.7164 444.086 30.8299 442.527 30.5179C443.15 27.2002 443.774 23.1735 444.313 19.2886H440.542L440.315 18.4662H444.426C444.965 14.553 445.419 10.8099 445.674 8.14432L448.652 9.33531H459.597L461.185 7.66225L463.908 10.1009C463.681 10.3562 463.284 10.5263 462.603 10.6114C462.518 13.5321 462.433 16.141 462.32 18.4662H463.142L464.645 16.3678C464.645 16.3678 466.346 17.814 467.339 18.8349C467.254 19.1468 466.97 19.2886 466.545 19.2886ZM472.415 8.00253L472.698 7.80404C479.022 9.2786 476.867 13.9008 474.598 12.1426C474.456 10.6964 473.436 8.99503 472.415 8.00253ZM485.572 13.3903H477.406C480.383 14.5813 480.383 16.5947 479.419 17.2752H483.871C484.495 16.141 485.147 14.6381 485.572 13.3903ZM494.051 25.0734H484.381C487.019 27.5405 491.556 29.4687 495.384 30.2911L495.355 30.6314C494.363 30.8015 493.597 31.6239 493.314 32.8148C489.372 31.3119 485.771 28.5897 483.587 25.0734H483.36V32.7581C483.332 32.9283 482.51 33.4103 481.149 33.4103H480.667V26.6047C477.831 29.2702 473.804 31.3686 469.324 32.7298L469.097 32.3328C472.925 30.5463 476.385 27.7957 478.597 25.0734H469.806L469.551 24.2794H480.667V21.5004H472.528L472.301 20.7064H480.667V18.0976H471.139L470.883 17.2752H477.944C477.859 17.2185 477.746 17.1618 477.661 17.0767C477.576 15.829 476.81 14.3545 476.044 13.3903H469.494L469.267 12.5964H478.54V7.09511L481.829 7.40704C481.801 7.74732 481.574 8.00253 480.95 8.11596V12.5964H483.304V7.09511L486.622 7.40704C486.565 7.74732 486.366 8.00253 485.742 8.11596V12.5964H486.622C487.472 11.2069 488.436 9.16517 489.004 7.66225L492.378 8.82488C492.236 9.13681 491.896 9.33531 491.272 9.25024C490.308 10.3278 488.805 11.6039 487.359 12.5964H490.762L492.293 10.7815C492.293 10.7815 494.023 12.0292 495.1 12.9366C495.015 13.2486 494.732 13.3903 494.306 13.3903H487.132L489.145 13.9858C489.032 14.3261 488.663 14.5246 488.039 14.4963C487.245 15.3753 486.054 16.4245 484.835 17.2752H489.315L490.847 15.4604C490.847 15.4604 492.548 16.7365 493.654 17.6439C493.569 17.9558 493.285 18.0976 492.888 18.0976H483.36V20.7064H488.181L489.627 18.9483C489.627 18.9483 491.244 20.1393 492.293 21.0467C492.208 21.3586 491.924 21.5004 491.499 21.5004H483.36V24.2794H490.336L491.924 22.3511C491.924 22.3511 493.682 23.6556 494.788 24.648C494.703 24.9316 494.42 25.0734 494.051 25.0734ZM503.834 29.809H506.018C510.838 29.809 513.476 26.4062 513.476 20.5647C513.476 14.5246 510.81 11.2636 506.245 11.2636H503.834C503.806 14.0709 503.806 16.9066 503.806 19.8841V20.8766C503.806 24.0526 503.806 26.9733 503.834 29.809ZM497.652 10.1009H506.727C512.993 10.1009 517.048 13.9008 517.048 20.5363C517.048 27.1718 512.653 31 506.159 31H497.652V29.9792L500.46 29.6672C500.516 26.9166 500.516 24.0526 500.516 20.9049V19.8841C500.516 17.0484 500.516 14.2127 500.46 11.4337L497.652 11.1218V10.1009ZM528.429 27.9091V22.6914C527.409 22.975 526.444 23.2869 525.849 23.5138C523.353 24.5063 522.701 25.754 522.701 27.1718C522.701 28.8449 523.694 29.5822 525.112 29.5822C526.132 29.5822 526.841 29.1852 528.429 27.9091ZM533.789 29.1284L534.271 29.6389C533.59 30.9149 532.683 31.3686 531.407 31.3686C529.819 31.3686 528.798 30.4329 528.514 28.9016C526.87 30.5746 525.764 31.4254 523.779 31.4254C521.454 31.4254 519.695 30.0642 519.695 27.6255C519.695 25.5271 520.886 24.1376 525.027 22.7198C525.991 22.4362 527.238 22.0676 528.429 21.784V20.6214C528.429 17.5872 527.607 16.7648 525.48 16.7648C524.97 16.7648 524.431 16.8215 523.807 16.9917L523.325 19.0901C523.098 20.2811 522.503 20.8482 521.624 20.8482C520.773 20.8482 520.234 20.4229 520.121 19.6005C520.603 17.1618 522.9 15.6589 526.388 15.6589C529.847 15.6589 531.407 17.1902 531.407 21.0751V28.0509C531.407 29.4687 531.832 29.9224 532.484 29.9224C532.995 29.9224 533.307 29.6956 533.789 29.1284ZM550.282 16.0843V16.9917L548.524 17.2752L543.023 31.794C541.151 36.8699 538.996 38.7414 536.87 38.7414C535.395 38.7414 534.062 37.9191 534.034 36.7281C534.232 35.7923 535.196 35.3103 536.104 35.3103C537.04 35.3103 537.692 35.7923 538.429 36.6147L538.741 36.9266C540.074 35.8774 540.981 34.2894 541.775 32.2477L541.832 32.0776L535.82 17.2185L534.091 16.9917V16.0843H541.747V17.02L539.195 17.2752L543.25 28.3912L547.078 17.3036L544.327 16.9917V16.0843H550.282ZM193.626 54.9275L197.001 56.7139C196.859 56.9975 196.575 57.1393 195.952 57.0259C194.137 59.3228 190.961 61.9883 187.331 63.5196L187.076 63.1793C189.883 61.0242 192.464 57.5647 193.626 54.9275ZM194.789 61.7048V61.3078C194.789 61.3078 197.738 61.5063 198.305 61.5063C198.731 61.5063 198.872 61.3645 198.872 60.9958V54.0767L202.502 54.417C202.417 54.8424 202.162 55.0409 201.566 55.126V61.0809C201.566 62.9808 201.112 64.0584 197.851 64.342C197.766 63.548 197.625 62.9525 197.199 62.5555C196.774 62.1585 196.15 61.9033 194.789 61.7048ZM188.55 70.4103L188.465 69.9283C195.668 68.3119 201.424 65.9583 205.706 59.2094L209.052 61.1093C208.854 61.4212 208.485 61.5063 207.805 61.3645C202.53 67.7164 196.575 69.6163 188.55 70.4103ZM204.232 55.7782L204.459 55.4946C214.242 57.0826 213.249 63.0943 210.272 61.7331C209.166 59.6347 206.415 57.1677 204.232 55.7782ZM208.457 53.1693L210.187 51.0142C210.187 51.0142 212.143 52.4888 213.306 53.538C213.221 53.8499 212.937 53.9633 212.512 53.9633H187.331L187.076 53.1693H192.208V46.1935L195.725 46.5055C195.668 46.8741 195.469 47.1293 194.789 47.2427V53.1693H198.872V44.0668L202.644 44.407C202.587 44.804 202.332 45.0876 201.595 45.201V48.4621H205.479L207.181 46.3353C207.181 46.3353 209.109 47.8099 210.3 48.8307C210.215 49.1426 209.903 49.2844 209.506 49.2844H201.595V53.1693H208.457ZM224.11 46.7039L224.025 46.2502C224.847 45.6264 225.698 45.2294 226.719 45.2294C228.052 45.2294 229.157 45.4846 229.299 46.4487C229.441 47.1577 229.583 48.2352 229.81 49.2277C232.419 48.4337 233.383 47.4696 233.78 47.4696C234.687 47.4696 235.736 47.6397 235.736 48.4621C235.736 48.8024 235.538 49.171 234.999 49.5113C234.29 49.9934 232.532 50.7023 230.462 51.2978C230.831 52.3186 231.228 53.3111 231.795 54.3887C232.192 54.2469 232.589 54.1051 232.986 53.9633C235.481 53.0843 236.02 52.5171 236.36 52.5171C237.296 52.432 238.317 52.6305 238.317 53.5096C238.317 53.8783 238.175 54.2752 237.579 54.6439C236.53 55.2677 234.942 55.9483 232.986 56.5154C235.141 59.9466 236.842 60.6839 236.842 61.648C236.842 62.8107 236.162 64.0584 235.339 64.0584C234.517 64.0584 234.092 63.4629 232.674 62.6973C231.625 62.1301 229.498 61.3928 227.201 61.3928C224.28 61.3928 222.323 62.6405 222.323 64.3703C222.323 66.6672 225.443 67.0926 227.938 67.0926C230.32 67.0926 230.717 66.7523 232.135 66.7523C233.213 66.7523 234.063 67.1493 234.063 68C234.063 69.191 231.653 69.6163 228.307 69.6163C224.252 69.6163 220.48 68.1418 220.48 64.9375C220.48 62.4988 222.947 60.2586 227.938 60.2586C230.178 60.2586 232.22 60.6556 233.411 60.9391C233.78 61.0526 233.78 60.9391 233.638 60.6839C233.156 59.975 232.192 58.7273 231.199 56.9692C229.044 57.4512 226.605 57.7915 224.138 57.7915C220.225 57.7915 218.779 55.0976 222.125 52.8007L222.55 53.1693C221.076 54.729 221.501 55.7498 224.252 55.7498C226.18 55.7498 228.193 55.4095 230.093 54.8991C229.64 53.935 229.129 52.8574 228.675 51.7231C227.201 52.0351 225.641 52.2619 224.252 52.2619C221.87 52.2619 220.452 51.7515 219.119 49.1426L219.488 48.8874C220.962 49.9083 221.813 50.3336 223.883 50.3336C224.904 50.3336 226.464 50.0784 227.853 49.7665C227.626 49.1426 227.399 48.5471 227.201 47.98C226.917 47.2711 226.69 46.9875 225.811 46.8457C225.329 46.7607 224.677 46.7039 224.11 46.7039ZM256.465 61.648C257.855 61.648 258.422 60.9108 258.422 59.1243C258.422 57.5363 257.741 56.4871 256.522 56.4871C255.161 56.4871 254.253 57.6497 254.253 59.1526C254.253 60.5705 255.161 61.648 256.465 61.648ZM254.934 46.8457L254.877 46.3637C255.473 45.995 256.323 45.5413 257.174 45.5413C258.592 45.5413 260.52 46.2219 260.52 47.0442C260.52 47.7815 260.067 48.2919 260.01 49.0009C259.981 49.3128 259.953 49.7949 259.953 50.3903C264.944 49.8232 266.021 49.5113 266.532 49.5113C267.808 49.5113 269.538 50.2202 269.538 51.3545C269.538 52.1201 269.112 52.2903 268.375 52.2903C267.269 52.2903 265.313 51.553 259.896 52.0067C259.896 53.3678 259.868 54.9558 259.896 56.3453C260.719 57.2811 261.087 58.6989 261.087 60.2586C261.087 65.8449 256.664 68.9358 250.765 70.0133L250.482 69.3895C253.941 68.1418 256.805 66.2419 257.883 63.5196C255.047 64.5405 252.892 62.2435 252.892 59.3795C252.892 57.0542 254.48 55.126 256.805 55.126C257.231 55.126 257.628 55.1827 257.968 55.2394C257.94 54.4737 257.911 53.3678 257.826 52.2335C254.962 52.6022 252.325 53.1977 250.822 53.5947C249.518 53.935 248.951 54.4737 248.043 54.4737C246.994 54.4737 245.491 53.0843 245.179 52.0918C245.009 51.5246 244.981 50.7873 244.981 50.1919L245.463 49.9934C246.285 51.0709 246.767 51.7231 247.76 51.7515C248.922 51.7798 254.48 51.0142 257.741 50.6456C257.656 49.6247 257.599 48.7173 257.514 48.0651C257.458 47.5547 257.316 47.3845 256.862 47.2144C256.408 47.0442 255.756 46.9308 254.934 46.8457ZM280.172 46.7607L280.087 46.307C280.909 45.6831 281.76 45.2861 282.78 45.2861C284.113 45.2861 285.219 45.5413 285.361 46.5055C285.503 47.2144 285.644 48.2919 285.871 49.2844C288.48 48.4904 289.444 47.5263 289.841 47.5263C290.749 47.5263 291.798 47.6964 291.798 48.5188C291.798 48.8591 291.599 49.2277 291.061 49.568C290.352 50.0501 288.594 50.759 286.524 51.3545C286.892 52.3753 287.289 53.3678 287.856 54.4454C288.253 54.3036 288.65 54.1618 289.047 54.02C291.543 53.141 292.082 52.5738 292.422 52.5738C293.358 52.4888 294.378 52.6873 294.378 53.5663C294.378 53.935 294.237 54.332 293.641 54.7006C292.592 55.3245 291.004 56.005 289.047 56.5722C291.202 60.0033 292.904 60.7406 292.904 61.7048C292.904 62.8674 292.223 64.1151 291.401 64.1151C290.579 64.1151 290.153 63.5196 288.735 62.754C287.686 62.1868 285.559 61.4496 283.263 61.4496C280.342 61.4496 278.385 62.6973 278.385 64.427C278.385 66.7239 281.504 67.1493 284 67.1493C286.382 67.1493 286.779 66.809 288.197 66.809C289.274 66.809 290.125 67.206 290.125 68.0567C290.125 69.2477 287.715 69.6731 284.368 69.6731C280.313 69.6731 276.542 68.1985 276.542 64.9942C276.542 62.5555 279.009 60.3153 284 60.3153C286.24 60.3153 288.282 60.7123 289.473 60.9958C289.841 61.1093 289.841 60.9958 289.7 60.7406C289.217 60.0317 288.253 58.784 287.261 57.0259C285.106 57.5079 282.667 57.8482 280.2 57.8482C276.287 57.8482 274.84 55.1543 278.187 52.8574L278.612 53.226C277.137 54.7857 277.563 55.8065 280.313 55.8065C282.242 55.8065 284.255 55.4662 286.155 54.9558C285.701 53.9917 285.191 52.9141 284.737 51.7798C283.263 52.0918 281.703 52.3186 280.313 52.3186C277.931 52.3186 276.514 51.8082 275.181 49.1994L275.549 48.9441C277.024 49.965 277.875 50.3903 279.945 50.3903C280.966 50.3903 282.525 50.1351 283.915 49.8232C283.688 49.1994 283.461 48.6039 283.263 48.0367C282.979 47.3278 282.752 47.0442 281.873 46.9024C281.391 46.8174 280.739 46.7607 280.172 46.7607ZM291.373 46.3637L291.685 45.9383C293.216 46.4487 294.435 47.0159 295.229 47.7815C295.881 48.3487 296.137 48.8591 296.108 49.4262C296.108 49.965 295.74 50.3336 295.229 50.3336C294.775 50.3053 294.435 49.7949 293.925 49.0859C293.386 48.3487 292.649 47.3845 291.373 46.3637ZM293.925 44.719L294.208 44.2936C295.768 44.719 296.987 45.201 297.725 45.7682C298.462 46.3637 298.745 46.9024 298.745 47.5263C298.745 48.0934 298.462 48.4337 297.923 48.4337C297.413 48.4337 297.101 47.8949 296.534 47.186C295.966 46.5055 295.343 45.7398 293.925 44.719ZM301.524 49.9366L301.95 49.7949C302.403 50.5321 303.084 51.2411 303.765 51.2411C305.381 51.2411 310.088 49.9083 314.937 48.774C318.056 48.0084 320.694 47.4412 321.629 47.4412C322.423 47.4412 323.246 47.5547 323.87 47.8382C324.55 48.1502 325.004 48.5755 325.004 49.1994C325.004 49.7665 324.493 50.2202 323.728 50.2202C323.047 50.2202 322.168 50.1351 321.232 50.1351C319.928 50.1351 318.085 50.2769 316.61 51.2694C315.476 52.0067 312.895 54.4737 312.895 59.6347C312.895 62.839 314.257 64.0017 315.334 64.6255C317.036 65.5613 319.446 65.4195 320.382 65.4195C321.232 65.4195 322.338 66.1568 322.338 67.0642C322.338 68.1134 321.204 68.397 319.9 68.397C317.943 68.397 315.561 68.1985 313.718 66.9224C311.846 65.6464 310.712 63.8032 310.712 60.372C310.712 56.6289 312.243 52.9992 315.448 50.6739C315.674 50.5038 315.646 50.3336 315.334 50.4187C312.073 51.1843 308.103 52.5455 306.402 53.4529C305.806 53.7648 305.239 54.332 304.53 54.332C303.311 54.332 301.609 52.7156 301.439 51.5246C301.354 50.9575 301.468 50.3903 301.524 49.9366ZM354.438 52.9425H343.067C344.088 58.2452 347.264 63.8882 355.289 67.5746L355.232 67.9149C353.843 68.1418 352.964 68.8507 352.652 70.4103C345.449 65.9583 343.322 58.6706 342.528 52.9425H342.472C342.075 56.2319 341.224 59.4079 339.324 62.3286C347.576 64.7673 344.797 70.7223 341.876 68.3119C341.621 66.3553 340.345 64.1718 339.097 62.6689C337.084 65.5613 333.993 68.1985 329.144 70.4103L328.804 69.9566C336.602 65.0225 338.87 59.2094 339.551 52.9425H329.087L328.86 52.1201H339.636C339.835 49.5113 339.835 46.8457 339.835 44.1518L343.89 44.5488C343.805 44.9742 343.549 45.2577 342.869 45.3712C342.812 47.6114 342.755 49.8799 342.557 52.1201H350.156L351.943 49.8516C351.943 49.8516 354.013 51.3828 355.232 52.4888C355.147 52.8007 354.864 52.9425 354.438 52.9425ZM362.804 57.0259C362.804 57.9049 363.825 58.6422 366.093 58.9825C366.377 57.3094 366.717 55.5797 367.029 54.2185C365.186 54.332 362.804 55.7498 362.804 57.0259ZM372.502 55.6931L372.842 55.2677C377.436 57.2527 379.534 60.0317 379.534 63.3211C379.534 66.1852 377.237 69.6163 371.793 69.6163C367.624 69.6163 365.583 67.1776 365.583 63.6614C365.583 63.0092 365.639 62.2152 365.753 61.3361C363.087 60.6556 361.584 59.181 361.584 57.5079C361.584 55.9199 363.116 54.3036 365.157 53.226C364.448 52.9992 363.881 52.7723 363.201 52.2903C362.265 51.6097 361.726 50.7873 361.414 49.1143L361.84 48.8874C362.52 49.8516 363.257 50.6739 364.477 51.1276C365.583 51.5246 366.66 51.6948 367.653 51.7798C368.135 49.9366 368.503 48.5471 368.56 47.8666C368.588 47.2144 368.333 46.9592 367.851 46.6756C367.454 46.4771 366.944 46.307 366.49 46.1935L366.518 45.6547C367.057 45.513 367.624 45.3995 368.333 45.3995C369.921 45.3995 371.821 47.0159 371.821 47.8949C371.821 48.5188 371.367 48.8024 371.027 49.4546C370.687 50.0784 370.347 50.7873 369.95 51.8933L370.318 51.9216C371.538 52.0634 371.991 52.744 371.991 53.3678C371.991 54.0484 371.509 54.2752 370.744 54.332C370.318 54.3603 369.723 54.3603 369.099 54.3036C368.645 55.6647 368.106 57.4229 367.709 59.1243C368.985 59.181 370.035 59.1243 370.659 59.181C371.538 59.2377 372.105 59.6064 372.105 60.4003C372.105 61.1093 371.566 61.5346 370.432 61.6764C369.638 61.7615 368.475 61.7615 367.227 61.6197C367.114 62.3003 367.057 62.9525 367.057 63.5196C367.057 66.2419 368.759 67.4612 371.396 67.4612C374.799 67.4612 376.869 65.221 376.869 62.6405C376.869 59.4646 375.026 57.6214 372.502 55.6931ZM391.161 57.0259C391.161 57.9049 392.181 58.6422 394.45 58.9825C394.734 57.3094 395.074 55.5797 395.386 54.2185C393.543 54.332 391.161 55.7498 391.161 57.0259ZM400.859 55.6931L401.199 55.2677C405.793 57.2527 407.891 60.0317 407.891 63.3211C407.891 66.1852 405.594 69.6163 400.15 69.6163C395.981 69.6163 393.94 67.1776 393.94 63.6614C393.94 63.0092 393.996 62.2152 394.11 61.3361C391.444 60.6556 389.941 59.181 389.941 57.5079C389.941 55.9199 391.473 54.3036 393.514 53.226C392.805 52.9992 392.238 52.7723 391.558 52.2903C390.622 51.6097 390.083 50.7873 389.771 49.1143L390.196 48.8874C390.877 49.8516 391.614 50.6739 392.834 51.1276C393.94 51.5246 395.017 51.6948 396.01 51.7798C396.492 49.9366 396.86 48.5471 396.917 47.8666C396.945 47.2144 396.69 46.9592 396.208 46.6756C395.811 46.4771 395.301 46.307 394.847 46.1935L394.875 45.6547C395.414 45.513 395.981 45.3995 396.69 45.3995C398.278 45.3995 400.178 47.0159 400.178 47.8949C400.178 48.5188 399.724 48.8024 399.384 49.4546C399.044 50.0784 398.704 50.7873 398.307 51.8933L398.675 51.9216C399.895 52.0634 400.348 52.744 400.348 53.3678C400.348 54.0484 399.866 54.2752 399.101 54.332C398.675 54.3603 398.08 54.3603 397.456 54.3036C397.002 55.6647 396.463 57.4229 396.066 59.1243C397.342 59.181 398.392 59.1243 399.015 59.181C399.895 59.2377 400.462 59.6064 400.462 60.4003C400.462 61.1093 399.923 61.5346 398.789 61.6764C397.995 61.7615 396.832 61.7615 395.584 61.6197C395.471 62.3003 395.414 62.9525 395.414 63.5196C395.414 66.2419 397.116 67.4612 399.753 67.4612C403.156 67.4612 405.226 65.221 405.226 62.6405C405.226 59.4646 403.382 57.6214 400.859 55.6931ZM426.238 51.8366C426.238 50.8724 425.869 50.0501 425.416 49.3128C423.516 49.7665 421.644 50.7873 420.255 52.2335C418.553 54.02 417.561 56.1184 417.561 58.5004C417.561 60.9675 418.638 63.0375 419.801 63.0375C421.531 63.0375 424.083 58.8974 425.075 56.6289C425.756 55.0976 426.238 53.226 426.238 51.8366ZM425.898 68.3403L425.784 67.7448C432.845 66.2702 435.823 62.4704 435.823 57.4512C435.823 52.3186 432.306 49.0292 427.656 49.0292C427.316 49.0292 426.947 49.0576 426.578 49.0859C427.372 49.9934 428.195 51.2127 428.195 52.4604C428.195 53.8499 427.883 55.608 427.259 57.2811C426.04 60.7973 422.807 66.1001 419.603 66.1001C417.476 66.1001 415.434 62.839 415.434 59.2094C415.434 56.4871 416.739 53.2828 419.432 50.9858C421.729 48.9725 424.622 47.98 427.911 47.98C434.121 47.98 438.715 52.2052 438.715 58.1034C438.715 63.1793 435.284 67.8582 425.898 68.3403ZM444.103 44.719L444.358 44.4921C451.703 45.0592 450.171 50.2486 447.449 48.8024C446.939 47.3562 445.379 45.6831 444.103 44.719ZM442.118 51.1276L442.345 50.9008C449.377 51.3261 447.704 56.4304 445.095 54.9275C444.67 53.5663 443.309 52.0067 442.118 51.1276ZM451.192 48.377L451.646 48.4904C450.398 52.2335 448.016 59.1243 447.591 60.6839C447.364 61.648 447.137 62.6122 447.166 63.3495C447.194 64.7673 448.186 65.8449 448.101 68.2269C448.045 69.5596 447.279 70.4103 446.031 70.4103C445.407 70.4103 444.869 69.9566 444.698 68.9925C445.181 66.1001 445.039 63.6897 444.358 63.2644C443.99 62.9808 443.507 62.8674 442.94 62.8107V62.2435H444.216C444.613 62.2435 444.698 62.2152 445.01 61.6764C445.634 60.5705 445.634 60.5705 451.192 48.377ZM464.577 55.8916L466.193 53.7365C466.193 53.7365 468.008 55.211 469.142 56.2602C469.057 56.5722 468.773 56.7139 468.348 56.7139H460.578V69.5313C460.578 69.7298 459.699 70.3536 458.253 70.3536H457.743V56.7139H449.944L449.718 55.8916H457.743V47.2427H451.135L450.909 46.4204H463.953L465.512 44.407C465.512 44.407 467.271 45.8249 468.291 46.789C468.235 47.1009 467.951 47.2427 467.526 47.2427H460.578V55.8916H464.577ZM492.196 51.6948C491.743 51.6948 491.402 51.2411 490.892 50.5321C490.325 49.7665 489.559 48.7173 488.311 47.6114L488.652 47.186C490.183 47.7532 491.459 48.3487 492.225 49.1143C492.877 49.7381 493.132 50.2202 493.132 50.7873C493.132 51.3261 492.735 51.6948 492.196 51.6948ZM495.145 49.3695C494.635 49.3695 494.323 48.8591 493.728 48.1502C493.16 47.4412 492.48 46.6472 491.147 45.513L491.459 45.0876C493.019 45.5413 494.21 46.1368 494.975 46.7323C495.656 47.2994 495.996 47.8382 495.996 48.4904C495.996 49.0292 495.656 49.3695 495.145 49.3695ZM479.833 50.6172C478.783 49.6814 477.706 48.9158 476.827 48.377L477.054 47.8382C478.046 47.98 479.379 48.2069 480.882 48.6606C482.839 49.3695 484.143 50.3053 484.143 51.7515C484.143 52.432 483.661 53.0275 482.98 53.0275C481.874 53.0275 481.336 51.9216 479.833 50.6172ZM476.912 65.5329C479.606 65.5329 490.126 58.6989 495.06 52.347L495.628 52.6873C492.65 58.4437 486.412 63.8882 480.173 67.4329C479.407 67.9149 479.067 68.7656 478.188 68.7656C477.11 68.7656 475.267 67.4896 474.53 66.3837C474.105 65.7882 473.878 64.5688 473.849 63.9733L474.275 63.7465C474.955 64.4837 475.863 65.5329 476.912 65.5329ZM476.373 56.5154C475.182 55.4379 474.133 54.6722 473.14 54.1335L473.367 53.5663C474.643 53.7932 475.749 53.9917 477.167 54.417C479.067 54.9842 480.627 56.0617 480.627 57.5363C480.627 58.1034 480.315 58.8124 479.407 58.8124C478.273 58.8124 477.763 57.6497 476.373 56.5154ZM515.874 48.8591C517.576 49.6531 518.115 50.4754 518.115 51.4963C518.115 52.0067 517.718 52.6873 516.952 52.7156C516.13 52.7156 515.761 52.3186 514.768 51.553C512.472 49.8799 510.487 48.9441 506.8 47.8382L506.914 47.2994C510.203 47.4412 513.804 47.8949 515.874 48.8591ZM505.581 54.729L505.723 54.1902C509.466 54.2185 512.443 54.9842 513.889 55.608C515.109 56.1468 515.959 56.8274 515.959 57.9049C515.959 58.5571 515.534 59.1526 514.74 59.1526C514.116 59.1526 513.634 58.8124 512.67 58.1601C511.224 57.2527 509.239 56.0334 505.581 54.729ZM504.645 62.6122L504.787 62.045C509.21 62.2435 514.06 63.4345 516.555 64.9375C517.774 65.6747 518.512 66.5822 518.512 67.3761C518.512 68.1418 518.143 68.7373 517.065 68.7373C516.271 68.7373 515.449 68.0567 514.371 67.206C511.366 64.9942 508.587 63.8032 504.645 62.6122ZM532.945 57.0259C532.945 57.9049 533.966 58.6422 536.235 58.9825C536.518 57.3094 536.858 55.5797 537.17 54.2185C535.327 54.332 532.945 55.7498 532.945 57.0259ZM542.643 55.6931L542.984 55.2677C547.577 57.2527 549.676 60.0317 549.676 63.3211C549.676 66.1852 547.379 69.6163 541.934 69.6163C537.766 69.6163 535.724 67.1776 535.724 63.6614C535.724 63.0092 535.781 62.2152 535.894 61.3361C533.229 60.6556 531.726 59.181 531.726 57.5079C531.726 55.9199 533.257 54.3036 535.299 53.226C534.59 52.9992 534.023 52.7723 533.342 52.2903C532.406 51.6097 531.868 50.7873 531.556 49.1143L531.981 48.8874C532.662 49.8516 533.399 50.6739 534.618 51.1276C535.724 51.5246 536.802 51.6948 537.794 51.7798C538.276 49.9366 538.645 48.5471 538.702 47.8666C538.73 47.2144 538.475 46.9592 537.993 46.6756C537.596 46.4771 537.085 46.307 536.632 46.1935L536.66 45.6547C537.199 45.513 537.766 45.3995 538.475 45.3995C540.063 45.3995 541.963 47.0159 541.963 47.8949C541.963 48.5188 541.509 48.8024 541.169 49.4546C540.828 50.0784 540.488 50.7873 540.091 51.8933L540.46 51.9216C541.679 52.0634 542.133 52.744 542.133 53.3678C542.133 54.0484 541.651 54.2752 540.885 54.332C540.46 54.3603 539.864 54.3603 539.24 54.3036C538.787 55.6647 538.248 57.4229 537.851 59.1243C539.127 59.181 540.176 59.1243 540.8 59.181C541.679 59.2377 542.246 59.6064 542.246 60.4003C542.246 61.1093 541.708 61.5346 540.573 61.6764C539.779 61.7615 538.617 61.7615 537.369 61.6197C537.255 62.3003 537.199 62.9525 537.199 63.5196C537.199 66.2419 538.9 67.4612 541.537 67.4612C544.94 67.4612 547.01 65.221 547.01 62.6405C547.01 59.4646 545.167 57.6214 542.643 55.6931ZM211.775 85.5755H195.271C193.059 88.8649 190.309 91.2752 187.274 92.8916L186.962 92.5797C189.685 90.0275 192.52 85.7173 194.08 80.9817L197.965 82.513C197.823 82.8249 197.426 83.0517 196.802 82.9667C196.49 83.5905 196.15 84.186 195.781 84.7532H207.805L209.478 82.6831C209.478 82.6831 211.321 84.0442 212.512 85.1218C212.455 85.4337 212.172 85.5755 211.775 85.5755ZM193.853 88.2694H205.99L207.606 86.3128C207.606 86.3128 209.364 87.6456 210.47 88.6381C210.414 88.95 210.102 89.0918 209.705 89.0918H194.08L193.853 88.2694ZM190.62 95.5288L190.819 95.1601C193.626 96.1526 195.838 97.2018 197.625 98.2227C198.787 96.6347 199.723 94.99 200.375 93.402L203.977 95.0751C203.778 95.387 203.523 95.5288 202.814 95.4154C202.02 96.8332 200.971 98.2227 199.751 99.5838C205.876 104.093 203.608 107.892 201.283 106.191C200.687 104.887 199.553 103.214 197.88 101.427C195.101 103.922 191.528 106.078 187.218 107.41L187.019 107.042C190.734 105.255 193.91 102.703 196.32 99.8674C194.732 98.3645 192.832 96.8899 190.62 95.5288ZM213.193 101.03L212.937 104.631C213.646 105.681 213.816 106.389 213.448 106.9C212.654 107.864 211.122 107.354 210.017 106.531C206.557 104.206 205.706 98.648 205.536 92.7782H190.507L190.252 91.9558H205.196L206.642 90.3962L209.506 92.6364C209.308 92.8349 208.911 93.005 208.372 93.0901C208.315 97.0601 208.996 102.306 211.378 103.724C211.718 103.922 211.86 103.894 212.002 103.554C212.285 102.873 212.625 101.937 212.881 101.002L213.193 101.03ZM223.571 94.3094L224.195 94.593C223.628 96.1243 222.494 98.9033 222.21 99.9525C221.955 100.973 221.813 101.626 221.813 102.079C221.813 103.015 222.38 103.951 222.38 104.745C222.38 105.567 221.983 106.021 221.218 106.021C220.594 106.021 220.027 105.539 219.544 104.858C218.609 103.554 217.843 101.172 217.843 98.2227C217.843 95.3019 218.665 92.5797 219.119 90.8783C219.488 89.5171 219.8 88.4112 219.8 87.3053C219.828 86.1143 219.119 85.0084 218.297 84.1009L218.665 83.7607C219.431 83.9875 219.97 84.2427 220.537 84.6681C221.303 85.2069 222.72 86.6531 222.72 88.0709C222.72 88.7798 222.323 89.347 221.643 90.7932C220.735 92.5797 219.658 95.1601 219.658 97.7123C219.658 98.8465 219.828 99.442 219.998 99.7823C220.168 100.179 220.424 100.208 220.679 99.8107C221.359 98.7898 222.862 95.7273 223.571 94.3094ZM226.379 96.975L226.917 96.8899C227.087 97.5705 227.343 98.5346 227.683 99.1585C228.732 101.002 230.15 101.852 233.666 101.852C236.615 101.852 237.75 101.314 238.373 101.314C239.394 101.314 240.444 101.739 240.444 102.618C240.444 104.121 237.665 104.49 234.404 104.49C229.441 104.49 227.144 102.533 226.549 99.4137C226.35 98.563 226.322 97.6839 226.379 96.975ZM227.399 89.0634L227.173 88.4963C229.384 86.8516 232.22 86.2277 234.262 86.2277C236.19 86.2277 237.324 86.4262 238.26 86.9083C239.026 87.2769 239.253 87.7873 239.253 88.2127C239.253 88.7798 238.969 89.0634 238.317 89.1768C237.523 89.3186 236.644 89.3753 235.595 89.7156C234.318 90.1977 232.39 91.2185 230.916 92.0976L230.49 91.6439C231.738 90.6514 233.439 89.347 233.95 88.8366C234.262 88.4963 234.347 88.2411 232.333 88.2411C231.369 88.2411 229.781 88.3828 227.399 89.0634ZM250.539 83.1935V82.7682C251.049 82.5413 251.9 82.2861 252.58 82.2861C253.516 82.2861 254.424 82.5413 254.962 82.9383C255.529 83.307 255.274 84.0442 254.367 86.9934C256.692 86.2277 257.344 85.6322 257.798 85.6322C258.422 85.6322 259.074 86.0576 259.074 86.7665C259.074 87.3336 258.564 87.7023 258.167 87.9858C257.231 88.5246 255.473 89.1201 253.573 89.5171C252.637 92.4379 250.794 97.4287 248.554 100.832C247.958 101.739 247.504 102.334 246.824 102.334C246.03 102.334 245.605 101.569 245.605 100.775C245.605 100.179 245.775 99.7256 246.228 99.1301C248.043 96.8332 250.142 93.7139 251.418 89.8574C250.68 89.9425 249.971 89.9992 249.319 89.9992C247.051 89.9992 246.03 89.2619 245.208 86.5964L245.633 86.2844C246.852 87.2486 247.646 87.9008 249.518 87.9008C250.34 87.9008 251.276 87.759 252.07 87.5888C252.297 86.5964 252.439 85.6322 252.467 84.9517C252.495 84.3562 252.297 84.0442 251.815 83.7607C251.361 83.4771 250.879 83.307 250.539 83.1935ZM259.755 101.54C259.755 101.314 259.755 101.058 259.755 100.832C258.989 100.661 258.167 100.576 257.259 100.576C254.821 100.576 253.63 101.654 253.63 102.59C253.63 103.554 254.48 104.291 256.494 104.291C258.847 104.291 259.755 103.185 259.755 101.54ZM260.889 88.2694V87.6739C262.392 87.3053 263.98 87.3903 265.086 87.759C266.929 88.3545 268.006 89.5738 268.006 90.9633C268.006 91.7857 267.695 92.3245 266.957 92.3245C266.021 92.3245 265.398 91.6155 263.98 91.6722C263.072 91.729 262.137 92.0692 261.626 92.6931C261.116 93.3169 261.116 94.2527 261.201 95.3303C261.286 96.1526 261.569 97.7123 261.825 99.3003C263.441 99.6973 264.745 100.378 265.738 100.973C267.354 101.909 268.318 102.902 268.318 103.951C268.318 104.83 267.836 105.227 267.269 105.227C266.56 105.227 266.163 104.575 265.284 103.781C264.405 102.958 263.384 102.193 262.08 101.597C262.108 101.994 262.137 102.363 262.137 102.703C262.137 105.142 260.265 106.503 257.174 106.503C254.112 106.503 252.382 104.972 252.382 103.043C252.382 100.832 254.65 98.9316 258.62 98.9316C258.989 98.9316 259.329 98.9316 259.67 98.96C259.613 97.9391 259.528 96.8899 259.528 95.9825C259.528 94.2811 259.896 93.0901 260.775 92.1543C261.768 91.02 263.129 90.5096 264.065 90.0275C264.405 89.8007 264.292 89.4888 263.923 89.1768C263.214 88.6381 262.137 88.3261 260.889 88.2694ZM284.879 103.979C285.333 103.979 285.758 103.951 286.183 103.922C285.815 101.881 284.567 100.718 282.979 100.718C281.93 100.718 281.221 101.285 281.221 102.164C281.221 103.214 282.469 103.979 284.879 103.979ZM278.612 83.8457L279.066 83.789C279.491 84.6397 280.058 85.4904 280.795 85.4904C281.873 85.4904 285.106 84.6964 286.524 84.2427C287.431 83.9592 287.459 83.5905 287.97 83.5905C289.104 83.5905 291.061 85.1218 291.061 86.1426C291.061 86.8232 290.21 86.9934 289.246 87.7306C287.544 88.95 283.943 92.211 282.78 93.4587C282.525 93.7139 282.667 93.9408 282.922 93.8274C284.028 93.4587 285.673 92.8632 287.743 92.8632C291.486 92.8632 294.662 95.2736 294.605 99.3853C294.577 103.072 291.288 106.078 285.644 106.078C282.383 106.078 280.058 104.688 280.058 102.42C280.058 100.69 281.589 99.4988 283.603 99.4988C285.559 99.4988 287.828 100.69 288.395 103.469C290.976 102.561 292.11 100.69 292.138 98.6197C292.195 96.1243 290.437 93.9692 287.062 93.9692C283.121 93.9692 280.342 96.6631 277.931 99.754C277.364 100.52 277.081 100.718 276.514 100.69C276.003 100.69 275.464 100.066 275.521 99.1585C275.549 98.4779 275.918 97.9675 276.74 97.1735C280.228 93.6289 285.843 88.2978 287.176 86.3411C287.573 85.8307 287.318 85.6606 286.921 85.7173C285.928 85.9158 283.886 86.8232 282.752 87.3903C282.213 87.6739 281.76 88.1276 281.221 88.1276C279.803 88.1276 278.64 86.4829 278.499 85.5755C278.413 85.0084 278.47 84.4696 278.612 83.8457ZM304.19 95.8691C303.282 95.8691 302.545 95.1318 302.545 94.2244C302.545 93.3169 303.282 92.5797 304.19 92.5797C305.097 92.5797 305.835 93.3169 305.835 94.2244C305.835 95.1318 305.097 95.8691 304.19 95.8691ZM313.633 95.8691C312.725 95.8691 311.988 95.1318 311.988 94.2244C311.988 93.3169 312.725 92.5797 313.633 92.5797C314.54 92.5797 315.277 93.3169 315.277 94.2244C315.277 95.1318 314.54 95.8691 313.633 95.8691ZM323.076 95.8691C322.168 95.8691 321.431 95.1318 321.431 94.2244C321.431 93.3169 322.168 92.5797 323.076 92.5797C323.983 92.5797 324.72 93.3169 324.72 94.2244C324.72 95.1318 323.983 95.8691 323.076 95.8691Z" fill="#00AFA1"/>
<path d="M1.52372 56.2915H20.2889V58.906H1.52372V56.2915ZM12.3612 57.3457C12.7828 58.9481 13.3662 60.4451 14.1112 61.8367C14.8562 63.2283 15.7768 64.4442 16.8732 65.4843C17.9837 66.5245 19.2769 67.3468 20.7528 67.9512C20.5419 68.134 20.317 68.3659 20.0781 68.647C19.8532 68.9281 19.6283 69.2163 19.4034 69.5115C19.1925 69.8207 19.0168 70.0948 18.8763 70.3338C17.2598 69.5747 15.8682 68.5978 14.7015 67.403C13.5489 66.2082 12.579 64.8167 11.7919 63.2283C11.0047 61.6259 10.3441 59.8618 9.80993 57.9361L12.3612 57.3457ZM9.45149 50.6198H12.2136C12.1995 51.6881 12.1644 52.8196 12.1081 54.0144C12.066 55.1951 11.9605 56.3969 11.7919 57.6198C11.6232 58.8427 11.3491 60.0586 10.9696 61.2674C10.6041 62.4622 10.084 63.6148 9.40932 64.7253C8.74868 65.8217 7.89124 66.8478 6.83702 67.8036C5.79685 68.7595 4.52475 69.6028 3.02072 70.3338C2.82393 69.9964 2.54983 69.6239 2.19843 69.2163C1.84702 68.8087 1.48858 68.4713 1.12312 68.2042C2.55686 67.5576 3.75868 66.8127 4.72857 65.9693C5.69845 65.1118 6.48561 64.1912 7.09003 63.2072C7.70851 62.2092 8.17939 61.1761 8.50269 60.1078C8.82599 59.0255 9.04386 57.9361 9.15631 56.8397C9.28282 55.7433 9.36013 54.668 9.38824 53.6138C9.41635 52.5595 9.43744 51.5615 9.45149 50.6198ZM44.0722 53.5505C44.0722 53.8879 44.1847 54.176 44.4096 54.415C44.6485 54.6539 44.9367 54.7734 45.274 54.7734C45.6114 54.7734 45.8996 54.6539 46.1385 54.415C46.3775 54.176 46.4969 53.8879 46.4969 53.5505C46.4969 53.2132 46.3775 52.925 46.1385 52.6861C45.8996 52.4471 45.6114 52.3276 45.274 52.3276C44.9367 52.3276 44.6485 52.4471 44.4096 52.6861C44.1847 52.925 44.0722 53.2132 44.0722 53.5505ZM42.765 53.5505C42.765 53.0867 42.8774 52.665 43.1023 52.2854C43.3272 51.9059 43.6295 51.6037 44.009 51.3788C44.3885 51.1399 44.8102 51.0204 45.274 51.0204C45.7379 51.0204 46.1596 51.1399 46.5391 51.3788C46.9186 51.6037 47.2208 51.9059 47.4457 52.2854C47.6847 52.665 47.8042 53.0867 47.8042 53.5505C47.8042 54.0144 47.6847 54.4361 47.4457 54.8156C47.2208 55.1951 46.9186 55.5043 46.5391 55.7433C46.1596 55.9682 45.7379 56.0807 45.274 56.0807C44.8102 56.0807 44.3885 55.9682 44.009 55.7433C43.6295 55.5043 43.3272 55.1951 43.1023 54.8156C42.8774 54.4361 42.765 54.0144 42.765 53.5505ZM34.2258 52.3487C34.1695 52.672 34.1274 53.0445 34.0993 53.4662C34.0712 53.8879 34.0571 54.2463 34.0571 54.5415C34.0571 54.7523 34.0571 55.1248 34.0571 55.659C34.0571 56.1791 34.0571 56.7975 34.0571 57.5144C34.0571 58.2313 34.0571 58.9833 34.0571 59.7704C34.0571 60.5435 34.0571 61.2956 34.0571 62.0265C34.0571 62.7434 34.0571 63.3829 34.0571 63.9452C34.0571 64.5074 34.0571 64.9221 34.0571 65.1892C34.0571 65.639 34.1695 65.9482 34.3944 66.1169C34.6193 66.2856 34.9637 66.4191 35.4276 66.5175C35.7509 66.5596 36.1234 66.5948 36.5451 66.6229C36.9668 66.637 37.4095 66.644 37.8734 66.644C38.4216 66.644 39.026 66.6299 39.6867 66.6018C40.3614 66.5596 41.0361 66.5105 41.7108 66.4542C42.3995 66.398 43.0461 66.3207 43.6505 66.2223C44.255 66.1239 44.775 66.0185 45.2108 65.906V68.9844C44.5501 69.0828 43.7841 69.1601 42.9126 69.2163C42.0411 69.2866 41.1485 69.3358 40.2349 69.3639C39.3352 69.4061 38.4919 69.4271 37.7047 69.4271C37.016 69.4271 36.3623 69.4061 35.7439 69.3639C35.1394 69.3217 34.6123 69.2655 34.1625 69.1952C33.2489 69.0125 32.539 68.6681 32.033 68.1621C31.527 67.642 31.2739 66.9321 31.2739 66.0325C31.2739 65.6249 31.2739 65.0978 31.2739 64.4512C31.2739 63.7906 31.2739 63.0667 31.2739 62.2795C31.2739 61.4783 31.2739 60.6771 31.2739 59.8759C31.2739 59.0606 31.2739 58.2945 31.2739 57.5777C31.2739 56.8467 31.2739 56.2142 31.2739 55.6801C31.2739 55.1459 31.2739 54.7664 31.2739 54.5415C31.2739 54.3869 31.2669 54.176 31.2529 53.909C31.2388 53.6419 31.2177 53.3678 31.1896 53.0867C31.1755 52.8055 31.1474 52.5595 31.1053 52.3487H34.2258ZM32.8342 58.8216C33.5089 58.6811 34.2258 58.5124 34.9848 58.3156C35.7439 58.1048 36.5099 57.8799 37.283 57.6409C38.0561 57.402 38.7871 57.163 39.4758 56.924C40.1786 56.671 40.8041 56.425 41.3523 56.1861C41.7319 56.0455 42.1043 55.8839 42.4698 55.7011C42.8493 55.5184 43.2429 55.3005 43.6505 55.0475L44.7891 57.7252C44.3815 57.8799 43.9528 58.0556 43.5029 58.2524C43.0672 58.4351 42.6736 58.5897 42.3222 58.7162C41.7037 58.9552 40.9939 59.2082 40.1927 59.4753C39.4055 59.7423 38.5832 60.0094 37.7258 60.2765C36.8684 60.5295 36.018 60.7684 35.1746 60.9933C34.3453 61.2182 33.5722 61.415 32.8553 61.5837L32.8342 58.8216ZM60.244 52.4963C60.6095 52.7493 61.0382 53.0585 61.5302 53.424C62.0222 53.7895 62.5282 54.1901 63.0483 54.6258C63.5824 55.0475 64.0814 55.4622 64.5453 55.8698C65.0091 56.2774 65.3887 56.6429 65.6838 56.9662L63.5332 59.159C63.2661 58.8638 62.9147 58.5124 62.479 58.1048C62.0432 57.6971 61.5724 57.2754 61.0663 56.8397C60.5603 56.404 60.0613 55.9893 59.5693 55.5957C59.0774 55.2021 58.6416 54.8718 58.2621 54.6047L60.244 52.4963ZM57.6085 66.5386C58.7049 66.3839 59.738 66.1661 60.7079 65.8849C61.6778 65.6038 62.5774 65.2805 63.4067 64.9151C64.236 64.5496 64.9951 64.1701 65.6838 63.7765C66.8786 63.0596 67.975 62.2444 68.973 61.3307C69.971 60.417 70.8425 59.4682 71.5875 58.4843C72.3325 57.4863 72.9228 56.5164 73.3586 55.5746L75.0032 58.5475C74.469 59.4893 73.8084 60.4311 73.0212 61.3729C72.2481 62.3146 71.3696 63.2142 70.3857 64.0717C69.4017 64.9151 68.3405 65.6741 67.2019 66.3488C66.485 66.7846 65.7119 67.1992 64.8826 67.5928C64.0533 67.9723 63.1748 68.3097 62.2471 68.6048C61.3334 68.9141 60.3776 69.153 59.3796 69.3217L57.6085 66.5386ZM85.7984 53.3818C86.3326 53.3818 87.0143 53.3818 87.8436 53.3818C88.673 53.3678 89.5444 53.3397 90.4581 53.2975C91.3718 53.2413 92.2152 53.1569 92.9882 53.0445C93.5224 52.9742 94.0425 52.8899 94.5485 52.7915C95.0686 52.6931 95.5606 52.5947 96.0244 52.4963C96.5023 52.3838 96.9311 52.2644 97.3106 52.1379C97.7041 52.0113 98.0345 51.8919 98.3015 51.7794L100.03 54.0987C99.665 54.1831 99.3487 54.2604 99.0817 54.3306C98.8146 54.4009 98.5897 54.4571 98.407 54.4993C97.9712 54.6118 97.5003 54.7242 96.9943 54.8367C96.4883 54.9351 95.9682 55.0264 95.4341 55.1108C94.8999 55.1951 94.3587 55.2794 93.8105 55.3638C93.0093 55.4762 92.1589 55.5606 91.2593 55.6168C90.3597 55.673 89.4882 55.7222 88.6448 55.7644C87.8015 55.7925 87.0705 55.8136 86.4521 55.8276L85.7984 53.3818ZM86.7051 67.9091C87.942 67.3468 88.9541 66.6651 89.7412 65.8639C90.5424 65.0486 91.1328 64.1138 91.5123 63.0596C91.9059 61.9913 92.1027 60.7966 92.1027 59.4753C92.1027 59.4753 92.1027 59.3206 92.1027 59.0114C92.1027 58.6881 92.1027 58.2102 92.1027 57.5777C92.1027 56.9311 92.1027 56.1158 92.1027 55.1319L94.8648 54.8156C94.8648 55.1811 94.8648 55.5746 94.8648 55.9963C94.8648 56.404 94.8648 56.8116 94.8648 57.2192C94.8648 57.6269 94.8648 57.9993 94.8648 58.3367C94.8648 58.66 94.8648 58.9271 94.8648 59.1379C94.8648 59.3347 94.8648 59.4331 94.8648 59.4331C94.8648 60.8387 94.6891 62.1741 94.3377 63.4391C94.0003 64.7042 93.431 65.8709 92.6298 66.9392C91.8286 67.9934 90.7463 68.9281 89.3828 69.7434L86.7051 67.9091ZM84.2171 58.421C84.5123 58.4491 84.8286 58.4773 85.1659 58.5054C85.5033 58.5335 85.8336 58.5475 86.1569 58.5475C86.3537 58.5475 86.7262 58.5475 87.2744 58.5475C87.8225 58.5475 88.4832 58.5475 89.2563 58.5475C90.0434 58.5475 90.8868 58.5475 91.7864 58.5475C92.686 58.5475 93.5856 58.5475 94.4852 58.5475C95.3849 58.5475 96.2282 58.5475 97.0154 58.5475C97.8025 58.5475 98.4772 58.5475 99.0395 58.5475C99.6018 58.5475 99.9813 58.5475 100.178 58.5475C100.333 58.5475 100.529 58.5405 100.768 58.5265C101.007 58.5124 101.246 58.4983 101.485 58.4843C101.738 58.4562 101.942 58.4351 102.097 58.421V61.1409C101.816 61.1128 101.506 61.0917 101.169 61.0777C100.846 61.0636 100.536 61.0566 100.241 61.0566C100.045 61.0566 99.665 61.0566 99.1028 61.0566C98.5546 61.0566 97.8799 61.0566 97.0786 61.0566C96.2915 61.0566 95.4411 61.0566 94.5274 61.0566C93.6278 61.0566 92.7212 61.0566 91.8075 61.0566C90.9079 61.0566 90.0645 61.0566 89.2774 61.0566C88.4902 61.0566 87.8225 61.0566 87.2744 61.0566C86.7262 61.0566 86.3677 61.0566 86.199 61.0566C85.8757 61.0566 85.5314 61.0636 85.1659 61.0777C84.8004 61.0917 84.4842 61.1128 84.2171 61.1409V58.421Z" fill="#00AFA1"/>
<path d="M122.433 20.0667L120.839 26.5185C120.232 30.086 118.334 31.4523 115.754 31.4523C114.008 31.4523 112.49 30.6174 111.731 28.9475C112.49 20.598 119.853 16.9546 128.354 16.9546C139.436 16.9546 145.205 22.4956 145.205 30.3896C145.205 37.1451 141.182 42.5343 131.845 44.7355C142.7 46.4813 146.874 52.1741 146.874 59.9164C146.874 69.1767 139.208 75.6285 127.063 75.6285C116.816 75.6285 110.668 71.302 109.681 62.9525C110.516 60.8272 112.262 59.9164 114.008 59.9164C116.816 59.9164 118.334 61.3585 119.094 65.8369L120.46 72.3646C121.674 72.6683 122.889 72.8201 124.179 72.8201C132.149 72.8201 136.551 68.114 136.551 59.9164C136.551 51.4151 132.301 46.5572 124.179 46.5572H120.839V43.4452H123.648C130.707 43.4452 135.337 39.1945 135.337 30.8451C135.337 23.5583 131.845 19.7631 125.697 19.7631C124.635 19.7631 123.572 19.839 122.433 20.0667Z" fill="#00AFA1"/>
<g clip-path="url(#clip0_201_17401)">
<path d="M54.8249 89.3182C55.0203 89.2748 55.2157 89.2314 55.4111 89.188C55.4111 89.0578 55.4355 88.9493 55.46 88.8191C55.6554 88.7757 55.8508 88.7323 56.0462 88.6889C56.437 88.3851 56.095 88.2549 56.7056 87.9945C56.7789 87.4954 56.8278 86.9963 56.901 86.4972C56.7301 86.4104 56.5347 86.3237 56.3637 86.2586C56.1927 86.0416 56.0217 85.8463 55.8752 85.6293C55.1669 85.2387 50.9169 84.4575 49.3537 84.5877C49.3537 84.6528 49.3537 84.7179 49.3293 84.783C48.6698 84.7179 47.9859 84.6528 47.3264 84.5877C47.3264 84.6528 47.3264 84.7179 47.302 84.783C46.7158 84.783 46.154 84.783 45.5678 84.783V84.9783C45.348 84.9783 45.1526 84.9349 44.9816 84.9132C44.9816 84.9783 44.9816 85.0434 44.9816 85.1085C44.6885 85.0868 44.4199 85.0434 44.1268 85.0217C44.1268 85.0868 44.1268 85.1519 44.1268 85.217C43.3696 85.217 42.588 85.1953 41.8064 85.1736V85.3689C41.5866 85.3689 41.3912 85.3255 41.2202 85.3038C41.2202 85.3689 41.2202 85.434 41.1958 85.4991C40.9027 85.4774 40.634 85.434 40.3409 85.4123C40.3409 85.4774 40.3409 85.5425 40.3165 85.6076L39.1441 85.6727V85.868C38.8266 85.8463 38.5579 85.8029 38.2648 85.7812C38.2648 85.8463 38.2648 85.9114 38.2404 85.9765C37.8496 85.9982 37.4588 86.0199 37.068 86.0416C37.068 86.1067 37.068 86.1718 37.068 86.2369C36.091 86.3237 35.114 86.4104 34.137 86.4972L33.795 86.8444C33.5996 86.8444 33.4042 86.801 33.2332 86.7793C33.2332 86.8444 33.2332 86.9095 33.2088 86.9746C32.818 86.9963 32.4272 87.018 32.0364 87.0397V87.235C31.4258 87.235 30.864 87.235 30.2778 87.235C30.2778 87.3001 30.2778 87.3652 30.2778 87.4303C30.0824 87.4303 29.887 87.3869 29.716 87.3652C29.5939 87.4737 29.4962 87.5822 29.3741 87.7124C28.7879 87.7775 28.2017 87.8426 27.6155 87.9077C27.4934 88.0162 27.3957 88.1464 27.2735 88.2549C26.785 88.2549 26.2965 88.2766 25.8325 88.2983C25.8325 88.3634 25.8325 88.4285 25.8081 88.4936C25.6126 88.4936 25.4172 88.4502 25.2463 88.4285C25.1486 88.537 25.0265 88.6672 24.9043 88.7757L23.7319 88.8408C23.6098 88.9493 23.5121 89.0795 23.39 89.188C23.1946 89.188 22.9992 89.1446 22.8282 89.1229L22.2176 89.4484C22.0222 89.4484 21.8268 89.405 21.6558 89.3833C21.6558 89.4484 21.6558 89.5134 21.6314 89.5785C21.436 89.5785 21.2406 89.5351 21.0696 89.5134C20.9475 89.6219 20.8498 89.7521 20.7277 89.8606C20.4346 89.904 20.1415 89.9257 19.8484 89.9691V90.1644C19.2377 90.2295 18.6515 90.2946 18.0653 90.3597C18.0653 90.4248 18.0653 90.4899 18.0409 90.555C17.7478 90.5984 17.4547 90.6201 17.1616 90.6635L16.8197 91.0107C16.6243 91.0107 16.4289 90.9673 16.2579 90.9456C15.9404 91.1626 15.6228 91.3796 15.3053 91.5966C14.8168 91.5966 14.3283 91.6183 13.8642 91.64C13.5467 91.857 13.2292 92.074 12.9117 92.291C12.7163 92.291 12.5209 92.2476 12.3499 92.2259C12.2278 92.3344 12.1301 92.4646 12.0079 92.5731C11.7148 92.6165 11.4217 92.6382 11.1286 92.6815C11.1286 92.7466 11.1286 92.8117 11.1042 92.8768C10.9088 92.8768 10.7134 92.8334 10.5424 92.8117C10.3226 92.9853 10.1028 93.1372 9.9074 93.3108C9.712 93.3108 9.5166 93.2674 9.34562 93.2457C9.1258 93.4193 8.9304 93.5712 8.71058 93.7448C8.51518 93.7448 8.31978 93.7014 8.1488 93.6797C8.02668 93.7882 7.92898 93.9184 7.80685 94.0269C7.61145 94.0269 7.41605 93.9835 7.24508 93.9618C6.31693 94.5043 5.36436 95.0251 4.43621 95.5676C4.33851 96.4138 4.48506 96.6091 4.82701 97.1082C5.29108 97.1516 5.77958 97.195 6.24365 97.2601C6.75658 96.9346 7.29393 96.6091 7.80685 96.2836C8.31978 96.0883 8.8327 95.893 9.3212 95.6761C9.44332 95.5676 9.54102 95.4374 9.66315 95.3289C9.85855 95.3289 10.0539 95.3723 10.2249 95.394C10.5424 95.177 10.86 94.96 11.1775 94.743C11.3729 94.743 11.5683 94.7864 11.7393 94.8081C12.0568 94.5911 12.3743 94.3741 12.6918 94.1571C12.8872 94.1571 13.0826 94.2005 13.2536 94.2222C13.3757 94.1137 13.4734 93.9835 13.5956 93.875C13.791 93.875 13.9864 93.9184 14.1573 93.9401C14.3772 93.7665 14.597 93.6146 14.7924 93.441C15.0855 93.3976 15.3786 93.3759 15.6717 93.3325C15.7938 93.224 15.8915 93.0938 16.0136 92.9853C16.5998 92.9202 17.186 92.8551 17.7722 92.79C17.8699 92.6815 17.9921 92.5514 18.1142 92.4429C18.3096 92.4429 18.505 92.4863 18.676 92.508C18.8958 92.3344 19.0912 92.1825 19.311 92.0089C19.5064 92.0089 19.7018 92.0523 19.8728 92.074C19.9949 91.9655 20.0926 91.8353 20.2147 91.7268C20.6055 91.7051 20.9963 91.6834 21.3871 91.6617C21.5093 91.5532 21.607 91.423 21.7291 91.3145C21.9245 91.3145 22.1199 91.3579 22.2909 91.3796L22.6328 91.0324C22.8282 91.0324 23.0236 91.0758 23.1946 91.0975C23.3167 90.989 23.4144 90.8588 23.5365 90.7503C23.8296 90.772 24.0983 90.8154 24.3914 90.8371C24.3914 90.772 24.3914 90.7069 24.4158 90.6418C24.6112 90.6418 24.8066 90.6852 24.9776 90.7069C25.0997 90.5984 25.1974 90.4682 25.3196 90.3597C25.7104 90.338 26.1011 90.3163 26.4919 90.2946C26.5896 90.1861 26.7118 90.0559 26.8339 89.9474C27.0293 89.9474 27.2247 89.9908 27.3957 90.0125C27.3957 89.9474 27.3957 89.8823 27.4201 89.8172C27.6155 89.8172 27.8109 89.8606 27.9819 89.8823C27.9819 89.8172 27.9819 89.7521 28.0063 89.687C28.2994 89.7087 28.5681 89.7521 28.8612 89.7738V89.5785C29.4718 89.5134 30.058 89.4484 30.6442 89.3833C30.6442 89.3182 30.6442 89.2531 30.6442 89.188C30.8396 89.188 31.035 89.2314 31.206 89.2531C31.3281 89.1446 31.4258 89.0144 31.5479 88.9059C31.7433 88.9059 31.9387 88.9493 32.1097 88.971L32.7203 88.6455C33.795 88.4936 34.8697 88.3634 35.9688 88.2115C36.091 88.103 36.1887 87.9728 36.3108 87.8643C36.897 87.8643 37.4588 87.8643 38.045 87.8643C38.045 87.7992 38.045 87.7341 38.0694 87.669C38.4602 87.6473 38.851 87.6256 39.2418 87.6039V87.4086C39.5593 87.4303 39.828 87.4737 40.1211 87.4954C40.1211 87.4303 40.1211 87.3652 40.1455 87.3001C40.3409 87.3001 40.5363 87.3435 40.7073 87.3652C40.7073 87.3001 40.7073 87.235 40.7317 87.1699C41.0248 87.1916 41.2935 87.235 41.5866 87.2567C41.5866 87.1916 41.5866 87.1265 41.611 87.0614C41.8064 87.0614 42.0018 87.1048 42.1728 87.1265C42.1728 87.0614 42.1728 86.9963 42.1972 86.9312C42.4903 86.9529 42.759 86.9963 43.0521 87.018C43.0521 86.9529 43.0521 86.8878 43.0765 86.8227C43.2719 86.8227 43.4673 86.8661 43.6383 86.8878V86.6925C44.0535 86.7359 44.4199 86.7793 44.8107 86.801C44.8107 86.7359 44.8107 86.6708 44.8351 86.6057C45.1282 86.6274 45.3969 86.6708 45.69 86.6925V86.4972C46.1052 86.5406 46.4716 86.5623 46.8624 86.6057C46.8624 86.5406 46.8624 86.4755 46.8624 86.4104C47.1555 86.4321 47.4241 86.4755 47.7172 86.4972C47.7172 86.4321 47.7172 86.367 47.7417 86.302C48.9873 86.1501 49.1583 86.6491 50.062 86.1501C51.3077 86.2803 52.529 86.4104 53.7746 86.5189C53.7746 86.5189 54.1166 86.8661 54.2876 86.9529C54.0677 87.1699 53.7991 87.1699 53.6769 87.2784C53.6769 87.4086 53.6525 87.5171 53.6281 87.6473C53.4327 87.6907 53.2373 87.7341 53.0419 87.7775C53.0419 87.9077 53.0175 88.0162 52.993 88.1464L52.3824 88.4719C52.3824 88.6021 52.358 88.7106 52.3336 88.8408C52.1382 88.8842 51.9428 88.9276 51.7474 88.971C51.7474 89.1012 51.7229 89.2097 51.6985 89.3399C51.5031 89.3833 51.3077 89.4267 51.1123 89.4701C50.7459 89.7738 51.0635 89.8823 50.4528 90.1644C50.2819 91.6183 49.9399 92.7466 51.5031 93.2891C52.6022 93.6797 56.0706 93.0504 56.7545 92.8768C56.7545 92.8117 56.7545 92.7466 56.7789 92.6815C56.9743 92.6815 57.1697 92.7249 57.3407 92.7466C57.3407 92.6815 57.3407 92.6165 57.3407 92.5514C57.5361 92.5514 57.7315 92.5948 57.9025 92.6165C57.9025 92.5514 57.9025 92.4863 57.9025 92.4212C58.1955 92.4429 58.4642 92.4863 58.7573 92.508C58.7573 92.4429 58.7573 92.3778 58.7573 92.3127C58.9527 92.3127 59.1481 92.3561 59.3191 92.3778V92.1825C59.9297 92.1174 60.5159 92.0523 61.1021 91.9872C61.1021 91.9221 61.1021 91.857 61.1265 91.7919C61.3219 91.7919 61.5173 91.8353 61.6883 91.857C61.6883 91.7919 61.6883 91.7268 61.6883 91.6617C61.9814 91.6834 62.2501 91.7268 62.5432 91.7485C62.5432 91.6834 62.5432 91.6183 62.5676 91.5532C62.763 91.5532 62.9584 91.5966 63.1294 91.6183C63.1294 91.5532 63.1294 91.4881 63.1294 91.423C63.5202 91.4013 63.911 91.3796 64.3018 91.3579C64.3018 91.2928 64.3018 91.2277 64.3262 91.1626C64.9124 91.1626 65.4742 91.1626 66.0604 91.1626C66.1581 91.0541 66.2802 90.9239 66.4023 90.8154C66.5977 90.8154 66.7931 90.8588 66.9641 90.8805C66.9641 90.8154 66.9641 90.7503 66.9885 90.6852C67.3793 90.6635 67.7701 90.6418 68.1609 90.6201C68.1609 90.555 68.1609 90.4899 68.1854 90.4248C68.8693 90.4248 69.5287 90.4248 70.2126 90.4248V90.2295C70.4325 90.2295 70.6279 90.2729 70.7988 90.2946C70.7988 90.2295 70.7988 90.1644 70.8233 90.0993C71.3118 90.0993 71.8003 90.0776 72.2643 90.0559C72.3865 89.9474 72.4842 89.8172 72.6063 89.7087C72.9971 89.7521 73.3634 89.7738 73.7542 89.8172C73.7542 89.7521 73.7542 89.687 73.7787 89.6219C74.4626 89.6219 75.122 89.6219 75.8059 89.6219V89.4267C76.2212 89.4701 76.5875 89.5134 76.9783 89.5351C76.9783 89.6002 76.9783 89.6653 76.9783 89.7304C77.6134 90.3163 76.6608 91.3796 76.9539 92.1825C77.0516 92.1825 77.1493 92.1825 77.247 92.2042C77.2226 92.3995 77.1982 92.5731 77.1738 92.7683C77.2714 92.7683 77.3691 92.7683 77.4668 92.79C77.4668 92.9202 77.4424 93.0287 77.418 93.1589C77.5157 93.1589 77.6134 93.1589 77.7111 93.1806C77.8821 93.3759 78.053 93.5929 78.1996 93.7882C79.1522 94.0052 80.1292 94.6345 81.5702 94.5043V94.309C82.3518 94.309 83.1334 94.3307 83.8906 94.3524C84.0127 94.2439 84.1104 94.1137 84.2326 94.0052C84.428 94.0052 84.6234 94.0486 84.7943 94.0703C84.7943 94.0052 84.7943 93.9401 84.8188 93.875C85.6981 93.8316 86.5529 93.7882 87.4322 93.7665C87.5544 93.658 87.6521 93.5278 87.7742 93.4193C88.165 93.3976 88.5558 93.3759 88.9466 93.3542C88.9466 93.2891 88.9466 93.224 88.971 93.1589C89.3618 93.1372 89.7526 93.1155 90.1434 93.0938C90.1434 93.0287 90.1434 92.9636 90.1434 92.8985L90.9983 92.9853C90.9983 92.9853 90.9983 92.8551 91.0227 92.79C91.6089 92.7249 92.1951 92.6598 92.7813 92.5948C92.7813 92.5297 92.7813 92.4646 92.8057 92.3995C93.3919 92.3344 93.9781 92.2693 94.5643 92.2042C94.6864 92.0957 94.7841 91.9655 94.9063 91.857C95.1994 91.8787 95.468 91.9221 95.7611 91.9438C95.7611 91.8787 95.7611 91.8136 95.7611 91.7485C95.9565 91.7485 96.1519 91.7919 96.3229 91.8136C96.3229 91.7485 96.3229 91.6834 96.3473 91.6183C96.9335 91.5532 97.5197 91.4881 98.1059 91.423C98.1059 91.3579 98.1059 91.2928 98.1304 91.2277C98.4235 91.2494 98.6921 91.2928 98.9852 91.3145C98.9852 91.2494 98.9852 91.1843 98.9852 91.1192C99.1806 91.1192 99.376 91.1626 99.547 91.1843C99.547 91.1192 99.547 91.0541 99.5714 90.989C99.7668 90.989 99.9622 91.0324 100.133 91.0541C100.133 90.989 100.133 90.9239 100.133 90.8588C100.964 90.7069 100.964 90.989 101.599 90.6201C101.99 90.6635 102.356 90.7069 102.747 90.7286V90.9239C102.747 90.9239 102.918 90.9239 103.015 90.9456C103.357 91.423 102.6 92.2042 102.527 92.3995C102.625 92.3995 102.722 92.3995 102.82 92.4212C102.771 92.7249 102.747 93.0504 102.698 93.3542C102.771 93.4844 103.089 93.3976 103.186 93.9835C103.455 94.0703 103.748 94.1571 104.017 94.2656C104.017 94.3307 104.017 94.3958 103.992 94.4609L104.847 94.5477C104.847 94.5477 104.847 94.6779 104.823 94.743C106.679 95.3506 108.706 94.8081 109.757 94.6779C110.147 94.7213 110.514 94.743 110.905 94.7864C110.905 94.7213 110.905 94.6562 110.929 94.5911C111.222 94.6128 111.491 94.6562 111.784 94.6779C111.784 94.6128 111.784 94.5477 111.808 94.4826C112.101 94.5043 112.37 94.5477 112.663 94.5694V94.3741C112.981 94.3958 113.249 94.4392 113.543 94.4609C113.543 94.3958 113.543 94.3307 113.567 94.2656C113.86 94.2873 114.129 94.3307 114.422 94.3524C114.422 94.2873 114.422 94.2222 114.422 94.1571L115.594 94.092C115.594 94.092 115.594 93.9618 115.619 93.8967C115.814 93.8967 116.009 93.9401 116.18 93.9618C116.18 93.8967 116.18 93.8316 116.205 93.7665C116.498 93.7882 116.767 93.8316 117.06 93.8533C117.06 93.7882 117.06 93.7231 117.084 93.658C117.28 93.658 117.475 93.7014 117.646 93.7231C117.646 93.658 117.646 93.5929 117.646 93.5278C118.037 93.5712 118.403 93.6146 118.794 93.6363C118.794 93.5712 118.794 93.5061 118.818 93.441C119.014 93.441 119.209 93.4844 119.38 93.5061V93.3108C119.6 93.3108 119.795 93.3542 119.966 93.3759C120.088 93.2674 120.186 93.1589 120.308 93.0287C120.992 93.0287 121.652 93.0287 122.336 93.0287C122.336 92.9636 122.336 92.8985 122.336 92.8334C122.531 92.8334 122.726 92.8768 122.897 92.8985C122.897 92.8334 122.897 92.7683 122.922 92.7032C123.508 92.7032 124.07 92.7032 124.656 92.7032V92.508C125.071 92.5514 125.437 92.5948 125.828 92.6165C125.95 92.508 126.048 92.3778 126.17 92.2693C126.366 92.2693 126.561 92.3127 126.732 92.3344C126.732 92.2693 126.732 92.2042 126.756 92.1391C127.733 92.1174 128.686 92.074 129.663 92.0523C129.663 91.9872 129.663 91.9221 129.687 91.857C129.981 91.8787 130.249 91.9221 130.542 91.9438C130.542 91.8787 130.542 91.8136 130.567 91.7485C130.86 91.7702 131.128 91.8136 131.422 91.8353C131.422 91.7702 131.422 91.7051 131.446 91.64C131.739 91.6617 132.008 91.7051 132.301 91.7268V91.5315C132.618 91.5532 132.887 91.5966 133.18 91.6183C133.18 91.5532 133.18 91.4881 133.205 91.423C133.4 91.423 133.595 91.4664 133.766 91.4881C133.766 91.423 133.766 91.3579 133.791 91.2928C134.084 91.3145 134.353 91.3579 134.646 91.3796C134.646 91.3145 134.646 91.2494 134.646 91.1843C135.036 91.2277 135.403 91.2711 135.794 91.2928V91.0975C136.111 91.1192 136.38 91.1626 136.673 91.1843C136.673 91.1192 136.673 91.0541 136.697 90.989C136.99 91.0107 137.259 91.0541 137.552 91.0758C137.552 91.0107 137.552 90.9456 137.552 90.8805C137.943 90.9239 138.309 90.9673 138.7 90.989C138.7 90.9239 138.7 90.8588 138.725 90.7937L140.141 90.9456C140.141 90.9456 140.141 90.8154 140.166 90.7503C140.557 90.7286 140.947 90.7069 141.338 90.6852C141.338 90.6201 141.338 90.555 141.363 90.4899C141.851 90.5333 142.315 90.5767 142.804 90.6418V90.4465C143.121 90.4682 143.39 90.5116 143.683 90.5333C143.683 90.4682 143.683 90.4031 143.683 90.338C145.271 90.0993 145.954 90.5333 146.956 89.7304C147.054 89.7304 147.151 89.7304 147.249 89.7521L147.054 88.971C143.927 88.6889 141.875 88.8842 139.506 89.1446C138.749 89.1446 137.967 89.1229 137.21 89.1012C137.21 89.1663 137.21 89.2314 137.186 89.2965C136.99 89.2965 136.795 89.2531 136.624 89.2314C136.624 89.2965 136.624 89.3616 136.6 89.4267C136.013 89.4267 135.452 89.4267 134.866 89.4267C134.866 89.4918 134.866 89.5568 134.841 89.6219C134.059 89.6219 133.302 89.6002 132.521 89.5785C132.521 89.6436 132.521 89.7087 132.521 89.7738L131.666 89.687C131.666 89.687 131.666 89.8172 131.641 89.8823C131.348 89.8606 131.08 89.8172 130.787 89.7955C130.787 89.8606 130.787 89.9257 130.762 89.9908C130.469 89.9691 130.2 89.9257 129.907 89.904C129.907 89.9691 129.907 90.0342 129.883 90.0993C129.687 90.0993 129.492 90.0559 129.321 90.0342C129.321 90.0993 129.321 90.1644 129.297 90.2295C128.906 90.1861 128.539 90.1427 128.149 90.121V90.3163C127.831 90.2946 127.562 90.2512 127.269 90.2295V90.4248C126.952 90.4031 126.683 90.3597 126.39 90.338V90.5333C126.073 90.5116 125.804 90.4682 125.511 90.4465C125.511 90.5116 125.511 90.5767 125.486 90.6418C125.193 90.6201 124.925 90.5767 124.631 90.555V90.7503C124.412 90.7503 124.216 90.7069 124.045 90.6852C124.045 90.7503 124.045 90.8154 124.021 90.8805C123.532 90.8805 123.044 90.9022 122.58 90.9239C122.58 90.989 122.58 91.0541 122.58 91.1192C122.189 91.0758 121.823 91.0541 121.432 91.0107C121.432 91.0758 121.432 91.1409 121.407 91.206C121.212 91.206 121.017 91.1626 120.846 91.1409V91.3362C120.235 91.3362 119.673 91.3362 119.087 91.3362C119.087 91.4013 119.087 91.4664 119.063 91.5315C118.672 91.5532 118.281 91.5749 117.89 91.5966C117.89 91.6617 117.89 91.7268 117.89 91.7919C117.695 91.7919 117.499 91.7485 117.328 91.7268C117.328 91.7919 117.328 91.857 117.304 91.9221C116.425 91.9655 115.57 91.9872 114.69 92.0306V92.2259C114.471 92.2259 114.275 92.1825 114.104 92.1608C114.104 92.2259 114.104 92.291 114.08 92.3561C113.494 92.3561 112.932 92.3561 112.346 92.3561C112.346 92.4212 112.346 92.4863 112.321 92.5514C111.93 92.5731 111.54 92.5948 111.149 92.6165C111.149 92.6815 111.149 92.7466 111.124 92.8117C110.831 92.79 110.563 92.7466 110.27 92.7249V92.9202C109.561 92.9202 108.902 92.9202 108.218 92.9202V93.1155C107.265 93.0504 105.824 92.9853 105.36 92.6382C105.262 92.6382 105.165 92.6382 105.067 92.6165C104.921 92.2476 105.262 92.3778 105.409 92.2693C105.507 91.5749 105.58 90.9022 105.678 90.2078C105.043 89.8389 104.432 89.4484 103.797 89.0795C101.648 88.9059 99.6691 88.971 97.9838 89.2531C97.9838 89.3182 97.9838 89.3833 97.9838 89.4484C97.4953 89.4484 97.0068 89.4701 96.5427 89.4918C96.4206 89.6002 96.3229 89.7304 96.2008 89.8389C96.0054 89.8389 95.8344 89.7955 95.639 89.7738L95.0284 90.0993C93.9537 90.2512 92.879 90.3814 91.7799 90.5333C91.6822 90.6418 91.5601 90.772 91.4379 90.8805C91.0471 90.9022 90.6563 90.9239 90.2655 90.9456C90.2655 91.0107 90.2655 91.0758 90.2411 91.1409C89.8503 91.1626 89.4595 91.1843 89.0687 91.206C89.0687 91.2711 89.0687 91.3362 89.0443 91.4013C88.4581 91.4013 87.8963 91.4013 87.3101 91.4013C87.3101 91.4664 87.3101 91.5315 87.3101 91.5966C87.1147 91.5966 86.9193 91.5532 86.7483 91.5315C86.6262 91.64 86.5285 91.7702 86.4064 91.8787C86.0156 91.9004 85.6248 91.9221 85.234 91.9438C85.234 92.0089 85.234 92.074 85.2096 92.1391L84.0616 92.0306C84.0616 92.0306 84.0616 92.1608 84.0372 92.2259C83.8418 92.2259 83.6464 92.1825 83.4754 92.1608C83.4754 92.2259 83.4754 92.291 83.451 92.3561H81.7168L81.6924 92.5514C80.0803 92.3778 80.0315 92.1608 79.201 91.7268C79.2499 91.2928 79.3231 90.8588 79.372 90.4248C79.4697 90.4248 79.5674 90.4248 79.6651 90.4465C79.9826 90.0559 80.3246 89.3833 79.8605 88.9493C79.6651 88.2332 79.03 88.2332 78.566 87.6907C77.5157 87.6473 76.4654 87.6039 75.3907 87.5605C75.3907 87.6256 75.3907 87.6907 75.3663 87.7558C75.1709 87.7558 74.9755 87.7124 74.8045 87.6907C74.8045 87.7558 74.8045 87.8209 74.7801 87.886C74.3893 87.8426 74.0229 87.8209 73.6321 87.7775C73.6321 87.8426 73.6321 87.9077 73.6321 87.9728C73.339 87.9511 73.0704 87.9077 72.7773 87.886C72.7773 87.9511 72.7773 88.0162 72.7528 88.0813C72.4597 88.0596 72.1911 88.0162 71.8979 87.9945C71.8979 88.0596 71.898 88.1247 71.8735 88.1898C71.5804 88.1681 71.3118 88.1247 71.0187 88.103C71.0187 88.1681 71.0187 88.2332 70.9942 88.2983C70.7011 88.2766 70.4325 88.2332 70.1394 88.2115C70.1394 88.2766 70.1394 88.3417 70.1149 88.4068C69.7241 88.4285 69.3333 88.4502 68.9425 88.4719V88.6672C68.4296 88.6672 67.9411 88.6889 67.477 88.7106C67.477 88.7757 67.477 88.8408 67.4526 88.9059C67.0618 88.8625 66.6954 88.8191 66.3046 88.7974C66.3046 88.8625 66.3046 88.9276 66.2802 88.9927C65.694 89.0578 65.1078 89.1229 64.5216 89.188C64.5216 89.2531 64.5216 89.3182 64.5216 89.3833C64.2285 89.3616 63.9598 89.3182 63.6667 89.2965C63.6667 89.3616 63.6667 89.4267 63.6423 89.4918C63.4469 89.4918 63.2515 89.4484 63.0805 89.4267C63.0805 89.4918 63.0805 89.5568 63.0561 89.6219C62.4699 89.687 61.8837 89.7521 61.2975 89.8172C61.2975 89.8823 61.2975 89.9474 61.2975 90.0125C61.0044 89.9908 60.7357 89.9474 60.4426 89.9257C60.4426 89.9908 60.4426 90.0559 60.4182 90.121C59.9297 90.121 59.4412 90.1427 58.9771 90.1644C58.855 90.2729 58.7573 90.4031 58.6352 90.5116C58.4398 90.5116 58.2444 90.4682 58.0734 90.4465C58.0734 90.5116 58.0734 90.5767 58.0734 90.6418C57.878 90.6418 57.6826 90.5984 57.5117 90.5767C57.5117 90.6418 57.5117 90.7069 57.4872 90.772C57.1941 90.7503 56.9254 90.7069 56.6324 90.6852V90.8805C56.2171 90.9022 55.8263 90.9239 55.4355 90.9456C55.4355 91.0107 55.4355 91.0758 55.4355 91.1409C55.1424 91.1192 54.8738 91.0758 54.5807 91.0541C54.5807 91.1192 54.5807 91.1843 54.5562 91.2494C53.8968 91.1409 53.8723 91.0975 53.4327 90.9456C53.7014 90.1644 54.2387 90.0559 54.7761 89.5568C54.7761 89.4267 54.8005 89.3182 54.8249 89.188" fill="#00AFA1"/>
</g>
<defs>
<clipPath id="clip0_201_17401">
<rect width="143.375" height="12.6507" fill="white" transform="translate(4.21655 84.5889)"/>
</clipPath>
</defs>
</svg>
