<svg width="149" height="117" viewBox="0 0 149 117" fill="none" xmlns="http://www.w3.org/2000/svg">
<path d="M35.1417 76.2319C37.052 77.5336 38.7124 78.8052 40.4058 80.4513C40.751 80.8242 41.0346 81.3846 41.3175 81.789C44.6429 85.2687 47.3682 93.7453 46.2617 97.2776C46.5791 98.3685 46.4891 99.1181 46.3998 100.024C46.0098 103.272 46.55 105.267 44.255 108.305C43.0456 109.934 40.3026 110.697 38.6798 110.736C35.248 111.064 31.5934 110.489 28.8068 108.692C27.6483 107.949 26.3968 107.331 25.4244 106.337C19.6853 100.715 16.5084 95.6739 15.0293 86.723C14.6128 84.509 13.9165 82.5148 15.0591 79.981C15.2136 79.6681 15.2429 79.2622 15.3974 78.9494C16.0433 76.9799 17.0029 75.321 18.15 73.7236C18.739 72.878 19.5485 72.4683 20.2012 71.9033C21.0092 71.1815 22.0694 70.9579 22.8804 70.8603C25.7502 70.5031 27.3784 71.5564 29.6315 72.7628C30.6332 73.351 31.7263 73.5017 32.6972 74.1837C33.6366 74.8034 34.2961 75.643 35.1102 76.1696L35.1417 76.2319ZM28.0185 74.8306C25.9267 74.7159 23.8259 72.7285 21.3372 74.4572C20.9328 74.7401 20.0941 75.5557 19.8772 75.9001C19.226 76.7772 18.6709 78.1532 19.5487 78.9605C19.8308 79.2088 20.2067 79.4879 20.5511 79.7047C20.771 79.9846 21.1169 80.5135 20.7132 80.9524C20.4341 81.3283 19.8107 81.4874 19.5631 81.9256C19.4701 82.0509 19.2225 82.4891 19.2232 82.6451C19.257 83.1756 20.6714 85.1975 20.9542 85.6019C22.4286 87.1242 24.4934 88.113 26.6137 87.6657C27.1126 87.5697 27.7 86.412 28.1344 85.8793C28.7857 85.0022 29.9058 84.2789 30.5653 85.1184C31.4432 85.9257 30.9241 88.3003 29.993 89.3973C29.807 89.6479 29.5586 89.93 29.341 90.1183C25.8238 92.1329 24.0996 90.5807 20.7909 90.5343C20.541 90.5043 20.3227 90.5365 20.1674 90.6934C19.826 91.1008 20.0804 92.0671 20.1134 92.4415C20.5246 93.5632 21.1534 94.4965 21.8137 95.4921C22.3494 96.5507 22.7921 97.7347 23.4524 98.7303C24.2065 99.7566 26.0875 101.464 26.9653 102.271C27.3105 102.644 27.5003 103.174 27.9393 103.578C28.5958 103.793 29.8195 105.129 30.1662 105.814C30.6659 105.874 31.3846 106.058 31.6037 106.182C32.4801 106.677 33.1066 107.142 34.0129 107.387C35.6396 108.129 39.1644 107.675 41.0348 107.197C41.5968 107.226 42.0934 106.662 42.5278 106.129C43.7995 104.468 43.5368 101.785 43.6838 99.912C44.007 95.7592 43.201 90.4569 41.4685 87.188C41.1533 86.5653 40.5891 86.0686 40.274 85.4459C39.9911 85.0415 39.7082 84.6371 39.5176 83.9514C38.9864 83.8291 38.1093 83.1779 37.7634 82.649C37.4806 82.2446 37.1347 81.7156 36.9141 81.2797C35.6611 80.3494 28.9286 75.8562 28.0185 74.8306Z" fill="#323B62"/>
<path d="M62.8107 60.2695C62.8752 60.7062 63.002 61.1113 63.0973 61.4542C63.5761 63.6367 63.3262 63.6067 63.1207 66.292C63.0353 67.9779 62.6707 70.0397 62.2716 71.4149C62.7158 72.911 62.6979 75.6578 62.3026 77.8133C62.3049 78.2815 61.9012 78.7204 61.5284 79.0656C60.5965 80.0065 58.7876 80.2962 57.8167 79.6142C57.0027 79.0875 51.133 72.2804 50.535 71.2533C50.2851 71.2233 49.8784 71.038 49.5986 71.2578C49.5986 71.2578 49.6684 72.7869 49.6722 73.5672C49.5492 73.9424 49.4569 74.2237 49.2086 74.5058C48.6804 75.0078 48.0569 75.1669 47.7118 74.794C47.5227 74.4204 47.1438 73.517 47.0792 73.0804C46.3415 68.9951 45.267 66.2536 44.4199 65.3526C44.0748 64.9797 43.6051 64.6698 43.0447 64.9535C42.5142 64.9872 42.3597 65.3001 41.9868 65.6453C41.148 66.4608 40.9657 67.4917 40.3753 68.0252C40.0024 68.3704 39.1906 68.3119 38.877 68.0013C37.2773 66.386 40.697 63.5603 41.0361 62.6847C41.4359 61.4655 39.8063 60.1 39.8933 58.7262C38.7933 57.1709 37.3091 53.6199 39.3903 51.5498C40.1046 50.7973 41.5698 50.4468 42.041 51.0688C42.7644 52.1889 44.0211 53.8995 44.4954 55.1457C45.0588 55.4863 45.6868 56.2636 46.1235 56.1991C46.8093 56.0085 47.8641 54.6924 48.3608 54.1282C48.982 53.501 49.7292 53.1228 50.2327 53.9631C51.2066 55.2693 48.5072 58.5909 47.889 59.8424C47.5492 60.5619 49.0664 64.4873 49.5376 65.1093C49.7267 65.4829 50.1018 65.606 50.447 65.9788C51.5154 67.4719 52.7077 68.7458 53.8069 70.145C54.78 71.2952 56.1891 72.2247 56.4142 73.597C57.04 73.9061 58.5766 75.3968 59.1356 74.8011C59.5392 74.3621 60.2159 72.2989 60.1813 71.6123C60.2661 69.7704 59.9156 68.3051 60.284 67.0236C59.902 65.4961 60.3341 64.4952 60.2343 63.2159C60.0346 60.6575 60.2883 61.4678 59.4966 59.1307C59.276 58.6948 59.928 57.9737 60.2386 57.6601C60.9528 56.9075 61.7024 56.9976 62.3927 57.7433C62.7708 58.4906 62.5886 59.5215 62.7484 60.301L62.8107 60.2695Z" fill="#323B62"/>
<path d="M87.1708 43.3329C87.4912 45.0481 87.441 47.5765 87.5086 48.6374C88.328 50.2565 88.2433 52.0984 88.4384 53.7205C88.8556 56.0907 89.7148 59.4886 87.0724 61.6863C86.4197 62.2513 85.8893 62.2851 85.3888 62.069C84.1073 61.7007 79.9732 58.7867 79.1868 57.542C78.495 56.4842 78.1138 55.1127 77.2645 53.7434C76.0999 51.7515 74.7862 51.1648 73.7155 49.2036C73.2743 48.3318 73.1459 47.6145 72.6125 47.0241C72.3919 46.5882 71.9214 46.1223 71.2064 46.7188C70.3984 47.4406 70.1922 49.9698 70.2282 50.9684C70.2996 52.8096 69.998 54.9959 70.2254 56.8364C70.2284 57.4606 70.6359 57.802 70.6689 58.1763C70.8955 59.8607 71.0299 61.8264 71.099 63.1995C71.6677 64.6325 73.0506 66.5922 71.3723 68.0673C70.6265 68.7576 69.7217 68.8244 69.2497 68.0463C68.3066 66.6464 67.9216 64.4946 66.8186 62.315C66.0623 60.8205 65.1168 58.9523 64.1137 58.052C63.9906 58.4272 64.6539 60.047 63.9389 60.6435C63.5038 61.0202 62.7235 61.0239 62.0955 60.2467C61.7188 59.8115 61.2784 59.0958 60.9925 58.0671C61.3939 57.16 60.1671 55.1996 60.1333 54.6692C60.0673 53.9204 59.3455 53.1123 59.4347 52.2068C58.2702 50.2148 55.68 43.86 55.5418 41.114C54.631 39.9323 53.894 36.0031 54.1994 34.5971C54.2916 34.3157 54.7891 33.9076 55.0066 33.7192C56.8718 32.1496 59.6614 34.5706 60.3547 35.9406C60.7952 36.6564 63.3629 44.8216 63.5865 45.8817C63.7133 46.2869 63.7794 47.0357 63.4388 47.5991C63.7877 48.7523 63.3324 51.4076 63.9604 52.1848C64.2755 52.8076 65.879 55.2031 66.5317 54.6382C67.402 53.8848 66.6169 46.4601 70.1604 43.4153C71.7457 42.0655 74.0858 41.8981 75.0297 43.4542C75.0297 43.4542 75.7531 44.5743 76.0359 44.9787C77.1367 46.69 78.0491 48.1838 78.7116 49.6476C79.5257 50.1743 80.5019 51.9486 80.7555 52.7589C81.5703 53.4417 82.3904 55.2168 82.7686 55.9641C83.4266 56.4915 84.4598 57.142 84.9572 56.7338C85.6099 56.1688 85.0351 53.4873 85.4972 52.2366C84.9915 50.9281 84.626 46.3416 84.5591 45.4368C84.271 43.94 83.7607 41.6952 83.7224 40.2284C83.8139 39.791 84.4321 38.5395 84.6497 38.3511C85.2094 37.9115 85.7075 37.6593 86.1465 38.063C86.9651 39.526 87.0702 41.8976 87.2646 43.3637L87.1708 43.3329Z" fill="#323B62"/>
<path d="M102.254 32.3309C101.801 35.6104 102.517 41.5061 101.961 42.8821C102.159 44.9724 101.637 46.7228 100.738 48.0381C100.397 48.6016 100.276 49.2888 99.9351 49.8523C99.5945 50.4158 98.4767 51.6073 97.917 52.0469C96.1133 53.429 94.1078 51.7845 92.9778 50.479C92.6012 50.0439 91.7563 49.611 91.4734 49.2066C91.2213 48.7084 91.0638 48.3971 90.8432 47.9612C90.1521 47.0594 89.3988 46.1891 88.8638 45.2865C88.0445 43.6674 87.036 41.6747 86.6533 39.9911C85.9615 38.9332 84.5973 34.3828 84.1763 31.2324C84.0172 30.6089 84.2325 29.9524 84.2288 29.1721C84.2235 28.0797 84.6826 26.2047 85.6467 25.4822C87.6371 24.0055 90.2992 25.8654 91.5282 28.294C92.9463 31.0963 92.8631 33.2503 93.2489 35.5582C93.3442 35.9011 93.1619 36.9319 92.9451 37.2763C93.1072 38.524 92.7381 39.6495 91.8408 41.2769C91.717 41.496 91.6563 41.8396 91.6262 42.0894C91.597 42.4953 92.072 43.8976 92.1988 44.3027C92.64 45.1746 96.1867 49.2462 97.3376 48.4291C98.2087 47.8319 99.1667 45.8608 99.3175 44.7677C99.5267 42.8627 99.3578 40.2105 99.8785 38.1479C99.4942 36.1522 99.7905 32.8734 99.7567 32.343C99.7537 31.7188 99.314 31.1591 99.311 30.5348C99.2757 29.6923 99.614 28.6606 100.236 28.1894C100.796 27.7497 101.577 27.902 101.923 28.4309C102.52 29.302 102.401 30.6135 102.191 32.3624L102.254 32.3309ZM87.0408 29.7827C87.0408 29.7827 86.6064 30.3154 86.671 30.7521C86.9299 32.6548 88.6377 37.266 89.3325 38.9481C89.5216 39.3217 90.0228 39.6938 90.3649 39.4425C91.0492 38.9398 90.7189 35.1959 90.8089 34.4463C90.2732 33.3877 89.7344 31.7049 89.1972 30.3341C88.819 29.5868 88.1295 28.9971 87.1031 29.7512L87.0408 29.7827Z" fill="#323B62"/>
<path d="M126.512 14.5781C126.865 16.5116 126.099 19.4805 125.983 21.4162C125.926 22.3841 125.378 25.3207 124.416 26.3554C124.112 28.0735 123.588 29.5119 122.905 30.1706C122.687 30.359 122.253 30.8917 122.128 30.9547C119.576 32.5589 117.254 29.9795 116.496 28.1729C116.307 27.7992 116.242 27.2065 116.146 26.7076L113.212 20.292C112.96 19.7938 111.482 17.4913 110.982 17.4313C109.93 19.2155 109.31 20.1549 108.224 21.5647C108.01 22.3772 107.576 23.066 107.174 23.8171C106.802 24.3183 107.415 28.4665 106.703 29.6873C106.61 29.8126 106.144 30.283 106.02 30.3461C105.397 30.6612 104.709 30.3836 104.332 29.9485C104.112 29.5126 104.217 25.5481 103.902 24.9253C103.114 23.3685 100.687 24.9097 99.3973 22.8247C98.7993 21.7976 98.1952 19.522 97.9086 18.3373C97.874 17.6508 97.871 17.0266 98.2739 16.4316C98.1733 14.9963 98.1289 12.2811 99.2783 11.1518C99.4959 10.9635 99.7442 10.6814 99.9303 10.4308C100.179 10.3047 100.398 10.2725 100.554 10.2717C102.797 9.44933 103.673 9.78842 104.525 11.7819C105.188 13.4017 105.415 15.0861 106.078 16.7059C106.267 17.0796 106.456 17.4532 106.923 17.1388C107.172 17.0128 107.328 16.8559 107.358 16.6061C107.697 15.8866 108.125 13.9493 108.183 13.1375C108.021 11.8898 108.229 9.67271 109.785 8.7288C110.47 8.38215 111.623 8.03323 111.721 8.84428C111.942 9.28018 112.007 9.87291 112.259 10.3711C112.574 10.9938 113.39 11.8326 113.863 12.9227C114.43 14.0436 114.559 14.917 114.659 16.1962C115.758 17.5954 116.675 20.0255 117.339 21.8014C117.529 22.1751 117.5 22.737 117.534 23.2675C118.227 24.6375 119.015 26.1943 119.957 27.4382C120.177 27.7181 120.49 27.8726 120.895 27.5897C121.206 27.4322 121.268 27.4006 121.329 27.057C122.286 24.9299 122.804 22.2432 123.233 20.618C123.042 19.7762 123.531 17.6514 123.495 16.8088C123.519 15.3105 123.202 14.2196 124.006 12.7175C124.254 12.4354 124.596 12.028 124.845 11.902C125.405 11.6183 126.279 11.4892 126.656 12.0805C126.848 13.0783 126.383 13.7048 126.418 14.5474L126.512 14.5781ZM101.359 15.4179C100.332 16.0159 101.063 18.6966 101.409 19.2255C101.629 19.6614 102.165 20.7201 102.788 20.4049C102.788 20.4049 102.942 20.0921 102.942 19.936C103.001 19.2803 102.675 16.4727 102.517 16.0053C102.296 15.5694 102.012 15.0089 101.359 15.4179Z" fill="#323B62"/>
</svg>
