<svg width="151" height="94" viewBox="0 0 151 94" fill="none" xmlns="http://www.w3.org/2000/svg">
<path d="M1.52372 52.8784H20.2889V55.4929H1.52372V52.8784ZM12.3612 53.9326C12.7828 55.5351 13.3662 57.0321 14.1112 58.4236C14.8562 59.8152 15.7768 61.0311 16.8732 62.0713C17.9837 63.1114 19.2769 63.9337 20.7528 64.5381C20.5419 64.7209 20.317 64.9528 20.0781 65.2339C19.8532 65.5151 19.6283 65.8032 19.4034 66.0984C19.1925 66.4076 19.0168 66.6817 18.8763 66.9207C17.2598 66.1616 15.8682 65.1847 14.7015 63.9899C13.5489 62.7952 12.579 61.4036 11.7919 59.8152C11.0047 58.2128 10.3441 56.4487 9.80993 54.523L12.3612 53.9326ZM9.45149 47.2067H12.2136C12.1995 48.275 12.1644 49.4065 12.1081 50.6013C12.066 51.782 11.9605 52.9838 11.7919 54.2067C11.6232 55.4296 11.3491 56.6455 10.9696 57.8544C10.6041 59.0491 10.084 60.2018 9.40932 61.3122C8.74868 62.4086 7.89124 63.4347 6.83702 64.3905C5.79685 65.3464 4.52475 66.1898 3.02072 66.9207C2.82393 66.5833 2.54983 66.2108 2.19843 65.8032C1.84702 65.3956 1.48858 65.0582 1.12312 64.7912C2.55686 64.1446 3.75868 63.3996 4.72857 62.5562C5.69845 61.6988 6.48561 60.7781 7.09003 59.7941C7.70851 58.7961 8.17939 57.763 8.50269 56.6947C8.82599 55.6124 9.04386 54.523 9.15631 53.4266C9.28282 52.3302 9.36013 51.2549 9.38824 50.2007C9.41635 49.1465 9.43744 48.1485 9.45149 47.2067ZM44.0722 50.1374C44.0722 50.4748 44.1847 50.7629 44.4096 51.0019C44.6485 51.2409 44.9367 51.3603 45.274 51.3603C45.6114 51.3603 45.8996 51.2409 46.1385 51.0019C46.3775 50.7629 46.4969 50.4748 46.4969 50.1374C46.4969 49.8001 46.3775 49.5119 46.1385 49.273C45.8996 49.034 45.6114 48.9145 45.274 48.9145C44.9367 48.9145 44.6485 49.034 44.4096 49.273C44.1847 49.5119 44.0722 49.8001 44.0722 50.1374ZM42.765 50.1374C42.765 49.6736 42.8774 49.2519 43.1023 48.8724C43.3272 48.4928 43.6295 48.1906 44.009 47.9657C44.3885 47.7268 44.8102 47.6073 45.274 47.6073C45.7379 47.6073 46.1596 47.7268 46.5391 47.9657C46.9186 48.1906 47.2208 48.4928 47.4457 48.8724C47.6847 49.2519 47.8042 49.6736 47.8042 50.1374C47.8042 50.6013 47.6847 51.023 47.4457 51.4025C47.2208 51.782 46.9186 52.0913 46.5391 52.3302C46.1596 52.5551 45.7379 52.6676 45.274 52.6676C44.8102 52.6676 44.3885 52.5551 44.009 52.3302C43.6295 52.0913 43.3272 51.782 43.1023 51.4025C42.8774 51.023 42.765 50.6013 42.765 50.1374ZM34.2258 48.9356C34.1695 49.2589 34.1274 49.6314 34.0993 50.0531C34.0712 50.4748 34.0571 50.8332 34.0571 51.1284C34.0571 51.3392 34.0571 51.7117 34.0571 52.2459C34.0571 52.766 34.0571 53.3844 34.0571 54.1013C34.0571 54.8182 34.0571 55.5702 34.0571 56.3574C34.0571 57.1305 34.0571 57.8825 34.0571 58.6134C34.0571 59.3303 34.0571 59.9698 34.0571 60.5321C34.0571 61.0943 34.0571 61.509 34.0571 61.7761C34.0571 62.2259 34.1695 62.5351 34.3944 62.7038C34.6193 62.8725 34.9637 63.006 35.4276 63.1044C35.7509 63.1466 36.1234 63.1817 36.5451 63.2098C36.9668 63.2239 37.4095 63.2309 37.8734 63.2309C38.4216 63.2309 39.026 63.2168 39.6867 63.1887C40.3614 63.1466 41.0361 63.0974 41.7108 63.0411C42.3995 62.9849 43.0461 62.9076 43.6505 62.8092C44.255 62.7108 44.775 62.6054 45.2108 62.4929V65.5713C44.5501 65.6697 43.7841 65.747 42.9126 65.8032C42.0411 65.8735 41.1485 65.9227 40.2349 65.9508C39.3352 65.993 38.4919 66.0141 37.7047 66.0141C37.016 66.0141 36.3623 65.993 35.7439 65.9508C35.1394 65.9086 34.6123 65.8524 34.1625 65.7821C33.2489 65.5994 32.539 65.255 32.033 64.749C31.527 64.2289 31.2739 63.5191 31.2739 62.6195C31.2739 62.2118 31.2739 61.6847 31.2739 61.0381C31.2739 60.3775 31.2739 59.6536 31.2739 58.8664C31.2739 58.0652 31.2739 57.264 31.2739 56.4628C31.2739 55.6475 31.2739 54.8814 31.2739 54.1646C31.2739 53.4336 31.2739 52.8011 31.2739 52.267C31.2739 51.7328 31.2739 51.3533 31.2739 51.1284C31.2739 50.9738 31.2669 50.7629 31.2529 50.4959C31.2388 50.2288 31.2177 49.9547 31.1896 49.6736C31.1755 49.3924 31.1474 49.1465 31.1053 48.9356H34.2258ZM32.8342 55.4086C33.5089 55.268 34.2258 55.0993 34.9848 54.9025C35.7439 54.6917 36.5099 54.4668 37.283 54.2278C38.0561 53.9889 38.7871 53.7499 39.4758 53.511C40.1786 53.2579 40.8041 53.012 41.3523 52.773C41.7319 52.6324 42.1043 52.4708 42.4698 52.288C42.8493 52.1053 43.2429 51.8874 43.6505 51.6344L44.7891 54.3122C44.3815 54.4668 43.9528 54.6425 43.5029 54.8393C43.0672 55.022 42.6736 55.1766 42.3222 55.3031C41.7037 55.5421 40.9939 55.7951 40.1927 56.0622C39.4055 56.3292 38.5832 56.5963 37.7258 56.8634C36.8684 57.1164 36.018 57.3554 35.1746 57.5803C34.3453 57.8052 33.5722 58.0019 32.8553 58.1706L32.8342 55.4086ZM60.244 49.0832C60.6095 49.3362 61.0382 49.6455 61.5302 50.0109C62.0222 50.3764 62.5282 50.777 63.0483 51.2127C63.5824 51.6344 64.0814 52.0491 64.5453 52.4567C65.0091 52.8644 65.3887 53.2298 65.6838 53.5531L63.5332 55.7459C63.2661 55.4507 62.9147 55.0993 62.479 54.6917C62.0432 54.284 61.5724 53.8624 61.0663 53.4266C60.5603 52.9909 60.0613 52.5762 59.5693 52.1826C59.0774 51.789 58.6416 51.4587 58.2621 51.1917L60.244 49.0832ZM57.6085 63.1255C58.7049 62.9709 59.738 62.753 60.7079 62.4719C61.6778 62.1907 62.5774 61.8674 63.4067 61.502C64.236 61.1365 64.9951 60.757 65.6838 60.3634C66.8786 59.6465 67.975 58.8313 68.973 57.9176C69.971 57.0039 70.8425 56.0551 71.5875 55.0712C72.3325 54.0732 72.9228 53.1033 73.3586 52.1615L75.0032 55.1345C74.469 56.0762 73.8084 57.018 73.0212 57.9598C72.2481 58.9016 71.3696 59.8012 70.3857 60.6586C69.4017 61.502 68.3405 62.261 67.2019 62.9357C66.485 63.3715 65.7119 63.7861 64.8826 64.1797C64.0533 64.5592 63.1748 64.8966 62.2471 65.1918C61.3334 65.501 60.3776 65.74 59.3796 65.9086L57.6085 63.1255ZM85.7984 49.9688C86.3326 49.9688 87.0143 49.9688 87.8436 49.9688C88.673 49.9547 89.5444 49.9266 90.4581 49.8844C91.3718 49.8282 92.2152 49.7439 92.9882 49.6314C93.5224 49.5611 94.0425 49.4768 94.5485 49.3784C95.0686 49.28 95.5606 49.1816 96.0244 49.0832C96.5023 48.9708 96.9311 48.8513 97.3106 48.7248C97.7041 48.5983 98.0345 48.4788 98.3015 48.3663L100.03 50.6856C99.665 50.77 99.3487 50.8473 99.0817 50.9176C98.8146 50.9878 98.5897 51.0441 98.407 51.0862C97.9712 51.1987 97.5003 51.3111 96.9943 51.4236C96.4883 51.522 95.9682 51.6133 95.4341 51.6977C94.8999 51.782 94.3587 51.8664 93.8105 51.9507C93.0093 52.0631 92.1589 52.1475 91.2593 52.2037C90.3597 52.2599 89.4882 52.3091 88.6448 52.3513C87.8015 52.3794 87.0705 52.4005 86.4521 52.4146L85.7984 49.9688ZM86.7051 64.496C87.942 63.9337 88.9541 63.252 89.7412 62.4508C90.5424 61.6355 91.1328 60.7008 91.5123 59.6465C91.9059 58.5783 92.1027 57.3835 92.1027 56.0622C92.1027 56.0622 92.1027 55.9076 92.1027 55.5983C92.1027 55.275 92.1027 54.7971 92.1027 54.1646C92.1027 53.518 92.1027 52.7027 92.1027 51.7188L94.8648 51.4025C94.8648 51.768 94.8648 52.1615 94.8648 52.5832C94.8648 52.9909 94.8648 53.3985 94.8648 53.8061C94.8648 54.2138 94.8648 54.5863 94.8648 54.9236C94.8648 55.2469 94.8648 55.514 94.8648 55.7248C94.8648 55.9216 94.8648 56.02 94.8648 56.02C94.8648 57.4256 94.6891 58.761 94.3377 60.0261C94.0003 61.2911 93.431 62.4578 92.6298 63.5261C91.8286 64.5803 90.7463 65.5151 89.3828 66.3303L86.7051 64.496ZM84.2171 55.0079C84.5123 55.0361 84.8286 55.0642 85.1659 55.0923C85.5033 55.1204 85.8336 55.1345 86.1569 55.1345C86.3537 55.1345 86.7262 55.1345 87.2744 55.1345C87.8225 55.1345 88.4832 55.1345 89.2563 55.1345C90.0434 55.1345 90.8868 55.1345 91.7864 55.1345C92.686 55.1345 93.5856 55.1345 94.4852 55.1345C95.3849 55.1345 96.2282 55.1345 97.0154 55.1345C97.8025 55.1345 98.4772 55.1345 99.0395 55.1345C99.6018 55.1345 99.9813 55.1345 100.178 55.1345C100.333 55.1345 100.529 55.1274 100.768 55.1134C101.007 55.0993 101.246 55.0853 101.485 55.0712C101.738 55.0431 101.942 55.022 102.097 55.0079V57.7278C101.816 57.6997 101.506 57.6787 101.169 57.6646C100.846 57.6505 100.536 57.6435 100.241 57.6435C100.045 57.6435 99.665 57.6435 99.1028 57.6435C98.5546 57.6435 97.8799 57.6435 97.0786 57.6435C96.2915 57.6435 95.4411 57.6435 94.5274 57.6435C93.6278 57.6435 92.7212 57.6435 91.8075 57.6435C90.9079 57.6435 90.0645 57.6435 89.2774 57.6435C88.4902 57.6435 87.8225 57.6435 87.2744 57.6435C86.7262 57.6435 86.3677 57.6435 86.199 57.6435C85.8757 57.6435 85.5314 57.6505 85.1659 57.6646C84.8004 57.6787 84.4842 57.6997 84.2171 57.7278V55.0079Z" fill="#00AFA1"/>
<path d="M119.018 22.8768L118.031 38.0576C121.067 37.1467 124.103 36.6913 127.595 36.6913C139.588 36.6913 147.254 42.9155 147.254 54.1493C147.254 65.3831 138.601 72.2145 126.153 72.2145C116.361 72.2145 110.365 67.5084 109.378 59.5385C110.137 57.4891 111.883 56.5023 113.856 56.5023C116.589 56.5023 118.107 58.0204 118.79 62.1951L120.081 68.7229C121.447 69.1783 122.813 69.406 124.635 69.406C132.073 69.406 136.704 64.0168 136.704 54.7565C136.704 45.7998 131.997 40.7901 124.635 40.7901C121.826 40.7901 119.094 41.2456 116.437 42.0805L114.236 41.0179L116.058 14.6791H145.433V22.8768H119.018Z" fill="#00AFA1"/>
<g clip-path="url(#clip0_201_17465)">
<path d="M54.8251 85.9051C55.0205 85.8617 55.2159 85.8183 55.4113 85.7749C55.4113 85.6447 55.4358 85.5362 55.4602 85.406C55.6556 85.3626 55.851 85.3192 56.0464 85.2758C56.4372 84.972 56.0952 84.8418 56.7059 84.5814C56.7791 84.0823 56.828 83.5832 56.9013 83.0842C56.7303 82.9974 56.5349 82.9106 56.3639 82.8455C56.1929 82.6285 56.022 82.4332 55.8754 82.2162C55.1671 81.8256 50.9172 81.0444 49.354 81.1746C49.354 81.2397 49.354 81.3048 49.3295 81.3699C48.6701 81.3048 47.9862 81.2397 47.3267 81.1746C47.3267 81.2397 47.3267 81.3048 47.3023 81.3699C46.7161 81.3699 46.1543 81.3699 45.5681 81.3699V81.5652C45.3483 81.5652 45.1529 81.5218 44.9819 81.5001C44.9819 81.5652 44.9819 81.6303 44.9819 81.6954C44.6888 81.6737 44.4201 81.6303 44.127 81.6086C44.127 81.6737 44.127 81.7388 44.127 81.8039C43.3698 81.8039 42.5882 81.7822 41.8066 81.7605V81.9558C41.5868 81.9558 41.3914 81.9124 41.2204 81.8907C41.2204 81.9558 41.2204 82.0209 41.196 82.086C40.9029 82.0643 40.6342 82.0209 40.3411 81.9992C40.3411 82.0643 40.3411 82.1294 40.3167 82.1945L39.1443 82.2596V82.4549C38.8268 82.4332 38.5581 82.3898 38.265 82.3681C38.265 82.4332 38.265 82.4983 38.2406 82.5634C37.8498 82.5851 37.459 82.6068 37.0682 82.6285C37.0682 82.6936 37.0682 82.7587 37.0682 82.8238C36.0912 82.9106 35.1142 82.9974 34.1372 83.0842L33.7953 83.4313C33.5999 83.4313 33.4045 83.388 33.2335 83.3663C33.2335 83.4313 33.2335 83.4964 33.2091 83.5615C32.8183 83.5832 32.4275 83.6049 32.0367 83.6266V83.8219C31.426 83.8219 30.8643 83.8219 30.2781 83.8219C30.2781 83.887 30.2781 83.9521 30.2781 84.0172C30.0827 84.0172 29.8873 83.9738 29.7163 83.9521C29.5942 84.0606 29.4965 84.1691 29.3743 84.2993C28.7881 84.3644 28.2019 84.4295 27.6157 84.4946C27.4936 84.6031 27.3959 84.7333 27.2738 84.8418C26.7853 84.8418 26.2968 84.8635 25.8327 84.8852C25.8327 84.9503 25.8327 85.0154 25.8083 85.0805C25.6129 85.0805 25.4175 85.0371 25.2465 85.0154C25.1488 85.1239 25.0267 85.2541 24.9046 85.3626L23.7322 85.4277C23.61 85.5362 23.5123 85.6664 23.3902 85.7749C23.1948 85.7749 22.9994 85.7315 22.8284 85.7098L22.2178 86.0353C22.0224 86.0353 21.827 85.9919 21.656 85.9702C21.656 86.0353 21.656 86.1004 21.6316 86.1655C21.4362 86.1655 21.2408 86.1221 21.0699 86.1004C20.9477 86.2089 20.85 86.3391 20.7279 86.4476C20.4348 86.491 20.1417 86.5127 19.8486 86.556V86.7513C19.238 86.8164 18.6518 86.8815 18.0656 86.9466C18.0656 87.0117 18.0656 87.0768 18.0412 87.1419C17.7481 87.1853 17.455 87.207 17.1619 87.2504L16.8199 87.5976C16.6245 87.5976 16.4291 87.5542 16.2581 87.5325C15.9406 87.7495 15.6231 87.9665 15.3056 88.1835C14.8171 88.1835 14.3286 88.2052 13.8645 88.2269C13.547 88.4439 13.2294 88.6609 12.9119 88.8779C12.7165 88.8779 12.5211 88.8345 12.3501 88.8128C12.228 88.9213 12.1303 89.0515 12.0082 89.16C11.7151 89.2034 11.422 89.2251 11.1289 89.2685C11.1289 89.3336 11.1289 89.3987 11.1045 89.4638C10.9091 89.4638 10.7137 89.4204 10.5427 89.3987C10.3229 89.5723 10.103 89.7241 9.90764 89.8977C9.71224 89.8977 9.51684 89.8543 9.34587 89.8326C9.12604 90.0062 8.93064 90.1581 8.71082 90.3317C8.51542 90.3317 8.32002 90.2883 8.14905 90.2666C8.02692 90.3751 7.92922 90.5053 7.8071 90.6138C7.6117 90.6138 7.4163 90.5704 7.24532 90.5487C6.31717 91.0912 5.3646 91.612 4.43645 92.1545C4.33875 93.0007 4.4853 93.196 4.82725 93.6951C5.29132 93.7385 5.77982 93.7819 6.2439 93.847C6.75682 93.5215 7.29417 93.196 7.8071 92.8705C8.32002 92.6753 8.83294 92.48 9.32144 92.263C9.44357 92.1545 9.54127 92.0243 9.66339 91.9158C9.85879 91.9158 10.0542 91.9592 10.2252 91.9809C10.5427 91.7639 10.8602 91.5469 11.1777 91.3299C11.3731 91.3299 11.5685 91.3733 11.7395 91.395C12.057 91.178 12.3746 90.961 12.6921 90.744C12.8875 90.744 13.0829 90.7874 13.2539 90.8091C13.376 90.7006 13.4737 90.5704 13.5958 90.4619C13.7912 90.4619 13.9866 90.5053 14.1576 90.527C14.3774 90.3534 14.5972 90.2015 14.7926 90.0279C15.0857 89.9845 15.3788 89.9628 15.6719 89.9194C15.7941 89.8109 15.8918 89.6807 16.0139 89.5723C16.6001 89.5072 17.1863 89.4421 17.7725 89.377C17.8702 89.2685 17.9923 89.1383 18.1144 89.0298C18.3098 89.0298 18.5052 89.0732 18.6762 89.0949C18.896 88.9213 19.0914 88.7694 19.3113 88.5958C19.5067 88.5958 19.7021 88.6392 19.873 88.6609C19.9952 88.5524 20.0929 88.4222 20.215 88.3137C20.6058 88.292 20.9966 88.2703 21.3874 88.2486C21.5095 88.1401 21.6072 88.0099 21.7293 87.9014C21.9247 87.9014 22.1201 87.9448 22.2911 87.9665L22.633 87.6193C22.8284 87.6193 23.0238 87.6627 23.1948 87.6844C23.3169 87.5759 23.4146 87.4457 23.5368 87.3372C23.8299 87.3589 24.0985 87.4023 24.3916 87.424C24.3916 87.3589 24.3916 87.2938 24.4161 87.2287C24.6115 87.2287 24.8069 87.2721 24.9778 87.2938C25.1 87.1853 25.1977 87.0551 25.3198 86.9466C25.7106 86.9249 26.1014 86.9032 26.4922 86.8815C26.5899 86.773 26.712 86.6428 26.8341 86.5343C27.0295 86.5343 27.2249 86.5777 27.3959 86.5994C27.3959 86.5343 27.3959 86.4693 27.4203 86.4042C27.6157 86.4042 27.8111 86.4476 27.9821 86.4693C27.9821 86.4042 27.9821 86.3391 28.0065 86.274C28.2996 86.2957 28.5683 86.3391 28.8614 86.3608V86.1655C29.472 86.1004 30.0582 86.0353 30.6444 85.9702C30.6444 85.9051 30.6444 85.84 30.6444 85.7749C30.8398 85.7749 31.0352 85.8183 31.2062 85.84C31.3283 85.7315 31.426 85.6013 31.5482 85.4928C31.7436 85.4928 31.939 85.5362 32.1099 85.5579L32.7206 85.2324C33.7953 85.0805 34.87 84.9503 35.9691 84.7984C36.0912 84.6899 36.1889 84.5597 36.311 84.4512C36.8972 84.4512 37.459 84.4512 38.0452 84.4512C38.0452 84.3861 38.0452 84.321 38.0696 84.2559C38.4604 84.2342 38.8512 84.2125 39.242 84.1908V83.9955C39.5595 84.0172 39.8282 84.0606 40.1213 84.0823C40.1213 84.0172 40.1213 83.9521 40.1457 83.887C40.3411 83.887 40.5365 83.9304 40.7075 83.9521C40.7075 83.887 40.7075 83.8219 40.7319 83.7568C41.025 83.7785 41.2937 83.8219 41.5868 83.8436C41.5868 83.7785 41.5868 83.7134 41.6112 83.6483C41.8066 83.6483 42.002 83.6917 42.173 83.7134C42.173 83.6483 42.173 83.5832 42.1974 83.5181C42.4905 83.5398 42.7592 83.5832 43.0523 83.6049C43.0523 83.5398 43.0523 83.4747 43.0767 83.4096C43.2721 83.4096 43.4675 83.453 43.6385 83.4747V83.2795C44.0537 83.3229 44.4201 83.3663 44.8109 83.388C44.8109 83.3229 44.8109 83.2578 44.8353 83.1927C45.1284 83.2144 45.3971 83.2578 45.6902 83.2795V83.0842C46.1054 83.1276 46.4718 83.1493 46.8626 83.1927C46.8626 83.1276 46.8626 83.0625 46.8626 82.9974C47.1557 83.0191 47.4244 83.0625 47.7175 83.0842C47.7175 83.0191 47.7175 82.954 47.7419 82.8889C48.9876 82.737 49.1586 83.2361 50.0623 82.737C51.308 82.8672 52.5292 82.9974 53.7749 83.1059C53.7749 83.1059 54.1168 83.453 54.2878 83.5398C54.068 83.7568 53.7993 83.7568 53.6772 83.8653C53.6772 83.9955 53.6528 84.104 53.6283 84.2342C53.4329 84.2776 53.2375 84.321 53.0421 84.3644C53.0421 84.4946 53.0177 84.6031 52.9933 84.7333L52.3827 85.0588C52.3827 85.189 52.3582 85.2975 52.3338 85.4277C52.1384 85.4711 51.943 85.5145 51.7476 85.5579C51.7476 85.6881 51.7232 85.7966 51.6988 85.9268C51.5034 85.9702 51.308 86.0136 51.1126 86.057C50.7462 86.3608 51.0637 86.4693 50.4531 86.7513C50.2821 88.2052 49.9402 89.3336 51.5034 89.876C52.6025 90.2666 56.0708 89.6374 56.7547 89.4638C56.7547 89.3987 56.7547 89.3336 56.7791 89.2685C56.9745 89.2685 57.1699 89.3119 57.3409 89.3336C57.3409 89.2685 57.3409 89.2034 57.3409 89.1383C57.5363 89.1383 57.7317 89.1817 57.9027 89.2034C57.9027 89.1383 57.9027 89.0732 57.9027 89.0081C58.1958 89.0298 58.4645 89.0732 58.7576 89.0949C58.7576 89.0298 58.7576 88.9647 58.7576 88.8996C58.953 88.8996 59.1484 88.943 59.3193 88.9647V88.7694C59.93 88.7043 60.5162 88.6392 61.1024 88.5741C61.1024 88.509 61.1024 88.4439 61.1268 88.3788C61.3222 88.3788 61.5176 88.4222 61.6886 88.4439C61.6886 88.3788 61.6886 88.3137 61.6886 88.2486C61.9817 88.2703 62.2503 88.3137 62.5434 88.3354C62.5434 88.2703 62.5434 88.2052 62.5679 88.1401C62.7633 88.1401 62.9587 88.1835 63.1296 88.2052C63.1296 88.1401 63.1296 88.075 63.1296 88.0099C63.5204 87.9882 63.9112 87.9665 64.302 87.9448C64.302 87.8797 64.302 87.8146 64.3265 87.7495C64.9127 87.7495 65.4744 87.7495 66.0606 87.7495C66.1583 87.641 66.2805 87.5108 66.4026 87.4023C66.598 87.4023 66.7934 87.4457 66.9644 87.4674C66.9644 87.4023 66.9644 87.3372 66.9888 87.2721C67.3796 87.2504 67.7704 87.2287 68.1612 87.207C68.1612 87.1419 68.1612 87.0768 68.1856 87.0117C68.8695 87.0117 69.529 87.0117 70.2129 87.0117V86.8164C70.4327 86.8164 70.6281 86.8598 70.7991 86.8815C70.7991 86.8164 70.7991 86.7513 70.8235 86.6862C71.312 86.6862 71.8005 86.6645 72.2646 86.6428C72.3867 86.5343 72.4844 86.4042 72.6065 86.2957C72.9973 86.3391 73.3637 86.3608 73.7545 86.4042C73.7545 86.3391 73.7545 86.274 73.7789 86.2089C74.4628 86.2089 75.1223 86.2089 75.8062 86.2089V86.0136C76.2214 86.057 76.5878 86.1004 76.9786 86.1221C76.9786 86.1872 76.9786 86.2523 76.9786 86.3174C77.6136 86.9032 76.6611 87.9665 76.9542 88.7694C77.0519 88.7694 77.1496 88.7694 77.2473 88.7911C77.2228 88.9864 77.1984 89.16 77.174 89.3553C77.2717 89.3553 77.3694 89.3553 77.4671 89.377C77.4671 89.5072 77.4427 89.6157 77.4182 89.7458C77.5159 89.7458 77.6136 89.7458 77.7113 89.7675C77.8823 89.9628 78.0533 90.1798 78.1998 90.3751C79.1524 90.5921 80.1294 91.2214 81.5705 91.0912V90.8959C82.3521 90.8959 83.1337 90.9176 83.8909 90.9393C84.013 90.8308 84.1107 90.7006 84.2328 90.5921C84.4282 90.5921 84.6236 90.6355 84.7946 90.6572C84.7946 90.5921 84.7946 90.527 84.819 90.4619C85.6983 90.4185 86.5532 90.3751 87.4325 90.3534C87.5546 90.2449 87.6523 90.1147 87.7744 90.0062C88.1652 89.9845 88.556 89.9628 88.9468 89.9411C88.9468 89.876 88.9468 89.8109 88.9713 89.7458C89.3621 89.7241 89.7528 89.7024 90.1436 89.6807C90.1436 89.6157 90.1436 89.5506 90.1436 89.4855L90.9985 89.5723C90.9985 89.5723 90.9985 89.4421 91.0229 89.377C91.6091 89.3119 92.1953 89.2468 92.7815 89.1817C92.7815 89.1166 92.7815 89.0515 92.806 88.9864C93.3922 88.9213 93.9784 88.8562 94.5646 88.7911C94.6867 88.6826 94.7844 88.5524 94.9065 88.4439C95.1996 88.4656 95.4683 88.509 95.7614 88.5307C95.7614 88.4656 95.7614 88.4005 95.7614 88.3354C95.9568 88.3354 96.1522 88.3788 96.3232 88.4005C96.3232 88.3354 96.3232 88.2703 96.3476 88.2052C96.9338 88.1401 97.52 88.075 98.1062 88.0099C98.1062 87.9448 98.1062 87.8797 98.1306 87.8146C98.4237 87.8363 98.6924 87.8797 98.9855 87.9014C98.9855 87.8363 98.9855 87.7712 98.9855 87.7061C99.1809 87.7061 99.3763 87.7495 99.5473 87.7712C99.5473 87.7061 99.5473 87.641 99.5717 87.5759C99.7671 87.5759 99.9625 87.6193 100.133 87.641C100.133 87.5759 100.133 87.5108 100.133 87.4457C100.964 87.2938 100.964 87.5759 101.599 87.207C101.99 87.2504 102.356 87.2938 102.747 87.3155V87.5108C102.747 87.5108 102.918 87.5108 103.016 87.5325C103.358 88.0099 102.6 88.7911 102.527 88.9864C102.625 88.9864 102.722 88.9864 102.82 89.0081C102.771 89.3119 102.747 89.6374 102.698 89.9411C102.771 90.0713 103.089 89.9845 103.187 90.5704C103.455 90.6572 103.748 90.744 104.017 90.8525C104.017 90.9176 104.017 90.9827 103.993 91.0478L104.847 91.1346C104.847 91.1346 104.847 91.2648 104.823 91.3299C106.679 91.9375 108.707 91.395 109.757 91.2648C110.148 91.3082 110.514 91.3299 110.905 91.3733C110.905 91.3082 110.905 91.2431 110.929 91.178C111.222 91.1997 111.491 91.2431 111.784 91.2648C111.784 91.1997 111.784 91.1346 111.809 91.0695C112.102 91.0912 112.37 91.1346 112.663 91.1563V90.961C112.981 90.9827 113.25 91.0261 113.543 91.0478C113.543 90.9827 113.543 90.9176 113.567 90.8525C113.86 90.8742 114.129 90.9176 114.422 90.9393C114.422 90.8742 114.422 90.8091 114.422 90.744L115.594 90.6789C115.594 90.6789 115.594 90.5487 115.619 90.4836C115.814 90.4836 116.01 90.527 116.181 90.5487C116.181 90.4836 116.181 90.4185 116.205 90.3534C116.498 90.3751 116.767 90.4185 117.06 90.4402C117.06 90.3751 117.06 90.31 117.084 90.2449C117.28 90.2449 117.475 90.2883 117.646 90.31C117.646 90.2449 117.646 90.1798 117.646 90.1147C118.037 90.1581 118.403 90.2015 118.794 90.2232C118.794 90.1581 118.794 90.093 118.819 90.0279C119.014 90.0279 119.209 90.0713 119.38 90.093V89.8977C119.6 89.8977 119.796 89.9411 119.967 89.9628C120.089 89.8543 120.186 89.7458 120.308 89.6157C120.992 89.6157 121.652 89.6157 122.336 89.6157C122.336 89.5506 122.336 89.4855 122.336 89.4204C122.531 89.4204 122.727 89.4638 122.898 89.4855C122.898 89.4204 122.898 89.3553 122.922 89.2902C123.508 89.2902 124.07 89.2902 124.656 89.2902V89.0949C125.071 89.1383 125.438 89.1817 125.829 89.2034C125.951 89.0949 126.048 88.9647 126.17 88.8562C126.366 88.8562 126.561 88.8996 126.732 88.9213C126.732 88.8562 126.732 88.7911 126.757 88.726C127.734 88.7043 128.686 88.6609 129.663 88.6392C129.663 88.5741 129.663 88.509 129.688 88.4439C129.981 88.4656 130.249 88.509 130.543 88.5307C130.543 88.4656 130.543 88.4005 130.567 88.3354C130.86 88.3571 131.129 88.4005 131.422 88.4222C131.422 88.3571 131.422 88.292 131.446 88.2269C131.739 88.2486 132.008 88.292 132.301 88.3137V88.1184C132.619 88.1401 132.887 88.1835 133.18 88.2052C133.18 88.1401 133.18 88.075 133.205 88.0099C133.4 88.0099 133.596 88.0533 133.767 88.075C133.767 88.0099 133.767 87.9448 133.791 87.8797C134.084 87.9014 134.353 87.9448 134.646 87.9665C134.646 87.9014 134.646 87.8363 134.646 87.7712C135.037 87.8146 135.403 87.858 135.794 87.8797V87.6844C136.111 87.7061 136.38 87.7495 136.673 87.7712C136.673 87.7061 136.673 87.641 136.698 87.5759C136.991 87.5976 137.259 87.641 137.553 87.6627C137.553 87.5976 137.553 87.5325 137.553 87.4674C137.943 87.5108 138.31 87.5542 138.7 87.5759C138.7 87.5108 138.7 87.4457 138.725 87.3806L140.142 87.5325C140.142 87.5325 140.142 87.4023 140.166 87.3372C140.557 87.3155 140.948 87.2938 141.338 87.2721C141.338 87.207 141.338 87.1419 141.363 87.0768C141.851 87.1202 142.315 87.1636 142.804 87.2287V87.0334C143.121 87.0551 143.39 87.0985 143.683 87.1202C143.683 87.0551 143.683 86.99 143.683 86.9249C145.271 86.6862 145.955 87.1202 146.956 86.3174C147.054 86.3174 147.152 86.3174 147.249 86.3391L147.054 85.5579C143.927 85.2758 141.876 85.4711 139.507 85.7315C138.749 85.7315 137.968 85.7098 137.211 85.6881C137.211 85.7532 137.211 85.8183 137.186 85.8834C136.991 85.8834 136.795 85.84 136.624 85.8183C136.624 85.8834 136.624 85.9485 136.6 86.0136C136.014 86.0136 135.452 86.0136 134.866 86.0136C134.866 86.0787 134.866 86.1438 134.841 86.2089C134.06 86.2089 133.303 86.1872 132.521 86.1655C132.521 86.2306 132.521 86.2957 132.521 86.3608L131.666 86.274C131.666 86.274 131.666 86.4042 131.642 86.4693C131.349 86.4476 131.08 86.4042 130.787 86.3825C130.787 86.4476 130.787 86.5127 130.762 86.5777C130.469 86.556 130.201 86.5127 129.907 86.491C129.907 86.556 129.907 86.6211 129.883 86.6862C129.688 86.6862 129.492 86.6428 129.321 86.6211C129.321 86.6862 129.321 86.7513 129.297 86.8164C128.906 86.773 128.54 86.7296 128.149 86.7079V86.9032C127.831 86.8815 127.563 86.8381 127.27 86.8164V87.0117C126.952 86.99 126.683 86.9466 126.39 86.9249V87.1202C126.073 87.0985 125.804 87.0551 125.511 87.0334C125.511 87.0985 125.511 87.1636 125.487 87.2287C125.193 87.207 124.925 87.1636 124.632 87.1419V87.3372C124.412 87.3372 124.216 87.2938 124.046 87.2721C124.046 87.3372 124.045 87.4023 124.021 87.4674C123.533 87.4674 123.044 87.4891 122.58 87.5108C122.58 87.5759 122.58 87.641 122.58 87.7061C122.189 87.6627 121.823 87.641 121.432 87.5976C121.432 87.6627 121.432 87.7278 121.408 87.7929C121.212 87.7929 121.017 87.7495 120.846 87.7278V87.9231C120.235 87.9231 119.673 87.9231 119.087 87.9231C119.087 87.9882 119.087 88.0533 119.063 88.1184C118.672 88.1401 118.281 88.1618 117.89 88.1835C117.89 88.2486 117.89 88.3137 117.89 88.3788C117.695 88.3788 117.5 88.3354 117.329 88.3137C117.329 88.3788 117.329 88.4439 117.304 88.509C116.425 88.5524 115.57 88.5741 114.691 88.6175V88.8128C114.471 88.8128 114.276 88.7694 114.105 88.7477C114.105 88.8128 114.105 88.8779 114.08 88.943C113.494 88.943 112.932 88.943 112.346 88.943C112.346 89.0081 112.346 89.0732 112.322 89.1383C111.931 89.16 111.54 89.1817 111.149 89.2034C111.149 89.2685 111.149 89.3336 111.125 89.3987C110.832 89.377 110.563 89.3336 110.27 89.3119V89.5072C109.561 89.5072 108.902 89.5072 108.218 89.5072V89.7024C107.266 89.6374 105.824 89.5723 105.36 89.2251C105.263 89.2251 105.165 89.2251 105.067 89.2034C104.921 88.8345 105.263 88.9647 105.409 88.8562C105.507 88.1618 105.58 87.4891 105.678 86.7947C105.043 86.4259 104.432 86.0353 103.797 85.6664C101.648 85.4928 99.6694 85.5579 97.9841 85.84C97.9841 85.9051 97.9841 85.9702 97.9841 86.0353C97.4956 86.0353 97.0071 86.057 96.543 86.0787C96.4209 86.1872 96.3232 86.3174 96.201 86.4259C96.0056 86.4259 95.8347 86.3825 95.6393 86.3608L95.0286 86.6862C93.9539 86.8381 92.8792 86.9683 91.7801 87.1202C91.6824 87.2287 91.5603 87.3589 91.4382 87.4674C91.0474 87.4891 90.6566 87.5108 90.2658 87.5325C90.2658 87.5976 90.2658 87.6627 90.2413 87.7278C89.8505 87.7495 89.4598 87.7712 89.069 87.7929C89.069 87.858 89.0689 87.9231 89.0445 87.9882C88.4583 87.9882 87.8966 87.9882 87.3103 87.9882C87.3103 88.0533 87.3103 88.1184 87.3103 88.1835C87.115 88.1835 86.9196 88.1401 86.7486 88.1184C86.6265 88.2269 86.5288 88.3571 86.4066 88.4656C86.0158 88.4873 85.625 88.509 85.2342 88.5307C85.2342 88.5958 85.2342 88.6609 85.2098 88.726L84.0618 88.6175C84.0618 88.6175 84.0618 88.7477 84.0374 88.8128C83.842 88.8128 83.6466 88.7694 83.4756 88.7477C83.4756 88.8128 83.4756 88.8779 83.4512 88.943H81.717L81.6926 89.1383C80.0806 88.9647 80.0317 88.7477 79.2013 88.3137C79.2501 87.8797 79.3234 87.4457 79.3722 87.0117C79.4699 87.0117 79.5676 87.0117 79.6653 87.0334C79.9829 86.6428 80.3248 85.9702 79.8607 85.5362C79.6653 84.8201 79.0303 84.8201 78.5662 84.2776C77.5159 84.2342 76.4657 84.1908 75.391 84.1474C75.391 84.2125 75.391 84.2776 75.3665 84.3427C75.1711 84.3427 74.9757 84.2993 74.8048 84.2776C74.8048 84.3427 74.8048 84.4078 74.7803 84.4729C74.3895 84.4295 74.0232 84.4078 73.6324 84.3644C73.6324 84.4295 73.6324 84.4946 73.6324 84.5597C73.3393 84.538 73.0706 84.4946 72.7775 84.4729C72.7775 84.538 72.7775 84.6031 72.7531 84.6682C72.46 84.6465 72.1913 84.6031 71.8982 84.5814C71.8982 84.6465 71.8982 84.7116 71.8738 84.7767C71.5807 84.755 71.312 84.7116 71.0189 84.6899C71.0189 84.755 71.0189 84.8201 70.9945 84.8852C70.7014 84.8635 70.4327 84.8201 70.1396 84.7984C70.1396 84.8635 70.1396 84.9286 70.1152 84.9937C69.7244 85.0154 69.3336 85.0371 68.9428 85.0588V85.2541C68.4299 85.2541 67.9414 85.2758 67.4773 85.2975C67.4773 85.3626 67.4773 85.4277 67.4529 85.4928C67.0621 85.4494 66.6957 85.406 66.3049 85.3843C66.3049 85.4494 66.3049 85.5145 66.2805 85.5796C65.6943 85.6447 65.1081 85.7098 64.5219 85.7749C64.5219 85.84 64.5219 85.9051 64.5219 85.9702C64.2288 85.9485 63.9601 85.9051 63.667 85.8834C63.667 85.9485 63.667 86.0136 63.6426 86.0787C63.4472 86.0787 63.2518 86.0353 63.0808 86.0136C63.0808 86.0787 63.0808 86.1438 63.0564 86.2089C62.4702 86.274 61.884 86.3391 61.2978 86.4042C61.2978 86.4693 61.2978 86.5343 61.2978 86.5994C61.0047 86.5777 60.736 86.5343 60.4429 86.5127C60.4429 86.5777 60.4429 86.6428 60.4185 86.7079C59.93 86.7079 59.4415 86.7296 58.9774 86.7513C58.8553 86.8598 58.7576 86.99 58.6354 87.0985C58.44 87.0985 58.2446 87.0551 58.0737 87.0334C58.0737 87.0985 58.0737 87.1636 58.0737 87.2287C57.8783 87.2287 57.6829 87.1853 57.5119 87.1636C57.5119 87.2287 57.5119 87.2938 57.4875 87.3589C57.1944 87.3372 56.9257 87.2938 56.6326 87.2721V87.4674C56.2174 87.4891 55.8266 87.5108 55.4358 87.5325C55.4358 87.5976 55.4358 87.6627 55.4358 87.7278C55.1427 87.7061 54.874 87.6627 54.5809 87.641C54.5809 87.7061 54.5809 87.7712 54.5565 87.8363C53.897 87.7278 53.8726 87.6844 53.4329 87.5325C53.7016 86.7513 54.239 86.6428 54.7763 86.1438C54.7763 86.0136 54.8007 85.9051 54.8251 85.7749" fill="#00AFA1"/>
</g>
<defs>
<clipPath id="clip0_201_17465">
<rect width="143.375" height="12.6507" fill="white" transform="translate(4.2168 81.1758)"/>
</clipPath>
</defs>
</svg>
