<svg width="169" height="112" viewBox="0 0 169 112" fill="none" xmlns="http://www.w3.org/2000/svg">
<path d="M22.2151 88.0481C23.3344 88.8108 24.3073 89.5559 25.2995 90.5204C25.5017 90.7389 25.6679 91.0672 25.8337 91.3042C27.7821 93.3431 29.379 98.3098 28.7307 100.38C28.9166 101.019 28.8639 101.458 28.8116 101.989C28.5831 103.892 28.8996 105.061 27.5549 106.841C26.8463 107.796 25.239 108.242 24.2882 108.265C22.2773 108.458 20.136 108.121 18.5032 107.068C17.8244 106.632 17.0911 106.27 16.5213 105.688C13.1586 102.394 11.2971 99.4398 10.4304 94.1952C10.1864 92.8979 9.77841 91.7294 10.4479 90.2448C10.5384 90.0615 10.5556 89.8237 10.6461 89.6403C11.0246 88.4863 11.5868 87.5143 12.259 86.5783C12.6041 86.0829 13.0784 85.8428 13.4609 85.5118C13.9343 85.0889 14.5555 84.9578 15.0307 84.9007C16.7122 84.6913 17.6662 85.3085 18.9864 86.0154C19.5733 86.36 20.2139 86.4484 20.7827 86.848C21.3332 87.2111 21.7196 87.703 22.1966 88.0116L22.2151 88.0481ZM18.0413 87.227C16.8156 87.1598 15.5847 85.9953 14.1265 87.0082C13.8896 87.174 13.3981 87.6519 13.271 87.8536C12.8895 88.3676 12.5642 89.1738 13.0785 89.6469C13.2438 89.7924 13.4641 89.9559 13.6659 90.0829C13.7947 90.2469 13.9974 90.5568 13.7609 90.814C13.5973 91.0343 13.232 91.1275 13.087 91.3842C13.0324 91.4576 12.8874 91.7144 12.8878 91.8058C12.9076 92.1166 13.7363 93.3014 13.9021 93.5383C14.766 94.4303 15.9758 95.0096 17.2182 94.7476C17.5105 94.6913 17.8547 94.013 18.1092 93.7008C18.4908 93.1869 19.1471 92.7631 19.5336 93.255C20.048 93.728 19.7438 95.1194 19.1982 95.7622C19.0892 95.909 18.9437 96.0743 18.8162 96.1846C16.7553 97.3651 15.7451 96.4556 13.8064 96.4284C13.66 96.4108 13.532 96.4297 13.441 96.5216C13.241 96.7603 13.3901 97.3265 13.4094 97.5459C13.6504 98.2031 14.0188 98.75 14.4057 99.3333C14.7196 99.9536 14.979 100.647 15.3659 101.231C15.8077 101.832 16.9099 102.833 17.4242 103.306C17.6265 103.524 17.7377 103.834 17.9949 104.071C18.3795 104.197 19.0966 104.98 19.2997 105.381C19.5925 105.417 20.0137 105.524 20.142 105.597C20.6555 105.887 21.0226 106.159 21.5537 106.303C22.5068 106.738 24.5721 106.471 25.668 106.192C25.9973 106.209 26.2883 105.878 26.5429 105.566C27.288 104.593 27.1341 103.021 27.2202 101.923C27.4096 99.4898 26.9373 96.3831 25.9222 94.4677C25.7375 94.1028 25.4069 93.8118 25.2223 93.4469C25.0565 93.21 24.8908 92.973 24.7791 92.5712C24.4678 92.4996 23.9539 92.118 23.7512 91.8081C23.5855 91.5711 23.3828 91.2612 23.2536 91.0058C22.5194 90.4607 18.5746 87.828 18.0413 87.227Z" fill="#212844"/>
<path d="M38.4274 78.6955C38.4652 78.9514 38.5395 79.1888 38.5953 79.3897C38.8759 80.6685 38.7295 80.6509 38.6091 82.2243C38.559 83.2122 38.3454 84.4202 38.1115 85.2261C38.3718 86.1026 38.3613 87.7121 38.1297 88.9751C38.131 89.2494 37.8945 89.5066 37.676 89.7089C37.13 90.2602 36.0701 90.4299 35.5012 90.0303C35.0242 89.7217 31.585 85.7332 31.2346 85.1314C31.0882 85.1138 30.8499 85.0052 30.6859 85.134C30.6859 85.134 30.7268 86.0299 30.7291 86.4872C30.657 86.707 30.6029 86.8718 30.4574 87.0371C30.1479 87.3312 29.7826 87.4245 29.5804 87.206C29.4696 86.987 29.2475 86.4578 29.2097 86.2019C28.7775 83.8082 28.1479 82.2018 27.6516 81.6739C27.4493 81.4554 27.1741 81.2738 26.8457 81.44C26.5349 81.4598 26.4444 81.6432 26.2259 81.8454C25.7344 82.3233 25.6276 82.9273 25.2816 83.2399C25.0632 83.4421 24.5875 83.4078 24.4037 83.2259C23.4664 82.2794 25.4701 80.6237 25.6688 80.1107C25.9031 79.3963 24.9482 78.5962 24.9992 77.7913C24.3547 76.88 23.4851 74.7993 24.7045 73.5863C25.123 73.1454 25.9816 72.9401 26.2577 73.3045C26.6815 73.9608 27.4179 74.9631 27.6958 75.6933C28.0259 75.8929 28.3939 76.3483 28.6497 76.3105C29.0516 76.1988 29.6696 75.4277 29.9606 75.0971C30.3246 74.7296 30.7625 74.508 31.0575 75.0004C31.6281 75.7657 30.0465 77.712 29.6842 78.4453C29.4851 78.8669 30.3741 81.1669 30.6502 81.5313C30.761 81.7503 30.9808 81.8224 31.183 82.0408C31.8091 82.9157 32.5077 83.6621 33.1517 84.482C33.7219 85.1559 34.5476 85.7005 34.6795 86.5046C35.0461 86.6857 35.9465 87.5592 36.274 87.2101C36.5105 86.9529 36.907 85.744 36.8868 85.3417C36.9364 84.2625 36.7311 83.4039 36.9469 82.653C36.7231 81.758 36.9763 81.1715 36.9178 80.422C36.8008 78.9229 36.9494 79.3976 36.4856 78.0283C36.3563 77.7728 36.7383 77.3504 36.9203 77.1666C37.3388 76.7256 37.778 76.7784 38.1825 77.2153C38.404 77.6532 38.2972 78.2572 38.3909 78.714L38.4274 78.6955Z" fill="#212844"/>
<path d="M52.7004 68.772C52.8881 69.7769 52.8587 71.2585 52.8983 71.8801C53.3784 72.8288 53.3288 73.908 53.4431 74.8585C53.6876 76.2472 54.191 78.2382 52.6427 79.5259C52.2603 79.857 51.9495 79.8768 51.6562 79.7502C50.9054 79.5343 48.483 77.827 48.0223 77.0976C47.6169 76.4778 47.3936 75.6742 46.8959 74.8719C46.2136 73.7047 45.4438 73.361 44.8164 72.2118C44.5579 71.701 44.4827 71.2807 44.1701 70.9348C44.0409 70.6794 43.7652 70.4064 43.3463 70.7559C42.8728 71.1788 42.752 72.6608 42.7731 73.2459C42.8149 74.3247 42.6382 75.6058 42.7715 76.6842C42.7732 77.0499 43.0119 77.2499 43.0313 77.4693C43.1641 78.4562 43.2428 79.608 43.2833 80.4125C43.6166 81.2522 44.4268 82.4004 43.4434 83.2648C43.0065 83.6692 42.4763 83.7084 42.1997 83.2525C41.6471 82.4322 41.4215 81.1714 40.7753 79.8943C40.3321 79.0186 39.7781 77.924 39.1904 77.3965C39.1183 77.6163 39.5069 78.5654 39.088 78.9149C38.833 79.1356 38.3758 79.1378 38.0078 78.6824C37.7871 78.4274 37.5291 78.008 37.3615 77.4053C37.5967 76.8738 36.8779 75.7251 36.8581 75.4143C36.8194 74.9756 36.3965 74.5021 36.4488 73.9715C35.7664 72.8043 34.2487 69.0808 34.1678 67.4718C33.6341 66.7794 33.2023 64.4772 33.3812 63.6533C33.4353 63.4885 33.7267 63.2493 33.8542 63.139C34.9471 62.2192 36.5816 63.6378 36.9878 64.4406C37.2459 64.8599 38.7505 69.6443 38.8815 70.2654C38.9558 70.5028 38.9945 70.9416 38.7949 71.2717C38.9994 71.9474 38.7326 73.5032 39.1005 73.9587C39.2852 74.3235 40.2247 75.7272 40.6072 75.3961C41.1171 74.9548 40.6571 70.6043 42.7334 68.8203C43.6622 68.0294 45.0334 67.9313 45.5865 68.843C45.5865 68.843 46.0103 69.4994 46.176 69.7363C46.821 70.739 47.3556 71.6143 47.7438 72.472C48.2208 72.7806 48.7928 73.8203 48.9414 74.295C49.4188 74.6951 49.8994 75.7352 50.121 76.1731C50.5065 76.4821 51.1119 76.8632 51.4034 76.6241C51.7858 76.293 51.449 74.7218 51.7198 73.989C51.4235 73.2223 51.2093 70.5349 51.1701 70.0047C51.0013 69.1277 50.7023 67.8124 50.6798 66.9529C50.7335 66.6966 51.0957 65.9633 51.2232 65.853C51.5511 65.5953 51.843 65.4476 52.1002 65.6841C52.5798 66.5414 52.6414 67.931 52.7553 68.79L52.7004 68.772Z" fill="#212844"/>
<path d="M61.5382 62.3254C61.2732 64.247 61.6923 67.7015 61.367 68.5077C61.4827 69.7325 61.1767 70.7582 60.6501 71.5288C60.4505 71.859 60.3793 72.2617 60.1798 72.5918C59.9802 72.922 59.3252 73.6201 58.9972 73.8778C57.9404 74.6876 56.7653 73.724 56.1032 72.9591C55.8825 72.7041 55.3875 72.4505 55.2217 72.2135C55.074 71.9216 54.9817 71.7392 54.8524 71.4838C54.4475 70.9554 54.0061 70.4454 53.6927 69.9166C53.2126 68.9679 52.6217 67.8003 52.3974 66.8138C51.9921 66.1939 51.1928 63.5277 50.9461 61.6817C50.8529 61.3164 50.979 60.9317 50.9768 60.4745C50.9737 59.8345 51.2427 58.7358 51.8076 58.3125C52.9739 57.4473 54.5337 58.537 55.2538 59.96C56.0848 61.602 56.036 62.8641 56.262 64.2164C56.3179 64.4173 56.2111 65.0213 56.084 65.2231C56.179 65.9542 55.9627 66.6136 55.437 67.5672C55.3644 67.6956 55.3288 67.8969 55.3113 68.0433C55.2941 68.2811 55.5724 69.1028 55.6467 69.3402C55.9053 69.851 57.9834 72.2367 58.6578 71.7579C59.1682 71.408 59.7295 70.2531 59.8178 69.6126C59.9405 68.4964 59.8415 66.9423 60.1465 65.7338C59.9214 64.5644 60.095 62.6433 60.0752 62.3325C60.0734 61.9667 59.8158 61.6388 59.814 61.273C59.7933 60.7793 59.9916 60.1748 60.356 59.8987C60.684 59.6411 61.1416 59.7303 61.3443 60.0403C61.6942 60.5506 61.6248 61.3191 61.5018 62.3439L61.5382 62.3254ZM52.6245 60.8323C52.6245 60.8323 52.37 61.1445 52.4078 61.4003C52.5595 62.5152 53.5602 65.217 53.9673 66.2027C54.0781 66.4216 54.3717 66.6396 54.5722 66.4923C54.9731 66.1978 54.7796 64.0041 54.8324 63.5649C54.5184 62.9446 54.2028 61.9586 53.888 61.1554C53.6664 60.7176 53.2624 60.372 52.661 60.8139L52.6245 60.8323Z" fill="#212844"/>
<path d="M75.7529 51.9244C75.9596 53.0573 75.5108 54.7969 75.4431 55.9311C75.4093 56.4982 75.0884 58.2189 74.5244 58.8251C74.3464 59.8319 74.0396 60.6746 73.6391 61.0606C73.5116 61.171 73.2571 61.4831 73.1841 61.52C71.689 62.46 70.3283 60.9486 69.8843 59.8901C69.7735 59.6711 69.7352 59.3238 69.679 59.0315L67.9599 55.2724C67.8122 54.9805 66.9461 53.6313 66.6533 53.5962C66.0366 54.6416 65.6735 55.192 65.0374 56.0181C64.9116 56.4942 64.6576 56.8978 64.4219 57.3378C64.2039 57.6315 64.5632 60.0621 64.146 60.7774C64.0915 60.8508 63.8185 61.1265 63.7455 61.1634C63.3806 61.3481 62.9775 61.1854 62.7568 60.9304C62.6275 60.675 62.6894 58.3521 62.5048 57.9872C62.0432 57.075 60.621 57.978 59.8653 56.7564C59.5149 56.1546 59.1609 54.8212 58.993 54.1271C58.9727 53.7248 58.971 53.359 59.207 53.0104C59.1481 52.1694 59.1221 50.5784 59.7956 49.9168C59.9231 49.8065 60.0686 49.6412 60.1776 49.4943C60.3235 49.4205 60.4515 49.4015 60.5429 49.4011C61.8573 48.9192 62.3704 49.1179 62.8698 50.286C63.2585 51.2351 63.3913 52.222 63.7799 53.1711C63.8907 53.3901 64.0015 53.609 64.275 53.4248C64.4209 53.3509 64.5119 53.259 64.5295 53.1127C64.7286 52.6911 64.9792 51.5559 65.0134 51.0803C64.9185 50.3492 65.0402 49.0501 65.9519 48.4971C66.3533 48.2939 67.029 48.0895 67.0861 48.5647C67.2154 48.8201 67.2537 49.1674 67.4014 49.4593C67.586 49.8242 68.0639 50.3157 68.3413 50.9544C68.6737 51.6112 68.7493 52.1229 68.8078 52.8725C69.4519 53.6923 69.9892 55.1162 70.3783 56.1568C70.4891 56.3757 70.4724 56.705 70.4922 57.0158C70.8984 57.8185 71.36 58.7307 71.9122 59.4596C72.041 59.6236 72.2244 59.7141 72.4613 59.5484C72.6438 59.456 72.6802 59.4376 72.7158 59.2362C73.2767 57.9899 73.58 56.4156 73.8315 55.4634C73.7193 54.9701 74.0059 53.7251 73.9852 53.2315C73.9993 52.3535 73.8133 51.7143 74.2845 50.8342C74.43 50.6689 74.6301 50.4302 74.776 50.3563C75.1044 50.1901 75.6161 50.1145 75.8373 50.4609C75.9498 51.0456 75.6773 51.4127 75.6979 51.9064L75.7529 51.9244ZM61.0147 52.4164C60.4129 52.7668 60.8411 54.3376 61.0438 54.6475C61.1731 54.9029 61.487 55.5232 61.8519 55.3385C61.8519 55.3385 61.9424 55.1552 61.942 55.0638C61.9767 54.6795 61.7858 53.0345 61.6931 52.7606C61.5638 52.5052 61.3976 52.1768 61.0147 52.4164Z" fill="#212844"/>
<path d="M100.786 43.3385C100.214 46.0114 98.1344 50.868 97.1501 51.5494C97.2996 52.2071 95.8982 53.6038 95.2607 54.1555C94.9332 54.5046 93.6206 55.3522 93.2737 55.4819C92.2516 55.9075 91.1552 56.0957 90.2949 55.9353C89.2156 55.8856 87.6734 54.6495 87.3036 53.8283C87.0645 53.5368 86.7699 53.1359 86.6402 52.7891C86.1403 51.5296 86.1539 50.5602 85.6883 48.8251C85.614 48.5877 85.5942 48.2769 85.5559 47.9296C85.4416 46.9791 85.3453 45.9737 85.3224 45.0228C85.2472 44.6026 85.1707 43.908 85.4072 43.6508C85.2225 43.2859 85.092 42.7562 85.1816 42.39C85.2682 41.3837 85.3543 40.2859 85.3314 39.335C85.4681 37.3409 85.5331 35.6581 85.999 33.6807C86.1419 32.9667 86.8865 31.9024 87.5983 31.588C88.3649 31.2917 88.7857 31.3079 89.6284 31.6148C90.3023 31.0445 93.3797 32.0538 93.8088 33.8074C93.9952 34.5381 94.6658 37.0403 93.4428 37.5218C92.8405 37.7807 92.2545 37.619 92.1604 37.0708C91.9739 36.3401 92.2983 35.351 92.1124 34.7118C91.8323 33.5244 90.3107 32.7819 88.9418 33.3372C87.6458 33.8556 87.8947 36.1587 87.6618 37.1474C87.646 37.6596 87.4473 38.1726 87.4134 38.7397C87.2192 40.1672 87.4083 41.4465 87.287 42.837C87.1824 43.8982 87.1327 44.9775 87.357 45.964C87.3768 46.2748 87.4695 46.5487 87.5069 46.7131C87.5452 47.0604 87.383 47.5549 87.4393 47.8473C87.4393 47.8473 88.1062 49.6181 87.8341 50.0766C88.2381 50.4221 88.5191 51.7924 88.5191 51.7924C89.0559 53.1249 90.5828 54.9646 92.5175 54.1688C93.6126 53.7063 94.9222 52.2186 95.4839 51.1551C96.4282 49.7606 98.3488 46.0388 98.3962 44.5023C98.3755 44.0086 98.044 43.5347 98.4071 42.9843C98.5526 42.819 99.0085 42.5424 99.2274 42.4317C99.5558 42.2655 100.707 42.0953 100.873 42.4237C100.984 42.6426 100.84 43.1737 100.804 43.2836L100.786 43.3385Z" fill="#212844"/>
<path d="M119.783 35.1401C119.025 37.1738 116.803 39.0317 116.217 38.9614C115.708 39.5856 114.814 39.9923 114.029 40.2522C113.996 41.0021 113.744 41.7715 113.309 42.7246C113.11 43.0548 111.13 45.7528 110.783 45.8825C110.545 45.9568 110.308 46.1225 110.089 46.1419C108.866 46.5318 107.729 46.007 106.94 45.5353C106.282 45.5019 105.568 45.4505 104.981 45.1059C104.504 44.7973 104.173 44.3234 103.987 43.7756C103.746 42.9355 103.44 40.1571 103.435 39.2427C103.447 37.9076 104.456 34.7388 105.951 33.8903C106.097 33.8164 106.626 33.503 106.754 33.4841C107.156 33.3724 107.632 33.4981 107.942 33.3869C108.91 33.0347 111.227 31.9993 112.311 32.9634C112.679 33.4188 112.939 34.2039 113.307 34.6594C113.638 35.0418 114.28 35.4045 114.319 35.9347C114.411 36.0257 114.357 36.1905 114.321 36.3004C114.14 36.6671 114.234 37.3067 114.219 37.9103C115.443 37.6118 116.534 36.4177 117.064 36.1957C117.463 35.5354 117.807 34.857 118.059 34.0877C118.111 33.3742 118.475 33.0067 119.15 32.8022C119.662 32.6351 119.864 32.8536 119.957 33.2189C120.125 33.8216 119.982 34.5356 119.783 35.1401ZM109.166 40.6963C108.16 40.6098 106.985 39.7376 106.521 38.1853L106.136 38.1506C105.648 39.2686 105.635 40.4208 105.824 41.5172C105.862 41.956 106.103 42.5217 106.233 42.8686C106.712 43.7258 107.571 43.6119 108.395 43.8823C108.487 43.9733 109.165 44.1346 109.347 44.0423C109.493 43.9684 109.639 43.8945 109.858 43.7838C110.985 42.3884 111.366 41.6916 111.764 40.7569C110.814 41.0541 109.863 41.077 109.239 40.6594L109.166 40.6963ZM110.928 34.3966C110.928 34.3966 110.141 34.2906 109.867 34.3834C108.826 34.6811 108.338 35.8905 108.232 36.4945C108.619 37.2608 109.232 39.1049 111.022 38.5659C111.259 38.4916 111.661 38.3799 111.861 38.1412C112.097 37.7926 112.074 36.8417 111.979 36.202C111.791 35.1056 111.35 34.6871 110.965 34.4695L110.928 34.3966Z" fill="#212844"/>
<path d="M132.193 33.0362C131.396 34.6311 129.712 38.2787 129.111 38.6291C129.076 39.1048 128.551 40.0583 128.332 40.352C127.624 41.3979 125.64 43.2729 124.178 43.5543C123.466 43.6858 122.678 43.397 122.364 42.8682C121.958 41.974 121.737 41.6276 121.568 40.7505C121.547 40.3483 121.545 39.8911 121.58 39.5069C121.469 39.2879 121.266 38.8866 121.211 38.7771C121.078 37.7902 120.891 37.0595 120.832 36.1271C120.715 34.7195 119.786 35.3275 119.598 34.414C119.374 33.336 120.781 33.128 120.663 31.4461L120.462 27.7893C120.462 27.7893 120.479 27.3686 120.715 27.1114C120.673 26.0326 120.525 21.7538 120.959 20.7093C121.212 20.1228 121.576 19.7553 122.032 19.4787C122.302 18.7459 122.958 18.2306 123.616 18.0811C125.078 17.7997 125.967 20.0998 126.008 21.1786C126.313 27.4867 122.681 32.8079 122.612 33.6678C122.632 33.8872 122.728 34.8012 122.546 35.1678C122.842 35.7516 123.102 36.6282 123.142 37.3413C123.295 38.7304 123.311 41.9309 124.645 41.6684C125.138 41.5562 126.393 40.1419 127.013 39.828C127.21 38.8578 128.86 35.9602 129.186 35.3368C129.329 34.7143 129.691 33.7981 129.889 33.1936C129.943 32.9373 130.471 32.5324 130.47 32.2581C130.449 31.8559 131.051 31.414 131.435 31.3573C131.983 31.2632 132.315 31.8285 132.408 32.1939C132.464 32.3948 132.173 32.8168 132.156 33.0546L132.193 33.0362ZM123.665 20.7144L123.373 20.8622C122.72 21.9261 122.607 25.0539 122.594 26.1147C122.649 26.2242 122.671 26.9008 122.653 26.9557C122.69 27.1201 122.984 27.2467 123.093 27.1913C123.821 26.4563 124.347 21.7902 124.124 20.9865C124.086 20.8221 123.921 20.6766 123.72 20.7325L123.665 20.7144Z" fill="#212844"/>
<path d="M149.118 31.3416C147.938 33.1762 145.421 34.5417 144.817 34.3435C144.161 34.8588 143.229 35.101 142.425 35.1415C142.245 35.8739 141.81 36.5527 141.229 37.3968C140.956 37.6724 138.461 39.8974 138.132 39.9722C137.876 40.01 137.621 40.1392 137.383 40.1221C136.103 40.2197 135.112 39.5296 134.451 38.8561C133.81 38.6763 133.114 38.4785 132.654 38.0235C132.232 37.6415 132.01 37.1122 131.952 36.5456C131.875 35.6681 132.172 32.9051 132.369 32.0263C132.619 30.7083 134.269 27.8107 135.931 27.2906C136.077 27.2167 136.68 27.0492 136.771 27.0488C137.173 27.0285 137.595 27.2277 137.961 27.2259C138.984 27.0746 141.469 26.5505 142.334 27.7168C142.593 28.2276 142.688 29.0501 142.965 29.5974C143.205 30.0718 143.756 30.5263 143.704 31.0569C143.759 31.1664 143.705 31.3313 143.614 31.4232C143.359 31.7353 143.326 32.3938 143.164 32.9799C144.426 32.9372 145.738 31.9981 146.268 31.8675C146.795 31.2797 147.25 30.7289 147.667 30.0136C147.865 29.3177 148.321 29.0411 148.979 28.9831C149.509 28.9439 149.675 29.1809 149.695 29.5831C149.735 30.2048 149.482 30.8827 149.155 31.4146L149.118 31.3416ZM137.612 34.5978C136.642 34.3099 135.667 33.1991 135.55 31.6085L135.165 31.4824C134.438 32.4918 134.224 33.6084 134.138 34.7061C134.122 35.1268 134.18 35.7849 134.255 36.1138C134.57 37.0084 135.393 37.0958 136.163 37.531C136.219 37.6405 136.879 37.9482 137.061 37.8559C137.244 37.855 137.39 37.7811 137.646 37.7433C139.03 36.5844 139.558 35.9966 140.102 35.171C139.133 35.2489 138.145 35.1074 137.63 34.5429L137.612 34.5978ZM140.638 28.804C140.546 28.6216 139.906 28.5332 139.595 28.553C138.498 28.6498 137.808 29.7322 137.537 30.2821C137.76 31.0857 138.007 33.0231 139.853 32.8679C140.109 32.8301 140.512 32.8098 140.766 32.5891C141.076 32.295 141.254 31.3797 141.269 30.6847C141.319 29.6054 140.969 29.095 140.62 28.7675L140.638 28.804Z" fill="#212844"/>
<path d="M164.647 31.779C164.213 32.8236 162.866 34.0555 162.212 34.9365C161.848 35.3955 160.647 36.6449 159.844 36.8682C159.152 37.5848 158.423 38.137 157.875 38.2311C157.729 38.305 157.345 38.3617 157.254 38.3622C155.48 38.2976 155.178 36.3422 155.373 35.1891C155.427 34.9328 155.59 34.6211 155.643 34.3648L156.282 30.2833C156.335 29.9356 156.364 28.3626 156.126 28.1626C155.031 28.7166 154.447 29.012 153.443 29.2912C153.097 29.6038 152.622 29.8438 152.221 30.047C151.893 30.2132 150.806 32.413 150.113 32.7639C150.04 32.8008 149.656 32.8575 149.564 32.858C149.144 32.8417 148.904 32.4588 148.866 32.1115C148.864 31.8372 150.227 29.9103 150.262 29.5261C150.385 28.5013 148.684 28.4913 148.695 27.0647C148.71 26.3697 149.179 25.0323 149.414 24.4094C149.613 24.0792 149.813 23.7491 150.196 23.6009C150.595 22.8492 151.485 21.5281 152.398 21.3408C152.544 21.2669 152.782 21.284 152.964 21.1917C153.111 21.2093 153.239 21.2818 153.349 21.3179C154.704 21.6405 155.017 22.0779 154.785 23.3409C154.607 24.3477 154.155 25.2643 153.977 26.271C153.941 26.4724 153.942 26.7467 154.235 26.7818C154.382 26.7994 154.546 26.7621 154.618 26.6337C155.001 26.3941 155.875 25.5851 156.148 25.2181C156.456 24.5582 157.31 23.5299 158.334 23.5615C158.792 23.5593 159.47 23.812 159.27 24.2336C159.235 24.5264 159.072 24.8381 159.055 25.1674C159.003 25.6066 159.152 26.2642 159.027 26.9232C158.94 27.6552 158.722 28.1318 158.36 28.7736C158.42 29.7975 158.116 31.2803 157.883 32.3605C157.848 32.5618 157.648 32.892 157.503 33.1487C157.361 34.0455 157.293 35.0883 157.334 35.9843C157.353 36.2036 157.482 36.3676 157.72 36.3847C157.903 36.3839 157.994 36.3834 158.085 36.2915C159.234 35.5727 160.38 34.3967 161.054 33.735C161.216 33.2405 162.144 32.3581 162.399 31.9545C162.852 31.2208 163.069 30.5614 163.944 30.1182C164.163 30.0074 164.419 29.9696 164.62 30.0052C164.986 30.0034 165.481 30.2571 165.465 30.6778C165.248 31.2458 164.81 31.3759 164.574 31.816L164.647 31.779ZM152.028 24.1407C151.333 24.1258 150.865 25.646 150.83 26.0302C150.795 26.323 150.725 27 151.127 27.0712C151.127 27.0712 151.31 26.9789 151.364 26.9055C151.582 26.6118 152.343 25.1267 152.415 24.8155C152.45 24.5227 152.467 24.1934 152.028 24.1407Z" fill="#212844"/>
</svg>
