<svg width="556" height="120" viewBox="0 0 556 120" fill="none" xmlns="http://www.w3.org/2000/svg">
<path d="M200.926 10.6358L203.813 13.3085C203.598 13.585 203.291 13.7386 202.554 13.8C201.018 22.7088 197.639 31.0646 187.317 35.5805L186.979 35.1811C194.782 30.3274 198.192 22.1251 199.482 13.2778H195.028C194.382 14.9059 193.645 16.4419 192.816 17.8243C199.421 20.0362 197.117 24.8592 194.567 22.9238C194.26 21.5414 193.307 19.9747 192.232 18.7152C190.819 20.927 189.16 22.7702 187.255 24.2448L186.856 23.9683C189.836 20.0054 192.416 13.8307 193.43 7.1952L197.669 8.2704C197.547 8.63904 197.178 8.94624 196.502 8.94624C196.164 10.1443 195.796 11.281 195.396 12.3869H199.267L200.926 10.6358ZM209.128 8.82336V21.6029C211.278 23.1389 213.736 24.2755 216.347 24.9206L216.286 25.2586C215.118 25.535 214.228 26.4874 213.859 27.9312C212.077 27.1939 210.51 26.2723 209.128 25.105V34.6589C209.128 34.9661 207.869 35.5805 206.732 35.5805H206.148V21.8486C204.766 19.9133 203.721 17.6093 202.923 14.9059L203.353 14.6909C204.059 16.2576 205.012 17.7014 206.148 18.961V7.53312L210.203 7.9632C210.142 8.39328 209.927 8.70048 209.128 8.82336ZM226.147 21.6029L226.853 21.9408C226.27 23.569 225.102 26.7638 224.765 27.8698C224.488 29.0064 224.334 29.6515 224.334 30.143C224.334 31.1568 224.857 32.1706 224.857 33.0307C224.857 33.9216 224.396 34.4131 223.597 34.4131C222.921 34.4131 222.307 33.8909 221.785 33.1229C220.771 31.7098 219.911 29.0064 219.911 25.6579C219.911 22.4938 220.832 19.0838 221.324 17.2406C221.723 15.7661 222.061 14.568 222.061 13.3699C222.092 12.0797 221.293 10.9123 220.402 9.83712L220.771 9.4992C221.662 9.74496 222.153 9.96 222.829 10.4515C223.659 11.0045 225.225 12.6634 225.225 14.1994C225.225 14.9674 224.765 15.551 224.027 17.1485C223.075 19.0838 221.815 22.2173 221.815 25.32C221.815 26.5795 222 27.3782 222.245 27.9005C222.43 28.2998 222.737 28.3613 223.013 27.9005C223.72 26.8253 225.379 23.1696 226.147 21.6029ZM237.298 28.0234V27.9312C236.315 27.6547 235.24 27.5318 234.073 27.5318C232.291 27.5318 230.417 28.2998 230.417 29.6515C230.417 30.911 231.769 31.4333 233.397 31.4333C236.592 31.4333 237.298 30.2966 237.298 28.0234ZM239.172 18.1315V18.8074C239.172 21.695 239.418 24.2448 239.602 26.2723C242.091 26.9482 243.719 28.1462 244.702 29.0986C245.347 29.713 245.716 30.3581 245.716 31.0032C245.716 31.8634 245.285 32.3549 244.579 32.3549C243.995 32.3549 243.565 31.9248 242.736 31.1261C241.783 30.2352 240.831 29.4979 239.817 28.945V29.4365C239.817 32.1091 238.128 33.7066 234.165 33.7066C231.4 33.7066 229.065 32.3242 229.065 29.8666C229.065 27.0096 231.984 25.7501 235.455 25.7501C236.069 25.7501 236.653 25.7808 237.206 25.8422C237.114 23.8147 236.96 21.0806 236.93 18.7766V18.5002C235.854 18.623 234.779 18.7152 233.765 18.7152C231.83 18.7152 230.386 18.3773 228.82 15.4282L229.219 15.0595C230.601 16.0426 231.953 16.5341 233.428 16.5341C234.718 16.5341 235.885 16.4112 236.93 16.2269V12.6941C236.93 11.6496 236.745 11.5267 236.223 11.3424C235.609 11.1274 234.841 11.0045 234.042 10.943L233.981 10.3901C234.687 9.96 235.762 9.46848 236.53 9.46848C238.281 9.46848 240.063 10.4208 240.063 11.2195C240.063 11.9261 239.756 12.1411 239.572 13.3699C239.449 13.8922 239.357 14.6909 239.295 15.6125C239.572 15.5203 239.848 15.4282 240.063 15.336C241.876 14.7216 242.521 14.2915 242.766 14.2915C243.657 14.3222 244.794 14.7523 244.794 15.551C244.794 16.3805 244.333 16.6262 243.074 17.1178C242.336 17.3942 240.893 17.7936 239.172 18.1315ZM269.923 9.92928H260.062L259.785 9.0384H270.23L271.889 7.37952L274.869 9.92928C274.623 10.175 274.254 10.2365 273.64 10.2979C272.319 11.0352 270.599 11.8646 268.878 12.5098L269.247 12.5405C269.186 13.0013 268.878 13.2163 268.203 13.3085V15.0902H272.473L274.193 13.0013C274.193 13.0013 276.067 14.4144 277.296 15.4896C277.204 15.8275 276.896 15.9811 276.436 15.9811H268.203V19.6675C268.203 21.695 267.742 22.801 264.393 23.1082C264.27 22.2787 264.148 21.6643 263.717 21.265C263.287 20.8656 262.642 20.5584 261.26 20.3434V19.8826C261.26 19.8826 264.24 20.0976 264.823 20.0976C265.284 20.0976 265.407 19.944 265.407 19.5754V15.9811H257.635L257.389 15.0902H265.407V12.1718L267.65 12.3869C268.448 11.6496 269.278 10.728 269.923 9.92928ZM255.239 7.07232L258.833 8.97696C258.649 9.31488 258.403 9.46848 257.666 9.3456C256.836 10.5744 255.73 11.9568 254.44 13.2778C256.191 16.3498 256.713 19.8518 256.805 23.7226C256.898 27.7776 256.56 32.1091 255.024 34.2595C254.348 35.2118 253.15 35.6112 251.429 35.6112C251.429 34.6282 251.245 33.9523 250.907 33.5837C250.508 33.2458 249.801 32.8771 248.849 32.6621V32.1706C248.849 32.1706 250.938 32.3856 252.044 32.3856C252.535 32.3856 252.75 32.2934 252.965 31.9555C253.826 30.7574 254.102 27.1325 254.102 23.6918V22.5859C252.689 24.3062 250.661 26.0573 248.48 27.409L248.173 27.1018C250.661 24.4906 252.658 20.8656 253.641 17.4557C253.457 16.5341 253.242 15.6432 252.935 14.7523C251.583 15.9811 250.109 17.1178 248.542 18.0394L248.235 17.7014C249.648 16.3498 250.999 14.6294 252.136 12.8784C251.368 11.3117 250.324 9.83712 248.88 8.39328L249.279 8.05536C250.846 9.06912 252.105 10.175 253.088 11.3731C254.01 9.86784 254.747 8.36256 255.239 7.07232ZM261.106 24.8592V33.7066H263.165V24.8592H261.106ZM267.496 24.8592H265.284V33.7066H267.496V24.8592ZM271.766 24.8592H269.646V33.7066H271.766V24.8592ZM274.377 33.6451L275.606 31.5869C275.606 31.5869 277.05 33.0922 277.787 34.1059C277.726 34.4438 277.419 34.5974 277.019 34.5974H256.068L255.822 33.7066H258.587V22.801L261.444 23.9683H271.459L272.688 22.3402L275.76 24.552C275.545 24.8899 275.145 25.0742 274.377 25.1664V33.6451ZM293.393 22.6474H294.714C296.127 21.8179 297.479 20.8963 298.8 19.9133H293.393V22.6474ZM300.059 27.0403H289.369V29.4979H300.059V27.0403ZM289.369 32.9693H300.059V30.3888H289.369V32.9693ZM286.911 15.336H300.059V12.9706H286.911V15.336ZM300.059 9.71424H286.911V12.0797H300.059V9.71424ZM303.131 22.6474L304.852 20.6813C304.852 20.6813 306.725 22.0637 307.924 23.0467C307.831 23.3846 307.524 23.5382 307.094 23.5382H297.448C295.605 24.552 293.669 25.4122 291.703 26.1802H299.752L301.196 24.6442L304.176 26.8867C303.991 27.1018 303.592 27.3475 303.039 27.4397V34.7818C303.008 34.9661 301.534 35.519 300.551 35.519H300.059V33.8602H289.369V34.7203C289.369 34.9968 288.078 35.6112 286.88 35.6112H286.45V27.9619C284.146 28.6685 281.781 29.2522 279.385 29.7437L279.231 29.2214C281.658 28.4842 284.054 27.624 286.45 26.6717V24.8899L288.57 25.7808C290.137 25.105 291.642 24.337 293.147 23.5382H279.692L279.415 22.6474H290.444V19.9133H282.61L282.365 19.0224H290.444V16.3805L294.376 16.7491C294.315 17.1178 294.069 17.3942 293.393 17.5171V19.0224H295.697L297.294 17.087C297.294 17.087 298.738 18.1622 299.844 19.1146C300.797 18.3466 301.687 17.5478 302.578 16.7184C302.056 16.9334 301.196 17.2099 300.551 17.2099H300.059V16.2269H286.911V16.8106C286.911 17.087 285.621 17.7014 284.453 17.7014H284.023V7.59456L287.126 8.85408H299.752L301.196 7.31808L304.206 9.59136C304.022 9.8064 303.592 10.0522 303.008 10.175V16.2883L303.561 15.7354L306.633 18.2851C306.357 18.5923 305.927 18.5923 305.189 18.3158C303.223 19.9747 301.165 21.3878 299.045 22.6474H303.131ZM309.982 28.0234L310.289 27.5933C314.252 28.4842 316.341 29.9894 317.447 31.5869C317.969 32.3549 318.123 33 318.123 33.6451C318.123 34.7203 317.447 35.4269 316.433 35.4269C315.665 35.4269 315.143 35.0275 314.682 34.0752C313.791 32.2013 312.747 30.1123 309.982 28.0234ZM202.861 62.7702H210.633V54.5987H202.861V62.7702ZM192.017 62.7702H199.789V54.5987H192.017V62.7702ZM211.831 52.049L214.996 54.4758C214.781 54.7216 214.35 54.9981 213.705 55.121V65.4429C213.675 65.6579 212.169 66.2109 211.156 66.2109H210.633V63.6611H202.861V74.5053C202.861 74.8432 201.54 75.6112 200.373 75.6112H199.789V63.6611H192.017V65.6579C192.017 65.9344 190.696 66.641 189.467 66.641H189.006V52.3254L192.293 53.7078H199.789V47.0416L203.998 47.4717C203.906 47.9018 203.691 48.2397 202.861 48.3626V53.7078H210.326L211.831 52.049ZM226.147 61.6029L226.853 61.9408C226.27 63.569 225.102 66.7638 224.765 67.8698C224.488 69.0064 224.334 69.6515 224.334 70.143C224.334 71.1568 224.857 72.1706 224.857 73.0307C224.857 73.9216 224.396 74.4131 223.597 74.4131C222.921 74.4131 222.307 73.8909 221.785 73.1229C220.771 71.7098 219.911 69.0064 219.911 65.6579C219.911 62.4938 220.832 59.0838 221.324 57.2406C221.723 55.7661 222.061 54.568 222.061 53.3699C222.092 52.0797 221.293 50.9123 220.402 49.8371L220.771 49.4992C221.662 49.745 222.153 49.96 222.829 50.4515C223.659 51.0045 225.225 52.6634 225.225 54.1994C225.225 54.9674 224.765 55.551 224.027 57.1485C223.075 59.0838 221.815 62.2173 221.815 65.32C221.815 66.5795 222 67.3782 222.245 67.9005C222.43 68.2998 222.737 68.3613 223.013 67.9005C223.72 66.8253 225.379 63.1696 226.147 61.6029ZM237.298 68.0234V67.9312C236.315 67.6547 235.24 67.5318 234.073 67.5318C232.291 67.5318 230.417 68.2998 230.417 69.6515C230.417 70.911 231.769 71.4333 233.397 71.4333C236.592 71.4333 237.298 70.2966 237.298 68.0234ZM239.172 58.1315V58.8074C239.172 61.695 239.418 64.2448 239.602 66.2723C242.091 66.9482 243.719 68.1462 244.702 69.0986C245.347 69.713 245.716 70.3581 245.716 71.0032C245.716 71.8634 245.285 72.3549 244.579 72.3549C243.995 72.3549 243.565 71.9248 242.736 71.1261C241.783 70.2352 240.831 69.4979 239.817 68.945V69.4365C239.817 72.1091 238.128 73.7066 234.165 73.7066C231.4 73.7066 229.065 72.3242 229.065 69.8666C229.065 67.0096 231.984 65.7501 235.455 65.7501C236.069 65.7501 236.653 65.7808 237.206 65.8422C237.114 63.8147 236.96 61.0806 236.93 58.7766V58.5002C235.854 58.623 234.779 58.7152 233.765 58.7152C231.83 58.7152 230.386 58.3773 228.82 55.4282L229.219 55.0595C230.601 56.0426 231.953 56.5341 233.428 56.5341C234.718 56.5341 235.885 56.4112 236.93 56.2269V52.6941C236.93 51.6496 236.745 51.5267 236.223 51.3424C235.609 51.1274 234.841 51.0045 234.042 50.943L233.981 50.3901C234.687 49.96 235.762 49.4685 236.53 49.4685C238.281 49.4685 240.063 50.4208 240.063 51.2195C240.063 51.9261 239.756 52.1411 239.572 53.3699C239.449 53.8922 239.357 54.6909 239.295 55.6125C239.572 55.5203 239.848 55.4282 240.063 55.336C241.876 54.7216 242.521 54.2915 242.766 54.2915C243.657 54.3222 244.794 54.7523 244.794 55.551C244.794 56.3805 244.333 56.6262 243.074 57.1178C242.336 57.3942 240.893 57.7936 239.172 58.1315ZM249.463 48.6698L249.74 48.4547C258.065 50.0522 255.454 56.1962 252.443 53.9536C252.167 52.1104 250.784 49.96 249.463 48.6698ZM258.004 51.8339L258.495 51.9875C257.082 55.5203 254.286 62.1866 253.856 63.6611C253.518 64.6134 253.273 65.6272 253.273 66.3952C253.334 67.8083 254.379 68.945 254.286 71.464C254.225 72.8771 253.396 73.768 252.044 73.768C251.399 73.768 250.815 73.2765 250.631 72.2627C251.122 69.16 250.969 66.6717 250.262 66.2416C249.832 65.9651 249.371 65.8422 248.695 65.7808V65.1664H250.109C250.569 65.1664 250.692 65.1357 251.03 64.552C251.767 63.4461 251.767 63.4461 258.004 51.8339ZM271.52 62.2173L272.872 60.6813L275.975 62.9853C275.821 63.231 275.36 63.4768 274.715 63.6304V69.6822C274.715 71.7098 274.285 72.9693 270.783 73.3072C270.691 72.3549 270.507 71.6176 270.107 71.1261C269.616 70.696 268.909 70.3274 267.496 70.1123V69.6515C267.496 69.6515 270.537 69.8666 271.213 69.8666C271.674 69.8666 271.828 69.6822 271.828 69.2829V63.1082H265.899V74.9354C265.899 75.089 264.977 75.6112 263.38 75.6112H262.857V63.1082H257.082L256.805 62.2173H271.52ZM267.957 57.7014L269.524 55.5818C269.524 55.5818 271.336 57.0256 272.381 58.0701C272.288 58.408 271.981 58.5616 271.551 58.5616H260.676L260.43 57.7014H267.957ZM264.578 47.1338L269.001 48.1782C268.909 48.5469 268.571 48.7005 267.773 48.7926C269.8 52.264 273.855 54.9366 277.634 56.5034L277.572 56.9027C276.313 57.2714 275.545 58.3466 275.33 59.5139C271.766 57.2099 268.694 53.4006 267.281 49.0998C265.161 53.4928 260.43 57.8243 255.7 60.2512L255.454 59.8826C259.355 56.9027 263.595 51.0966 264.578 47.1338ZM284.669 56.319L285.129 56.1962C285.621 57.1178 286.235 57.8243 286.973 57.8243C288.324 57.8243 293.332 56.5955 295.205 56.0733C295.943 55.8582 296.219 55.3667 296.741 55.3667C297.755 55.3667 300.09 56.6877 300.09 57.855C300.09 58.5309 298.892 58.8688 297.817 59.5754C296.496 60.4662 293.485 63.0467 291.796 64.7056C292.379 64.552 293.117 64.4906 293.731 64.4906C294.96 64.4906 295.943 65.1664 296.311 66.3952C296.588 67.409 296.926 68.7299 297.172 69.5594C297.509 70.8189 297.97 71.2797 299.168 71.2797C302.363 71.2797 302.916 70.6038 304.084 70.6038C305.466 70.6038 306.449 71.2797 306.449 72.232C306.449 73.7066 302.824 74.0445 299.998 74.0445C296.526 74.0445 295.39 73.1536 294.96 70.7267C294.775 69.6208 294.591 68.3613 294.376 67.2554C294.192 66.303 293.669 65.7808 292.809 65.7808C291.796 65.7808 290.905 66.303 290.014 67.1632C288.263 68.7299 286.573 71.1261 285.437 72.5699C284.884 73.3072 284.361 73.7373 283.655 73.7373C282.948 73.7373 282.334 73.2458 282.334 72.4163C282.334 71.1261 282.948 70.6038 283.901 69.713C285.16 68.5149 287.71 66.2416 289.215 64.7978C291.519 62.5859 294.345 59.8211 295.543 58.408C296.096 57.7629 295.789 57.425 295.021 57.64C293.915 57.9165 291.427 58.8381 289.829 59.6368C288.877 60.1898 288.509 60.7427 287.802 60.7427C286.297 60.7427 285.006 59.4218 284.669 58.3773C284.453 57.7014 284.515 57.0256 284.669 56.319ZM293.209 51.6189C292.103 51.3117 289.799 50.728 288.078 48.1782L288.447 47.8096C290.475 49.1613 292.226 49.7142 294.007 49.7757C295.113 49.7757 295.666 49.4992 296.219 49.4992C297.417 49.4992 298.8 50.4822 298.8 51.6803C298.8 52.2026 298.431 52.6941 297.54 52.6941C296.68 52.6941 295.973 52.6019 295.175 52.6326C293.885 52.6941 291.273 53.4928 289.922 53.8614L289.676 53.2778C290.935 52.7248 292.318 52.0797 293.209 51.6189ZM310.903 48.6698L311.18 48.4547C319.505 50.0522 316.894 56.1962 313.883 53.9536C313.607 52.1104 312.224 49.96 310.903 48.6698ZM319.444 51.8339L319.935 51.9875C318.522 55.5203 315.726 62.1866 315.296 63.6611C314.958 64.6134 314.713 65.6272 314.713 66.3952C314.774 67.8083 315.819 68.945 315.726 71.464C315.665 72.8771 314.836 73.768 313.484 73.768C312.839 73.768 312.255 73.2765 312.071 72.2627C312.562 69.16 312.409 66.6717 311.702 66.2416C311.272 65.9651 310.811 65.8422 310.135 65.7808V65.1664H311.549C312.009 65.1664 312.132 65.1357 312.47 64.552C313.207 63.4461 313.207 63.4461 319.444 51.8339ZM332.96 62.2173L334.312 60.6813L337.415 62.9853C337.261 63.231 336.8 63.4768 336.155 63.6304V69.6822C336.155 71.7098 335.725 72.9693 332.223 73.3072C332.131 72.3549 331.947 71.6176 331.547 71.1261C331.056 70.696 330.349 70.3274 328.936 70.1123V69.6515C328.936 69.6515 331.977 69.8666 332.653 69.8666C333.114 69.8666 333.268 69.6822 333.268 69.2829V63.1082H327.339V74.9354C327.339 75.089 326.417 75.6112 324.82 75.6112H324.297V63.1082H318.522L318.245 62.2173H332.96ZM329.397 57.7014L330.964 55.5818C330.964 55.5818 332.776 57.0256 333.821 58.0701C333.728 58.408 333.421 58.5616 332.991 58.5616H322.116L321.87 57.7014H329.397ZM326.018 47.1338L330.441 48.1782C330.349 48.5469 330.011 48.7005 329.213 48.7926C331.24 52.264 335.295 54.9366 339.074 56.5034L339.012 56.9027C337.753 57.2714 336.985 58.3466 336.77 59.5139C333.206 57.2099 330.134 53.4006 328.721 49.0998C326.601 53.4928 321.87 57.8243 317.14 60.2512L316.894 59.8826C320.795 56.9027 325.035 51.0966 326.018 47.1338ZM346.109 56.319L346.569 56.1962C347.061 57.1178 347.675 57.8243 348.413 57.8243C349.764 57.8243 354.772 56.5955 356.645 56.0733C357.383 55.8582 357.659 55.3667 358.181 55.3667C359.195 55.3667 361.53 56.6877 361.53 57.855C361.53 58.5309 360.332 58.8688 359.257 59.5754C357.936 60.4662 354.925 63.0467 353.236 64.7056C353.819 64.552 354.557 64.4906 355.171 64.4906C356.4 64.4906 357.383 65.1664 357.751 66.3952C358.028 67.409 358.366 68.7299 358.612 69.5594C358.949 70.8189 359.41 71.2797 360.608 71.2797C363.803 71.2797 364.356 70.6038 365.524 70.6038C366.906 70.6038 367.889 71.2797 367.889 72.232C367.889 73.7066 364.264 74.0445 361.438 74.0445C357.966 74.0445 356.83 73.1536 356.4 70.7267C356.215 69.6208 356.031 68.3613 355.816 67.2554C355.632 66.303 355.109 65.7808 354.249 65.7808C353.236 65.7808 352.345 66.303 351.454 67.1632C349.703 68.7299 348.013 71.1261 346.877 72.5699C346.324 73.3072 345.801 73.7373 345.095 73.7373C344.388 73.7373 343.774 73.2458 343.774 72.4163C343.774 71.1261 344.388 70.6038 345.341 69.713C346.6 68.5149 349.15 66.2416 350.655 64.7978C352.959 62.5859 355.785 59.8211 356.983 58.408C357.536 57.7629 357.229 57.425 356.461 57.64C355.355 57.9165 352.867 58.8381 351.269 59.6368C350.317 60.1898 349.949 60.7427 349.242 60.7427C347.737 60.7427 346.446 59.4218 346.109 58.3773C345.893 57.7014 345.955 57.0256 346.109 56.319ZM354.649 51.6189C353.543 51.3117 351.239 50.728 349.518 48.1782L349.887 47.8096C351.915 49.1613 353.666 49.7142 355.447 49.7757C356.553 49.7757 357.106 49.4992 357.659 49.4992C358.857 49.4992 360.24 50.4822 360.24 51.6803C360.24 52.2026 359.871 52.6941 358.98 52.6941C358.12 52.6941 357.413 52.6019 356.615 52.6326C355.325 52.6941 352.713 53.4928 351.362 53.8614L351.116 53.2778C352.375 52.7248 353.758 52.0797 354.649 51.6189ZM372.067 53.4928L372.528 53.3392C373.019 54.1379 373.757 54.9059 374.494 54.9059C376.245 54.9059 381.344 53.4621 386.598 52.2333C389.977 51.4038 392.834 50.7894 393.847 50.7894C394.708 50.7894 395.598 50.9123 396.274 51.2195C397.012 51.5574 397.503 52.0182 397.503 52.6941C397.503 53.3085 396.95 53.8 396.121 53.8C395.383 53.8 394.431 53.7078 393.417 53.7078C392.004 53.7078 390.007 53.8614 388.41 54.9366C387.181 55.7354 384.386 58.408 384.386 63.999C384.386 67.4704 385.86 68.7299 387.028 69.4058C388.871 70.4195 391.482 70.2659 392.496 70.2659C393.417 70.2659 394.615 71.0646 394.615 72.0477C394.615 73.1843 393.387 73.4915 391.974 73.4915C389.854 73.4915 387.273 73.2765 385.277 71.8941C383.249 70.5117 382.02 68.5149 382.02 64.7978C382.02 60.7427 383.679 56.8106 387.15 54.2915C387.396 54.1072 387.365 53.9229 387.028 54.015C383.495 54.8445 379.194 56.319 377.351 57.3021C376.706 57.64 376.091 58.2544 375.323 58.2544C374.002 58.2544 372.159 56.5034 371.975 55.2131C371.883 54.5987 372.005 53.9843 372.067 53.4928ZM394.032 56.0426L394.37 55.551C396.029 56.0118 397.35 56.5648 398.148 57.1792C398.947 57.8243 399.254 58.408 399.254 59.0838C399.254 59.6982 398.916 60.0362 398.363 60.0362C397.81 60.0362 397.472 59.4832 396.858 58.7152C396.244 57.9779 395.537 57.1485 394.032 56.0426ZM391.267 58.0394L391.636 57.5786C393.264 58.1315 394.615 58.7766 395.476 59.5754C396.151 60.2205 396.428 60.7734 396.397 61.3571C396.397 61.9408 396.029 62.3402 395.445 62.3402C394.984 62.3402 394.615 61.7872 394.062 61.0192C393.448 60.2205 392.649 59.176 391.267 58.0394ZM406.197 63.1082C405.214 63.1082 404.415 62.3094 404.415 61.3264C404.415 60.3434 405.214 59.5446 406.197 59.5446C407.18 59.5446 407.979 60.3434 407.979 61.3264C407.979 62.3094 407.18 63.1082 406.197 63.1082ZM416.427 63.1082C415.444 63.1082 414.645 62.3094 414.645 61.3264C414.645 60.3434 415.444 59.5446 416.427 59.5446C417.41 59.5446 418.208 60.3434 418.208 61.3264C418.208 62.3094 417.41 63.1082 416.427 63.1082ZM426.656 63.1082C425.673 63.1082 424.875 62.3094 424.875 61.3264C424.875 60.3434 425.673 59.5446 426.656 59.5446C427.639 59.5446 428.438 60.3434 428.438 61.3264C428.438 62.3094 427.639 63.1082 426.656 63.1082ZM211.34 91.9568H191.71C191.771 93.8614 191.126 95.2131 190.266 95.8582C189.437 96.5034 188.146 96.4419 187.716 95.5203C187.378 94.6602 187.87 93.8307 188.638 93.3699C189.682 92.6941 190.757 90.9123 190.665 89.0998H191.126C191.372 89.8064 191.525 90.4515 191.618 91.0659H199.82V87.0723L203.967 87.441C203.906 87.871 203.629 88.1782 202.83 88.3011V91.0659H211.248L212.845 89.4685L215.671 92.1718C215.426 92.4176 215.088 92.4483 214.473 92.5098C213.613 93.2778 212.169 94.353 210.941 95.0595C211.278 95.336 211.616 95.6125 211.924 95.889C211.831 96.2269 211.524 96.3805 211.094 96.3805H201.202C199.789 98.1315 198.069 99.9747 196.41 101.265C199.728 101.111 203.66 100.896 207.715 100.62C206.609 99.5139 205.411 98.4387 204.366 97.6707L204.643 97.3942C214.781 99.7597 213.644 105.842 210.572 104.337C210.08 103.385 209.282 102.34 208.36 101.296C204.336 102.156 199.083 103.077 191.863 104.091C191.648 104.46 191.341 104.706 191.003 104.767L189.621 101.449C190.911 101.449 192.816 101.388 195.058 101.326C195.949 99.9133 196.84 97.9779 197.424 96.3805H191.618L191.341 95.4896H207.193L208.882 93.4621C208.882 93.4621 209.589 93.9843 210.418 94.6294C210.725 93.8307 211.094 92.817 211.34 91.9568ZM210.48 113.799L212.231 111.618C212.231 111.618 214.228 113.123 215.426 114.198C215.364 114.536 215.026 114.69 214.565 114.69H187.593L187.348 113.799H199.82V108.638H190.42L190.174 107.747H199.82V103.446L203.906 103.784C203.844 104.214 203.598 104.521 202.83 104.644V107.747H208.145L209.835 105.689C209.835 105.689 211.739 107.071 212.907 108.146C212.814 108.484 212.507 108.638 212.077 108.638H202.83V113.799H210.48ZM242.705 91.1581L245.808 93.585C245.623 93.8 245.163 94.0765 244.548 94.1994V111.771C244.548 113.922 244.026 115.212 240.125 115.58C239.971 114.659 239.756 113.922 239.203 113.461C238.589 112.969 237.728 112.601 235.916 112.324V111.894C235.916 111.894 239.909 112.171 240.8 112.171C241.384 112.171 241.568 111.925 241.568 111.464V93.6771H233.274C233.12 95.1517 232.905 96.5341 232.537 97.8243C242.244 101.849 240.34 108.392 237.298 106.272C236.622 103.723 234.349 100.743 232.291 98.5923C231.124 102.094 228.758 104.982 223.843 107.286L223.505 106.795C228.389 103.262 229.864 99.0224 230.325 93.6771H222.86V114.475C222.86 114.843 221.693 115.55 220.402 115.55H219.911V91.4653L223.136 92.817H230.386C230.509 91.0352 230.54 89.1306 230.571 87.103L234.687 87.441C234.595 87.871 234.288 88.2397 233.581 88.3011C233.52 89.8986 233.458 91.4038 233.335 92.817H241.261L242.705 91.1581ZM266.482 93.8614L266.697 93.4621C267.68 93.5235 268.602 93.6157 269.278 93.9536C270.445 94.568 271.49 95.889 271.49 96.7491C271.49 97.425 270.845 97.7322 269.462 98.2237C267.312 98.8995 263.81 100.436 261.444 101.818C258.833 103.354 256.037 105.689 256.037 108.208C256.037 110.051 257.789 111.188 261.966 111.188C266.267 111.188 268.633 110.297 269.37 110.297C270.906 110.297 272.227 110.635 272.227 111.894C272.227 112.447 271.674 113 270.937 113.276C269.708 113.676 266.912 114.075 263.072 114.075C257.727 114.075 254.164 112.293 254.164 108.822C254.164 105.351 257.512 102.309 259.724 100.651C258.864 100.098 258.311 99.2682 257.911 98.3466C257.266 96.8413 256.836 94.0458 256.56 92.0182C256.468 91.4038 256.253 91.0659 255.638 90.728C255.147 90.4822 254.44 90.2672 253.887 90.1136L253.856 89.5606C254.686 89.2842 255.392 89.0691 256.16 89.0691C257.942 89.0691 259.724 90.3286 259.724 91.2195C259.755 91.8032 259.509 92.3254 259.54 93.0934C259.54 94.2915 259.755 96.1962 260.123 97.3021C260.461 98.2237 260.953 98.8995 261.69 99.391C263.902 98.0394 266.636 96.5955 267.527 96.0733C267.926 95.8275 268.018 95.5818 267.865 95.1824C267.619 94.6294 267.035 94.1994 266.482 93.8614ZM292.656 95.4896C292.656 94.4451 292.256 93.5542 291.765 92.7555C289.707 93.247 287.679 94.353 286.174 95.9197C284.331 97.855 283.255 100.128 283.255 102.709C283.255 105.381 284.423 107.624 285.682 107.624C287.556 107.624 290.321 103.139 291.396 100.681C292.133 99.0224 292.656 96.9949 292.656 95.4896ZM292.287 113.369L292.164 112.724C299.813 111.126 303.039 107.01 303.039 101.572C303.039 96.0118 299.23 92.4483 294.192 92.4483C293.823 92.4483 293.424 92.479 293.024 92.5098C293.885 93.4928 294.775 94.8138 294.775 96.1654C294.775 97.6707 294.437 99.5754 293.762 101.388C292.441 105.197 288.939 110.942 285.467 110.942C283.163 110.942 280.951 107.409 280.951 103.477C280.951 100.528 282.365 97.0563 285.283 94.568C287.771 92.3869 290.905 91.3117 294.468 91.3117C301.196 91.3117 306.173 95.889 306.173 102.279C306.173 107.778 302.455 112.846 292.287 113.369ZM318.061 111.157L318.153 110.727C335.019 110.911 330.196 117.424 327.093 115.089C325.465 113.676 322.638 112.109 318.061 111.157ZM321.041 106.057L321.195 105.627C331.824 106.303 327.369 111.525 325.28 109.252C324.605 108.146 323.314 106.917 321.041 106.057ZM321.625 99.9133V102.77H326.571V99.9133H321.625ZM321.625 96.4112V99.0224H326.571V96.4112H321.625ZM337.384 103.661H328.383C330.687 106.242 335.172 107.962 338.92 108.791L338.889 109.129C337.691 109.406 336.954 110.389 336.555 111.833C332.776 110.112 329.428 107.378 327.707 103.661H321.84C319.321 107.593 314.713 110.573 309.89 112.232L309.644 111.833C313.238 109.836 316.525 106.733 318.061 103.661H310.627L310.381 102.77H318.829V99.9133H314.098L313.853 99.0224H318.829V96.4112H313.945L313.699 95.5203H318.829V92.4176L322.638 92.7555C322.577 93.1856 322.362 93.4006 321.625 93.5235V95.5203H326.571V92.4176L330.411 92.7555C330.349 93.1856 330.103 93.4006 329.397 93.5235V95.5203H330.964L332.469 93.6771L333.268 94.2915C333.605 93.4928 333.974 92.4176 334.22 91.496H314.805C314.866 93.585 313.945 95.0288 312.962 95.6125C312.04 96.1347 310.903 96.0426 310.535 95.1517C310.228 94.3222 310.781 93.585 311.518 93.2163C312.716 92.6019 313.914 90.9123 313.883 89.0077H314.344C314.528 89.5606 314.651 90.1136 314.743 90.6051H322.7V87.0416L326.847 87.3795C326.786 87.8096 326.509 88.1168 325.71 88.2397V90.6051H334.128L335.756 88.977L338.613 91.7418C338.367 91.9875 338.029 92.0182 337.415 92.0797C336.524 92.9091 334.957 93.9843 333.698 94.6294C334.22 95.0288 334.804 95.5203 335.295 95.9197C335.203 96.2576 334.896 96.4112 334.466 96.4112H329.397V99.0224H331.056L332.53 97.1485C332.53 97.1485 334.251 98.4387 335.295 99.4218C335.203 99.7597 334.896 99.9133 334.466 99.9133H329.397V102.77H333.452L335.172 100.62C335.172 100.62 337.077 102.094 338.244 103.17C338.152 103.508 337.814 103.661 337.384 103.661ZM357.137 105.351L356.922 105.904C357.721 107.409 358.857 108.638 360.209 109.621C361.315 108.331 362.175 106.917 362.789 105.351H357.137ZM344.388 108.484H347.368V100.005H344.388V108.484ZM347.368 90.9123H344.388V99.1146H347.368V90.9123ZM364.356 102.955L367.029 105.351C366.783 105.627 366.476 105.689 365.769 105.75C364.878 107.655 363.68 109.314 362.144 110.757C364.295 111.802 366.906 112.478 369.763 112.877V113.215C368.626 113.492 367.92 114.352 367.582 115.642C364.663 114.843 362.267 113.768 360.363 112.14C358.028 113.768 355.048 114.935 351.362 115.642L351.177 115.181C354.403 114.167 357.014 112.693 359.042 110.85C358.028 109.682 357.229 108.331 356.584 106.702C355.079 109.897 352.406 112.939 347.491 115.458L347.122 115.028C352.805 110.942 354.557 106.303 355.14 101.91H350.256L350.071 101.234V110.481C350.041 110.727 348.75 111.31 347.767 111.31H347.368V109.375H344.388V111.956C344.388 112.201 343.528 112.846 342.146 112.846H341.716V88.8541L344.757 90.0522H347.061L348.443 88.5162L351.239 90.6973L351.147 90.2058C356.154 89.6221 362.452 88.2397 365.769 87.0723L368.442 89.8986C368.135 90.175 367.52 90.1443 366.691 89.7757C362.667 90.3594 356.553 90.8202 351.269 90.728L351.3 90.7587C351.116 91.0045 350.655 91.2502 350.071 91.3731V101.019H355.263C355.386 99.944 355.417 98.8688 355.447 97.855H350.901L350.655 96.9949H361.499C362.513 95.1517 363.557 92.6019 364.08 90.6666L367.889 91.9261C367.735 92.2947 367.367 92.5098 366.691 92.4483C365.646 93.8307 363.926 95.6125 362.206 96.9949H364.848L366.353 94.9981C366.353 94.9981 368.043 96.3805 369.056 97.3942C368.964 97.7014 368.657 97.855 368.258 97.855H358.489C358.427 98.8995 358.335 99.944 358.181 101.019H364.878L366.445 98.9302C366.445 98.9302 368.227 100.405 369.333 101.419C369.241 101.756 368.934 101.91 368.503 101.91H358.028C357.874 102.77 357.69 103.6 357.444 104.46H362.759L364.356 102.955ZM356.83 91.0966L357.198 90.943C362.912 93.4928 359.994 97.7014 357.936 95.5818C358.028 94.0765 357.475 92.2947 356.83 91.0966ZM351.915 91.5882L352.253 91.4346C358.243 93.5542 355.447 97.9165 353.328 95.9197C353.297 94.4451 352.621 92.7248 351.915 91.5882ZM395.076 113.922L396.858 111.556C396.858 111.556 398.824 113.184 400.022 114.321C399.961 114.659 399.623 114.812 399.193 114.812H377.228L376.982 113.922H386.045V106.58H380.546C378.61 110.112 375.661 113 371.575 115.181L371.268 114.843C375.323 111.587 377.781 106.948 378.979 101.91H372.067L371.821 101.019H384.078V97.2714H374.647L374.402 96.4112H384.078V93.0934H373.419L373.142 92.2026H381.498C381.221 92.1411 380.914 92.049 380.607 91.8339C380.3 90.2365 379.071 88.424 377.965 87.3181L378.211 87.103C384.416 87.9632 383.986 91.8646 382.051 92.2026H387.703C388.471 90.6358 389.27 88.4854 389.731 86.9187L394.001 88.0861C393.847 88.4547 393.479 88.7005 392.803 88.6698C391.789 89.745 390.161 91.1274 388.564 92.2026H394.216L395.906 90.0522C395.906 90.0522 397.902 91.5267 399.101 92.6019C399.008 92.9398 398.732 93.0934 398.271 93.0934H387.089V96.4112H392.987L394.646 94.353C394.646 94.353 396.551 95.7661 397.718 96.7798C397.626 97.1178 397.319 97.2714 396.889 97.2714H387.089V101.019H394.738L396.52 98.7766C396.52 98.7766 398.517 100.313 399.715 101.419C399.623 101.756 399.316 101.91 398.855 101.91H382.42C382.051 103.262 381.559 104.521 380.976 105.719H392.803L394.523 103.538C394.523 103.538 396.489 105.044 397.687 106.119C397.626 106.426 397.288 106.58 396.858 106.58H389.086V113.922H395.076ZM411.02 101.419L411.696 101.726C411.081 103.385 409.853 106.395 409.545 107.532C409.269 108.638 409.115 109.344 409.115 109.836C409.115 110.85 409.73 111.863 409.73 112.724C409.73 113.614 409.3 114.106 408.47 114.106C407.794 114.106 407.18 113.584 406.658 112.846C405.644 111.433 404.814 108.853 404.814 105.658C404.814 102.494 405.705 99.5446 406.197 97.7014C406.596 96.2269 406.934 95.0288 406.934 93.8307C406.965 92.5405 406.197 91.3424 405.306 90.3594L405.705 89.9907C406.535 90.2365 407.118 90.513 407.733 90.9738C408.562 91.5574 410.098 93.1242 410.098 94.6602C410.098 95.4282 409.668 96.0426 408.931 97.6093C407.948 99.5446 406.781 102.34 406.781 105.105C406.781 106.334 406.965 106.979 407.149 107.348C407.334 107.778 407.61 107.808 407.886 107.378C408.624 106.272 410.252 102.955 411.02 101.419ZM414.061 104.306L414.645 104.214C414.829 104.951 415.106 105.996 415.474 106.672C416.611 108.668 418.147 109.59 421.956 109.59C425.151 109.59 426.38 109.006 427.056 109.006C428.162 109.006 429.298 109.467 429.298 110.42C429.298 112.048 426.288 112.447 422.755 112.447C417.379 112.447 414.891 110.327 414.246 106.948C414.03 106.027 414 105.074 414.061 104.306ZM415.167 95.7354L414.921 95.121C417.318 93.3392 420.39 92.6634 422.601 92.6634C424.69 92.6634 425.919 92.8784 426.933 93.4006C427.762 93.8 428.008 94.353 428.008 94.8138C428.008 95.4282 427.701 95.7354 426.994 95.8582C426.134 96.0118 425.182 96.0733 424.045 96.4419C422.663 96.9642 420.574 98.0701 418.976 99.0224L418.516 98.5309C419.867 97.4557 421.71 96.0426 422.263 95.4896C422.601 95.121 422.694 94.8445 420.512 94.8445C419.468 94.8445 417.748 94.9981 415.167 95.7354ZM433.722 89.0077L433.998 88.8541C441.924 90.8509 439.19 96.5955 436.364 94.3222C436.118 92.5098 434.889 90.3901 433.722 89.0077ZM440.542 93.9536L441.033 94.0765C440.081 96.872 438.207 102.094 437.869 103.323C437.623 104.183 437.408 105.105 437.439 105.842C437.501 107.255 438.545 108.453 438.422 110.911C438.391 112.324 437.531 113.215 436.21 113.215C435.596 113.215 434.982 112.724 434.859 111.679C435.319 108.607 435.197 106.149 434.521 105.719C434.091 105.412 433.661 105.289 433.015 105.228V104.613H434.367C434.797 104.613 434.92 104.613 435.258 104.06C435.903 103.047 435.903 103.047 440.542 93.9536ZM444.935 103.231H449.143V99.9747H444.935V103.231ZM449.143 95.7968H444.935V99.0838H449.143V95.7968ZM456.301 95.7968H451.97V99.0838H456.301V95.7968ZM451.97 103.231H456.301V99.9747H451.97V103.231ZM456.301 104.122H452.584C454.673 107.348 458.39 109.897 461.862 111.095L461.8 111.433C460.633 111.679 459.803 112.601 459.404 114.106C456.086 112.048 453.536 108.73 451.97 104.368V114.597C451.97 114.966 450.772 115.642 449.696 115.642H449.143V107.255C446.471 110.481 442.662 113.031 437.961 114.812L437.685 114.352C442.201 111.863 445.734 108.116 447.73 104.122H444.935V105.381C444.935 105.566 444.044 106.119 442.662 106.119H442.201V93.6771L445.273 94.9059H449.143V92.0182H440.695L440.45 91.1274H449.143V87.103L453.106 87.5331C453.014 87.9632 452.799 88.2704 451.97 88.3933V91.1274H456.455L458.175 88.977C458.175 88.977 460.11 90.4515 461.309 91.5267C461.216 91.8646 460.909 92.0182 460.448 92.0182H451.97V94.9059H456.178L457.561 93.3392L460.295 95.4589C460.141 95.7046 459.834 95.889 459.158 95.9811V104.951C459.158 105.105 458.206 105.627 456.793 105.627H456.301V104.122ZM468.989 96.319L469.449 96.1962C469.941 97.1178 470.555 97.8243 471.293 97.8243C472.644 97.8243 477.652 96.5955 479.526 96.0733C480.263 95.8582 480.539 95.3667 481.062 95.3667C482.075 95.3667 484.41 96.6877 484.41 97.855C484.41 98.5309 483.212 98.8688 482.137 99.5754C480.816 100.466 477.805 103.047 476.116 104.706C476.699 104.552 477.437 104.491 478.051 104.491C479.28 104.491 480.263 105.166 480.631 106.395C480.908 107.409 481.246 108.73 481.492 109.559C481.83 110.819 482.29 111.28 483.488 111.28C486.683 111.28 487.236 110.604 488.404 110.604C489.786 110.604 490.769 111.28 490.769 112.232C490.769 113.707 487.144 114.044 484.318 114.044C480.846 114.044 479.71 113.154 479.28 110.727C479.095 109.621 478.911 108.361 478.696 107.255C478.512 106.303 477.99 105.781 477.129 105.781C476.116 105.781 475.225 106.303 474.334 107.163C472.583 108.73 470.893 111.126 469.757 112.57C469.204 113.307 468.681 113.737 467.975 113.737C467.268 113.737 466.654 113.246 466.654 112.416C466.654 111.126 467.268 110.604 468.221 109.713C469.48 108.515 472.03 106.242 473.535 104.798C475.839 102.586 478.665 99.8211 479.863 98.408C480.416 97.7629 480.109 97.425 479.341 97.64C478.235 97.9165 475.747 98.8381 474.15 99.6368C473.197 100.19 472.829 100.743 472.122 100.743C470.617 100.743 469.326 99.4218 468.989 98.3773C468.774 97.7014 468.835 97.0256 468.989 96.319ZM477.529 91.6189C476.423 91.3117 474.119 90.728 472.398 88.1782L472.767 87.8096C474.795 89.1613 476.546 89.7142 478.327 89.7757C479.433 89.7757 479.986 89.4992 480.539 89.4992C481.737 89.4992 483.12 90.4822 483.12 91.6803C483.12 92.2026 482.751 92.6941 481.86 92.6941C481 92.6941 480.294 92.6019 479.495 92.6326C478.205 92.6941 475.593 93.4928 474.242 93.8614L473.996 93.2778C475.255 92.7248 476.638 92.0797 477.529 91.6189ZM501.429 89.3149L501.798 89.2227C502.289 90.1443 502.873 91.3117 503.518 91.3424C504.532 91.3731 508.064 90.513 510 89.9293C511.106 89.5914 511.198 89.0384 511.843 89.0384C512.918 89.0384 515.253 90.8202 515.253 91.9261C515.253 92.6326 514.485 92.7248 513.809 93.2778C511.014 95.6125 507.174 98.5309 503.886 101.541C503.764 101.695 503.825 101.787 503.979 101.756C506.436 101.111 510.491 99.8518 512.58 99.2989C514.792 98.6845 516.144 98.2544 517.28 98.2544C518.601 98.2544 520.414 98.8995 520.414 100.036C520.414 100.712 519.892 101.142 518.601 101.142C517.895 101.142 516.942 101.081 515.714 101.111C513.563 101.204 510.583 101.756 508.955 102.924C507.634 103.907 506.406 105.289 506.406 107.685C506.436 109.867 508.064 110.972 510.583 111.403C512.242 111.679 513.594 111.464 514.454 111.618C515.161 111.74 515.99 112.57 515.99 113.338C515.99 114.352 515.191 114.72 513.625 114.72C512.334 114.72 510.676 114.536 509.6 114.26C506.774 113.492 504.593 111.618 504.593 108.515C504.593 105.719 506.252 103.876 507.665 102.647C507.972 102.34 507.911 102.187 507.481 102.309C505.515 102.893 503.149 103.815 501.767 104.644C499.862 105.781 499.248 106.641 498.203 106.641C497.405 106.641 496.483 105.627 496.483 104.798C496.483 104.153 496.729 103.753 497.405 103.508C498.142 103.262 499.309 102.893 500.139 102.494C501.49 101.818 502.934 100.651 504.501 99.1146C506.129 97.5786 509.723 93.8614 511.044 91.7725C511.382 91.2502 511.198 91.1274 510.676 91.3424C509.385 91.6803 507.419 92.6326 506.252 93.2163C505.177 93.7693 504.747 94.2915 503.917 94.2915C503.026 94.2915 500.999 92.6634 500.999 91.1581C500.968 90.6666 501.214 89.8371 501.429 89.3149ZM530.644 96.8413L531.135 96.7184C531.534 97.7322 532.21 98.623 532.917 98.623C534.545 98.623 538.262 96.2576 541.549 96.2576C545.113 96.2576 547.386 98.8995 547.386 103.231C547.386 110.235 542.01 114.014 533.009 115.181L532.794 114.505C540.198 112.57 544.345 108.914 544.345 102.832C544.345 99.6368 543.177 97.7014 541.273 97.7014C539.337 97.7014 536.788 99.6061 535.559 100.558C534.883 101.111 534.176 101.941 533.316 101.941C532.149 101.941 530.797 100.436 530.459 99.4218C530.214 98.6845 530.429 97.7322 530.644 96.8413ZM538.6 91.4346C537.402 91.2195 534.852 90.8816 533.286 88.3011L533.623 87.9325C535.62 89.3456 537.617 89.5606 539.276 89.5606C540.535 89.5606 541.457 89.2227 542.01 89.2227C543.331 89.2227 544.99 90.0214 544.99 91.0659C544.99 91.5882 544.56 91.9261 543.7 91.9568C543.085 91.9568 542.01 92.0182 541.119 92.2333C539.399 92.6019 536.665 93.6157 535.19 94.1686L534.914 93.6464C536.173 92.9398 537.74 92.0182 538.6 91.4346Z" fill="#00AFA1"/>
<path d="M1.52372 56.2905H20.2889V58.905H1.52372V56.2905ZM12.3612 57.3447C12.7828 58.9472 13.3662 60.4442 14.1112 61.8357C14.8562 63.2273 15.7768 64.4432 16.8732 65.4834C17.9837 66.5235 19.2769 67.3458 20.7528 67.9502C20.5419 68.133 20.317 68.3649 20.0781 68.646C19.8532 68.9272 19.6283 69.2153 19.4034 69.5105C19.1925 69.8197 19.0168 70.0938 18.8763 70.3328C17.2598 69.5738 15.8682 68.5968 14.7015 67.4021C13.5489 66.2073 12.579 64.8157 11.7919 63.2273C11.0047 61.6249 10.3441 59.8608 9.80993 57.9351L12.3612 57.3447ZM9.45149 50.6188H12.2136C12.1995 51.6871 12.1644 52.8186 12.1081 54.0134C12.066 55.1941 11.9605 56.3959 11.7919 57.6188C11.6232 58.8417 11.3491 60.0576 10.9696 61.2665C10.6041 62.4613 10.084 63.6139 9.40932 64.7243C8.74868 65.8207 7.89124 66.8468 6.83702 67.8027C5.79685 68.7585 4.52475 69.6019 3.02072 70.3328C2.82393 69.9954 2.54983 69.623 2.19843 69.2153C1.84702 68.8077 1.48858 68.4703 1.12312 68.2033C2.55686 67.5567 3.75868 66.8117 4.72857 65.9683C5.69845 65.1109 6.48561 64.1902 7.09003 63.2062C7.70851 62.2082 8.17939 61.1751 8.50269 60.1068C8.82599 59.0245 9.04386 57.9351 9.15631 56.8387C9.28282 55.7423 9.36013 54.667 9.38824 53.6128C9.41635 52.5586 9.43744 51.5606 9.45149 50.6188ZM44.0722 53.5495C44.0722 53.8869 44.1847 54.175 44.4096 54.414C44.6485 54.653 44.9367 54.7724 45.274 54.7724C45.6114 54.7724 45.8996 54.653 46.1385 54.414C46.3775 54.175 46.4969 53.8869 46.4969 53.5495C46.4969 53.2122 46.3775 52.924 46.1385 52.6851C45.8996 52.4461 45.6114 52.3266 45.274 52.3266C44.9367 52.3266 44.6485 52.4461 44.4096 52.6851C44.1847 52.924 44.0722 53.2122 44.0722 53.5495ZM42.765 53.5495C42.765 53.0857 42.8774 52.664 43.1023 52.2845C43.3272 51.9049 43.6295 51.6027 44.009 51.3778C44.3885 51.1389 44.8102 51.0194 45.274 51.0194C45.7379 51.0194 46.1596 51.1389 46.5391 51.3778C46.9186 51.6027 47.2208 51.9049 47.4457 52.2845C47.6847 52.664 47.8042 53.0857 47.8042 53.5495C47.8042 54.0134 47.6847 54.4351 47.4457 54.8146C47.2208 55.1941 46.9186 55.5034 46.5391 55.7423C46.1596 55.9672 45.7379 56.0797 45.274 56.0797C44.8102 56.0797 44.3885 55.9672 44.009 55.7423C43.6295 55.5034 43.3272 55.1941 43.1023 54.8146C42.8774 54.4351 42.765 54.0134 42.765 53.5495ZM34.2258 52.3477C34.1695 52.671 34.1274 53.0435 34.0993 53.4652C34.0712 53.8869 34.0571 54.2453 34.0571 54.5405C34.0571 54.7514 34.0571 55.1238 34.0571 55.658C34.0571 56.1781 34.0571 56.7966 34.0571 57.5134C34.0571 58.2303 34.0571 58.9823 34.0571 59.7695C34.0571 60.5426 34.0571 61.2946 34.0571 62.0255C34.0571 62.7424 34.0571 63.3819 34.0571 63.9442C34.0571 64.5064 34.0571 64.9211 34.0571 65.1882C34.0571 65.638 34.1695 65.9472 34.3944 66.1159C34.6193 66.2846 34.9637 66.4181 35.4276 66.5165C35.7509 66.5587 36.1234 66.5938 36.5451 66.6219C36.9668 66.636 37.4095 66.643 37.8734 66.643C38.4216 66.643 39.026 66.629 39.6867 66.6008C40.3614 66.5587 41.0361 66.5095 41.7108 66.4533C42.3995 66.397 43.0461 66.3197 43.6505 66.2213C44.255 66.1229 44.775 66.0175 45.2108 65.9051V68.9834C44.5501 69.0818 43.7841 69.1591 42.9126 69.2153C42.0411 69.2856 41.1485 69.3348 40.2349 69.3629C39.3352 69.4051 38.4919 69.4262 37.7047 69.4262C37.016 69.4262 36.3623 69.4051 35.7439 69.3629C35.1394 69.3207 34.6123 69.2645 34.1625 69.1942C33.2489 69.0115 32.539 68.6671 32.033 68.1611C31.527 67.641 31.2739 66.9312 31.2739 66.0316C31.2739 65.6239 31.2739 65.0968 31.2739 64.4502C31.2739 63.7896 31.2739 63.0657 31.2739 62.2785C31.2739 61.4773 31.2739 60.6761 31.2739 59.8749C31.2739 59.0596 31.2739 58.2936 31.2739 57.5767C31.2739 56.8457 31.2739 56.2132 31.2739 55.6791C31.2739 55.1449 31.2739 54.7654 31.2739 54.5405C31.2739 54.3859 31.2669 54.175 31.2529 53.908C31.2388 53.6409 31.2177 53.3668 31.1896 53.0857C31.1755 52.8046 31.1474 52.5586 31.1053 52.3477H34.2258ZM32.8342 58.8207C33.5089 58.6801 34.2258 58.5114 34.9848 58.3146C35.7439 58.1038 36.5099 57.8789 37.283 57.6399C38.0561 57.401 38.7871 57.162 39.4758 56.9231C40.1786 56.67 40.8041 56.4241 41.3523 56.1851C41.7319 56.0445 42.1043 55.8829 42.4698 55.7002C42.8493 55.5174 43.2429 55.2996 43.6505 55.0465L44.7891 57.7243C44.3815 57.8789 43.9528 58.0546 43.5029 58.2514C43.0672 58.4341 42.6736 58.5887 42.3222 58.7152C41.7037 58.9542 40.9939 59.2072 40.1927 59.4743C39.4055 59.7414 38.5832 60.0084 37.7258 60.2755C36.8684 60.5285 36.018 60.7675 35.1746 60.9924C34.3453 61.2173 33.5722 61.4141 32.8553 61.5827L32.8342 58.8207ZM60.244 52.4953C60.6095 52.7483 61.0382 53.0576 61.5302 53.423C62.0222 53.7885 62.5282 54.1891 63.0483 54.6248C63.5824 55.0465 64.0814 55.4612 64.5453 55.8688C65.0091 56.2765 65.3887 56.6419 65.6838 56.9652L63.5332 59.158C63.2661 58.8628 62.9147 58.5114 62.479 58.1038C62.0432 57.6962 61.5724 57.2745 61.0663 56.8387C60.5603 56.403 60.0613 55.9883 59.5693 55.5947C59.0774 55.2012 58.6416 54.8708 58.2621 54.6038L60.244 52.4953ZM57.6085 66.5376C58.7049 66.383 59.738 66.1651 60.7079 65.884C61.6778 65.6028 62.5774 65.2795 63.4067 64.9141C64.236 64.5486 64.9951 64.1691 65.6838 63.7755C66.8786 63.0586 67.975 62.2434 68.973 61.3297C69.971 60.4161 70.8425 59.4673 71.5875 58.4833C72.3325 57.4853 72.9228 56.5154 73.3586 55.5737L75.0032 58.5466C74.469 59.4883 73.8084 60.4301 73.0212 61.3719C72.2481 62.3137 71.3696 63.2133 70.3857 64.0707C69.4017 64.9141 68.3405 65.6731 67.2019 66.3478C66.485 66.7836 65.7119 67.1982 64.8826 67.5918C64.0533 67.9713 63.1748 68.3087 62.2471 68.6039C61.3334 68.9131 60.3776 69.1521 59.3796 69.3207L57.6085 66.5376ZM85.7984 53.3809C86.3326 53.3809 87.0143 53.3809 87.8436 53.3809C88.673 53.3668 89.5444 53.3387 90.4581 53.2965C91.3718 53.2403 92.2152 53.156 92.9882 53.0435C93.5224 52.9732 94.0425 52.8889 94.5485 52.7905C95.0686 52.6921 95.5606 52.5937 96.0244 52.4953C96.5023 52.3829 96.9311 52.2634 97.3106 52.1369C97.7041 52.0104 98.0345 51.8909 98.3015 51.7784L100.03 54.0977C99.665 54.1821 99.3487 54.2594 99.0817 54.3297C98.8146 54.3999 98.5897 54.4562 98.407 54.4983C97.9712 54.6108 97.5003 54.7232 96.9943 54.8357C96.4883 54.9341 95.9682 55.0255 95.4341 55.1098C94.8999 55.1941 94.3587 55.2785 93.8105 55.3628C93.0093 55.4753 92.1589 55.5596 91.2593 55.6158C90.3597 55.672 89.4882 55.7212 88.6448 55.7634C87.8015 55.7915 87.0705 55.8126 86.4521 55.8267L85.7984 53.3809ZM86.7051 67.9081C87.942 67.3458 88.9541 66.6641 89.7412 65.8629C90.5424 65.0476 91.1328 64.1129 91.5123 63.0586C91.9059 61.9904 92.1027 60.7956 92.1027 59.4743C92.1027 59.4743 92.1027 59.3197 92.1027 59.0104C92.1027 58.6871 92.1027 58.2092 92.1027 57.5767C92.1027 56.9301 92.1027 56.1148 92.1027 55.1309L94.8648 54.8146C94.8648 55.1801 94.8648 55.5737 94.8648 55.9953C94.8648 56.403 94.8648 56.8106 94.8648 57.2182C94.8648 57.6259 94.8648 57.9984 94.8648 58.3357C94.8648 58.659 94.8648 58.9261 94.8648 59.1369C94.8648 59.3337 94.8648 59.4321 94.8648 59.4321C94.8648 60.8377 94.6891 62.1731 94.3377 63.4382C94.0003 64.7032 93.431 65.8699 92.6298 66.9382C91.8286 67.9924 90.7463 68.9272 89.3828 69.7424L86.7051 67.9081ZM84.2171 58.4201C84.5123 58.4482 84.8286 58.4763 85.1659 58.5044C85.5033 58.5325 85.8336 58.5466 86.1569 58.5466C86.3537 58.5466 86.7262 58.5466 87.2744 58.5466C87.8225 58.5466 88.4832 58.5466 89.2563 58.5466C90.0434 58.5466 90.8868 58.5466 91.7864 58.5466C92.686 58.5466 93.5856 58.5466 94.4852 58.5466C95.3849 58.5466 96.2282 58.5466 97.0154 58.5466C97.8025 58.5466 98.4772 58.5466 99.0395 58.5466C99.6018 58.5466 99.9813 58.5466 100.178 58.5466C100.333 58.5466 100.529 58.5395 100.768 58.5255C101.007 58.5114 101.246 58.4974 101.485 58.4833C101.738 58.4552 101.942 58.4341 102.097 58.4201V61.14C101.816 61.1118 101.506 61.0908 101.169 61.0767C100.846 61.0626 100.536 61.0556 100.241 61.0556C100.045 61.0556 99.665 61.0556 99.1028 61.0556C98.5546 61.0556 97.8799 61.0556 97.0786 61.0556C96.2915 61.0556 95.4411 61.0556 94.5274 61.0556C93.6278 61.0556 92.7212 61.0556 91.8075 61.0556C90.9079 61.0556 90.0645 61.0556 89.2774 61.0556C88.4902 61.0556 87.8225 61.0556 87.2744 61.0556C86.7262 61.0556 86.3677 61.0556 86.199 61.0556C85.8757 61.0556 85.5314 61.0626 85.1659 61.0767C84.8004 61.0908 84.4842 61.1118 84.2171 61.14V58.4201Z" fill="#00AFA1"/>
<path d="M134.123 70.6938L144.977 72.0601V74.4131H112.414V72.0601L123.648 70.6938C123.8 65.9877 123.876 61.2817 123.876 56.5756V23.6332L114.008 24.6199V21.8115L133.136 17.2572L134.199 18.0922L133.895 30.3128V56.5756C133.895 61.2817 133.971 65.9877 134.123 70.6938Z" fill="#00AFA1"/>
<g clip-path="url(#clip0_201_17337)">
<path d="M54.8251 89.3182C55.0205 89.2748 55.2159 89.2314 55.4113 89.188C55.4113 89.0578 55.4358 88.9493 55.4602 88.8191C55.6556 88.7757 55.851 88.7323 56.0464 88.6889C56.4372 88.3851 56.0952 88.2549 56.7059 87.9945C56.7791 87.4954 56.828 86.9963 56.9013 86.4972C56.7303 86.4104 56.5349 86.3237 56.3639 86.2586C56.1929 86.0416 56.022 85.8463 55.8754 85.6293C55.1671 85.2387 50.9172 84.4575 49.354 84.5877C49.354 84.6528 49.354 84.7179 49.3295 84.783C48.6701 84.7179 47.9862 84.6528 47.3267 84.5877C47.3267 84.6528 47.3267 84.7179 47.3023 84.783C46.7161 84.783 46.1543 84.783 45.5681 84.783V84.9783C45.3483 84.9783 45.1529 84.9349 44.9819 84.9132C44.9819 84.9783 44.9819 85.0434 44.9819 85.1085C44.6888 85.0868 44.4201 85.0434 44.127 85.0217C44.127 85.0868 44.127 85.1519 44.127 85.217C43.3698 85.217 42.5882 85.1953 41.8066 85.1736V85.3689C41.5868 85.3689 41.3914 85.3255 41.2204 85.3038C41.2204 85.3689 41.2204 85.434 41.196 85.4991C40.9029 85.4774 40.6342 85.434 40.3411 85.4123C40.3411 85.4774 40.3411 85.5425 40.3167 85.6076L39.1443 85.6727V85.868C38.8268 85.8463 38.5581 85.8029 38.265 85.7812C38.265 85.8463 38.265 85.9114 38.2406 85.9765C37.8498 85.9982 37.459 86.0199 37.0682 86.0416C37.0682 86.1067 37.0682 86.1718 37.0682 86.2369C36.0912 86.3237 35.1142 86.4104 34.1372 86.4972L33.7953 86.8444C33.5999 86.8444 33.4045 86.801 33.2335 86.7793C33.2335 86.8444 33.2335 86.9095 33.2091 86.9746C32.8183 86.9963 32.4275 87.018 32.0367 87.0397V87.235C31.426 87.235 30.8643 87.235 30.2781 87.235C30.2781 87.3001 30.2781 87.3652 30.2781 87.4303C30.0827 87.4303 29.8873 87.3869 29.7163 87.3652C29.5942 87.4737 29.4965 87.5822 29.3743 87.7124C28.7881 87.7775 28.2019 87.8426 27.6157 87.9077C27.4936 88.0162 27.3959 88.1464 27.2738 88.2549C26.7853 88.2549 26.2968 88.2766 25.8327 88.2983C25.8327 88.3634 25.8327 88.4285 25.8083 88.4936C25.6129 88.4936 25.4175 88.4502 25.2465 88.4285C25.1488 88.537 25.0267 88.6672 24.9046 88.7757L23.7322 88.8408C23.61 88.9493 23.5123 89.0795 23.3902 89.188C23.1948 89.188 22.9994 89.1446 22.8284 89.1229L22.2178 89.4484C22.0224 89.4484 21.827 89.405 21.656 89.3833C21.656 89.4484 21.656 89.5134 21.6316 89.5785C21.4362 89.5785 21.2408 89.5351 21.0699 89.5134C20.9477 89.6219 20.85 89.7521 20.7279 89.8606C20.4348 89.904 20.1417 89.9257 19.8486 89.9691V90.1644C19.238 90.2295 18.6518 90.2946 18.0656 90.3597C18.0656 90.4248 18.0656 90.4899 18.0412 90.555C17.7481 90.5984 17.455 90.6201 17.1619 90.6635L16.8199 91.0107C16.6245 91.0107 16.4291 90.9673 16.2581 90.9456C15.9406 91.1626 15.6231 91.3796 15.3056 91.5966C14.8171 91.5966 14.3286 91.6183 13.8645 91.64C13.547 91.857 13.2294 92.074 12.9119 92.291C12.7165 92.291 12.5211 92.2476 12.3501 92.2259C12.228 92.3344 12.1303 92.4646 12.0082 92.5731C11.7151 92.6165 11.422 92.6382 11.1289 92.6815C11.1289 92.7466 11.1289 92.8117 11.1045 92.8768C10.9091 92.8768 10.7137 92.8334 10.5427 92.8117C10.3229 92.9853 10.103 93.1372 9.90764 93.3108C9.71224 93.3108 9.51684 93.2674 9.34587 93.2457C9.12604 93.4193 8.93064 93.5712 8.71082 93.7448C8.51542 93.7448 8.32002 93.7014 8.14905 93.6797C8.02692 93.7882 7.92922 93.9184 7.8071 94.0269C7.6117 94.0269 7.4163 93.9835 7.24532 93.9618C6.31717 94.5043 5.3646 95.0251 4.43645 95.5676C4.33875 96.4138 4.4853 96.6091 4.82725 97.1082C5.29132 97.1516 5.77982 97.195 6.2439 97.2601C6.75682 96.9346 7.29417 96.6091 7.8071 96.2836C8.32002 96.0883 8.83294 95.893 9.32144 95.6761C9.44357 95.5676 9.54127 95.4374 9.66339 95.3289C9.85879 95.3289 10.0542 95.3723 10.2252 95.394C10.5427 95.177 10.8602 94.96 11.1777 94.743C11.3731 94.743 11.5685 94.7864 11.7395 94.8081C12.057 94.5911 12.3746 94.3741 12.6921 94.1571C12.8875 94.1571 13.0829 94.2005 13.2539 94.2222C13.376 94.1137 13.4737 93.9835 13.5958 93.875C13.7912 93.875 13.9866 93.9184 14.1576 93.9401C14.3774 93.7665 14.5972 93.6146 14.7926 93.441C15.0857 93.3976 15.3788 93.3759 15.6719 93.3325C15.7941 93.224 15.8918 93.0938 16.0139 92.9853C16.6001 92.9202 17.1863 92.8551 17.7725 92.79C17.8702 92.6815 17.9923 92.5514 18.1144 92.4429C18.3098 92.4429 18.5052 92.4863 18.6762 92.508C18.896 92.3344 19.0914 92.1825 19.3113 92.0089C19.5067 92.0089 19.7021 92.0523 19.873 92.074C19.9952 91.9655 20.0929 91.8353 20.215 91.7268C20.6058 91.7051 20.9966 91.6834 21.3874 91.6617C21.5095 91.5532 21.6072 91.423 21.7293 91.3145C21.9247 91.3145 22.1201 91.3579 22.2911 91.3796L22.633 91.0324C22.8284 91.0324 23.0238 91.0758 23.1948 91.0975C23.3169 90.989 23.4146 90.8588 23.5368 90.7503C23.8299 90.772 24.0985 90.8154 24.3916 90.8371C24.3916 90.772 24.3916 90.7069 24.4161 90.6418C24.6115 90.6418 24.8069 90.6852 24.9778 90.7069C25.1 90.5984 25.1977 90.4682 25.3198 90.3597C25.7106 90.338 26.1014 90.3163 26.4922 90.2946C26.5899 90.1861 26.712 90.0559 26.8341 89.9474C27.0295 89.9474 27.2249 89.9908 27.3959 90.0125C27.3959 89.9474 27.3959 89.8823 27.4203 89.8172C27.6157 89.8172 27.8111 89.8606 27.9821 89.8823C27.9821 89.8172 27.9821 89.7521 28.0065 89.687C28.2996 89.7087 28.5683 89.7521 28.8614 89.7738V89.5785C29.472 89.5134 30.0582 89.4484 30.6444 89.3833C30.6444 89.3182 30.6444 89.2531 30.6444 89.188C30.8398 89.188 31.0352 89.2314 31.2062 89.2531C31.3283 89.1446 31.426 89.0144 31.5482 88.9059C31.7436 88.9059 31.939 88.9493 32.1099 88.971L32.7206 88.6455C33.7953 88.4936 34.87 88.3634 35.9691 88.2115C36.0912 88.103 36.1889 87.9728 36.311 87.8643C36.8972 87.8643 37.459 87.8643 38.0452 87.8643C38.0452 87.7992 38.0452 87.7341 38.0696 87.669C38.4604 87.6473 38.8512 87.6256 39.242 87.6039V87.4086C39.5595 87.4303 39.8282 87.4737 40.1213 87.4954C40.1213 87.4303 40.1213 87.3652 40.1457 87.3001C40.3411 87.3001 40.5365 87.3435 40.7075 87.3652C40.7075 87.3001 40.7075 87.235 40.7319 87.1699C41.025 87.1916 41.2937 87.235 41.5868 87.2567C41.5868 87.1916 41.5868 87.1265 41.6112 87.0614C41.8066 87.0614 42.002 87.1048 42.173 87.1265C42.173 87.0614 42.173 86.9963 42.1974 86.9312C42.4905 86.9529 42.7592 86.9963 43.0523 87.018C43.0523 86.9529 43.0523 86.8878 43.0767 86.8227C43.2721 86.8227 43.4675 86.8661 43.6385 86.8878V86.6925C44.0537 86.7359 44.4201 86.7793 44.8109 86.801C44.8109 86.7359 44.8109 86.6708 44.8353 86.6057C45.1284 86.6274 45.3971 86.6708 45.6902 86.6925V86.4972C46.1054 86.5406 46.4718 86.5623 46.8626 86.6057C46.8626 86.5406 46.8626 86.4755 46.8626 86.4104C47.1557 86.4321 47.4244 86.4755 47.7175 86.4972C47.7175 86.4321 47.7175 86.367 47.7419 86.302C48.9876 86.1501 49.1586 86.6491 50.0623 86.1501C51.308 86.2803 52.5292 86.4104 53.7749 86.5189C53.7749 86.5189 54.1168 86.8661 54.2878 86.9529C54.068 87.1699 53.7993 87.1699 53.6772 87.2784C53.6772 87.4086 53.6528 87.5171 53.6283 87.6473C53.4329 87.6907 53.2375 87.7341 53.0421 87.7775C53.0421 87.9077 53.0177 88.0162 52.9933 88.1464L52.3827 88.4719C52.3827 88.6021 52.3582 88.7106 52.3338 88.8408C52.1384 88.8842 51.943 88.9276 51.7476 88.971C51.7476 89.1012 51.7232 89.2097 51.6988 89.3399C51.5034 89.3833 51.308 89.4267 51.1126 89.4701C50.7462 89.7738 51.0637 89.8823 50.4531 90.1644C50.2821 91.6183 49.9402 92.7466 51.5034 93.2891C52.6025 93.6797 56.0708 93.0504 56.7547 92.8768C56.7547 92.8117 56.7547 92.7466 56.7791 92.6815C56.9745 92.6815 57.1699 92.7249 57.3409 92.7466C57.3409 92.6815 57.3409 92.6165 57.3409 92.5514C57.5363 92.5514 57.7317 92.5948 57.9027 92.6165C57.9027 92.5514 57.9027 92.4863 57.9027 92.4212C58.1958 92.4429 58.4645 92.4863 58.7576 92.508C58.7576 92.4429 58.7576 92.3778 58.7576 92.3127C58.953 92.3127 59.1484 92.3561 59.3193 92.3778V92.1825C59.93 92.1174 60.5162 92.0523 61.1024 91.9872C61.1024 91.9221 61.1024 91.857 61.1268 91.7919C61.3222 91.7919 61.5176 91.8353 61.6886 91.857C61.6886 91.7919 61.6886 91.7268 61.6886 91.6617C61.9817 91.6834 62.2503 91.7268 62.5434 91.7485C62.5434 91.6834 62.5434 91.6183 62.5679 91.5532C62.7633 91.5532 62.9587 91.5966 63.1296 91.6183C63.1296 91.5532 63.1296 91.4881 63.1296 91.423C63.5204 91.4013 63.9112 91.3796 64.302 91.3579C64.302 91.2928 64.302 91.2277 64.3265 91.1626C64.9127 91.1626 65.4744 91.1626 66.0606 91.1626C66.1583 91.0541 66.2805 90.9239 66.4026 90.8154C66.598 90.8154 66.7934 90.8588 66.9644 90.8805C66.9644 90.8154 66.9644 90.7503 66.9888 90.6852C67.3796 90.6635 67.7704 90.6418 68.1612 90.6201C68.1612 90.555 68.1612 90.4899 68.1856 90.4248C68.8695 90.4248 69.529 90.4248 70.2129 90.4248V90.2295C70.4327 90.2295 70.6281 90.2729 70.7991 90.2946C70.7991 90.2295 70.7991 90.1644 70.8235 90.0993C71.312 90.0993 71.8005 90.0776 72.2646 90.0559C72.3867 89.9474 72.4844 89.8172 72.6065 89.7087C72.9973 89.7521 73.3637 89.7738 73.7545 89.8172C73.7545 89.7521 73.7545 89.687 73.7789 89.6219C74.4628 89.6219 75.1223 89.6219 75.8062 89.6219V89.4267C76.2214 89.4701 76.5878 89.5134 76.9786 89.5351C76.9786 89.6002 76.9786 89.6653 76.9786 89.7304C77.6136 90.3163 76.6611 91.3796 76.9542 92.1825C77.0519 92.1825 77.1496 92.1825 77.2473 92.2042C77.2228 92.3995 77.1984 92.5731 77.174 92.7683C77.2717 92.7683 77.3694 92.7683 77.4671 92.79C77.4671 92.9202 77.4427 93.0287 77.4182 93.1589C77.5159 93.1589 77.6136 93.1589 77.7113 93.1806C77.8823 93.3759 78.0533 93.5929 78.1998 93.7882C79.1524 94.0052 80.1294 94.6345 81.5705 94.5043V94.309C82.3521 94.309 83.1337 94.3307 83.8909 94.3524C84.013 94.2439 84.1107 94.1137 84.2328 94.0052C84.4282 94.0052 84.6236 94.0486 84.7946 94.0703C84.7946 94.0052 84.7946 93.9401 84.819 93.875C85.6983 93.8316 86.5532 93.7882 87.4325 93.7665C87.5546 93.658 87.6523 93.5278 87.7744 93.4193C88.1652 93.3976 88.556 93.3759 88.9468 93.3542C88.9468 93.2891 88.9468 93.224 88.9713 93.1589C89.3621 93.1372 89.7528 93.1155 90.1436 93.0938C90.1436 93.0287 90.1436 92.9636 90.1436 92.8985L90.9985 92.9853C90.9985 92.9853 90.9985 92.8551 91.0229 92.79C91.6091 92.7249 92.1953 92.6598 92.7815 92.5948C92.7815 92.5297 92.7815 92.4646 92.806 92.3995C93.3922 92.3344 93.9784 92.2693 94.5646 92.2042C94.6867 92.0957 94.7844 91.9655 94.9065 91.857C95.1996 91.8787 95.4683 91.9221 95.7614 91.9438C95.7614 91.8787 95.7614 91.8136 95.7614 91.7485C95.9568 91.7485 96.1522 91.7919 96.3232 91.8136C96.3232 91.7485 96.3232 91.6834 96.3476 91.6183C96.9338 91.5532 97.52 91.4881 98.1062 91.423C98.1062 91.3579 98.1062 91.2928 98.1306 91.2277C98.4237 91.2494 98.6924 91.2928 98.9855 91.3145C98.9855 91.2494 98.9855 91.1843 98.9855 91.1192C99.1809 91.1192 99.3763 91.1626 99.5473 91.1843C99.5473 91.1192 99.5473 91.0541 99.5717 90.989C99.7671 90.989 99.9625 91.0324 100.133 91.0541C100.133 90.989 100.133 90.9239 100.133 90.8588C100.964 90.7069 100.964 90.989 101.599 90.6201C101.99 90.6635 102.356 90.7069 102.747 90.7286V90.9239C102.747 90.9239 102.918 90.9239 103.016 90.9456C103.358 91.423 102.6 92.2042 102.527 92.3995C102.625 92.3995 102.722 92.3995 102.82 92.4212C102.771 92.7249 102.747 93.0504 102.698 93.3542C102.771 93.4844 103.089 93.3976 103.187 93.9835C103.455 94.0703 103.748 94.1571 104.017 94.2656C104.017 94.3307 104.017 94.3958 103.993 94.4609L104.847 94.5477C104.847 94.5477 104.847 94.6779 104.823 94.743C106.679 95.3506 108.707 94.8081 109.757 94.6779C110.148 94.7213 110.514 94.743 110.905 94.7864C110.905 94.7213 110.905 94.6562 110.929 94.5911C111.222 94.6128 111.491 94.6562 111.784 94.6779C111.784 94.6128 111.784 94.5477 111.809 94.4826C112.102 94.5043 112.37 94.5477 112.663 94.5694V94.3741C112.981 94.3958 113.25 94.4392 113.543 94.4609C113.543 94.3958 113.543 94.3307 113.567 94.2656C113.86 94.2873 114.129 94.3307 114.422 94.3524C114.422 94.2873 114.422 94.2222 114.422 94.1571L115.594 94.092C115.594 94.092 115.594 93.9618 115.619 93.8967C115.814 93.8967 116.01 93.9401 116.181 93.9618C116.181 93.8967 116.181 93.8316 116.205 93.7665C116.498 93.7882 116.767 93.8316 117.06 93.8533C117.06 93.7882 117.06 93.7231 117.084 93.658C117.28 93.658 117.475 93.7014 117.646 93.7231C117.646 93.658 117.646 93.5929 117.646 93.5278C118.037 93.5712 118.403 93.6146 118.794 93.6363C118.794 93.5712 118.794 93.5061 118.819 93.441C119.014 93.441 119.209 93.4844 119.38 93.5061V93.3108C119.6 93.3108 119.796 93.3542 119.967 93.3759C120.089 93.2674 120.186 93.1589 120.308 93.0287C120.992 93.0287 121.652 93.0287 122.336 93.0287C122.336 92.9636 122.336 92.8985 122.336 92.8334C122.531 92.8334 122.727 92.8768 122.898 92.8985C122.898 92.8334 122.898 92.7683 122.922 92.7032C123.508 92.7032 124.07 92.7032 124.656 92.7032V92.508C125.071 92.5514 125.438 92.5948 125.829 92.6165C125.951 92.508 126.048 92.3778 126.17 92.2693C126.366 92.2693 126.561 92.3127 126.732 92.3344C126.732 92.2693 126.732 92.2042 126.757 92.1391C127.734 92.1174 128.686 92.074 129.663 92.0523C129.663 91.9872 129.663 91.9221 129.688 91.857C129.981 91.8787 130.249 91.9221 130.543 91.9438C130.543 91.8787 130.543 91.8136 130.567 91.7485C130.86 91.7702 131.129 91.8136 131.422 91.8353C131.422 91.7702 131.422 91.7051 131.446 91.64C131.739 91.6617 132.008 91.7051 132.301 91.7268V91.5315C132.619 91.5532 132.887 91.5966 133.18 91.6183C133.18 91.5532 133.18 91.4881 133.205 91.423C133.4 91.423 133.596 91.4664 133.767 91.4881C133.767 91.423 133.767 91.3579 133.791 91.2928C134.084 91.3145 134.353 91.3579 134.646 91.3796C134.646 91.3145 134.646 91.2494 134.646 91.1843C135.037 91.2277 135.403 91.2711 135.794 91.2928V91.0975C136.111 91.1192 136.38 91.1626 136.673 91.1843C136.673 91.1192 136.673 91.0541 136.698 90.989C136.991 91.0107 137.259 91.0541 137.553 91.0758C137.553 91.0107 137.553 90.9456 137.553 90.8805C137.943 90.9239 138.31 90.9673 138.7 90.989C138.7 90.9239 138.7 90.8588 138.725 90.7937L140.142 90.9456C140.142 90.9456 140.142 90.8154 140.166 90.7503C140.557 90.7286 140.948 90.7069 141.338 90.6852C141.338 90.6201 141.338 90.555 141.363 90.4899C141.851 90.5333 142.315 90.5767 142.804 90.6418V90.4465C143.121 90.4682 143.39 90.5116 143.683 90.5333C143.683 90.4682 143.683 90.4031 143.683 90.338C145.271 90.0993 145.955 90.5333 146.956 89.7304C147.054 89.7304 147.152 89.7304 147.249 89.7521L147.054 88.971C143.927 88.6889 141.876 88.8842 139.507 89.1446C138.749 89.1446 137.968 89.1229 137.211 89.1012C137.211 89.1663 137.211 89.2314 137.186 89.2965C136.991 89.2965 136.795 89.2531 136.624 89.2314C136.624 89.2965 136.624 89.3616 136.6 89.4267C136.014 89.4267 135.452 89.4267 134.866 89.4267C134.866 89.4918 134.866 89.5568 134.841 89.6219C134.06 89.6219 133.303 89.6002 132.521 89.5785C132.521 89.6436 132.521 89.7087 132.521 89.7738L131.666 89.687C131.666 89.687 131.666 89.8172 131.642 89.8823C131.349 89.8606 131.08 89.8172 130.787 89.7955C130.787 89.8606 130.787 89.9257 130.762 89.9908C130.469 89.9691 130.201 89.9257 129.907 89.904C129.907 89.9691 129.907 90.0342 129.883 90.0993C129.688 90.0993 129.492 90.0559 129.321 90.0342C129.321 90.0993 129.321 90.1644 129.297 90.2295C128.906 90.1861 128.54 90.1427 128.149 90.121V90.3163C127.831 90.2946 127.563 90.2512 127.27 90.2295V90.4248C126.952 90.4031 126.683 90.3597 126.39 90.338V90.5333C126.073 90.5116 125.804 90.4682 125.511 90.4465C125.511 90.5116 125.511 90.5767 125.487 90.6418C125.193 90.6201 124.925 90.5767 124.632 90.555V90.7503C124.412 90.7503 124.216 90.7069 124.046 90.6852C124.046 90.7503 124.045 90.8154 124.021 90.8805C123.533 90.8805 123.044 90.9022 122.58 90.9239C122.58 90.989 122.58 91.0541 122.58 91.1192C122.189 91.0758 121.823 91.0541 121.432 91.0107C121.432 91.0758 121.432 91.1409 121.408 91.206C121.212 91.206 121.017 91.1626 120.846 91.1409V91.3362C120.235 91.3362 119.673 91.3362 119.087 91.3362C119.087 91.4013 119.087 91.4664 119.063 91.5315C118.672 91.5532 118.281 91.5749 117.89 91.5966C117.89 91.6617 117.89 91.7268 117.89 91.7919C117.695 91.7919 117.5 91.7485 117.329 91.7268C117.329 91.7919 117.329 91.857 117.304 91.9221C116.425 91.9655 115.57 91.9872 114.691 92.0306V92.2259C114.471 92.2259 114.276 92.1825 114.105 92.1608C114.105 92.2259 114.105 92.291 114.08 92.3561C113.494 92.3561 112.932 92.3561 112.346 92.3561C112.346 92.4212 112.346 92.4863 112.322 92.5514C111.931 92.5731 111.54 92.5948 111.149 92.6165C111.149 92.6815 111.149 92.7466 111.125 92.8117C110.832 92.79 110.563 92.7466 110.27 92.7249V92.9202C109.561 92.9202 108.902 92.9202 108.218 92.9202V93.1155C107.266 93.0504 105.824 92.9853 105.36 92.6382C105.263 92.6382 105.165 92.6382 105.067 92.6165C104.921 92.2476 105.263 92.3778 105.409 92.2693C105.507 91.5749 105.58 90.9022 105.678 90.2078C105.043 89.8389 104.432 89.4484 103.797 89.0795C101.648 88.9059 99.6694 88.971 97.9841 89.2531C97.9841 89.3182 97.9841 89.3833 97.9841 89.4484C97.4956 89.4484 97.0071 89.4701 96.543 89.4918C96.4209 89.6002 96.3232 89.7304 96.201 89.8389C96.0056 89.8389 95.8347 89.7955 95.6393 89.7738L95.0286 90.0993C93.9539 90.2512 92.8792 90.3814 91.7801 90.5333C91.6824 90.6418 91.5603 90.772 91.4382 90.8805C91.0474 90.9022 90.6566 90.9239 90.2658 90.9456C90.2658 91.0107 90.2658 91.0758 90.2413 91.1409C89.8505 91.1626 89.4598 91.1843 89.069 91.206C89.069 91.2711 89.0689 91.3362 89.0445 91.4013C88.4583 91.4013 87.8966 91.4013 87.3103 91.4013C87.3103 91.4664 87.3103 91.5315 87.3103 91.5966C87.115 91.5966 86.9196 91.5532 86.7486 91.5315C86.6265 91.64 86.5288 91.7702 86.4066 91.8787C86.0158 91.9004 85.625 91.9221 85.2342 91.9438C85.2342 92.0089 85.2342 92.074 85.2098 92.1391L84.0618 92.0306C84.0618 92.0306 84.0618 92.1608 84.0374 92.2259C83.842 92.2259 83.6466 92.1825 83.4756 92.1608C83.4756 92.2259 83.4756 92.291 83.4512 92.3561H81.717L81.6926 92.5514C80.0806 92.3778 80.0317 92.1608 79.2013 91.7268C79.2501 91.2928 79.3234 90.8588 79.3722 90.4248C79.4699 90.4248 79.5676 90.4248 79.6653 90.4465C79.9829 90.0559 80.3248 89.3833 79.8607 88.9493C79.6653 88.2332 79.0303 88.2332 78.5662 87.6907C77.5159 87.6473 76.4657 87.6039 75.391 87.5605C75.391 87.6256 75.391 87.6907 75.3665 87.7558C75.1711 87.7558 74.9757 87.7124 74.8048 87.6907C74.8048 87.7558 74.8048 87.8209 74.7803 87.886C74.3895 87.8426 74.0232 87.8209 73.6324 87.7775C73.6324 87.8426 73.6324 87.9077 73.6324 87.9728C73.3393 87.9511 73.0706 87.9077 72.7775 87.886C72.7775 87.9511 72.7775 88.0162 72.7531 88.0813C72.46 88.0596 72.1913 88.0162 71.8982 87.9945C71.8982 88.0596 71.8982 88.1247 71.8738 88.1898C71.5807 88.1681 71.312 88.1247 71.0189 88.103C71.0189 88.1681 71.0189 88.2332 70.9945 88.2983C70.7014 88.2766 70.4327 88.2332 70.1396 88.2115C70.1396 88.2766 70.1396 88.3417 70.1152 88.4068C69.7244 88.4285 69.3336 88.4502 68.9428 88.4719V88.6672C68.4299 88.6672 67.9414 88.6889 67.4773 88.7106C67.4773 88.7757 67.4773 88.8408 67.4529 88.9059C67.0621 88.8625 66.6957 88.8191 66.3049 88.7974C66.3049 88.8625 66.3049 88.9276 66.2805 88.9927C65.6943 89.0578 65.1081 89.1229 64.5219 89.188C64.5219 89.2531 64.5219 89.3182 64.5219 89.3833C64.2288 89.3616 63.9601 89.3182 63.667 89.2965C63.667 89.3616 63.667 89.4267 63.6426 89.4918C63.4472 89.4918 63.2518 89.4484 63.0808 89.4267C63.0808 89.4918 63.0808 89.5568 63.0564 89.6219C62.4702 89.687 61.884 89.7521 61.2978 89.8172C61.2978 89.8823 61.2978 89.9474 61.2978 90.0125C61.0047 89.9908 60.736 89.9474 60.4429 89.9257C60.4429 89.9908 60.4429 90.0559 60.4185 90.121C59.93 90.121 59.4415 90.1427 58.9774 90.1644C58.8553 90.2729 58.7576 90.4031 58.6354 90.5116C58.44 90.5116 58.2446 90.4682 58.0737 90.4465C58.0737 90.5116 58.0737 90.5767 58.0737 90.6418C57.8783 90.6418 57.6829 90.5984 57.5119 90.5767C57.5119 90.6418 57.5119 90.7069 57.4875 90.772C57.1944 90.7503 56.9257 90.7069 56.6326 90.6852V90.8805C56.2174 90.9022 55.8266 90.9239 55.4358 90.9456C55.4358 91.0107 55.4358 91.0758 55.4358 91.1409C55.1427 91.1192 54.874 91.0758 54.5809 91.0541C54.5809 91.1192 54.5809 91.1843 54.5565 91.2494C53.897 91.1409 53.8726 91.0975 53.4329 90.9456C53.7016 90.1644 54.239 90.0559 54.7763 89.5568C54.7763 89.4267 54.8007 89.3182 54.8251 89.188" fill="#00AFA1"/>
</g>
<defs>
<clipPath id="clip0_201_17337">
<rect width="143.375" height="12.6507" fill="white" transform="translate(4.2168 84.5879)"/>
</clipPath>
</defs>
</svg>
