<svg width="556" height="94" viewBox="0 0 556 94" fill="none" xmlns="http://www.w3.org/2000/svg">
<path d="M204.981 24.3903L208.022 27.2472C207.777 27.5544 207.439 27.6466 206.671 27.7388C206.333 29.1826 205.933 30.565 205.503 31.9167C206.363 37.7535 209.128 42.9144 216.163 46.1708L216.132 46.5394C214.627 46.7852 213.736 47.6453 213.429 49.3964C207.715 45.7407 205.749 39.2895 205.043 33.1455C202.247 40.4261 197.209 46.3858 187.102 49.4578L186.826 49.0277C196.595 44.6348 201.51 36.6476 203.414 27.0936H197.086C194.813 32.0703 191.71 35.6952 187.809 38.1836L187.471 37.9071C191.065 34.0056 194.229 27.7695 195.581 20.7653L200.004 22.0248C199.882 22.3935 199.513 22.67 198.776 22.67C198.376 23.9295 197.946 25.0661 197.455 26.2028H203.199L204.981 24.3903ZM231.032 32.1317H231.308C232.353 32.1317 235.855 31.8245 236.838 31.6709C237.729 31.548 238.097 30.8108 238.65 30.8108C239.664 30.8108 242.091 33.0533 242.091 34.0364C242.091 34.8044 240.739 35.0808 240.186 35.6645C238.558 37.2927 236.684 39.3816 234.38 41.532C235.394 42.2386 236.162 42.9452 236.684 43.5288C237.36 44.2661 238.128 45.3106 238.128 46.1708C238.128 47.0924 237.698 47.9525 236.623 47.9525C235.609 47.9525 235.271 47.3074 234.657 46.2629C232.813 43.1295 230.571 41.1327 227.468 38.798L227.867 38.245C229.987 38.9208 231.738 39.781 233.121 40.6719C235.148 38.1836 236.776 35.6952 237.667 33.9135C237.882 33.5141 237.729 33.3605 237.329 33.3605C236.254 33.3912 233.52 33.7292 232.475 33.8828C231.83 34.0056 231.492 34.19 231.093 34.19C230.847 34.19 230.417 33.8828 229.987 33.4834C229.434 34.2207 228.82 34.958 228.205 35.6338C226.209 37.9378 223.659 40.6412 220.648 42.5765L220.095 42.0236C222.43 39.6274 224.611 37.0162 226.393 34.4972C227.99 32.2239 229.68 29.1826 230.356 27.4008C230.54 26.94 230.509 26.6636 230.079 26.2642C229.619 25.8034 228.943 25.4655 228.236 25.1276L228.451 24.5746C229.895 24.5439 231.001 24.636 232.015 25.189C232.998 25.6805 234.349 26.8479 234.349 27.5544C234.349 28.261 233.581 28.4146 233.028 29.244C232.506 30.0428 231.83 31.0565 231.032 32.1317ZM261.936 29.2748C261.936 28.2303 261.537 27.3394 261.045 26.5407C258.987 27.0322 256.959 28.1381 255.454 29.7048C253.611 31.6402 252.536 33.9135 252.536 36.494C252.536 39.1666 253.703 41.4092 254.963 41.4092C256.836 41.4092 259.601 36.924 260.676 34.4664C261.414 32.8076 261.936 30.78 261.936 29.2748ZM261.567 47.1538L261.444 46.5087C269.094 44.9112 272.319 40.7948 272.319 35.3573C272.319 29.797 268.51 26.2335 263.472 26.2335C263.103 26.2335 262.704 26.2642 262.305 26.2949C263.165 27.278 264.056 28.5989 264.056 29.9506C264.056 31.4559 263.718 33.3605 263.042 35.173C261.721 38.9823 258.219 44.7269 254.747 44.7269C252.443 44.7269 250.232 41.1941 250.232 37.262C250.232 34.3128 251.645 30.8415 254.563 28.3532C257.051 26.172 260.185 25.0968 263.748 25.0968C270.476 25.0968 275.453 29.6741 275.453 36.0639C275.453 41.5628 271.736 46.6316 261.567 47.1538ZM301.749 31.6402H296.035C295.789 32.0703 295.513 32.5004 295.236 32.9304C301.596 34.8044 298.923 39.2895 296.68 37.3234C296.588 35.9717 295.789 34.405 294.96 33.3605C294.407 34.1592 293.823 34.9272 293.209 35.6338C294.192 37.7535 295.544 39.6274 297.325 41.1634C299.445 38.3679 300.889 35.1423 301.749 31.6402ZM303.316 29.0597L306.234 31.7016C306.019 32.0088 305.681 32.101 304.944 32.1624C303.746 36.0946 301.964 39.6581 299.199 42.6072C301.596 44.2047 304.637 45.4028 308.323 46.1708L308.262 46.5087C306.879 46.908 306.111 47.8604 305.866 49.3656C302.21 48.1676 299.507 46.4472 297.418 44.2661C294.899 46.4165 291.673 48.1676 287.587 49.3656L287.341 48.9356C290.936 47.3688 293.823 45.2184 296.097 42.6994C294.653 40.7948 293.608 38.6136 292.717 36.156C291.366 37.6613 289.83 38.8901 288.232 39.9039L287.864 39.566C290.721 36.5554 293.485 31.6709 294.899 26.3256H287.434L290.936 27.8309C290.782 28.1996 290.352 28.4146 289.645 28.3224C288.662 30.1042 287.556 31.7324 286.328 33.2069L287.925 33.7906C287.833 34.0671 287.556 34.2514 287.003 34.3743V48.5976C286.942 48.8434 285.713 49.3964 284.638 49.3964H284.085V35.6031C282.641 36.9855 281.075 38.1528 279.477 39.1052L279.139 38.7672C281.965 35.941 285.007 31.2716 286.85 26.3256H279.692L279.416 25.4348H291.949V20.8882L296.097 21.2261C296.035 21.6562 295.789 21.9634 294.96 22.0863V25.4348H302.486L304.36 22.9772C304.36 22.9772 306.449 24.6668 307.678 25.8341C307.586 26.172 307.279 26.3256 306.818 26.3256H295.206L298.954 27.5544C298.8 27.9231 298.401 28.1996 297.756 28.1381C297.387 29.0597 296.957 29.9506 296.496 30.78H301.626L303.316 29.0597ZM319.843 30.9644H315.174V34.0056H319.843V30.9644ZM315.174 38.03H319.812L319.843 34.8965H315.174V38.03ZM317.201 40.3032L317.508 40.1189C325.404 42.2079 323.53 47.4917 320.857 45.7714C320.673 45.2184 320.396 44.6348 320.058 44.0511C318.246 45.1877 315.757 46.6623 312.501 48.4748C312.378 48.8741 312.102 49.1199 311.795 49.2428L309.982 45.8636C310.596 45.7407 311.457 45.5564 312.532 45.2799V29.3669C311.641 30.0735 310.75 30.7493 309.798 31.3023L309.46 31.0258C312.102 28.4146 314.897 23.7144 315.911 20.7653L319.69 22.2399C319.567 22.5778 319.26 22.7621 318.614 22.7928C326.264 25.2812 323.069 29.3976 320.98 27.6773C320.519 26.51 319.505 24.7589 318.092 23.2229C316.833 25.1276 315.02 27.2472 312.931 29.029L315.297 30.0735H316.126V26.4485L319.475 26.7864C319.413 27.0936 319.198 27.3087 318.676 27.4008V30.0735H319.843L321.041 28.7218L323.437 30.8108C323.222 31.0565 322.823 31.2716 322.332 31.3637V39.5352C322.27 39.6581 321.256 40.1496 320.273 40.1496H319.812V38.9208H315.174V44.6348C316.556 44.2661 318.092 43.8668 319.659 43.406C318.922 42.2693 318 41.1327 317.201 40.3032ZM334.742 28.1688H331.363C331.824 37.2005 333.421 42.7916 338.982 46.0479L338.92 46.4165C337.507 46.7237 336.647 47.7375 336.34 49.4271C332.623 46.2936 331.394 40.1804 330.964 32.1932C330.134 40.9791 328.045 46.4165 320.028 49.4578L319.72 48.9663C326.909 45.3413 328.015 38.1528 328.414 28.1688H327.554C326.356 30.5036 324.851 32.4389 323.069 33.9135L322.639 33.637C324.574 30.5036 326.11 25.8034 326.694 20.8882L330.841 21.9941C330.718 22.3935 330.38 22.67 329.674 22.67C329.213 24.3288 328.66 25.8648 328.015 27.278H334.558L336.156 25.6805L339.012 28.4146C338.767 28.6604 338.429 28.7218 337.784 28.7525C336.893 30.1964 335.203 32.2239 333.821 33.4527L333.483 33.2376C333.944 31.8552 334.435 29.7663 334.742 28.1688ZM346.385 41.5935C347.123 40.549 348.474 38.1836 349.488 36.4018C346.355 36.8626 343.805 38.5829 343.375 40.4261C343.098 41.5935 343.774 42.9144 344.542 42.9144C345.279 42.9144 345.709 42.5458 346.385 41.5935ZM360.854 32.654V32.1624C361.407 31.886 362.114 31.6402 362.759 31.7016C363.988 31.7631 365.462 32.869 365.462 33.6063C365.462 34.1285 365.309 34.7429 365.217 35.4188C365.124 36.0024 364.971 36.9855 364.725 38.03C365.923 38.7672 366.998 39.5352 367.674 40.1496C368.35 40.8255 368.719 41.4399 368.688 42.4536C368.688 43.0988 368.319 43.7439 367.398 43.7439C366.476 43.7439 365.585 42.5458 363.742 40.9791C361.837 45.1877 357.721 47.7375 351.946 48.8127L351.577 48.1983C356.676 46.4472 359.964 43.3752 361.592 39.3509C359.533 37.9378 356.646 36.3711 351.884 36.2482C350.594 38.8287 349.058 42.3308 348.259 43.4367C347.153 45.1263 346.17 45.925 344.604 45.925C342.822 45.925 341.716 43.1295 342.054 40.764C342.515 37.5999 346.508 35.4802 350.317 34.8965C351.823 32.2239 354.557 27.8002 355.14 26.6328C355.417 26.0799 355.202 25.8956 354.741 26.0492C353.758 26.3871 352.161 27.1551 351.178 27.6773C350.686 27.9538 350.164 28.476 349.549 28.476C348.382 28.476 346.908 26.94 346.692 25.957C346.6 25.4348 346.631 24.7589 346.723 24.206L347.215 24.0831C347.737 24.9432 348.106 25.6805 348.996 25.6805C350.256 25.6805 352.929 24.8818 354.157 24.4517C355.294 24.0831 355.632 23.5608 356.154 23.5608C357.168 23.5608 359.411 25.0968 359.411 26.1106C359.411 26.8479 358.212 27.2165 357.383 28.1074C356.277 29.3055 354.004 32.5004 352.714 34.7122C356.707 34.7736 359.964 35.726 362.329 36.7704C362.544 35.7567 362.605 34.8351 362.575 34.19C362.544 33.6677 362.483 33.4527 362.083 33.1762C361.776 32.9304 361.407 32.8076 360.854 32.654ZM392.127 25.0968L392.496 24.6053C394.124 25.1583 395.476 25.7727 396.336 26.5714C397.043 27.2165 397.319 27.7388 397.319 28.3532C397.319 28.9368 396.92 29.3362 396.367 29.3362C395.844 29.3362 395.476 28.7832 394.923 28.046C394.339 27.2165 393.54 26.172 392.127 25.0968ZM384.324 27.3701L383.219 30.0735C383.987 29.9506 384.847 29.8584 385.492 29.8584C387.857 29.8584 389.363 31.2408 389.363 35.1423C389.363 38.9823 388.318 43.3445 386.26 45.7407C385.338 46.8466 383.956 47.5839 382.389 47.5839C381.252 47.5839 380.915 47.1231 380.546 45.8636C380.362 45.3413 380.147 45.0034 378.549 43.4674L378.856 43.0373C380.454 43.9282 381.713 44.5733 382.481 44.5733C383.464 44.5733 384.048 44.2354 384.724 43.2831C385.983 41.5935 386.966 37.477 386.966 34.2207C386.966 32.316 386.444 31.4252 384.908 31.4252C384.263 31.4252 383.403 31.6095 382.451 31.8552C381.59 33.8828 380.607 36.1868 379.747 37.9992C378.211 41.2248 376.46 44.7576 375.262 46.6623C374.678 47.6453 374.248 47.9218 373.572 47.9218C372.958 47.9218 372.313 47.3074 372.313 46.3244C372.313 45.5871 372.436 45.2184 372.927 44.5733C374.525 42.5765 376.061 40.2111 377.658 37.0162C378.334 35.6952 378.979 34.2207 379.563 32.7768C378.641 33.1148 377.781 33.4527 377.197 33.7292C376.03 34.19 375.508 34.5279 374.709 34.5279C373.849 34.5279 372.559 33.1148 372.313 31.9781C372.19 31.3023 372.344 30.6264 372.559 30.012L373.05 29.9199C373.511 30.8415 373.818 31.6402 374.648 31.6402C375.661 31.6402 378.088 31.0565 380.423 30.565C381.283 28.2917 381.836 26.3871 381.836 25.8034C381.836 25.404 381.744 25.1276 381.375 24.9125C380.884 24.636 379.87 24.4517 379.071 24.3288V23.7759C379.655 23.4994 380.423 23.1615 381.529 23.1615C382.881 23.1615 385.461 24.3288 385.461 25.2504C385.461 26.0492 384.693 26.4485 384.324 27.3701ZM390.929 30.4114L391.175 29.7663C393.387 29.9813 395.261 30.7186 396.674 32.1317C398.118 33.5756 398.886 35.6952 398.886 38.0607C398.886 39.6274 398.333 40.8255 397.165 40.8562C396.182 40.8562 396.182 39.9346 395.23 39.6274C394.554 39.4431 392.803 39.3816 391.759 39.4431L391.605 38.798C392.834 38.5215 394.278 38.1836 395.015 37.9071C395.691 37.6306 395.906 37.3234 395.875 36.494C395.844 35.6645 395.599 34.2514 394.739 32.9612C393.909 31.7016 392.742 30.8108 390.929 30.4114ZM394.984 23.0386L395.292 22.5778C396.981 23.0079 398.271 23.5608 399.101 24.1752C399.9 24.8204 400.207 25.404 400.207 26.0799C400.207 26.6943 399.869 27.0629 399.316 27.0629C398.763 27.0629 398.425 26.4485 397.78 25.7112C397.196 24.974 396.49 24.1445 394.984 23.0386ZM207.899 63.6223H194.936V66.1106H207.899V63.6223ZM194.936 69.6127H207.899V67.0015H194.936V69.6127ZM194.936 70.5036V71.2408C194.936 71.4866 193.645 72.1317 192.478 72.1317H192.048V61.4719L195.12 62.7621H207.592L209.036 61.1647L212.077 63.4687C211.893 63.7144 211.432 63.9909 210.818 64.1138V70.9336C210.787 71.1487 209.313 71.6402 208.36 71.6402H207.899V70.5036H194.936ZM198.223 76.4325V73.7599H193.799V76.4325H198.223ZM193.799 80.9791V84.174C195.181 83.9896 196.687 83.7746 198.223 83.5596V80.9791H193.799ZM193.799 77.3234V80.1189H198.223V77.3234H193.799ZM214.873 73.7599H201.049V88.7205C201.049 88.9048 200.158 89.4271 198.683 89.4271H198.223V84.2968C196.103 85.0956 193.246 86.1708 189.437 87.461C189.252 87.8604 188.976 88.1061 188.638 88.1983L187.133 84.942C187.993 84.8805 189.345 84.7269 191.003 84.5119V73.7599H187.409L187.133 72.869H210.787L212.538 70.565C212.538 70.565 214.504 72.1317 215.702 73.2684C215.61 73.6063 215.303 73.7599 214.873 73.7599ZM209.835 77.262H204.213C205.012 79.3202 206.21 80.9484 207.746 82.2386C208.667 80.6719 209.374 78.9823 209.835 77.262ZM211.402 74.7122L214.32 77.2005C214.105 77.5077 213.828 77.5692 213.153 77.6306C212.354 79.8117 211.248 81.8392 209.681 83.621C211.494 84.6962 213.644 85.4642 216.01 85.9864L215.979 86.3244C214.75 86.5701 213.921 87.5224 213.521 88.9048C211.279 88.014 209.405 86.8773 207.869 85.372C206.21 86.7852 204.213 87.9832 201.786 88.9048L201.54 88.5362C203.568 87.3074 205.258 85.7407 206.609 83.9589C205.258 82.2079 204.275 80.0268 203.599 77.262H201.878L201.602 76.3711H209.712L211.402 74.7122ZM228.789 83.9896H235.302V80.1496H228.789V83.9896ZM238.005 80.5183V85.5256C237.974 85.7407 236.623 86.3551 235.763 86.3551H235.302V84.8498H228.789V85.9864C228.789 86.2322 227.591 86.8466 226.485 86.8466H226.116V78.1221L228.912 79.2588H235.025L236.346 77.8764L239.142 79.996C238.957 80.1804 238.527 80.4261 238.005 80.5183ZM241.292 75.8488L242.675 74.3128L245.808 76.6476C245.624 76.8933 245.163 77.1698 244.548 77.262V85.9557C244.548 87.9218 244.088 89.0892 240.616 89.3964C240.524 88.5669 240.401 87.8911 239.971 87.4917C239.541 87.0616 238.865 86.7237 237.483 86.5087V86.0786C237.483 86.0786 240.278 86.2629 240.954 86.2629C241.476 86.2629 241.599 86.0786 241.599 85.6792V76.7397H222.614V88.4133C222.614 88.7205 221.386 89.3656 220.157 89.3656H219.727V74.5893L222.891 75.8488H241.292ZM227.253 72.2853H236.868V68.5682H227.253V72.2853ZM237.36 74.5893H236.868V73.1762H227.253V73.9442C227.253 74.19 225.963 74.8658 224.765 74.8658H224.365V66.4792L227.407 67.6773H236.561L238.005 66.172L241.077 68.4453C240.862 68.6911 240.432 68.9676 239.818 69.0904V73.852C239.787 74.0671 238.282 74.5893 237.36 74.5893ZM240.739 64.421L242.644 62.117C242.644 62.117 244.794 63.6837 246.115 64.8204C246.023 65.1583 245.685 65.3119 245.255 65.3119H218.498L218.221 64.421H230.54V60.8882L234.564 61.2568C234.503 61.6869 234.257 61.9941 233.459 62.0863V64.421H240.739ZM269.923 63.7144H260.062L259.786 62.8236H270.23L271.889 61.1647L274.869 63.7144C274.623 63.9602 274.255 64.0216 273.64 64.0831C272.319 64.8204 270.599 65.6498 268.879 66.2949L269.247 66.3256C269.186 66.7864 268.879 67.0015 268.203 67.0936V68.8754H272.473L274.193 66.7864C274.193 66.7864 276.067 68.1996 277.296 69.2748C277.204 69.6127 276.897 69.7663 276.436 69.7663H268.203V73.4527C268.203 75.4802 267.742 76.5861 264.394 76.8933C264.271 76.0639 264.148 75.4495 263.718 75.0501C263.288 74.6508 262.643 74.3436 261.26 74.1285V73.6677C261.26 73.6677 264.24 73.8828 264.824 73.8828C265.284 73.8828 265.407 73.7292 265.407 73.3605V69.7663H257.635L257.389 68.8754H265.407V65.957L267.65 66.172C268.449 65.4348 269.278 64.5132 269.923 63.7144ZM255.239 60.8575L258.833 62.7621C258.649 63.1 258.403 63.2536 257.666 63.1308C256.836 64.3596 255.731 65.742 254.44 67.0629C256.191 70.1349 256.714 73.637 256.806 77.5077C256.898 81.5628 256.56 85.8943 255.024 88.0447C254.348 88.997 253.15 89.3964 251.43 89.3964C251.43 88.4133 251.245 87.7375 250.907 87.3688C250.508 87.0309 249.802 86.6623 248.849 86.4472V85.9557C248.849 85.9557 250.938 86.1708 252.044 86.1708C252.536 86.1708 252.751 86.0786 252.966 85.7407C253.826 84.5426 254.102 80.9176 254.102 77.477V76.3711C252.689 78.0914 250.662 79.8424 248.481 81.1941L248.173 80.8869C250.662 78.2757 252.659 74.6508 253.642 71.2408C253.457 70.3192 253.242 69.4284 252.935 68.5375C251.583 69.7663 250.109 70.9029 248.542 71.8245L248.235 71.4866C249.648 70.1349 251 68.4146 252.136 66.6636C251.368 65.0968 250.324 63.6223 248.88 62.1784L249.279 61.8405C250.846 62.8543 252.106 63.9602 253.089 65.1583C254.01 63.653 254.747 62.1477 255.239 60.8575ZM261.107 78.6444V87.4917H263.165V78.6444H261.107ZM267.496 78.6444H265.284V87.4917H267.496V78.6444ZM271.766 78.6444H269.647V87.4917H271.766V78.6444ZM274.378 87.4303L275.606 85.372C275.606 85.372 277.05 86.8773 277.788 87.8911C277.726 88.229 277.419 88.3826 277.02 88.3826H256.068L255.823 87.4917H258.587V76.5861L261.444 77.7535H271.459L272.688 76.1253L275.76 78.3372C275.545 78.6751 275.146 78.8594 274.378 78.9516V87.4303ZM293.393 76.4325H294.714C296.127 75.6031 297.479 74.6815 298.8 73.6984H293.393V76.4325ZM300.06 80.8255H289.369V83.2831H300.06V80.8255ZM289.369 86.7544H300.06V84.174H289.369V86.7544ZM286.911 69.1212H300.06V66.7557H286.911V69.1212ZM300.06 63.4994H286.911V65.8648H300.06V63.4994ZM303.132 76.4325L304.852 74.4664C304.852 74.4664 306.726 75.8488 307.924 76.8319C307.832 77.1698 307.524 77.3234 307.094 77.3234H297.448C295.605 78.3372 293.67 79.1973 291.704 79.9653H299.752L301.196 78.4293L304.176 80.6719C303.992 80.8869 303.592 81.1327 303.039 81.2248V88.5669C303.009 88.7512 301.534 89.3042 300.551 89.3042H300.06V87.6453H289.369V88.5055C289.369 88.782 288.079 89.3964 286.881 89.3964H286.451V81.7471C284.147 82.4536 281.781 83.0373 279.385 83.5288L279.231 83.0066C281.658 82.2693 284.054 81.4092 286.451 80.4568V78.6751L288.57 79.566C290.137 78.8901 291.642 78.1221 293.148 77.3234H279.692L279.416 76.4325H290.444V73.6984H282.611L282.365 72.8076H290.444V70.1656L294.376 70.5343C294.315 70.9029 294.069 71.1794 293.393 71.3023V72.8076H295.697L297.295 70.8722C297.295 70.8722 298.739 71.9474 299.844 72.8997C300.797 72.1317 301.688 71.333 302.579 70.5036C302.056 70.7186 301.196 70.9951 300.551 70.9951H300.06V70.012H286.911V70.5957C286.911 70.8722 285.621 71.4866 284.454 71.4866H284.024V61.3797L287.126 62.6392H299.752L301.196 61.1032L304.207 63.3765C304.022 63.5916 303.592 63.8373 303.009 63.9602V70.0735L303.562 69.5205L306.634 72.0703C306.357 72.3775 305.927 72.3775 305.19 72.101C303.224 73.7599 301.165 75.173 299.046 76.4325H303.132ZM317.816 85.4028H330.902V75.4188H317.816V85.4028ZM330.902 64.9125H317.816V74.5279H330.902V64.9125ZM332.162 62.332L335.295 64.8204C335.08 65.0661 334.65 65.3119 334.036 65.4655V87.9832C333.974 88.229 332.531 88.9663 331.394 88.9663H330.902V86.2936H317.816V88.0447C317.816 88.444 316.648 89.1813 315.327 89.1813H314.805V62.67L318.061 64.0216H330.595L332.162 62.332ZM341.347 67.278L341.808 67.1244C342.3 67.9231 343.037 68.6911 343.774 68.6911C345.525 68.6911 350.625 67.2472 355.878 66.0184C359.257 65.189 362.114 64.5746 363.128 64.5746C363.988 64.5746 364.879 64.6975 365.555 65.0047C366.292 65.3426 366.783 65.8034 366.783 66.4792C366.783 67.0936 366.23 67.5852 365.401 67.5852C364.664 67.5852 363.711 67.493 362.698 67.493C361.284 67.493 359.288 67.6466 357.69 68.7218C356.461 69.5205 353.666 72.1932 353.666 77.7842C353.666 81.2556 355.14 82.5151 356.308 83.1909C358.151 84.2047 360.762 84.0511 361.776 84.0511C362.698 84.0511 363.896 84.8498 363.896 85.8328C363.896 86.9695 362.667 87.2767 361.254 87.2767C359.134 87.2767 356.554 87.0616 354.557 85.6792C352.529 84.2968 351.3 82.3 351.3 78.5829C351.3 74.5279 352.959 70.5957 356.431 68.0767C356.676 67.8924 356.646 67.708 356.308 67.8002C352.775 68.6296 348.474 70.1042 346.631 71.0872C345.986 71.4252 345.372 72.0396 344.604 72.0396C343.283 72.0396 341.439 70.2885 341.255 68.9983C341.163 68.3839 341.286 67.7695 341.347 67.278ZM363.312 69.8277L363.65 69.3362C365.309 69.797 366.63 70.35 367.428 70.9644C368.227 71.6095 368.534 72.1932 368.534 72.869C368.534 73.4834 368.196 73.8213 367.644 73.8213C367.091 73.8213 366.753 73.2684 366.138 72.5004C365.524 71.7631 364.817 70.9336 363.312 69.8277ZM360.547 71.8245L360.916 71.3637C362.544 71.9167 363.896 72.5618 364.756 73.3605C365.432 74.0056 365.708 74.5586 365.677 75.1423C365.677 75.726 365.309 76.1253 364.725 76.1253C364.264 76.1253 363.896 75.5724 363.343 74.8044C362.728 74.0056 361.93 72.9612 360.547 71.8245ZM377.535 74.8965C377.535 75.8488 378.641 76.6476 381.099 77.0162C381.406 75.2037 381.775 73.3298 382.113 71.8552C380.116 71.9781 377.535 73.5141 377.535 74.8965ZM388.042 73.4527L388.41 72.9919C393.387 75.1423 395.66 78.1528 395.66 81.7164C395.66 84.8191 393.172 88.5362 387.274 88.5362C382.758 88.5362 380.546 85.8943 380.546 82.085C380.546 81.3784 380.607 80.5183 380.73 79.566C377.843 78.8287 376.214 77.2312 376.214 75.4188C376.214 73.6984 377.873 71.9474 380.085 70.78C379.317 70.5343 378.703 70.2885 377.965 69.7663C376.952 69.029 376.368 68.1381 376.03 66.3256L376.491 66.0799C377.228 67.1244 378.027 68.0152 379.348 68.5068C380.546 68.9368 381.713 69.1212 382.788 69.2133C383.311 67.2165 383.71 65.7112 383.772 64.974C383.802 64.2674 383.526 63.9909 383.004 63.6837C382.573 63.4687 382.02 63.2844 381.529 63.1615L381.56 62.5778C382.143 62.4242 382.758 62.3013 383.526 62.3013C385.246 62.3013 387.304 64.0524 387.304 65.0047C387.304 65.6805 386.813 65.9877 386.444 66.6943C386.076 67.3701 385.707 68.1381 385.277 69.3362L385.676 69.3669C386.997 69.5205 387.489 70.2578 387.489 70.9336C387.489 71.6709 386.966 71.9167 386.137 71.9781C385.676 72.0088 385.031 72.0088 384.355 71.9474C383.864 73.422 383.28 75.3266 382.85 77.1698C384.232 77.2312 385.369 77.1698 386.045 77.2312C386.997 77.2927 387.612 77.692 387.612 78.5522C387.612 79.3202 387.028 79.781 385.799 79.9346C384.939 80.0268 383.679 80.0268 382.328 79.8732C382.205 80.6104 382.143 81.317 382.143 81.9314C382.143 84.8805 383.987 86.2015 386.844 86.2015C390.53 86.2015 392.772 83.7746 392.772 80.9791C392.772 77.5384 390.776 75.5416 388.042 73.4527ZM407.764 70.6264L408.255 70.5036C408.655 71.5173 409.331 72.4082 410.037 72.4082C411.665 72.4082 415.382 70.0428 418.669 70.0428C422.233 70.0428 424.506 72.6847 424.506 77.0162C424.506 84.0204 419.13 87.7989 410.129 88.9663L409.914 88.2904C417.318 86.3551 421.465 82.6994 421.465 76.6168C421.465 73.422 420.298 71.4866 418.393 71.4866C416.458 71.4866 413.908 73.3912 412.679 74.3436C412.003 74.8965 411.297 75.726 410.436 75.726C409.269 75.726 407.917 74.2207 407.58 73.2069C407.334 72.4696 407.549 71.5173 407.764 70.6264ZM415.72 65.2197C414.522 65.0047 411.972 64.6668 410.406 62.0863L410.744 61.7176C412.74 63.1308 414.737 63.3458 416.396 63.3458C417.656 63.3458 418.577 63.0079 419.13 63.0079C420.451 63.0079 422.11 63.8066 422.11 64.8511C422.11 65.3733 421.68 65.7112 420.82 65.742C420.205 65.742 419.13 65.8034 418.239 66.0184C416.519 66.3871 413.785 67.4008 412.31 67.9538L412.034 67.4316C413.293 66.725 414.86 65.8034 415.72 65.2197ZM434.89 61.564L435.166 61.3183C443.123 61.9327 441.464 67.5544 438.515 65.9877C437.962 64.421 436.272 62.6085 434.89 61.564ZM432.739 68.5068L432.985 68.261C440.604 68.7218 438.791 74.2514 435.965 72.6232C435.504 71.1487 434.029 69.4591 432.739 68.5068ZM442.57 65.5269L443.061 65.6498C441.709 69.7048 439.129 77.1698 438.668 78.8594C438.422 79.9039 438.177 80.9484 438.207 81.7471C438.238 83.2831 439.313 84.4504 439.221 87.0309C439.16 88.4748 438.33 89.3964 436.979 89.3964C436.303 89.3964 435.719 88.9048 435.535 87.8604C436.057 84.7269 435.903 82.1157 435.166 81.6549C434.767 81.3477 434.244 81.2248 433.63 81.1634V80.549H435.012C435.443 80.549 435.535 80.5183 435.873 79.9346C436.548 78.7365 436.548 78.7365 442.57 65.5269ZM457.069 73.6677L458.82 71.333C458.82 71.333 460.787 72.9304 462.015 74.0671C461.923 74.405 461.616 74.5586 461.155 74.5586H452.738V88.444C452.738 88.6591 451.786 89.3349 450.219 89.3349H449.666V74.5586H441.218L440.972 73.6677H449.666V64.2981H442.508L442.262 63.4072H456.394L458.083 61.2261C458.083 61.2261 459.988 62.7621 461.094 63.8066C461.032 64.1445 460.725 64.2981 460.264 64.2981H452.738V73.6677H457.069ZM484.103 65.0661L484.441 64.6053C486.1 65.1583 487.421 65.8034 488.281 66.6021C488.988 67.2472 489.264 67.8002 489.233 68.3839C489.233 68.9676 488.834 69.3669 488.22 69.3669C487.728 69.3362 487.359 68.7832 486.837 68.046C486.253 67.2472 485.455 66.172 484.103 65.0661ZM478.02 74.0978L477.836 73.5448C479.372 72.654 481.676 71.9167 483.98 71.9167C486.008 71.9167 487.359 72.3468 488.035 72.7154C488.865 73.2069 489.264 73.8213 489.264 74.405C489.264 75.1116 488.711 75.4495 487.605 75.5109C487.052 75.5109 486.499 75.6031 485.7 75.8488C484.533 76.0946 483.151 76.6476 482.076 77.0776L481.738 76.6168C482.721 76.0024 484.318 74.8351 484.656 74.4664C484.871 74.2821 484.779 74.1285 484.533 74.0364C483.827 73.7906 482.751 73.6677 481.86 73.6677C480.724 73.6677 479.403 73.852 478.02 74.0978ZM475.317 67.4623L474.979 68.6604C476.454 68.1688 477.56 67.6466 478.451 67.1858C479.004 66.8479 479.403 66.6021 479.679 66.6021C480.355 66.6021 481.553 66.9708 481.553 67.8924C481.553 68.6296 481.031 69.0597 479.249 69.7048C478.451 70.0428 476.3 70.7493 474.242 71.2408C473.843 72.6232 473.382 74.1592 472.89 75.5724C471.631 79.3202 469.695 84.604 468.436 86.7852C467.944 87.676 467.545 88.1983 466.623 88.1983C465.855 88.1983 465.302 87.3381 465.302 86.3551C465.302 85.3413 465.855 84.942 466.531 83.7746C467.852 81.7164 469.45 78.798 470.863 74.7429C471.17 73.852 471.508 72.8076 471.784 71.7631C470.801 71.9167 469.726 72.0396 468.866 72.0396C466.746 72.0396 465.302 71.4252 464.319 68.476L464.749 68.1688C466.224 69.3055 467.115 69.7356 468.497 69.7663C469.849 69.797 471.231 69.582 472.368 69.3669C472.737 67.8309 472.982 66.4485 473.044 65.5884C473.075 64.8511 472.952 64.6053 472.429 64.2674C471.907 63.9602 471.262 63.7452 470.586 63.5301L470.617 62.9772C471.354 62.7007 472.061 62.5471 472.89 62.5778C474.426 62.6085 476.392 63.4687 476.392 64.2674C476.392 64.9432 475.87 65.6191 475.317 67.4623ZM475.839 80.0882L476.454 80.0268C476.577 80.8562 476.822 81.9621 477.437 82.853C478.573 84.5733 480.386 85.1877 482.936 85.1877C485.823 85.1877 486.899 84.604 487.636 84.604C488.619 84.604 489.786 85.0648 489.786 86.1093C489.786 86.8466 489.018 87.3074 487.912 87.5532C486.96 87.7682 485.608 87.9525 483.642 87.9525C479.434 87.9525 476.669 86.4165 476.085 83.2831C475.747 82.2079 475.778 81.0405 475.839 80.0882ZM486.837 63.1308L487.144 62.67C488.834 63.1308 490.124 63.6837 490.954 64.2981C491.722 64.9125 492.029 65.5269 492.029 66.2028C492.029 66.8172 491.691 67.1551 491.138 67.1551C490.585 67.1551 490.247 66.5714 489.633 65.8034C489.018 65.0661 488.342 64.2674 486.837 63.1308ZM509.969 64.5746C509.969 63.9602 509.386 63.2536 508.341 62.4242L508.679 61.9327C509.508 62.0248 510.276 62.1784 510.952 62.5164C512.427 63.2844 513.748 64.8511 513.748 65.8034C513.748 66.6021 512.98 66.8479 511.751 67.7388C509.601 69.3362 505.791 72.5925 504.501 73.8828C503.641 74.7429 503.395 75.1116 503.395 75.4802C503.395 75.9103 503.825 76.3096 504.47 76.8012C507.512 79.0744 510.614 81.0712 512.765 83.7746C513.748 85.0034 514.239 86.0786 514.239 87.0616C514.239 87.9832 513.748 88.8434 512.519 88.8434C511.843 88.8434 511.29 88.4133 511.014 87.8911C510.645 87.246 510.338 86.5087 509.508 85.2184C508.188 83.1909 505.884 80.8869 502.228 77.7842C501.46 77.1391 501.06 76.4325 501.06 75.7874C501.06 75.2037 501.368 74.6508 501.951 73.9749C503.549 72.0703 508.003 67.5237 509.293 65.8956C509.785 65.2812 509.969 64.974 509.969 64.5746ZM538.047 82.8223C539.338 82.8223 540.259 83.8053 540.259 85.0034C540.259 86.2015 539.338 87.1845 538.047 87.1845C536.757 87.1845 535.836 86.2015 535.836 85.0034C535.836 83.8053 536.757 82.8223 538.047 82.8223ZM535.958 64.7896L535.283 67.4008C534.883 69.1519 534.238 69.797 533.101 69.797C532.456 69.797 531.873 69.5205 531.504 68.8754C531.811 65.3426 534.883 63.2229 539 63.2229C543.761 63.2229 546.188 65.4348 546.188 68.5682C546.188 70.9951 544.929 72.6847 541.826 74.62C539.583 76.0024 538.846 76.5861 538.692 78.1836L538.539 80.2111H537.433C537.249 79.1359 537.126 77.9378 537.126 77.1084C537.126 75.726 537.802 74.8965 539.86 73.2376C541.918 71.6402 542.901 70.3807 542.901 68.3532C542.901 65.5884 540.935 64.421 538.201 64.421C537.341 64.421 536.726 64.5132 535.958 64.7896Z" fill="#00AFA1"/>
<path d="M1.52372 52.8765H20.2889V55.4909H1.52372V52.8765ZM12.3612 53.9307C12.7828 55.5331 13.3662 57.0301 14.1112 58.4217C14.8562 59.8133 15.7768 61.0291 16.8732 62.0693C17.9837 63.1095 19.2769 63.9318 20.7528 64.5362C20.5419 64.7189 20.317 64.9508 20.0781 65.232C19.8532 65.5131 19.6283 65.8013 19.4034 66.0964C19.1925 66.4057 19.0168 66.6798 18.8763 66.9187C17.2598 66.1597 15.8682 65.1828 14.7015 63.988C13.5489 62.7932 12.579 61.4016 11.7919 59.8133C11.0047 58.2108 10.3441 56.4468 9.80993 54.5211L12.3612 53.9307ZM9.45149 47.2047H12.2136C12.1995 48.273 12.1644 49.4045 12.1081 50.5993C12.066 51.7801 11.9605 52.9819 11.7919 54.2048C11.6232 55.4277 11.3491 56.6436 10.9696 57.8524C10.6041 59.0472 10.084 60.1998 9.40932 61.3103C8.74868 62.4067 7.89124 63.4328 6.83702 64.3886C5.79685 65.3444 4.52475 66.1878 3.02072 66.9187C2.82393 66.5814 2.54983 66.2089 2.19843 65.8013C1.84702 65.3936 1.48858 65.0563 1.12312 64.7892C2.55686 64.1426 3.75868 63.3976 4.72857 62.5542C5.69845 61.6968 6.48561 60.7761 7.09003 59.7922C7.70851 58.7942 8.17939 57.761 8.50269 56.6928C8.82599 55.6104 9.04386 54.5211 9.15631 53.4247C9.28282 52.3283 9.36013 51.253 9.38824 50.1987C9.41635 49.1445 9.43744 48.1465 9.45149 47.2047ZM44.0722 50.1355C44.0722 50.4728 44.1847 50.761 44.4096 50.9999C44.6485 51.2389 44.9367 51.3584 45.274 51.3584C45.6114 51.3584 45.8996 51.2389 46.1385 50.9999C46.3775 50.761 46.4969 50.4728 46.4969 50.1355C46.4969 49.7981 46.3775 49.51 46.1385 49.271C45.8996 49.0321 45.6114 48.9126 45.274 48.9126C44.9367 48.9126 44.6485 49.0321 44.4096 49.271C44.1847 49.51 44.0722 49.7981 44.0722 50.1355ZM42.765 50.1355C42.765 49.6716 42.8774 49.2499 43.1023 48.8704C43.3272 48.4909 43.6295 48.1887 44.009 47.9638C44.3885 47.7248 44.8102 47.6053 45.274 47.6053C45.7379 47.6053 46.1596 47.7248 46.5391 47.9638C46.9186 48.1887 47.2208 48.4909 47.4457 48.8704C47.6847 49.2499 47.8042 49.6716 47.8042 50.1355C47.8042 50.5993 47.6847 51.021 47.4457 51.4005C47.2208 51.7801 46.9186 52.0893 46.5391 52.3283C46.1596 52.5532 45.7379 52.6656 45.274 52.6656C44.8102 52.6656 44.3885 52.5532 44.009 52.3283C43.6295 52.0893 43.3272 51.7801 43.1023 51.4005C42.8774 51.021 42.765 50.5993 42.765 50.1355ZM34.2258 48.9337C34.1695 49.257 34.1274 49.6294 34.0993 50.0511C34.0712 50.4728 34.0571 50.8313 34.0571 51.1264C34.0571 51.3373 34.0571 51.7098 34.0571 52.2439C34.0571 52.764 34.0571 53.3825 34.0571 54.0994C34.0571 54.8162 34.0571 55.5682 34.0571 56.3554C34.0571 57.1285 34.0571 57.8805 34.0571 58.6114C34.0571 59.3283 34.0571 59.9679 34.0571 60.5301C34.0571 61.0924 34.0571 61.507 34.0571 61.7741C34.0571 62.2239 34.1695 62.5332 34.3944 62.7018C34.6193 62.8705 34.9637 63.004 35.4276 63.1024C35.7509 63.1446 36.1234 63.1798 36.5451 63.2079C36.9668 63.2219 37.4095 63.2289 37.8734 63.2289C38.4216 63.2289 39.026 63.2149 39.6867 63.1868C40.3614 63.1446 41.0361 63.0954 41.7108 63.0392C42.3995 62.983 43.0461 62.9057 43.6505 62.8073C44.255 62.7089 44.775 62.6034 45.2108 62.491V65.5693C44.5501 65.6677 43.7841 65.745 42.9126 65.8013C42.0411 65.8715 41.1485 65.9207 40.2349 65.9488C39.3352 65.991 38.4919 66.0121 37.7047 66.0121C37.016 66.0121 36.3623 65.991 35.7439 65.9488C35.1394 65.9067 34.6123 65.8505 34.1625 65.7802C33.2489 65.5974 32.539 65.2531 32.033 64.747C31.527 64.2269 31.2739 63.5171 31.2739 62.6175C31.2739 62.2099 31.2739 61.6828 31.2739 61.0362C31.2739 60.3755 31.2739 59.6516 31.2739 58.8645C31.2739 58.0632 31.2739 57.262 31.2739 56.4608C31.2739 55.6456 31.2739 54.8795 31.2739 54.1626C31.2739 53.4317 31.2739 52.7992 31.2739 52.265C31.2739 51.7309 31.2739 51.3514 31.2739 51.1264C31.2739 50.9718 31.2669 50.761 31.2529 50.4939C31.2388 50.2268 31.2177 49.9527 31.1896 49.6716C31.1755 49.3905 31.1474 49.1445 31.1053 48.9337H34.2258ZM32.8342 55.4066C33.5089 55.266 34.2258 55.0974 34.9848 54.9006C35.7439 54.6897 36.5099 54.4648 37.283 54.2259C38.0561 53.9869 38.7871 53.748 39.4758 53.509C40.1786 53.256 40.8041 53.01 41.3523 52.771C41.7319 52.6305 42.1043 52.4688 42.4698 52.2861C42.8493 52.1034 43.2429 51.8855 43.6505 51.6325L44.7891 54.3102C44.3815 54.4648 43.9528 54.6405 43.5029 54.8373C43.0672 55.0201 42.6736 55.1747 42.3222 55.3012C41.7037 55.5401 40.9939 55.7932 40.1927 56.0602C39.4055 56.3273 38.5832 56.5944 37.7258 56.8614C36.8684 57.1144 36.018 57.3534 35.1746 57.5783C34.3453 57.8032 33.5722 58 32.8553 58.1687L32.8342 55.4066ZM60.244 49.0813C60.6095 49.3343 61.0382 49.6435 61.5302 50.009C62.0222 50.3744 62.5282 50.775 63.0483 51.2108C63.5824 51.6325 64.0814 52.0471 64.5453 52.4548C65.0091 52.8624 65.3887 53.2279 65.6838 53.5512L63.5332 55.744C63.2661 55.4488 62.9147 55.0974 62.479 54.6897C62.0432 54.2821 61.5724 53.8604 61.0663 53.4247C60.5603 52.9889 60.0613 52.5743 59.5693 52.1807C59.0774 51.7871 58.6416 51.4568 58.2621 51.1897L60.244 49.0813ZM57.6085 63.1235C58.7049 62.9689 59.738 62.751 60.7079 62.4699C61.6778 62.1888 62.5774 61.8655 63.4067 61.5C64.236 61.1346 64.9951 60.755 65.6838 60.3615C66.8786 59.6446 67.975 58.8293 68.973 57.9157C69.971 57.002 70.8425 56.0532 71.5875 55.0692C72.3325 54.0712 72.9228 53.1014 73.3586 52.1596L75.0032 55.1325C74.469 56.0743 73.8084 57.0161 73.0212 57.9578C72.2481 58.8996 71.3696 59.7992 70.3857 60.6566C69.4017 61.5 68.3405 62.2591 67.2019 62.9338C66.485 63.3695 65.7119 63.7842 64.8826 64.1778C64.0533 64.5573 63.1748 64.8946 62.2471 65.1898C61.3334 65.499 60.3776 65.738 59.3796 65.9067L57.6085 63.1235ZM85.7984 49.9668C86.3326 49.9668 87.0143 49.9668 87.8436 49.9668C88.673 49.9527 89.5444 49.9246 90.4581 49.8825C91.3718 49.8262 92.2152 49.7419 92.9882 49.6294C93.5224 49.5592 94.0425 49.4748 94.5485 49.3764C95.0686 49.278 95.5606 49.1796 96.0244 49.0813C96.5023 48.9688 96.9311 48.8493 97.3106 48.7228C97.7041 48.5963 98.0345 48.4768 98.3015 48.3644L100.03 50.6837C99.665 50.768 99.3487 50.8453 99.0817 50.9156C98.8146 50.9859 98.5897 51.0421 98.407 51.0843C97.9712 51.1967 97.5003 51.3092 96.9943 51.4216C96.4883 51.52 95.9682 51.6114 95.4341 51.6957C94.8999 51.7801 94.3587 51.8644 93.8105 51.9487C93.0093 52.0612 92.1589 52.1455 91.2593 52.2018C90.3597 52.258 89.4882 52.3072 88.6448 52.3493C87.8015 52.3775 87.0705 52.3985 86.4521 52.4126L85.7984 49.9668ZM86.7051 64.494C87.942 63.9318 88.9541 63.25 89.7412 62.4488C90.5424 61.6336 91.1328 60.6988 91.5123 59.6446C91.9059 58.5763 92.1027 57.3815 92.1027 56.0602C92.1027 56.0602 92.1027 55.9056 92.1027 55.5964C92.1027 55.2731 92.1027 54.7952 92.1027 54.1626C92.1027 53.516 92.1027 52.7008 92.1027 51.7168L94.8648 51.4005C94.8648 51.766 94.8648 52.1596 94.8648 52.5813C94.8648 52.9889 94.8648 53.3965 94.8648 53.8042C94.8648 54.2118 94.8648 54.5843 94.8648 54.9217C94.8648 55.245 94.8648 55.512 94.8648 55.7229C94.8648 55.9197 94.8648 56.0181 94.8648 56.0181C94.8648 57.4237 94.6891 58.759 94.3377 60.0241C94.0003 61.2892 93.431 62.4559 92.6298 63.5241C91.8286 64.5784 90.7463 65.5131 89.3828 66.3284L86.7051 64.494ZM84.2171 55.006C84.5123 55.0341 84.8286 55.0622 85.1659 55.0903C85.5033 55.1184 85.8336 55.1325 86.1569 55.1325C86.3537 55.1325 86.7262 55.1325 87.2744 55.1325C87.8225 55.1325 88.4832 55.1325 89.2563 55.1325C90.0434 55.1325 90.8868 55.1325 91.7864 55.1325C92.686 55.1325 93.5856 55.1325 94.4852 55.1325C95.3849 55.1325 96.2282 55.1325 97.0154 55.1325C97.8025 55.1325 98.4772 55.1325 99.0395 55.1325C99.6018 55.1325 99.9813 55.1325 100.178 55.1325C100.333 55.1325 100.529 55.1255 100.768 55.1114C101.007 55.0974 101.246 55.0833 101.485 55.0692C101.738 55.0411 101.942 55.0201 102.097 55.006V57.7259C101.816 57.6978 101.506 57.6767 101.169 57.6626C100.846 57.6486 100.536 57.6416 100.241 57.6416C100.045 57.6416 99.665 57.6416 99.1028 57.6416C98.5546 57.6416 97.8799 57.6416 97.0786 57.6416C96.2915 57.6416 95.4411 57.6416 94.5274 57.6416C93.6278 57.6416 92.7212 57.6416 91.8075 57.6416C90.9079 57.6416 90.0645 57.6416 89.2774 57.6416C88.4902 57.6416 87.8225 57.6416 87.2744 57.6416C86.7262 57.6416 86.3677 57.6416 86.199 57.6416C85.8757 57.6416 85.5314 57.6486 85.1659 57.6626C84.8004 57.6767 84.4842 57.6978 84.2171 57.7259V55.006Z" fill="#00AFA1"/>
<path d="M112.642 48.9878H130.935V22.1177L112.642 48.9878ZM148.545 48.9878V55.5915H139.967V71H130.935V55.5915H108.619V50.1264L133.06 14.2996H139.967V48.9878H148.545Z" fill="#00AFA1"/>
<g clip-path="url(#clip0_201_17441)">
<path d="M54.8251 85.9031C55.0205 85.8597 55.2159 85.8163 55.4113 85.7729C55.4113 85.6427 55.4358 85.5342 55.4602 85.404C55.6556 85.3606 55.851 85.3172 56.0464 85.2738C56.4372 84.97 56.0952 84.8399 56.7059 84.5795C56.7791 84.0804 56.828 83.5813 56.9013 83.0822C56.7303 82.9954 56.5349 82.9086 56.3639 82.8435C56.1929 82.6265 56.022 82.4312 55.8754 82.2142C55.1671 81.8236 50.9172 81.0425 49.354 81.1727C49.354 81.2378 49.354 81.3029 49.3295 81.368C48.6701 81.3029 47.9862 81.2378 47.3267 81.1727C47.3267 81.2378 47.3267 81.3029 47.3023 81.368C46.7161 81.368 46.1543 81.368 45.5681 81.368V81.5633C45.3483 81.5633 45.1529 81.5199 44.9819 81.4982C44.9819 81.5633 44.9819 81.6284 44.9819 81.6935C44.6888 81.6718 44.4201 81.6284 44.127 81.6067C44.127 81.6718 44.127 81.7368 44.127 81.8019C43.3698 81.8019 42.5882 81.7802 41.8066 81.7585V81.9538C41.5868 81.9538 41.3914 81.9104 41.2204 81.8887C41.2204 81.9538 41.2204 82.0189 41.196 82.084C40.9029 82.0623 40.6342 82.0189 40.3411 81.9972C40.3411 82.0623 40.3411 82.1274 40.3167 82.1925L39.1443 82.2576V82.4529C38.8268 82.4312 38.5581 82.3878 38.265 82.3661C38.265 82.4312 38.265 82.4963 38.2406 82.5614C37.8498 82.5831 37.459 82.6048 37.0682 82.6265C37.0682 82.6916 37.0682 82.7567 37.0682 82.8218C36.0912 82.9086 35.1142 82.9954 34.1372 83.0822L33.7953 83.4294C33.5999 83.4294 33.4045 83.386 33.2335 83.3643C33.2335 83.4294 33.2335 83.4945 33.2091 83.5596C32.8183 83.5813 32.4275 83.603 32.0367 83.6247V83.82C31.426 83.82 30.8643 83.82 30.2781 83.82C30.2781 83.8851 30.2781 83.9502 30.2781 84.0153C30.0827 84.0153 29.8873 83.9719 29.7163 83.9502C29.5942 84.0587 29.4965 84.1672 29.3743 84.2974C28.7881 84.3625 28.2019 84.4276 27.6157 84.4927C27.4936 84.6012 27.3959 84.7314 27.2738 84.8399C26.7853 84.8399 26.2968 84.8616 25.8327 84.8832C25.8327 84.9483 25.8327 85.0134 25.8083 85.0785C25.6129 85.0785 25.4175 85.0351 25.2465 85.0134C25.1488 85.1219 25.0267 85.2521 24.9046 85.3606L23.7322 85.4257C23.61 85.5342 23.5123 85.6644 23.3902 85.7729C23.1948 85.7729 22.9994 85.7295 22.8284 85.7078L22.2178 86.0333C22.0224 86.0333 21.827 85.9899 21.656 85.9682C21.656 86.0333 21.656 86.0984 21.6316 86.1635C21.4362 86.1635 21.2408 86.1201 21.0699 86.0984C20.9477 86.2069 20.85 86.3371 20.7279 86.4456C20.4348 86.489 20.1417 86.5107 19.8486 86.5541V86.7494C19.238 86.8145 18.6518 86.8796 18.0656 86.9447C18.0656 87.0098 18.0656 87.0749 18.0412 87.14C17.7481 87.1834 17.455 87.2051 17.1619 87.2485L16.8199 87.5957C16.6245 87.5957 16.4291 87.5523 16.2581 87.5306C15.9406 87.7476 15.6231 87.9646 15.3056 88.1815C14.8171 88.1815 14.3286 88.2032 13.8645 88.2249C13.547 88.4419 13.2294 88.6589 12.9119 88.8759C12.7165 88.8759 12.5211 88.8325 12.3501 88.8108C12.228 88.9193 12.1303 89.0495 12.0082 89.158C11.7151 89.2014 11.422 89.2231 11.1289 89.2665C11.1289 89.3316 11.1289 89.3967 11.1045 89.4618C10.9091 89.4618 10.7137 89.4184 10.5427 89.3967C10.3229 89.5703 10.103 89.7222 9.90764 89.8958C9.71224 89.8958 9.51684 89.8524 9.34587 89.8307C9.12604 90.0043 8.93064 90.1562 8.71082 90.3298C8.51542 90.3298 8.32002 90.2864 8.14905 90.2647C8.02692 90.3732 7.92922 90.5034 7.8071 90.6119C7.6117 90.6119 7.4163 90.5685 7.24532 90.5468C6.31717 91.0893 5.3646 91.61 4.43645 92.1525C4.33875 92.9988 4.4853 93.1941 4.82725 93.6932C5.29132 93.7366 5.77982 93.78 6.2439 93.8451C6.75682 93.5196 7.29417 93.1941 7.8071 92.8686C8.32002 92.6733 8.83294 92.478 9.32144 92.261C9.44357 92.1525 9.54127 92.0223 9.66339 91.9138C9.85879 91.9138 10.0542 91.9572 10.2252 91.9789C10.5427 91.7619 10.8602 91.5449 11.1777 91.3279C11.3731 91.3279 11.5685 91.3713 11.7395 91.393C12.057 91.176 12.3746 90.9591 12.6921 90.7421C12.8875 90.7421 13.0829 90.7855 13.2539 90.8072C13.376 90.6987 13.4737 90.5685 13.5958 90.46C13.7912 90.46 13.9866 90.5034 14.1576 90.5251C14.3774 90.3515 14.5972 90.1996 14.7926 90.026C15.0857 89.9826 15.3788 89.9609 15.6719 89.9175C15.7941 89.809 15.8918 89.6788 16.0139 89.5703C16.6001 89.5052 17.1863 89.4401 17.7725 89.375C17.8702 89.2665 17.9923 89.1363 18.1144 89.0278C18.3098 89.0278 18.5052 89.0712 18.6762 89.0929C18.896 88.9193 19.0914 88.7674 19.3113 88.5938C19.5067 88.5938 19.7021 88.6372 19.873 88.6589C19.9952 88.5504 20.0929 88.4202 20.215 88.3117C20.6058 88.29 20.9966 88.2683 21.3874 88.2466C21.5095 88.1381 21.6072 88.0079 21.7293 87.8995C21.9247 87.8995 22.1201 87.9429 22.2911 87.9646L22.633 87.6174C22.8284 87.6174 23.0238 87.6608 23.1948 87.6825C23.3169 87.574 23.4146 87.4438 23.5368 87.3353C23.8299 87.357 24.0985 87.4004 24.3916 87.4221C24.3916 87.357 24.3916 87.2919 24.4161 87.2268C24.6115 87.2268 24.8069 87.2702 24.9778 87.2919C25.1 87.1834 25.1977 87.0532 25.3198 86.9447C25.7106 86.923 26.1014 86.9013 26.4922 86.8796C26.5899 86.7711 26.712 86.6409 26.8341 86.5324C27.0295 86.5324 27.2249 86.5758 27.3959 86.5975C27.3959 86.5324 27.3959 86.4673 27.4203 86.4022C27.6157 86.4022 27.8111 86.4456 27.9821 86.4673C27.9821 86.4022 27.9821 86.3371 28.0065 86.272C28.2996 86.2937 28.5683 86.3371 28.8614 86.3588V86.1635C29.472 86.0984 30.0582 86.0333 30.6444 85.9682C30.6444 85.9031 30.6444 85.838 30.6444 85.7729C30.8398 85.7729 31.0352 85.8163 31.2062 85.838C31.3283 85.7295 31.426 85.5993 31.5482 85.4908C31.7436 85.4908 31.939 85.5342 32.1099 85.5559L32.7206 85.2304C33.7953 85.0785 34.87 84.9483 35.9691 84.7965C36.0912 84.688 36.1889 84.5578 36.311 84.4493C36.8972 84.4493 37.459 84.4493 38.0452 84.4493C38.0452 84.3842 38.0452 84.3191 38.0696 84.254C38.4604 84.2323 38.8512 84.2106 39.242 84.1889V83.9936C39.5595 84.0153 39.8282 84.0587 40.1213 84.0804C40.1213 84.0153 40.1213 83.9502 40.1457 83.8851C40.3411 83.8851 40.5365 83.9285 40.7075 83.9502C40.7075 83.8851 40.7075 83.82 40.7319 83.7549C41.025 83.7766 41.2937 83.82 41.5868 83.8417C41.5868 83.7766 41.5868 83.7115 41.6112 83.6464C41.8066 83.6464 42.002 83.6898 42.173 83.7115C42.173 83.6464 42.173 83.5813 42.1974 83.5162C42.4905 83.5379 42.7592 83.5813 43.0523 83.603C43.0523 83.5379 43.0523 83.4728 43.0767 83.4077C43.2721 83.4077 43.4675 83.4511 43.6385 83.4728V83.2775C44.0537 83.3209 44.4201 83.3643 44.8109 83.386C44.8109 83.3209 44.8109 83.2558 44.8353 83.1907C45.1284 83.2124 45.3971 83.2558 45.6902 83.2775V83.0822C46.1054 83.1256 46.4718 83.1473 46.8626 83.1907C46.8626 83.1256 46.8626 83.0605 46.8626 82.9954C47.1557 83.0171 47.4244 83.0605 47.7175 83.0822C47.7175 83.0171 47.7175 82.952 47.7419 82.8869C48.9876 82.735 49.1586 83.2341 50.0623 82.735C51.308 82.8652 52.5292 82.9954 53.7749 83.1039C53.7749 83.1039 54.1168 83.4511 54.2878 83.5379C54.068 83.7549 53.7993 83.7549 53.6772 83.8634C53.6772 83.9936 53.6528 84.1021 53.6283 84.2323C53.4329 84.2757 53.2375 84.3191 53.0421 84.3625C53.0421 84.4927 53.0177 84.6012 52.9933 84.7314L52.3827 85.0568C52.3827 85.187 52.3582 85.2955 52.3338 85.4257C52.1384 85.4691 51.943 85.5125 51.7476 85.5559C51.7476 85.6861 51.7232 85.7946 51.6988 85.9248C51.5034 85.9682 51.308 86.0116 51.1126 86.055C50.7462 86.3588 51.0637 86.4673 50.4531 86.7494C50.2821 88.2032 49.9402 89.3316 51.5034 89.8741C52.6025 90.2647 56.0708 89.6354 56.7547 89.4618C56.7547 89.3967 56.7547 89.3316 56.7791 89.2665C56.9745 89.2665 57.1699 89.3099 57.3409 89.3316C57.3409 89.2665 57.3409 89.2014 57.3409 89.1363C57.5363 89.1363 57.7317 89.1797 57.9027 89.2014C57.9027 89.1363 57.9027 89.0712 57.9027 89.0061C58.1958 89.0278 58.4645 89.0712 58.7576 89.0929C58.7576 89.0278 58.7576 88.9627 58.7576 88.8976C58.953 88.8976 59.1484 88.941 59.3193 88.9627V88.7674C59.93 88.7023 60.5162 88.6372 61.1024 88.5721C61.1024 88.507 61.1024 88.4419 61.1268 88.3768C61.3222 88.3768 61.5176 88.4202 61.6886 88.4419C61.6886 88.3768 61.6886 88.3117 61.6886 88.2466C61.9817 88.2683 62.2503 88.3117 62.5434 88.3334C62.5434 88.2683 62.5434 88.2032 62.5679 88.1381C62.7633 88.1381 62.9587 88.1815 63.1296 88.2032C63.1296 88.1381 63.1296 88.073 63.1296 88.0079C63.5204 87.9863 63.9112 87.9646 64.302 87.9429C64.302 87.8778 64.302 87.8127 64.3265 87.7476C64.9127 87.7476 65.4744 87.7476 66.0606 87.7476C66.1583 87.6391 66.2805 87.5089 66.4026 87.4004C66.598 87.4004 66.7934 87.4438 66.9644 87.4655C66.9644 87.4004 66.9644 87.3353 66.9888 87.2702C67.3796 87.2485 67.7704 87.2268 68.1612 87.2051C68.1612 87.14 68.1612 87.0749 68.1856 87.0098C68.8695 87.0098 69.529 87.0098 70.2129 87.0098V86.8145C70.4327 86.8145 70.6281 86.8579 70.7991 86.8796C70.7991 86.8145 70.7991 86.7494 70.8235 86.6843C71.312 86.6843 71.8005 86.6626 72.2646 86.6409C72.3867 86.5324 72.4844 86.4022 72.6065 86.2937C72.9973 86.3371 73.3637 86.3588 73.7545 86.4022C73.7545 86.3371 73.7545 86.272 73.7789 86.2069C74.4628 86.2069 75.1223 86.2069 75.8062 86.2069V86.0116C76.2214 86.055 76.5878 86.0984 76.9786 86.1201C76.9786 86.1852 76.9786 86.2503 76.9786 86.3154C77.6136 86.9013 76.6611 87.9646 76.9542 88.7674C77.0519 88.7674 77.1496 88.7674 77.2473 88.7891C77.2228 88.9844 77.1984 89.158 77.174 89.3533C77.2717 89.3533 77.3694 89.3533 77.4671 89.375C77.4671 89.5052 77.4427 89.6137 77.4182 89.7439C77.5159 89.7439 77.6136 89.7439 77.7113 89.7656C77.8823 89.9609 78.0533 90.1779 78.1998 90.3732C79.1524 90.5902 80.1294 91.2194 81.5705 91.0893V90.894C82.3521 90.894 83.1337 90.9157 83.8909 90.9374C84.013 90.8289 84.1107 90.6987 84.2328 90.5902C84.4282 90.5902 84.6236 90.6336 84.7946 90.6553C84.7946 90.5902 84.7946 90.5251 84.819 90.46C85.6983 90.4166 86.5532 90.3732 87.4325 90.3515C87.5546 90.243 87.6523 90.1128 87.7744 90.0043C88.1652 89.9826 88.556 89.9609 88.9468 89.9392C88.9468 89.8741 88.9468 89.809 88.9713 89.7439C89.3621 89.7222 89.7528 89.7005 90.1436 89.6788C90.1436 89.6137 90.1436 89.5486 90.1436 89.4835L90.9985 89.5703C90.9985 89.5703 90.9985 89.4401 91.0229 89.375C91.6091 89.3099 92.1953 89.2448 92.7815 89.1797C92.7815 89.1146 92.7815 89.0495 92.806 88.9844C93.3922 88.9193 93.9784 88.8542 94.5646 88.7891C94.6867 88.6806 94.7844 88.5504 94.9065 88.4419C95.1996 88.4636 95.4683 88.507 95.7614 88.5287C95.7614 88.4636 95.7614 88.3985 95.7614 88.3334C95.9568 88.3334 96.1522 88.3768 96.3232 88.3985C96.3232 88.3334 96.3232 88.2683 96.3476 88.2032C96.9338 88.1381 97.52 88.073 98.1062 88.0079C98.1062 87.9429 98.1062 87.8778 98.1306 87.8127C98.4237 87.8344 98.6924 87.8778 98.9855 87.8995C98.9855 87.8344 98.9855 87.7693 98.9855 87.7042C99.1809 87.7042 99.3763 87.7476 99.5473 87.7693C99.5473 87.7042 99.5473 87.6391 99.5717 87.574C99.7671 87.574 99.9625 87.6174 100.133 87.6391C100.133 87.574 100.133 87.5089 100.133 87.4438C100.964 87.2919 100.964 87.574 101.599 87.2051C101.99 87.2485 102.356 87.2919 102.747 87.3136V87.5089C102.747 87.5089 102.918 87.5089 103.016 87.5306C103.358 88.0079 102.6 88.7891 102.527 88.9844C102.625 88.9844 102.722 88.9844 102.82 89.0061C102.771 89.3099 102.747 89.6354 102.698 89.9392C102.771 90.0694 103.089 89.9826 103.187 90.5685C103.455 90.6553 103.748 90.7421 104.017 90.8506C104.017 90.9157 104.017 90.9808 103.993 91.0459L104.847 91.1326C104.847 91.1326 104.847 91.2628 104.823 91.3279C106.679 91.9355 108.707 91.393 109.757 91.2628C110.148 91.3062 110.514 91.3279 110.905 91.3713C110.905 91.3062 110.905 91.2411 110.929 91.176C111.222 91.1977 111.491 91.2411 111.784 91.2628C111.784 91.1977 111.784 91.1326 111.809 91.0676C112.102 91.0893 112.37 91.1326 112.663 91.1543V90.9591C112.981 90.9808 113.25 91.0242 113.543 91.0459C113.543 90.9808 113.543 90.9157 113.567 90.8506C113.86 90.8723 114.129 90.9157 114.422 90.9374C114.422 90.8723 114.422 90.8072 114.422 90.7421L115.594 90.677C115.594 90.677 115.594 90.5468 115.619 90.4817C115.814 90.4817 116.01 90.5251 116.181 90.5468C116.181 90.4817 116.181 90.4166 116.205 90.3515C116.498 90.3732 116.767 90.4166 117.06 90.4383C117.06 90.3732 117.06 90.3081 117.084 90.243C117.28 90.243 117.475 90.2864 117.646 90.3081C117.646 90.243 117.646 90.1779 117.646 90.1128C118.037 90.1562 118.403 90.1996 118.794 90.2213C118.794 90.1562 118.794 90.0911 118.819 90.026C119.014 90.026 119.209 90.0694 119.38 90.0911V89.8958C119.6 89.8958 119.796 89.9392 119.967 89.9609C120.089 89.8524 120.186 89.7439 120.308 89.6137C120.992 89.6137 121.652 89.6137 122.336 89.6137C122.336 89.5486 122.336 89.4835 122.336 89.4184C122.531 89.4184 122.727 89.4618 122.898 89.4835C122.898 89.4184 122.898 89.3533 122.922 89.2882C123.508 89.2882 124.07 89.2882 124.656 89.2882V89.0929C125.071 89.1363 125.438 89.1797 125.829 89.2014C125.951 89.0929 126.048 88.9627 126.17 88.8542C126.366 88.8542 126.561 88.8976 126.732 88.9193C126.732 88.8542 126.732 88.7891 126.757 88.724C127.734 88.7023 128.686 88.6589 129.663 88.6372C129.663 88.5721 129.663 88.507 129.688 88.4419C129.981 88.4636 130.249 88.507 130.543 88.5287C130.543 88.4636 130.543 88.3985 130.567 88.3334C130.86 88.3551 131.129 88.3985 131.422 88.4202C131.422 88.3551 131.422 88.29 131.446 88.2249C131.739 88.2466 132.008 88.29 132.301 88.3117V88.1164C132.619 88.1381 132.887 88.1815 133.18 88.2032C133.18 88.1381 133.18 88.073 133.205 88.0079C133.4 88.0079 133.596 88.0513 133.767 88.073C133.767 88.0079 133.767 87.9429 133.791 87.8778C134.084 87.8995 134.353 87.9429 134.646 87.9646C134.646 87.8995 134.646 87.8344 134.646 87.7693C135.037 87.8127 135.403 87.8561 135.794 87.8778V87.6825C136.111 87.7042 136.38 87.7476 136.673 87.7693C136.673 87.7042 136.673 87.6391 136.698 87.574C136.991 87.5957 137.259 87.6391 137.553 87.6608C137.553 87.5957 137.553 87.5306 137.553 87.4655C137.943 87.5089 138.31 87.5523 138.7 87.574C138.7 87.5089 138.7 87.4438 138.725 87.3787L140.142 87.5306C140.142 87.5306 140.142 87.4004 140.166 87.3353C140.557 87.3136 140.948 87.2919 141.338 87.2702C141.338 87.2051 141.338 87.14 141.363 87.0749C141.851 87.1183 142.315 87.1617 142.804 87.2268V87.0315C143.121 87.0532 143.39 87.0966 143.683 87.1183C143.683 87.0532 143.683 86.9881 143.683 86.923C145.271 86.6843 145.955 87.1183 146.956 86.3154C147.054 86.3154 147.152 86.3154 147.249 86.3371L147.054 85.5559C143.927 85.2738 141.876 85.4691 139.507 85.7295C138.749 85.7295 137.968 85.7078 137.211 85.6861C137.211 85.7512 137.211 85.8163 137.186 85.8814C136.991 85.8814 136.795 85.838 136.624 85.8163C136.624 85.8814 136.624 85.9465 136.6 86.0116C136.014 86.0116 135.452 86.0116 134.866 86.0116C134.866 86.0767 134.866 86.1418 134.841 86.2069C134.06 86.2069 133.303 86.1852 132.521 86.1635C132.521 86.2286 132.521 86.2937 132.521 86.3588L131.666 86.272C131.666 86.272 131.666 86.4022 131.642 86.4673C131.349 86.4456 131.08 86.4022 130.787 86.3805C130.787 86.4456 130.787 86.5107 130.762 86.5758C130.469 86.5541 130.201 86.5107 129.907 86.489C129.907 86.5541 129.907 86.6192 129.883 86.6843C129.688 86.6843 129.492 86.6409 129.321 86.6192C129.321 86.6843 129.321 86.7494 129.297 86.8145C128.906 86.7711 128.54 86.7277 128.149 86.706V86.9013C127.831 86.8796 127.563 86.8362 127.27 86.8145V87.0098C126.952 86.9881 126.683 86.9447 126.39 86.923V87.1183C126.073 87.0966 125.804 87.0532 125.511 87.0315C125.511 87.0966 125.511 87.1617 125.487 87.2268C125.193 87.2051 124.925 87.1617 124.632 87.14V87.3353C124.412 87.3353 124.216 87.2919 124.046 87.2702C124.046 87.3353 124.045 87.4004 124.021 87.4655C123.533 87.4655 123.044 87.4872 122.58 87.5089C122.58 87.574 122.58 87.6391 122.58 87.7042C122.189 87.6608 121.823 87.6391 121.432 87.5957C121.432 87.6608 121.432 87.7259 121.408 87.791C121.212 87.791 121.017 87.7476 120.846 87.7259V87.9212C120.235 87.9212 119.673 87.9212 119.087 87.9212C119.087 87.9862 119.087 88.0513 119.063 88.1164C118.672 88.1381 118.281 88.1598 117.89 88.1815C117.89 88.2466 117.89 88.3117 117.89 88.3768C117.695 88.3768 117.5 88.3334 117.329 88.3117C117.329 88.3768 117.329 88.4419 117.304 88.507C116.425 88.5504 115.57 88.5721 114.691 88.6155V88.8108C114.471 88.8108 114.276 88.7674 114.105 88.7457C114.105 88.8108 114.105 88.8759 114.08 88.941C113.494 88.941 112.932 88.941 112.346 88.941C112.346 89.0061 112.346 89.0712 112.322 89.1363C111.931 89.158 111.54 89.1797 111.149 89.2014C111.149 89.2665 111.149 89.3316 111.125 89.3967C110.832 89.375 110.563 89.3316 110.27 89.3099V89.5052C109.561 89.5052 108.902 89.5052 108.218 89.5052V89.7005C107.266 89.6354 105.824 89.5703 105.36 89.2231C105.263 89.2231 105.165 89.2231 105.067 89.2014C104.921 88.8325 105.263 88.9627 105.409 88.8542C105.507 88.1598 105.58 87.4872 105.678 86.7928C105.043 86.4239 104.432 86.0333 103.797 85.6644C101.648 85.4908 99.6694 85.5559 97.9841 85.838C97.9841 85.9031 97.9841 85.9682 97.9841 86.0333C97.4956 86.0333 97.0071 86.055 96.543 86.0767C96.4209 86.1852 96.3232 86.3154 96.201 86.4239C96.0056 86.4239 95.8347 86.3805 95.6393 86.3588L95.0286 86.6843C93.9539 86.8362 92.8792 86.9664 91.7801 87.1183C91.6824 87.2268 91.5603 87.357 91.4382 87.4655C91.0474 87.4872 90.6566 87.5089 90.2658 87.5306C90.2658 87.5957 90.2658 87.6608 90.2413 87.7259C89.8505 87.7476 89.4598 87.7693 89.069 87.791C89.069 87.8561 89.0689 87.9212 89.0445 87.9863C88.4583 87.9863 87.8966 87.9863 87.3103 87.9863C87.3103 88.0513 87.3103 88.1164 87.3103 88.1815C87.115 88.1815 86.9196 88.1381 86.7486 88.1164C86.6265 88.2249 86.5288 88.3551 86.4066 88.4636C86.0158 88.4853 85.625 88.507 85.2342 88.5287C85.2342 88.5938 85.2342 88.6589 85.2098 88.724L84.0618 88.6155C84.0618 88.6155 84.0618 88.7457 84.0374 88.8108C83.842 88.8108 83.6466 88.7674 83.4756 88.7457C83.4756 88.8108 83.4756 88.8759 83.4512 88.941H81.717L81.6926 89.1363C80.0806 88.9627 80.0317 88.7457 79.2013 88.3117C79.2501 87.8778 79.3234 87.4438 79.3722 87.0098C79.4699 87.0098 79.5676 87.0098 79.6653 87.0315C79.9829 86.6409 80.3248 85.9682 79.8607 85.5342C79.6653 84.8182 79.0303 84.8182 78.5662 84.2757C77.5159 84.2323 76.4657 84.1889 75.391 84.1455C75.391 84.2106 75.391 84.2757 75.3665 84.3408C75.1711 84.3408 74.9757 84.2974 74.8048 84.2757C74.8048 84.3408 74.8048 84.4059 74.7803 84.471C74.3895 84.4276 74.0232 84.4059 73.6324 84.3625C73.6324 84.4276 73.6324 84.4927 73.6324 84.5578C73.3393 84.5361 73.0706 84.4927 72.7775 84.471C72.7775 84.5361 72.7775 84.6012 72.7531 84.6663C72.46 84.6446 72.1913 84.6012 71.8982 84.5795C71.8982 84.6446 71.8982 84.7097 71.8738 84.7748C71.5807 84.7531 71.312 84.7097 71.0189 84.688C71.0189 84.7531 71.0189 84.8182 70.9945 84.8832C70.7014 84.8616 70.4327 84.8182 70.1396 84.7965C70.1396 84.8615 70.1396 84.9266 70.1152 84.9917C69.7244 85.0134 69.3336 85.0351 68.9428 85.0568V85.2521C68.4299 85.2521 67.9414 85.2738 67.4773 85.2955C67.4773 85.3606 67.4773 85.4257 67.4529 85.4908C67.0621 85.4474 66.6957 85.404 66.3049 85.3823C66.3049 85.4474 66.3049 85.5125 66.2805 85.5776C65.6943 85.6427 65.1081 85.7078 64.5219 85.7729C64.5219 85.838 64.5219 85.9031 64.5219 85.9682C64.2288 85.9465 63.9601 85.9031 63.667 85.8814C63.667 85.9465 63.667 86.0116 63.6426 86.0767C63.4472 86.0767 63.2518 86.0333 63.0808 86.0116C63.0808 86.0767 63.0808 86.1418 63.0564 86.2069C62.4702 86.272 61.884 86.3371 61.2978 86.4022C61.2978 86.4673 61.2978 86.5324 61.2978 86.5975C61.0047 86.5758 60.736 86.5324 60.4429 86.5107C60.4429 86.5758 60.4429 86.6409 60.4185 86.706C59.93 86.706 59.4415 86.7277 58.9774 86.7494C58.8553 86.8579 58.7576 86.9881 58.6354 87.0966C58.44 87.0966 58.2446 87.0532 58.0737 87.0315C58.0737 87.0966 58.0737 87.1617 58.0737 87.2268C57.8783 87.2268 57.6829 87.1834 57.5119 87.1617C57.5119 87.2268 57.5119 87.2919 57.4875 87.357C57.1944 87.3353 56.9257 87.2919 56.6326 87.2702V87.4655C56.2174 87.4872 55.8266 87.5089 55.4358 87.5306C55.4358 87.5957 55.4358 87.6608 55.4358 87.7259C55.1427 87.7042 54.874 87.6608 54.5809 87.6391C54.5809 87.7042 54.5809 87.7693 54.5565 87.8344C53.897 87.7259 53.8726 87.6825 53.4329 87.5306C53.7016 86.7494 54.239 86.6409 54.7763 86.1418C54.7763 86.0116 54.8007 85.9031 54.8251 85.7729" fill="#00AFA1"/>
</g>
<defs>
<clipPath id="clip0_201_17441">
<rect width="143.375" height="12.6507" fill="white" transform="translate(4.2168 81.1738)"/>
</clipPath>
</defs>
</svg>
