<svg width="286" height="105" viewBox="0 0 286 105" fill="none" xmlns="http://www.w3.org/2000/svg">
<path d="M15.4534 9.63456L15.7401 9.3888C26.7174 10.167 22.5395 18.4819 18.2387 15.4099C17.9929 13.321 16.7232 11.0272 15.4534 9.63456ZM7.8758 28.0256H22.9081V23.1104H12.0537L11.726 21.9226H22.9081V17.335H9.63708L9.3094 16.1472H28.4787C29.3798 14.0173 30.2809 11.0682 30.7724 8.9792L37.0393 10.8634C36.8755 11.3958 36.384 11.6826 35.4828 11.6006C34.0902 12.9933 31.8374 14.7546 29.7484 16.1472H35.8924L38.5139 12.8704C38.5139 12.8704 41.422 15.0822 43.2243 16.6797C43.1014 17.1302 42.6918 17.335 42.0774 17.335H27.9052V21.9226H33.7216L36.1792 18.8915C36.1792 18.8915 39.0054 20.9395 40.7257 22.455C40.6028 22.9056 40.1932 23.1104 39.5788 23.1104H27.9052V28.0256H36.6707L39.3331 24.585C39.3331 24.585 42.3232 26.9197 44.1254 28.5581C44.0435 28.9677 43.552 29.1725 42.9785 29.1725H8.20348L7.8758 28.0256ZM43.7158 36.0128H28.192C31.4688 40.6003 38.0224 42.1158 45.3542 42.5664L45.3132 43.017C43.4291 43.6314 42.2412 45.2288 41.7907 47.5635C34.4998 45.7613 29.7894 42.8122 27.2908 36.0128H26.9222C25.4886 41.5424 21.5155 45.3926 6.647 47.7274L6.40124 47.072C16.7232 44.041 20.2048 40.6003 21.4745 36.0128H7.30236L6.97468 34.8659H21.7203C22.048 33.3094 22.1299 31.6301 22.2118 29.7869L29.0931 30.2784C29.0112 30.8518 28.5606 31.3024 27.6595 31.3843C27.5366 32.6131 27.3728 33.76 27.168 34.8659H37.2851L39.9884 31.4662C39.9884 31.4662 43.0195 33.76 44.9036 35.3574C44.7808 35.808 44.3302 36.0128 43.7158 36.0128ZM51.744 24.8307C51.4572 23.8886 51.3753 23.1514 51.4163 22.1683L52.0307 21.8816C53.2185 23.1104 53.9968 23.8886 55.5532 23.8886C58.0518 23.8886 68.4147 22.5779 71.5276 22.0045C73.0432 21.7587 73.6166 20.8986 74.5177 20.8986C76.1971 20.8986 79.7196 23.7248 79.7196 25.3222C79.7196 26.4282 77.8355 27.0426 76.9344 28.7219C73.1251 35.8899 66.3257 42.8531 54.2016 46.4166L53.751 45.5974C63.8272 40.3136 70.094 32.3264 72.4288 25.6909C72.5926 25.1584 72.4288 24.9536 71.9372 24.9946C69.7254 25.0765 61.4105 26.7149 58.83 27.4931C57.6012 27.8208 56.823 28.599 55.9219 28.599C54.2016 28.599 52.1536 26.1005 51.744 24.8307ZM74.8864 14.6726C74.8864 15.4918 74.4358 16.0653 73.1251 16.352C69.8483 17.1302 63.9091 18.1542 60.3865 18.1542C57.806 18.1542 56.4544 16.6387 54.9798 13.6486L55.4304 13.28C57.1097 14.345 58.5433 14.5088 59.936 14.5088C62.967 14.5088 65.3836 13.8125 67.104 13.321C69.152 12.7475 69.7664 12.215 70.3398 12.215C73.0841 12.215 74.8864 13.0342 74.8864 14.6726ZM105.227 12.297L105.431 11.6006C106.537 11.5187 107.848 11.4368 109.077 11.8464C111.33 12.5018 113.787 14.7955 113.787 16.2701C113.787 17.4989 112.763 17.4579 111.657 18.6048C110.224 20.0794 108.176 22.2502 105.718 24.544C107.111 25.4861 108.135 26.2643 108.135 27.0426C108.135 27.7798 107.766 28.5171 107.766 29.705C107.561 35.1936 107.848 41.0918 107.848 43.1808C107.848 44.9421 107.07 46.048 105.595 46.048C103.465 46.048 102.482 43.959 102.482 41.911C102.482 41.1328 102.769 40.1907 102.933 38.839C103.383 34.825 103.424 30.1965 103.383 28.3942C103.383 27.7798 103.301 27.2474 103.138 26.7968C100.27 29.1725 93.9625 33.76 86.7536 36.1357L86.303 35.3574C94.9865 30.3603 103.506 21.6768 106.537 16.9664C107.234 15.8605 107.602 15.0003 107.602 14.4678C107.602 13.7306 106.455 12.9114 105.227 12.297ZM129.106 15.8195L129.475 15.1642C135.127 15.8195 141.845 18.2362 141.845 22.455C141.845 23.9296 140.78 25.1994 139.182 25.1994C137.872 25.1994 137.011 24.4621 135.987 23.0285C134.062 20.3251 133.038 18.8096 129.106 15.8195ZM133.571 38.2656C137.995 38.2656 154.01 27.1245 159.908 19.2192L160.645 19.7107C156.017 28.681 148.562 35.8899 139.059 41.7062C137.749 42.5254 137.216 43.8771 136.028 43.8771C133.694 43.8771 130.827 41.4605 130.007 39.8221C129.516 38.88 129.106 37.2826 129.106 36.0947L129.68 35.7261C130.663 36.7091 132.096 38.2656 133.571 38.2656ZM166.462 14.7546L166.871 14.2221C169.452 14.8365 171.705 15.7786 173.507 17.2941C173.63 17.376 173.712 17.4989 173.753 17.5808C177.849 17.335 186.942 16.5158 189.481 16.1882C190.341 16.0653 191.57 14.8774 192.43 14.8774C194.192 14.8774 197.755 18.0314 197.755 19.3421C197.755 20.407 196.117 21.1034 195.748 22.1683C191.652 33.9648 185.139 41.4605 173.589 46.089L173.015 45.2698C182.805 39.1258 188.867 29.4592 190.669 19.7517C190.751 19.1373 190.669 19.0144 190.137 19.0144C188.252 19.0144 184.894 19.383 182.354 19.7107C179.856 20.0384 177.48 20.6528 176.415 20.6528C175.637 20.6528 175.022 20.2842 174.162 19.6288C174.367 22.2093 174.695 28.1485 174.736 30.3194C174.736 31.671 174.49 32.777 172.729 32.777C170.885 32.777 169.779 30.1555 169.779 28.7219C169.779 27.7798 169.984 26.633 169.943 25.1994C169.902 23.7248 169.779 21.472 169.411 19.6698C169.083 18.0723 168.1 16.2701 166.462 14.7546ZM207.749 15.8195L208.118 15.1642C213.771 15.8195 220.488 18.2362 220.488 22.455C220.488 23.9296 219.423 25.1994 217.826 25.1994C216.515 25.1994 215.655 24.4621 214.631 23.0285C212.706 20.3251 211.682 18.8096 207.749 15.8195ZM212.214 38.2656C216.638 38.2656 232.653 27.1245 238.551 19.2192L239.289 19.7107C234.66 28.681 227.205 35.8899 217.703 41.7062C216.392 42.5254 215.859 43.8771 214.672 43.8771C212.337 43.8771 209.47 41.4605 208.651 39.8221C208.159 38.88 207.749 37.2826 207.749 36.0947L208.323 35.7261C209.306 36.7091 210.739 38.2656 212.214 38.2656ZM265.257 18.8096L265.667 18.441C267.1 18.6458 268.043 18.9734 269.148 19.7517C270.91 21.0214 271.934 22.7827 271.934 23.8067C271.934 24.8307 270.787 24.9946 269.189 25.7318C265.503 27.4112 260.055 29.4592 253.256 31.4253C253.215 33.4733 253.174 35.2755 253.215 36.4224C253.256 39.8221 253.788 40.3136 258.253 40.3136C264.233 40.3136 268.083 38.7981 268.903 38.7981C271.975 38.7981 273.613 39.5354 273.613 41.1328C273.613 42.5664 272.794 43.1808 271.606 43.5494C269.476 44.2867 264.848 44.7373 259.359 44.7373C250.389 44.7373 249.406 43.1398 249.283 36.9139C249.16 31.0157 249.692 18.6048 249.242 17.2941C248.955 16.352 247.808 15.9014 246.006 15.4099V14.9184C246.989 14.4678 248.627 13.6896 249.815 13.6896C252.232 13.7306 255.222 16.0653 255.222 17.4989C255.222 18.5638 254.321 18.9325 254.075 20.2022C253.788 22.0864 253.543 25.8547 253.379 29.4182C258.171 27.2474 262.963 24.585 265.38 22.3322C265.995 21.7587 266.199 21.3491 265.995 20.489C265.831 19.8336 265.462 19.1373 265.257 18.8096ZM274.391 18.5638C275.989 18.5638 277.259 17.2941 277.259 15.6966C277.259 14.1402 275.989 12.8704 274.391 12.8704C272.835 12.8704 271.565 14.1402 271.565 15.6966C271.565 17.2941 272.835 18.5638 274.391 18.5638ZM274.391 11.232C276.849 11.232 278.856 13.239 278.856 15.6966C278.856 18.1952 276.849 20.1613 274.391 20.1613C271.934 20.1613 269.927 18.1952 269.927 15.6966C269.927 13.239 271.934 11.232 274.391 11.232Z" fill="#00AFA1"/>
<g clip-path="url(#clip0_201_17471)">
<path d="M260.586 56.8813C258.639 56.9173 257.184 57.043 255.536 57.043C253.931 57.043 252.369 57.1149 250.807 57.1688C249.458 57.2227 248.153 57.2945 246.805 57.3305C245.243 57.3844 243.616 57.3844 242.076 57.4562C239.679 57.582 237.218 57.6718 234.843 57.8155C232.253 57.9772 229.664 58.1389 227.053 58.2826C224.656 58.4263 222.303 58.57 219.949 58.7317C218.023 58.8575 216.097 59.0012 214.235 59.1449C210.469 59.4503 206.724 59.7557 202.851 60.0072C200.711 60.151 198.656 60.3486 196.623 60.5282C191.53 61.0133 186.33 61.4444 181.087 61.9115C178.819 62.181 176.743 62.5403 174.603 62.8816C170.837 63.4924 166.686 63.9236 162.042 64.1931C160.287 64.2829 158.597 64.4086 156.842 64.4985C155.75 64.5524 154.574 64.5344 153.418 64.4985C152.048 64.4625 150.957 64.0493 151.513 63.7799C151.599 63.7439 151.727 63.69 151.92 63.6721C153.033 63.5104 154.317 63.4385 155.472 63.2948C156.842 63.1331 158.211 62.9715 159.624 62.8277C160.844 62.702 162.106 62.6122 163.347 62.5044C164.182 62.4325 164.995 62.3606 165.808 62.2708C168.847 61.9654 171.779 61.642 174.882 61.3546C176.123 61.2468 177.193 61.0672 178.027 60.8336C178.305 60.7618 178.691 60.6899 178.798 60.6001C179.247 60.2049 180.274 59.8815 180.831 59.5222C181.387 59.1629 181.601 58.7497 181.665 58.3365C181.366 58.1928 181.087 58.0491 180.724 57.9233C179.868 57.582 178.626 57.3305 177.128 57.1329C176.08 57.0071 174.967 56.8993 173.598 56.7556C172.485 56.7017 171.094 56.6298 169.724 56.5759C168.569 56.522 167.413 56.4861 166.258 56.4682C165.081 56.4322 164.011 56.2885 162.876 56.2346C162.406 56.1987 161.999 56.2346 161.528 56.2526C160.886 56.2885 160.202 56.3244 159.517 56.3065C157.676 56.3065 155.815 56.2526 154.017 56.3424C152.69 56.4143 151.257 56.3424 149.887 56.3424C148.496 56.3424 147.169 56.3783 145.821 56.4322C141.819 56.5939 137.732 56.6658 133.731 56.8275C131.591 56.7736 129.665 56.9173 127.696 57.0071C125.727 57.0969 123.78 57.2227 121.747 57.2766C119.5 57.3484 117.36 57.4922 115.156 57.5999C108.329 57.9233 101.567 58.3006 94.8264 58.6778C91.5737 58.8575 88.2996 59.0551 85.1111 59.2707C82.1366 59.4863 79.0551 59.63 76.0806 59.8456C74.818 59.9354 73.3629 59.9174 72.1217 60.0252C69.2542 60.2947 66.1727 60.4564 63.3265 60.7258C62.7274 60.7797 62.1068 60.8516 61.4648 60.8875C58.1907 61.0851 55.0878 61.3366 52.1561 61.6959C51.3857 61.7858 50.4869 61.8397 49.6523 61.8936C47.1272 62.0912 44.6449 62.3067 42.3124 62.5942C40.0012 62.8816 37.4547 63.0613 34.9724 63.2769C33.3032 63.4206 31.6983 63.5823 30.2003 63.7799C27.2044 64.1931 23.9517 64.4985 20.8916 64.8937C19.736 65.0374 18.6018 65.1811 17.5747 65.3608C15.8627 65.6662 14.0866 65.9536 12.3746 66.2411C11.7754 66.3489 11.7112 66.5824 12.1392 66.798C12.3318 66.8878 12.5244 66.9776 12.6956 67.0854C12.8882 67.1932 12.0108 67.3908 11.433 67.3729C11.2191 67.3729 10.9837 67.3729 10.7697 67.3729C9.87089 67.301 8.99352 67.2112 8.11614 67.1213C7.90215 67.1034 7.68816 67.0675 7.49556 67.0495C6.233 66.9058 5.76221 66.4566 6.57539 66.2411C9.01492 65.6123 12.1178 65.1452 15.2849 64.714C17.8957 64.3547 20.4636 63.9775 23.2883 63.69C24.5081 63.5643 25.6208 63.4206 26.755 63.2769C27.8892 63.1331 29.2159 63.0613 30.3929 62.9355C31.3773 62.8277 32.2546 62.666 33.2604 62.5762C34.8868 62.4145 36.5345 62.2708 38.2251 62.1451C39.3164 62.0732 40.2366 61.9475 41.1782 61.8217C41.7346 61.7498 42.3124 61.66 42.9543 61.6241C46.7206 61.4265 49.9733 61.0133 53.4614 60.6899C54.7026 60.5821 55.9224 60.4743 57.1849 60.3845C59.7314 60.2049 62.2566 60.0072 64.7389 59.7917C66.1727 59.6659 67.6064 59.5222 69.2542 59.5042C69.9176 59.5042 70.5809 59.4503 71.1801 59.3785C72.5925 59.2347 74.069 59.127 75.7168 59.127C76.3802 59.127 77.0863 59.0731 77.6427 59.0012C80.1893 58.6778 83.1424 58.606 85.9243 58.4263C86.9943 58.3545 88.1498 58.3365 89.1984 58.2467C91.2955 58.067 93.4997 57.9772 95.7252 57.8874C97.5014 57.8155 99.2561 57.7257 100.904 57.564C102.552 57.4023 104.413 57.4023 106.168 57.2945C107.709 57.2047 109.207 57.1149 110.855 57.1329C111.796 57.1329 112.652 57.079 113.508 57.0251C118.045 56.7376 122.581 56.4861 127.268 56.2885C128.381 56.2346 129.451 56.1627 130.606 56.1627C133.153 56.1627 135.614 56.055 138.032 55.9651C140.257 55.8753 142.568 55.8573 144.794 55.7675C146.784 55.6957 148.838 55.6418 150.871 55.6058C151.77 55.5879 152.712 55.6058 153.611 55.5879C155.665 55.5519 157.719 55.516 159.859 55.498C161.122 55.534 162.427 55.6597 163.861 55.6238C165.423 55.5879 167.071 55.6238 168.526 55.6238C170.281 55.7316 171.8 55.9292 173.469 55.8933C175.245 56.055 177.043 56.1987 178.755 56.3963C180.296 56.5759 181.558 56.8095 182.671 57.1149C182.821 57.1508 182.992 57.2047 183.142 57.2406C184.597 57.6359 185.282 58.067 185.324 58.5521C185.346 58.7497 185.324 58.9653 185.26 59.1629C185.153 59.4683 184.961 59.7557 184.811 60.0432C185.817 60.3306 186.116 60.3486 187.143 60.2587C187.571 60.2228 187.978 60.1869 188.406 60.151C190.032 60.0072 191.616 59.8096 193.328 59.7018C194.847 59.612 196.259 59.4683 197.629 59.3066C198.421 59.2168 199.341 59.1988 200.176 59.127C202.658 58.9293 205.504 58.8934 207.751 58.57C208.093 58.5162 208.586 58.5162 209.014 58.4802C212.223 58.2646 215.433 58.0491 218.665 57.8515C219.756 57.7796 220.762 57.6898 221.768 57.582C222.559 57.4922 223.415 57.4203 224.293 57.4023C225.662 57.3664 226.903 57.2406 228.23 57.1867C230.691 57.0969 232.959 56.8813 235.378 56.7736C237.582 56.6658 239.807 56.5759 241.99 56.4682C247.918 56.1627 253.995 55.9651 260.201 55.9292C265.486 55.8933 270.815 55.9831 276.143 56.2526C276.593 56.2705 277.042 56.3065 277.513 56.3424C278.455 56.4143 279.182 56.54 279.76 56.7376C280.659 57.0251 280.723 57.2227 279.952 57.4383C279.396 57.582 278.84 57.7437 278.219 57.8694C277.577 58.0131 276.678 58.0491 275.737 58.0491C275.287 58.0491 274.795 58.0491 274.453 57.9413C273.982 57.8155 273.575 57.6898 273.618 57.5281C273.618 57.4742 273.768 57.4383 273.854 57.3844C274.217 57.2047 273.511 56.9712 272.655 56.9173C271.692 56.8634 270.836 56.9173 269.916 56.9173C266.663 56.8634 263.432 56.8275 260.543 56.7736L260.586 56.8813Z" stroke="#00AFA1" stroke-width="1.6896" stroke-miterlimit="10"/>
</g>
<path d="M55.7261 87.9486C55.7261 93.7103 52.2035 97.779 45.3222 98.844L43.2742 95.5945C44.3119 95.4852 45.0765 95.3214 45.8138 95.1576C49.309 94.3384 52.0397 91.8261 52.0397 87.8394C52.0397 84.0711 49.9917 81.2585 46.3053 80.6304C45.923 82.9515 45.4588 85.4637 44.6669 88.0305C43.0285 93.5465 40.6801 96.9325 37.7037 96.9325C34.6726 96.9325 32.1604 93.6011 32.1604 88.9863C32.1604 82.6784 37.6218 77.299 44.6942 77.299C51.4662 77.299 55.7261 81.9957 55.7261 87.9486ZM35.6557 88.6313C35.6557 91.3892 36.7479 92.7273 37.8129 92.7273C38.9598 92.7273 40.0247 91.0069 41.1443 87.3205C41.7724 85.2999 42.2912 82.9788 42.5916 80.7123C38.086 81.6408 35.6557 85.6275 35.6557 88.6313ZM79.8379 75.7698C80.5205 76.7802 81.4763 78.5005 81.9951 79.5108L79.8106 80.4666C79.2371 79.347 78.4179 77.7086 77.6806 76.6709L79.8379 75.7698ZM83.0601 74.541C83.77 75.5787 84.7804 77.299 85.2719 78.2547L83.0874 79.1832C82.5412 78.0636 81.6401 76.4525 80.9028 75.4421L83.0601 74.541ZM63.7815 89.0682C65.0103 86.0098 66.048 82.1596 66.3757 78.6916L70.3625 79.5108C70.1167 80.3027 69.8163 81.6408 69.7071 82.2415C69.3248 84.153 68.3418 87.9213 67.386 90.4608C66.403 93.1096 64.7919 96.2225 63.3446 98.2705L59.5217 96.6594C61.242 94.4203 62.8531 91.4712 63.7815 89.0682ZM77.271 88.4947C76.2334 85.6275 74.4585 81.5861 73.3116 79.5108L76.9434 78.3367C78.0629 80.4393 79.9471 84.6445 80.9847 87.2932C81.9405 89.7508 83.3877 94.1199 84.1523 96.8233L80.1109 98.134C79.3463 94.8845 78.3633 91.4439 77.271 88.4947ZM108.592 76.3706C108.537 77.1352 108.483 78.009 108.483 79.1012V84.508C108.483 90.3789 107.336 92.9184 105.315 95.1576C103.513 97.1236 100.673 98.4617 98.6795 99.0897L95.8396 96.086C98.5429 95.4579 100.755 94.4203 102.393 92.6453C104.277 90.5973 104.632 88.5493 104.632 84.2895V79.1012C104.632 78.009 104.578 77.1352 104.468 76.3706H108.592ZM95.9215 76.589C95.8669 77.2171 95.8396 77.8178 95.8396 78.6916V87.9213C95.8396 88.604 95.8669 89.6689 95.9215 90.297H91.962C91.9893 89.7781 92.0986 88.7132 92.0986 87.894V78.6916C92.0986 78.1728 92.0713 77.2171 91.9893 76.589H95.9215ZM118.586 78.5005C119.296 78.5824 120.416 78.6643 121.18 78.6643H136.035C136.854 78.6643 137.81 78.5824 138.602 78.5005V82.2415C137.783 82.1869 136.827 82.1323 136.035 82.1323H130.273V93.2734H137.51C138.493 93.2734 139.366 93.1642 140.076 93.0549V97.0144C139.284 96.9052 138.138 96.8779 137.51 96.8779H119.514C118.695 96.8779 117.74 96.9052 116.838 97.0144V93.0549C117.685 93.1915 118.668 93.2734 119.514 93.2734H126.45V82.1323H121.18C120.443 82.1323 119.269 82.1869 118.586 82.2415V78.5005ZM155.341 76.1794C155.177 76.8894 154.986 77.7632 154.849 78.4459C154.685 79.2651 154.467 80.2754 154.276 81.2585C155.204 81.2039 155.996 81.1492 156.57 81.1492C159.464 81.1492 161.512 82.4327 161.512 86.3648C161.512 89.587 161.13 94.0107 159.956 96.3864C159.055 98.2978 157.553 98.8986 155.477 98.8986C154.44 98.8986 153.129 98.7074 152.201 98.5163L151.627 94.9118C152.665 95.2122 154.249 95.4852 154.959 95.4852C155.887 95.4852 156.57 95.2122 157.007 94.3111C157.744 92.7546 158.126 89.4505 158.126 86.7471C158.126 84.5626 157.17 84.2622 155.477 84.2622C155.04 84.2622 154.358 84.3168 153.566 84.3714C152.528 88.522 150.508 94.9937 147.995 99.0078L144.445 97.5879C147.094 94.0107 148.978 88.4947 149.989 84.7537C149.006 84.8629 148.132 84.9722 147.64 85.0268C146.848 85.1633 145.428 85.3545 144.582 85.491L144.254 81.7773C145.265 81.8592 146.166 81.8046 147.176 81.7773C148.023 81.75 149.306 81.6681 150.699 81.5315C151.081 79.4835 151.327 77.4901 151.272 75.7698L155.341 76.1794ZM167.492 73.913C168.202 74.9506 169.213 76.6709 169.677 77.6267L167.52 78.5551C166.946 77.4355 166.072 75.8244 165.308 74.7868L167.492 73.913ZM164.243 75.1418C164.925 76.1521 165.908 77.8724 166.427 78.8828L165.089 79.4562C166.728 81.9957 168.776 86.556 169.54 88.9863L166.072 90.57C165.362 87.539 163.424 82.733 161.485 80.33L163.942 79.2651C163.396 78.2274 162.714 76.9167 162.086 76.0429L164.243 75.1418ZM180.518 88.7951H177.377V92.973H180.518V88.7951ZM183.439 85.9825V95.8129H177.377V97.9975H174.483V85.9825H183.439ZM195.236 86.0098V94.1472C195.236 95.5399 194.99 96.3864 194.062 96.8506C193.106 97.3421 191.795 97.3694 190.048 97.3694C189.938 96.4956 189.529 95.2395 189.174 94.4203C190.211 94.4749 191.358 94.4749 191.659 94.4749C192.014 94.4476 192.123 94.3657 192.123 94.0653V88.8224H188.3V100.045H185.242V86.0098H195.236ZM180.408 81.4223H188.928C187.208 80.1389 185.679 78.7463 184.586 77.4355C183.549 78.7463 182.101 80.1116 180.408 81.4223ZM182.757 74.4318H186.143C189.201 78.1455 193.652 81.1492 198.021 82.6511C197.202 83.4976 196.437 84.6718 195.864 85.6275C194.007 84.7537 192.014 83.6068 190.157 82.3234V84.3168H179.18V82.3234C177.405 83.5795 175.466 84.7537 173.472 85.6821C173.063 84.9176 172.162 83.6615 171.479 82.9515C176.121 80.9854 180.627 77.4082 182.757 74.4318ZM201.052 78.8282C202.144 78.8009 203.209 78.7463 203.728 78.6916C206.022 78.5005 210.528 78.0909 215.525 77.6813C218.337 77.4355 221.314 77.2717 223.252 77.1898L223.28 80.685C221.805 80.7123 219.457 80.7123 218.01 81.0673C214.705 81.9411 212.221 85.4637 212.221 88.7132C212.221 93.2188 216.426 94.8299 221.068 95.0756L219.785 98.8167C214.05 98.4344 208.643 95.376 208.643 89.4505C208.643 85.5183 210.855 82.4053 212.712 81.0127C210.145 81.2858 204.575 81.8865 201.407 82.5692L201.052 78.8282ZM219.375 83.3611C220.058 84.3441 221.041 86.0098 221.559 87.0748L219.484 88.0032C218.801 86.5013 218.228 85.4364 217.354 84.2076L219.375 83.3611ZM222.433 82.105C223.116 83.0607 224.154 84.6718 224.727 85.7368L222.679 86.7198C221.942 85.2452 221.314 84.2349 220.44 83.0334L222.433 82.105ZM245.125 75.5514C245.071 75.9883 244.961 77.4628 244.934 77.8997C244.934 78.1182 244.934 78.4186 244.907 78.7463C247.665 78.7463 251.406 78.6916 252.826 78.7189L252.798 81.9411C251.16 81.8592 248.62 81.8046 244.907 81.8046C244.907 83.1972 244.934 84.6991 244.934 85.9006C245.589 86.9383 245.917 88.2217 245.917 89.6416C245.917 93.1915 243.842 97.7244 237.179 99.5812L234.257 96.6867C237.015 96.1133 239.418 95.2122 240.92 93.5738C240.538 93.6557 240.128 93.7103 239.691 93.7103C237.588 93.7103 234.994 92.0173 234.994 88.6859C234.994 85.6002 237.479 83.5795 240.456 83.5795C240.838 83.5795 241.193 83.6068 241.548 83.6615C241.548 83.0607 241.548 82.4327 241.521 81.8319C237.397 81.8865 233.137 82.0504 229.779 82.2415L229.697 78.9374C232.81 78.9374 237.78 78.8282 241.493 78.7736C241.466 78.4186 241.466 78.1455 241.439 77.9271C241.357 76.8075 241.248 75.8791 241.166 75.5514H245.125ZM238.271 88.6313C238.271 89.8874 239.281 90.6793 240.374 90.6793C241.521 90.6793 242.531 89.8055 242.149 87.4025C241.766 86.7744 241.111 86.4467 240.374 86.4467C239.309 86.4467 238.271 87.184 238.271 88.6313Z" fill="#00AFA1"/>
<defs>
<clipPath id="clip0_201_17471">
<rect width="276.48" height="13.6533" fill="white" transform="translate(5.12012 54.707)"/>
</clipPath>
</defs>
</svg>
