<svg width="220" height="153" viewBox="0 0 220 153" fill="none" xmlns="http://www.w3.org/2000/svg">
<path d="M34.8423 106.442C37.0098 107.245 38.9275 108.08 40.9675 109.27C41.3922 109.549 41.8025 110.024 42.1744 110.349C46.2397 112.925 50.9258 120.496 50.7023 124.191C51.273 125.174 51.3661 125.923 51.4976 126.823C51.901 130.069 52.9057 131.876 51.4099 135.378C50.6283 137.25 48.1495 138.65 46.5838 139.079C43.3321 140.224 39.6465 140.546 36.5092 139.473C35.2058 139.03 33.8423 138.731 32.6592 138.001C25.7354 133.926 21.4382 129.798 17.8475 121.467C16.9102 119.418 15.7542 117.65 16.2531 114.916C16.3278 114.575 16.2584 114.174 16.3331 113.833C16.4858 111.766 17.0177 109.925 17.7465 108.099C18.1145 107.136 18.8016 106.543 19.2991 105.838C19.9096 104.943 20.8847 104.471 21.6484 104.181C24.3477 103.143 26.1816 103.773 28.6589 104.402C29.7727 104.731 30.87 104.614 31.9766 105.043C33.0375 105.418 33.8798 106.074 34.7967 106.389L34.8423 106.442ZM27.5912 106.797C25.5334 107.189 23.0158 105.766 21.0166 108.043C20.6922 108.415 20.0745 109.409 19.947 109.795C19.5261 110.803 19.3186 112.272 20.365 112.845C20.6986 113.018 21.1306 113.198 21.5171 113.326C21.7978 113.544 22.2609 113.974 21.9748 114.498C21.7944 114.93 21.2276 115.234 21.0928 115.719C21.0327 115.863 20.8979 116.348 20.9362 116.499C21.0967 117.006 22.9563 118.628 23.3282 118.952C25.1257 120.075 27.3679 120.537 29.3181 119.593C29.7792 119.379 30.0706 118.114 30.364 117.493C30.7848 116.485 31.6979 115.513 32.5401 116.169C33.5865 116.741 33.6544 119.171 33.0149 120.46C32.8946 120.748 32.7215 121.081 32.5557 121.316C29.627 124.119 27.5798 123.027 24.3572 123.779C24.1075 123.81 23.9033 123.894 23.7904 124.083C23.5571 124.561 24.0367 125.438 24.1589 125.793C24.8281 126.783 25.6631 127.537 26.5436 128.345C27.3185 129.243 28.0332 130.286 28.9138 131.093C29.8928 131.907 32.1296 133.112 33.176 133.684C33.6008 133.963 33.9126 134.431 34.4358 134.717C35.1248 134.768 36.6343 135.771 37.1357 136.352C37.6351 136.29 38.377 136.295 38.6194 136.363C39.5892 136.632 40.3093 136.933 41.248 136.953C43.0053 137.28 46.3171 135.991 48.0176 135.077C48.5699 134.97 48.9161 134.303 49.2094 133.681C50.0439 131.763 49.143 129.222 48.8345 127.369C48.1484 123.26 46.0895 118.308 43.6209 115.552C43.1651 115.024 42.4978 114.678 42.042 114.149C41.6701 113.825 41.2982 113.5 40.9481 112.881C40.4031 112.89 39.395 112.469 38.9319 112.039C38.56 111.715 38.0969 111.284 37.7779 110.915C36.3377 110.313 28.7215 107.573 27.5912 106.797Z" fill="#323B62"/>
<path d="M60.8868 95.6838C60.9514 96.1204 61.0782 96.5256 61.1735 96.8685C61.6522 99.051 61.4024 99.021 61.1969 101.706C61.1114 103.392 60.7469 105.454 60.3478 106.829C60.792 108.325 60.7741 111.072 60.3788 113.228C60.381 113.696 59.9774 114.135 59.6045 114.48C58.6727 115.421 56.8638 115.71 55.8929 115.028C55.0788 114.502 49.2091 107.695 48.6111 106.668C48.3613 106.638 47.9546 106.452 47.6748 106.672C47.6748 106.672 47.7446 108.201 47.7484 108.981C47.6254 109.357 47.5331 109.638 47.2847 109.92C46.7566 110.422 46.1331 110.581 45.7879 110.208C45.5989 109.835 45.2199 108.931 45.1554 108.495C44.4177 104.409 43.3432 101.668 42.4961 100.767C42.151 100.394 41.6813 100.084 41.1208 100.368C40.5904 100.402 40.4358 100.714 40.063 101.06C39.2242 101.875 39.0419 102.906 38.4514 103.439C38.0786 103.785 37.2668 103.726 36.9531 103.416C35.3535 101.8 38.7732 98.9746 39.1123 98.099C39.5121 96.8797 37.8824 95.5143 37.9694 94.1405C36.8695 92.5852 35.3853 89.0342 37.4665 86.9641C38.1807 86.2115 39.646 85.8611 40.1172 86.4831C40.8405 87.6032 42.0973 89.3138 42.5715 90.56C43.135 90.9006 43.763 91.6779 44.1997 91.6133C44.8854 91.4228 45.9403 90.1067 46.4369 89.5425C47.0582 88.9152 47.8054 88.5371 48.3089 89.3774C49.2828 90.6836 46.5834 94.0052 45.9652 95.2566C45.6254 95.9762 47.1426 99.9016 47.6138 100.524C47.8029 100.897 48.178 101.02 48.5232 101.393C49.5916 102.886 50.7839 104.16 51.8831 105.559C52.8562 106.709 54.2653 107.639 54.4904 109.011C55.1162 109.32 56.6528 110.811 57.2117 110.215C57.6154 109.776 58.292 107.713 58.2575 107.027C58.3422 105.185 57.9918 103.719 58.3601 102.438C57.9782 100.91 58.4103 99.9094 58.3105 98.6302C58.1108 96.0718 58.3644 96.8821 57.5728 94.545C57.3522 94.1091 58.0042 93.388 58.3148 93.0744C59.029 92.3218 59.7786 92.4118 60.4688 93.1576C60.847 93.9049 60.6647 94.9358 60.8246 95.7153L60.8868 95.6838Z" fill="#323B62"/>
<path d="M85.2472 78.7472C85.5676 80.4623 85.5175 82.9908 85.585 84.0517C86.4044 85.6708 86.3197 87.5127 86.5148 89.1348C86.9321 91.5049 87.7913 94.9029 85.1488 97.1006C84.4961 97.6656 83.9657 97.6994 83.4652 97.4833C82.1837 97.115 78.0496 94.201 77.2632 92.9563C76.5714 91.8984 76.1902 90.5269 75.3409 89.1577C74.1764 87.1658 72.8626 86.5791 71.7919 84.6179C71.3507 83.7461 71.2224 83.0288 70.6889 82.4384C70.4683 82.0025 69.9978 81.5366 69.2828 82.1331C68.4748 82.8549 68.2686 85.3841 68.3046 86.3827C68.376 88.2239 68.0744 90.4102 68.3018 92.2506C68.3049 92.8749 68.7123 93.2162 68.7453 93.5906C68.972 95.275 69.1063 97.2407 69.1754 98.6137C69.7442 100.047 71.127 102.006 69.4487 103.482C68.7029 104.172 67.7981 104.239 67.3261 103.461C66.383 102.061 65.998 99.9088 64.895 97.7293C64.1387 96.2348 63.1933 94.3666 62.1901 93.4663C62.0671 93.8415 62.7304 95.4613 62.0154 96.0578C61.5802 96.4344 60.7999 96.4382 60.1719 95.661C59.7953 95.2258 59.3548 94.5101 59.0689 93.4814C59.4703 92.5743 58.2435 90.6139 58.2097 90.0834C58.1437 89.3347 57.4219 88.5266 57.5111 87.621C56.3466 85.6291 53.7564 79.2743 53.6183 76.5283C52.7074 75.3466 51.9705 71.4174 52.2758 70.0114C52.3681 69.73 52.8655 69.3218 53.083 69.1335C54.9482 67.5638 57.7378 69.9849 58.4311 71.3549C58.8716 72.0706 61.4393 80.2359 61.663 81.296C61.7898 81.7012 61.8558 82.4499 61.5152 83.0134C61.8641 84.1666 61.4088 86.8218 62.0368 87.5991C62.352 88.2218 63.9554 90.6174 64.6081 90.0524C65.4784 89.2991 64.6934 81.8744 68.2368 78.8296C69.8221 77.4798 72.1622 77.3124 73.1062 78.8684C73.1062 78.8684 73.8295 79.9886 74.1123 80.393C75.2131 82.1043 76.1255 83.5981 76.788 85.0619C77.6021 85.5885 78.5783 87.3629 78.8319 88.1732C79.6467 88.856 80.4668 90.6311 80.845 91.3784C81.503 91.9058 82.5362 92.5562 83.0336 92.1481C83.6863 91.5831 83.1115 88.9016 83.5737 87.6509C83.0679 86.3424 82.7024 81.7559 82.6356 80.8511C82.3474 79.3543 81.8371 77.1095 81.7988 75.6427C81.8903 75.2052 82.5085 73.9538 82.7261 73.7654C83.2858 73.3257 83.784 73.0736 84.2229 73.4773C85.0415 74.9403 85.1466 77.3119 85.341 78.778L85.2472 78.7472Z" fill="#323B62"/>
<path d="M101.094 68.2068C99.8923 71.2914 99.2181 77.1919 98.3584 78.4013C98.0647 80.4802 97.1501 82.0614 95.9703 83.1319C95.5081 83.6008 95.2302 84.241 94.768 84.7099C94.3058 85.1788 92.9417 86.078 92.2951 86.3756C90.2197 87.3007 88.6512 85.2352 87.8555 83.7029C87.5902 83.1922 86.8691 82.5748 86.6879 82.1158C86.5585 81.5726 86.4776 81.2332 86.3643 80.758C85.9017 79.7203 85.3712 78.6987 85.0606 77.6966C84.6399 75.9314 84.122 73.7589 84.141 72.0325C83.714 70.8428 83.4444 66.1 83.767 62.9379C83.7571 62.2946 84.1191 61.7061 84.2967 60.9462C84.5454 59.8825 85.4276 58.1655 86.5332 57.6868C88.8122 56.713 90.9693 59.1405 91.6004 61.7883C92.3286 64.8433 91.7472 66.9191 91.5861 69.2534C91.5991 69.609 91.1823 70.5694 90.8914 70.8539C90.7591 72.1052 90.1386 73.1141 88.8878 74.4884C88.7165 74.6727 88.5775 74.9928 88.4903 75.2289C88.3675 75.6169 88.5037 77.0911 88.5329 77.5147C88.7594 78.4651 91.263 83.2494 92.5723 82.7221C93.5583 82.3436 94.9481 80.6491 95.3487 79.6209C95.9949 77.8167 96.4469 75.1978 97.4325 73.3127C97.5225 71.2823 98.5725 68.1621 98.6629 67.6384C98.805 67.0305 98.5074 66.384 98.6495 65.7761C98.8109 64.9484 99.3797 64.0236 100.094 63.7098C100.741 63.4122 101.465 63.7418 101.679 64.3366C102.057 65.3226 101.637 66.5707 101.026 68.223L101.094 68.2068ZM86.8899 62.1936C86.8899 62.1936 86.3436 62.6108 86.3049 63.0505C86.1147 64.9613 86.7043 69.843 86.9893 71.6406C87.0864 72.0479 87.4874 72.5263 87.8785 72.3613C88.6608 72.0313 89.2095 68.3132 89.4712 67.6051C89.1962 66.4509 89.0632 64.6889 88.8591 63.2309C88.6649 62.4162 88.1313 61.6824 86.9578 62.1774L86.8899 62.1936Z" fill="#323B62"/>
<path d="M126.094 57.0064C126.292 58.9618 125.293 61.8605 125.024 63.7809C124.889 64.7412 124.11 67.625 123.069 68.58C122.629 70.2686 121.993 71.6607 121.259 72.2632C121.028 72.4336 120.552 72.9301 120.423 72.9831C117.752 74.3796 115.642 71.6239 115.03 69.7628C114.871 69.3753 114.853 68.7793 114.797 68.2743L112.382 61.646C112.17 61.1293 110.88 58.7167 110.386 58.6172C109.195 60.3121 108.503 61.1993 107.309 62.5185C107.03 63.3114 106.544 63.9636 106.083 64.6803C105.672 65.1504 105.954 69.3343 105.147 70.4946C105.045 70.6121 104.543 71.0441 104.414 71.097C103.768 71.3617 103.104 71.0304 102.763 70.5667C102.578 70.1146 102.998 66.171 102.733 65.5253C102.072 63.9108 99.5298 65.2543 98.4097 63.0735C97.8951 62.0021 97.4737 59.6858 97.2821 58.4821C97.3022 57.795 97.3487 57.1725 97.7976 56.6114C97.8113 55.1726 97.9827 52.4624 99.2182 51.428C99.45 51.2576 99.72 50.9961 99.9253 50.7611C100.184 50.6552 100.404 50.6404 100.559 50.652C102.861 50.0104 103.707 50.4179 104.398 52.4728C104.931 54.1402 105.023 55.8372 105.556 57.5046C105.714 57.8921 105.873 58.2796 106.363 58.0033C106.622 57.8974 106.789 57.7534 106.839 57.5067C107.235 56.8165 107.815 54.9193 107.937 54.1147C107.875 52.858 108.258 50.6645 109.884 49.8471C110.595 49.556 111.772 49.2997 111.805 50.116C111.99 50.568 112.008 51.164 112.22 51.6807C112.484 52.3265 113.231 53.2274 113.616 54.3517C114.093 55.5141 114.152 56.3949 114.15 57.678C115.135 59.1601 115.856 61.6554 116.376 63.4784C116.535 63.8659 116.462 64.4238 116.454 64.9553C117.036 66.376 117.698 67.9904 118.538 69.3053C118.735 69.6017 119.035 69.7806 119.461 69.5308C119.783 69.3984 119.848 69.372 119.936 69.0342C121.059 66.9899 121.788 64.3527 122.345 62.7668C122.221 61.9125 122.878 59.8332 122.909 58.9905C123.052 57.4988 122.823 56.3862 123.744 54.9527C124.013 54.6912 124.386 54.3122 124.644 54.2063C125.226 53.9681 126.106 53.9088 126.436 54.5281C126.548 55.538 126.035 56.1256 126.003 56.9683L126.094 57.0064ZM100.953 55.8458C99.8821 56.3604 100.398 59.0907 100.701 59.6454C100.886 60.0975 101.336 61.1953 101.982 60.9306C101.982 60.9306 102.161 60.631 102.172 60.4754C102.283 59.8264 102.182 57.0019 102.061 56.5234C101.876 56.0713 101.637 55.4901 100.953 55.8458Z" fill="#323B62"/>
<path d="M143.353 34.7572C142.894 35.1687 142.309 35.4028 141.596 35.4594C140.875 35.4727 140.209 35.429 139.6 35.3285C139.626 35.2328 139.56 35.1332 139.403 35.0298C139.617 34.5329 139.831 34.036 140.045 33.5391C140.26 33.0422 140.679 32.6614 141.303 32.3966C141.348 32.6137 141.445 32.7522 141.593 32.8121C141.732 32.8286 141.824 32.9454 141.869 33.1625C141.956 33.1445 141.995 33.1138 141.986 33.0704C141.977 33.027 142.016 32.9963 142.102 32.9784C142.155 33.0128 142.194 33.0952 142.221 33.2254C142.283 33.3033 142.348 33.2898 142.417 33.1851C142.505 33.3932 142.575 33.5145 142.628 33.5489C142.714 33.531 142.78 33.6305 142.825 33.8476C142.886 33.9255 142.908 33.921 142.89 33.8342C142.863 33.7039 142.893 33.6298 142.98 33.6119C142.998 33.6987 142.99 33.7683 142.955 33.8207C142.912 33.8297 142.925 33.8948 142.996 34.0161C143.135 34.0326 143.222 34.1277 143.258 34.3013C143.338 34.466 143.369 34.6179 143.353 34.7572ZM143.047 33.9375C143.029 33.8507 143.068 33.82 143.164 33.8455C143.251 33.8275 143.282 33.8665 143.256 33.9623C143.169 33.9802 143.126 33.9892 143.126 33.9892C143.117 33.9457 143.091 33.9285 143.047 33.9375ZM142.495 53.9461C142.287 54.0343 142.236 54.1129 142.34 54.1818C142.48 54.1983 142.558 54.25 142.576 54.3368L142.381 54.3772C142.399 54.464 142.46 54.5418 142.565 54.6107C142.67 54.6796 142.688 54.7665 142.619 54.8712C142.47 54.8113 142.405 54.7117 142.421 54.5725C142.352 54.6773 142.37 54.7641 142.475 54.833C142.58 54.9019 142.641 54.9797 142.659 55.0666L142.529 55.0935C142.503 55.1893 142.512 55.2327 142.556 55.2237C142.634 55.1624 142.66 55.1796 142.634 55.2754L142.439 55.3157C142.476 55.7154 142.609 56.0276 142.836 56.2522C142.749 56.2701 142.689 56.3053 142.654 56.3577C142.663 56.4011 142.637 56.3839 142.576 56.306C142.707 56.5051 142.726 56.705 142.631 56.9056C142.581 57.0971 142.66 57.2618 142.869 57.3996C142.878 57.443 142.861 57.4692 142.818 57.4782C142.765 57.4437 142.744 57.4482 142.753 57.4916C142.788 57.6653 142.845 57.7214 142.923 57.6601C142.899 57.9819 142.922 58.2035 142.993 58.3248L142.797 58.3651C142.902 58.434 142.977 58.577 143.022 58.7941C143.057 58.9677 143.128 59.089 143.233 59.1579C143.189 59.1668 143.167 59.1713 143.167 59.1713C143.194 59.3016 143.243 59.4273 143.313 59.5486C143.427 59.6609 143.449 59.7694 143.381 59.8742C143.398 59.961 143.429 60 143.473 59.991C143.516 59.982 143.547 60.021 143.565 60.1078C143.729 60.0285 143.82 59.9193 143.836 59.78C143.844 59.5974 143.93 59.4665 144.095 59.3872C144.706 57.0881 145.296 54.7935 145.864 52.5033C146.475 50.2042 147.38 48.1163 148.576 46.2395C148.713 45.804 148.923 45.3984 149.208 45.0227C149.492 44.6471 149.824 44.2842 150.205 43.934C150.293 44.1421 150.29 44.3465 150.196 44.547C150.101 44.7476 149.989 44.8613 149.859 44.8882C149.904 45.1053 149.913 45.2617 149.888 45.3575C149.906 45.4443 149.906 45.5574 149.89 45.6966C149.803 45.7145 149.755 45.7018 149.746 45.6583C149.781 45.606 149.776 45.5843 149.733 45.5932C149.707 45.689 149.721 45.7541 149.773 45.7886C149.817 45.7796 149.847 45.8186 149.865 45.9054C149.753 46.0191 149.706 46.1194 149.724 46.2062C149.628 46.1807 149.597 46.1418 149.632 46.0894C149.545 46.1074 149.528 46.1336 149.58 46.168C149.632 46.2024 149.667 46.2631 149.685 46.3499C149.573 46.4636 149.521 46.5422 149.53 46.5856C149.539 46.629 149.483 46.6859 149.362 46.7562C149.38 46.8431 149.411 46.882 149.454 46.873C149.541 46.8551 149.571 46.894 149.546 46.9898C149.468 47.0512 149.425 47.0601 149.416 47.0167C149.398 46.9299 149.367 46.891 149.324 46.8999C149.442 47.6903 149.334 48.4822 149 49.2755C148.7 50.0163 148.531 50.7303 148.491 51.4174C148.361 51.4443 148.305 51.5012 148.323 51.588C148.498 51.7782 148.473 51.987 148.249 52.2144C148.024 52.4419 148.004 52.6724 148.188 52.906C147.939 53.4553 147.774 54.078 147.691 54.774C147.652 55.4611 147.473 56.0187 147.154 56.4467C147.199 56.6637 147.196 56.9811 147.147 57.3987C147.132 57.764 147.029 58.0341 146.839 58.2092C146.857 58.296 146.875 58.3829 146.893 58.4697C146.902 58.5131 146.841 58.5483 146.711 58.5752C146.86 58.8611 146.78 59.1268 146.468 59.3722C146.6 59.5713 146.549 59.7629 146.315 59.947C146.125 60.1221 146.061 60.3616 146.124 60.6655C145.898 60.6669 145.777 60.7372 145.76 60.8764C145.735 60.9722 145.688 61.0725 145.619 61.1772C145.541 61.2386 145.502 61.2693 145.502 61.2693C145.493 61.2259 145.467 61.2086 145.423 61.2176C145.337 61.2355 145.319 61.2617 145.372 61.2962C145.415 61.2872 145.446 61.3261 145.464 61.413C145.23 61.597 144.91 61.799 144.503 62.0189C144.13 62.1865 143.726 62.3151 143.292 62.4047C142.858 62.4944 142.432 62.5145 142.014 62.465C141.588 62.372 141.247 62.1481 140.993 61.7933C140.99 61.3412 140.837 61.1465 140.533 61.2093C140.409 60.8276 140.215 60.4375 139.952 60.0393C139.636 59.6066 139.507 59.2031 139.566 58.8289C139.328 58.3348 139.146 57.7839 139.021 57.1761C138.895 56.5683 138.813 55.9515 138.774 55.3258C138.818 55.3168 138.844 55.3341 138.853 55.3775C138.853 55.3775 138.875 55.373 138.918 55.364C138.716 55.0436 138.605 54.614 138.584 54.0751C138.52 53.5451 138.521 53.1148 138.589 52.784C138.46 51.7241 138.458 50.6156 138.581 49.4585C138.652 48.267 138.701 47.0799 138.728 45.8974C139.251 44.703 139.603 43.3401 139.785 41.8088C139.915 41.7819 139.987 41.5859 140.003 41.2206C140.071 41.1158 140.176 41.0717 140.315 41.0882C140.27 40.8712 140.308 40.7275 140.429 40.6571C140.551 40.5868 140.593 40.4648 140.557 40.2912C140.653 40.3167 140.727 40.3466 140.78 40.3811C140.867 40.3631 140.975 40.3407 141.105 40.3138C141.771 41.1269 142.287 42.1973 142.651 43.5252C143.051 44.8007 143.132 45.9609 142.895 47.0057C142.781 48.2062 142.688 49.4022 142.618 50.5937C142.547 51.7853 142.52 52.9678 142.536 54.1414C142.449 54.1594 142.423 54.1421 142.457 54.0898C142.492 54.0374 142.504 53.9895 142.495 53.9461ZM140.052 49.0189C140.077 48.9231 140.055 48.8146 139.985 48.6933C139.949 48.5196 139.896 48.4852 139.827 48.5899C139.923 48.6154 139.941 48.7023 139.881 48.8504C139.812 48.9552 139.869 49.0113 140.052 49.0189ZM140.458 49.3424L140.523 49.3289C140.567 49.3199 140.584 49.2937 140.575 49.2503C140.531 49.2593 140.505 49.2421 140.496 49.1987C140.478 49.1118 140.457 49.1163 140.431 49.2121C140.431 49.2121 140.44 49.2555 140.458 49.3424ZM140.341 49.4344C140.254 49.4523 140.216 49.483 140.224 49.5264C140.355 49.4995 140.415 49.4643 140.406 49.4209C140.363 49.4299 140.337 49.4127 140.328 49.3693C140.31 49.2824 140.288 49.2869 140.263 49.3827C140.306 49.3737 140.332 49.391 140.341 49.4344ZM139.851 50.3504C139.834 50.2635 139.846 50.2156 139.89 50.2067C139.89 50.2067 139.885 50.1849 139.876 50.1415L139.746 50.1684C139.764 50.2553 139.799 50.3159 139.851 50.3504ZM140.053 51.3272C140.017 51.1535 139.947 51.0322 139.842 50.9633C139.835 51.146 139.905 51.2672 140.053 51.3272ZM139.04 53.9809C139.004 53.8072 138.964 53.7249 138.921 53.7339C138.939 53.8207 138.952 53.8858 138.961 53.9292C138.918 53.9382 138.944 53.9554 139.04 53.9809ZM142.426 53.2814C142.408 53.1946 142.377 53.1557 142.334 53.1646C142.291 53.1736 142.243 53.1608 142.19 53.1264C142.235 53.3435 142.314 53.3951 142.426 53.2814ZM140.245 54.8862L140.178 54.5606L139.983 54.6009C140.019 54.7746 140.106 54.8697 140.245 54.8862ZM174.104 28.4049C174.035 28.5096 173.975 28.5448 173.922 28.5103C173.87 28.4759 173.831 28.5066 173.806 28.6024C173.683 28.4466 173.609 28.4167 173.583 28.5125C173.549 28.5648 173.492 28.5087 173.413 28.344C173.284 28.5969 173.106 28.7241 172.88 28.7256C172.776 28.6567 172.758 28.5698 172.827 28.4651C172.74 28.483 172.701 28.5137 172.71 28.5571C172.719 28.6005 172.706 28.6484 172.672 28.7008C172.628 28.7098 172.593 28.6491 172.566 28.5189C172.532 28.5713 172.523 28.6409 172.541 28.7277C172.437 28.6588 172.336 28.6116 172.241 28.5861C172.188 28.5517 172.11 28.5 172.005 28.4311C171.927 28.4925 171.923 28.5838 171.994 28.7051C172.055 28.7829 172.042 28.8308 171.955 28.8488C171.868 28.8667 171.838 28.8278 171.863 28.732C171.889 28.6362 171.875 28.5711 171.823 28.5366C171.736 28.5545 171.68 28.6114 171.654 28.7072C171.672 28.794 171.638 28.8464 171.551 28.8644C171.49 28.7865 171.481 28.7431 171.524 28.7341C171.568 28.7251 171.58 28.6772 171.562 28.5904C171.432 28.6173 171.376 28.6742 171.394 28.761C171.455 28.8389 171.421 28.8913 171.291 28.9182L171.264 28.7879C171.195 28.8927 171.13 28.9061 171.068 28.8283C171.025 28.8372 171.008 28.8634 171.017 28.9068C171.069 28.9413 171.078 28.9847 171.044 29.0371C170.948 29.0116 170.895 28.9772 170.886 28.9337C170.912 28.838 170.894 28.7511 170.833 28.6733C170.789 28.6822 170.755 28.7346 170.729 28.8304C170.747 28.9172 170.8 28.9517 170.886 28.9337C170.818 29.0385 170.779 29.0692 170.77 29.0258C170.761 28.9824 170.717 28.9913 170.639 29.0527C170.544 29.0272 170.491 28.9928 170.482 28.9493C170.473 28.9059 170.416 28.8498 170.312 28.7809C170.243 28.8856 170.239 28.977 170.3 29.0548C170.405 29.1237 170.405 29.1237 170.3 29.0548C170.188 29.1685 170.118 29.1603 170.092 29.0301C170.099 28.8474 170.059 28.7651 169.973 28.783C170.026 29.0435 169.906 29.2268 169.611 29.333L169.571 29.1377C169.545 29.2335 169.511 29.2858 169.467 29.2948C169.467 29.2948 169.476 29.3382 169.494 29.4251C169.433 29.3472 169.359 29.3172 169.272 29.3352C169.228 29.3441 169.198 29.3052 169.18 29.2184C169.084 29.1929 169.071 29.2408 169.142 29.3621C169.212 29.4833 169.195 29.5095 169.09 29.4406C169.063 29.3104 169.023 29.2281 168.971 29.1936C168.946 29.2894 168.868 29.3508 168.737 29.3777C168.598 29.3611 168.503 29.4487 168.452 29.6403C168.434 29.5535 168.425 29.51 168.425 29.51C168.469 29.5011 168.481 29.4532 168.464 29.3663C168.246 29.4112 168.151 29.4987 168.178 29.629C168.1 29.6903 168.053 29.6776 168.035 29.5908C168.06 29.495 168.029 29.456 167.943 29.474C167.899 29.4829 167.904 29.5046 167.956 29.5391C168.008 29.5735 168.017 29.6169 167.983 29.6693C167.791 29.6184 167.639 29.6498 167.527 29.7635C167.415 29.8772 167.302 29.8779 167.188 29.7656C167.11 29.827 167.097 29.8749 167.15 29.9093C167.237 29.8914 167.267 29.9303 167.242 30.0261C167.146 30.0006 167.038 30.023 166.916 30.0934C166.838 30.1547 166.738 30.1075 166.615 29.9518C166.052 30.2944 165.368 30.5943 164.561 30.8516C163.788 31.0564 162.998 31.2874 162.191 31.5446C161.429 32.0189 160.458 32.4685 159.279 32.8932C158.133 33.2656 157.08 33.7548 156.119 34.3607C156.095 34.6825 156.032 35.035 155.93 35.4182C155.863 35.749 155.899 36.0357 156.04 36.2783C156.058 36.3651 156.023 36.4175 155.936 36.4354C155.884 36.4009 155.862 36.4054 155.871 36.4488C155.763 38.5535 155.619 40.5975 155.441 42.5809C155.253 44.5209 155.284 46.642 155.533 48.9444C155.53 49.8051 155.583 50.722 155.694 51.6951C155.795 52.6247 155.962 53.5409 156.194 54.4436C156.425 55.3463 156.735 56.1877 157.122 56.9677C157.501 57.7043 158.009 58.301 158.646 58.7578C158.994 58.686 159.241 58.5671 159.387 58.401C159.534 58.2349 159.703 58.0643 159.893 57.8892C160.57 56.3461 161.168 54.7513 161.688 53.1048C162.208 51.4584 162.733 49.8336 163.262 48.2305C163.834 46.6185 164.437 45.0454 165.071 43.5113C165.748 41.9682 166.556 40.5112 167.495 39.1403C167.35 39.5324 167.309 39.9935 167.373 40.5234C167.428 41.0099 167.305 41.3976 167.002 41.6864C165.993 44.2488 165.14 46.9146 164.445 49.6837C163.749 52.4528 162.927 55.1575 161.979 57.7978L162.06 58.1885C161.757 58.4773 161.529 58.7961 161.374 59.1448C161.22 59.4936 161.044 59.8468 160.846 60.2045C160.64 60.5188 160.385 60.8203 160.083 61.1092C159.824 61.389 159.434 61.5827 158.913 61.6903C158.445 62.0584 157.986 62.2439 157.534 62.2468C157.116 62.1972 156.702 62.0564 156.292 61.8242C155.926 61.5831 155.572 61.2941 155.23 60.9572C154.88 60.5769 154.582 60.231 154.337 59.9195C153.686 58.7412 153.148 57.4492 152.722 56.0435C152.243 54.6033 151.969 53.1661 151.899 51.732C151.558 50.0823 151.39 48.2837 151.395 46.3362C151.401 44.3887 151.341 42.5676 151.217 40.8731L151.348 40.8462C151.385 39.933 151.432 39.0633 151.488 38.237C151.534 37.3673 151.638 36.5538 151.798 35.7964C149.979 36.8512 148.05 37.7023 146.011 38.3498C143.963 38.9539 142.059 39.5963 140.298 40.2768C140.194 40.2079 140.093 40.1607 139.997 40.1353C139.902 40.1098 139.801 40.0626 139.697 39.9937C139.367 40.1523 139.054 40.1716 138.758 40.0518C138.453 39.8885 138.169 39.7208 137.907 39.5486C138.019 39.4348 138.005 39.2567 137.865 39.0141C137.952 38.9962 138.012 38.961 138.047 38.9087C138.029 38.8218 138.032 38.7305 138.058 38.6347C140.581 37.4799 143.104 36.4381 145.628 35.5093C148.109 34.5894 150.524 33.5701 152.873 32.4511C153.024 31.6503 153.206 30.8884 153.419 30.1654C153.666 29.3901 153.809 28.5459 153.847 27.6328C154.106 27.3529 154.286 27.0214 154.388 26.6382C154.481 26.2116 154.805 25.9183 155.361 25.7583C156.206 26.1268 156.741 26.8538 156.965 27.9391C157.181 28.9811 157.2 29.9503 157.023 30.8469C158.646 30.3759 160.372 29.8608 162.203 29.3015C164.025 28.6988 165.931 28.2825 167.921 28.0526C169.431 27.6953 171.095 27.5327 172.912 27.5647C174.721 27.5533 176.322 27.8562 177.717 28.4734C177.867 28.7593 178.099 29.0056 178.413 29.2123C178.718 29.3756 178.868 29.6615 178.862 30.0702C178.67 30.0192 178.518 29.9376 178.404 29.8253C178.325 29.6606 178.224 29.5004 178.101 29.3447C178.057 29.3537 178.04 29.3799 178.049 29.4233C178.058 29.4667 178.015 29.4756 177.919 29.4502C177.849 29.3289 177.718 29.2428 177.526 29.1918C177.334 29.1409 177.173 29.0158 177.041 28.8167C176.945 28.7912 176.906 28.8219 176.924 28.9087C176.986 28.9866 176.968 29.0128 176.873 28.9873C176.811 28.9094 176.754 28.8533 176.702 28.8188C176.65 28.7844 176.636 28.7193 176.662 28.6235C176.401 28.6773 176.123 28.6443 175.826 28.5244C175.53 28.4046 175.261 28.4149 175.018 28.5556C174.957 28.4777 174.904 28.4433 174.861 28.4522C174.809 28.4178 174.752 28.3616 174.69 28.2838C174.622 28.3885 174.539 28.4282 174.443 28.4027C174.348 28.3772 174.222 28.4258 174.066 28.5485C174.057 28.5051 174.053 28.4834 174.053 28.4834C174.096 28.4745 174.113 28.4483 174.104 28.4049ZM162.095 30.7497L162.291 30.7094C162.238 30.6749 162.212 30.6577 162.212 30.6577C162.203 30.6143 162.172 30.5754 162.12 30.5409C162.138 30.6278 162.125 30.6757 162.082 30.6846C162.082 30.6846 162.086 30.7063 162.095 30.7497ZM178.835 29.94C178.782 29.9055 178.752 29.8666 178.743 29.8232C178.725 29.7363 178.673 29.7019 178.586 29.7198C178.622 29.8935 178.705 29.9669 178.835 29.94ZM181.529 46.4263C181.503 46.5221 181.534 46.561 181.621 46.5431C181.707 46.5252 181.716 46.5686 181.647 46.6734C181.312 47.2406 181.047 47.9291 180.852 48.7389C180.692 49.4963 180.404 50.0762 179.989 50.4788C179.821 51.4188 179.483 52.3034 178.976 53.1325C178.468 53.9617 177.956 54.7691 177.439 55.5548C176.903 56.0277 176.206 56.4885 175.348 56.9373C174.534 57.3772 173.704 57.5259 172.86 57.3834C172.45 57.1512 172.032 56.9887 171.605 56.8957C169.805 55.4117 168.509 53.3029 167.718 50.5692C167.041 46.6351 167.119 43.1787 167.953 40.2C168.786 37.2214 170.086 34.5311 171.853 32.129C172.296 32.0828 172.735 32.0148 173.169 31.9251C173.594 31.792 174.007 31.7068 174.406 31.6695C174.84 31.5799 175.223 31.5688 175.554 31.6362C175.928 31.6947 176.277 31.849 176.6 32.0991C176.872 32.5408 177.014 33.0094 177.026 33.5049C177.081 33.9914 177.067 34.4697 176.983 34.9397C176.899 35.4097 176.793 35.8842 176.666 36.3631C176.53 36.7987 176.41 37.2081 176.309 37.5913C176.176 38.7049 175.796 39.7115 175.167 40.611C174.538 41.5104 173.752 42.3065 172.808 42.9993C172.114 43.1428 171.457 43.1426 170.839 42.9987C170.459 44.6617 170.431 46.5007 170.757 48.5156C171.117 50.4782 171.724 52.3219 172.578 54.0466C172.849 54.2623 173.138 54.5647 173.445 54.954C173.742 55.2999 174.09 55.3412 174.489 55.0779C174.939 54.849 175.32 54.4988 175.63 54.0274C175.983 53.547 176.284 53.0321 176.533 52.4828C176.825 51.9246 177.074 51.3753 177.279 50.8349C177.519 50.2422 177.733 49.7453 177.921 49.3442C178.052 49.3173 178.112 49.2821 178.103 49.2387C178.557 48.1491 179.007 47.0378 179.452 45.9047C179.897 44.7717 180.368 43.6559 180.865 42.5573C181.362 41.4587 181.917 40.4163 182.528 39.43C183.13 38.4003 183.863 37.4567 184.727 36.5992C184.857 36.5723 185 36.4975 185.156 36.3748C185.303 36.2087 185.472 36.1511 185.663 36.2021C185.701 36.6018 185.534 36.9984 185.162 37.392C184.834 37.7766 184.584 38.0998 184.412 38.3618C184.294 38.8841 184.084 39.4028 183.783 39.9176C183.482 40.4325 183.346 40.9811 183.376 41.5634C183.35 41.6592 183.251 41.725 183.077 41.7609C183.2 41.9166 183.222 42.0251 183.144 42.0865C182.774 42.7061 182.523 43.4597 182.389 44.3474C182.299 45.226 182.012 45.919 181.529 46.4263ZM182.106 44.949C182.133 45.0793 182.09 45.2013 181.978 45.315C181.866 45.4287 181.818 45.529 181.836 45.6158C181.905 45.5111 181.996 45.4018 182.108 45.2881C182.212 45.1309 182.211 45.0179 182.106 44.949ZM175.326 34.8067C175.384 34.4324 175.348 34.1458 175.216 33.9466C175.076 33.7041 174.935 33.4615 174.794 33.219C174.211 33.0227 173.703 33.1954 173.272 33.7372C172.875 34.2266 172.565 34.698 172.342 35.1515C171.93 36.0061 171.531 36.9259 171.146 37.9107C170.752 38.8522 170.519 39.8056 170.447 40.7711C170.682 40.8131 170.848 40.9599 170.945 41.2114C171.043 41.4629 171.209 41.6097 171.444 41.6517C172.378 40.9155 173.215 39.9278 173.955 38.6885C174.729 37.3969 175.186 36.103 175.326 34.8067ZM182.09 44.5449C182.195 44.6137 182.226 44.6527 182.182 44.6616C182.13 44.6272 182.091 44.6579 182.066 44.7537C182.066 44.7537 182.118 44.7881 182.223 44.857C182.205 44.7702 182.213 44.7006 182.248 44.6482C182.317 44.5434 182.299 44.4566 182.194 44.3877C182.212 44.4745 182.177 44.5269 182.09 44.5449ZM210.548 41.2467C210.592 41.4638 210.536 41.5207 210.379 41.4173C210.361 41.3305 210.417 41.2736 210.548 41.2467ZM209.793 41.5384C209.819 41.4426 209.836 41.4164 209.845 41.4598C209.897 41.4943 209.962 41.4808 210.04 41.4195C210.058 41.5063 210.024 41.5587 209.937 41.5766C209.893 41.5856 209.845 41.5728 209.793 41.5384ZM207.408 41.8273C207.313 41.8018 207.295 41.828 207.357 41.9059C207.418 41.9837 207.401 42.0099 207.305 41.9844C207.182 41.8287 207.09 41.7119 207.029 41.6341C206.959 41.5128 206.893 41.4132 206.831 41.3354C206.788 41.3443 206.775 41.3922 206.793 41.4791C206.24 40.5523 205.707 39.508 205.196 38.3462C204.727 37.1755 204.354 35.9172 204.076 34.5714C203.973 34.7285 203.922 34.9201 203.923 35.1461C203.968 35.3632 203.891 35.5376 203.692 35.6692C203.491 36.8877 203.16 38.133 202.698 39.4053C202.228 40.6341 201.713 41.7589 201.155 42.7796C200.922 43.1897 200.729 43.5691 200.575 43.9178C200.464 44.2576 200.253 44.5502 199.941 44.7956C199.673 45.032 199.358 45.2557 198.994 45.4667C198.63 45.6776 198.257 45.8452 197.875 45.9693C197.215 46.0604 196.684 45.8986 196.281 45.4838C195.922 45.06 195.636 44.5532 195.424 43.9634C195.203 43.3301 195.073 42.7006 195.034 42.0749C194.995 41.4491 195.001 40.9275 195.05 40.5098C194.862 39.5981 194.799 38.6378 194.862 37.6289C194.96 36.5676 194.993 35.5198 194.96 34.4854C194.177 35.7336 193.62 37.0934 193.29 38.5648C192.952 39.9927 192.718 41.4896 192.588 43.0553C192.494 44.5687 192.46 46.1599 192.488 47.829C192.507 49.4547 192.461 51.0938 192.35 52.7464C192.272 52.8078 192.216 52.8646 192.181 52.917C192.19 52.9604 192.147 52.9694 192.051 52.9439C192.069 53.0307 192.091 53.1393 192.118 53.2695C192.136 53.3563 192.184 53.3691 192.262 53.3077C192.169 53.7343 191.97 53.979 191.667 54.0418C191.608 54.416 191.423 54.7258 191.112 54.9712C190.791 55.1732 190.44 55.3362 190.058 55.4604C189.677 55.5845 189.303 55.639 188.938 55.6239C188.52 55.5744 188.224 55.4545 188.049 55.2644C187.97 55.0997 187.869 54.9395 187.746 54.7838C187.58 54.637 187.435 54.4858 187.313 54.3301C187.251 54.2522 187.242 54.2088 187.286 54.1998C187.329 54.1909 187.342 54.143 187.324 54.0561C186.877 53.4243 186.555 52.7438 186.359 52.0148C186.111 51.2512 185.949 50.4698 185.875 49.6704C185.791 48.8276 185.751 47.9758 185.754 47.1151C185.714 46.2633 185.657 45.4378 185.582 44.6384C185.342 41.0666 185.347 37.6933 185.597 34.5184C185.794 31.309 186.318 28.2584 187.169 25.3666C187.115 25.1061 187.106 24.9497 187.14 24.8973C187.166 24.8015 187.257 24.8053 187.414 24.9086C187.492 24.8473 187.505 24.7994 187.452 24.7649C187.391 24.6871 187.399 24.6175 187.477 24.5561C187.911 24.4664 188.319 24.3595 188.701 24.2354C189.117 24.0589 189.512 23.9999 189.886 24.0584C190.262 25.6557 190.428 27.2283 190.386 28.7761C190.378 30.2716 190.305 31.7805 190.166 33.3028C190.072 34.8162 189.981 36.3512 189.896 37.908C189.801 39.4214 189.854 40.9947 190.056 42.6279C189.954 43.0111 189.935 43.4676 189.999 43.9976C190.107 44.5185 190.166 45.0268 190.178 45.5223C190.343 44.1302 190.508 42.7381 190.674 41.346C190.83 39.9105 191.047 38.5528 191.326 37.273C191.648 35.9843 192.08 34.7861 192.621 33.6786C193.161 32.571 193.912 31.6012 194.871 30.7692C195.097 30.7678 195.314 30.723 195.523 30.6347C195.774 30.5375 196.009 30.5795 196.228 30.7607C196.271 30.7517 196.293 30.7472 196.293 30.7472C196.284 30.7038 196.301 30.6776 196.344 30.6686C196.892 30.6913 197.293 30.88 197.548 31.2349C197.837 31.5373 198.03 31.9274 198.129 32.4049C198.228 32.8825 198.266 33.3952 198.243 33.943C198.22 34.4909 198.163 34.9781 198.07 35.4047C198.087 36.8044 197.935 38.2616 197.615 39.7764C197.561 39.5159 197.508 39.3684 197.455 39.334C197.439 39.4732 197.448 39.6296 197.484 39.8033C197.511 39.9335 197.442 40.0383 197.278 40.1176C197.252 40.2134 197.261 40.2568 197.305 40.2478C197.382 40.1865 197.448 40.173 197.5 40.2075C197.388 40.3212 197.349 40.4649 197.385 40.6386C197.412 40.7688 197.444 40.9207 197.479 41.0944C197.515 41.2681 197.53 41.4462 197.522 41.6288C197.514 41.8114 197.45 41.9379 197.329 42.0082C197.303 42.104 197.312 42.1474 197.356 42.1385C197.433 42.0771 197.481 42.0899 197.499 42.1767C197.561 42.2545 197.548 42.3024 197.461 42.3204C197.418 42.3293 197.379 42.36 197.344 42.4124C197.519 42.6026 197.586 42.8152 197.544 43.0502C197.545 43.2762 197.634 43.4843 197.809 43.6745C198.525 42.7571 199.083 41.7363 199.485 40.6123C199.877 39.4448 200.248 38.2818 200.597 37.1233C200.938 35.9213 201.33 34.7539 201.775 33.6208C202.22 32.4878 202.853 31.497 203.673 30.6485C203.856 30.6561 204.051 30.6157 204.259 30.5274C204.321 30.6053 204.334 30.6704 204.3 30.7228C204.256 30.7318 204.265 30.7752 204.327 30.853C204.405 30.7917 204.439 30.7393 204.43 30.6959C204.455 30.6001 204.508 30.6346 204.587 30.7992C204.622 30.7469 204.63 30.6773 204.612 30.5904C205.247 30.5951 205.718 30.9051 206.026 31.5205C206.378 32.1268 206.665 32.8597 206.888 33.719C207.102 34.5349 207.285 35.4249 207.439 36.3889C207.637 37.344 207.894 38.151 208.211 38.8097C208.072 38.7932 207.984 38.6981 207.948 38.5245C207.956 38.3419 207.933 38.2333 207.881 38.1989C207.7 38.4174 207.675 38.6262 207.807 38.8253C207.938 39.0245 208.031 39.2543 208.085 39.5147C207.922 39.8201 207.989 40.1457 208.287 40.4916C208.619 40.7851 208.834 41.0576 208.931 41.3091C209.043 41.1954 209.156 41.1946 209.27 41.3069C209.418 41.3669 209.562 41.4051 209.701 41.4216C209.719 41.5084 209.685 41.5608 209.598 41.5787C209.545 41.5443 209.502 41.5533 209.467 41.6056C209.746 41.6387 210.015 41.6283 210.276 41.5745C210.58 41.5117 210.91 41.4661 211.266 41.4378C211.197 41.5426 211.08 41.6346 210.916 41.7139C210.751 41.7932 210.634 41.8852 210.565 41.99C210.627 42.0678 210.696 42.0761 210.774 42.0147C210.843 41.91 210.891 41.9227 210.918 42.0529C210.606 42.2983 210.238 42.4876 209.813 42.6207C209.379 42.7104 209.044 42.7342 208.809 42.6922C208.722 42.7101 208.696 42.6929 208.731 42.6405C208.756 42.5447 208.795 42.5141 208.847 42.5485C208.334 42.4735 207.854 42.2331 207.408 41.8273ZM207.789 38.0821C207.823 38.0297 207.762 37.9518 207.605 37.8485C207.571 37.9009 207.632 37.9787 207.789 38.0821Z" fill="#323B62"/>
</svg>
