<svg width="200" height="26" viewBox="0 0 200 26" fill="none" xmlns="http://www.w3.org/2000/svg">
<path d="M22.217 4.99437H32.37V6.32537H22.217V4.99437ZM26.606 3.24537H27.992V8.97637C27.992 9.35037 27.9407 9.64003 27.838 9.84537C27.7427 10.0507 27.5593 10.2047 27.288 10.3074C27.024 10.41 26.7013 10.476 26.32 10.5054C25.9387 10.5347 25.495 10.5457 24.989 10.5384C24.967 10.4064 24.923 10.256 24.857 10.0874C24.791 9.92603 24.7213 9.76103 24.648 9.59237C24.5747 9.43103 24.5013 9.2917 24.428 9.17437C24.6847 9.1817 24.9377 9.18903 25.187 9.19637C25.4437 9.2037 25.671 9.20737 25.869 9.20737C26.0743 9.20737 26.2173 9.20737 26.298 9.20737C26.4153 9.20737 26.496 9.18903 26.54 9.15237C26.584 9.1157 26.606 9.0497 26.606 8.95437V3.24537ZM23.372 0.858367H30.302V2.15637H23.372V0.858367ZM29.862 0.858367H30.214L30.522 0.781367L31.523 1.54037C31.1857 1.8997 30.797 2.25903 30.357 2.61837C29.9243 2.9777 29.4733 3.32237 29.004 3.65237C28.5347 3.97503 28.0763 4.2537 27.629 4.48837C27.563 4.39303 27.4787 4.2867 27.376 4.16937C27.2733 4.05203 27.167 3.93837 27.057 3.82837C26.947 3.71103 26.848 3.61203 26.76 3.53137C27.156 3.33337 27.5557 3.09503 27.959 2.81637C28.3697 2.5377 28.7437 2.2517 29.081 1.95837C29.4183 1.66503 29.6787 1.39737 29.862 1.15537V0.858367ZM41.632 3.44337C41.456 3.54603 41.2763 3.64503 41.093 3.74037C40.917 3.82837 40.73 3.9237 40.532 4.02637C40.3047 4.13637 40.0407 4.26837 39.74 4.42237C39.4467 4.56903 39.135 4.73403 38.805 4.91737C38.475 5.09337 38.1413 5.2877 37.804 5.50037C37.3493 5.80103 36.979 6.1127 36.693 6.43537C36.4143 6.75803 36.275 7.1137 36.275 7.50237C36.275 7.89103 36.4657 8.1917 36.847 8.40437C37.2283 8.6097 37.804 8.71237 38.574 8.71237C38.948 8.71237 39.3513 8.6977 39.784 8.66837C40.2167 8.6317 40.6383 8.58403 41.049 8.52537C41.467 8.45937 41.8373 8.3897 42.16 8.31637L42.138 9.88937C41.83 9.94803 41.4927 9.99937 41.126 10.0434C40.7667 10.0874 40.378 10.1204 39.96 10.1424C39.542 10.1644 39.091 10.1754 38.607 10.1754C38.0643 10.1754 37.5583 10.1314 37.089 10.0434C36.6197 9.95537 36.209 9.81603 35.857 9.62537C35.5123 9.4347 35.241 9.17803 35.043 8.85537C34.8523 8.5327 34.757 8.13303 34.757 7.65637C34.757 7.19437 34.8597 6.7727 35.065 6.39137C35.2703 6.01003 35.549 5.65803 35.901 5.33537C36.253 5.0127 36.6453 4.70837 37.078 4.42237C37.43 4.19503 37.7783 3.98603 38.123 3.79537C38.475 3.59737 38.805 3.4177 39.113 3.25637C39.4283 3.0877 39.696 2.93737 39.916 2.80537C40.1213 2.68803 40.3047 2.57803 40.466 2.47537C40.6347 2.3727 40.7887 2.2627 40.928 2.14537L41.632 3.44337ZM36.44 0.924366C36.616 1.40837 36.803 1.8777 37.001 2.33237C37.2063 2.7797 37.408 3.1977 37.606 3.58637C37.8113 3.97503 37.9983 4.3197 38.167 4.62037L36.924 5.35737C36.726 5.02003 36.5207 4.64237 36.308 4.22437C36.0953 3.80637 35.8827 3.36637 35.67 2.90437C35.4647 2.43503 35.2593 1.96203 35.054 1.48537L36.44 0.924366ZM41.753 0.759367C41.8483 0.891367 41.951 1.04903 42.061 1.23237C42.171 1.4157 42.2737 1.59903 42.369 1.78237C42.4717 1.9657 42.5597 2.12703 42.633 2.26637L41.742 2.64037C41.632 2.41303 41.4963 2.15637 41.335 1.87037C41.181 1.57703 41.0307 1.32403 40.884 1.11137L41.753 0.759367ZM43.062 0.253367C43.1573 0.3927 43.26 0.5577 43.37 0.748367C43.48 0.9317 43.5863 1.11503 43.689 1.29837C43.799 1.47437 43.887 1.62837 43.953 1.76037L43.073 2.13437C42.963 1.8997 42.8237 1.63937 42.655 1.35337C42.4937 1.06737 42.336 0.8217 42.182 0.616367L43.062 0.253367ZM49.607 0.715367C49.563 0.913367 49.5263 1.08937 49.497 1.24337C49.4677 1.39737 49.442 1.5477 49.42 1.69437C49.3907 1.84837 49.354 2.07203 49.31 2.36537C49.2733 2.65137 49.2293 2.9777 49.178 3.34437C49.134 3.7037 49.0863 4.08137 49.035 4.47737C48.991 4.86603 48.947 5.24737 48.903 5.62137C48.859 5.99537 48.8223 6.33637 48.793 6.64437C48.771 6.95237 48.76 7.19803 48.76 7.38137C48.76 7.83603 48.8957 8.18437 49.167 8.42637C49.4457 8.66103 49.8563 8.77837 50.399 8.77837C50.9123 8.77837 51.345 8.7087 51.697 8.56937C52.049 8.4227 52.3167 8.22837 52.5 7.98637C52.6833 7.74437 52.775 7.47303 52.775 7.17237C52.775 6.79837 52.676 6.43537 52.478 6.08337C52.2873 5.72403 52.0087 5.3757 51.642 5.03837L53.193 4.70837C53.5597 5.17037 53.8273 5.61037 53.996 6.02837C54.172 6.43903 54.26 6.87903 54.26 7.34837C54.26 7.89837 54.1023 8.3897 53.787 8.82237C53.4717 9.25503 53.0207 9.59237 52.434 9.83437C51.8547 10.0764 51.1617 10.1974 50.355 10.1974C49.783 10.1974 49.2733 10.1094 48.826 9.93337C48.3787 9.75737 48.0303 9.4787 47.781 9.09737C47.5317 8.71603 47.407 8.22103 47.407 7.61237C47.407 7.38503 47.4253 7.08437 47.462 6.71037C47.4987 6.32903 47.5427 5.91103 47.594 5.45637C47.6527 4.99437 47.7113 4.5287 47.77 4.05937C47.8287 3.5827 47.88 3.1317 47.924 2.70637C47.9753 2.28103 48.0157 1.91437 48.045 1.60637C48.0597 1.3497 48.067 1.15537 48.067 1.02337C48.0743 0.884033 48.0707 0.752033 48.056 0.627367L49.607 0.715367ZM45.68 2.07937C46.01 2.18203 46.3693 2.27003 46.758 2.34337C47.1467 2.40937 47.5463 2.4607 47.957 2.49737C48.3677 2.5267 48.7563 2.54137 49.123 2.54137C49.5557 2.54137 49.959 2.5267 50.333 2.49737C50.707 2.46803 51.0333 2.43137 51.312 2.38737L51.268 3.69637C50.938 3.7257 50.608 3.75137 50.278 3.77337C49.948 3.79537 49.552 3.80637 49.09 3.80637C48.716 3.80637 48.3273 3.78803 47.924 3.75137C47.5207 3.70737 47.121 3.65237 46.725 3.58637C46.329 3.51303 45.9587 3.43237 45.614 3.34437L45.68 2.07937ZM45.449 4.80737C45.845 4.93937 46.2447 5.04203 46.648 5.11537C47.0587 5.1887 47.462 5.24003 47.858 5.26937C48.2613 5.29137 48.6463 5.30237 49.013 5.30237C49.3503 5.30237 49.7133 5.29137 50.102 5.26937C50.498 5.24737 50.872 5.21437 51.224 5.17037L51.191 6.47937C50.883 6.5087 50.5677 6.53437 50.245 6.55637C49.9223 6.57103 49.5887 6.57837 49.244 6.57837C48.5107 6.57837 47.8067 6.5417 47.132 6.46837C46.4573 6.3877 45.8707 6.2777 45.372 6.13837L45.449 4.80737ZM62.279 1.99137C62.2057 2.5487 62.1103 3.1427 61.993 3.77337C61.8757 4.40403 61.718 5.04203 61.52 5.68737C61.3073 6.42803 61.058 7.06603 60.772 7.60137C60.486 8.1367 60.1707 8.55103 59.826 8.84437C59.4887 9.13037 59.1183 9.27337 58.715 9.27337C58.3117 9.27337 57.9377 9.1377 57.593 8.86637C57.2557 8.5877 56.9843 8.20637 56.779 7.72237C56.581 7.23837 56.482 6.68837 56.482 6.07237C56.482 5.43437 56.6103 4.83303 56.867 4.26837C57.1237 3.7037 57.4793 3.20503 57.934 2.77237C58.396 2.33237 58.9313 1.9877 59.54 1.73837C60.156 1.48903 60.8197 1.36437 61.531 1.36437C62.213 1.36437 62.8253 1.47437 63.368 1.69437C63.918 1.91437 64.3873 2.2187 64.776 2.60737C65.1647 2.99603 65.4617 3.4507 65.667 3.97137C65.8723 4.49203 65.975 5.05303 65.975 5.65437C65.975 6.42437 65.8173 7.1137 65.502 7.72237C65.1867 8.33103 64.7173 8.83337 64.094 9.22937C63.478 9.62537 62.708 9.8967 61.784 10.0434L60.959 8.73437C61.1717 8.71237 61.3587 8.6867 61.52 8.65737C61.6813 8.62803 61.8353 8.59503 61.982 8.55837C62.334 8.47037 62.6603 8.3457 62.961 8.18437C63.269 8.0157 63.5367 7.81037 63.764 7.56837C63.9913 7.31903 64.1673 7.02937 64.292 6.69937C64.424 6.36937 64.49 6.00637 64.49 5.61037C64.49 5.1777 64.424 4.7817 64.292 4.42237C64.16 4.06303 63.9657 3.75137 63.709 3.48737C63.4523 3.21603 63.1407 3.0107 62.774 2.87137C62.4073 2.7247 61.9857 2.65137 61.509 2.65137C60.9223 2.65137 60.4053 2.7577 59.958 2.97037C59.5107 3.1757 59.133 3.44337 58.825 3.77337C58.517 4.10337 58.2823 4.45903 58.121 4.84037C57.967 5.2217 57.89 5.5847 57.89 5.92937C57.89 6.29603 57.934 6.60403 58.022 6.85337C58.11 7.09537 58.2163 7.2787 58.341 7.40337C58.473 7.5207 58.6123 7.57937 58.759 7.57937C58.913 7.57937 59.0633 7.50237 59.21 7.34837C59.364 7.18703 59.5143 6.94503 59.661 6.62237C59.8077 6.2997 59.9543 5.8927 60.101 5.40137C60.2697 4.87337 60.4127 4.3087 60.53 3.70737C60.6473 3.10603 60.7317 2.51937 60.783 1.94737L62.279 1.99137ZM67.889 0.616367H77.338V1.68337H67.889V0.616367ZM70.914 7.26037C71.3173 7.71503 71.8563 8.08903 72.531 8.38237C73.213 8.6757 74.005 8.89937 74.907 9.05337C75.809 9.20737 76.7953 9.3027 77.866 9.33937C77.734 9.48603 77.5983 9.67303 77.459 9.90037C77.327 10.135 77.217 10.3404 77.129 10.5164C76.029 10.443 75.017 10.2964 74.093 10.0764C73.1763 9.8637 72.3587 9.56303 71.64 9.17437C70.9287 8.77837 70.3237 8.27603 69.825 7.66737L70.914 7.26037ZM74.687 6.75437H74.951L75.171 6.69937L76.007 7.21637C75.6257 7.76637 75.149 8.2357 74.577 8.62437C74.005 9.01303 73.3597 9.33203 72.641 9.58137C71.9223 9.8307 71.1597 10.0287 70.353 10.1754C69.5537 10.322 68.7323 10.4357 67.889 10.5164C67.845 10.355 67.7753 10.1717 67.68 9.96637C67.592 9.76837 67.5003 9.5997 67.405 9.46037C68.175 9.41637 68.9303 9.33937 69.671 9.22937C70.419 9.11937 71.1193 8.96537 71.772 8.76737C72.4247 8.56203 73.0003 8.30903 73.499 8.00837C74.005 7.70037 74.401 7.33737 74.687 6.91937V6.75437ZM70.991 5.96237L72.3 6.22637C71.8453 6.77637 71.2917 7.2567 70.639 7.66737C69.9937 8.07803 69.2053 8.44103 68.274 8.75637C68.2227 8.6537 68.153 8.5437 68.065 8.42637C67.977 8.3017 67.8817 8.18437 67.779 8.07437C67.6837 7.96437 67.592 7.88003 67.504 7.82137C68.3693 7.59403 69.0917 7.31903 69.671 6.99637C70.2503 6.6737 70.6903 6.32903 70.991 5.96237ZM71.849 1.18837L73.389 1.15537C73.3083 1.4487 73.2203 1.71637 73.125 1.95837C73.0297 2.20037 72.9417 2.4167 72.861 2.60737L71.618 2.53037C71.662 2.32503 71.706 2.10137 71.75 1.85937C71.8013 1.61003 71.8343 1.38637 71.849 1.18837ZM70.133 4.00437V4.43337H75.061V4.00437H70.133ZM70.133 5.17037V5.61037H75.061V5.17037H70.133ZM70.133 2.83837V3.26737H75.061V2.83837H70.133ZM68.857 2.10137H76.403V6.34737H68.857V2.10137ZM71.079 6.75437H75.16V7.64537H70.188L71.079 6.75437ZM84.785 0.363366H86.083V10.5164H84.785V0.363366ZM81.969 2.86037H88.976V4.13637H81.969V2.86037ZM86.358 3.26737C86.5047 3.72937 86.6807 4.19137 86.886 4.65337C87.0913 5.11537 87.3223 5.5627 87.579 5.99537C87.8357 6.42803 88.1107 6.8277 88.404 7.19437C88.6973 7.56103 88.998 7.87637 89.306 8.14037C89.2033 8.22103 89.086 8.3237 88.954 8.44837C88.8293 8.5657 88.7083 8.69037 88.591 8.82237C88.481 8.95437 88.3893 9.0827 88.316 9.20737C88.0007 8.8847 87.6963 8.51437 87.403 8.09637C87.1097 7.67103 86.8347 7.2127 86.578 6.72137C86.3213 6.2227 86.0867 5.7057 85.874 5.17037C85.6687 4.63503 85.4817 4.09603 85.313 3.55337L86.358 3.26737ZM84.565 3.31137L85.698 3.64137C85.4633 4.3747 85.1773 5.09337 84.84 5.79737C84.51 6.49403 84.1397 7.13937 83.729 7.73337C83.3257 8.32737 82.893 8.83703 82.431 9.26237C82.3577 9.15237 82.2623 9.03137 82.145 8.89937C82.0277 8.76737 81.9067 8.6427 81.782 8.52537C81.6647 8.4007 81.5547 8.29803 81.452 8.21737C81.892 7.86537 82.31 7.42537 82.706 6.89737C83.102 6.36203 83.4613 5.78637 83.784 5.17037C84.1067 4.54703 84.367 3.92737 84.565 3.31137ZM81.364 0.242367L82.673 0.660367C82.4163 1.3057 82.112 1.95103 81.76 2.59637C81.408 3.23437 81.023 3.8357 80.605 4.40037C80.1943 4.9577 79.769 5.44903 79.329 5.87437C79.285 5.76437 79.2153 5.62137 79.12 5.44537C79.032 5.26937 78.9367 5.09337 78.834 4.91737C78.7313 4.73403 78.6397 4.58737 78.559 4.47737C78.933 4.14003 79.2923 3.7477 79.637 3.30037C79.989 2.8457 80.3117 2.35803 80.605 1.83737C80.9057 1.3167 81.1587 0.785033 81.364 0.242367ZM80.231 3.41037L81.518 2.12337L81.54 2.14537V10.4944H80.231V3.41037ZM92.111 1.19937C92.265 1.21403 92.4263 1.2287 92.595 1.24337C92.771 1.2507 92.9177 1.25437 93.035 1.25437C93.1963 1.25437 93.3797 1.2507 93.585 1.24337C93.7977 1.23603 94.014 1.2287 94.234 1.22137C94.454 1.21403 94.663 1.20303 94.861 1.18837C95.059 1.1737 95.2203 1.1627 95.345 1.15537C95.477 1.14803 95.609 1.1297 95.741 1.10037C95.8803 1.07103 95.9977 1.03803 96.093 1.00137L96.973 1.68337C96.8997 1.77137 96.83 1.85203 96.764 1.92537C96.698 1.99137 96.643 2.0647 96.599 2.14537C96.4743 2.3507 96.3313 2.63303 96.17 2.99237C96.0087 3.34437 95.8363 3.7257 95.653 4.13637C95.477 4.54703 95.3047 4.9467 95.136 5.33537C95.026 5.5847 94.9123 5.8487 94.795 6.12737C94.6777 6.40603 94.5567 6.6847 94.432 6.96337C94.3073 7.2347 94.1863 7.49137 94.069 7.73337C93.9517 7.96803 93.838 8.17337 93.728 8.34937C93.508 8.67937 93.2623 8.92503 92.991 9.08637C92.7197 9.24037 92.3933 9.31737 92.012 9.31737C91.528 9.31737 91.1247 9.1597 90.802 8.84437C90.4793 8.52903 90.318 8.0927 90.318 7.53537C90.318 7.09537 90.417 6.6847 90.615 6.30337C90.813 5.92203 91.0917 5.59203 91.451 5.31337C91.8177 5.02737 92.2467 4.80737 92.738 4.65337C93.2293 4.49937 93.7683 4.42237 94.355 4.42237C94.993 4.42237 95.609 4.4957 96.203 4.64237C96.797 4.78903 97.3507 4.97603 97.864 5.20337C98.3847 5.4307 98.8503 5.66903 99.261 5.91837C99.679 6.16037 100.035 6.38037 100.328 6.57837L99.679 8.10737C99.349 7.79937 98.9787 7.50237 98.568 7.21637C98.1573 6.93037 97.7173 6.67003 97.248 6.43537C96.786 6.19337 96.291 6.0027 95.763 5.86337C95.2423 5.72403 94.6997 5.65437 94.135 5.65437C93.5997 5.65437 93.1413 5.7387 92.76 5.90737C92.386 6.07603 92.1 6.2887 91.902 6.54537C91.704 6.7947 91.605 7.05503 91.605 7.32637C91.605 7.50237 91.649 7.63803 91.737 7.73337C91.8323 7.8287 91.9423 7.87637 92.067 7.87637C92.1843 7.87637 92.2833 7.84703 92.364 7.78837C92.4447 7.7297 92.5363 7.6307 92.639 7.49137C92.7343 7.35937 92.826 7.2017 92.914 7.01837C93.0093 6.83503 93.1047 6.63337 93.2 6.41337C93.3027 6.19337 93.4017 5.9697 93.497 5.74237C93.5997 5.51503 93.6987 5.29503 93.794 5.08237C93.926 4.78903 94.0617 4.4847 94.201 4.16937C94.3403 3.8467 94.4723 3.53503 94.597 3.23437C94.729 2.9337 94.85 2.6697 94.96 2.44237C94.85 2.4497 94.7143 2.45703 94.553 2.46437C94.3917 2.46437 94.2193 2.46803 94.036 2.47537C93.86 2.4827 93.684 2.4937 93.508 2.50837C93.3393 2.5157 93.1927 2.52303 93.068 2.53037C92.958 2.5377 92.815 2.5487 92.639 2.56337C92.4703 2.57803 92.3163 2.59637 92.177 2.61837L92.111 1.19937ZM99.36 3.80637C99.316 4.5837 99.2353 5.2987 99.118 5.95137C99.008 6.5967 98.8283 7.18703 98.579 7.72237C98.337 8.25037 98.0033 8.7307 97.578 9.16337C97.1527 9.5887 96.61 9.9737 95.95 10.3184L94.784 9.36137C95.4587 9.06803 95.9977 8.7307 96.401 8.34937C96.8117 7.96803 97.1197 7.56837 97.325 7.15037C97.5377 6.73237 97.6843 6.32537 97.765 5.92937C97.8457 5.52603 97.897 5.16303 97.919 4.84037C97.9337 4.6277 97.941 4.4187 97.941 4.21337C97.941 4.0007 97.9337 3.81003 97.919 3.64137L99.36 3.80637ZM106.103 0.913367C106.074 1.0527 106.041 1.2067 106.004 1.37537C105.967 1.5367 105.934 1.68703 105.905 1.82637C105.876 1.9877 105.839 2.17103 105.795 2.37637C105.751 2.57437 105.707 2.77603 105.663 2.98137C105.626 3.17937 105.586 3.3737 105.542 3.56437C105.469 3.8797 105.377 4.24637 105.267 4.66437C105.157 5.08237 105.029 5.53337 104.882 6.01737C104.735 6.49403 104.57 6.97437 104.387 7.45837C104.204 7.94237 104.009 8.41537 103.804 8.87737C103.599 9.33203 103.379 9.7427 103.144 10.1094L101.714 9.53737C101.971 9.1927 102.209 8.8077 102.429 8.38237C102.656 7.9497 102.862 7.5097 103.045 7.06237C103.228 6.6077 103.39 6.16037 103.529 5.72037C103.676 5.27303 103.8 4.8587 103.903 4.47737C104.013 4.09603 104.097 3.7697 104.156 3.49837C104.259 2.9997 104.339 2.51937 104.398 2.05737C104.457 1.59537 104.479 1.15903 104.464 0.748367L106.103 0.913367ZM109.887 2.02437C110.063 2.26637 110.243 2.56337 110.426 2.91537C110.617 3.26003 110.804 3.6267 110.987 4.01537C111.17 4.40403 111.335 4.77803 111.482 5.13737C111.629 5.4967 111.742 5.80837 111.823 6.07237L110.426 6.71037C110.36 6.40237 110.261 6.06137 110.129 5.68737C110.004 5.31337 109.858 4.9357 109.689 4.55437C109.52 4.1657 109.341 3.79903 109.15 3.45437C108.967 3.1097 108.776 2.82003 108.578 2.58537L109.887 2.02437ZM101.637 3.16837C101.835 3.18303 102.029 3.19037 102.22 3.19037C102.418 3.18303 102.616 3.1757 102.814 3.16837C102.997 3.16103 103.217 3.15003 103.474 3.13537C103.731 3.11337 104.002 3.09137 104.288 3.06937C104.581 3.04737 104.875 3.02537 105.168 3.00337C105.461 2.97403 105.733 2.95203 105.982 2.93737C106.231 2.9227 106.437 2.91537 106.598 2.91537C106.994 2.91537 107.339 2.98137 107.632 3.11337C107.925 3.23803 108.156 3.45437 108.325 3.76237C108.501 4.07037 108.589 4.48837 108.589 5.01637C108.589 5.44903 108.571 5.91837 108.534 6.42437C108.497 6.93037 108.431 7.41437 108.336 7.87637C108.248 8.33837 108.123 8.7307 107.962 9.05337C107.786 9.4347 107.544 9.6987 107.236 9.84537C106.935 9.99203 106.576 10.0654 106.158 10.0654C105.953 10.0654 105.729 10.047 105.487 10.0104C105.245 9.98103 105.029 9.94803 104.838 9.91137L104.607 8.45937C104.746 8.49603 104.9 8.5327 105.069 8.56937C105.245 8.60603 105.41 8.63537 105.564 8.65737C105.725 8.67937 105.854 8.69037 105.949 8.69037C106.132 8.69037 106.294 8.65737 106.433 8.59137C106.572 8.51803 106.686 8.39337 106.774 8.21737C106.877 8.0047 106.961 7.7297 107.027 7.39237C107.093 7.05503 107.141 6.69203 107.17 6.30337C107.207 5.90737 107.225 5.5297 107.225 5.17037C107.225 4.87703 107.181 4.6607 107.093 4.52137C107.012 4.38203 106.891 4.29037 106.73 4.24637C106.576 4.19503 106.385 4.16937 106.158 4.16937C105.989 4.16937 105.762 4.18403 105.476 4.21337C105.19 4.23537 104.882 4.2647 104.552 4.30137C104.229 4.3307 103.929 4.3637 103.65 4.40037C103.371 4.43703 103.155 4.4627 103.001 4.47737C102.84 4.5067 102.634 4.5397 102.385 4.57637C102.143 4.6057 101.938 4.63503 101.769 4.66437L101.637 3.16837ZM109.689 0.495367C109.784 0.627367 109.883 0.785033 109.986 0.968367C110.096 1.1517 110.202 1.33503 110.305 1.51837C110.408 1.7017 110.496 1.86303 110.569 2.00237L109.678 2.38737C109.605 2.23337 109.52 2.0647 109.425 1.88137C109.33 1.69803 109.231 1.5147 109.128 1.33137C109.025 1.14803 108.923 0.990367 108.82 0.858367L109.689 0.495367ZM110.998 0.000366569C111.093 0.1397 111.196 0.301033 111.306 0.484367C111.416 0.6677 111.522 0.851033 111.625 1.03437C111.735 1.2177 111.819 1.3717 111.878 1.49637L111.009 1.87037C110.892 1.64303 110.752 1.38637 110.591 1.10037C110.43 0.807033 110.272 0.5577 110.118 0.352367L110.998 0.000366569ZM114.683 5.89637C114.808 5.58837 114.925 5.2657 115.035 4.92837C115.152 4.5837 115.255 4.2317 115.343 3.87237C115.438 3.51303 115.519 3.1537 115.585 2.79437C115.651 2.4277 115.699 2.06837 115.728 1.71637L117.334 2.04637C117.305 2.15637 117.272 2.28103 117.235 2.42037C117.198 2.5597 117.165 2.69537 117.136 2.82737C117.107 2.95937 117.085 3.0657 117.07 3.14637C117.033 3.34437 116.982 3.57903 116.916 3.85037C116.85 4.1217 116.773 4.4077 116.685 4.70837C116.604 5.00903 116.516 5.31337 116.421 5.62137C116.326 5.92203 116.23 6.2007 116.135 6.45737C116.003 6.8167 115.845 7.18703 115.662 7.56837C115.486 7.94237 115.299 8.30537 115.101 8.65737C114.903 9.00937 114.709 9.3247 114.518 9.60337L112.978 8.95437C113.323 8.4997 113.645 7.99737 113.946 7.44737C114.254 6.89737 114.5 6.38037 114.683 5.89637ZM120.117 5.66537C120.014 5.37937 119.893 5.07137 119.754 4.74137C119.622 4.41137 119.483 4.08137 119.336 3.75137C119.189 3.41403 119.046 3.0987 118.907 2.80537C118.768 2.51203 118.639 2.25903 118.522 2.04637L119.985 1.57337C120.095 1.78603 120.223 2.0427 120.37 2.34337C120.517 2.64403 120.663 2.96303 120.81 3.30037C120.964 3.6377 121.111 3.97137 121.25 4.30137C121.389 4.62403 121.51 4.91737 121.613 5.18137C121.708 5.4307 121.815 5.72037 121.932 6.05037C122.049 6.37303 122.167 6.71403 122.284 7.07337C122.401 7.42537 122.511 7.77003 122.614 8.10737C122.724 8.4447 122.816 8.74903 122.889 9.02037L121.261 9.54837C121.166 9.1157 121.056 8.6757 120.931 8.22837C120.806 7.78103 120.674 7.34103 120.535 6.90837C120.403 6.4757 120.264 6.06137 120.117 5.66537ZM124.77 4.43337C124.902 4.4407 125.071 4.4517 125.276 4.46637C125.481 4.4737 125.694 4.48103 125.914 4.48837C126.141 4.4957 126.35 4.49937 126.541 4.49937C126.724 4.49937 126.952 4.49937 127.223 4.49937C127.494 4.49937 127.788 4.49937 128.103 4.49937C128.426 4.49937 128.756 4.49937 129.093 4.49937C129.438 4.49937 129.779 4.49937 130.116 4.49937C130.453 4.49937 130.772 4.49937 131.073 4.49937C131.374 4.49937 131.641 4.49937 131.876 4.49937C132.118 4.49937 132.309 4.49937 132.448 4.49937C132.705 4.49937 132.947 4.49203 133.174 4.47737C133.401 4.45537 133.588 4.4407 133.735 4.43337V6.16037C133.61 6.15303 133.423 6.14203 133.174 6.12737C132.925 6.1127 132.683 6.10537 132.448 6.10537C132.309 6.10537 132.118 6.10537 131.876 6.10537C131.634 6.10537 131.363 6.10537 131.062 6.10537C130.761 6.10537 130.442 6.10537 130.105 6.10537C129.775 6.10537 129.438 6.10537 129.093 6.10537C128.748 6.10537 128.415 6.10537 128.092 6.10537C127.777 6.10537 127.483 6.10537 127.212 6.10537C126.948 6.10537 126.724 6.10537 126.541 6.10537C126.226 6.10537 125.903 6.1127 125.573 6.12737C125.243 6.1347 124.975 6.1457 124.77 6.16037V4.43337ZM142.59 1.34237C142.693 1.48903 142.806 1.66137 142.931 1.85937C143.056 2.05737 143.173 2.25537 143.283 2.45337C143.4 2.65137 143.503 2.8347 143.591 3.00337L142.634 3.43237C142.531 3.1977 142.429 2.9887 142.326 2.80537C142.231 2.62203 142.132 2.44603 142.029 2.27737C141.926 2.10137 141.805 1.91803 141.666 1.72737L142.59 1.34237ZM144.031 0.737367C144.141 0.884033 144.258 1.0527 144.383 1.24337C144.515 1.43403 144.64 1.62837 144.757 1.82637C144.882 2.01703 144.984 2.1967 145.065 2.36537L144.141 2.81637C144.024 2.5817 143.91 2.37637 143.8 2.20037C143.697 2.01703 143.591 1.8447 143.481 1.68337C143.378 1.5147 143.257 1.34237 143.118 1.16637L144.031 0.737367ZM138.201 8.63537C138.201 8.4887 138.201 8.2577 138.201 7.94237C138.201 7.6197 138.201 7.24937 138.201 6.83137C138.201 6.40603 138.201 5.96603 138.201 5.51137C138.201 5.04937 138.201 4.6057 138.201 4.18037C138.201 3.7477 138.201 3.36637 138.201 3.03637C138.201 2.70637 138.201 2.46437 138.201 2.31037C138.201 2.11237 138.19 1.8887 138.168 1.63937C138.153 1.39003 138.128 1.17003 138.091 0.979367H139.807C139.785 1.17003 139.763 1.3827 139.741 1.61737C139.719 1.85203 139.708 2.08303 139.708 2.31037C139.708 2.50837 139.708 2.78337 139.708 3.13537C139.708 3.48737 139.708 3.8797 139.708 4.31237C139.708 4.7377 139.708 5.17403 139.708 5.62137C139.708 6.0687 139.708 6.4977 139.708 6.90837C139.708 7.3117 139.708 7.66737 139.708 7.97537C139.708 8.27603 139.708 8.49603 139.708 8.63537C139.708 8.7307 139.712 8.8737 139.719 9.06437C139.734 9.2477 139.748 9.43837 139.763 9.63637C139.785 9.83437 139.803 10.0104 139.818 10.1644H138.091C138.128 9.9517 138.153 9.6987 138.168 9.40537C138.19 9.1047 138.201 8.84803 138.201 8.63537ZM139.389 3.82837C139.756 3.9237 140.163 4.04837 140.61 4.20237C141.065 4.34903 141.523 4.51037 141.985 4.68637C142.447 4.85503 142.883 5.0237 143.294 5.19237C143.705 5.3537 144.042 5.50037 144.306 5.63237L143.69 7.16137C143.375 6.9927 143.03 6.8277 142.656 6.66637C142.282 6.50503 141.901 6.34737 141.512 6.19337C141.131 6.03203 140.757 5.88537 140.39 5.75337C140.023 5.62137 139.69 5.5077 139.389 5.41237V3.82837ZM153.601 0.660367C153.594 0.719033 153.583 0.814367 153.568 0.946367C153.561 1.07103 153.553 1.19937 153.546 1.33137C153.539 1.45603 153.531 1.5477 153.524 1.60637C153.517 1.75303 153.513 1.95103 153.513 2.20037C153.513 2.44237 153.513 2.7137 153.513 3.01437C153.513 3.31503 153.513 3.61937 153.513 3.92737C153.52 4.22803 153.524 4.51403 153.524 4.78537C153.531 5.04937 153.535 5.26937 153.535 5.44537L152.16 4.98337C152.16 4.84403 152.16 4.6607 152.16 4.43337C152.16 4.1987 152.16 3.9457 152.16 3.67437C152.16 3.3957 152.156 3.1207 152.149 2.84937C152.149 2.57803 152.145 2.33237 152.138 2.11237C152.131 1.89237 152.123 1.72737 152.116 1.61737C152.101 1.39003 152.083 1.19203 152.061 1.02337C152.039 0.847367 152.021 0.726367 152.006 0.660367H153.601ZM147.386 2.02437C147.709 2.02437 148.075 2.0207 148.486 2.01337C148.897 2.00603 149.326 1.9987 149.773 1.99137C150.22 1.98403 150.66 1.9767 151.093 1.96937C151.526 1.96203 151.933 1.95837 152.314 1.95837C152.695 1.95103 153.025 1.94737 153.304 1.94737C153.583 1.94737 153.887 1.94737 154.217 1.94737C154.547 1.94003 154.873 1.93637 155.196 1.93637C155.519 1.93637 155.812 1.93637 156.076 1.93637C156.347 1.93637 156.556 1.93637 156.703 1.93637L156.692 3.23437C156.347 3.2197 155.893 3.2087 155.328 3.20137C154.763 3.1867 154.074 3.17937 153.26 3.17937C152.761 3.17937 152.255 3.1867 151.742 3.20137C151.229 3.2087 150.719 3.2197 150.213 3.23437C149.707 3.24903 149.219 3.26737 148.75 3.28937C148.281 3.30403 147.837 3.32603 147.419 3.35537L147.386 2.02437ZM153.337 5.28037C153.337 5.8817 153.264 6.38037 153.117 6.77637C152.978 7.17237 152.765 7.47303 152.479 7.67837C152.193 7.87637 151.837 7.97537 151.412 7.97537C151.207 7.97537 150.99 7.93137 150.763 7.84337C150.543 7.75537 150.338 7.62703 150.147 7.45837C149.956 7.2897 149.802 7.0807 149.685 6.83137C149.575 6.58203 149.52 6.2887 149.52 5.95137C149.52 5.53337 149.619 5.17403 149.817 4.87337C150.015 4.56537 150.279 4.32703 150.609 4.15837C150.946 3.98237 151.317 3.89437 151.72 3.89437C152.204 3.89437 152.607 4.00437 152.93 4.22437C153.26 4.43703 153.506 4.7267 153.667 5.09337C153.836 5.46003 153.92 5.87437 153.92 6.33637C153.92 6.6957 153.861 7.0697 153.744 7.45837C153.627 7.84703 153.432 8.22837 153.161 8.60237C152.897 8.96903 152.538 9.3027 152.083 9.60337C151.636 9.90403 151.075 10.1497 150.4 10.3404L149.223 9.17437C149.692 9.07903 150.129 8.95437 150.532 8.80037C150.935 8.64637 151.287 8.45203 151.588 8.21737C151.896 7.9827 152.134 7.69303 152.303 7.34837C152.479 7.0037 152.567 6.58937 152.567 6.10537C152.567 5.75337 152.479 5.48937 152.303 5.31337C152.134 5.13737 151.929 5.04937 151.687 5.04937C151.548 5.04937 151.412 5.08237 151.28 5.14837C151.148 5.21437 151.042 5.31337 150.961 5.44537C150.88 5.57737 150.84 5.7387 150.84 5.92937C150.84 6.1787 150.924 6.38037 151.093 6.53437C151.269 6.68103 151.467 6.75437 151.687 6.75437C151.863 6.75437 152.017 6.69937 152.149 6.58937C152.288 6.47937 152.38 6.29603 152.424 6.03937C152.468 5.7827 152.431 5.43803 152.314 5.00537L153.337 5.28037ZM166.251 0.539367C166.383 0.737367 166.533 0.983033 166.702 1.27637C166.878 1.56237 167.017 1.81537 167.12 2.03537L166.295 2.39837C166.156 2.0977 166.02 1.83003 165.888 1.59537C165.763 1.3607 165.613 1.12237 165.437 0.880367L166.251 0.539367ZM167.461 0.0443667C167.556 0.169033 167.659 0.319367 167.769 0.495367C167.886 0.664033 168 0.840033 168.11 1.02337C168.22 1.19937 168.312 1.35703 168.385 1.49637L167.56 1.89237C167.413 1.59903 167.27 1.3387 167.131 1.11137C166.999 0.884033 166.841 0.649367 166.658 0.407367L167.461 0.0443667ZM159.145 1.68337C159.952 1.77137 160.692 1.82637 161.367 1.84837C162.049 1.86303 162.68 1.84837 163.259 1.80437C163.758 1.7677 164.201 1.7127 164.59 1.63937C164.986 1.5587 165.323 1.47437 165.602 1.38637L165.778 2.65137C165.499 2.71737 165.177 2.78337 164.81 2.84937C164.443 2.91537 164.022 2.9667 163.545 3.00337C162.98 3.04737 162.328 3.06937 161.587 3.06937C160.846 3.06203 160.058 3.01803 159.222 2.93737L159.145 1.68337ZM158.947 3.98237C159.614 4.04103 160.249 4.08137 160.85 4.10337C161.459 4.12537 162.031 4.12903 162.566 4.11437C163.109 4.09237 163.6 4.05937 164.04 4.01537C164.627 3.96403 165.133 3.8907 165.558 3.79537C165.983 3.70003 166.357 3.6047 166.68 3.50937L166.9 4.80737C166.57 4.88803 166.203 4.96503 165.8 5.03837C165.404 5.1117 164.982 5.17403 164.535 5.22537C164.073 5.2767 163.538 5.31337 162.929 5.33537C162.328 5.35737 161.69 5.3647 161.015 5.35737C160.348 5.3427 159.684 5.31703 159.024 5.28037L158.947 3.98237ZM162.621 1.99137C162.57 1.78603 162.511 1.5807 162.445 1.37537C162.379 1.17003 162.306 0.961033 162.225 0.748367L163.699 0.583367C163.75 0.935367 163.809 1.27637 163.875 1.60637C163.948 1.93637 164.029 2.25537 164.117 2.56337C164.205 2.87137 164.297 3.16837 164.392 3.45437C164.48 3.7037 164.594 3.9897 164.733 4.31237C164.88 4.63503 165.037 4.95403 165.206 5.26937C165.375 5.5847 165.54 5.8707 165.701 6.12737C165.774 6.23003 165.851 6.32903 165.932 6.42437C166.013 6.51237 166.101 6.60403 166.196 6.69937L165.536 7.70037C165.331 7.6637 165.074 7.62337 164.766 7.57937C164.458 7.53537 164.139 7.49503 163.809 7.45837C163.486 7.41437 163.193 7.38137 162.929 7.35937L163.039 6.30337C163.266 6.32537 163.512 6.34737 163.776 6.36937C164.04 6.39137 164.253 6.41337 164.414 6.43537C164.121 5.94403 163.871 5.4637 163.666 4.99437C163.461 4.52503 163.288 4.09237 163.149 3.69637C163.061 3.43237 162.984 3.2087 162.918 3.02537C162.859 2.8347 162.808 2.6587 162.764 2.49737C162.72 2.33603 162.672 2.16737 162.621 1.99137ZM161.059 6.53437C160.927 6.7177 160.813 6.90837 160.718 7.10637C160.623 7.29703 160.575 7.51337 160.575 7.75537C160.575 8.16603 160.762 8.45937 161.136 8.63537C161.517 8.81137 162.071 8.89937 162.797 8.89937C163.318 8.89937 163.809 8.88103 164.271 8.84437C164.74 8.80037 165.169 8.73803 165.558 8.65737L165.481 10.0654C165.1 10.124 164.671 10.1717 164.194 10.2084C163.717 10.245 163.255 10.2634 162.808 10.2634C162.075 10.2634 161.44 10.1864 160.905 10.0324C160.377 9.87837 159.966 9.64003 159.673 9.31737C159.38 8.9947 159.226 8.57303 159.211 8.05237C159.211 7.69303 159.259 7.37403 159.354 7.09537C159.449 6.80937 159.563 6.53803 159.695 6.28137L161.059 6.53437ZM169.859 1.95837C170.079 1.95103 170.288 1.9437 170.486 1.93637C170.684 1.9217 170.838 1.9107 170.948 1.90337C171.175 1.88137 171.454 1.8557 171.784 1.82637C172.114 1.79703 172.484 1.76403 172.895 1.72737C173.313 1.6907 173.757 1.65403 174.226 1.61737C174.695 1.57337 175.183 1.52937 175.689 1.48537C176.07 1.45603 176.452 1.43037 176.833 1.40837C177.214 1.37903 177.574 1.35703 177.911 1.34237C178.256 1.32037 178.553 1.3057 178.802 1.29837L178.813 2.70637C178.615 2.70637 178.388 2.71003 178.131 2.71737C177.874 2.7247 177.618 2.73937 177.361 2.76137C177.112 2.77603 176.888 2.80537 176.69 2.84937C176.36 2.93737 176.052 3.0877 175.766 3.30037C175.487 3.5057 175.242 3.75137 175.029 4.03737C174.816 4.32337 174.651 4.63137 174.534 4.96137C174.424 5.28403 174.369 5.61037 174.369 5.94037C174.369 6.2997 174.431 6.6187 174.556 6.89737C174.681 7.1687 174.853 7.40337 175.073 7.60137C175.3 7.79203 175.564 7.95337 175.865 8.08537C176.166 8.21003 176.488 8.30537 176.833 8.37137C177.185 8.43737 177.548 8.48137 177.922 8.50337L177.405 10.0104C176.943 9.98103 176.492 9.9077 176.052 9.79037C175.619 9.67303 175.212 9.5117 174.831 9.30637C174.457 9.10103 174.127 8.8517 173.841 8.55837C173.555 8.2577 173.331 7.9167 173.17 7.53537C173.009 7.1467 172.928 6.71403 172.928 6.23737C172.928 5.70203 173.012 5.21437 173.181 4.77437C173.35 4.33437 173.559 3.94937 173.808 3.61937C174.057 3.28203 174.307 3.0217 174.556 2.83837C174.351 2.86037 174.101 2.8897 173.808 2.92637C173.522 2.9557 173.21 2.99237 172.873 3.03637C172.543 3.07303 172.206 3.11337 171.861 3.15737C171.516 3.20137 171.183 3.2527 170.86 3.31137C170.545 3.3627 170.259 3.41403 170.002 3.46537L169.859 1.95837ZM64.545 21.9414H65.876V23.7344C65.876 23.8957 65.9126 23.9984 65.986 24.0424C66.0666 24.0864 66.2426 24.1084 66.514 24.1084C66.58 24.1084 66.6826 24.1084 66.822 24.1084C66.9613 24.1084 67.1116 24.1084 67.273 24.1084C67.4416 24.1084 67.5993 24.1084 67.746 24.1084C67.9 24.1084 68.0136 24.1084 68.087 24.1084C68.241 24.1084 68.3583 24.0827 68.439 24.0314C68.5196 23.9727 68.5783 23.8517 68.615 23.6684C68.6516 23.485 68.681 23.21 68.703 22.8434C68.791 22.9094 68.9046 22.9754 69.044 23.0414C69.1906 23.1074 69.341 23.166 69.495 23.2174C69.649 23.2687 69.781 23.309 69.891 23.3384C69.8396 23.859 69.7553 24.2624 69.638 24.5484C69.528 24.8344 69.3556 25.0324 69.121 25.1424C68.8936 25.2524 68.5856 25.3074 68.197 25.3074C68.1383 25.3074 68.0466 25.3074 67.922 25.3074C67.7973 25.3074 67.658 25.3074 67.504 25.3074C67.35 25.3074 67.196 25.3074 67.042 25.3074C66.888 25.3074 66.7486 25.3074 66.624 25.3074C66.5066 25.3074 66.4186 25.3074 66.36 25.3074C65.876 25.3074 65.502 25.256 65.238 25.1534C64.9813 25.058 64.8016 24.8967 64.699 24.6694C64.5963 24.4494 64.545 24.1414 64.545 23.7454V21.9414ZM65.634 21.6114L66.514 20.7974C66.7706 20.922 67.0383 21.0687 67.317 21.2374C67.603 21.406 67.8706 21.582 68.12 21.7654C68.3693 21.9487 68.571 22.1247 68.725 22.2934L67.79 23.1954C67.6506 23.034 67.46 22.858 67.218 22.6674C66.976 22.4694 66.7156 22.2787 66.437 22.0954C66.1656 21.912 65.898 21.7507 65.634 21.6114ZM69.462 22.0844L70.639 21.5894C70.8443 21.8607 71.0423 22.1577 71.233 22.4804C71.431 22.7957 71.6033 23.1074 71.75 23.4154C71.904 23.716 72.0176 23.9984 72.091 24.2624L70.804 24.8124C70.7453 24.563 70.6463 24.2807 70.507 23.9654C70.3676 23.65 70.2063 23.331 70.023 23.0084C69.847 22.6784 69.66 22.3704 69.462 22.0844ZM62.994 21.6664L64.193 22.0954C64.105 22.4034 64.0023 22.726 63.885 23.0634C63.775 23.4007 63.6466 23.727 63.5 24.0424C63.3606 24.3504 63.203 24.629 63.027 24.8784L61.839 24.2184C62.0076 23.9984 62.1653 23.749 62.312 23.4704C62.4586 23.1844 62.5906 22.8874 62.708 22.5794C62.8253 22.2714 62.9206 21.967 62.994 21.6664ZM64.182 18.7844V19.7414H69.561V18.7844H64.182ZM64.182 16.7824V17.7174H69.561V16.7824H64.182ZM62.939 15.6494H70.87V20.8854H62.939V15.6494ZM66.261 16.1554H67.537V20.4124H66.261V16.1554ZM73.433 18.2674H83.058V19.3784H73.433V18.2674ZM74.269 16.3204H80.451V17.3984H74.269V16.3204ZM76.832 15.1764H78.13V18.8284H76.832V15.1764ZM81.1 19.8514L81.903 20.7204C81.4116 20.845 80.8653 20.955 80.264 21.0504C79.6626 21.1457 79.0466 21.2264 78.416 21.2924C77.7853 21.3584 77.173 21.406 76.579 21.4354C76.557 21.3107 76.5166 21.1604 76.458 20.9844C76.3993 20.8084 76.3443 20.6617 76.293 20.5444C76.711 20.515 77.14 20.4784 77.58 20.4344C78.0273 20.383 78.4636 20.328 78.889 20.2694C79.3143 20.2107 79.7176 20.1484 80.099 20.0824C80.4803 20.009 80.814 19.932 81.1 19.8514ZM81.54 15.6274L82.618 16.1994C81.892 17.1307 81.0523 17.9887 80.099 18.7734C79.1456 19.558 78.1263 20.262 77.041 20.8854C75.963 21.5014 74.8666 22.033 73.752 22.4804C73.7006 22.385 73.6236 22.275 73.521 22.1504C73.4256 22.0184 73.323 21.89 73.213 21.7654C73.1103 21.6407 73.0186 21.538 72.938 21.4574C74.0746 21.0687 75.1746 20.5847 76.238 20.0054C77.3013 19.4187 78.2876 18.7587 79.197 18.0254C80.1063 17.2847 80.8873 16.4854 81.54 15.6274ZM75.952 19.9284L77.261 20.0714C77.1803 20.4527 77.0886 20.856 76.986 21.2814C76.8833 21.7067 76.7806 22.1174 76.678 22.5134C76.5826 22.9094 76.4873 23.2577 76.392 23.5584L75.083 23.3714C75.1783 23.0707 75.2773 22.7224 75.38 22.3264C75.49 21.9304 75.5926 21.5234 75.688 21.1054C75.7906 20.6874 75.8786 20.295 75.952 19.9284ZM80.583 21.9854H81.925C81.925 21.9854 81.9213 22.0184 81.914 22.0844C81.9066 22.1504 81.8993 22.2274 81.892 22.3154C81.8846 22.396 81.87 22.4694 81.848 22.5354C81.7673 23.034 81.6793 23.4557 81.584 23.8004C81.496 24.1377 81.4006 24.4127 81.298 24.6254C81.1953 24.8454 81.078 25.0104 80.946 25.1204C80.8066 25.2597 80.6526 25.355 80.484 25.4064C80.3153 25.4577 80.1136 25.4907 79.879 25.5054C79.703 25.52 79.4646 25.5274 79.164 25.5274C78.8706 25.5274 78.559 25.52 78.229 25.5054C78.2216 25.322 78.1776 25.1167 78.097 24.8894C78.0236 24.662 77.9283 24.4604 77.811 24.2844C78.1263 24.321 78.438 24.3467 78.746 24.3614C79.0613 24.3687 79.2886 24.3724 79.428 24.3724C79.538 24.3724 79.6296 24.365 79.703 24.3504C79.7763 24.3357 79.846 24.3064 79.912 24.2624C80.044 24.167 80.165 23.9507 80.275 23.6134C80.3923 23.276 80.495 22.7847 80.583 22.1394V21.9854ZM76.161 21.9854H80.891V23.0634H75.842L76.161 21.9854ZM93.277 17.0684C93.233 17.1344 93.167 17.237 93.079 17.3764C92.9983 17.5157 92.936 17.644 92.892 17.7614C92.738 18.106 92.5473 18.491 92.32 18.9164C92.1 19.3417 91.847 19.7707 91.561 20.2034C91.2823 20.6287 90.9853 21.0284 90.67 21.4024C90.2593 21.8644 89.8046 22.3227 89.306 22.7774C88.8146 23.2247 88.294 23.639 87.744 24.0204C87.2013 24.3944 86.644 24.717 86.072 24.9884L84.939 23.8004C85.533 23.573 86.1086 23.287 86.666 22.9424C87.2233 22.5977 87.7403 22.2237 88.217 21.8204C88.6936 21.417 89.1043 21.0247 89.449 20.6434C89.691 20.3647 89.9183 20.0677 90.131 19.7524C90.351 19.437 90.5453 19.1254 90.714 18.8174C90.8826 18.502 91.0073 18.2124 91.088 17.9484C91.0146 17.9484 90.8826 17.9484 90.692 17.9484C90.5013 17.9484 90.2776 17.9484 90.021 17.9484C89.7716 17.9484 89.5076 17.9484 89.229 17.9484C88.9503 17.9484 88.6826 17.9484 88.426 17.9484C88.1766 17.9484 87.9566 17.9484 87.766 17.9484C87.5753 17.9484 87.4396 17.9484 87.359 17.9484C87.205 17.9484 87.0436 17.9557 86.875 17.9704C86.7063 17.9777 86.545 17.9887 86.391 18.0034C86.2443 18.0107 86.1306 18.018 86.05 18.0254V16.4634C86.16 16.4707 86.2956 16.4817 86.457 16.4964C86.6183 16.511 86.7796 16.522 86.941 16.5294C87.1096 16.5367 87.249 16.5404 87.359 16.5404C87.4543 16.5404 87.6046 16.5404 87.81 16.5404C88.0153 16.5404 88.25 16.5404 88.514 16.5404C88.778 16.5404 89.0493 16.5404 89.328 16.5404C89.614 16.5404 89.8853 16.5404 90.142 16.5404C90.406 16.5404 90.6333 16.5404 90.824 16.5404C91.0146 16.5404 91.154 16.5404 91.242 16.5404C91.484 16.5404 91.704 16.5257 91.902 16.4964C92.1073 16.467 92.265 16.434 92.375 16.3974L93.277 17.0684ZM90.813 20.4894C91.099 20.7167 91.4033 20.9807 91.726 21.2814C92.0486 21.582 92.3676 21.8937 92.683 22.2164C92.9983 22.539 93.288 22.8507 93.552 23.1514C93.8233 23.4447 94.0506 23.7014 94.234 23.9214L92.98 25.0104C92.7086 24.6364 92.397 24.2477 92.045 23.8444C91.7003 23.441 91.3336 23.0414 90.945 22.6454C90.5636 22.242 90.175 21.8607 89.779 21.5014L90.813 20.4894ZM98.887 23.4704C98.887 23.331 98.887 23.1037 98.887 22.7884C98.887 22.4657 98.887 22.0954 98.887 21.6774C98.887 21.252 98.887 20.8084 98.887 20.3464C98.887 19.8844 98.887 19.4407 98.887 19.0154C98.887 18.5827 98.887 18.2014 98.887 17.8714C98.887 17.5414 98.887 17.2994 98.887 17.1454C98.887 16.9547 98.876 16.7347 98.854 16.4854C98.8393 16.236 98.8137 16.016 98.777 15.8254H100.493C100.471 16.016 100.449 16.2287 100.427 16.4634C100.405 16.6907 100.394 16.918 100.394 17.1454C100.394 17.3507 100.394 17.6294 100.394 17.9814C100.394 18.3334 100.394 18.7257 100.394 19.1584C100.394 19.5837 100.394 20.02 100.394 20.4674C100.394 20.9074 100.394 21.3327 100.394 21.7434C100.394 22.154 100.394 22.5134 100.394 22.8214C100.394 23.122 100.394 23.3384 100.394 23.4704C100.394 23.573 100.398 23.7197 100.405 23.9104C100.412 24.0937 100.427 24.2844 100.449 24.4824C100.471 24.6804 100.486 24.8564 100.493 25.0104H98.777C98.8063 24.7904 98.832 24.5337 98.854 24.2404C98.876 23.947 98.887 23.6904 98.887 23.4704ZM100.064 18.6744C100.431 18.7697 100.841 18.8944 101.296 19.0484C101.751 19.195 102.209 19.3527 102.671 19.5214C103.133 19.69 103.566 19.8587 103.969 20.0274C104.38 20.1887 104.721 20.339 104.992 20.4784L104.365 21.9964C104.057 21.835 103.716 21.6737 103.342 21.5124C102.968 21.3437 102.587 21.1824 102.198 21.0284C101.817 20.8744 101.439 20.7314 101.065 20.5994C100.698 20.4674 100.365 20.35 100.064 20.2474V18.6744ZM112.318 17.9924C112.369 18.1097 112.435 18.2784 112.516 18.4984C112.604 18.711 112.696 18.942 112.791 19.1914C112.886 19.4334 112.971 19.6644 113.044 19.8844C113.117 20.1044 113.176 20.2767 113.22 20.4014L111.9 20.8634C111.871 20.724 111.819 20.548 111.746 20.3354C111.673 20.1227 111.592 19.899 111.504 19.6644C111.416 19.4224 111.328 19.1914 111.24 18.9714C111.152 18.7514 111.075 18.568 111.009 18.4214L112.318 17.9924ZM116.377 18.7954C116.318 18.9714 116.267 19.1217 116.223 19.2464C116.186 19.371 116.15 19.4884 116.113 19.5984C115.974 20.1557 115.783 20.713 115.541 21.2704C115.299 21.8204 114.991 22.3374 114.617 22.8214C114.104 23.4814 113.521 24.0424 112.868 24.5044C112.223 24.959 111.577 25.3074 110.932 25.5494L109.777 24.3724C110.18 24.2624 110.606 24.101 111.053 23.8884C111.5 23.6684 111.933 23.4044 112.351 23.0964C112.769 22.7884 113.128 22.4474 113.429 22.0734C113.678 21.758 113.898 21.3987 114.089 20.9954C114.287 20.5847 114.448 20.1484 114.573 19.6864C114.705 19.217 114.793 18.755 114.837 18.3004L116.377 18.7954ZM109.766 18.5754C109.839 18.7147 109.92 18.8944 110.008 19.1144C110.103 19.3344 110.199 19.5654 110.294 19.8074C110.389 20.0494 110.481 20.284 110.569 20.5114C110.664 20.7387 110.738 20.9294 110.789 21.0834L109.447 21.5894C109.403 21.4427 109.337 21.252 109.249 21.0174C109.168 20.7827 109.077 20.537 108.974 20.2804C108.871 20.0164 108.772 19.7744 108.677 19.5544C108.589 19.3344 108.512 19.1657 108.446 19.0484L109.766 18.5754ZM126.937 16.4634C126.937 16.6394 126.999 16.7897 127.124 16.9144C127.249 17.0317 127.395 17.0904 127.564 17.0904C127.74 17.0904 127.89 17.0317 128.015 16.9144C128.14 16.7897 128.202 16.6394 128.202 16.4634C128.202 16.2874 128.14 16.137 128.015 16.0124C127.89 15.8877 127.74 15.8254 127.564 15.8254C127.395 15.8254 127.249 15.8877 127.124 16.0124C126.999 16.137 126.937 16.2874 126.937 16.4634ZM126.255 16.4634C126.255 16.2214 126.314 16.0014 126.431 15.8034C126.556 15.598 126.717 15.4367 126.915 15.3194C127.113 15.202 127.329 15.1434 127.564 15.1434C127.806 15.1434 128.026 15.202 128.224 15.3194C128.429 15.4367 128.591 15.598 128.708 15.8034C128.825 16.0014 128.884 16.2214 128.884 16.4634C128.884 16.698 128.825 16.9144 128.708 17.1124C128.591 17.3104 128.429 17.4717 128.224 17.5964C128.026 17.7137 127.806 17.7724 127.564 17.7724C127.329 17.7724 127.113 17.7137 126.915 17.5964C126.717 17.4717 126.556 17.3104 126.431 17.1124C126.314 16.9144 126.255 16.698 126.255 16.4634ZM127.586 17.3324C127.535 17.435 127.491 17.5597 127.454 17.7064C127.417 17.8457 127.381 17.974 127.344 18.0914C127.285 18.3627 127.208 18.667 127.113 19.0044C127.018 19.3344 126.904 19.679 126.772 20.0384C126.64 20.3977 126.482 20.7534 126.299 21.1054C126.123 21.4574 125.921 21.7874 125.694 22.0954C125.364 22.5354 124.979 22.946 124.539 23.3274C124.099 23.7087 123.608 24.0534 123.065 24.3614C122.522 24.6694 121.925 24.9297 121.272 25.1424L120.073 23.8224C120.806 23.6464 121.437 23.43 121.965 23.1734C122.493 22.9167 122.951 22.6234 123.34 22.2934C123.736 21.9634 124.084 21.6114 124.385 21.2374C124.627 20.9294 124.832 20.5957 125.001 20.2364C125.177 19.877 125.32 19.5177 125.43 19.1584C125.547 18.7917 125.628 18.4507 125.672 18.1354C125.562 18.1354 125.379 18.1354 125.122 18.1354C124.873 18.1354 124.576 18.1354 124.231 18.1354C123.894 18.1354 123.538 18.1354 123.164 18.1354C122.797 18.1354 122.442 18.1354 122.097 18.1354C121.752 18.1354 121.441 18.1354 121.162 18.1354C120.891 18.1354 120.689 18.1354 120.557 18.1354C120.3 18.1354 120.051 18.139 119.809 18.1464C119.574 18.1537 119.387 18.1647 119.248 18.1794V16.6284C119.358 16.643 119.49 16.6577 119.644 16.6724C119.805 16.687 119.967 16.698 120.128 16.7054C120.297 16.7127 120.44 16.7164 120.557 16.7164C120.674 16.7164 120.839 16.7164 121.052 16.7164C121.272 16.7164 121.525 16.7164 121.811 16.7164C122.097 16.7164 122.394 16.7164 122.702 16.7164C123.017 16.7164 123.329 16.7164 123.637 16.7164C123.952 16.7164 124.246 16.7164 124.517 16.7164C124.788 16.7164 125.023 16.7164 125.221 16.7164C125.419 16.7164 125.562 16.7164 125.65 16.7164C125.76 16.7164 125.892 16.7127 126.046 16.7054C126.207 16.698 126.361 16.6724 126.508 16.6284L127.586 17.3324ZM134.362 21.6994L134.065 17.9374L134.01 16.2984H135.836L135.781 17.9374L135.484 21.6994H134.362ZM134.923 24.6254C134.644 24.6254 134.413 24.5337 134.23 24.3504C134.047 24.167 133.955 23.936 133.955 23.6574C133.955 23.3714 134.047 23.1367 134.23 22.9534C134.413 22.77 134.644 22.6784 134.923 22.6784C135.202 22.6784 135.433 22.77 135.616 22.9534C135.799 23.1367 135.891 23.3714 135.891 23.6574C135.891 23.936 135.799 24.167 135.616 24.3504C135.433 24.5337 135.202 24.6254 134.923 24.6254Z" fill="#222222"/>
<path d="M0.432983 6.52637L8.93298 21.249" stroke="black"/>
<path d="M198.933 6.52637L190.433 21.249" stroke="black"/>
</svg>
