<svg width="555" height="120" viewBox="0 0 555 120" fill="none" xmlns="http://www.w3.org/2000/svg">
<path d="M210.019 20.7734L211.985 18.2851C211.985 18.2851 214.197 19.9747 215.549 21.1728C215.487 21.5107 215.149 21.6643 214.688 21.6643H203.015V31.7098C203.015 33.9216 202.431 35.2426 198.222 35.6112C198.069 34.6589 197.854 33.9523 197.178 33.4915C196.533 33 195.55 32.6314 193.522 32.3549V31.8941C193.522 31.8941 198.222 32.2013 199.113 32.2013C199.758 32.2013 199.943 32.017 199.943 31.4947V21.6643H187.563L187.286 20.7734H199.943V15.5203L202.493 15.7661C204.366 14.3222 206.394 12.2947 207.746 10.7587H190.696L190.42 9.86784H208.114L209.988 8.1168L213.06 10.8509C212.814 11.0966 212.446 11.1888 211.739 11.2195C209.589 12.6941 206.486 14.568 203.537 15.8582L204.059 15.9197C203.998 16.3805 203.691 16.6262 203.015 16.7491V20.7734H210.019ZM235.148 14.2608L235.363 13.8614C236.346 13.9229 237.268 14.015 237.943 14.353C239.111 14.9674 240.155 16.2883 240.155 17.1485C240.155 17.8243 239.51 18.1315 238.128 18.623C235.977 19.2989 232.475 20.8349 230.11 22.2173C227.499 23.7533 224.703 26.088 224.703 28.607C224.703 30.4502 226.454 31.5869 230.632 31.5869C234.933 31.5869 237.298 30.696 238.036 30.696C239.572 30.696 240.893 31.0339 240.893 32.2934C240.893 32.8464 240.34 33.3994 239.602 33.6758C238.373 34.0752 235.578 34.4746 231.738 34.4746C226.393 34.4746 222.829 32.6928 222.829 29.2214C222.829 25.7501 226.178 22.7088 228.389 21.0499C227.529 20.497 226.976 19.6675 226.577 18.7459C225.932 17.2406 225.502 14.4451 225.225 12.4176C225.133 11.8032 224.918 11.4653 224.304 11.1274C223.812 10.8816 223.106 10.6666 222.553 10.513L222.522 9.96C223.351 9.68352 224.058 9.46848 224.826 9.46848C226.608 9.46848 228.389 10.728 228.389 11.6189C228.42 12.2026 228.174 12.7248 228.205 13.4928C228.205 14.6909 228.42 16.5955 228.789 17.7014C229.127 18.623 229.618 19.2989 230.356 19.7904C232.567 18.4387 235.301 16.9949 236.192 16.4726C236.592 16.2269 236.684 15.9811 236.53 15.5818C236.285 15.0288 235.701 14.5987 235.148 14.2608ZM238.066 10.7587L238.435 10.2979C240.063 10.8509 241.384 11.4653 242.275 12.264C242.981 12.9398 243.197 13.4621 243.197 14.0765C243.197 14.6602 242.797 15.0595 242.213 15.0288C241.722 15.0288 241.384 14.4758 240.8 13.7386C240.217 12.9091 239.449 11.8646 238.066 10.7587ZM240.831 8.82336L241.138 8.36256C242.797 8.79264 244.118 9.3456 244.948 9.96C245.716 10.6051 246.023 11.1888 246.023 11.8646C246.023 12.479 245.685 12.8477 245.101 12.8477C244.579 12.8477 244.241 12.2333 243.596 11.496C242.981 10.7587 242.336 9.96 240.831 8.82336ZM254.655 21.1114C254.655 22.0637 255.761 22.8624 258.219 23.231C258.526 21.4186 258.894 19.5446 259.232 18.0701C257.236 18.193 254.655 19.729 254.655 21.1114ZM265.161 19.6675L265.53 19.2067C270.507 21.3571 272.78 24.3677 272.78 27.9312C272.78 31.0339 270.292 34.751 264.393 34.751C259.877 34.751 257.666 32.1091 257.666 28.2998C257.666 27.5933 257.727 26.7331 257.85 25.7808C254.962 25.0435 253.334 23.4461 253.334 21.6336C253.334 19.9133 254.993 18.1622 257.205 16.9949C256.437 16.7491 255.822 16.5034 255.085 15.9811C254.071 15.2438 253.488 14.353 253.15 12.5405L253.611 12.2947C254.348 13.3392 255.147 14.2301 256.468 14.7216C257.666 15.1517 258.833 15.336 259.908 15.4282C260.43 13.4314 260.83 11.9261 260.891 11.1888C260.922 10.4822 260.645 10.2058 260.123 9.89856C259.693 9.68352 259.14 9.4992 258.649 9.37632L258.679 8.79264C259.263 8.63904 259.877 8.51616 260.645 8.51616C262.366 8.51616 264.424 10.2672 264.424 11.2195C264.424 11.8954 263.933 12.2026 263.564 12.9091C263.195 13.585 262.827 14.353 262.397 15.551L262.796 15.5818C264.117 15.7354 264.608 16.4726 264.608 17.1485C264.608 17.8858 264.086 18.1315 263.257 18.193C262.796 18.2237 262.151 18.2237 261.475 18.1622C260.983 19.6368 260.4 21.5414 259.97 23.3846C261.352 23.4461 262.489 23.3846 263.165 23.4461C264.117 23.5075 264.731 23.9069 264.731 24.767C264.731 25.535 264.148 25.9958 262.919 26.1494C262.059 26.2416 260.799 26.2416 259.447 26.088C259.325 26.8253 259.263 27.5318 259.263 28.1462C259.263 31.0954 261.106 32.4163 263.963 32.4163C267.65 32.4163 269.892 29.9894 269.892 27.1939C269.892 23.7533 267.895 21.7565 265.161 19.6675ZM292.656 15.4896C292.656 14.4451 292.256 13.5542 291.765 12.7555C289.707 13.247 287.679 14.353 286.174 15.9197C284.331 17.855 283.255 20.1283 283.255 22.7088C283.255 25.3814 284.423 27.624 285.682 27.624C287.556 27.624 290.321 23.1389 291.396 20.6813C292.133 19.0224 292.656 16.9949 292.656 15.4896ZM292.287 33.3686L292.164 32.7235C299.813 31.1261 303.039 27.0096 303.039 21.5722C303.039 16.0118 299.23 12.4483 294.192 12.4483C293.823 12.4483 293.424 12.479 293.024 12.5098C293.885 13.4928 294.775 14.8138 294.775 16.1654C294.775 17.6707 294.437 19.5754 293.762 21.3878C292.441 25.1971 288.939 30.9418 285.467 30.9418C283.163 30.9418 280.951 27.409 280.951 23.4768C280.951 20.5277 282.365 17.0563 285.283 14.568C287.771 12.3869 290.905 11.3117 294.468 11.3117C301.196 11.3117 306.173 15.889 306.173 22.2787C306.173 27.7776 302.455 32.8464 292.287 33.3686ZM318.245 32.2627H330.38V25.0435H318.245V32.2627ZM330.073 24.1526L331.578 22.463L334.773 24.9206C334.558 25.1664 334.097 25.4429 333.452 25.5965V34.536C333.421 34.751 331.885 35.304 330.902 35.304H330.38V33.1536H318.245V34.6282C318.245 34.9046 316.894 35.5805 315.634 35.5805H315.204V22.801L318.43 24.1526H330.073ZM326.663 18.5923L328.445 16.319C328.445 16.319 330.441 17.855 331.67 18.9917C331.578 19.3296 331.271 19.4832 330.841 19.4832H317.324L317.078 18.5923H326.663ZM322.423 6.91872L327.062 8.08608C326.939 8.45472 326.54 8.63904 325.649 8.70048C328.414 12.5098 333.728 15.1517 338.766 16.8413L338.736 17.3021C337.415 17.64 336.585 18.8074 336.34 19.8826C331.486 17.5171 327.154 13.7386 325.127 9.06912C322.239 13.6464 316.064 18.5616 310.043 21.0806L309.828 20.6506C315.112 17.5786 320.98 11.3424 322.423 6.91872ZM364.448 11.8339H345.494C345.525 13.9229 344.634 15.3053 343.62 15.9504C342.668 16.5648 341.285 16.4112 340.886 15.3974C340.548 14.4451 341.132 13.6464 341.961 13.247C343.221 12.6019 344.573 10.943 344.542 9.00768H345.003C345.218 9.71424 345.371 10.3594 345.433 10.943H353.389V6.888L357.506 7.25664C357.475 7.68672 357.198 7.99392 356.4 8.1168V10.943H364.51L366.107 9.31488L368.903 12.0182C368.688 12.264 368.319 12.3254 367.735 12.3562C366.599 13.247 364.541 14.3222 363.097 14.9059L362.759 14.6909C363.312 13.9229 363.957 12.7862 364.448 11.8339ZM347.614 13.2163L351.454 14.6602C351.3 14.9981 350.901 15.2438 350.256 15.1824C349.396 16.7491 348.443 18.1622 347.429 19.4832L348.597 19.9133C348.505 20.1898 348.197 20.3741 347.645 20.4662V34.8125C347.614 35.0275 346.416 35.6112 345.371 35.6112H344.849V22.3709C343.589 23.5997 342.299 24.6134 340.948 25.4736L340.579 25.1357C343.129 22.4323 345.955 17.9165 347.614 13.2163ZM363.465 21.3264H354.894V26.1802H363.465V21.3264ZM354.894 32.2934H363.465V27.0403H354.894V32.2934ZM364.418 15.9197L366.015 14.015C366.015 14.015 367.828 15.3053 368.964 16.2883C368.903 16.6262 368.565 16.7798 368.135 16.7798H360.578C359.933 17.9472 359.072 19.3296 358.274 20.4355H363.158L364.571 18.8381L367.613 21.2035C367.428 21.4493 366.967 21.695 366.322 21.8486V34.5667C366.292 34.8125 364.878 35.3962 363.895 35.3962H363.465V33.1843H354.894V34.6589C354.894 34.9354 353.696 35.6112 352.498 35.6112H352.037V19.176L355.017 20.4355H356.707C356.922 19.2682 357.106 17.8858 357.229 16.7798H350.594L350.348 15.9197H364.418ZM372.067 13.4928L372.528 13.3392C373.019 14.1379 373.757 14.9059 374.494 14.9059C376.245 14.9059 381.344 13.4621 386.598 12.2333C389.977 11.4038 392.834 10.7894 393.847 10.7894C394.708 10.7894 395.598 10.9123 396.274 11.2195C397.012 11.5574 397.503 12.0182 397.503 12.6941C397.503 13.3085 396.95 13.8 396.121 13.8C395.383 13.8 394.431 13.7078 393.417 13.7078C392.004 13.7078 390.007 13.8614 388.41 14.9366C387.181 15.7354 384.386 18.408 384.386 23.999C384.386 27.4704 385.86 28.7299 387.028 29.4058C388.871 30.4195 391.482 30.2659 392.496 30.2659C393.417 30.2659 394.615 31.0646 394.615 32.0477C394.615 33.1843 393.387 33.4915 391.974 33.4915C389.854 33.4915 387.273 33.2765 385.277 31.8941C383.249 30.5117 382.02 28.5149 382.02 24.7978C382.02 20.7427 383.679 16.8106 387.15 14.2915C387.396 14.1072 387.365 13.9229 387.028 14.015C383.495 14.8445 379.194 16.319 377.351 17.3021C376.706 17.64 376.091 18.2544 375.323 18.2544C374.002 18.2544 372.159 16.5034 371.975 15.2131C371.883 14.5987 372.005 13.9843 372.067 13.4928ZM394.032 16.0426L394.37 15.551C396.029 16.0118 397.35 16.5648 398.148 17.1792C398.947 17.8243 399.254 18.408 399.254 19.0838C399.254 19.6982 398.916 20.0362 398.363 20.0362C397.81 20.0362 397.472 19.4832 396.858 18.7152C396.244 17.9779 395.537 17.1485 394.032 16.0426ZM391.267 18.0394L391.636 17.5786C393.264 18.1315 394.615 18.7766 395.476 19.5754C396.151 20.2205 396.428 20.7734 396.397 21.3571C396.397 21.9408 396.029 22.3402 395.445 22.3402C394.984 22.3402 394.615 21.7872 394.062 21.0192C393.448 20.2205 392.649 19.176 391.267 18.0394ZM406.842 11.8954C407.549 12.6941 408.255 13.5235 409.392 13.5235C411.542 13.5235 420.144 12.6326 421.71 12.2947C422.786 12.049 423.154 11.4653 423.892 11.4653C425.09 11.4653 427.793 13.7078 427.793 14.6909C427.793 15.5818 426.595 16.1654 426.134 17.1485C422.632 24.7056 417.072 30.481 407.487 33.7987L407.088 33.1536C415.659 28.7299 421.557 21.5414 423.246 14.5987C423.339 14.2608 423.185 14.1686 422.909 14.1686C421.158 14.1686 413.539 15.4896 411.788 15.9504C411.051 16.1654 410.283 16.8106 409.638 16.8106C408.47 16.8106 406.873 15.0288 406.566 14.0458C406.381 13.4314 406.381 12.9091 406.35 12.0797L406.842 11.8954ZM452.89 20.927C452.491 28.2077 448.466 32.5699 441.155 34.9354L440.817 34.321C446.685 31.1568 449.695 27.071 450.125 20.8963C450.31 18.408 450.31 14.9059 450.187 13.0013C450.156 12.3562 450.095 11.9875 449.511 11.6496C449.112 11.4038 448.405 11.2502 447.668 11.0966L447.637 10.5437C448.405 10.0522 449.48 9.52992 450.187 9.52992C451.446 9.52992 453.873 10.943 453.873 11.7418C453.873 12.479 453.289 12.7248 453.228 13.6771C453.136 15.4896 453.013 19.0531 452.89 20.927ZM439.22 12.6634C438.759 12.4176 438.175 12.2026 437.499 12.0182V11.4653C438.175 11.1888 439.005 10.9123 439.65 10.9123C440.909 10.9123 443.336 12.264 443.336 13.247C443.336 13.9536 442.814 14.353 442.722 15.551C442.63 16.872 442.691 22.8624 442.691 24.5827C442.691 26.0266 442.138 26.5488 441.309 26.5488C440.418 26.5488 439.619 25.2586 439.619 23.7533C439.619 22.9546 439.988 21.9408 440.018 19.6368C440.049 18.1622 439.988 15.0288 439.865 13.8307C439.773 13.1549 439.68 12.9091 439.22 12.6634ZM464.103 19.5139L464.656 19.3296C465.455 20.4662 465.977 21.3571 467.482 21.3571C470.523 21.3571 480.415 20.712 482.105 20.5891C484.163 20.4355 485.33 20.1898 486.098 20.1898C487.634 20.1898 489.17 20.9885 489.17 22.0944C489.17 22.8317 488.587 23.231 487.419 23.231C486.252 23.231 485.177 23.1389 483.119 23.1389C480.968 23.1389 473.35 23.5997 471.015 23.8762C468.987 24.0912 468.588 24.6749 467.543 24.6749C466.468 24.6749 464.779 22.8931 464.256 21.6029C464.011 20.9578 464.041 20.1898 464.103 19.5139ZM501.95 21.4186L502.626 21.7258C502.011 23.3846 500.783 26.3952 500.475 27.5318C500.199 28.6378 500.045 29.3443 500.045 29.8358C500.045 30.8496 500.66 31.8634 500.66 32.7235C500.66 33.6144 500.23 34.1059 499.4 34.1059C498.724 34.1059 498.11 33.5837 497.588 32.8464C496.574 31.4333 495.744 28.8528 495.744 25.6579C495.744 22.4938 496.635 19.5446 497.127 17.7014C497.526 16.2269 497.864 15.0288 497.864 13.8307C497.895 12.5405 497.127 11.3424 496.236 10.3594L496.635 9.99072C497.465 10.2365 498.048 10.513 498.663 10.9738C499.492 11.5574 501.028 13.1242 501.028 14.6602C501.028 15.4282 500.598 16.0426 499.861 17.6093C498.878 19.5446 497.711 22.3402 497.711 25.105C497.711 26.3338 497.895 26.9789 498.079 27.3475C498.263 27.7776 498.54 27.8083 498.816 27.3782C499.554 26.2723 501.182 22.9546 501.95 21.4186ZM504.991 24.3062L505.575 24.2141C505.759 24.9514 506.036 25.9958 506.404 26.6717C507.541 28.6685 509.077 29.5901 512.886 29.5901C516.081 29.5901 517.31 29.0064 517.986 29.0064C519.092 29.0064 520.228 29.4672 520.228 30.4195C520.228 32.0477 517.218 32.447 513.685 32.447C508.309 32.447 505.821 30.3274 505.175 26.9482C504.96 26.0266 504.93 25.0742 504.991 24.3062ZM506.097 15.7354L505.851 15.121C508.247 13.3392 511.319 12.6634 513.531 12.6634C515.62 12.6634 516.849 12.8784 517.863 13.4006C518.692 13.8 518.938 14.353 518.938 14.8138C518.938 15.4282 518.631 15.7354 517.924 15.8582C517.064 16.0118 516.112 16.0733 514.975 16.4419C513.593 16.9642 511.504 18.0701 509.906 19.0224L509.446 18.5309C510.797 17.4557 512.64 16.0426 513.193 15.4896C513.531 15.121 513.623 14.8445 511.442 14.8445C510.398 14.8445 508.678 14.9981 506.097 15.7354ZM528.338 35.5498C525.942 35.5498 523.976 33.5837 523.976 31.1875C523.976 28.7914 525.942 26.856 528.338 26.856C530.735 26.856 532.67 28.7914 532.67 31.1875C532.67 33.5837 530.735 35.5498 528.338 35.5498ZM528.338 27.9619C526.526 27.9619 525.082 29.4058 525.082 31.1875C525.082 32.9693 526.526 34.4438 528.338 34.4438C530.12 34.4438 531.564 32.9693 531.564 31.1875C531.564 29.4058 530.12 27.9619 528.338 27.9619ZM202.677 50.8509H197.454C196.441 52.1104 195.243 53.3392 193.952 54.4451H200.649C201.356 53.3699 202.124 51.9568 202.677 50.8509ZM208.36 55.336H192.877C191.372 56.5341 189.744 57.5478 188.054 58.3158L187.808 58.0086C191.188 55.4896 194.475 50.943 196.011 46.9187L200.342 48.0554C200.219 48.3626 199.973 48.5162 199.175 48.4547C198.868 48.9462 198.53 49.4685 198.13 49.96H202.708L204.459 48.2704L207.438 50.9123C207.193 51.1581 206.855 51.2195 206.24 51.2502C205.042 52.2333 203.322 53.5235 201.694 54.4451H208.053L209.497 52.8784L212.538 55.2131C212.354 55.4589 211.893 55.7354 211.278 55.8582V64.4906C211.248 64.7363 209.835 65.3814 208.821 65.3814H208.36V63.9069H191.618L191.341 63.016H208.36V59.5446H192.57L192.293 58.6538H208.36V55.336ZM198.714 65.105L198.99 64.8285C207.162 65.5965 205.595 71.3718 202.677 69.8051C202.124 68.0848 200.281 66.1802 198.714 65.105ZM191.833 66.2109L192.293 66.2416C193.215 70.0202 191.679 72.5699 190.112 73.4608C189.099 74.0752 187.808 73.9523 187.378 73C187.071 72.1091 187.655 71.3411 188.423 70.8803C189.867 70.2352 191.587 68.392 191.833 66.2109ZM208.329 68.607L208.421 72.017C209.312 72.3242 209.558 72.6314 209.558 73.215C209.558 74.4746 208.268 74.9968 202.554 74.9968H198.683C195.611 74.9968 194.966 74.5053 194.966 72.4163V65.5658L198.745 65.9037C198.714 66.303 198.407 66.5488 197.823 66.641V71.8326C197.823 72.2627 197.946 72.3856 199.175 72.3856H202.8C204.274 72.3856 205.534 72.3549 205.964 72.3242C206.425 72.2934 206.578 72.2013 206.793 71.9248C207.07 71.464 207.5 70.2352 207.961 68.607H208.329ZM207.899 66.3338L208.176 66.088C218.037 68.3306 215.917 75.1811 212.753 73.0614C212.169 70.696 209.957 67.9312 207.899 66.3338ZM226.7 61.4186L227.376 61.7258C226.761 63.3846 225.533 66.3952 225.225 67.5318C224.949 68.6378 224.795 69.3443 224.795 69.8358C224.795 70.8496 225.41 71.8634 225.41 72.7235C225.41 73.6144 224.98 74.1059 224.15 74.1059C223.474 74.1059 222.86 73.5837 222.338 72.8464C221.324 71.4333 220.494 68.8528 220.494 65.6579C220.494 62.4938 221.385 59.5446 221.877 57.7014C222.276 56.2269 222.614 55.0288 222.614 53.8307C222.645 52.5405 221.877 51.3424 220.986 50.3594L221.385 49.9907C222.215 50.2365 222.798 50.513 223.413 50.9738C224.242 51.5574 225.778 53.1242 225.778 54.6602C225.778 55.4282 225.348 56.0426 224.611 57.6093C223.628 59.5446 222.461 62.3402 222.461 65.105C222.461 66.3338 222.645 66.9789 222.829 67.3475C223.013 67.7776 223.29 67.8083 223.566 67.3782C224.304 66.2723 225.932 62.9546 226.7 61.4186ZM229.741 64.3062L230.325 64.2141C230.509 64.9514 230.786 65.9958 231.154 66.6717C232.291 68.6685 233.827 69.5901 237.636 69.5901C240.831 69.5901 242.06 69.0064 242.736 69.0064C243.842 69.0064 244.978 69.4672 244.978 70.4195C244.978 72.0477 241.968 72.447 238.435 72.447C233.059 72.447 230.571 70.3274 229.925 66.9482C229.71 66.0266 229.68 65.0742 229.741 64.3062ZM230.847 55.7354L230.601 55.121C232.997 53.3392 236.069 52.6634 238.281 52.6634C240.37 52.6634 241.599 52.8784 242.613 53.4006C243.442 53.8 243.688 54.353 243.688 54.8138C243.688 55.4282 243.381 55.7354 242.674 55.8582C241.814 56.0118 240.862 56.0733 239.725 56.4419C238.343 56.9642 236.254 58.0701 234.656 59.0224L234.196 58.5309C235.547 57.4557 237.39 56.0426 237.943 55.4896C238.281 55.121 238.373 54.8445 236.192 54.8445C235.148 54.8445 233.428 54.9981 230.847 55.7354ZM250.569 47.8096L250.815 47.5638C258.526 48.1475 256.744 53.6771 253.856 52.1104C253.365 50.5744 251.829 48.8234 250.569 47.8096ZM248.327 54.7523L248.573 54.5066C256.007 55.1517 254.01 60.5277 251.245 58.7766C250.877 57.3328 249.525 55.6739 248.327 54.7523ZM257.512 51.5267L258.065 51.6803C256.713 55.7661 254.225 63.3232 253.795 65.0128C253.518 66.0573 253.303 67.1018 253.334 67.9005C253.365 69.4365 254.409 70.6346 254.317 73.2458C254.256 74.6896 253.457 75.5805 252.136 75.5805C251.491 75.5805 250.907 75.1197 250.754 74.0445C251.245 70.911 251.092 68.2691 250.385 67.8083C249.955 67.5011 249.494 67.3782 248.818 67.3168V66.7024H250.201C250.631 66.7024 250.754 66.6717 251.061 66.0573C251.706 64.8899 251.706 64.8899 257.512 51.5267ZM266.574 53.9536V58.408C266.574 59.4832 266.513 60.5277 266.39 61.5414H270.629V53.9536H266.574ZM276.651 62.4016H266.943C268.479 67.5318 272.073 71.249 277.419 72.447L277.388 72.785C276.313 73.1229 275.453 74.1366 275.145 75.6112C269.861 73.3379 267.465 69.2829 266.359 62.4016H266.298C265.469 68.177 262.55 72.9693 254.594 75.6112L254.348 75.1811C260.553 72.0784 262.827 67.6854 263.502 62.4016H256.529L256.283 61.5414H263.595C263.687 60.5277 263.717 59.4832 263.717 58.408V53.9536H258.372L258.096 53.1242H263.717V47.3181L267.65 47.7174C267.557 48.1475 267.312 48.4547 266.574 48.5776V53.1242H270.322L271.766 51.5574L274.746 53.8C274.531 54.0458 274.07 54.2915 273.456 54.4144V61.5414L274.9 59.3296C274.9 59.3296 276.528 60.8656 277.449 61.9408C277.388 62.248 277.081 62.4016 276.651 62.4016ZM288.877 72.232C292.195 72.232 293.424 71.3104 293.424 68.4842C292.502 68.2998 291.519 68.2077 290.505 68.2077C287.771 68.2077 285.928 69.2522 285.928 70.4195C285.928 71.464 287.065 72.232 288.877 72.232ZM290.321 50.0214L290.26 49.4992C290.935 49.1306 291.765 48.7926 292.779 48.7926C294.468 48.7926 296.496 49.6835 296.496 50.6973C296.496 51.3117 296.066 51.6496 295.881 52.4176C295.789 52.817 295.697 53.3085 295.605 53.9229C297.264 53.6157 298.615 53.2778 299.445 53.0013C300.551 52.6634 301.012 52.3254 301.319 52.3254C302.117 52.3254 303.531 52.6634 303.531 53.585C303.531 54.3222 303.008 54.5987 302.24 54.8752C301.134 55.2746 298.554 55.9197 295.359 56.3498C295.298 57.4864 295.236 58.7459 295.236 60.1283C296.557 59.9133 297.817 59.6061 298.923 59.2682C300.121 58.8995 300.612 58.5923 300.889 58.5923C301.902 58.5923 302.916 58.8995 302.916 59.7597C302.916 60.4355 302.455 60.8042 301.81 61.0806C300.766 61.48 298.247 62.033 295.298 62.4016C295.359 64.1526 295.543 65.6272 295.666 66.9482C299.291 67.6547 301.718 69.16 302.64 69.928C303.5 70.6038 304.053 71.3104 304.053 72.1398C304.053 73 303.561 73.4301 302.916 73.4301C302.271 73.4301 301.902 73.0922 301.227 72.5085C299.691 71.0954 297.94 69.928 295.881 69.16C295.912 69.5594 295.912 69.9587 295.912 70.3581C295.912 72.9078 293.731 74.4746 290.198 74.4746C286.911 74.4746 284.546 73.0614 284.546 70.5731C284.546 68.0541 287.71 66.5795 291.703 66.5795C292.287 66.5795 292.84 66.6102 293.393 66.641C293.332 65.4736 293.27 64.0912 293.209 62.6166C292.041 62.7088 290.813 62.7702 289.645 62.7702C285.437 62.7702 283.133 60.4048 286.727 57.3328L287.249 57.6707C285.652 59.9133 286.696 60.6198 289.492 60.6198C290.72 60.6198 291.949 60.5584 293.147 60.4355C293.147 59.9747 293.147 59.5139 293.147 59.0838C293.147 58.2851 293.147 57.4557 293.178 56.6262C291.857 56.7491 290.475 56.8106 289.092 56.8106C286.143 56.8106 284.177 56.0426 282.641 53.1242L283.102 52.7862C284.638 53.9536 285.774 54.6602 288.447 54.6602C290.014 54.6602 291.673 54.5066 293.209 54.3222C293.239 53.0013 293.27 51.9875 293.27 51.6189C293.27 51.0045 293.086 50.7894 292.594 50.5744C291.949 50.3286 291.304 50.2058 290.321 50.0214ZM313.945 62.0944L314.283 61.9408C314.621 62.3709 315.235 62.8317 315.819 62.8317C316.187 62.8317 316.525 62.7395 317.324 62.3709C320.027 61.1728 323.56 58.9302 327.369 58.9302C331.639 58.9302 334.22 61.8179 334.22 64.8592C334.22 68.0234 332.377 69.8973 329.981 71.1261C327.523 72.447 323.468 72.785 320.027 72.5392L319.966 71.9555C326.048 71.3718 331.486 69.1907 331.486 64.4598C331.486 62.1558 329.981 60.2512 327.308 60.2512C324.236 60.2512 321.072 63.1696 319.689 64.1834C318.215 65.2586 317.662 65.8115 316.894 65.8115C315.911 65.8115 314.528 64.767 314.16 63.8147C313.914 63.2618 313.945 62.6166 313.945 62.0944ZM355.724 60.0362L355.54 59.4832C357.076 58.5923 359.38 57.855 361.684 57.855C363.711 57.855 365.063 58.2851 365.739 58.6538C366.568 59.1453 366.967 59.7597 366.967 60.3434C366.967 61.0499 366.414 61.3878 365.309 61.4493C364.756 61.4493 364.203 61.5414 363.404 61.7872C362.237 62.033 360.854 62.5859 359.779 63.016L359.441 62.5552C360.424 61.9408 362.021 60.7734 362.359 60.4048C362.574 60.2205 362.482 60.0669 362.237 59.9747C361.53 59.729 360.455 59.6061 359.564 59.6061C358.427 59.6061 357.106 59.7904 355.724 60.0362ZM353.021 53.4006L352.683 54.5987C354.157 54.1072 355.263 53.585 356.154 53.1242C356.707 52.7862 357.106 52.5405 357.383 52.5405C358.059 52.5405 359.257 52.9091 359.257 53.8307C359.257 54.568 358.734 54.9981 356.953 55.6432C356.154 55.9811 354.004 56.6877 351.945 57.1792C351.546 58.5616 351.085 60.0976 350.594 61.5107C349.334 65.2586 347.399 70.5424 346.139 72.7235C345.648 73.6144 345.248 74.1366 344.327 74.1366C343.559 74.1366 343.006 73.2765 343.006 72.2934C343.006 71.2797 343.559 70.8803 344.235 69.713C345.556 67.6547 347.153 64.7363 348.566 60.6813C348.873 59.7904 349.211 58.7459 349.488 57.7014C348.505 57.855 347.429 57.9779 346.569 57.9779C344.45 57.9779 343.006 57.3635 342.023 54.4144L342.453 54.1072C343.927 55.2438 344.818 55.6739 346.201 55.7046C347.552 55.7354 348.935 55.5203 350.071 55.3053C350.44 53.7693 350.686 52.3869 350.747 51.5267C350.778 50.7894 350.655 50.5437 350.133 50.2058C349.611 49.8986 348.965 49.6835 348.29 49.4685L348.32 48.9155C349.058 48.639 349.764 48.4854 350.594 48.5162C352.13 48.5469 354.096 49.407 354.096 50.2058C354.096 50.8816 353.573 51.5574 353.021 53.4006ZM353.543 66.0266L354.157 65.9651C354.28 66.7946 354.526 67.9005 355.14 68.7914C356.277 70.5117 358.089 71.1261 360.639 71.1261C363.527 71.1261 364.602 70.5424 365.339 70.5424C366.322 70.5424 367.49 71.0032 367.49 72.0477C367.49 72.785 366.722 73.2458 365.616 73.4915C364.663 73.7066 363.312 73.8909 361.346 73.8909C357.137 73.8909 354.372 72.3549 353.789 69.2214C353.451 68.1462 353.481 66.9789 353.543 66.0266ZM204.981 90.6051L208.022 93.4621C207.776 93.7693 207.438 93.8614 206.67 93.9536C206.333 95.3974 205.933 96.7798 205.503 98.1315C206.363 103.968 209.128 109.129 216.163 112.386L216.132 112.754C214.627 113 213.736 113.86 213.429 115.611C207.715 111.956 205.749 105.504 205.042 99.3603C202.247 106.641 197.209 112.601 187.102 115.673L186.825 115.243C196.594 110.85 201.509 102.862 203.414 93.3085H197.086C194.813 98.2851 191.71 101.91 187.808 104.398L187.47 104.122C191.065 100.22 194.229 93.9843 195.581 86.9802L200.004 88.2397C199.881 88.6083 199.513 88.8848 198.775 88.8848C198.376 90.1443 197.946 91.281 197.454 92.4176H203.199L204.981 90.6051ZM231.031 98.3466H231.308C232.352 98.3466 235.854 98.0394 236.837 97.8858C237.728 97.7629 238.097 97.0256 238.65 97.0256C239.664 97.0256 242.091 99.2682 242.091 100.251C242.091 101.019 240.739 101.296 240.186 101.879C238.558 103.508 236.684 105.596 234.38 107.747C235.394 108.453 236.162 109.16 236.684 109.744C237.36 110.481 238.128 111.525 238.128 112.386C238.128 113.307 237.698 114.167 236.622 114.167C235.609 114.167 235.271 113.522 234.656 112.478C232.813 109.344 230.571 107.348 227.468 105.013L227.867 104.46C229.987 105.136 231.738 105.996 233.12 106.887C235.148 104.398 236.776 101.91 237.667 100.128C237.882 99.729 237.728 99.5754 237.329 99.5754C236.254 99.6061 233.52 99.944 232.475 100.098C231.83 100.22 231.492 100.405 231.093 100.405C230.847 100.405 230.417 100.098 229.987 99.6982C229.434 100.436 228.82 101.173 228.205 101.849C226.208 104.153 223.659 106.856 220.648 108.791L220.095 108.238C222.43 105.842 224.611 103.231 226.393 100.712C227.99 98.4387 229.68 95.3974 230.356 93.6157C230.54 93.1549 230.509 92.8784 230.079 92.479C229.618 92.0182 228.942 91.6803 228.236 91.3424L228.451 90.7894C229.895 90.7587 231.001 90.8509 232.014 91.4038C232.997 91.8954 234.349 93.0627 234.349 93.7693C234.349 94.4758 233.581 94.6294 233.028 95.4589C232.506 96.2576 231.83 97.2714 231.031 98.3466ZM261.936 95.4896C261.936 94.4451 261.536 93.5542 261.045 92.7555C258.987 93.247 256.959 94.353 255.454 95.9197C253.611 97.855 252.535 100.128 252.535 102.709C252.535 105.381 253.703 107.624 254.962 107.624C256.836 107.624 259.601 103.139 260.676 100.681C261.413 99.0224 261.936 96.9949 261.936 95.4896ZM261.567 113.369L261.444 112.724C269.093 111.126 272.319 107.01 272.319 101.572C272.319 96.0118 268.51 92.4483 263.472 92.4483C263.103 92.4483 262.704 92.479 262.304 92.5098C263.165 93.4928 264.055 94.8138 264.055 96.1654C264.055 97.6707 263.717 99.5754 263.042 101.388C261.721 105.197 258.219 110.942 254.747 110.942C252.443 110.942 250.231 107.409 250.231 103.477C250.231 100.528 251.645 97.0563 254.563 94.568C257.051 92.3869 260.185 91.3117 263.748 91.3117C270.476 91.3117 275.453 95.889 275.453 102.279C275.453 107.778 271.735 112.846 261.567 113.369ZM305.22 98.3773L308.384 100.651C308.2 100.927 307.709 101.111 307.094 100.866C305.865 101.818 303.469 103.385 301.288 104.46C302.855 108.054 305.159 110.88 308.2 112.324L308.139 112.662C307.033 112.939 306.173 113.922 305.742 115.427C301.565 112.109 299.875 106.795 299.045 98.8995C298.462 99.2374 297.878 99.5754 297.264 99.8826V114.874C297.264 115.058 296.342 115.611 294.96 115.611H294.468V101.204C293.27 101.695 292.072 102.125 290.874 102.463C290.628 109.652 290.014 112.877 288.785 114.075C287.894 114.966 286.727 115.304 285.375 115.304C285.375 114.475 285.283 113.799 284.914 113.399C284.546 112.969 283.655 112.662 282.641 112.447V111.986C283.624 112.078 285.191 112.171 285.774 112.171C286.266 112.171 286.512 112.109 286.788 111.863C287.648 111.034 288.109 107.01 288.324 99.2067H285.559C285.191 105.381 283.993 111.157 279.293 115.55L278.832 115.12C282.887 108.976 282.795 101.419 282.825 94.1072H279.477L279.231 93.247H284.238V87.2874L288.171 87.6253C288.109 88.0246 287.863 88.3011 287.157 88.424V93.247H288.509L290.198 90.9123C290.198 90.9123 292.041 92.479 293.209 93.5542C294.1 91.6189 294.868 89.4378 295.359 87.1645L299.414 88.5162C299.291 88.8848 298.892 89.1306 298.216 89.0998C297.725 90.2979 297.141 91.4038 296.496 92.4176H303.162L304.852 90.175C304.852 90.175 306.787 91.711 307.924 92.817C307.831 93.1549 307.524 93.3085 307.063 93.3085H295.912C294.499 95.3053 292.871 96.9027 291.089 98.0701L290.69 97.7936C291.519 96.7491 292.318 95.4282 293.024 93.9536C292.871 94.0765 292.686 94.1072 292.441 94.1072H285.744C285.713 95.5203 285.682 96.9334 285.621 98.3158H288.017L289.461 96.8106L292.226 99.0838C292.011 99.3296 291.642 99.5446 290.966 99.6061C290.935 100.405 290.935 101.204 290.905 101.91C294.714 99.944 298.861 96.5341 300.858 93.6771L304.145 95.7046C303.961 95.9811 303.623 96.0426 303.07 95.889C302.148 96.7798 300.919 97.7322 299.537 98.5923C299.875 100.436 300.397 102.217 301.042 103.845C302.609 102.094 304.421 99.729 305.22 98.3773ZM336.739 90.943H322.546L322.301 90.0829H332.837L334.496 87.9325C334.496 87.9325 336.432 89.407 337.538 90.4515C337.476 90.7894 337.169 90.943 336.739 90.943ZM317.293 87.1645L320.826 89.2842C320.642 89.5914 320.334 89.7142 319.659 89.5914C317.6 91.711 314.129 94.4451 310.565 96.1962L310.258 95.8275C312.992 93.4006 315.911 89.6528 317.293 87.1645ZM317.6 93.4314L321.317 95.551C321.164 95.8582 320.857 96.0118 320.089 95.889C319.351 96.8413 318.43 97.8858 317.385 98.9917L318.553 99.4218C318.43 99.6982 318.153 99.9133 317.6 100.005V114.812C317.57 115.058 316.341 115.642 315.235 115.642H314.682V101.572C313.207 102.862 311.579 104.091 309.92 105.105L309.582 104.767C312.808 101.572 316.034 96.6877 317.6 93.4314ZM333.913 97.1485L335.633 94.9366C335.633 94.9366 337.568 96.4726 338.766 97.5478C338.674 97.855 338.336 98.0086 337.906 98.0086H333.175V111.556C333.175 113.676 332.592 115.15 328.567 115.427C328.506 114.536 328.229 113.768 327.646 113.338C327.001 112.877 326.048 112.508 324.082 112.232V111.802C324.082 111.802 328.537 112.109 329.366 112.109C330.011 112.109 330.196 111.894 330.196 111.464V98.0086H320.857L320.611 97.1485H333.913ZM340.702 108.023L341.009 107.593C344.972 108.484 347.061 109.989 348.167 111.587C348.689 112.355 348.843 113 348.843 113.645C348.843 114.72 348.167 115.427 347.153 115.427C346.385 115.427 345.863 115.028 345.402 114.075C344.511 112.201 343.467 110.112 340.702 108.023ZM377.535 87.0723L381.744 88.3626C381.59 88.7312 381.221 89.0077 380.546 88.977C379.624 91.3731 378.58 93.585 377.381 95.6125L378.917 96.1962C378.825 96.5034 378.549 96.6877 377.996 96.7798V114.72C377.934 114.966 376.767 115.611 375.6 115.611H375.077V99.0224C373.91 100.528 372.651 101.879 371.299 103.016L370.9 102.74C373.48 98.961 376.153 93.0013 377.535 87.0723ZM384.017 105.105H388.072V97.1792H384.017V105.105ZM390.775 97.7014V107.44C390.714 107.593 389.424 108.146 388.502 108.146H388.072V105.996H384.017V107.839C384.017 108.116 382.88 108.73 381.744 108.73H381.314V95.0902L384.14 96.2883H387.734L389.147 94.7216L392.158 97.0563C391.943 97.3021 391.451 97.5786 390.775 97.7014ZM395.168 90.8202L397.012 88.3626C397.012 88.3626 399.101 90.0214 400.36 91.2195C400.268 91.5574 399.961 91.711 399.5 91.711H397.165V111.74C397.165 113.829 396.612 115.335 392.742 115.611C392.68 114.72 392.434 113.983 391.912 113.522C391.328 113.061 390.468 112.724 388.717 112.478V112.048C388.717 112.048 392.588 112.293 393.387 112.293C394.001 112.293 394.185 112.078 394.185 111.618V91.711H380.699L380.453 90.8202H395.168ZM423.492 102.924H412.832V105.535H423.492V102.924ZM412.832 112.662H423.492V109.959H412.832V112.662ZM412.832 106.395V109.068H423.492V106.395H412.832ZM425.458 98.7766L427.179 96.5341C427.179 96.5341 429.175 98.0701 430.343 99.176C430.251 99.5139 429.943 99.6675 429.483 99.6675H413.416C413.17 100.405 412.863 101.142 412.525 101.849L413.017 102.064H423.185L424.66 100.405L427.762 102.801C427.547 103.047 427.056 103.354 426.411 103.477V114.751C426.38 114.966 424.936 115.519 423.984 115.519H423.492V113.553H412.832V114.69C412.832 114.997 411.604 115.642 410.344 115.642H409.914V106.149C407.917 108.791 405.337 111.003 402.234 112.816L401.896 112.416C405.644 109.191 408.347 104.368 409.791 99.6675H403.002L402.725 98.7766H414.768V95.9811H405.337L405.091 95.0902H414.768V92.4176H404.231L403.985 91.5267H411.327L411.235 91.4653C410.928 89.9907 409.822 88.3626 408.87 87.3488L409.146 87.1645C414.246 87.7482 414.522 90.5744 413.293 91.5267H418.761C419.376 90.175 420.052 88.3626 420.451 87.0416L424.537 88.1475C424.414 88.4854 424.045 88.7619 423.369 88.7312C422.478 89.5606 421.158 90.6358 419.867 91.5267H424.66L426.349 89.3763C426.349 89.3763 428.315 90.8509 429.483 91.9261C429.421 92.264 429.114 92.4176 428.653 92.4176H417.778V95.0902H423.922L425.489 93.1242C425.489 93.1242 427.332 94.4758 428.438 95.4896C428.346 95.8275 428.039 95.9811 427.609 95.9811H417.778V98.7766H425.458ZM446.717 111.894C447.208 111.894 447.669 111.863 448.13 111.833C447.73 109.621 446.379 108.361 444.658 108.361C443.522 108.361 442.754 108.976 442.754 109.928C442.754 111.065 444.105 111.894 446.717 111.894ZM439.927 90.0829L440.419 90.0214C440.88 90.943 441.494 91.8646 442.293 91.8646C443.46 91.8646 446.962 91.0045 448.498 90.513C449.481 90.2058 449.512 89.8064 450.065 89.8064C451.294 89.8064 453.414 91.4653 453.414 92.5712C453.414 93.3085 452.492 93.4928 451.447 94.2915C449.604 95.6125 445.703 99.1453 444.443 100.497C444.167 100.773 444.32 101.019 444.597 100.896C445.795 100.497 447.577 99.8518 449.819 99.8518C453.874 99.8518 457.315 102.463 457.254 106.917C457.223 110.911 453.659 114.167 447.546 114.167C444.013 114.167 441.494 112.662 441.494 110.204C441.494 108.331 443.153 107.04 445.334 107.04C447.454 107.04 449.911 108.331 450.526 111.341C453.321 110.358 454.55 108.331 454.581 106.088C454.642 103.385 452.738 101.05 449.082 101.05C444.812 101.05 441.801 103.968 439.19 107.317C438.576 108.146 438.269 108.361 437.654 108.331C437.101 108.331 436.518 107.655 436.579 106.672C436.61 105.934 437.009 105.381 437.9 104.521C441.678 100.681 447.761 94.9059 449.205 92.7862C449.635 92.2333 449.358 92.049 448.928 92.1104C447.853 92.3254 445.641 93.3085 444.413 93.9229C443.829 94.2301 443.337 94.7216 442.754 94.7216C441.218 94.7216 439.958 92.9398 439.805 91.9568C439.712 91.3424 439.774 90.7587 439.927 90.0829ZM467.606 113.43C466.316 113.43 465.302 112.416 465.302 111.188C465.302 109.959 466.316 108.884 467.606 108.884C468.866 108.884 469.879 109.959 469.879 111.188C469.879 112.416 468.866 113.43 467.606 113.43ZM467.606 89.8371C468.866 89.8371 469.664 90.6051 469.664 92.0797C469.664 93.4928 469.296 96.2576 468.62 100.896L468.067 105.75H467.084L466.531 100.896C465.855 96.2576 465.486 93.4928 465.486 92.0797C465.486 90.6051 466.316 89.8371 467.606 89.8371ZM477.838 108.884C479.129 108.884 480.142 109.959 480.142 111.188C480.142 112.416 479.129 113.43 477.838 113.43C476.579 113.43 475.565 112.416 475.565 111.188C475.565 109.959 476.579 108.884 477.838 108.884ZM482.416 94.353L477.439 93.5542C475.596 93.247 475.104 92.5712 475.104 91.6496C475.104 90.6051 475.688 90.0829 476.825 89.7757C479.804 90.2979 484.689 92.8784 484.689 97.1792C484.689 99.4218 483.583 100.835 481.433 101.695L480.204 102.187C478.76 102.74 478.483 103.047 478.453 104.06L478.422 105.842H477.408L476.978 104.521C476.64 103.292 476.487 102.678 476.487 102.217C476.487 101.05 477.193 100.405 479.129 99.6675L480.941 99.0224C482.477 98.3773 483.122 97.7014 483.122 96.4419C483.122 95.7046 482.846 94.9981 482.416 94.353Z" fill="#00AFA1"/>
<path d="M1.52372 56.2905H20.2889V58.905H1.52372V56.2905ZM12.3612 57.3447C12.7828 58.9472 13.3662 60.4442 14.1112 61.8357C14.8562 63.2273 15.7768 64.4432 16.8732 65.4834C17.9837 66.5235 19.2769 67.3458 20.7528 67.9502C20.5419 68.133 20.317 68.3649 20.0781 68.646C19.8532 68.9272 19.6283 69.2153 19.4034 69.5105C19.1925 69.8197 19.0168 70.0938 18.8763 70.3328C17.2598 69.5738 15.8682 68.5968 14.7015 67.4021C13.5489 66.2073 12.579 64.8157 11.7919 63.2273C11.0047 61.6249 10.3441 59.8608 9.80993 57.9351L12.3612 57.3447ZM9.45149 50.6188H12.2136C12.1995 51.6871 12.1644 52.8186 12.1081 54.0134C12.066 55.1941 11.9605 56.3959 11.7919 57.6188C11.6232 58.8417 11.3491 60.0576 10.9696 61.2665C10.6041 62.4613 10.084 63.6139 9.40932 64.7243C8.74868 65.8207 7.89124 66.8468 6.83702 67.8027C5.79685 68.7585 4.52475 69.6019 3.02072 70.3328C2.82393 69.9954 2.54983 69.623 2.19843 69.2153C1.84702 68.8077 1.48858 68.4703 1.12312 68.2033C2.55686 67.5567 3.75868 66.8117 4.72857 65.9683C5.69845 65.1109 6.48561 64.1902 7.09003 63.2062C7.70851 62.2082 8.17939 61.1751 8.50269 60.1068C8.82599 59.0245 9.04386 57.9351 9.15631 56.8387C9.28282 55.7423 9.36013 54.667 9.38824 53.6128C9.41635 52.5586 9.43744 51.5606 9.45149 50.6188ZM44.0722 53.5495C44.0722 53.8869 44.1847 54.175 44.4096 54.414C44.6485 54.653 44.9367 54.7724 45.274 54.7724C45.6114 54.7724 45.8996 54.653 46.1385 54.414C46.3775 54.175 46.4969 53.8869 46.4969 53.5495C46.4969 53.2122 46.3775 52.924 46.1385 52.6851C45.8996 52.4461 45.6114 52.3266 45.274 52.3266C44.9367 52.3266 44.6485 52.4461 44.4096 52.6851C44.1847 52.924 44.0722 53.2122 44.0722 53.5495ZM42.765 53.5495C42.765 53.0857 42.8774 52.664 43.1023 52.2845C43.3272 51.9049 43.6295 51.6027 44.009 51.3778C44.3885 51.1389 44.8102 51.0194 45.274 51.0194C45.7379 51.0194 46.1596 51.1389 46.5391 51.3778C46.9186 51.6027 47.2208 51.9049 47.4457 52.2845C47.6847 52.664 47.8042 53.0857 47.8042 53.5495C47.8042 54.0134 47.6847 54.4351 47.4457 54.8146C47.2208 55.1941 46.9186 55.5034 46.5391 55.7423C46.1596 55.9672 45.7379 56.0797 45.274 56.0797C44.8102 56.0797 44.3885 55.9672 44.009 55.7423C43.6295 55.5034 43.3272 55.1941 43.1023 54.8146C42.8774 54.4351 42.765 54.0134 42.765 53.5495ZM34.2258 52.3477C34.1695 52.671 34.1274 53.0435 34.0993 53.4652C34.0712 53.8869 34.0571 54.2453 34.0571 54.5405C34.0571 54.7514 34.0571 55.1238 34.0571 55.658C34.0571 56.1781 34.0571 56.7966 34.0571 57.5134C34.0571 58.2303 34.0571 58.9823 34.0571 59.7695C34.0571 60.5426 34.0571 61.2946 34.0571 62.0255C34.0571 62.7424 34.0571 63.3819 34.0571 63.9442C34.0571 64.5064 34.0571 64.9211 34.0571 65.1882C34.0571 65.638 34.1695 65.9472 34.3944 66.1159C34.6193 66.2846 34.9637 66.4181 35.4276 66.5165C35.7509 66.5587 36.1234 66.5938 36.5451 66.6219C36.9668 66.636 37.4095 66.643 37.8734 66.643C38.4216 66.643 39.026 66.629 39.6867 66.6008C40.3614 66.5587 41.0361 66.5095 41.7108 66.4533C42.3995 66.397 43.0461 66.3197 43.6505 66.2213C44.255 66.1229 44.775 66.0175 45.2108 65.9051V68.9834C44.5501 69.0818 43.7841 69.1591 42.9126 69.2153C42.0411 69.2856 41.1485 69.3348 40.2349 69.3629C39.3352 69.4051 38.4919 69.4262 37.7047 69.4262C37.016 69.4262 36.3623 69.4051 35.7439 69.3629C35.1394 69.3207 34.6123 69.2645 34.1625 69.1942C33.2489 69.0115 32.539 68.6671 32.033 68.1611C31.527 67.641 31.2739 66.9312 31.2739 66.0316C31.2739 65.6239 31.2739 65.0968 31.2739 64.4502C31.2739 63.7896 31.2739 63.0657 31.2739 62.2785C31.2739 61.4773 31.2739 60.6761 31.2739 59.8749C31.2739 59.0596 31.2739 58.2936 31.2739 57.5767C31.2739 56.8457 31.2739 56.2132 31.2739 55.6791C31.2739 55.1449 31.2739 54.7654 31.2739 54.5405C31.2739 54.3859 31.2669 54.175 31.2529 53.908C31.2388 53.6409 31.2177 53.3668 31.1896 53.0857C31.1755 52.8046 31.1474 52.5586 31.1053 52.3477H34.2258ZM32.8342 58.8207C33.5089 58.6801 34.2258 58.5114 34.9848 58.3146C35.7439 58.1038 36.5099 57.8789 37.283 57.6399C38.0561 57.401 38.7871 57.162 39.4758 56.9231C40.1786 56.67 40.8041 56.4241 41.3523 56.1851C41.7319 56.0445 42.1043 55.8829 42.4698 55.7002C42.8493 55.5174 43.2429 55.2996 43.6505 55.0465L44.7891 57.7243C44.3815 57.8789 43.9528 58.0546 43.5029 58.2514C43.0672 58.4341 42.6736 58.5887 42.3222 58.7152C41.7037 58.9542 40.9939 59.2072 40.1927 59.4743C39.4055 59.7414 38.5832 60.0084 37.7258 60.2755C36.8684 60.5285 36.018 60.7675 35.1746 60.9924C34.3453 61.2173 33.5722 61.4141 32.8553 61.5827L32.8342 58.8207ZM60.244 52.4953C60.6095 52.7483 61.0382 53.0576 61.5302 53.423C62.0222 53.7885 62.5282 54.1891 63.0483 54.6248C63.5824 55.0465 64.0814 55.4612 64.5453 55.8688C65.0091 56.2765 65.3887 56.6419 65.6838 56.9652L63.5332 59.158C63.2661 58.8628 62.9147 58.5114 62.479 58.1038C62.0432 57.6962 61.5724 57.2745 61.0663 56.8387C60.5603 56.403 60.0613 55.9883 59.5693 55.5947C59.0774 55.2012 58.6416 54.8708 58.2621 54.6038L60.244 52.4953ZM57.6085 66.5376C58.7049 66.383 59.738 66.1651 60.7079 65.884C61.6778 65.6028 62.5774 65.2795 63.4067 64.9141C64.236 64.5486 64.9951 64.1691 65.6838 63.7755C66.8786 63.0586 67.975 62.2434 68.973 61.3297C69.971 60.4161 70.8425 59.4673 71.5875 58.4833C72.3325 57.4853 72.9228 56.5154 73.3586 55.5737L75.0032 58.5466C74.469 59.4883 73.8084 60.4301 73.0212 61.3719C72.2481 62.3137 71.3696 63.2133 70.3857 64.0707C69.4017 64.9141 68.3405 65.6731 67.2019 66.3478C66.485 66.7836 65.7119 67.1982 64.8826 67.5918C64.0533 67.9713 63.1748 68.3087 62.2471 68.6039C61.3334 68.9131 60.3776 69.1521 59.3796 69.3207L57.6085 66.5376ZM85.7984 53.3809C86.3326 53.3809 87.0143 53.3809 87.8436 53.3809C88.673 53.3668 89.5444 53.3387 90.4581 53.2965C91.3718 53.2403 92.2152 53.156 92.9882 53.0435C93.5224 52.9732 94.0425 52.8889 94.5485 52.7905C95.0686 52.6921 95.5606 52.5937 96.0244 52.4953C96.5023 52.3829 96.9311 52.2634 97.3106 52.1369C97.7041 52.0104 98.0345 51.8909 98.3015 51.7784L100.03 54.0977C99.665 54.1821 99.3487 54.2594 99.0817 54.3297C98.8146 54.3999 98.5897 54.4562 98.407 54.4983C97.9712 54.6108 97.5003 54.7232 96.9943 54.8357C96.4883 54.9341 95.9682 55.0255 95.4341 55.1098C94.8999 55.1941 94.3587 55.2785 93.8105 55.3628C93.0093 55.4753 92.1589 55.5596 91.2593 55.6158C90.3597 55.672 89.4882 55.7212 88.6448 55.7634C87.8015 55.7915 87.0705 55.8126 86.4521 55.8267L85.7984 53.3809ZM86.7051 67.9081C87.942 67.3458 88.9541 66.6641 89.7412 65.8629C90.5424 65.0476 91.1328 64.1129 91.5123 63.0586C91.9059 61.9904 92.1027 60.7956 92.1027 59.4743C92.1027 59.4743 92.1027 59.3197 92.1027 59.0104C92.1027 58.6871 92.1027 58.2092 92.1027 57.5767C92.1027 56.9301 92.1027 56.1148 92.1027 55.1309L94.8648 54.8146C94.8648 55.1801 94.8648 55.5737 94.8648 55.9953C94.8648 56.403 94.8648 56.8106 94.8648 57.2182C94.8648 57.6259 94.8648 57.9984 94.8648 58.3357C94.8648 58.659 94.8648 58.9261 94.8648 59.1369C94.8648 59.3337 94.8648 59.4321 94.8648 59.4321C94.8648 60.8377 94.6891 62.1731 94.3377 63.4382C94.0003 64.7032 93.431 65.8699 92.6298 66.9382C91.8286 67.9924 90.7463 68.9272 89.3828 69.7424L86.7051 67.9081ZM84.2171 58.4201C84.5123 58.4482 84.8286 58.4763 85.1659 58.5044C85.5033 58.5325 85.8336 58.5466 86.1569 58.5466C86.3537 58.5466 86.7262 58.5466 87.2744 58.5466C87.8225 58.5466 88.4832 58.5466 89.2563 58.5466C90.0434 58.5466 90.8868 58.5466 91.7864 58.5466C92.686 58.5466 93.5856 58.5466 94.4852 58.5466C95.3849 58.5466 96.2282 58.5466 97.0154 58.5466C97.8025 58.5466 98.4772 58.5466 99.0395 58.5466C99.6018 58.5466 99.9813 58.5466 100.178 58.5466C100.333 58.5466 100.529 58.5395 100.768 58.5255C101.007 58.5114 101.246 58.4974 101.485 58.4833C101.738 58.4552 101.942 58.4341 102.097 58.4201V61.14C101.816 61.1118 101.506 61.0908 101.169 61.0767C100.846 61.0626 100.536 61.0556 100.241 61.0556C100.045 61.0556 99.665 61.0556 99.1028 61.0556C98.5546 61.0556 97.8799 61.0556 97.0786 61.0556C96.2915 61.0556 95.4411 61.0556 94.5274 61.0556C93.6278 61.0556 92.7212 61.0556 91.8075 61.0556C90.9079 61.0556 90.0645 61.0556 89.2774 61.0556C88.4902 61.0556 87.8225 61.0556 87.2744 61.0556C86.7262 61.0556 86.3677 61.0556 86.199 61.0556C85.8757 61.0556 85.5314 61.0626 85.1659 61.0767C84.8004 61.0908 84.4842 61.1118 84.2171 61.14V58.4201Z" fill="#00AFA1"/>
<path d="M115.438 65.6841H149.064V74.4131H108.834V68.2648L123.939 52.325C131.606 44.4309 135.097 39.4213 135.097 31.679C135.097 24.0127 131.378 19.003 124.698 19.003C123.256 19.003 122.042 19.1548 120.751 19.4585L118.778 26.2139C117.639 30.6923 115.59 31.8308 113.389 31.8308C111.415 31.8308 109.745 30.7682 108.834 28.9465C109.973 20.3693 118.322 16.1187 128.342 16.1187C141.17 16.1187 146.483 23.026 146.483 31.3754C146.483 39.7249 140.411 46.3285 128.19 54.9057L115.438 65.6841Z" fill="#00AFA1"/>
<g clip-path="url(#clip0_201_17360)">
<path d="M54.8251 89.3182C55.0205 89.2748 55.2159 89.2314 55.4113 89.188C55.4113 89.0578 55.4358 88.9493 55.4602 88.8191C55.6556 88.7757 55.851 88.7323 56.0464 88.6889C56.4372 88.3851 56.0952 88.2549 56.7059 87.9945C56.7791 87.4954 56.828 86.9963 56.9013 86.4972C56.7303 86.4104 56.5349 86.3237 56.3639 86.2586C56.1929 86.0416 56.022 85.8463 55.8754 85.6293C55.1671 85.2387 50.9172 84.4575 49.354 84.5877C49.354 84.6528 49.354 84.7179 49.3295 84.783C48.6701 84.7179 47.9862 84.6528 47.3267 84.5877C47.3267 84.6528 47.3267 84.7179 47.3023 84.783C46.7161 84.783 46.1543 84.783 45.5681 84.783V84.9783C45.3483 84.9783 45.1529 84.9349 44.9819 84.9132C44.9819 84.9783 44.9819 85.0434 44.9819 85.1085C44.6888 85.0868 44.4201 85.0434 44.127 85.0217C44.127 85.0868 44.127 85.1519 44.127 85.217C43.3698 85.217 42.5882 85.1953 41.8066 85.1736V85.3689C41.5868 85.3689 41.3914 85.3255 41.2204 85.3038C41.2204 85.3689 41.2204 85.434 41.196 85.4991C40.9029 85.4774 40.6342 85.434 40.3411 85.4123C40.3411 85.4774 40.3411 85.5425 40.3167 85.6076L39.1443 85.6727V85.868C38.8268 85.8463 38.5581 85.8029 38.265 85.7812C38.265 85.8463 38.265 85.9114 38.2406 85.9765C37.8498 85.9982 37.459 86.0199 37.0682 86.0416C37.0682 86.1067 37.0682 86.1718 37.0682 86.2369C36.0912 86.3237 35.1142 86.4104 34.1372 86.4972L33.7953 86.8444C33.5999 86.8444 33.4045 86.801 33.2335 86.7793C33.2335 86.8444 33.2335 86.9095 33.2091 86.9746C32.8183 86.9963 32.4275 87.018 32.0367 87.0397V87.235C31.426 87.235 30.8643 87.235 30.2781 87.235C30.2781 87.3001 30.2781 87.3652 30.2781 87.4303C30.0827 87.4303 29.8873 87.3869 29.7163 87.3652C29.5942 87.4737 29.4965 87.5822 29.3743 87.7124C28.7881 87.7775 28.2019 87.8426 27.6157 87.9077C27.4936 88.0162 27.3959 88.1464 27.2738 88.2549C26.7853 88.2549 26.2968 88.2766 25.8327 88.2983C25.8327 88.3634 25.8327 88.4285 25.8083 88.4936C25.6129 88.4936 25.4175 88.4502 25.2465 88.4285C25.1488 88.537 25.0267 88.6672 24.9046 88.7757L23.7322 88.8408C23.61 88.9493 23.5123 89.0795 23.3902 89.188C23.1948 89.188 22.9994 89.1446 22.8284 89.1229L22.2178 89.4484C22.0224 89.4484 21.827 89.405 21.656 89.3833C21.656 89.4484 21.656 89.5134 21.6316 89.5785C21.4362 89.5785 21.2408 89.5351 21.0699 89.5134C20.9477 89.6219 20.85 89.7521 20.7279 89.8606C20.4348 89.904 20.1417 89.9257 19.8486 89.9691V90.1644C19.238 90.2295 18.6518 90.2946 18.0656 90.3597C18.0656 90.4248 18.0656 90.4899 18.0412 90.555C17.7481 90.5984 17.455 90.6201 17.1619 90.6635L16.8199 91.0107C16.6245 91.0107 16.4291 90.9673 16.2581 90.9456C15.9406 91.1626 15.6231 91.3796 15.3056 91.5966C14.8171 91.5966 14.3286 91.6183 13.8645 91.64C13.547 91.857 13.2294 92.074 12.9119 92.291C12.7165 92.291 12.5211 92.2476 12.3501 92.2259C12.228 92.3344 12.1303 92.4646 12.0082 92.5731C11.7151 92.6165 11.422 92.6382 11.1289 92.6815C11.1289 92.7466 11.1289 92.8117 11.1045 92.8768C10.9091 92.8768 10.7137 92.8334 10.5427 92.8117C10.3229 92.9853 10.103 93.1372 9.90764 93.3108C9.71224 93.3108 9.51684 93.2674 9.34587 93.2457C9.12604 93.4193 8.93064 93.5712 8.71082 93.7448C8.51542 93.7448 8.32002 93.7014 8.14905 93.6797C8.02692 93.7882 7.92922 93.9184 7.8071 94.0269C7.6117 94.0269 7.4163 93.9835 7.24532 93.9618C6.31717 94.5043 5.3646 95.0251 4.43645 95.5676C4.33875 96.4138 4.4853 96.6091 4.82725 97.1082C5.29132 97.1516 5.77982 97.195 6.2439 97.2601C6.75682 96.9346 7.29417 96.6091 7.8071 96.2836C8.32002 96.0883 8.83294 95.893 9.32144 95.6761C9.44357 95.5676 9.54127 95.4374 9.66339 95.3289C9.85879 95.3289 10.0542 95.3723 10.2252 95.394C10.5427 95.177 10.8602 94.96 11.1777 94.743C11.3731 94.743 11.5685 94.7864 11.7395 94.8081C12.057 94.5911 12.3746 94.3741 12.6921 94.1571C12.8875 94.1571 13.0829 94.2005 13.2539 94.2222C13.376 94.1137 13.4737 93.9835 13.5958 93.875C13.7912 93.875 13.9866 93.9184 14.1576 93.9401C14.3774 93.7665 14.5972 93.6146 14.7926 93.441C15.0857 93.3976 15.3788 93.3759 15.6719 93.3325C15.7941 93.224 15.8918 93.0938 16.0139 92.9853C16.6001 92.9202 17.1863 92.8551 17.7725 92.79C17.8702 92.6815 17.9923 92.5514 18.1144 92.4429C18.3098 92.4429 18.5052 92.4863 18.6762 92.508C18.896 92.3344 19.0914 92.1825 19.3113 92.0089C19.5067 92.0089 19.7021 92.0523 19.873 92.074C19.9952 91.9655 20.0929 91.8353 20.215 91.7268C20.6058 91.7051 20.9966 91.6834 21.3874 91.6617C21.5095 91.5532 21.6072 91.423 21.7293 91.3145C21.9247 91.3145 22.1201 91.3579 22.2911 91.3796L22.633 91.0324C22.8284 91.0324 23.0238 91.0758 23.1948 91.0975C23.3169 90.989 23.4146 90.8588 23.5368 90.7503C23.8299 90.772 24.0985 90.8154 24.3916 90.8371C24.3916 90.772 24.3916 90.7069 24.4161 90.6418C24.6115 90.6418 24.8069 90.6852 24.9778 90.7069C25.1 90.5984 25.1977 90.4682 25.3198 90.3597C25.7106 90.338 26.1014 90.3163 26.4922 90.2946C26.5899 90.1861 26.712 90.0559 26.8341 89.9474C27.0295 89.9474 27.2249 89.9908 27.3959 90.0125C27.3959 89.9474 27.3959 89.8823 27.4203 89.8172C27.6157 89.8172 27.8111 89.8606 27.9821 89.8823C27.9821 89.8172 27.9821 89.7521 28.0065 89.687C28.2996 89.7087 28.5683 89.7521 28.8614 89.7738V89.5785C29.472 89.5134 30.0582 89.4484 30.6444 89.3833C30.6444 89.3182 30.6444 89.2531 30.6444 89.188C30.8398 89.188 31.0352 89.2314 31.2062 89.2531C31.3283 89.1446 31.426 89.0144 31.5482 88.9059C31.7436 88.9059 31.939 88.9493 32.1099 88.971L32.7206 88.6455C33.7953 88.4936 34.87 88.3634 35.9691 88.2115C36.0912 88.103 36.1889 87.9728 36.311 87.8643C36.8972 87.8643 37.459 87.8643 38.0452 87.8643C38.0452 87.7992 38.0452 87.7341 38.0696 87.669C38.4604 87.6473 38.8512 87.6256 39.242 87.6039V87.4086C39.5595 87.4303 39.8282 87.4737 40.1213 87.4954C40.1213 87.4303 40.1213 87.3652 40.1457 87.3001C40.3411 87.3001 40.5365 87.3435 40.7075 87.3652C40.7075 87.3001 40.7075 87.235 40.7319 87.1699C41.025 87.1916 41.2937 87.235 41.5868 87.2567C41.5868 87.1916 41.5868 87.1265 41.6112 87.0614C41.8066 87.0614 42.002 87.1048 42.173 87.1265C42.173 87.0614 42.173 86.9963 42.1974 86.9312C42.4905 86.9529 42.7592 86.9963 43.0523 87.018C43.0523 86.9529 43.0523 86.8878 43.0767 86.8227C43.2721 86.8227 43.4675 86.8661 43.6385 86.8878V86.6925C44.0537 86.7359 44.4201 86.7793 44.8109 86.801C44.8109 86.7359 44.8109 86.6708 44.8353 86.6057C45.1284 86.6274 45.3971 86.6708 45.6902 86.6925V86.4972C46.1054 86.5406 46.4718 86.5623 46.8626 86.6057C46.8626 86.5406 46.8626 86.4755 46.8626 86.4104C47.1557 86.4321 47.4244 86.4755 47.7175 86.4972C47.7175 86.4321 47.7175 86.367 47.7419 86.302C48.9876 86.1501 49.1586 86.6491 50.0623 86.1501C51.308 86.2803 52.5292 86.4104 53.7749 86.5189C53.7749 86.5189 54.1168 86.8661 54.2878 86.9529C54.068 87.1699 53.7993 87.1699 53.6772 87.2784C53.6772 87.4086 53.6528 87.5171 53.6283 87.6473C53.4329 87.6907 53.2375 87.7341 53.0421 87.7775C53.0421 87.9077 53.0177 88.0162 52.9933 88.1464L52.3827 88.4719C52.3827 88.6021 52.3582 88.7106 52.3338 88.8408C52.1384 88.8842 51.943 88.9276 51.7476 88.971C51.7476 89.1012 51.7232 89.2097 51.6988 89.3399C51.5034 89.3833 51.308 89.4267 51.1126 89.4701C50.7462 89.7738 51.0637 89.8823 50.4531 90.1644C50.2821 91.6183 49.9402 92.7466 51.5034 93.2891C52.6025 93.6797 56.0708 93.0504 56.7547 92.8768C56.7547 92.8117 56.7547 92.7466 56.7791 92.6815C56.9745 92.6815 57.1699 92.7249 57.3409 92.7466C57.3409 92.6815 57.3409 92.6165 57.3409 92.5514C57.5363 92.5514 57.7317 92.5948 57.9027 92.6165C57.9027 92.5514 57.9027 92.4863 57.9027 92.4212C58.1958 92.4429 58.4645 92.4863 58.7576 92.508C58.7576 92.4429 58.7576 92.3778 58.7576 92.3127C58.953 92.3127 59.1484 92.3561 59.3193 92.3778V92.1825C59.93 92.1174 60.5162 92.0523 61.1024 91.9872C61.1024 91.9221 61.1024 91.857 61.1268 91.7919C61.3222 91.7919 61.5176 91.8353 61.6886 91.857C61.6886 91.7919 61.6886 91.7268 61.6886 91.6617C61.9817 91.6834 62.2503 91.7268 62.5434 91.7485C62.5434 91.6834 62.5434 91.6183 62.5679 91.5532C62.7633 91.5532 62.9587 91.5966 63.1296 91.6183C63.1296 91.5532 63.1296 91.4881 63.1296 91.423C63.5204 91.4013 63.9112 91.3796 64.302 91.3579C64.302 91.2928 64.302 91.2277 64.3265 91.1626C64.9127 91.1626 65.4744 91.1626 66.0606 91.1626C66.1583 91.0541 66.2805 90.9239 66.4026 90.8154C66.598 90.8154 66.7934 90.8588 66.9644 90.8805C66.9644 90.8154 66.9644 90.7503 66.9888 90.6852C67.3796 90.6635 67.7704 90.6418 68.1612 90.6201C68.1612 90.555 68.1612 90.4899 68.1856 90.4248C68.8695 90.4248 69.529 90.4248 70.2129 90.4248V90.2295C70.4327 90.2295 70.6281 90.2729 70.7991 90.2946C70.7991 90.2295 70.7991 90.1644 70.8235 90.0993C71.312 90.0993 71.8005 90.0776 72.2646 90.0559C72.3867 89.9474 72.4844 89.8172 72.6065 89.7087C72.9973 89.7521 73.3637 89.7738 73.7545 89.8172C73.7545 89.7521 73.7545 89.687 73.7789 89.6219C74.4628 89.6219 75.1223 89.6219 75.8062 89.6219V89.4267C76.2214 89.4701 76.5878 89.5134 76.9786 89.5351C76.9786 89.6002 76.9786 89.6653 76.9786 89.7304C77.6136 90.3163 76.6611 91.3796 76.9542 92.1825C77.0519 92.1825 77.1496 92.1825 77.2473 92.2042C77.2228 92.3995 77.1984 92.5731 77.174 92.7683C77.2717 92.7683 77.3694 92.7683 77.4671 92.79C77.4671 92.9202 77.4427 93.0287 77.4182 93.1589C77.5159 93.1589 77.6136 93.1589 77.7113 93.1806C77.8823 93.3759 78.0533 93.5929 78.1998 93.7882C79.1524 94.0052 80.1294 94.6345 81.5705 94.5043V94.309C82.3521 94.309 83.1337 94.3307 83.8909 94.3524C84.013 94.2439 84.1107 94.1137 84.2328 94.0052C84.4282 94.0052 84.6236 94.0486 84.7946 94.0703C84.7946 94.0052 84.7946 93.9401 84.819 93.875C85.6983 93.8316 86.5532 93.7882 87.4325 93.7665C87.5546 93.658 87.6523 93.5278 87.7744 93.4193C88.1652 93.3976 88.556 93.3759 88.9468 93.3542C88.9468 93.2891 88.9468 93.224 88.9713 93.1589C89.3621 93.1372 89.7528 93.1155 90.1436 93.0938C90.1436 93.0287 90.1436 92.9636 90.1436 92.8985L90.9985 92.9853C90.9985 92.9853 90.9985 92.8551 91.0229 92.79C91.6091 92.7249 92.1953 92.6598 92.7815 92.5948C92.7815 92.5297 92.7815 92.4646 92.806 92.3995C93.3922 92.3344 93.9784 92.2693 94.5646 92.2042C94.6867 92.0957 94.7844 91.9655 94.9065 91.857C95.1996 91.8787 95.4683 91.9221 95.7614 91.9438C95.7614 91.8787 95.7614 91.8136 95.7614 91.7485C95.9568 91.7485 96.1522 91.7919 96.3232 91.8136C96.3232 91.7485 96.3232 91.6834 96.3476 91.6183C96.9338 91.5532 97.52 91.4881 98.1062 91.423C98.1062 91.3579 98.1062 91.2928 98.1306 91.2277C98.4237 91.2494 98.6924 91.2928 98.9855 91.3145C98.9855 91.2494 98.9855 91.1843 98.9855 91.1192C99.1809 91.1192 99.3763 91.1626 99.5473 91.1843C99.5473 91.1192 99.5473 91.0541 99.5717 90.989C99.7671 90.989 99.9625 91.0324 100.133 91.0541C100.133 90.989 100.133 90.9239 100.133 90.8588C100.964 90.7069 100.964 90.989 101.599 90.6201C101.99 90.6635 102.356 90.7069 102.747 90.7286V90.9239C102.747 90.9239 102.918 90.9239 103.016 90.9456C103.358 91.423 102.6 92.2042 102.527 92.3995C102.625 92.3995 102.722 92.3995 102.82 92.4212C102.771 92.7249 102.747 93.0504 102.698 93.3542C102.771 93.4844 103.089 93.3976 103.187 93.9835C103.455 94.0703 103.748 94.1571 104.017 94.2656C104.017 94.3307 104.017 94.3958 103.993 94.4609L104.847 94.5477C104.847 94.5477 104.847 94.6779 104.823 94.743C106.679 95.3506 108.707 94.8081 109.757 94.6779C110.148 94.7213 110.514 94.743 110.905 94.7864C110.905 94.7213 110.905 94.6562 110.929 94.5911C111.222 94.6128 111.491 94.6562 111.784 94.6779C111.784 94.6128 111.784 94.5477 111.809 94.4826C112.102 94.5043 112.37 94.5477 112.663 94.5694V94.3741C112.981 94.3958 113.25 94.4392 113.543 94.4609C113.543 94.3958 113.543 94.3307 113.567 94.2656C113.86 94.2873 114.129 94.3307 114.422 94.3524C114.422 94.2873 114.422 94.2222 114.422 94.1571L115.594 94.092C115.594 94.092 115.594 93.9618 115.619 93.8967C115.814 93.8967 116.01 93.9401 116.181 93.9618C116.181 93.8967 116.181 93.8316 116.205 93.7665C116.498 93.7882 116.767 93.8316 117.06 93.8533C117.06 93.7882 117.06 93.7231 117.084 93.658C117.28 93.658 117.475 93.7014 117.646 93.7231C117.646 93.658 117.646 93.5929 117.646 93.5278C118.037 93.5712 118.403 93.6146 118.794 93.6363C118.794 93.5712 118.794 93.5061 118.819 93.441C119.014 93.441 119.209 93.4844 119.38 93.5061V93.3108C119.6 93.3108 119.796 93.3542 119.967 93.3759C120.089 93.2674 120.186 93.1589 120.308 93.0287C120.992 93.0287 121.652 93.0287 122.336 93.0287C122.336 92.9636 122.336 92.8985 122.336 92.8334C122.531 92.8334 122.727 92.8768 122.898 92.8985C122.898 92.8334 122.898 92.7683 122.922 92.7032C123.508 92.7032 124.07 92.7032 124.656 92.7032V92.508C125.071 92.5514 125.438 92.5948 125.829 92.6165C125.951 92.508 126.048 92.3778 126.17 92.2693C126.366 92.2693 126.561 92.3127 126.732 92.3344C126.732 92.2693 126.732 92.2042 126.757 92.1391C127.734 92.1174 128.686 92.074 129.663 92.0523C129.663 91.9872 129.663 91.9221 129.688 91.857C129.981 91.8787 130.249 91.9221 130.543 91.9438C130.543 91.8787 130.543 91.8136 130.567 91.7485C130.86 91.7702 131.129 91.8136 131.422 91.8353C131.422 91.7702 131.422 91.7051 131.446 91.64C131.739 91.6617 132.008 91.7051 132.301 91.7268V91.5315C132.619 91.5532 132.887 91.5966 133.18 91.6183C133.18 91.5532 133.18 91.4881 133.205 91.423C133.4 91.423 133.596 91.4664 133.767 91.4881C133.767 91.423 133.767 91.3579 133.791 91.2928C134.084 91.3145 134.353 91.3579 134.646 91.3796C134.646 91.3145 134.646 91.2494 134.646 91.1843C135.037 91.2277 135.403 91.2711 135.794 91.2928V91.0975C136.111 91.1192 136.38 91.1626 136.673 91.1843C136.673 91.1192 136.673 91.0541 136.698 90.989C136.991 91.0107 137.259 91.0541 137.553 91.0758C137.553 91.0107 137.553 90.9456 137.553 90.8805C137.943 90.9239 138.31 90.9673 138.7 90.989C138.7 90.9239 138.7 90.8588 138.725 90.7937L140.142 90.9456C140.142 90.9456 140.142 90.8154 140.166 90.7503C140.557 90.7286 140.948 90.7069 141.338 90.6852C141.338 90.6201 141.338 90.555 141.363 90.4899C141.851 90.5333 142.315 90.5767 142.804 90.6418V90.4465C143.121 90.4682 143.39 90.5116 143.683 90.5333C143.683 90.4682 143.683 90.4031 143.683 90.338C145.271 90.0993 145.955 90.5333 146.956 89.7304C147.054 89.7304 147.152 89.7304 147.249 89.7521L147.054 88.971C143.927 88.6889 141.876 88.8842 139.507 89.1446C138.749 89.1446 137.968 89.1229 137.211 89.1012C137.211 89.1663 137.211 89.2314 137.186 89.2965C136.991 89.2965 136.795 89.2531 136.624 89.2314C136.624 89.2965 136.624 89.3616 136.6 89.4267C136.014 89.4267 135.452 89.4267 134.866 89.4267C134.866 89.4918 134.866 89.5568 134.841 89.6219C134.06 89.6219 133.303 89.6002 132.521 89.5785C132.521 89.6436 132.521 89.7087 132.521 89.7738L131.666 89.687C131.666 89.687 131.666 89.8172 131.642 89.8823C131.349 89.8606 131.08 89.8172 130.787 89.7955C130.787 89.8606 130.787 89.9257 130.762 89.9908C130.469 89.9691 130.201 89.9257 129.907 89.904C129.907 89.9691 129.907 90.0342 129.883 90.0993C129.688 90.0993 129.492 90.0559 129.321 90.0342C129.321 90.0993 129.321 90.1644 129.297 90.2295C128.906 90.1861 128.54 90.1427 128.149 90.121V90.3163C127.831 90.2946 127.563 90.2512 127.27 90.2295V90.4248C126.952 90.4031 126.683 90.3597 126.39 90.338V90.5333C126.073 90.5116 125.804 90.4682 125.511 90.4465C125.511 90.5116 125.511 90.5767 125.487 90.6418C125.193 90.6201 124.925 90.5767 124.632 90.555V90.7503C124.412 90.7503 124.216 90.7069 124.046 90.6852C124.046 90.7503 124.045 90.8154 124.021 90.8805C123.533 90.8805 123.044 90.9022 122.58 90.9239C122.58 90.989 122.58 91.0541 122.58 91.1192C122.189 91.0758 121.823 91.0541 121.432 91.0107C121.432 91.0758 121.432 91.1409 121.408 91.206C121.212 91.206 121.017 91.1626 120.846 91.1409V91.3362C120.235 91.3362 119.673 91.3362 119.087 91.3362C119.087 91.4013 119.087 91.4664 119.063 91.5315C118.672 91.5532 118.281 91.5749 117.89 91.5966C117.89 91.6617 117.89 91.7268 117.89 91.7919C117.695 91.7919 117.5 91.7485 117.329 91.7268C117.329 91.7919 117.329 91.857 117.304 91.9221C116.425 91.9655 115.57 91.9872 114.691 92.0306V92.2259C114.471 92.2259 114.276 92.1825 114.105 92.1608C114.105 92.2259 114.105 92.291 114.08 92.3561C113.494 92.3561 112.932 92.3561 112.346 92.3561C112.346 92.4212 112.346 92.4863 112.322 92.5514C111.931 92.5731 111.54 92.5948 111.149 92.6165C111.149 92.6815 111.149 92.7466 111.125 92.8117C110.832 92.79 110.563 92.7466 110.27 92.7249V92.9202C109.561 92.9202 108.902 92.9202 108.218 92.9202V93.1155C107.266 93.0504 105.824 92.9853 105.36 92.6382C105.263 92.6382 105.165 92.6382 105.067 92.6165C104.921 92.2476 105.263 92.3778 105.409 92.2693C105.507 91.5749 105.58 90.9022 105.678 90.2078C105.043 89.8389 104.432 89.4484 103.797 89.0795C101.648 88.9059 99.6694 88.971 97.9841 89.2531C97.9841 89.3182 97.9841 89.3833 97.9841 89.4484C97.4956 89.4484 97.0071 89.4701 96.543 89.4918C96.4209 89.6002 96.3232 89.7304 96.201 89.8389C96.0056 89.8389 95.8347 89.7955 95.6393 89.7738L95.0286 90.0993C93.9539 90.2512 92.8792 90.3814 91.7801 90.5333C91.6824 90.6418 91.5603 90.772 91.4382 90.8805C91.0474 90.9022 90.6566 90.9239 90.2658 90.9456C90.2658 91.0107 90.2658 91.0758 90.2413 91.1409C89.8505 91.1626 89.4598 91.1843 89.069 91.206C89.069 91.2711 89.0689 91.3362 89.0445 91.4013C88.4583 91.4013 87.8966 91.4013 87.3103 91.4013C87.3103 91.4664 87.3103 91.5315 87.3103 91.5966C87.115 91.5966 86.9196 91.5532 86.7486 91.5315C86.6265 91.64 86.5288 91.7702 86.4066 91.8787C86.0158 91.9004 85.625 91.9221 85.2342 91.9438C85.2342 92.0089 85.2342 92.074 85.2098 92.1391L84.0618 92.0306C84.0618 92.0306 84.0618 92.1608 84.0374 92.2259C83.842 92.2259 83.6466 92.1825 83.4756 92.1608C83.4756 92.2259 83.4756 92.291 83.4512 92.3561H81.717L81.6926 92.5514C80.0806 92.3778 80.0317 92.1608 79.2013 91.7268C79.2501 91.2928 79.3234 90.8588 79.3722 90.4248C79.4699 90.4248 79.5676 90.4248 79.6653 90.4465C79.9829 90.0559 80.3248 89.3833 79.8607 88.9493C79.6653 88.2332 79.0303 88.2332 78.5662 87.6907C77.5159 87.6473 76.4657 87.6039 75.391 87.5605C75.391 87.6256 75.391 87.6907 75.3665 87.7558C75.1711 87.7558 74.9757 87.7124 74.8048 87.6907C74.8048 87.7558 74.8048 87.8209 74.7803 87.886C74.3895 87.8426 74.0232 87.8209 73.6324 87.7775C73.6324 87.8426 73.6324 87.9077 73.6324 87.9728C73.3393 87.9511 73.0706 87.9077 72.7775 87.886C72.7775 87.9511 72.7775 88.0162 72.7531 88.0813C72.46 88.0596 72.1913 88.0162 71.8982 87.9945C71.8982 88.0596 71.8982 88.1247 71.8738 88.1898C71.5807 88.1681 71.312 88.1247 71.0189 88.103C71.0189 88.1681 71.0189 88.2332 70.9945 88.2983C70.7014 88.2766 70.4327 88.2332 70.1396 88.2115C70.1396 88.2766 70.1396 88.3417 70.1152 88.4068C69.7244 88.4285 69.3336 88.4502 68.9428 88.4719V88.6672C68.4299 88.6672 67.9414 88.6889 67.4773 88.7106C67.4773 88.7757 67.4773 88.8408 67.4529 88.9059C67.0621 88.8625 66.6957 88.8191 66.3049 88.7974C66.3049 88.8625 66.3049 88.9276 66.2805 88.9927C65.6943 89.0578 65.1081 89.1229 64.5219 89.188C64.5219 89.2531 64.5219 89.3182 64.5219 89.3833C64.2288 89.3616 63.9601 89.3182 63.667 89.2965C63.667 89.3616 63.667 89.4267 63.6426 89.4918C63.4472 89.4918 63.2518 89.4484 63.0808 89.4267C63.0808 89.4918 63.0808 89.5568 63.0564 89.6219C62.4702 89.687 61.884 89.7521 61.2978 89.8172C61.2978 89.8823 61.2978 89.9474 61.2978 90.0125C61.0047 89.9908 60.736 89.9474 60.4429 89.9257C60.4429 89.9908 60.4429 90.0559 60.4185 90.121C59.93 90.121 59.4415 90.1427 58.9774 90.1644C58.8553 90.2729 58.7576 90.4031 58.6354 90.5116C58.44 90.5116 58.2446 90.4682 58.0737 90.4465C58.0737 90.5116 58.0737 90.5767 58.0737 90.6418C57.8783 90.6418 57.6829 90.5984 57.5119 90.5767C57.5119 90.6418 57.5119 90.7069 57.4875 90.772C57.1944 90.7503 56.9257 90.7069 56.6326 90.6852V90.8805C56.2174 90.9022 55.8266 90.9239 55.4358 90.9456C55.4358 91.0107 55.4358 91.0758 55.4358 91.1409C55.1427 91.1192 54.874 91.0758 54.5809 91.0541C54.5809 91.1192 54.5809 91.1843 54.5565 91.2494C53.897 91.1409 53.8726 91.0975 53.4329 90.9456C53.7016 90.1644 54.239 90.0559 54.7763 89.5568C54.7763 89.4267 54.8007 89.3182 54.8251 89.188" fill="#00AFA1"/>
</g>
<defs>
<clipPath id="clip0_201_17360">
<rect width="143.375" height="12.6507" fill="white" transform="translate(4.2168 84.5879)"/>
</clipPath>
</defs>
</svg>
