<svg width="325" height="98" viewBox="0 0 325 98" fill="none" xmlns="http://www.w3.org/2000/svg">
<path d="M187.111 44.7855C187.111 45.8472 187.389 46.8078 187.945 47.6672C188.552 48.4761 189.31 49.2344 190.22 49.9422C191.13 50.5994 192.116 51.2567 193.178 51.9139C194.442 52.6217 195.68 53.38 196.894 54.1889C198.107 54.9472 199.118 55.8825 199.927 56.9947C200.736 58.1069 201.14 59.5478 201.14 61.3172C201.14 62.935 200.711 64.5275 199.851 66.0947C199.042 67.6114 197.804 68.85 196.135 69.8105C194.467 70.7711 192.369 71.2514 189.841 71.2514C188.577 71.2514 187.313 71.0997 186.049 70.7964C184.786 70.5436 183.421 70.0128 181.954 69.2039C181.853 69.1028 181.752 68.9764 181.651 68.8247C181.55 68.673 181.499 68.4961 181.499 68.2939L181.348 60.7864C181.348 60.6347 181.474 60.5589 181.727 60.5589C182.03 60.5083 182.207 60.5336 182.258 60.6347C182.814 62.2525 183.597 63.7692 184.609 65.1847C185.62 66.5497 186.757 67.6619 188.021 68.5214C189.336 69.3303 190.65 69.7347 191.964 69.7347C192.976 69.7347 193.81 69.4314 194.467 68.8247C195.124 68.1675 195.453 67.1817 195.453 65.8672C195.453 64.4517 195.124 63.2889 194.467 62.3789C193.86 61.4183 193.077 60.6094 192.116 59.9522C191.156 59.2444 190.17 58.6125 189.159 58.0564C187.996 57.3992 186.833 56.7167 185.67 56.0089C184.508 55.3011 183.547 54.4164 182.789 53.3547C182.03 52.2425 181.651 50.8017 181.651 49.0322C181.651 46.9089 182.182 45.2153 183.244 43.9514C184.305 42.6875 185.67 41.7775 187.339 41.2214C189.057 40.6653 190.827 40.3872 192.647 40.3872C193.759 40.3872 194.77 40.463 195.68 40.6147C196.641 40.7664 197.728 41.0697 198.941 41.5247C199.396 41.6764 199.624 41.9544 199.624 42.3589C199.624 43.37 199.598 44.4317 199.548 45.5439C199.497 46.6055 199.472 47.7936 199.472 49.108C199.472 49.2597 199.32 49.3355 199.017 49.3355C198.714 49.3355 198.562 49.2597 198.562 49.108C198.562 48.1475 198.157 47.1111 197.349 45.9989C196.59 44.8867 195.579 43.9261 194.315 43.1172C193.051 42.2578 191.686 41.828 190.22 41.828C189.513 41.828 188.805 42.005 188.097 42.3589C187.44 42.7128 187.111 43.5217 187.111 44.7855Z" fill="#15B6A9"/>
<path d="M163.695 71.3266C160.207 71.3266 157.325 70.5935 155.05 69.1274C152.775 67.6107 151.082 65.6896 149.969 63.3641C148.908 61.0385 148.377 58.6877 148.377 56.3116C148.377 53.7838 148.908 51.5341 149.969 49.5624C151.031 47.5907 152.421 45.9477 154.14 44.6332C155.91 43.2682 157.856 42.2318 159.979 41.5241C162.103 40.8163 164.201 40.4624 166.274 40.4624C167.74 40.4624 169.206 40.6899 170.672 41.1449C172.138 41.5493 173.351 42.1813 174.312 43.0407C175.273 43.8496 175.753 44.886 175.753 46.1499C175.753 47.0093 175.399 47.8182 174.691 48.5766C173.983 49.2843 172.947 49.6382 171.582 49.6382C170.318 49.6382 169.332 49.3096 168.624 48.6524C167.917 47.9952 167.361 47.0346 166.956 45.7707C166.602 44.5574 166.198 43.6474 165.743 43.0407C165.338 42.3835 164.529 42.0549 163.316 42.0549C161.142 42.0549 159.398 43.1418 158.084 45.3157C156.82 47.4896 156.188 50.3207 156.188 53.8091C156.188 56.3368 156.567 58.6624 157.325 60.7857C158.084 62.8585 159.322 64.5268 161.041 65.7907C162.76 67.0041 165.06 67.6107 167.942 67.6107C169.459 67.6107 170.723 67.4338 171.734 67.0799C172.795 66.726 173.958 66.2457 175.222 65.6391C175.323 65.538 175.449 65.5885 175.601 65.7907C175.803 65.993 175.854 66.1446 175.753 66.2457C173.983 67.8635 172.163 69.1274 170.293 70.0374C168.422 70.8968 166.223 71.3266 163.695 71.3266Z" fill="#15B6A9"/>
<path d="M128.988 70.4165C128.836 70.4165 128.76 70.2648 128.76 69.9615C128.76 69.6582 128.836 69.5065 128.988 69.5065C130.555 69.5065 131.617 69.1526 132.173 68.4448C132.729 67.6865 133.007 66.2962 133.007 64.274V50.6998C133.007 49.0315 132.83 47.8182 132.476 47.0598C132.173 46.2509 131.591 45.8465 130.732 45.8465C130.378 45.8465 129.948 45.9223 129.443 46.074C128.988 46.2257 128.482 46.4279 127.926 46.6807C127.724 46.7312 127.547 46.6048 127.395 46.3015C127.294 45.9982 127.319 45.8212 127.471 45.7707L138.922 40.4623C139.023 40.4118 139.099 40.3865 139.149 40.3865C139.402 40.3865 139.655 40.5129 139.908 40.7657C140.16 41.0184 140.287 41.2459 140.287 41.4482C140.287 42.0548 140.262 43.0659 140.211 44.4815C140.16 45.8971 140.135 47.9193 140.135 50.5482V64.274C140.135 66.2962 140.413 67.6865 140.969 68.4448C141.576 69.1526 142.663 69.5065 144.23 69.5065C144.382 69.5065 144.458 69.6582 144.458 69.9615C144.458 70.2648 144.382 70.4165 144.23 70.4165C143.219 70.4165 142.056 70.3912 140.742 70.3407C139.427 70.2901 138.037 70.2648 136.571 70.2648C135.155 70.2648 133.79 70.2901 132.476 70.3407C131.162 70.3912 129.999 70.4165 128.988 70.4165ZM136.268 32.879C134.852 32.879 133.715 32.4746 132.855 31.6657C132.046 30.8568 131.642 29.7193 131.642 28.2532C131.642 26.9387 132.046 25.9023 132.855 25.144C133.715 24.3351 134.852 23.9307 136.268 23.9307C137.683 23.9307 138.77 24.3351 139.528 25.144C140.287 25.9023 140.666 26.9387 140.666 28.2532C140.666 31.3371 139.2 32.879 136.268 32.879Z" fill="#15B6A9"/>
<path d="M89.1192 91.2709C88.9676 91.2709 88.8917 91.1192 88.8917 90.8159C88.8917 90.5125 88.9676 90.3608 89.1192 90.3608C90.8887 90.3608 92.0262 90.0322 92.5317 89.375C93.0878 88.7178 93.3659 87.3022 93.3659 85.1283V50.0175C93.3659 48.4503 93.189 47.3128 92.8351 46.605C92.4812 45.8467 91.8492 45.4675 90.9392 45.4675C90.5348 45.4675 90.0292 45.5686 89.4226 45.7708C88.8159 45.9225 88.1587 46.1753 87.4509 46.5292C87.2487 46.6303 87.0717 46.5292 86.9201 46.2258C86.7684 45.9225 86.7431 45.7456 86.8442 45.695L97.6126 40.4625C97.7137 40.412 97.8401 40.3867 97.9917 40.3867C98.5479 40.3867 99.0787 40.9933 99.5842 42.2067C100.14 43.42 100.418 45.1642 100.418 47.4392V85.1283C100.418 86.5439 100.57 87.6308 100.873 88.3892C101.227 89.1475 101.885 89.6531 102.845 89.9058C103.806 90.2092 105.246 90.3608 107.168 90.3608C107.319 90.3608 107.395 90.5125 107.395 90.8159C107.395 91.1192 107.319 91.2709 107.168 91.2709C105.752 91.2709 104.16 91.2456 102.39 91.195C100.621 91.1445 98.7501 91.1192 96.7784 91.1192C95.3628 91.1192 93.9726 91.1445 92.6076 91.195C91.2931 91.2456 90.1303 91.2709 89.1192 91.2709ZM106.94 71.4025C104.968 71.4025 103.275 71.2508 101.859 70.9475C100.494 70.6442 98.8512 70.1639 96.9301 69.5067L99.5842 64.7292C100.696 66.0942 101.885 67.2317 103.148 68.1417C104.463 69.0517 106.207 69.5067 108.381 69.5067C110.757 69.5067 112.628 68.4703 113.993 66.3975C115.358 64.3247 116.04 61.0133 116.04 56.4633C116.04 52.4189 115.105 49.4108 113.234 47.4392C111.364 45.417 109.165 44.4058 106.637 44.4058C104.766 44.4058 103.148 44.8861 101.783 45.8467C100.418 46.8072 99.0787 48.0206 97.7642 49.4867L97.0059 48.5767C99.5842 45.5939 102.036 43.4453 104.362 42.1308C106.738 40.8164 109.165 40.1592 111.642 40.1592C113.765 40.1592 115.737 40.7153 117.557 41.8275C119.377 42.8892 120.843 44.4564 121.955 46.5292C123.118 48.602 123.699 51.1297 123.699 54.1125C123.699 57.3481 123.168 60.0781 122.107 62.3025C121.096 64.527 119.756 66.3217 118.088 67.6867C116.419 69.0011 114.599 69.9364 112.628 70.4925C110.706 71.0992 108.811 71.4025 106.94 71.4025Z" fill="#15B6A9"/>
<path d="M68.0203 71.4025C64.8353 71.4025 62.08 70.6695 59.7545 69.2033C57.4289 67.7372 55.6342 65.7908 54.3703 63.3642C53.1064 60.887 52.4745 58.2328 52.4745 55.4017C52.4745 52.7728 52.98 50.4978 53.9912 48.5767C55.0023 46.6556 56.342 45.0883 58.0103 43.875C59.6787 42.6111 61.4987 41.6758 63.4703 41.0692C65.442 40.4625 67.3884 40.1592 69.3095 40.1592C72.545 40.1592 75.3003 40.9175 77.5753 42.4342C79.9009 43.9508 81.6703 45.8972 82.8837 48.2733C84.097 50.6495 84.7037 53.1772 84.7037 55.8567C84.7037 58.9406 83.92 61.6706 82.3528 64.0467C80.8362 66.3722 78.8139 68.1922 76.2862 69.5067C73.7584 70.7706 71.0031 71.4025 68.0203 71.4025ZM70.2953 69.81C72.3175 69.81 73.8342 68.8242 74.8453 66.8525C75.8564 64.8808 76.362 62.1003 76.362 58.5108C76.362 54.8203 75.8817 51.7364 74.9212 49.2592C74.0112 46.782 72.8231 44.9114 71.357 43.6475C69.8909 42.3836 68.3489 41.7517 66.7312 41.7517C64.7595 41.7517 63.2428 42.6364 62.1812 44.4058C61.17 46.1753 60.6645 48.9053 60.6645 52.5958C60.6645 56.0336 61.0942 59.067 61.9537 61.6959C62.8131 64.2742 63.9759 66.2711 65.442 67.6867C66.9081 69.1022 68.5259 69.81 70.2953 69.81Z" fill="#15B6A9"/>
<path d="M24.371 24.7651C21.2871 24.7651 18.6582 25.8015 16.4843 27.8743C14.361 29.8965 12.6674 32.7782 11.4035 36.5193C11.3529 36.6709 11.2013 36.7468 10.9485 36.7468C10.6957 36.6962 10.5693 36.5951 10.5693 36.4434C10.6704 35.7357 10.7716 34.7498 10.8727 33.4859C10.9738 32.1715 11.0749 30.7559 11.176 29.2393C11.3277 27.7226 11.4288 26.2565 11.4793 24.8409C11.5804 23.4254 11.631 22.2626 11.631 21.3526C11.631 21.0998 11.7574 20.9734 12.0102 20.9734C12.3135 20.9734 12.4652 21.0998 12.4652 21.3526C12.4652 21.8582 12.7179 22.2373 13.2235 22.4901C13.7796 22.6923 14.3863 22.844 15.0435 22.9451C15.7513 22.9957 16.3327 23.0209 16.7877 23.0209C21.1354 23.1726 26.2163 23.2484 32.0302 23.2484C35.5691 23.2484 38.4002 23.2232 40.5235 23.1726C42.6468 23.0715 44.6943 23.0209 46.666 23.0209C48.486 23.0209 49.851 22.9198 50.761 22.7176C51.7216 22.4648 52.3282 21.934 52.581 21.1251C52.6316 20.9229 52.7832 20.8218 53.036 20.8218C53.3393 20.8218 53.491 20.9229 53.491 21.1251C53.3899 21.934 53.2888 23.0715 53.1877 24.5376C53.1371 25.9532 53.0613 27.4698 52.9602 29.0876C52.9096 30.6548 52.8591 32.1209 52.8085 33.4859C52.7579 34.8004 52.7327 35.7862 52.7327 36.4434C52.7327 36.5951 52.6063 36.6709 52.3535 36.6709C52.1007 36.6709 51.9491 36.5951 51.8985 36.4434C51.1402 32.4496 49.6993 29.5173 47.576 27.6468C45.5032 25.7257 42.9755 24.7651 39.9927 24.7651C38.9816 24.7651 38.198 24.9168 37.6418 25.2201C37.1363 25.4729 36.7824 25.9279 36.5802 26.5851C36.4285 27.2423 36.3527 28.1523 36.3527 29.3151V64.2743C36.3527 65.7404 36.5043 66.8526 36.8077 67.6109C37.111 68.3693 37.6924 68.8748 38.5518 69.1276C39.4618 69.3804 40.8268 69.5068 42.6468 69.5068C42.7985 69.5068 42.8743 69.6584 42.8743 69.9618C42.8743 70.2651 42.7985 70.4168 42.6468 70.4168C41.2313 70.4168 39.6388 70.3915 37.8693 70.3409C36.0999 70.2904 34.1535 70.2651 32.0302 70.2651C30.0079 70.2651 28.1121 70.2904 26.3427 70.3409C24.5732 70.3915 22.9554 70.4168 21.4893 70.4168C21.3377 70.4168 21.2618 70.2651 21.2618 69.9618C21.2618 69.6584 21.3377 69.5068 21.4893 69.5068C23.2588 69.5068 24.5985 69.3804 25.5085 69.1276C26.4185 68.8748 27.0252 68.3693 27.3285 67.6109C27.6824 66.8526 27.8593 65.7404 27.8593 64.2743V29.1634C27.8593 28.0512 27.7582 27.1918 27.556 26.5851C27.4043 25.9279 27.0757 25.4729 26.5702 25.2201C26.0646 24.9168 25.3316 24.7651 24.371 24.7651Z" fill="#15B6A9"/>
<path d="M319.222 75.8333H221.808V68.12C221.808 43.68 288.888 45.4133 288.888 31.5467C288.888 27.3867 282.215 23.4867 266.355 23.4867C253.355 23.4867 241.655 25.3933 235.848 29.2933C245.295 26.6933 251.362 31.2867 251.362 37.18C251.362 43.16 245.382 46.1933 238.188 46.1933C229.868 46.1933 222.328 41.9467 222.328 33.8867C222.328 22.7933 235.848 13 270.082 13C299.982 13 318.182 21.7533 318.182 33.8867C318.182 56.68 254.395 57.72 254.395 65.4333H289.235C300.155 65.4333 305.008 61.7933 305.875 52.26H319.222V75.8333Z" fill="#15B6A9"/>
</svg>
