<svg width="109" height="48" viewBox="0 0 109 48" fill="none" xmlns="http://www.w3.org/2000/svg">
<path d="M11.5959 33.141C12.1558 33.7861 12.6293 34.3969 13.0792 35.1446C13.1674 35.3104 13.216 35.5374 13.2789 35.7085C14.1392 37.2652 14.3143 40.5508 13.586 41.7087C13.5967 42.1284 13.4939 42.3877 13.3766 42.7029C12.9312 43.8267 12.9363 44.5904 11.8299 45.4599C11.2443 45.928 10.1924 45.9419 9.60881 45.8029C8.35162 45.597 7.09999 45.0471 6.27362 44.1425C5.92975 43.7677 5.54083 43.4288 5.28705 42.982C3.76614 40.4326 3.10602 38.332 3.42095 34.9944C3.48076 34.164 3.41987 33.3859 4.06688 32.5882C4.15159 32.491 4.20029 32.3487 4.28499 32.2515C4.70137 31.6086 5.20055 31.1063 5.76095 30.6436C6.05106 30.397 6.37892 30.3269 6.66538 30.1865C7.02212 30.0047 7.42199 30.0247 7.72098 30.0663C8.78005 30.2091 9.26255 30.7388 9.95395 31.3822C10.2564 31.6868 10.6328 31.8436 10.9155 32.1788C11.1927 32.4887 11.3493 32.8509 11.5905 33.1158L11.5959 33.141ZM9.18274 31.9691C8.44614 31.731 7.88275 30.8229 6.83064 31.2061C6.65949 31.269 6.28293 31.4814 6.17301 31.584C5.85768 31.8361 5.52965 32.2754 5.76725 32.6466C5.84465 32.7619 5.95266 32.8971 6.05529 33.007C6.10747 33.1277 6.18122 33.3493 5.99564 33.4681C5.86049 33.5761 5.62273 33.5742 5.49298 33.7074C5.44793 33.7434 5.31818 33.8767 5.30374 33.9325C5.26583 34.1252 5.58067 34.981 5.64363 35.1521C6.02699 35.835 6.6716 36.3828 7.47134 36.4228C7.65866 36.4355 7.97765 36.0772 8.18306 35.9278C8.49839 35.6758 8.96679 35.5229 9.12334 35.885C9.36094 36.2562 8.95169 37.0557 8.51565 37.3599C8.42555 37.432 8.31024 37.5094 8.21475 37.5561C6.76816 37.9446 6.29836 37.2275 5.12048 36.8991C5.03403 36.8648 4.95298 36.8558 4.88271 36.8972C4.72235 37.0106 4.72218 37.3798 4.69871 37.5167C4.73994 37.9563 4.87666 38.349 5.01877 38.767C5.11044 39.1957 5.15706 39.6604 5.29917 40.0784C5.4719 40.5162 5.9831 41.3036 6.2207 41.6747C6.30888 41.8405 6.3268 42.0476 6.4456 42.2332C6.65989 42.372 6.97124 42.9648 7.03056 43.2422C7.20345 43.3107 7.44296 43.4441 7.50957 43.509C7.77604 43.7685 7.95607 43.9937 8.2568 44.1668C8.76817 44.5849 10.0704 44.7548 10.7837 44.7605C10.9818 44.8237 11.2124 44.6689 11.4179 44.5195C12.0287 44.046 12.1876 43.0626 12.4167 42.407C12.9235 40.9536 13.1351 38.9832 12.8241 37.6519C12.7702 37.3997 12.6154 37.1691 12.5615 36.9169C12.4985 36.7457 12.4355 36.5746 12.4321 36.3116C12.2538 36.2178 12.0017 35.9025 11.928 35.6809C11.865 35.5098 11.7913 35.2882 11.7535 35.1116C11.3935 34.6611 9.4113 32.4213 9.18274 31.9691Z" fill="#040000"/>
<path d="M22.9863 30.0442C22.9683 30.2064 22.9754 30.3631 22.9771 30.4946C22.9425 31.3195 22.8561 31.2853 22.5296 32.2254C22.3402 32.8197 22.0157 33.522 21.7435 33.9758C21.7612 34.5522 21.496 35.532 21.1516 36.265C21.1083 36.4325 20.9228 36.5513 20.757 36.6395C20.3354 36.8878 19.6618 36.8209 19.3791 36.4857C19.1379 36.2208 17.682 33.2355 17.5651 32.8121C17.4786 32.7779 17.3508 32.6733 17.2301 32.7255C17.2301 32.7255 17.111 33.2785 17.0388 33.5576C16.9595 33.6801 16.9 33.7719 16.7847 33.8493C16.5487 33.9789 16.3109 33.977 16.2227 33.8112C16.1903 33.6599 16.1401 33.3014 16.1582 33.1393C16.2795 31.6101 16.1539 30.5293 15.9362 30.1275C15.848 29.9618 15.7093 29.8068 15.4824 29.8553C15.2896 29.8174 15.2049 29.9146 15.0392 30.0028C14.6626 30.2152 14.5004 30.5664 14.2391 30.7014C14.0734 30.7896 13.7888 30.6922 13.706 30.5516C13.2866 29.8237 14.7748 29.1363 14.9785 28.8554C15.2362 28.4574 14.7826 27.816 14.9431 27.3333C14.6967 26.674 14.5009 25.2653 15.4397 24.7217C15.7658 24.5201 16.3224 24.533 16.4321 24.7996C16.585 25.268 16.8729 25.9977 16.9249 26.4876C17.0941 26.6624 17.2453 26.9993 17.4074 27.0174C17.6704 27.0139 18.1713 26.6431 18.4019 26.4883C18.683 26.3227 18.9856 26.258 19.0864 26.6057C19.3113 27.1642 18.0337 28.0967 17.6949 28.4856C17.5057 28.7106 17.6779 30.2562 17.7877 30.5228C17.82 30.6742 17.9425 30.7535 18.0307 30.9192C18.2718 31.5534 18.5777 32.1209 18.8386 32.7245C19.078 33.2271 19.4938 33.692 19.445 34.2036C19.6394 34.373 20.048 35.0504 20.3039 34.8902C20.4895 34.7714 20.9257 34.098 20.978 33.8494C21.1819 33.1992 21.1947 32.6427 21.4471 32.2195C21.4545 31.6377 21.7033 31.3208 21.7881 30.8543C21.9579 29.9213 21.9721 30.2347 21.9095 29.3251C21.8718 29.1485 22.1727 28.9523 22.3132 28.8695C22.6393 28.6679 22.8986 28.7707 23.075 29.1022C23.1397 29.4049 22.9775 29.756 22.9611 30.0496L22.9863 30.0442Z" fill="#040000"/>
<path d="M33.2862 26.2888C33.2391 26.9319 32.9829 27.8306 32.9071 28.216C33.0473 28.8717 32.8435 29.5219 32.7603 30.1199C32.6861 31.0061 32.6729 32.3012 31.5217 32.8374C31.2352 32.9778 31.0425 32.9399 30.884 32.8155C30.4608 32.5631 29.2582 31.1324 29.0946 30.6136C28.9471 30.1704 28.9401 29.6444 28.7656 29.0751C28.5372 28.2537 28.1231 27.9202 27.9253 27.1186C27.8498 26.7655 27.8716 26.4971 27.7366 26.2359C27.6988 26.0593 27.5746 25.8485 27.263 25.9943C26.9062 26.1761 26.5942 27.0604 26.513 27.4206C26.365 28.0852 26.0512 28.838 25.9591 29.517C25.9013 29.7403 26.0147 29.9007 25.9912 30.0376C25.9135 30.6608 25.7763 31.3758 25.6716 31.8729C25.7398 32.4385 26.0492 33.2691 25.3105 33.638C24.979 33.8144 24.6494 33.753 24.5541 33.4305C24.349 32.8414 24.4142 32.0363 24.2255 31.1536C24.0961 30.5483 23.9343 29.7917 23.6607 29.3755C23.5814 29.4979 23.6658 30.1392 23.3541 30.2849C23.1631 30.3785 22.8839 30.3064 22.7328 29.9695C22.6392 29.7785 22.5493 29.4812 22.5441 29.0867C22.7729 28.8004 22.5193 27.9844 22.5572 27.7916C22.6042 27.5179 22.4224 27.1611 22.5397 26.846C22.3113 26.0245 21.9846 23.5098 22.194 22.5156C21.9799 22.0075 22.0868 20.5342 22.3284 20.0605C22.3879 19.9687 22.6041 19.8697 22.6995 19.8229C23.5139 19.4378 24.2825 20.5658 24.4011 21.1206C24.4911 21.4179 24.6392 24.5773 24.6192 24.9772C24.6263 25.1339 24.5793 25.4077 24.4045 25.5769C24.4205 26.0218 24.0077 26.9277 24.1588 27.2646C24.2127 27.5168 24.5599 28.5239 24.8464 28.3835C25.2283 28.1963 25.6475 25.4694 27.2005 24.7154C27.8941 24.3825 28.746 24.5432 28.9367 25.1881C28.9367 25.1881 29.0896 25.6565 29.1526 25.8276C29.3846 26.5428 29.5698 27.1626 29.6686 27.748C29.9099 28.0129 30.0915 28.7389 30.1058 29.0523C30.3326 29.3731 30.4583 30.0846 30.5231 30.3873C30.7085 30.6377 31.0163 30.9675 31.2325 30.8685C31.519 30.7281 31.5663 29.7159 31.8493 29.3125C31.7919 28.7973 32.0934 27.1241 32.1548 26.7945C32.1929 26.2325 32.2221 25.3823 32.3466 24.8546C32.4205 24.7069 32.7594 24.318 32.8548 24.2712C33.0963 24.1669 33.298 24.1237 33.4168 24.3093C33.5715 24.9092 33.3855 25.7665 33.3168 26.3087L33.2862 26.2888Z" fill="#040000"/>
<path d="M39.7124 23.7792C39.2417 24.9084 38.9417 27.0824 38.6137 27.5217C38.4873 28.2872 38.1358 28.8635 37.6907 29.2487C37.5159 29.418 37.4077 29.6521 37.2329 29.8213C37.0581 29.9906 36.5464 30.3109 36.305 30.4153C35.5303 30.7392 34.9687 29.9626 34.6879 29.3897C34.5943 29.1987 34.3333 28.9644 34.2703 28.7933C34.2272 28.5915 34.2002 28.4654 34.1625 28.2889C34.0005 27.9015 33.8134 27.5196 33.7073 27.1467C33.5671 26.4909 33.3945 25.6839 33.4164 25.0463C33.2689 24.6031 33.2102 22.8486 33.3567 21.6833C33.3586 21.4455 33.4974 21.2312 33.5695 20.9521C33.6706 20.5612 34.0113 19.9345 34.4239 19.7672C35.2742 19.4272 36.0502 20.3425 36.2605 21.3261C36.5031 22.461 36.2704 23.2229 36.1908 24.0838C36.1925 24.2153 36.0302 24.5665 35.9203 24.6691C35.8607 25.1302 35.6227 25.4976 35.1488 25.9945C35.0839 26.0611 35.0298 26.1782 34.9956 26.2646C34.9469 26.4069 34.9844 26.9527 34.9916 27.1094C35.0671 27.4625 35.9507 29.2515 36.4389 29.068C36.8064 28.9367 37.3345 28.3227 37.4913 27.9463C37.7456 27.2854 37.9352 26.3218 38.3156 25.6339C38.3663 24.8846 38.7811 23.741 38.8191 23.5482C38.8768 23.3249 38.7724 23.0835 38.8302 22.8602C38.897 22.5558 39.1151 22.219 39.3817 22.1093C39.6231 22.0049 39.8878 22.1329 39.9616 22.3545C40.0929 22.722 39.927 23.1795 39.6872 23.7846L39.7124 23.7792ZM34.5168 21.4352C34.5168 21.4352 34.3114 21.5846 34.2933 21.7467C34.2065 22.451 34.3822 24.2595 34.472 24.926C34.5043 25.0774 34.6484 25.2576 34.7943 25.2C35.0861 25.0848 35.3209 23.716 35.4237 23.4566C35.332 23.0279 35.2981 22.3758 35.2353 21.8354C35.1706 21.5328 34.9798 21.2571 34.542 21.4298L34.5168 21.4352Z" fill="#040000"/>
<path d="M50.0532 19.721C49.997 20.4451 49.4436 21.4337 49.2199 22.1145C49.1081 22.4549 48.6357 23.4526 48.1942 23.7316C47.9238 24.3168 47.6012 24.7814 47.2949 24.9524C47.1994 24.9992 46.994 25.1486 46.9435 25.1594C45.8806 25.4921 45.2939 24.3517 45.1934 23.6347C45.161 23.4834 45.1936 23.2655 45.2062 23.0781L44.7625 20.5093C44.7194 20.3076 44.4082 19.3456 44.2353 19.277C43.6911 19.8154 43.3811 20.0926 42.8604 20.4941C42.7071 20.7642 42.4873 20.9694 42.2728 21.1999C42.0926 21.3439 41.9208 22.8839 41.5514 23.253C41.5064 23.289 41.2956 23.4132 41.2451 23.424C40.9929 23.4779 40.7732 23.3139 40.6797 23.1229C40.6419 22.9464 41.0532 21.5398 40.9993 21.2876C40.8645 20.6571 39.852 20.9791 39.5877 20.1125C39.4708 19.6892 39.4693 18.8192 39.4786 18.3689C39.5309 18.1203 39.5886 17.897 39.7887 17.7224C39.888 17.2 40.128 16.2257 40.6451 15.9305C40.7406 15.8837 40.8559 15.8063 40.946 15.7343C41.0469 15.7127 41.1279 15.7218 41.1837 15.7362C42.0628 15.6537 42.3437 15.8574 42.4604 16.65C42.5448 17.2913 42.4671 17.9145 42.5514 18.5558C42.5838 18.7071 42.6161 18.8584 42.8125 18.7901C42.9134 18.7685 42.9837 18.7271 43.0179 18.6407C43.2071 18.4156 43.5425 17.7637 43.6399 17.4791C43.6995 17.018 43.9827 16.2454 44.6276 16.0548C44.905 15.9955 45.3499 15.9794 45.3084 16.2784C45.3461 16.455 45.3136 16.6729 45.3567 16.8747C45.4107 17.1269 45.6231 17.5034 45.6895 17.9376C45.7866 18.3915 45.7504 18.7157 45.6655 19.1822C45.9264 19.7858 46.0251 20.7405 46.095 21.4376C46.1274 21.5889 46.0642 21.787 46.0263 21.9797C46.1449 22.5346 46.2798 23.1651 46.4993 23.6984C46.5515 23.8191 46.6487 23.9038 46.8198 23.8408C46.9459 23.8138 46.9712 23.8085 47.0252 23.6914C47.5677 23.0216 48.0058 22.1103 48.3123 21.5701C48.3233 21.2513 48.6982 20.5381 48.765 20.2338C48.9148 19.7007 48.9041 19.281 49.3331 18.82C49.4484 18.7426 49.6087 18.6292 49.7096 18.6076C49.9366 18.5591 50.2608 18.5953 50.34 18.8421C50.3146 19.2167 50.0893 19.3968 50.0225 19.7012L50.0532 19.721ZM40.9865 17.6508C40.5632 17.7677 40.5717 18.7945 40.6455 19.016C40.6832 19.1926 40.7749 19.6213 41.0271 19.5674C41.0271 19.5674 41.1118 19.4702 41.1262 19.4143C41.2092 19.1856 41.3574 18.1518 41.3448 17.9698C41.3071 17.7933 41.2586 17.5663 40.9865 17.6508Z" fill="#040000"/>
<path d="M66.6996 18.5116C65.9208 20.0495 63.8716 22.6766 63.1617 22.9339C63.1471 23.359 62.0679 23.9853 61.5905 24.2193C61.3346 24.3795 60.3978 24.6853 60.1655 24.7086C59.4737 24.8037 58.7749 24.7422 58.276 24.506C57.6259 24.3022 56.8842 23.3003 56.7908 22.7401C56.6918 22.5239 56.5767 22.232 56.5533 21.9997C56.4511 21.1512 56.6152 20.5623 56.6103 19.4293C56.6032 19.2726 56.6411 19.0799 56.6736 18.8619C56.7568 18.2639 56.8597 17.6354 56.9987 17.0518C57.0204 16.7834 57.0855 16.3476 57.271 16.2288C57.2171 15.9766 57.2227 15.6325 57.3363 15.4236C57.5509 14.8239 57.7799 14.1683 57.9189 13.5848C58.3229 12.3907 58.6332 11.375 59.2353 10.244C59.4372 9.83165 60.0625 9.30236 60.5471 9.22513C61.0623 9.16772 61.3162 9.24529 61.7808 9.56792C62.2835 9.32858 63.9978 10.4389 63.9774 11.5773C63.9736 12.0528 63.9801 13.6866 63.1569 13.7835C62.748 13.8446 62.4166 13.6517 62.4474 13.3022C62.4512 12.8267 62.8081 12.2757 62.7975 11.856C62.8176 11.0869 62.0092 10.3894 61.0851 10.5079C60.2114 10.6155 59.9928 12.0601 59.6918 12.6255C59.5998 12.9353 59.3961 13.2162 59.2843 13.5566C58.9362 14.3958 58.8458 15.2063 58.5482 16.0348C58.3138 16.6651 58.1099 17.3153 58.088 17.9529C58.0501 18.1456 58.0627 18.3276 58.059 18.4339C58.0265 18.6518 57.848 18.9273 57.8353 19.1146C57.8353 19.1146 57.9573 20.3017 57.7176 20.5376C57.9084 20.8132 57.8594 21.694 57.8594 21.694C57.9725 22.5929 58.6077 23.9604 59.9155 23.7862C60.6577 23.6803 61.6955 22.9837 62.2091 22.4255C63.0092 21.727 64.7789 19.7662 65.0549 18.8369C65.1217 18.5325 64.9958 18.1902 65.3057 17.913C65.421 17.8356 65.7435 17.7402 65.8948 17.7079C66.1218 17.6593 66.8513 17.7407 66.8998 17.9677C66.9322 18.119 66.7591 18.4198 66.7194 18.481L66.6996 18.5116Z" fill="#040000"/>
<path d="M79.6028 16.5676C78.8134 17.6858 77.1594 18.4614 76.8137 18.3244C76.4028 18.6232 75.7922 18.7274 75.2716 18.7596C75.1309 19.2116 74.8533 19.6402 74.4352 20.1516C74.2604 20.3208 72.6188 21.6476 72.3865 21.6709C72.2297 21.6781 72.0586 21.741 71.9217 21.7175C71.1129 21.7586 70.5043 21.2558 70.0992 20.8413C69.703 20.715 69.2762 20.5689 68.9737 20.2644C68.7325 19.9995 68.6065 19.6572 68.5815 19.2933C68.5691 18.7421 68.8293 16.9986 68.9736 16.4403C69.1956 15.6281 70.3203 13.8579 71.3688 13.581C71.4697 13.5594 71.8426 13.4533 71.9236 13.4624C72.1866 13.4589 72.4567 13.6121 72.6639 13.5942C73.3106 13.535 74.8904 13.2764 75.3962 14.0385C75.5474 14.3754 75.5795 14.896 75.7307 15.2329C75.8711 15.5194 76.2042 15.8438 76.1428 16.1734C76.1842 16.2436 76.1247 16.3355 76.085 16.3967C75.9156 16.5912 75.8704 16.9964 75.764 17.362C76.5583 17.3768 77.416 16.8242 77.7744 16.7739C78.124 16.4354 78.443 16.0771 78.7206 15.6486C78.8667 15.2217 79.1478 15.0561 79.5927 15.0401C79.9313 15.0205 80.0195 15.1862 80.0176 15.424C80.0228 15.8185 79.8209 16.2309 79.6028 16.5676ZM72.2349 18.2485C71.6352 18.0338 71.0591 17.3131 71.0253 16.2917L70.7966 16.2088C70.319 16.812 70.1259 17.5126 70.0644 18.2115C70.0174 18.4852 70.0731 18.8689 70.0964 19.1013C70.2511 19.7012 70.7932 19.7699 71.2524 20.0673C71.2938 20.1376 71.681 20.3449 71.8071 20.3179C71.9079 20.2963 72.0088 20.2748 72.1601 20.2424C73.0719 19.5728 73.4161 19.2091 73.809 18.7031C73.1821 18.7316 72.5986 18.5927 72.2853 18.2377L72.2349 18.2485ZM74.3224 14.6901C74.3224 14.6901 73.8595 14.499 73.6776 14.5115C72.9949 14.5256 72.5029 15.1846 72.3406 15.5358C72.4538 16.0654 72.5307 17.2885 73.7088 17.2476C73.8655 17.2405 74.1285 17.237 74.2888 17.1236C74.4889 16.949 74.6278 16.3654 74.673 15.9602C74.7346 15.2613 74.533 14.9352 74.3331 14.7405L74.3224 14.6901Z" fill="#040000"/>
<path d="M87.5084 17.2804C86.7659 18.1248 85.1529 20.0785 84.7295 20.1954C84.6322 20.4799 84.1582 20.9769 83.978 21.1209C83.3779 21.6448 81.8663 22.4691 80.9297 22.4056C80.474 22.3712 80.04 22.0684 79.9339 21.6955C79.8297 21.0848 79.7506 20.838 79.7887 20.276C79.841 20.0275 79.9132 19.7483 79.9961 19.5196C79.9638 19.3682 79.9045 19.0908 79.8883 19.0152C79.966 18.392 79.9698 17.9164 80.0836 17.3383C80.2389 16.4611 79.5741 16.6824 79.6068 16.0952C79.6431 15.4017 80.5347 15.5012 80.7333 14.4566L81.1991 12.1944C81.1991 12.1944 81.2766 11.9404 81.4622 11.8216C81.6102 11.157 82.2076 8.52387 82.6402 7.95666C82.8889 7.63975 83.17 7.47417 83.4925 7.37884C83.7754 6.97549 84.2583 6.76676 84.6834 6.78136C85.62 6.84483 85.7922 8.39039 85.6442 9.05499C84.8157 12.9507 81.7451 15.6116 81.5648 16.1249C81.5413 16.2618 81.4528 16.8345 81.2834 17.029C81.3696 17.4325 81.3874 18.0089 81.2971 18.4502C81.167 19.322 80.6618 21.2761 81.5174 21.3305C81.8362 21.3415 82.829 20.6809 83.2577 20.5892C83.5336 20.0291 85.0059 18.5275 85.305 18.1998C85.4925 17.8433 85.8602 17.3427 86.0783 17.0059C86.1522 16.8583 86.5396 16.6963 86.5829 16.5288C86.6352 16.2803 87.073 16.1076 87.3162 16.1347C87.6656 16.1655 87.7771 16.5636 87.7752 16.8014C87.777 16.9329 87.5319 17.1435 87.4832 17.2858L87.5084 17.2804ZM84.29 8.39511L84.0882 8.43825C83.5188 8.98198 82.9469 10.8712 82.7683 11.516C82.7845 11.5917 82.6888 12.0077 82.669 12.0383C82.6653 12.1446 82.8238 12.269 82.8994 12.2528C83.4616 11.9216 84.5328 9.16076 84.5258 8.63479C84.5295 8.52852 84.4521 8.4132 84.3206 8.41494L84.29 8.39511Z" fill="#040000"/>
<path d="M98.1023 18.9695C97.0878 19.8985 95.3332 20.3264 94.9964 20.1083C94.5136 20.317 93.9066 20.3149 93.4095 20.2102C93.1823 20.628 92.8075 20.9719 92.3174 21.3932C92.1066 21.5173 90.2274 22.473 90.0149 22.4657C89.8528 22.4476 89.6763 22.4853 89.534 22.4366C88.7379 22.2904 88.2446 21.7101 87.9494 21.193C87.5875 20.9803 87.1949 20.7478 86.9879 20.3965C86.7917 20.0956 86.7414 19.7371 86.7974 19.3823C86.8913 18.8347 87.5171 17.1977 87.7785 16.6934C88.1427 15.9298 89.615 14.4283 90.712 14.3783C90.8129 14.3567 91.2074 14.3515 91.2632 14.366C91.5118 14.4183 91.7368 14.6075 91.9602 14.6653C92.6086 14.7376 94.2081 14.8176 94.5481 15.6679C94.6236 16.021 94.5495 16.538 94.6304 16.9163C94.7005 17.2441 94.9634 17.6099 94.8461 17.9251C94.8623 18.0007 94.8028 18.0926 94.7326 18.134C94.5271 18.2834 94.4009 18.6796 94.208 19.0109C94.9843 19.1878 95.9355 18.8262 96.2795 18.8317C96.6957 18.5581 97.0615 18.2953 97.4309 17.9262C97.6635 17.5337 97.9859 17.4383 98.3966 17.5088C98.7262 17.5702 98.7892 17.7413 98.7368 17.9899C98.661 18.3753 98.3978 18.748 98.1131 19.0199L98.1023 18.9695ZM90.5622 19.1048C90.0166 18.7731 89.6009 17.9389 89.785 16.9501L89.5707 16.8113C88.9653 17.31 88.6552 17.9565 88.4261 18.6121C88.3486 18.866 88.2781 19.2766 88.2708 19.4892C88.3192 20.0854 88.8072 20.2712 89.2069 20.6604C89.2231 20.7361 89.576 21.0299 89.7021 21.0029C89.8138 21.0318 89.9147 21.0102 90.0768 21.0283C91.1073 20.5442 91.5235 20.2706 91.9885 19.8547C91.3851 19.7464 90.8052 19.5011 90.582 19.0741L90.5622 19.1048ZM93.3393 16.0583C93.3123 15.9322 92.936 15.7753 92.7432 15.7374C92.0588 15.62 91.4641 16.1691 91.21 16.4608C91.217 16.9868 91.0561 18.208 92.2071 18.4102C92.3692 18.4283 92.6177 18.4806 92.8087 18.3871C93.0447 18.2575 93.3007 17.728 93.4216 17.3066C93.6254 16.6564 93.4941 16.2889 93.3339 16.0331L93.3393 16.0583Z" fill="#040000"/>
<path d="M107.502 21.7324C107.069 22.2996 106.049 22.8341 105.509 23.2662C105.213 23.4876 104.28 24.0564 103.754 24.0633C103.217 24.3891 102.684 24.6086 102.334 24.5779C102.234 24.5994 101.99 24.5723 101.935 24.5579C100.863 24.2332 100.993 22.9921 101.298 22.3204C101.372 22.1727 101.521 22.0089 101.595 21.8612L102.641 19.475C102.729 19.2715 103 18.317 102.887 18.1566C102.13 18.3184 101.727 18.4047 101.069 18.4134C100.808 18.5483 100.48 18.6185 100.203 18.6778C99.9756 18.7263 98.9591 19.8931 98.48 19.9955C98.4295 20.0063 98.1864 19.9792 98.1305 19.9647C97.8766 19.8872 97.792 19.6151 97.8246 19.3972C97.8679 19.2297 99.0085 18.2737 99.0915 18.045C99.3313 17.4399 98.2957 17.1602 98.5321 16.2921C98.6529 15.8707 99.154 15.1306 99.3973 14.7885C99.5721 14.6192 99.7469 14.45 100.005 14.4213C100.369 14.027 101.124 13.3645 101.711 13.3972C101.812 13.3756 101.954 13.4243 102.08 13.3973C102.166 13.4316 102.233 13.4965 102.294 13.5361C103.069 13.9507 103.189 14.2678 102.845 15.0008C102.574 15.5861 102.151 16.0722 101.88 16.6575C101.826 16.7746 101.783 16.9421 101.956 17.0106C102.042 17.0449 102.149 17.0485 102.214 16.9819C102.486 16.8974 103.149 16.5446 103.374 16.3646C103.668 16.0117 104.354 15.522 104.974 15.706C105.253 15.7782 105.626 16.0414 105.436 16.2664C105.368 16.4393 105.218 16.6032 105.155 16.8013C105.052 17.0606 105.038 17.4857 104.856 17.8675C104.684 18.2997 104.475 18.5554 104.151 18.8885C104.023 19.5225 103.599 20.3779 103.283 20.9992C103.229 21.1162 103.055 21.2855 102.925 21.4187C102.694 21.9428 102.485 22.5677 102.366 23.1207C102.342 23.2575 102.394 23.3782 102.537 23.4269C102.648 23.4558 102.704 23.4703 102.774 23.4289C103.59 23.1752 104.479 22.6425 104.996 22.3473C105.174 22.0718 105.882 21.683 106.102 21.4778C106.497 21.1033 106.735 20.736 107.34 20.6065C107.491 20.5742 107.654 20.5923 107.771 20.6464C107.994 20.7041 108.255 20.9384 108.177 21.1923C107.954 21.5038 107.666 21.5127 107.451 21.7432L107.502 21.7324ZM101.035 15.045C100.613 14.9241 100.083 15.7759 100 16.0046C99.9317 16.1775 99.7802 16.5791 100.014 16.6873C100.014 16.6873 100.14 16.6603 100.185 16.6243C100.366 16.4803 101.069 15.6971 101.162 15.5188C101.231 15.3459 101.294 15.1478 101.035 15.045Z" fill="#040000"/>
</svg>
