<svg width="289" height="69" viewBox="0 0 289 69" fill="none" xmlns="http://www.w3.org/2000/svg">
<path d="M110.17 19V18.478L112.618 18.172H114.472L116.74 18.514V19.036L110.17 19ZM112.456 19C112.492 17.596 112.51 16.198 112.51 14.806V6.832L110.098 7.192V6.598L114.346 5.572L114.616 5.77L114.544 8.632V14.806C114.544 15.49 114.55 16.186 114.562 16.894C114.574 17.602 114.586 18.304 114.598 19H112.456ZM121.74 11.8H131.154V12.322H121.74V11.8ZM121.74 18.19H131.154V18.694H121.74V18.19ZM130.308 5.662H130.128L131.046 4.636L132.882 6.112C132.822 6.196 132.732 6.274 132.612 6.346C132.492 6.406 132.342 6.454 132.162 6.49V19.666C132.15 19.714 132.06 19.786 131.892 19.882C131.724 19.99 131.52 20.08 131.28 20.152C131.052 20.236 130.824 20.278 130.596 20.278H130.308V5.662ZM120.876 5.662V4.852L122.784 5.662H131.316V6.184H122.658V19.72C122.658 19.792 122.586 19.882 122.442 19.99C122.31 20.098 122.13 20.194 121.902 20.278C121.686 20.362 121.446 20.404 121.182 20.404H120.876V5.662ZM150.378 13.006V13.528H138.03V13.006H150.378ZM149.658 7.696L150.54 6.724L152.394 8.146C152.334 8.218 152.238 8.29 152.106 8.362C151.986 8.434 151.83 8.488 151.638 8.524V14.554C151.638 14.59 151.554 14.644 151.386 14.716C151.218 14.788 151.014 14.86 150.774 14.932C150.546 14.992 150.336 15.022 150.144 15.022H149.838V7.696H149.658ZM138.948 14.68C138.948 14.728 138.87 14.8 138.714 14.896C138.57 14.992 138.384 15.082 138.156 15.166C137.928 15.238 137.688 15.274 137.436 15.274H137.166V7.678V6.886L139.092 7.678H150.288V8.2H138.948V14.68ZM145.95 4.06C145.926 4.18 145.866 4.288 145.77 4.384C145.686 4.468 145.524 4.528 145.284 4.564V19.864C145.284 19.924 145.212 20.008 145.068 20.116C144.924 20.236 144.738 20.332 144.51 20.404C144.282 20.488 144.054 20.53 143.826 20.53H143.466V3.808L145.95 4.06ZM162.744 14.212L165.012 14.428C165 14.548 164.952 14.65 164.868 14.734C164.784 14.806 164.634 14.854 164.418 14.878V19.666H162.744V14.212ZM157.956 12.844C158.556 12.844 159.372 12.838 160.404 12.826C161.448 12.814 162.618 12.796 163.914 12.772C165.222 12.748 166.584 12.712 168 12.664V12.97C167.064 13.162 165.9 13.372 164.508 13.6C163.116 13.816 161.418 14.074 159.414 14.374C159.366 14.482 159.294 14.566 159.198 14.626C159.114 14.686 159.03 14.728 158.946 14.752L157.956 12.844ZM161.646 10.036H164.004C163.704 10.42 163.362 10.828 162.978 11.26C162.606 11.692 162.228 12.106 161.844 12.502C161.46 12.898 161.1 13.228 160.764 13.492H160.332C160.476 13.204 160.632 12.856 160.8 12.448C160.968 12.04 161.124 11.62 161.268 11.188C161.424 10.756 161.55 10.372 161.646 10.036ZM157.416 10.036H167.586L168.576 8.866C168.576 8.866 168.636 8.914 168.756 9.01C168.876 9.094 169.032 9.208 169.224 9.352C169.416 9.496 169.614 9.646 169.818 9.802C170.022 9.958 170.214 10.114 170.394 10.27C170.346 10.462 170.184 10.558 169.908 10.558H157.578L157.416 10.036ZM158.046 16.282H167.01L167.964 15.112C167.964 15.112 168.06 15.19 168.252 15.346C168.456 15.49 168.696 15.67 168.972 15.886C169.248 16.102 169.494 16.312 169.71 16.516C169.662 16.708 169.5 16.804 169.224 16.804H158.19L158.046 16.282ZM156.66 19.306H168.018L169.026 17.992C169.026 17.992 169.086 18.04 169.206 18.136C169.326 18.232 169.476 18.358 169.656 18.514C169.848 18.67 170.046 18.838 170.25 19.018C170.454 19.198 170.64 19.372 170.808 19.54C170.76 19.72 170.598 19.81 170.322 19.81H156.822L156.66 19.306ZM156.912 4.924H168.324V5.428H156.912V4.924ZM156.948 7.894H168.396V8.416H156.948V7.894ZM167.478 4.924H167.298L168.126 4.006L169.944 5.374C169.896 5.446 169.806 5.518 169.674 5.59C169.542 5.65 169.386 5.698 169.206 5.734V8.578C169.206 8.602 169.122 8.65 168.954 8.722C168.786 8.794 168.588 8.854 168.36 8.902C168.144 8.95 167.946 8.974 167.766 8.974H167.478V4.924ZM156.21 4.924V4.744V4.168L158.226 4.924H157.938V9.424C157.938 10.288 157.908 11.2 157.848 12.16C157.788 13.12 157.638 14.092 157.398 15.076C157.17 16.06 156.804 17.014 156.3 17.938C155.796 18.862 155.112 19.714 154.248 20.494L154.014 20.332C154.686 19.252 155.172 18.1 155.472 16.876C155.784 15.652 155.982 14.41 156.066 13.15C156.162 11.878 156.21 10.636 156.21 9.424V4.924ZM165.228 11.26C166.152 11.332 166.914 11.482 167.514 11.71C168.126 11.926 168.594 12.184 168.918 12.484C169.254 12.772 169.47 13.066 169.566 13.366C169.674 13.654 169.686 13.906 169.602 14.122C169.53 14.338 169.386 14.494 169.17 14.59C168.954 14.674 168.696 14.65 168.396 14.518C168.204 14.146 167.922 13.768 167.55 13.384C167.178 13 166.77 12.64 166.326 12.304C165.894 11.956 165.48 11.668 165.084 11.44L165.228 11.26ZM175.92 6.904H180.006V7.426H175.794L175.92 6.904ZM174.696 9.892C175.488 10.084 176.118 10.324 176.586 10.612C177.054 10.9 177.39 11.2 177.594 11.512C177.81 11.812 177.918 12.1 177.918 12.376C177.93 12.652 177.864 12.88 177.72 13.06C177.576 13.228 177.39 13.33 177.162 13.366C176.934 13.39 176.688 13.3 176.424 13.096C176.352 12.736 176.214 12.37 176.01 11.998C175.806 11.626 175.572 11.272 175.308 10.936C175.044 10.588 174.78 10.282 174.516 10.018L174.696 9.892ZM179.376 6.904H179.178L180.132 5.878L181.86 7.444C181.788 7.528 181.698 7.594 181.59 7.642C181.494 7.678 181.338 7.708 181.122 7.732C180.894 9.04 180.582 10.318 180.186 11.566C179.79 12.802 179.25 13.978 178.566 15.094C177.894 16.198 177.036 17.212 175.992 18.136C174.96 19.048 173.688 19.834 172.176 20.494L171.978 20.278C173.154 19.534 174.168 18.676 175.02 17.704C175.884 16.72 176.604 15.652 177.18 14.5C177.768 13.348 178.236 12.13 178.584 10.846C178.944 9.562 179.208 8.248 179.376 6.904ZM183.21 4.06L185.604 4.312C185.58 4.432 185.526 4.54 185.442 4.636C185.358 4.72 185.196 4.78 184.956 4.816V19.954C184.956 20.002 184.884 20.074 184.74 20.17C184.596 20.266 184.416 20.344 184.2 20.404C183.996 20.464 183.786 20.494 183.57 20.494H183.21V4.06ZM181.59 8.272C182.034 9.268 182.64 10.168 183.408 10.972C184.176 11.776 185.058 12.454 186.054 13.006C187.05 13.558 188.094 13.972 189.186 14.248L189.15 14.446C188.814 14.518 188.52 14.692 188.268 14.968C188.016 15.244 187.836 15.598 187.728 16.03C186.648 15.574 185.694 14.992 184.866 14.284C184.05 13.576 183.348 12.73 182.76 11.746C182.172 10.762 181.698 9.64 181.338 8.38L181.59 8.272ZM175.776 3.862L178.26 4.474C178.224 4.594 178.146 4.69 178.026 4.762C177.918 4.834 177.762 4.876 177.558 4.888C177.006 6.892 176.274 8.644 175.362 10.144C174.462 11.644 173.388 12.88 172.14 13.852L171.924 13.69C172.512 12.91 173.058 12.004 173.562 10.972C174.066 9.94 174.51 8.824 174.894 7.624C175.278 6.412 175.572 5.158 175.776 3.862ZM193.758 19.648C193.566 19.648 193.374 19.576 193.182 19.432C193.002 19.3 192.84 19.126 192.696 18.91C192.492 18.622 192.306 18.274 192.138 17.866C191.982 17.446 191.856 16.972 191.76 16.444C191.664 15.904 191.616 15.322 191.616 14.698C191.616 14.074 191.664 13.48 191.76 12.916C191.856 12.34 191.964 11.806 192.084 11.314C192.216 10.822 192.33 10.396 192.426 10.036C192.546 9.604 192.648 9.208 192.732 8.848C192.816 8.476 192.858 8.116 192.858 7.768C192.87 7.396 192.78 7.036 192.588 6.688C192.396 6.34 192.168 6.022 191.904 5.734L192.138 5.518C192.378 5.59 192.588 5.674 192.768 5.77C192.96 5.854 193.146 5.962 193.326 6.094C193.494 6.214 193.686 6.388 193.902 6.616C194.118 6.832 194.304 7.084 194.46 7.372C194.628 7.648 194.712 7.942 194.712 8.254C194.712 8.482 194.652 8.716 194.532 8.956C194.412 9.184 194.244 9.526 194.028 9.982C193.836 10.354 193.644 10.78 193.452 11.26C193.26 11.728 193.098 12.232 192.966 12.772C192.834 13.3 192.768 13.834 192.768 14.374C192.768 14.746 192.786 15.034 192.822 15.238C192.87 15.43 192.924 15.58 192.984 15.688C193.104 15.952 193.248 15.958 193.416 15.706C193.524 15.538 193.656 15.31 193.812 15.022C193.98 14.734 194.148 14.416 194.316 14.068C194.496 13.72 194.67 13.384 194.838 13.06C195.006 12.724 195.144 12.442 195.252 12.214L195.648 12.394C195.564 12.634 195.456 12.916 195.324 13.24C195.204 13.564 195.078 13.894 194.946 14.23C194.826 14.554 194.712 14.854 194.604 15.13C194.508 15.406 194.436 15.628 194.388 15.796C194.316 16.12 194.256 16.39 194.208 16.606C194.16 16.822 194.136 17.002 194.136 17.146C194.136 17.446 194.196 17.74 194.316 18.028C194.436 18.316 194.496 18.586 194.496 18.838C194.496 19.378 194.25 19.648 193.758 19.648ZM202.128 18.676C201.084 18.676 200.214 18.544 199.518 18.28C198.834 18.016 198.3 17.644 197.916 17.164C197.532 16.684 197.274 16.114 197.142 15.454C197.082 15.178 197.046 14.908 197.034 14.644C197.022 14.38 197.022 14.134 197.034 13.906L197.376 13.852C197.436 14.068 197.502 14.314 197.574 14.59C197.658 14.854 197.754 15.088 197.862 15.292C198.09 15.676 198.354 15.994 198.654 16.246C198.954 16.498 199.344 16.69 199.824 16.822C200.304 16.942 200.916 17.002 201.66 17.002C202.284 17.002 202.788 16.972 203.172 16.912C203.568 16.852 203.88 16.798 204.108 16.75C204.336 16.69 204.516 16.66 204.648 16.66C204.864 16.66 205.068 16.69 205.26 16.75C205.464 16.81 205.632 16.9 205.764 17.02C205.896 17.14 205.962 17.296 205.962 17.488C205.962 17.812 205.782 18.058 205.422 18.226C205.074 18.394 204.612 18.514 204.036 18.586C203.46 18.646 202.824 18.676 202.128 18.676ZM199.644 10.522C199.92 10.306 200.202 10.084 200.49 9.856C200.79 9.628 201.06 9.412 201.3 9.208C201.552 9.004 201.732 8.848 201.84 8.74C201.912 8.656 201.948 8.59 201.948 8.542C201.948 8.482 201.864 8.44 201.696 8.416C201.54 8.38 201.246 8.362 200.814 8.362C200.502 8.362 200.088 8.398 199.572 8.47C199.068 8.53 198.438 8.668 197.682 8.884L197.538 8.524C198.018 8.176 198.516 7.9 199.032 7.696C199.56 7.48 200.082 7.324 200.598 7.228C201.126 7.132 201.606 7.084 202.038 7.084C202.662 7.084 203.166 7.12 203.55 7.192C203.934 7.252 204.276 7.36 204.576 7.516C204.816 7.636 204.978 7.774 205.062 7.93C205.158 8.074 205.206 8.212 205.206 8.344C205.206 8.524 205.158 8.662 205.062 8.758C204.966 8.854 204.816 8.926 204.612 8.974C204.36 9.01 204.09 9.046 203.802 9.082C203.526 9.118 203.22 9.19 202.884 9.298C202.62 9.406 202.314 9.544 201.966 9.712C201.618 9.868 201.264 10.042 200.904 10.234C200.556 10.426 200.226 10.618 199.914 10.81L199.644 10.522ZM114.976 41.46C114.616 41.304 114.25 41.088 113.878 40.812C113.506 40.524 113.158 40.164 112.834 39.732C112.51 39.3 112.24 38.79 112.024 38.202C111.808 37.602 111.682 36.912 111.646 36.132C111.61 35.448 111.61 34.764 111.646 34.08C111.694 33.396 111.718 32.79 111.718 32.262C111.718 31.926 111.676 31.626 111.592 31.362C111.508 31.098 111.364 30.846 111.16 30.606C110.956 30.354 110.674 30.09 110.314 29.814L110.44 29.58C110.668 29.592 110.908 29.616 111.16 29.652C111.424 29.676 111.67 29.736 111.898 29.832C112.162 29.952 112.432 30.126 112.708 30.354C112.996 30.57 113.236 30.816 113.428 31.092C113.62 31.368 113.716 31.638 113.716 31.902C113.716 32.118 113.674 32.352 113.59 32.604C113.506 32.844 113.41 33.12 113.302 33.432C113.206 33.744 113.116 34.104 113.032 34.512C112.948 34.908 112.906 35.37 112.906 35.898C112.906 36.522 112.99 37.056 113.158 37.5C113.338 37.944 113.548 38.298 113.788 38.562C114.04 38.826 114.274 39.012 114.49 39.12C114.622 39.18 114.742 39.204 114.85 39.192C114.97 39.168 115.072 39.096 115.156 38.976C115.456 38.556 115.756 38.058 116.056 37.482C116.368 36.894 116.668 36.312 116.956 35.736L117.37 35.916C117.238 36.348 117.1 36.792 116.956 37.248C116.824 37.704 116.71 38.118 116.614 38.49C116.518 38.862 116.458 39.15 116.434 39.354C116.398 39.666 116.398 39.9 116.434 40.056C116.482 40.2 116.524 40.32 116.56 40.416C116.608 40.512 116.632 40.644 116.632 40.812C116.632 41.16 116.476 41.406 116.164 41.55C115.852 41.682 115.456 41.652 114.976 41.46ZM124.552 38.436C124.384 38.436 124.228 38.382 124.084 38.274C123.94 38.166 123.838 37.998 123.778 37.77C123.718 37.506 123.664 37.2 123.616 36.852C123.58 36.492 123.514 36.102 123.418 35.682C123.322 35.262 123.166 34.818 122.95 34.35C122.686 33.738 122.314 33.204 121.834 32.748C121.366 32.292 120.796 31.92 120.124 31.632L120.25 31.272C121.15 31.368 121.882 31.566 122.446 31.866C123.01 32.166 123.526 32.55 123.994 33.018C124.354 33.366 124.648 33.768 124.876 34.224C125.116 34.668 125.29 35.13 125.398 35.61C125.518 36.09 125.578 36.552 125.578 36.996C125.578 37.464 125.494 37.824 125.326 38.076C125.17 38.316 124.912 38.436 124.552 38.436ZM136.162 42.954C135.19 42.954 134.44 42.738 133.912 42.306C133.384 41.886 133.12 41.37 133.12 40.758C133.12 40.29 133.276 39.858 133.588 39.462C133.9 39.066 134.35 38.748 134.938 38.508C135.526 38.268 136.24 38.148 137.08 38.148C138.1 38.148 138.982 38.286 139.726 38.562C140.482 38.838 141.106 39.132 141.598 39.444C142.114 39.732 142.516 40.038 142.804 40.362C143.092 40.686 143.236 41.01 143.236 41.334C143.236 41.61 143.17 41.814 143.038 41.946C142.906 42.078 142.75 42.144 142.57 42.144C142.414 42.144 142.276 42.102 142.156 42.018C142.048 41.934 141.928 41.826 141.796 41.694C141.664 41.55 141.502 41.394 141.31 41.226C140.938 40.878 140.506 40.548 140.014 40.236C139.534 39.924 138.982 39.672 138.358 39.48C137.734 39.288 137.014 39.192 136.198 39.192C135.43 39.192 134.854 39.33 134.47 39.606C134.098 39.882 133.912 40.17 133.912 40.47C133.912 40.782 134.056 41.04 134.344 41.244C134.632 41.448 135.094 41.55 135.73 41.55C136.222 41.55 136.618 41.478 136.918 41.334C137.23 41.19 137.452 40.986 137.584 40.722C137.728 40.458 137.8 40.152 137.8 39.804C137.812 39.456 137.8 39.078 137.764 38.67C137.74 38.25 137.716 37.836 137.692 37.428C137.668 37.008 137.656 36.624 137.656 36.276C137.656 35.724 137.716 35.256 137.836 34.872C137.968 34.488 138.172 34.146 138.448 33.846C138.772 33.486 139.126 33.21 139.51 33.018C139.906 32.826 140.248 32.652 140.536 32.496C140.644 32.424 140.686 32.34 140.662 32.244C140.638 32.148 140.566 32.052 140.446 31.956C140.23 31.776 139.954 31.644 139.618 31.56C139.282 31.464 138.916 31.404 138.52 31.38V31.002C139 30.882 139.474 30.834 139.942 30.858C140.422 30.87 140.836 30.936 141.184 31.056C141.772 31.248 142.228 31.524 142.552 31.884C142.876 32.244 143.038 32.646 143.038 33.09C143.038 33.342 142.984 33.552 142.876 33.72C142.78 33.876 142.612 33.954 142.372 33.954C142.18 33.954 141.994 33.918 141.814 33.846C141.634 33.774 141.442 33.702 141.238 33.63C141.034 33.558 140.782 33.528 140.482 33.54C140.194 33.564 139.912 33.63 139.636 33.738C139.36 33.834 139.144 33.984 138.988 34.188C138.82 34.38 138.724 34.62 138.7 34.908C138.688 35.196 138.694 35.514 138.718 35.862C138.742 36.09 138.784 36.396 138.844 36.78C138.916 37.152 138.982 37.56 139.042 38.004C139.114 38.448 139.174 38.892 139.222 39.336C139.282 39.78 139.312 40.182 139.312 40.542C139.312 41.31 139.03 41.904 138.466 42.324C137.914 42.744 137.146 42.954 136.162 42.954ZM129.592 40.308C129.34 40.308 129.148 40.206 129.016 40.002C128.884 39.786 128.818 39.558 128.818 39.318C128.818 39.126 128.848 38.952 128.908 38.796C128.968 38.64 129.07 38.466 129.214 38.274C129.622 37.758 130.042 37.176 130.474 36.528C130.906 35.88 131.314 35.166 131.698 34.386C132.082 33.606 132.406 32.772 132.67 31.884C132.766 31.56 132.85 31.242 132.922 30.93C132.994 30.618 133.054 30.318 133.102 30.03C133.15 29.742 133.174 29.49 133.174 29.274C133.186 29.082 133.156 28.932 133.084 28.824C133.024 28.704 132.916 28.602 132.76 28.518C132.616 28.422 132.472 28.35 132.328 28.302C132.184 28.242 132.058 28.194 131.95 28.158V27.888C132.106 27.816 132.304 27.75 132.544 27.69C132.796 27.618 133.03 27.582 133.246 27.582C133.546 27.582 133.828 27.618 134.092 27.69C134.368 27.762 134.59 27.864 134.758 27.996C134.854 28.056 134.908 28.146 134.92 28.266C134.944 28.386 134.932 28.56 134.884 28.788C134.836 29.016 134.752 29.322 134.632 29.706C134.524 30.09 134.374 30.588 134.182 31.2C134.098 31.476 133.978 31.854 133.822 32.334C133.666 32.814 133.474 33.348 133.246 33.936C133.03 34.524 132.79 35.136 132.526 35.772C132.262 36.408 131.974 37.038 131.662 37.662C131.35 38.274 131.026 38.838 130.69 39.354C130.51 39.642 130.336 39.876 130.168 40.056C130 40.224 129.808 40.308 129.592 40.308ZM131.176 32.478C130.696 32.478 130.294 32.418 129.97 32.298C129.646 32.166 129.37 31.944 129.142 31.632C128.926 31.308 128.734 30.87 128.566 30.318L128.836 30.12C129.1 30.324 129.34 30.504 129.556 30.66C129.784 30.816 130.03 30.936 130.294 31.02C130.57 31.104 130.906 31.146 131.302 31.146C131.578 31.146 131.866 31.128 132.166 31.092C132.466 31.044 132.748 30.99 133.012 30.93C133.288 30.858 133.516 30.804 133.696 30.768C134.38 30.576 134.908 30.402 135.28 30.246C135.652 30.078 135.928 29.946 136.108 29.85C136.3 29.754 136.45 29.706 136.558 29.706C136.762 29.706 136.948 29.772 137.116 29.904C137.284 30.024 137.368 30.198 137.368 30.426C137.368 30.606 137.302 30.756 137.17 30.876C137.05 30.996 136.924 31.104 136.792 31.2C136.528 31.344 136.18 31.494 135.748 31.65C135.316 31.806 134.836 31.95 134.308 32.082C133.792 32.202 133.264 32.298 132.724 32.37C132.184 32.442 131.668 32.478 131.176 32.478ZM156.304 43.206C156.1 43.206 155.92 43.152 155.764 43.044C155.62 42.936 155.506 42.804 155.422 42.648C155.314 42.468 155.2 42.258 155.08 42.018C154.96 41.778 154.78 41.466 154.54 41.082C154.156 40.482 153.616 39.834 152.92 39.138C152.224 38.442 151.342 37.638 150.274 36.726C150.046 36.534 149.872 36.336 149.752 36.132C149.644 35.928 149.59 35.736 149.59 35.556C149.59 35.388 149.632 35.22 149.716 35.052C149.812 34.872 149.944 34.686 150.112 34.494C150.304 34.266 150.544 33.99 150.832 33.666C151.132 33.342 151.456 32.994 151.804 32.622C152.164 32.25 152.512 31.884 152.848 31.524C153.184 31.152 153.49 30.816 153.766 30.516C154.042 30.204 154.258 29.952 154.414 29.76C154.558 29.58 154.66 29.436 154.72 29.328C154.78 29.208 154.81 29.094 154.81 28.986C154.81 28.806 154.726 28.614 154.558 28.41C154.402 28.194 154.168 27.966 153.856 27.726L154.054 27.438C154.294 27.462 154.528 27.498 154.756 27.546C154.984 27.594 155.194 27.672 155.386 27.78C155.686 27.924 155.956 28.116 156.196 28.356C156.436 28.584 156.634 28.818 156.79 29.058C156.946 29.298 157.024 29.514 157.024 29.706C157.024 29.862 156.976 29.994 156.88 30.102C156.784 30.198 156.652 30.3 156.484 30.408C156.316 30.516 156.106 30.66 155.854 30.84C155.542 31.068 155.182 31.35 154.774 31.686C154.366 32.01 153.952 32.352 153.532 32.712C153.124 33.06 152.746 33.39 152.398 33.702C152.05 34.002 151.786 34.248 151.606 34.44C151.354 34.692 151.18 34.884 151.084 35.016C151 35.148 150.958 35.268 150.958 35.376C150.958 35.496 151.012 35.622 151.12 35.754C151.24 35.874 151.396 36.006 151.588 36.15C152.188 36.594 152.776 37.026 153.352 37.446C153.94 37.866 154.498 38.304 155.026 38.76C155.554 39.216 156.028 39.708 156.448 40.236C156.736 40.596 156.952 40.938 157.096 41.262C157.24 41.574 157.312 41.874 157.312 42.162C157.312 42.342 157.276 42.51 157.204 42.666C157.144 42.834 157.036 42.966 156.88 43.062C156.736 43.158 156.544 43.206 156.304 43.206ZM175.978 42.252C175.57 42.252 175.132 42.228 174.664 42.18C174.208 42.132 173.752 42.042 173.296 41.91C172.852 41.778 172.438 41.58 172.054 41.316C171.454 40.908 170.986 40.386 170.65 39.75C170.314 39.114 170.146 38.25 170.146 37.158C170.146 36.366 170.254 35.592 170.47 34.836C170.686 34.08 171.016 33.372 171.46 32.712C171.916 32.052 172.48 31.482 173.152 31.002C173.224 30.942 173.254 30.894 173.242 30.858C173.23 30.822 173.176 30.816 173.08 30.84C172.396 30.996 171.682 31.188 170.938 31.416C170.194 31.644 169.51 31.878 168.886 32.118C168.262 32.358 167.77 32.574 167.41 32.766C167.23 32.862 167.044 32.982 166.852 33.126C166.66 33.258 166.45 33.324 166.222 33.324C166.03 33.324 165.826 33.27 165.61 33.162C165.394 33.042 165.184 32.892 164.98 32.712C164.788 32.532 164.626 32.34 164.494 32.136C164.362 31.932 164.284 31.734 164.26 31.542C164.236 31.362 164.236 31.188 164.26 31.02C164.284 30.84 164.302 30.678 164.314 30.534L164.584 30.444C164.728 30.672 164.902 30.882 165.106 31.074C165.31 31.266 165.52 31.362 165.736 31.362C165.988 31.362 166.354 31.32 166.834 31.236C167.314 31.14 167.872 31.014 168.508 30.858C169.144 30.702 169.828 30.534 170.56 30.354C171.304 30.162 172.06 29.976 172.828 29.796C173.488 29.628 174.1 29.484 174.664 29.364C175.24 29.244 175.738 29.148 176.158 29.076C176.578 28.992 176.884 28.95 177.076 28.95C177.328 28.95 177.58 28.968 177.832 29.004C178.084 29.04 178.306 29.106 178.498 29.202C178.714 29.31 178.888 29.43 179.02 29.562C179.152 29.694 179.218 29.862 179.218 30.066C179.218 30.246 179.146 30.402 179.002 30.534C178.858 30.654 178.66 30.714 178.408 30.714C178.192 30.714 177.946 30.708 177.67 30.696C177.406 30.672 177.124 30.66 176.824 30.66C176.404 30.66 175.924 30.702 175.384 30.786C174.856 30.858 174.358 31.056 173.89 31.38C173.71 31.488 173.488 31.674 173.224 31.938C172.96 32.202 172.696 32.55 172.432 32.982C172.18 33.414 171.964 33.936 171.784 34.548C171.616 35.148 171.532 35.862 171.532 36.69C171.532 37.374 171.616 37.926 171.784 38.346C171.952 38.754 172.15 39.078 172.378 39.318C172.618 39.546 172.852 39.726 173.08 39.858C173.44 40.05 173.83 40.182 174.25 40.254C174.67 40.326 175.066 40.362 175.438 40.362C175.81 40.362 176.092 40.362 176.284 40.362C176.464 40.362 176.65 40.41 176.842 40.506C177.034 40.602 177.196 40.728 177.328 40.884C177.46 41.04 177.526 41.214 177.526 41.406C177.526 41.622 177.454 41.796 177.31 41.928C177.166 42.048 176.974 42.132 176.734 42.18C176.506 42.228 176.254 42.252 175.978 42.252ZM191.206 42.414C190.666 42.414 190.168 42.324 189.712 42.144C189.268 41.976 188.908 41.724 188.632 41.388C188.356 41.052 188.218 40.644 188.218 40.164C188.218 39.6 188.386 39.144 188.722 38.796C189.07 38.436 189.526 38.172 190.09 38.004C190.666 37.836 191.29 37.752 191.962 37.752C192.934 37.752 193.768 37.86 194.464 38.076C195.172 38.292 195.766 38.55 196.246 38.85C196.726 39.15 197.104 39.438 197.38 39.714C197.572 39.894 197.716 40.08 197.812 40.272C197.92 40.452 197.974 40.638 197.974 40.83C197.974 41.082 197.914 41.28 197.794 41.424C197.686 41.556 197.524 41.622 197.308 41.622C197.14 41.622 196.978 41.562 196.822 41.442C196.678 41.322 196.48 41.142 196.228 40.902C195.748 40.446 195.25 40.062 194.734 39.75C194.218 39.438 193.666 39.204 193.078 39.048C192.49 38.88 191.848 38.796 191.152 38.796C190.804 38.796 190.462 38.85 190.126 38.958C189.802 39.054 189.532 39.192 189.316 39.372C189.112 39.552 189.01 39.774 189.01 40.038C189.01 40.41 189.178 40.68 189.514 40.848C189.862 41.004 190.276 41.082 190.756 41.082C191.392 41.082 191.866 41.01 192.178 40.866C192.502 40.71 192.724 40.488 192.844 40.2C192.976 39.9 193.042 39.528 193.042 39.084C193.042 38.832 193.03 38.502 193.006 38.094C192.982 37.686 192.958 37.236 192.934 36.744C192.91 36.24 192.886 35.724 192.862 35.196C192.838 34.656 192.826 34.146 192.826 33.666C192.826 33.27 192.826 32.838 192.826 32.37C192.826 31.902 192.826 31.464 192.826 31.056C192.826 30.636 192.826 30.318 192.826 30.102C192.826 29.898 192.808 29.748 192.772 29.652C192.748 29.556 192.706 29.484 192.646 29.436C192.598 29.388 192.52 29.346 192.412 29.31C192.232 29.25 192.028 29.202 191.8 29.166C191.584 29.13 191.362 29.1 191.134 29.076L191.098 28.752C191.302 28.62 191.542 28.5 191.818 28.392C192.106 28.272 192.364 28.212 192.592 28.212C192.928 28.212 193.252 28.266 193.564 28.374C193.888 28.482 194.152 28.614 194.356 28.77C194.56 28.926 194.662 29.082 194.662 29.238C194.662 29.37 194.644 29.49 194.608 29.598C194.584 29.694 194.548 29.808 194.5 29.94C194.452 30.072 194.41 30.258 194.374 30.498C194.326 30.714 194.284 30.99 194.248 31.326C194.212 31.662 194.182 32.034 194.158 32.442C194.146 32.85 194.14 33.264 194.14 33.684C194.14 34.608 194.17 35.466 194.23 36.258C194.29 37.038 194.35 37.74 194.41 38.364C194.482 38.988 194.518 39.504 194.518 39.912C194.518 40.428 194.404 40.878 194.176 41.262C193.948 41.634 193.588 41.916 193.096 42.108C192.616 42.312 191.986 42.414 191.206 42.414ZM185.014 42.828C184.81 42.828 184.618 42.756 184.438 42.612C184.27 42.48 184.108 42.3 183.952 42.072C183.76 41.796 183.58 41.442 183.412 41.01C183.244 40.578 183.106 40.086 182.998 39.534C182.902 38.97 182.854 38.358 182.854 37.698C182.854 37.074 182.902 36.456 182.998 35.844C183.106 35.22 183.22 34.644 183.34 34.116C183.472 33.576 183.586 33.126 183.682 32.766C183.802 32.334 183.904 31.938 183.988 31.578C184.072 31.206 184.114 30.846 184.114 30.498C184.126 30.126 184.03 29.766 183.826 29.418C183.634 29.07 183.406 28.74 183.142 28.428L183.358 28.23C183.622 28.302 183.838 28.38 184.006 28.464C184.186 28.536 184.372 28.644 184.564 28.788C184.732 28.884 184.924 29.052 185.14 29.292C185.356 29.532 185.548 29.802 185.716 30.102C185.884 30.39 185.968 30.684 185.968 30.984C185.968 31.212 185.902 31.44 185.77 31.668C185.65 31.896 185.482 32.244 185.266 32.712C185.086 33.084 184.894 33.528 184.69 34.044C184.486 34.56 184.312 35.118 184.168 35.718C184.036 36.306 183.97 36.9 183.97 37.5C183.97 37.872 183.994 38.178 184.042 38.418C184.09 38.658 184.15 38.856 184.222 39.012C184.282 39.132 184.348 39.198 184.42 39.21C184.504 39.21 184.588 39.144 184.672 39.012C184.78 38.856 184.912 38.622 185.068 38.31C185.224 37.998 185.392 37.656 185.572 37.284C185.752 36.912 185.926 36.552 186.094 36.204C186.262 35.844 186.4 35.55 186.508 35.322L186.922 35.52C186.838 35.76 186.736 36.048 186.616 36.384C186.496 36.708 186.376 37.044 186.256 37.392C186.136 37.728 186.022 38.04 185.914 38.328C185.818 38.604 185.746 38.826 185.698 38.994C185.614 39.33 185.548 39.6 185.5 39.804C185.464 40.008 185.446 40.182 185.446 40.326C185.446 40.626 185.494 40.92 185.59 41.208C185.698 41.484 185.752 41.754 185.752 42.018C185.752 42.558 185.506 42.828 185.014 42.828ZM190.972 33.63C190.588 33.63 190.234 33.594 189.91 33.522C189.598 33.438 189.292 33.258 188.992 32.982C188.692 32.706 188.386 32.28 188.074 31.704L188.308 31.488C188.716 31.764 189.118 31.98 189.514 32.136C189.922 32.28 190.342 32.352 190.774 32.352C191.35 32.352 191.884 32.316 192.376 32.244C192.868 32.172 193.306 32.082 193.69 31.974C194.074 31.854 194.398 31.746 194.662 31.65C195.19 31.47 195.568 31.326 195.796 31.218C196.024 31.098 196.174 31.038 196.246 31.038C196.51 31.05 196.774 31.122 197.038 31.254C197.302 31.374 197.434 31.548 197.434 31.776C197.434 32.016 197.356 32.196 197.2 32.316C197.056 32.424 196.798 32.55 196.426 32.694C196.222 32.766 195.916 32.862 195.508 32.982C195.112 33.09 194.662 33.192 194.158 33.288C193.654 33.384 193.126 33.468 192.574 33.54C192.022 33.6 191.488 33.63 190.972 33.63ZM208.162 42.954C207.19 42.954 206.44 42.738 205.912 42.306C205.384 41.886 205.12 41.37 205.12 40.758C205.12 40.29 205.276 39.858 205.588 39.462C205.9 39.066 206.35 38.748 206.938 38.508C207.526 38.268 208.24 38.148 209.08 38.148C210.1 38.148 210.982 38.286 211.726 38.562C212.482 38.838 213.106 39.132 213.598 39.444C214.114 39.732 214.516 40.038 214.804 40.362C215.092 40.686 215.236 41.01 215.236 41.334C215.236 41.61 215.17 41.814 215.038 41.946C214.906 42.078 214.75 42.144 214.57 42.144C214.414 42.144 214.276 42.102 214.156 42.018C214.048 41.934 213.928 41.826 213.796 41.694C213.664 41.55 213.502 41.394 213.31 41.226C212.938 40.878 212.506 40.548 212.014 40.236C211.534 39.924 210.982 39.672 210.358 39.48C209.734 39.288 209.014 39.192 208.198 39.192C207.43 39.192 206.854 39.33 206.47 39.606C206.098 39.882 205.912 40.17 205.912 40.47C205.912 40.782 206.056 41.04 206.344 41.244C206.632 41.448 207.094 41.55 207.73 41.55C208.222 41.55 208.618 41.478 208.918 41.334C209.23 41.19 209.452 40.986 209.584 40.722C209.728 40.458 209.8 40.152 209.8 39.804C209.812 39.456 209.8 39.078 209.764 38.67C209.74 38.25 209.716 37.836 209.692 37.428C209.668 37.008 209.656 36.624 209.656 36.276C209.656 35.724 209.716 35.256 209.836 34.872C209.968 34.488 210.172 34.146 210.448 33.846C210.772 33.486 211.126 33.21 211.51 33.018C211.906 32.826 212.248 32.652 212.536 32.496C212.644 32.424 212.686 32.34 212.662 32.244C212.638 32.148 212.566 32.052 212.446 31.956C212.23 31.776 211.954 31.644 211.618 31.56C211.282 31.464 210.916 31.404 210.52 31.38V31.002C211 30.882 211.474 30.834 211.942 30.858C212.422 30.87 212.836 30.936 213.184 31.056C213.772 31.248 214.228 31.524 214.552 31.884C214.876 32.244 215.038 32.646 215.038 33.09C215.038 33.342 214.984 33.552 214.876 33.72C214.78 33.876 214.612 33.954 214.372 33.954C214.18 33.954 213.994 33.918 213.814 33.846C213.634 33.774 213.442 33.702 213.238 33.63C213.034 33.558 212.782 33.528 212.482 33.54C212.194 33.564 211.912 33.63 211.636 33.738C211.36 33.834 211.144 33.984 210.988 34.188C210.82 34.38 210.724 34.62 210.7 34.908C210.688 35.196 210.694 35.514 210.718 35.862C210.742 36.09 210.784 36.396 210.844 36.78C210.916 37.152 210.982 37.56 211.042 38.004C211.114 38.448 211.174 38.892 211.222 39.336C211.282 39.78 211.312 40.182 211.312 40.542C211.312 41.31 211.03 41.904 210.466 42.324C209.914 42.744 209.146 42.954 208.162 42.954ZM201.592 40.308C201.34 40.308 201.148 40.206 201.016 40.002C200.884 39.786 200.818 39.558 200.818 39.318C200.818 39.126 200.848 38.952 200.908 38.796C200.968 38.64 201.07 38.466 201.214 38.274C201.622 37.758 202.042 37.176 202.474 36.528C202.906 35.88 203.314 35.166 203.698 34.386C204.082 33.606 204.406 32.772 204.67 31.884C204.766 31.56 204.85 31.242 204.922 30.93C204.994 30.618 205.054 30.318 205.102 30.03C205.15 29.742 205.174 29.49 205.174 29.274C205.186 29.082 205.156 28.932 205.084 28.824C205.024 28.704 204.916 28.602 204.76 28.518C204.616 28.422 204.472 28.35 204.328 28.302C204.184 28.242 204.058 28.194 203.95 28.158V27.888C204.106 27.816 204.304 27.75 204.544 27.69C204.796 27.618 205.03 27.582 205.246 27.582C205.546 27.582 205.828 27.618 206.092 27.69C206.368 27.762 206.59 27.864 206.758 27.996C206.854 28.056 206.908 28.146 206.92 28.266C206.944 28.386 206.932 28.56 206.884 28.788C206.836 29.016 206.752 29.322 206.632 29.706C206.524 30.09 206.374 30.588 206.182 31.2C206.098 31.476 205.978 31.854 205.822 32.334C205.666 32.814 205.474 33.348 205.246 33.936C205.03 34.524 204.79 35.136 204.526 35.772C204.262 36.408 203.974 37.038 203.662 37.662C203.35 38.274 203.026 38.838 202.69 39.354C202.51 39.642 202.336 39.876 202.168 40.056C202 40.224 201.808 40.308 201.592 40.308ZM203.176 32.478C202.696 32.478 202.294 32.418 201.97 32.298C201.646 32.166 201.37 31.944 201.142 31.632C200.926 31.308 200.734 30.87 200.566 30.318L200.836 30.12C201.1 30.324 201.34 30.504 201.556 30.66C201.784 30.816 202.03 30.936 202.294 31.02C202.57 31.104 202.906 31.146 203.302 31.146C203.578 31.146 203.866 31.128 204.166 31.092C204.466 31.044 204.748 30.99 205.012 30.93C205.288 30.858 205.516 30.804 205.696 30.768C206.38 30.576 206.908 30.402 207.28 30.246C207.652 30.078 207.928 29.946 208.108 29.85C208.3 29.754 208.45 29.706 208.558 29.706C208.762 29.706 208.948 29.772 209.116 29.904C209.284 30.024 209.368 30.198 209.368 30.426C209.368 30.606 209.302 30.756 209.17 30.876C209.05 30.996 208.924 31.104 208.792 31.2C208.528 31.344 208.18 31.494 207.748 31.65C207.316 31.806 206.836 31.95 206.308 32.082C205.792 32.202 205.264 32.298 204.724 32.37C204.184 32.442 203.668 32.478 203.176 32.478ZM223.12 42.432C223.804 42.372 224.464 42.276 225.1 42.144C225.736 42.012 226.258 41.88 226.666 41.748C227.734 41.4 228.568 41.016 229.168 40.596C229.768 40.176 230.188 39.738 230.428 39.282C230.668 38.814 230.788 38.346 230.788 37.878C230.788 37.398 230.68 36.972 230.464 36.6C230.248 36.216 229.948 35.916 229.564 35.7C229.18 35.472 228.73 35.358 228.214 35.358C227.71 35.358 227.206 35.466 226.702 35.682C226.198 35.886 225.706 36.162 225.226 36.51C224.758 36.846 224.32 37.212 223.912 37.608C223.516 37.992 223.168 38.364 222.868 38.724C222.748 38.88 222.634 39.048 222.526 39.228C222.43 39.396 222.322 39.546 222.202 39.678C222.094 39.798 221.95 39.858 221.77 39.858C221.494 39.858 221.212 39.69 220.924 39.354C220.78 39.21 220.672 39.054 220.6 38.886C220.528 38.706 220.492 38.526 220.492 38.346C220.492 38.19 220.516 38.004 220.564 37.788C220.624 37.572 220.672 37.32 220.708 37.032C220.756 36.72 220.816 36.348 220.888 35.916C220.96 35.472 221.032 35.04 221.104 34.62C221.176 34.188 221.224 33.828 221.248 33.54C221.296 33.228 221.314 32.97 221.302 32.766C221.302 32.55 221.302 32.334 221.302 32.118C221.302 31.902 221.356 31.698 221.464 31.506C221.572 31.302 221.782 31.17 222.094 31.11C222.382 31.038 222.73 30.954 223.138 30.858C223.558 30.762 223.972 30.654 224.38 30.534C224.788 30.414 225.1 30.306 225.316 30.21C225.544 30.102 225.556 29.928 225.352 29.688C225.124 29.352 224.788 29.076 224.344 28.86C223.912 28.644 223.414 28.452 222.85 28.284L222.94 27.96C223.816 27.96 224.524 28.038 225.064 28.194C225.616 28.338 226.066 28.518 226.414 28.734C226.87 29.01 227.206 29.322 227.422 29.67C227.65 30.018 227.764 30.408 227.764 30.84C227.764 31.08 227.704 31.266 227.584 31.398C227.476 31.53 227.296 31.596 227.044 31.596C226.852 31.596 226.684 31.584 226.54 31.56C226.396 31.524 226.234 31.494 226.054 31.47C225.886 31.434 225.664 31.41 225.388 31.398C225.088 31.398 224.764 31.416 224.416 31.452C224.068 31.476 223.75 31.512 223.462 31.56C223.186 31.596 222.97 31.632 222.814 31.668C222.658 31.692 222.55 31.74 222.49 31.812C222.442 31.872 222.418 31.944 222.418 32.028C222.418 32.148 222.46 32.316 222.544 32.532C222.628 32.736 222.676 32.952 222.688 33.18C222.7 33.42 222.682 33.66 222.634 33.9C222.598 34.128 222.55 34.392 222.49 34.692C222.418 35.064 222.34 35.448 222.256 35.844C222.172 36.24 222.136 36.612 222.148 36.96C222.148 37.152 222.226 37.194 222.382 37.086C222.778 36.786 223.204 36.492 223.66 36.204C224.128 35.916 224.62 35.658 225.136 35.43C225.652 35.19 226.18 35.004 226.72 34.872C227.272 34.728 227.824 34.656 228.376 34.656C229.312 34.656 230.086 34.842 230.698 35.214C231.31 35.574 231.772 36.042 232.084 36.618C232.396 37.182 232.552 37.782 232.552 38.418C232.552 39.102 232.366 39.702 231.994 40.218C231.634 40.734 231.136 41.178 230.5 41.55C229.876 41.91 229.156 42.198 228.34 42.414C227.536 42.63 226.69 42.768 225.802 42.828C224.914 42.9 224.038 42.906 223.174 42.846L223.12 42.432ZM244.162 42.954C243.19 42.954 242.44 42.738 241.912 42.306C241.384 41.886 241.12 41.37 241.12 40.758C241.12 40.29 241.276 39.858 241.588 39.462C241.9 39.066 242.35 38.748 242.938 38.508C243.526 38.268 244.24 38.148 245.08 38.148C246.1 38.148 246.982 38.286 247.726 38.562C248.482 38.838 249.106 39.132 249.598 39.444C250.114 39.732 250.516 40.038 250.804 40.362C251.092 40.686 251.236 41.01 251.236 41.334C251.236 41.61 251.17 41.814 251.038 41.946C250.906 42.078 250.75 42.144 250.57 42.144C250.414 42.144 250.276 42.102 250.156 42.018C250.048 41.934 249.928 41.826 249.796 41.694C249.664 41.55 249.502 41.394 249.31 41.226C248.938 40.878 248.506 40.548 248.014 40.236C247.534 39.924 246.982 39.672 246.358 39.48C245.734 39.288 245.014 39.192 244.198 39.192C243.43 39.192 242.854 39.33 242.47 39.606C242.098 39.882 241.912 40.17 241.912 40.47C241.912 40.782 242.056 41.04 242.344 41.244C242.632 41.448 243.094 41.55 243.73 41.55C244.222 41.55 244.618 41.478 244.918 41.334C245.23 41.19 245.452 40.986 245.584 40.722C245.728 40.458 245.8 40.152 245.8 39.804C245.812 39.456 245.8 39.078 245.764 38.67C245.74 38.25 245.716 37.836 245.692 37.428C245.668 37.008 245.656 36.624 245.656 36.276C245.656 35.724 245.716 35.256 245.836 34.872C245.968 34.488 246.172 34.146 246.448 33.846C246.772 33.486 247.126 33.21 247.51 33.018C247.906 32.826 248.248 32.652 248.536 32.496C248.644 32.424 248.686 32.34 248.662 32.244C248.638 32.148 248.566 32.052 248.446 31.956C248.23 31.776 247.954 31.644 247.618 31.56C247.282 31.464 246.916 31.404 246.52 31.38V31.002C247 30.882 247.474 30.834 247.942 30.858C248.422 30.87 248.836 30.936 249.184 31.056C249.772 31.248 250.228 31.524 250.552 31.884C250.876 32.244 251.038 32.646 251.038 33.09C251.038 33.342 250.984 33.552 250.876 33.72C250.78 33.876 250.612 33.954 250.372 33.954C250.18 33.954 249.994 33.918 249.814 33.846C249.634 33.774 249.442 33.702 249.238 33.63C249.034 33.558 248.782 33.528 248.482 33.54C248.194 33.564 247.912 33.63 247.636 33.738C247.36 33.834 247.144 33.984 246.988 34.188C246.82 34.38 246.724 34.62 246.7 34.908C246.688 35.196 246.694 35.514 246.718 35.862C246.742 36.09 246.784 36.396 246.844 36.78C246.916 37.152 246.982 37.56 247.042 38.004C247.114 38.448 247.174 38.892 247.222 39.336C247.282 39.78 247.312 40.182 247.312 40.542C247.312 41.31 247.03 41.904 246.466 42.324C245.914 42.744 245.146 42.954 244.162 42.954ZM237.592 40.308C237.34 40.308 237.148 40.206 237.016 40.002C236.884 39.786 236.818 39.558 236.818 39.318C236.818 39.126 236.848 38.952 236.908 38.796C236.968 38.64 237.07 38.466 237.214 38.274C237.622 37.758 238.042 37.176 238.474 36.528C238.906 35.88 239.314 35.166 239.698 34.386C240.082 33.606 240.406 32.772 240.67 31.884C240.766 31.56 240.85 31.242 240.922 30.93C240.994 30.618 241.054 30.318 241.102 30.03C241.15 29.742 241.174 29.49 241.174 29.274C241.186 29.082 241.156 28.932 241.084 28.824C241.024 28.704 240.916 28.602 240.76 28.518C240.616 28.422 240.472 28.35 240.328 28.302C240.184 28.242 240.058 28.194 239.95 28.158V27.888C240.106 27.816 240.304 27.75 240.544 27.69C240.796 27.618 241.03 27.582 241.246 27.582C241.546 27.582 241.828 27.618 242.092 27.69C242.368 27.762 242.59 27.864 242.758 27.996C242.854 28.056 242.908 28.146 242.92 28.266C242.944 28.386 242.932 28.56 242.884 28.788C242.836 29.016 242.752 29.322 242.632 29.706C242.524 30.09 242.374 30.588 242.182 31.2C242.098 31.476 241.978 31.854 241.822 32.334C241.666 32.814 241.474 33.348 241.246 33.936C241.03 34.524 240.79 35.136 240.526 35.772C240.262 36.408 239.974 37.038 239.662 37.662C239.35 38.274 239.026 38.838 238.69 39.354C238.51 39.642 238.336 39.876 238.168 40.056C238 40.224 237.808 40.308 237.592 40.308ZM239.176 32.478C238.696 32.478 238.294 32.418 237.97 32.298C237.646 32.166 237.37 31.944 237.142 31.632C236.926 31.308 236.734 30.87 236.566 30.318L236.836 30.12C237.1 30.324 237.34 30.504 237.556 30.66C237.784 30.816 238.03 30.936 238.294 31.02C238.57 31.104 238.906 31.146 239.302 31.146C239.578 31.146 239.866 31.128 240.166 31.092C240.466 31.044 240.748 30.99 241.012 30.93C241.288 30.858 241.516 30.804 241.696 30.768C242.38 30.576 242.908 30.402 243.28 30.246C243.652 30.078 243.928 29.946 244.108 29.85C244.3 29.754 244.45 29.706 244.558 29.706C244.762 29.706 244.948 29.772 245.116 29.904C245.284 30.024 245.368 30.198 245.368 30.426C245.368 30.606 245.302 30.756 245.17 30.876C245.05 30.996 244.924 31.104 244.792 31.2C244.528 31.344 244.18 31.494 243.748 31.65C243.316 31.806 242.836 31.95 242.308 32.082C241.792 32.202 241.264 32.298 240.724 32.37C240.184 32.442 239.668 32.478 239.176 32.478ZM258.976 41.46C258.616 41.304 258.25 41.088 257.878 40.812C257.506 40.524 257.158 40.164 256.834 39.732C256.51 39.3 256.24 38.79 256.024 38.202C255.808 37.602 255.682 36.912 255.646 36.132C255.61 35.448 255.61 34.764 255.646 34.08C255.694 33.396 255.718 32.79 255.718 32.262C255.718 31.926 255.676 31.626 255.592 31.362C255.508 31.098 255.364 30.846 255.16 30.606C254.956 30.354 254.674 30.09 254.314 29.814L254.44 29.58C254.668 29.592 254.908 29.616 255.16 29.652C255.424 29.676 255.67 29.736 255.898 29.832C256.162 29.952 256.432 30.126 256.708 30.354C256.996 30.57 257.236 30.816 257.428 31.092C257.62 31.368 257.716 31.638 257.716 31.902C257.716 32.118 257.674 32.352 257.59 32.604C257.506 32.844 257.41 33.12 257.302 33.432C257.206 33.744 257.116 34.104 257.032 34.512C256.948 34.908 256.906 35.37 256.906 35.898C256.906 36.522 256.99 37.056 257.158 37.5C257.338 37.944 257.548 38.298 257.788 38.562C258.04 38.826 258.274 39.012 258.49 39.12C258.622 39.18 258.742 39.204 258.85 39.192C258.97 39.168 259.072 39.096 259.156 38.976C259.456 38.556 259.756 38.058 260.056 37.482C260.368 36.894 260.668 36.312 260.956 35.736L261.37 35.916C261.238 36.348 261.1 36.792 260.956 37.248C260.824 37.704 260.71 38.118 260.614 38.49C260.518 38.862 260.458 39.15 260.434 39.354C260.398 39.666 260.398 39.9 260.434 40.056C260.482 40.2 260.524 40.32 260.56 40.416C260.608 40.512 260.632 40.644 260.632 40.812C260.632 41.16 260.476 41.406 260.164 41.55C259.852 41.682 259.456 41.652 258.976 41.46ZM268.552 38.436C268.384 38.436 268.228 38.382 268.084 38.274C267.94 38.166 267.838 37.998 267.778 37.77C267.718 37.506 267.664 37.2 267.616 36.852C267.58 36.492 267.514 36.102 267.418 35.682C267.322 35.262 267.166 34.818 266.95 34.35C266.686 33.738 266.314 33.204 265.834 32.748C265.366 32.292 264.796 31.92 264.124 31.632L264.25 31.272C265.15 31.368 265.882 31.566 266.446 31.866C267.01 32.166 267.526 32.55 267.994 33.018C268.354 33.366 268.648 33.768 268.876 34.224C269.116 34.668 269.29 35.13 269.398 35.61C269.518 36.09 269.578 36.552 269.578 36.996C269.578 37.464 269.494 37.824 269.326 38.076C269.17 38.316 268.912 38.436 268.552 38.436ZM272.962 35.16C272.962 34.872 273.064 34.626 273.268 34.422C273.472 34.218 273.718 34.116 274.006 34.116C274.294 34.116 274.54 34.218 274.744 34.422C274.948 34.626 275.05 34.872 275.05 35.16C275.05 35.448 274.948 35.694 274.744 35.898C274.54 36.102 274.294 36.204 274.006 36.204C273.718 36.204 273.472 36.102 273.268 35.898C273.064 35.694 272.962 35.448 272.962 35.16ZM278.956 35.16C278.956 34.872 279.058 34.626 279.262 34.422C279.466 34.218 279.712 34.116 280 34.116C280.288 34.116 280.534 34.218 280.738 34.422C280.942 34.626 281.044 34.872 281.044 35.16C281.044 35.448 280.942 35.694 280.738 35.898C280.534 36.102 280.288 36.204 280 36.204C279.712 36.204 279.466 36.102 279.262 35.898C279.058 35.694 278.956 35.448 278.956 35.16ZM284.95 35.16C284.95 34.872 285.052 34.626 285.256 34.422C285.46 34.218 285.706 34.116 285.994 34.116C286.282 34.116 286.528 34.218 286.732 34.422C286.936 34.626 287.038 34.872 287.038 35.16C287.038 35.448 286.936 35.694 286.732 35.898C286.528 36.102 286.282 36.204 285.994 36.204C285.706 36.204 285.46 36.102 285.256 35.898C285.052 35.694 284.95 35.448 284.95 35.16ZM119.944 49.844L122.14 50.06C122.116 50.18 122.056 50.282 121.96 50.366C121.876 50.45 121.738 50.504 121.546 50.528C121.522 51.512 121.486 52.454 121.438 53.354C121.402 54.254 121.312 55.112 121.168 55.928C121.024 56.732 120.778 57.494 120.43 58.214C120.094 58.922 119.614 59.582 118.99 60.194C118.378 60.806 117.58 61.364 116.596 61.868L116.38 61.58C117.316 60.884 118.03 60.122 118.522 59.294C119.026 58.454 119.374 57.548 119.566 56.576C119.77 55.592 119.884 54.542 119.908 53.426C119.932 52.31 119.944 51.116 119.944 49.844ZM118 52.85H123.49V53.372H118.162L118 52.85ZM110.278 51.482H115.534L116.326 50.528C116.326 50.528 116.41 50.594 116.578 50.726C116.746 50.846 116.95 50.996 117.19 51.176C117.43 51.356 117.64 51.536 117.82 51.716C117.784 51.908 117.628 52.004 117.352 52.004H110.422L110.278 51.482ZM110.314 58.052H115.606L116.398 57.134C116.398 57.134 116.476 57.194 116.632 57.314C116.8 57.434 116.998 57.584 117.226 57.764C117.454 57.944 117.658 58.118 117.838 58.286C117.802 58.466 117.646 58.556 117.37 58.556H110.458L110.314 58.052ZM109.702 53.552H115.966L116.794 52.508C116.794 52.508 116.878 52.58 117.046 52.724C117.226 52.856 117.436 53.024 117.676 53.228C117.916 53.42 118.132 53.606 118.324 53.786C118.288 53.978 118.132 54.074 117.856 54.074H109.846L109.702 53.552ZM113.032 49.79L115.084 49.97C115.072 50.078 115.03 50.168 114.958 50.24C114.886 50.312 114.76 50.36 114.58 50.384V53.786H113.032V49.79ZM109.828 60.608C110.344 60.56 111.028 60.488 111.88 60.392C112.732 60.296 113.68 60.182 114.724 60.05C115.768 59.906 116.818 59.75 117.874 59.582L117.91 59.852C117.106 60.164 116.146 60.5 115.03 60.86C113.926 61.22 112.624 61.604 111.124 62.012C111.088 62.12 111.028 62.21 110.944 62.282C110.86 62.342 110.776 62.384 110.692 62.408L109.828 60.608ZM114.346 53.57H115.696C115.696 53.654 115.696 53.744 115.696 53.84C115.696 53.936 115.696 54.014 115.696 54.074V55.334C115.696 55.418 115.708 55.472 115.732 55.496C115.768 55.52 115.834 55.532 115.93 55.532H116.416C116.512 55.532 116.596 55.532 116.668 55.532C116.752 55.532 116.818 55.532 116.866 55.532C116.974 55.52 117.052 55.484 117.1 55.424C117.148 55.34 117.208 55.196 117.28 54.992C117.364 54.788 117.448 54.554 117.532 54.29H117.73L117.784 55.424C117.952 55.496 118.066 55.574 118.126 55.658C118.186 55.73 118.216 55.826 118.216 55.946C118.216 56.21 118.078 56.408 117.802 56.54C117.538 56.66 117.034 56.72 116.29 56.72H115.516C115.168 56.72 114.91 56.684 114.742 56.612C114.586 56.54 114.478 56.42 114.418 56.252C114.37 56.084 114.346 55.868 114.346 55.604V53.57ZM113.032 56.414L115.012 56.594C115 56.69 114.964 56.768 114.904 56.828C114.844 56.888 114.736 56.93 114.58 56.954V60.572L113.032 60.86V56.414ZM118.234 55.01C119.17 55.298 119.938 55.622 120.538 55.982C121.138 56.342 121.594 56.708 121.906 57.08C122.23 57.452 122.434 57.8 122.518 58.124C122.602 58.448 122.602 58.724 122.518 58.952C122.434 59.168 122.284 59.306 122.068 59.366C121.852 59.426 121.6 59.366 121.312 59.186C121.144 58.73 120.874 58.256 120.502 57.764C120.142 57.272 119.746 56.804 119.314 56.36C118.882 55.904 118.468 55.508 118.072 55.172L118.234 55.01ZM112.582 61.994L112.87 62.012C113.05 62.78 113.086 63.452 112.978 64.028C112.87 64.604 112.672 65.072 112.384 65.432C112.108 65.804 111.814 66.08 111.502 66.26C111.19 66.428 110.872 66.494 110.548 66.458C110.224 66.422 110.002 66.26 109.882 65.972C109.798 65.72 109.822 65.486 109.954 65.27C110.098 65.066 110.284 64.904 110.512 64.784C110.824 64.652 111.13 64.46 111.43 64.208C111.742 63.944 112 63.626 112.204 63.254C112.42 62.87 112.546 62.45 112.582 61.994ZM121.798 61.976C122.77 62.204 123.562 62.498 124.174 62.858C124.786 63.206 125.248 63.578 125.56 63.974C125.872 64.358 126.058 64.724 126.118 65.072C126.19 65.432 126.16 65.732 126.028 65.972C125.908 66.212 125.722 66.362 125.47 66.422C125.23 66.482 124.948 66.416 124.624 66.224C124.492 65.732 124.264 65.234 123.94 64.73C123.628 64.226 123.268 63.746 122.86 63.29C122.452 62.834 122.044 62.444 121.636 62.12L121.798 61.976ZM111.79 53.75H113.338C113.266 54.29 113.134 54.8 112.942 55.28C112.75 55.76 112.414 56.204 111.934 56.612C111.454 57.008 110.74 57.362 109.792 57.674L109.576 57.44C110.176 57.08 110.626 56.696 110.926 56.288C111.226 55.868 111.436 55.448 111.556 55.028C111.676 54.596 111.754 54.17 111.79 53.75ZM122.824 52.85H122.608L123.364 51.914L125.002 53.21C124.942 53.282 124.858 53.342 124.75 53.39C124.654 53.426 124.522 53.462 124.354 53.498C124.342 54.482 124.354 55.418 124.39 56.306C124.438 57.182 124.534 57.95 124.678 58.61C124.834 59.27 125.062 59.774 125.362 60.122C125.422 60.182 125.47 60.212 125.506 60.212C125.554 60.2 125.602 60.14 125.65 60.032C125.722 59.876 125.806 59.666 125.902 59.402C125.998 59.126 126.082 58.856 126.154 58.592L126.352 58.628L126.19 60.59C126.31 60.794 126.388 61.004 126.424 61.22C126.472 61.424 126.46 61.61 126.388 61.778C126.28 61.994 126.124 62.12 125.92 62.156C125.716 62.192 125.506 62.168 125.29 62.084C125.086 62 124.894 61.892 124.714 61.76C124.138 61.244 123.718 60.566 123.454 59.726C123.19 58.874 123.016 57.872 122.932 56.72C122.86 55.556 122.824 54.266 122.824 52.85ZM114.94 62.21C115.552 62.57 116.02 62.942 116.344 63.326C116.68 63.698 116.896 64.064 116.992 64.424C117.1 64.772 117.124 65.084 117.064 65.36C117.004 65.636 116.884 65.852 116.704 66.008C116.524 66.164 116.32 66.23 116.092 66.206C115.864 66.194 115.636 66.062 115.408 65.81C115.444 65.426 115.432 65.024 115.372 64.604C115.312 64.184 115.222 63.776 115.102 63.38C114.994 62.984 114.868 62.624 114.724 62.3L114.94 62.21ZM118.324 62.246C119.068 62.522 119.656 62.834 120.088 63.182C120.52 63.518 120.826 63.86 121.006 64.208C121.198 64.556 121.288 64.88 121.276 65.18C121.276 65.48 121.198 65.72 121.042 65.9C120.898 66.08 120.712 66.176 120.484 66.188C120.256 66.212 120.01 66.116 119.746 65.9C119.71 65.504 119.608 65.09 119.44 64.658C119.284 64.226 119.086 63.812 118.846 63.416C118.618 63.02 118.378 62.666 118.126 62.354L118.324 62.246ZM141.958 59.006V59.528H129.61V59.006H141.958ZM141.238 53.696L142.12 52.724L143.974 54.146C143.914 54.218 143.818 54.29 143.686 54.362C143.566 54.434 143.41 54.488 143.218 54.524V60.554C143.218 60.59 143.134 60.644 142.966 60.716C142.798 60.788 142.594 60.86 142.354 60.932C142.126 60.992 141.916 61.022 141.724 61.022H141.418V53.696H141.238ZM130.528 60.68C130.528 60.728 130.45 60.8 130.294 60.896C130.15 60.992 129.964 61.082 129.736 61.166C129.508 61.238 129.268 61.274 129.016 61.274H128.746V53.678V52.886L130.672 53.678H141.868V54.2H130.528V60.68ZM137.53 50.06C137.506 50.18 137.446 50.288 137.35 50.384C137.266 50.468 137.104 50.528 136.864 50.564V65.864C136.864 65.924 136.792 66.008 136.648 66.116C136.504 66.236 136.318 66.332 136.09 66.404C135.862 66.488 135.634 66.53 135.406 66.53H135.046V49.808L137.53 50.06ZM156.358 59.69H159.22L160.138 58.43C160.138 58.43 160.198 58.484 160.318 58.592C160.438 58.688 160.582 58.814 160.75 58.97C160.93 59.114 161.116 59.276 161.308 59.456C161.5 59.624 161.674 59.78 161.83 59.924C161.782 60.116 161.626 60.212 161.362 60.212H156.358V59.69ZM151.084 55.136H159.346L160.3 53.894C160.3 53.894 160.36 53.942 160.48 54.038C160.6 54.134 160.744 54.26 160.912 54.416C161.092 54.56 161.278 54.716 161.47 54.884C161.674 55.052 161.86 55.214 162.028 55.37C161.98 55.562 161.818 55.658 161.542 55.658H151.228L151.084 55.136ZM149.248 65.126H159.706L160.696 63.83C160.696 63.83 160.756 63.884 160.876 63.992C160.996 64.088 161.152 64.214 161.344 64.37C161.536 64.514 161.734 64.676 161.938 64.856C162.142 65.036 162.322 65.204 162.478 65.36C162.442 65.552 162.28 65.648 161.992 65.648H149.392L149.248 65.126ZM155.548 55.136H157.222V65.324H155.548V55.136ZM151.768 58.304L153.946 58.502C153.934 58.634 153.88 58.742 153.784 58.826C153.7 58.91 153.544 58.97 153.316 59.006V65.36H151.768V58.304ZM154.09 49.79L156.574 49.988C156.562 50.108 156.508 50.216 156.412 50.312C156.328 50.396 156.16 50.462 155.908 50.51V52.67H154.09V49.79ZM149.608 52.436H159.634L160.642 51.158C160.642 51.158 160.702 51.206 160.822 51.302C160.942 51.398 161.098 51.524 161.29 51.68C161.482 51.836 161.68 52.004 161.884 52.184C162.088 52.352 162.28 52.514 162.46 52.67C162.412 52.862 162.244 52.958 161.956 52.958H149.608V52.436ZM148.708 52.436V52.256V51.59L150.634 52.436H150.364V57.008C150.364 57.8 150.322 58.628 150.238 59.492C150.154 60.344 149.968 61.19 149.68 62.03C149.404 62.87 148.972 63.674 148.384 64.442C147.808 65.198 147.022 65.888 146.026 66.512L145.828 66.332C146.668 65.444 147.292 64.496 147.7 63.488C148.108 62.468 148.378 61.412 148.51 60.32C148.642 59.228 148.708 58.13 148.708 57.026V52.436ZM146.098 53.066C146.722 53.39 147.202 53.732 147.538 54.092C147.886 54.452 148.12 54.8 148.24 55.136C148.372 55.472 148.42 55.778 148.384 56.054C148.348 56.318 148.252 56.528 148.096 56.684C147.952 56.84 147.772 56.918 147.556 56.918C147.352 56.918 147.136 56.81 146.908 56.594C146.92 56.222 146.878 55.832 146.782 55.424C146.686 55.004 146.554 54.602 146.386 54.218C146.23 53.822 146.062 53.474 145.882 53.174L146.098 53.066ZM145.396 59.744C145.6 59.648 145.894 59.51 146.278 59.33C146.662 59.138 147.094 58.922 147.574 58.682C148.066 58.43 148.558 58.172 149.05 57.908L149.14 58.07C148.876 58.406 148.54 58.844 148.132 59.384C147.724 59.912 147.244 60.494 146.692 61.13C146.692 61.25 146.662 61.364 146.602 61.472C146.542 61.568 146.464 61.646 146.368 61.706L145.396 59.744ZM178.246 54.776C178.09 54.776 177.952 54.704 177.832 54.56C177.712 54.416 177.568 54.236 177.4 54.02C177.232 53.78 177.022 53.51 176.77 53.21C176.518 52.91 176.182 52.604 175.762 52.292L175.978 52.004C176.458 52.16 176.89 52.334 177.274 52.526C177.658 52.706 177.976 52.916 178.228 53.156C178.444 53.348 178.594 53.528 178.678 53.696C178.762 53.852 178.804 54.02 178.804 54.2C178.804 54.368 178.75 54.506 178.642 54.614C178.546 54.722 178.414 54.776 178.246 54.776ZM164.89 65.648C164.71 65.648 164.542 65.564 164.386 65.396C164.23 65.24 164.152 65.018 164.152 64.73C164.152 64.514 164.176 64.334 164.224 64.19C164.272 64.046 164.368 63.884 164.512 63.704C164.824 63.308 165.13 62.888 165.43 62.444C165.742 62 166.048 61.514 166.348 60.986C166.66 60.458 166.972 59.888 167.284 59.276C167.536 58.772 167.782 58.244 168.022 57.692C168.262 57.14 168.484 56.6 168.688 56.072C168.904 55.532 169.09 55.034 169.246 54.578C169.402 54.122 169.522 53.726 169.606 53.39C169.69 53.054 169.732 52.82 169.732 52.688C169.732 52.58 169.714 52.484 169.678 52.4C169.642 52.304 169.57 52.232 169.462 52.184C169.318 52.1 169.114 52.028 168.85 51.968C168.598 51.908 168.352 51.86 168.112 51.824V51.5C168.28 51.416 168.478 51.338 168.706 51.266C168.946 51.194 169.228 51.158 169.552 51.158C169.744 51.158 169.972 51.194 170.236 51.266C170.5 51.338 170.752 51.44 170.992 51.572C171.244 51.692 171.448 51.824 171.604 51.968C171.772 52.1 171.856 52.238 171.856 52.382C171.856 52.526 171.814 52.658 171.73 52.778C171.658 52.898 171.568 53.024 171.46 53.156C171.352 53.288 171.262 53.444 171.19 53.624C171.07 53.912 170.908 54.302 170.704 54.794C170.5 55.274 170.272 55.808 170.02 56.396C169.78 56.984 169.528 57.578 169.264 58.178C169 58.766 168.748 59.318 168.508 59.834C168.292 60.314 168.064 60.794 167.824 61.274C167.584 61.754 167.35 62.222 167.122 62.678C166.894 63.134 166.672 63.554 166.456 63.938C166.252 64.322 166.06 64.652 165.88 64.928C165.712 65.216 165.556 65.408 165.412 65.504C165.268 65.6 165.094 65.648 164.89 65.648ZM170.056 65.468C169.732 65.468 169.498 65.39 169.354 65.234C169.21 65.09 169.084 64.832 168.976 64.46C168.94 64.352 168.892 64.25 168.832 64.154C168.772 64.046 168.664 63.914 168.508 63.758C168.352 63.59 168.124 63.356 167.824 63.056L167.986 62.786C168.454 63.05 168.868 63.272 169.228 63.452C169.6 63.62 169.894 63.704 170.11 63.704C170.398 63.704 170.638 63.65 170.83 63.542C171.034 63.422 171.232 63.218 171.424 62.93C171.616 62.69 171.79 62.372 171.946 61.976C172.102 61.568 172.24 61.118 172.36 60.626C172.48 60.134 172.57 59.63 172.63 59.114C172.702 58.598 172.738 58.106 172.738 57.638C172.738 57.074 172.648 56.66 172.468 56.396C172.3 56.132 171.988 56 171.532 56C171.256 56 170.914 56.048 170.506 56.144C170.11 56.228 169.69 56.342 169.246 56.486C168.814 56.63 168.4 56.78 168.004 56.936C167.608 57.092 167.278 57.224 167.014 57.332C166.666 57.476 166.396 57.596 166.204 57.692C166.012 57.776 165.796 57.818 165.556 57.818C165.4 57.818 165.22 57.74 165.016 57.584C164.812 57.428 164.626 57.236 164.458 57.008C164.302 56.768 164.2 56.54 164.152 56.324C164.116 56.12 164.116 55.922 164.152 55.73C164.188 55.526 164.236 55.34 164.296 55.172L164.584 55.1C164.728 55.376 164.86 55.616 164.98 55.82C165.1 56.024 165.28 56.126 165.52 56.126C165.7 56.126 165.946 56.096 166.258 56.036C166.57 55.976 166.918 55.91 167.302 55.838C167.686 55.754 168.088 55.67 168.508 55.586C168.928 55.49 169.336 55.406 169.732 55.334C170.008 55.274 170.356 55.214 170.776 55.154C171.196 55.094 171.562 55.064 171.874 55.064C172.57 55.064 173.122 55.298 173.53 55.766C173.938 56.222 174.142 57.02 174.142 58.16C174.142 58.904 174.07 59.666 173.926 60.446C173.794 61.226 173.596 61.958 173.332 62.642C173.068 63.326 172.732 63.902 172.324 64.37C172.048 64.694 171.712 64.958 171.316 65.162C170.932 65.366 170.512 65.468 170.056 65.468ZM178.714 61.508C178.522 61.508 178.378 61.466 178.282 61.382C178.186 61.286 178.09 61.178 177.994 61.058C177.91 60.938 177.772 60.854 177.58 60.806C177.448 60.758 177.256 60.728 177.004 60.716C176.764 60.692 176.512 60.68 176.248 60.68C175.984 60.668 175.75 60.668 175.546 60.68L175.456 60.32C175.696 60.26 175.942 60.2 176.194 60.14C176.458 60.08 176.698 60.02 176.914 59.96C177.13 59.9 177.31 59.84 177.454 59.78C177.658 59.708 177.796 59.618 177.868 59.51C177.94 59.39 177.97 59.21 177.958 58.97C177.958 58.718 177.91 58.406 177.814 58.034C177.718 57.65 177.544 57.266 177.292 56.882C177.04 56.522 176.734 56.216 176.374 55.964C176.026 55.7 175.588 55.508 175.06 55.388L175.204 55.028C175.864 55.088 176.458 55.232 176.986 55.46C177.526 55.676 178.006 55.994 178.426 56.414C178.858 56.822 179.182 57.326 179.398 57.926C179.614 58.526 179.722 59.174 179.722 59.87C179.722 60.338 179.638 60.728 179.47 61.04C179.314 61.352 179.062 61.508 178.714 61.508ZM179.974 53.444C179.806 53.444 179.662 53.366 179.542 53.21C179.422 53.054 179.266 52.868 179.074 52.652C178.906 52.424 178.702 52.19 178.462 51.95C178.222 51.698 177.88 51.41 177.436 51.086L177.616 50.816C178.108 50.948 178.54 51.092 178.912 51.248C179.296 51.404 179.608 51.572 179.848 51.752C180.076 51.932 180.238 52.118 180.334 52.31C180.442 52.49 180.496 52.676 180.496 52.868C180.496 53.048 180.448 53.192 180.352 53.3C180.268 53.396 180.142 53.444 179.974 53.444ZM183.934 55.532L184.186 55.514C184.558 56.582 184.738 57.53 184.726 58.358C184.714 59.186 184.588 59.888 184.348 60.464C184.108 61.028 183.838 61.466 183.538 61.778C183.334 61.994 183.112 62.15 182.872 62.246C182.632 62.342 182.404 62.372 182.188 62.336C181.972 62.288 181.798 62.174 181.666 61.994C181.498 61.766 181.456 61.526 181.54 61.274C181.624 61.01 181.774 60.782 181.99 60.59C182.326 60.326 182.644 59.948 182.944 59.456C183.244 58.952 183.484 58.364 183.664 57.692C183.856 57.02 183.946 56.3 183.934 55.532ZM186.724 50.168C187.804 50.288 188.704 50.468 189.424 50.708C190.156 50.936 190.744 51.206 191.188 51.518C191.632 51.818 191.95 52.124 192.142 52.436C192.334 52.748 192.43 53.042 192.43 53.318C192.43 53.594 192.358 53.828 192.214 54.02C192.082 54.2 191.896 54.314 191.656 54.362C191.428 54.398 191.176 54.344 190.9 54.2C190.732 53.852 190.456 53.456 190.072 53.012C189.7 52.556 189.226 52.106 188.65 51.662C188.074 51.206 187.402 50.792 186.634 50.42L186.724 50.168ZM194.374 55.334C195.274 55.766 196.006 56.234 196.57 56.738C197.134 57.23 197.554 57.728 197.83 58.232C198.118 58.736 198.298 59.216 198.37 59.672C198.442 60.116 198.424 60.518 198.316 60.878C198.22 61.226 198.07 61.496 197.866 61.688C197.674 61.88 197.452 61.964 197.2 61.94C196.96 61.916 196.726 61.76 196.498 61.472C196.498 60.92 196.432 60.29 196.3 59.582C196.168 58.874 195.934 58.16 195.598 57.44C195.274 56.72 194.818 56.072 194.23 55.496L194.374 55.334ZM186.4 53.876L188.74 54.11C188.728 54.23 188.674 54.332 188.578 54.416C188.482 54.5 188.332 54.56 188.128 54.596V63.632C188.128 63.848 188.188 63.998 188.308 64.082C188.44 64.166 188.71 64.208 189.118 64.208H191.296C191.728 64.208 192.112 64.202 192.448 64.19C192.784 64.178 193.03 64.166 193.186 64.154C193.33 64.142 193.438 64.118 193.51 64.082C193.582 64.034 193.648 63.956 193.708 63.848C193.804 63.668 193.924 63.308 194.068 62.768C194.212 62.228 194.368 61.61 194.536 60.914H194.752L194.806 63.974C195.094 64.082 195.286 64.196 195.382 64.316C195.478 64.424 195.526 64.568 195.526 64.748C195.526 65.012 195.406 65.234 195.166 65.414C194.938 65.594 194.506 65.72 193.87 65.792C193.246 65.876 192.34 65.918 191.152 65.918H188.866C188.242 65.918 187.744 65.864 187.372 65.756C187.012 65.66 186.76 65.48 186.616 65.216C186.472 64.964 186.4 64.598 186.4 64.118V53.876ZM209.152 51.122H214.984V51.626H209.296L209.152 51.122ZM213.706 51.122H213.49L214.336 50.186L216.154 51.572C216.094 51.656 215.986 51.74 215.83 51.824C215.674 51.896 215.494 51.95 215.29 51.986V57.746C215.29 57.782 215.212 57.836 215.056 57.908C214.912 57.98 214.738 58.046 214.534 58.106C214.33 58.154 214.138 58.178 213.958 58.178H213.706V51.122ZM209.854 56H214.696V56.522H209.854V56ZM209.278 56V55.316V55.28L211.096 56H210.862V63.938C210.862 64.094 210.904 64.208 210.988 64.28C211.072 64.34 211.27 64.37 211.582 64.37H213.148C213.496 64.37 213.796 64.37 214.048 64.37C214.312 64.358 214.504 64.346 214.624 64.334C214.732 64.322 214.81 64.298 214.858 64.262C214.918 64.226 214.972 64.166 215.02 64.082C215.092 63.914 215.188 63.584 215.308 63.092C215.44 62.6 215.572 62.06 215.704 61.472H215.92L215.974 64.19C216.214 64.274 216.37 64.376 216.442 64.496C216.526 64.604 216.568 64.73 216.568 64.874C216.568 65.102 216.466 65.294 216.262 65.45C216.07 65.606 215.722 65.72 215.218 65.792C214.714 65.864 213.994 65.9 213.058 65.9H211.24C210.712 65.9 210.304 65.852 210.016 65.756C209.74 65.672 209.548 65.516 209.44 65.288C209.332 65.06 209.278 64.748 209.278 64.352V56ZM199.63 51.14H206.2L207.136 49.916C207.136 49.916 207.232 50 207.424 50.168C207.628 50.324 207.862 50.51 208.126 50.726C208.402 50.942 208.648 51.152 208.864 51.356C208.816 51.548 208.654 51.644 208.378 51.644H199.774L199.63 51.14ZM200.872 61.274H207.298V61.796H200.872V61.274ZM200.908 64.28H207.37V64.802H200.908V64.28ZM206.47 54.236H206.29L207.064 53.39L208.684 54.65C208.636 54.722 208.546 54.794 208.414 54.866C208.282 54.926 208.132 54.968 207.964 54.992V65.648C207.964 65.696 207.892 65.756 207.748 65.828C207.616 65.912 207.448 65.984 207.244 66.044C207.052 66.116 206.872 66.152 206.704 66.152H206.47V54.236ZM204.382 51.158H205.642V54.452H204.382V51.158ZM204.382 54.29H205.426C205.426 54.386 205.426 54.482 205.426 54.578C205.426 54.662 205.426 54.734 205.426 54.794V57.89C205.426 58.046 205.48 58.124 205.588 58.124H205.84C205.888 58.124 205.936 58.124 205.984 58.124C206.032 58.124 206.068 58.124 206.092 58.124C206.116 58.124 206.146 58.124 206.182 58.124C206.218 58.124 206.248 58.124 206.272 58.124C206.308 58.124 206.35 58.118 206.398 58.106C206.458 58.094 206.506 58.082 206.542 58.07H206.686L206.758 58.088C206.914 58.136 207.028 58.196 207.1 58.268C207.172 58.328 207.208 58.424 207.208 58.556C207.208 58.784 207.1 58.952 206.884 59.06C206.68 59.168 206.302 59.222 205.75 59.222H205.264C204.892 59.222 204.652 59.15 204.544 59.006C204.436 58.85 204.382 58.61 204.382 58.286V54.29ZM200.134 54.236V53.534L201.682 54.236H207.352V54.758H201.574V65.918C201.574 65.966 201.52 66.032 201.412 66.116C201.304 66.2 201.16 66.272 200.98 66.332C200.8 66.404 200.596 66.44 200.368 66.44H200.134V54.236ZM203.536 54.29V55.496C203.536 55.904 203.5 56.384 203.428 56.936C203.368 57.476 203.206 58.022 202.942 58.574C202.69 59.114 202.288 59.6 201.736 60.032L201.502 59.78C201.838 59.312 202.072 58.832 202.204 58.34C202.348 57.836 202.438 57.338 202.474 56.846C202.51 56.342 202.528 55.886 202.528 55.478V54.29H203.536ZM203.536 51.158V54.452H202.294V51.158H203.536Z" fill="#00AFA1"/>
<path d="M0.924058 32.8502H11.9193V34.3821H0.924058V32.8502ZM7.27412 33.4679C7.5212 34.4068 7.863 35.284 8.29951 36.0993C8.73603 36.9147 9.27549 37.6271 9.91791 38.2366C10.5686 38.8461 11.3263 39.3279 12.1911 39.6821C12.0675 39.7891 11.9358 39.925 11.7958 40.0898C11.664 40.2545 11.5322 40.4233 11.4004 40.5963C11.2769 40.7775 11.1739 40.9381 11.0916 41.0781C10.1444 40.6333 9.32903 40.0609 8.64543 39.3609C7.97007 38.6608 7.40177 37.8454 6.94055 36.9147C6.47933 35.9758 6.09223 34.9422 5.77926 33.8138L7.27412 33.4679ZM5.56924 29.5269H7.18764C7.1794 30.1529 7.15881 30.8159 7.12586 31.5159C7.10116 32.2078 7.03938 32.912 6.94055 33.6285C6.84172 34.345 6.68111 35.0575 6.45874 35.7658C6.2446 36.4659 5.93986 37.1412 5.54453 37.7919C5.15743 38.4343 4.65503 39.0355 4.03732 39.5956C3.42784 40.1556 2.68247 40.6498 1.80121 41.0781C1.6859 40.8804 1.5253 40.6622 1.31939 40.4233C1.11349 40.1845 0.903468 39.9868 0.689329 39.8303C1.52941 39.4515 2.2336 39.0149 2.8019 38.5208C3.37019 38.0184 3.83141 37.4789 4.18557 36.9024C4.54796 36.3176 4.82387 35.7122 5.0133 35.0863C5.20273 34.4521 5.33039 33.8138 5.39628 33.1714C5.4704 32.529 5.5157 31.8989 5.53217 31.2812C5.54865 30.6635 5.561 30.0787 5.56924 29.5269ZM25.8548 31.2441C25.8548 31.4418 25.9207 31.6107 26.0525 31.7507C26.1925 31.8907 26.3613 31.9607 26.559 31.9607C26.7567 31.9607 26.9255 31.8907 27.0655 31.7507C27.2055 31.6107 27.2756 31.4418 27.2756 31.2441C27.2756 31.0465 27.2055 30.8776 27.0655 30.7376C26.9255 30.5976 26.7567 30.5276 26.559 30.5276C26.3613 30.5276 26.1925 30.5976 26.0525 30.7376C25.9207 30.8776 25.8548 31.0465 25.8548 31.2441ZM25.0889 31.2441C25.0889 30.9724 25.1548 30.7253 25.2865 30.5029C25.4183 30.2805 25.5954 30.1034 25.8178 29.9717C26.0401 29.8317 26.2872 29.7616 26.559 29.7616C26.8308 29.7616 27.0779 29.8317 27.3003 29.9717C27.5226 30.1034 27.6997 30.2805 27.8315 30.5029C27.9715 30.7253 28.0415 30.9724 28.0415 31.2441C28.0415 31.5159 27.9715 31.763 27.8315 31.9854C27.6997 32.2078 27.5226 32.389 27.3003 32.529C27.0779 32.6608 26.8308 32.7266 26.559 32.7266C26.2872 32.7266 26.0401 32.6608 25.8178 32.529C25.5954 32.389 25.4183 32.2078 25.2865 31.9854C25.1548 31.763 25.0889 31.5159 25.0889 31.2441ZM20.0854 30.54C20.0525 30.7294 20.0278 30.9476 20.0113 31.1947C19.9948 31.4418 19.9866 31.6518 19.9866 31.8248C19.9866 31.9483 19.9866 32.1666 19.9866 32.4796C19.9866 32.7843 19.9866 33.1467 19.9866 33.5667C19.9866 33.9868 19.9866 34.4274 19.9866 34.8886C19.9866 35.3416 19.9866 35.7823 19.9866 36.2105C19.9866 36.6306 19.9866 37.0053 19.9866 37.3348C19.9866 37.6642 19.9866 37.9072 19.9866 38.0637C19.9866 38.3272 20.0525 38.5084 20.1842 38.6072C20.316 38.7061 20.5178 38.7843 20.7896 38.842C20.979 38.8667 21.1973 38.8873 21.4444 38.9037C21.6915 38.912 21.9509 38.9161 22.2227 38.9161C22.5439 38.9161 22.8981 38.9079 23.2852 38.8914C23.6805 38.8667 24.0758 38.8379 24.4712 38.8049C24.8747 38.772 25.2536 38.7267 25.6077 38.669C25.9619 38.6114 26.2666 38.5496 26.522 38.4837V40.2874C26.1349 40.3451 25.686 40.3904 25.1753 40.4233C24.6647 40.4645 24.1417 40.4933 23.6064 40.5098C23.0792 40.5345 22.5851 40.5469 22.1239 40.5469C21.7203 40.5469 21.3373 40.5345 20.9749 40.5098C20.6208 40.4851 20.3119 40.4521 20.0484 40.411C19.513 40.3039 19.0971 40.1021 18.8006 39.8056C18.5041 39.5009 18.3558 39.0849 18.3558 38.5578C18.3558 38.319 18.3558 38.0101 18.3558 37.6313C18.3558 37.2442 18.3558 36.82 18.3558 36.3588C18.3558 35.8893 18.3558 35.4199 18.3558 34.9504C18.3558 34.4727 18.3558 34.0238 18.3558 33.6038C18.3558 33.1755 18.3558 32.8049 18.3558 32.4919C18.3558 32.1789 18.3558 31.9566 18.3558 31.8248C18.3558 31.7342 18.3517 31.6107 18.3435 31.4542C18.3352 31.2977 18.3229 31.1371 18.3064 30.9724C18.2982 30.8076 18.2817 30.6635 18.257 30.54H20.0854ZM19.27 34.3327C19.6654 34.2503 20.0854 34.1515 20.5302 34.0362C20.9749 33.9127 21.4238 33.7809 21.8768 33.6409C22.3298 33.5008 22.758 33.3608 23.1616 33.2208C23.5734 33.0726 23.9399 32.9284 24.2611 32.7884C24.4835 32.7061 24.7018 32.6113 24.9159 32.5043C25.1383 32.3972 25.3689 32.2695 25.6077 32.1213L26.2749 33.6903C26.036 33.7809 25.7848 33.8838 25.5213 33.9991C25.2659 34.1062 25.0353 34.1968 24.8294 34.2709C24.467 34.4109 24.0511 34.5592 23.5817 34.7157C23.1204 34.8722 22.6386 35.0286 22.1362 35.1851C21.6338 35.3334 21.1355 35.4734 20.6414 35.6052C20.1554 35.737 19.7024 35.8523 19.2824 35.9511L19.27 34.3327ZM35.3305 30.6264C35.5446 30.7747 35.7958 30.9559 36.0841 31.17C36.3724 31.3842 36.6689 31.6189 36.9736 31.8742C37.2866 32.1213 37.579 32.3643 37.8507 32.6031C38.1225 32.842 38.3449 33.0561 38.5179 33.2455L37.2577 34.5304C37.1013 34.3574 36.8954 34.1515 36.64 33.9127C36.3847 33.6738 36.1088 33.4267 35.8123 33.1714C35.5158 32.9161 35.2234 32.6731 34.9352 32.4425C34.6469 32.2119 34.3916 32.0183 34.1692 31.8619L35.3305 30.6264ZM33.7862 38.8543C34.4286 38.7637 35.034 38.6361 35.6023 38.4714C36.1706 38.3066 36.6977 38.1172 37.1836 37.9031C37.6696 37.6889 38.1143 37.4665 38.5179 37.2359C39.2179 36.8159 39.8604 36.3382 40.4451 35.8028C41.0299 35.2675 41.5405 34.7116 41.977 34.135C42.4136 33.5503 42.7595 32.982 43.0148 32.4301L43.9784 34.1721C43.6655 34.7239 43.2784 35.2757 42.8171 35.8276C42.3641 36.3794 41.8494 36.9065 41.2729 37.4089C40.6963 37.9031 40.0745 38.3478 39.4074 38.7431C38.9873 38.9985 38.5343 39.2414 38.0484 39.472C37.5625 39.6944 37.0477 39.8921 36.5041 40.065C35.9688 40.2462 35.4087 40.3863 34.824 40.4851L33.7862 38.8543ZM50.3038 31.1453C50.6167 31.1453 51.0162 31.1453 51.5021 31.1453C51.9881 31.1371 52.4987 31.1206 53.0341 31.0959C53.5694 31.063 54.0636 31.0135 54.5166 30.9476C54.8295 30.9065 55.1343 30.857 55.4308 30.7994C55.7355 30.7417 56.0238 30.6841 56.2956 30.6264C56.5756 30.5605 56.8268 30.4905 57.0492 30.4164C57.2798 30.3423 57.4733 30.2723 57.6298 30.2064L58.6429 31.5654C58.4287 31.6148 58.2434 31.6601 58.0869 31.7013C57.9304 31.7424 57.7987 31.7754 57.6916 31.8001C57.4363 31.866 57.1604 31.9319 56.8639 31.9978C56.5674 32.0554 56.2626 32.1089 55.9496 32.1584C55.6367 32.2078 55.3196 32.2572 54.9984 32.3066C54.5289 32.3725 54.0306 32.4219 53.5035 32.4549C52.9764 32.4878 52.4658 32.5166 51.9716 32.5413C51.4774 32.5578 51.0491 32.5702 50.6868 32.5784L50.3038 31.1453ZM50.835 39.6574C51.5598 39.3279 52.1528 38.9285 52.614 38.459C53.0835 37.9813 53.4294 37.4336 53.6518 36.8159C53.8824 36.1899 53.9977 35.4899 53.9977 34.7157C53.9977 34.7157 53.9977 34.6251 53.9977 34.4439C53.9977 34.2545 53.9977 33.9744 53.9977 33.6038C53.9977 33.2249 53.9977 32.7472 53.9977 32.1707L55.6161 31.9854C55.6161 32.1995 55.6161 32.4301 55.6161 32.6772C55.6161 32.9161 55.6161 33.1549 55.6161 33.3938C55.6161 33.6326 55.6161 33.8509 55.6161 34.0485C55.6161 34.238 55.6161 34.3945 55.6161 34.518C55.6161 34.6333 55.6161 34.691 55.6161 34.691C55.6161 35.5146 55.5131 36.297 55.3072 37.0383C55.1096 37.7795 54.776 38.4631 54.3065 39.0891C53.8371 39.7068 53.2029 40.2545 52.404 40.7322L50.835 39.6574ZM49.3772 34.098C49.5502 34.1144 49.7355 34.1309 49.9331 34.1474C50.1308 34.1639 50.3244 34.1721 50.5138 34.1721C50.6291 34.1721 50.8474 34.1721 51.1686 34.1721C51.4898 34.1721 51.8769 34.1721 52.3299 34.1721C52.7911 34.1721 53.2853 34.1721 53.8124 34.1721C54.3395 34.1721 54.8666 34.1721 55.3937 34.1721C55.9208 34.1721 56.415 34.1721 56.8762 34.1721C57.3374 34.1721 57.7328 34.1721 58.0622 34.1721C58.3917 34.1721 58.614 34.1721 58.7293 34.1721C58.8199 34.1721 58.9352 34.168 59.0753 34.1597C59.2153 34.1515 59.3553 34.1433 59.4953 34.135C59.6435 34.1186 59.763 34.1062 59.8536 34.098V35.6917C59.6888 35.6752 59.5076 35.6628 59.31 35.6546C59.1206 35.6464 58.9394 35.6422 58.7664 35.6422C58.6511 35.6422 58.4287 35.6422 58.0993 35.6422C57.7781 35.6422 57.3827 35.6422 56.9133 35.6422C56.452 35.6422 55.9538 35.6422 55.4184 35.6422C54.8913 35.6422 54.3601 35.6422 53.8247 35.6422C53.2976 35.6422 52.8034 35.6422 52.3422 35.6422C51.881 35.6422 51.4898 35.6422 51.1686 35.6422C50.8474 35.6422 50.6373 35.6422 50.5385 35.6422C50.3491 35.6422 50.1473 35.6464 49.9331 35.6546C49.719 35.6628 49.5337 35.6752 49.3772 35.6917V34.098Z" fill="#00AFA1"/>
<path d="M75.3798 42.066C78.1817 42.066 80.2721 39.4865 80.2721 33.4823C80.2721 28.0564 78.4041 25.2989 75.0685 25.2989C73.245 25.2989 71.3326 25.8326 69.7315 27.3448C69.687 27.8785 69.687 28.3677 69.687 28.9014C69.687 37.8854 71.8663 42.066 75.3798 42.066ZM84.1859 9.33235L84.4527 10.4442C75.7356 12.4901 70.8878 17.916 69.8649 25.7437C71.8663 23.7868 74.3569 22.8083 77.1588 22.8083C82.7627 22.8083 86.1428 26.8111 86.1428 32.7263C86.1428 39.3086 81.9176 43.7116 75.2908 43.7116C68.2193 43.7116 63.7273 38.4635 63.7273 29.7464C63.7273 19.2948 71.7328 10.6221 84.1859 9.33235Z" fill="#00AFA1"/>
<g clip-path="url(#clip0_201_18421)">
<path d="M32.1243 52.3349C32.2388 52.3095 32.3533 52.2841 32.4678 52.2586C32.4678 52.1823 32.4821 52.1188 32.4964 52.0425C32.6109 52.017 32.7254 51.9916 32.8399 51.9662C33.0689 51.7882 32.8685 51.7119 33.2263 51.5593C33.2692 51.2669 33.2979 50.9745 33.3408 50.682C33.2406 50.6312 33.1261 50.5803 33.0259 50.5422C32.9258 50.415 32.8256 50.3006 32.7397 50.1735C32.3247 49.9446 29.8345 49.4869 28.9185 49.5632C28.9185 49.6013 28.9185 49.6394 28.9042 49.6776C28.5178 49.6394 28.1171 49.6013 27.7307 49.5632C27.7307 49.6013 27.7307 49.6394 27.7164 49.6776C27.3729 49.6776 27.0437 49.6776 26.7003 49.6776V49.792C26.5715 49.792 26.457 49.7666 26.3568 49.7539C26.3568 49.792 26.3568 49.8302 26.3568 49.8683C26.185 49.8556 26.0276 49.8302 25.8559 49.8175C25.8559 49.8556 25.8559 49.8937 25.8559 49.9319C25.4122 49.9319 24.9543 49.9192 24.4963 49.9065V50.0209C24.3675 50.0209 24.253 49.9955 24.1528 49.9827C24.1528 50.0209 24.1528 50.059 24.1385 50.0972C23.9668 50.0845 23.8093 50.059 23.6376 50.0463C23.6376 50.0845 23.6376 50.1226 23.6233 50.1607L22.9363 50.1989V50.3133C22.7503 50.3006 22.5929 50.2752 22.4211 50.2625C22.4211 50.3006 22.4211 50.3387 22.4068 50.3769C22.1778 50.3896 21.9488 50.4023 21.7199 50.415C21.7199 50.4532 21.7199 50.4913 21.7199 50.5295C21.1474 50.5803 20.5749 50.6312 20.0025 50.682L19.8021 50.8855C19.6876 50.8855 19.5731 50.86 19.4729 50.8473C19.4729 50.8855 19.4729 50.9236 19.4586 50.9618C19.2297 50.9745 19.0007 50.9872 18.7717 50.9999V51.1143C18.4139 51.1143 18.0847 51.1143 17.7413 51.1143C17.7413 51.1525 17.7413 51.1906 17.7413 51.2288C17.6268 51.2288 17.5123 51.2033 17.4121 51.1906C17.3405 51.2542 17.2833 51.3178 17.2117 51.394C16.8683 51.4322 16.5248 51.4703 16.1813 51.5085C16.1097 51.572 16.0525 51.6483 15.9809 51.7119C15.6947 51.7119 15.4085 51.7246 15.1366 51.7373C15.1366 51.7755 15.1366 51.8136 15.1222 51.8518C15.0078 51.8518 14.8933 51.8263 14.7931 51.8136C14.7358 51.8772 14.6643 51.9535 14.5927 52.017L13.9058 52.0552C13.8342 52.1188 13.777 52.1951 13.7054 52.2586C13.5909 52.2586 13.4764 52.2332 13.3762 52.2205L13.0185 52.4112C12.904 52.4112 12.7895 52.3858 12.6893 52.3731C12.6893 52.4112 12.6893 52.4493 12.675 52.4875C12.5605 52.4875 12.446 52.4621 12.3458 52.4493C12.2743 52.5129 12.217 52.5892 12.1455 52.6528C11.9737 52.6782 11.802 52.6909 11.6302 52.7163V52.8308C11.2725 52.8689 10.929 52.9071 10.5855 52.9452C10.5855 52.9833 10.5855 53.0215 10.5712 53.0596C10.3995 53.0851 10.2277 53.0978 10.056 53.1232L9.85562 53.3266C9.74112 53.3266 9.62663 53.3012 9.52645 53.2885C9.3404 53.4156 9.15435 53.5428 8.9683 53.6699C8.68207 53.6699 8.39584 53.6826 8.12393 53.6954C7.93788 53.8225 7.75183 53.9496 7.56578 54.0768C7.45128 54.0768 7.33679 54.0514 7.23661 54.0386C7.16505 54.1022 7.10781 54.1785 7.03625 54.2421C6.86451 54.2675 6.69277 54.2802 6.52104 54.3056C6.52104 54.3438 6.52104 54.3819 6.50673 54.4201C6.39223 54.4201 6.27774 54.3946 6.17756 54.3819C6.04876 54.4837 5.91995 54.5727 5.80546 54.6744C5.69097 54.6744 5.57648 54.6489 5.4763 54.6362C5.34749 54.7379 5.233 54.8269 5.1042 54.9287C4.98971 54.9287 4.87521 54.9032 4.77503 54.8905C4.70348 54.9541 4.64623 55.0304 4.57467 55.0939C4.46018 55.0939 4.34569 55.0685 4.24551 55.0558C3.70167 55.3737 3.14352 55.6788 2.59969 55.9967C2.54244 56.4925 2.62831 56.607 2.82867 56.8994C3.10059 56.9248 3.38682 56.9503 3.65874 56.9884C3.95928 56.7977 4.27413 56.607 4.57467 56.4162C4.87521 56.3018 5.17576 56.1874 5.46199 56.0602C5.53354 55.9967 5.59079 55.9204 5.66235 55.8568C5.77684 55.8568 5.89133 55.8822 5.99151 55.895C6.17756 55.7678 6.36361 55.6407 6.54966 55.5135C6.66415 55.5135 6.77864 55.5389 6.87882 55.5517C7.06487 55.4245 7.25092 55.2974 7.43697 55.1702C7.55147 55.1702 7.66596 55.1957 7.76614 55.2084C7.8377 55.1448 7.89494 55.0685 7.9665 55.0049C8.08099 55.0049 8.19548 55.0304 8.29566 55.0431C8.42447 54.9414 8.55327 54.8524 8.66776 54.7507C8.8395 54.7252 9.01124 54.7125 9.18298 54.6871C9.25453 54.6235 9.31178 54.5472 9.38334 54.4836C9.72681 54.4455 10.0703 54.4074 10.4138 54.3692C10.471 54.3056 10.5426 54.2294 10.6141 54.1658C10.7286 54.1658 10.8431 54.1912 10.9433 54.2039C11.0721 54.1022 11.1866 54.0132 11.3154 53.9115C11.4299 53.9115 11.5444 53.9369 11.6446 53.9496C11.7161 53.8861 11.7734 53.8098 11.8449 53.7462C12.0739 53.7335 12.3029 53.7208 12.5319 53.7081C12.6034 53.6445 12.6607 53.5682 12.7322 53.5046C12.8467 53.5046 12.9612 53.5301 13.0614 53.5428L13.2618 53.3394C13.3762 53.3394 13.4907 53.3648 13.5909 53.3775C13.6625 53.3139 13.7197 53.2376 13.7913 53.1741C13.963 53.1868 14.1204 53.2122 14.2922 53.2249C14.2922 53.1868 14.2922 53.1486 14.3065 53.1105C14.421 53.1105 14.5355 53.1359 14.6357 53.1486C14.7072 53.0851 14.7645 53.0088 14.836 52.9452C15.065 52.9325 15.294 52.9198 15.523 52.9071C15.5802 52.8435 15.6518 52.7672 15.7233 52.7036C15.8378 52.7036 15.9523 52.7291 16.0525 52.7418C16.0525 52.7036 16.0525 52.6655 16.0668 52.6273C16.1813 52.6273 16.2958 52.6528 16.396 52.6655C16.396 52.6273 16.396 52.5892 16.4103 52.5511C16.582 52.5638 16.7394 52.5892 16.9112 52.6019V52.4875C17.269 52.4493 17.6125 52.4112 17.9559 52.3731C17.9559 52.3349 17.9559 52.2968 17.9559 52.2586C18.0704 52.2586 18.1849 52.2841 18.2851 52.2968C18.3566 52.2332 18.4139 52.1569 18.4855 52.0933C18.5999 52.0933 18.7144 52.1188 18.8146 52.1315L19.1724 51.9408C19.8021 51.8518 20.4318 51.7755 21.0758 51.6865C21.1474 51.6229 21.2046 51.5466 21.2762 51.483C21.6197 51.483 21.9488 51.483 22.2923 51.483C22.2923 51.4449 22.2923 51.4068 22.3066 51.3686C22.5356 51.3559 22.7646 51.3432 22.9936 51.3305V51.216C23.1796 51.2288 23.3371 51.2542 23.5088 51.2669C23.5088 51.2288 23.5088 51.1906 23.5231 51.1525C23.6376 51.1525 23.7521 51.1779 23.8523 51.1906C23.8523 51.1525 23.8523 51.1143 23.8666 51.0762C24.0383 51.0889 24.1957 51.1143 24.3675 51.127C24.3675 51.0889 24.3675 51.0508 24.3818 51.0126C24.4963 51.0126 24.6108 51.038 24.711 51.0508C24.711 51.0126 24.711 50.9745 24.7253 50.9363C24.897 50.949 25.0544 50.9745 25.2262 50.9872C25.2262 50.949 25.2262 50.9109 25.2405 50.8727C25.355 50.8727 25.4695 50.8982 25.5696 50.9109V50.7965C25.8129 50.8219 26.0276 50.8473 26.2566 50.86C26.2566 50.8219 26.2566 50.7837 26.2709 50.7456C26.4426 50.7583 26.6001 50.7837 26.7718 50.7965V50.682C27.0151 50.7075 27.2298 50.7202 27.4588 50.7456C27.4588 50.7075 27.4588 50.6693 27.4588 50.6312C27.6305 50.6439 27.7879 50.6693 27.9597 50.682C27.9597 50.6439 27.9597 50.6057 27.974 50.5676C28.7039 50.4786 28.804 50.771 29.3336 50.4786C30.0635 50.5549 30.779 50.6312 31.5089 50.6947C31.5089 50.6947 31.7093 50.8982 31.8095 50.949C31.6807 51.0762 31.5232 51.0762 31.4517 51.1398C31.4517 51.216 31.4374 51.2796 31.423 51.3559C31.3086 51.3813 31.1941 51.4068 31.0796 51.4322C31.0796 51.5085 31.0653 51.572 31.051 51.6483L30.6932 51.839C30.6932 51.9153 30.6789 51.9789 30.6645 52.0552C30.55 52.0806 30.4356 52.1061 30.3211 52.1315C30.3211 52.2078 30.3068 52.2713 30.2924 52.3476C30.1779 52.3731 30.0635 52.3985 29.949 52.4239C29.7343 52.6019 29.9203 52.6655 29.5626 52.8308C29.4624 53.6826 29.262 54.3438 30.1779 54.6617C30.822 54.8905 32.8542 54.5218 33.2549 54.4201C33.2549 54.3819 33.2549 54.3438 33.2692 54.3056C33.3837 54.3056 33.4982 54.3311 33.5984 54.3438C33.5984 54.3056 33.5984 54.2675 33.5984 54.2294C33.7129 54.2294 33.8274 54.2548 33.9276 54.2675C33.9276 54.2294 33.9276 54.1912 33.9276 54.1531C34.0993 54.1658 34.2567 54.1912 34.4285 54.2039C34.4285 54.1658 34.4285 54.1276 34.4285 54.0895C34.543 54.0895 34.6574 54.1149 34.7576 54.1276V54.0132C35.1154 53.9751 35.4589 53.9369 35.8024 53.8988C35.8024 53.8606 35.8024 53.8225 35.8167 53.7844C35.9312 53.7844 36.0457 53.8098 36.1458 53.8225C36.1458 53.7844 36.1458 53.7462 36.1458 53.7081C36.3176 53.7208 36.475 53.7462 36.6467 53.7589C36.6467 53.7208 36.6467 53.6826 36.6611 53.6445C36.7756 53.6445 36.89 53.6699 36.9902 53.6826C36.9902 53.6445 36.9902 53.6064 36.9902 53.5682C37.2192 53.5555 37.4482 53.5428 37.6772 53.5301C37.6772 53.4919 37.6772 53.4538 37.6915 53.4156C38.035 53.4156 38.3641 53.4156 38.7076 53.4156C38.7649 53.3521 38.8364 53.2758 38.908 53.2122C39.0225 53.2122 39.137 53.2376 39.2371 53.2503C39.2371 53.2122 39.2371 53.1741 39.2514 53.1359C39.4804 53.1232 39.7094 53.1105 39.9384 53.0978C39.9384 53.0596 39.9384 53.0215 39.9527 52.9833C40.3534 52.9833 40.7398 52.9833 41.1406 52.9833V52.8689C41.2694 52.8689 41.3839 52.8943 41.484 52.9071C41.484 52.8689 41.484 52.8308 41.4983 52.7926C41.7846 52.7926 42.0708 52.7799 42.3427 52.7672C42.4143 52.7036 42.4715 52.6273 42.5431 52.5638C42.7721 52.5892 42.9867 52.6019 43.2157 52.6273C43.2157 52.5892 43.2157 52.5511 43.23 52.5129C43.6308 52.5129 44.0172 52.5129 44.4179 52.5129V52.3985C44.6612 52.4239 44.8759 52.4493 45.1048 52.4621C45.1048 52.5002 45.1048 52.5383 45.1048 52.5765C45.4769 52.9198 44.9188 53.5428 45.0905 54.0132C45.1478 54.0132 45.205 54.0132 45.2623 54.0259C45.248 54.1404 45.2337 54.2421 45.2193 54.3565C45.2766 54.3565 45.3338 54.3565 45.3911 54.3692C45.3911 54.4455 45.3768 54.5091 45.3625 54.5854C45.4197 54.5854 45.4769 54.5854 45.5342 54.5981C45.6344 54.7125 45.7346 54.8397 45.8204 54.9541C46.3786 55.0812 46.951 55.4499 47.7954 55.3737V55.2592C48.2534 55.2592 48.7113 55.2719 49.155 55.2847C49.2266 55.2211 49.2838 55.1448 49.3554 55.0812C49.4699 55.0812 49.5843 55.1067 49.6845 55.1194C49.6845 55.0812 49.6845 55.0431 49.6988 55.0049C50.2141 54.9795 50.715 54.9541 51.2302 54.9414C51.3017 54.8778 51.359 54.8015 51.4305 54.7379C51.6595 54.7252 51.8885 54.7125 52.1175 54.6998C52.1175 54.6617 52.1175 54.6235 52.1318 54.5854C52.3608 54.5727 52.5898 54.5599 52.8187 54.5472C52.8187 54.5091 52.8187 54.4709 52.8187 54.4328L53.3196 54.4836C53.3196 54.4836 53.3196 54.4074 53.334 54.3692C53.6774 54.3311 54.0209 54.2929 54.3644 54.2548C54.3644 54.2166 54.3644 54.1785 54.3787 54.1404C54.7222 54.1022 55.0657 54.0641 55.4091 54.0259C55.4807 53.9624 55.5379 53.8861 55.6095 53.8225C55.7812 53.8352 55.9387 53.8606 56.1104 53.8734C56.1104 53.8352 56.1104 53.7971 56.1104 53.7589C56.2249 53.7589 56.3394 53.7844 56.4396 53.7971C56.4396 53.7589 56.4396 53.7208 56.4539 53.6826C56.7973 53.6445 57.1408 53.6064 57.4843 53.5682C57.4843 53.5301 57.4843 53.4919 57.4986 53.4538C57.6703 53.4665 57.8278 53.4919 57.9995 53.5046C57.9995 53.4665 57.9995 53.4284 57.9995 53.3902C58.114 53.3902 58.2285 53.4156 58.3287 53.4284C58.3287 53.3902 58.3287 53.3521 58.343 53.3139C58.4575 53.3139 58.572 53.3394 58.6721 53.3521C58.6721 53.3139 58.6721 53.2758 58.6721 53.2376C59.1587 53.1486 59.1587 53.3139 59.5308 53.0978C59.7598 53.1232 59.9745 53.1486 60.2035 53.1613V53.2758C60.2035 53.2758 60.3037 53.2758 60.3609 53.2885C60.5613 53.5682 60.1176 54.0259 60.0747 54.1404C60.1319 54.1404 60.1892 54.1404 60.2464 54.1531C60.2178 54.3311 60.2035 54.5218 60.1749 54.6998C60.2178 54.7761 60.4038 54.7252 60.4611 55.0685C60.6185 55.1194 60.7903 55.1702 60.9477 55.2338C60.9477 55.2719 60.9477 55.3101 60.9334 55.3482L61.4343 55.3991C61.4343 55.3991 61.4343 55.4754 61.42 55.5135C62.5076 55.8695 63.6955 55.5517 64.3109 55.4754C64.5399 55.5008 64.7545 55.5135 64.9835 55.5389C64.9835 55.5008 64.9835 55.4627 64.9978 55.4245C65.1696 55.4372 65.327 55.4627 65.4987 55.4754C65.4987 55.4372 65.4987 55.3991 65.513 55.3609C65.6848 55.3737 65.8422 55.3991 66.014 55.4118V55.2974C66.2 55.3101 66.3574 55.3355 66.5292 55.3482C66.5292 55.3101 66.5292 55.2719 66.5435 55.2338C66.7152 55.2465 66.8726 55.2719 67.0444 55.2847C67.0444 55.2465 67.0444 55.2084 67.0444 55.1702L67.7313 55.1321C67.7313 55.1321 67.7313 55.0558 67.7456 55.0177C67.8601 55.0177 67.9746 55.0431 68.0748 55.0558C68.0748 55.0177 68.0748 54.9795 68.0891 54.9414C68.2609 54.9541 68.4183 54.9795 68.59 54.9922C68.59 54.9541 68.59 54.9159 68.6043 54.8778C68.7188 54.8778 68.8333 54.9032 68.9335 54.9159C68.9335 54.8778 68.9335 54.8397 68.9335 54.8015C69.1625 54.8269 69.3772 54.8524 69.6061 54.8651C69.6061 54.8269 69.6061 54.7888 69.6204 54.7507C69.7349 54.7507 69.8494 54.7761 69.9496 54.7888V54.6744C70.0784 54.6744 70.1929 54.6998 70.2931 54.7125C70.3646 54.6489 70.4219 54.5854 70.4934 54.5091C70.8942 54.5091 71.2806 54.5091 71.6813 54.5091C71.6813 54.4709 71.6813 54.4328 71.6813 54.3946C71.7958 54.3946 71.9103 54.4201 72.0105 54.4328C72.0105 54.3946 72.0105 54.3565 72.0248 54.3184C72.3683 54.3184 72.6974 54.3184 73.0409 54.3184V54.2039C73.2842 54.2294 73.4989 54.2548 73.7279 54.2675C73.7994 54.2039 73.8567 54.1276 73.9282 54.0641C74.0427 54.0641 74.1572 54.0895 74.2574 54.1022C74.2574 54.0641 74.2574 54.0259 74.2717 53.9878C74.8441 53.9751 75.4023 53.9496 75.9748 53.9369C75.9748 53.8988 75.9748 53.8606 75.9891 53.8225C76.1608 53.8352 76.3182 53.8606 76.49 53.8734C76.49 53.8352 76.49 53.7971 76.5043 53.7589C76.676 53.7716 76.8335 53.7971 77.0052 53.8098C77.0052 53.7716 77.0052 53.7335 77.0195 53.6954C77.1912 53.7081 77.3487 53.7335 77.5204 53.7462V53.6318C77.7064 53.6445 77.8639 53.6699 78.0356 53.6826C78.0356 53.6445 78.0356 53.6064 78.0499 53.5682C78.1644 53.5682 78.2789 53.5936 78.3791 53.6064C78.3791 53.5682 78.3791 53.5301 78.3934 53.4919C78.5651 53.5046 78.7226 53.5301 78.8943 53.5428C78.8943 53.5046 78.8943 53.4665 78.8943 53.4284C79.1233 53.4538 79.338 53.4792 79.5669 53.4919V53.3775C79.753 53.3902 79.9104 53.4156 80.0822 53.4284C80.0822 53.3902 80.0822 53.3521 80.0965 53.3139C80.2682 53.3266 80.4256 53.3521 80.5974 53.3648C80.5974 53.3266 80.5974 53.2885 80.5974 53.2503C80.8264 53.2758 81.041 53.3012 81.27 53.3139C81.27 53.2758 81.27 53.2376 81.2843 53.1995L82.1144 53.2885C82.1144 53.2885 82.1144 53.2122 82.1287 53.1741C82.3577 53.1613 82.5867 53.1486 82.8157 53.1359C82.8157 53.0978 82.8157 53.0596 82.83 53.0215C83.1162 53.0469 83.3881 53.0723 83.6743 53.1105V52.9961C83.8604 53.0088 84.0178 53.0342 84.1896 53.0469C84.1896 53.0088 84.1896 52.9706 84.1896 52.9325C85.1198 52.7926 85.5205 53.0469 86.1073 52.5765C86.1645 52.5765 86.2218 52.5765 86.279 52.5892L86.1645 52.1315C84.3327 51.9662 83.1305 52.0806 81.7423 52.2332C81.2986 52.2332 80.8407 52.2205 80.397 52.2078C80.397 52.2459 80.397 52.2841 80.3827 52.3222C80.2682 52.3222 80.1537 52.2968 80.0535 52.2841C80.0535 52.3222 80.0535 52.3603 80.0392 52.3985C79.6957 52.3985 79.3666 52.3985 79.0231 52.3985C79.0231 52.4366 79.0231 52.4748 79.0088 52.5129C78.5508 52.5129 78.1072 52.5002 77.6492 52.4875C77.6492 52.5256 77.6492 52.5638 77.6492 52.6019L77.1483 52.5511C77.1483 52.5511 77.1483 52.6273 77.134 52.6655C76.9622 52.6528 76.8048 52.6273 76.6331 52.6146C76.6331 52.6528 76.6331 52.6909 76.6188 52.7291C76.447 52.7163 76.2896 52.6909 76.1179 52.6782C76.1179 52.7163 76.1179 52.7545 76.1036 52.7926C75.9891 52.7926 75.8746 52.7672 75.7744 52.7545C75.7744 52.7926 75.7744 52.8308 75.7601 52.8689C75.5311 52.8435 75.3164 52.8181 75.0874 52.8053V52.9198C74.9014 52.9071 74.744 52.8816 74.5722 52.8689V52.9833C74.3862 52.9706 74.2288 52.9452 74.057 52.9325V53.0469C73.871 53.0342 73.7135 53.0088 73.5418 52.9961C73.5418 53.0342 73.5418 53.0723 73.5275 53.1105C73.3558 53.0978 73.1983 53.0723 73.0266 53.0596V53.1741C72.8978 53.1741 72.7833 53.1486 72.6831 53.1359C72.6831 53.1741 72.6831 53.2122 72.6688 53.2503C72.3826 53.2503 72.0963 53.2631 71.8244 53.2758C71.8244 53.3139 71.8244 53.3521 71.8244 53.3902C71.5954 53.3648 71.3808 53.3521 71.1518 53.3266C71.1518 53.3648 71.1518 53.4029 71.1375 53.4411C71.023 53.4411 70.9085 53.4156 70.8083 53.4029V53.5174C70.4505 53.5174 70.1214 53.5174 69.7779 53.5174C69.7779 53.5555 69.7779 53.5936 69.7636 53.6318C69.5346 53.6445 69.3056 53.6572 69.0766 53.6699C69.0766 53.7081 69.0766 53.7462 69.0766 53.7844C68.9621 53.7844 68.8476 53.7589 68.7475 53.7462C68.7475 53.7844 68.7474 53.8225 68.7331 53.8606C68.2179 53.8861 67.717 53.8988 67.2018 53.9242V54.0386C67.073 54.0386 66.9585 54.0132 66.8583 54.0005C66.8583 54.0386 66.8583 54.0768 66.844 54.1149C66.5005 54.1149 66.1714 54.1149 65.8279 54.1149C65.8279 54.1531 65.8279 54.1912 65.8136 54.2294C65.5846 54.2421 65.3556 54.2548 65.1266 54.2675C65.1266 54.3056 65.1266 54.3438 65.1123 54.3819C64.9406 54.3692 64.7832 54.3438 64.6114 54.3311V54.4455C64.1964 54.4455 63.81 54.4455 63.4093 54.4455V54.5599C62.8511 54.5218 62.0067 54.4837 61.7348 54.2802C61.6776 54.2802 61.6203 54.2802 61.5631 54.2675C61.4772 54.0514 61.6776 54.1276 61.7634 54.0641C61.8207 53.6572 61.8636 53.2631 61.9209 52.8562C61.5488 52.6401 61.191 52.4112 60.8189 52.1951C59.5595 52.0933 58.4002 52.1315 57.4127 52.2968C57.4127 52.3349 57.4127 52.3731 57.4127 52.4112C57.1265 52.4112 56.8403 52.4239 56.5684 52.4366C56.4968 52.5002 56.4396 52.5765 56.368 52.6401C56.2535 52.6401 56.1533 52.6146 56.0388 52.6019L55.681 52.7926C55.0513 52.8816 54.4216 52.9579 53.7776 53.0469C53.7204 53.1105 53.6488 53.1868 53.5773 53.2503C53.3483 53.2631 53.1193 53.2758 52.8903 53.2885C52.8903 53.3266 52.8903 53.3648 52.876 53.4029C52.647 53.4156 52.418 53.4284 52.189 53.4411C52.189 53.4792 52.189 53.5174 52.1747 53.5555C51.8313 53.5555 51.5021 53.5555 51.1586 53.5555C51.1586 53.5936 51.1586 53.6318 51.1586 53.6699C51.0441 53.6699 50.9296 53.6445 50.8294 53.6318C50.7579 53.6954 50.7006 53.7716 50.6291 53.8352C50.4001 53.8479 50.1711 53.8606 49.9421 53.8734C49.9421 53.9115 49.9421 53.9496 49.9278 53.9878L49.2552 53.9242C49.2552 53.9242 49.2552 54.0005 49.2409 54.0386C49.1264 54.0386 49.0119 54.0132 48.9117 54.0005C48.9117 54.0386 48.9117 54.0768 48.8974 54.1149H47.8813L47.867 54.2294C46.9224 54.1276 46.8938 54.0005 46.4072 53.7462C46.4358 53.4919 46.4788 53.2376 46.5074 52.9833C46.5646 52.9833 46.6219 52.9833 46.6791 52.9961C46.8652 52.7672 47.0655 52.3731 46.7936 52.1188C46.6791 51.6992 46.307 51.6992 46.0351 51.3813C45.4197 51.3559 44.8043 51.3305 44.1746 51.305C44.1746 51.3432 44.1746 51.3813 44.1603 51.4195C44.0458 51.4195 43.9313 51.394 43.8311 51.3813C43.8311 51.4195 43.8311 51.4576 43.8168 51.4958C43.5878 51.4703 43.3732 51.4576 43.1442 51.4322C43.1442 51.4703 43.1442 51.5085 43.1442 51.5466C42.9724 51.5339 42.815 51.5085 42.6433 51.4958C42.6433 51.5339 42.6433 51.572 42.629 51.6102C42.4572 51.5975 42.2998 51.572 42.1281 51.5593C42.1281 51.5975 42.1281 51.6356 42.1137 51.6738C41.942 51.661 41.7846 51.6356 41.6128 51.6229C41.6128 51.661 41.6128 51.6992 41.5985 51.7373C41.4268 51.7246 41.2694 51.6992 41.0976 51.6865C41.0976 51.7246 41.0976 51.7628 41.0833 51.8009C40.8543 51.8136 40.6253 51.8263 40.3964 51.839V51.9535C40.0958 51.9535 39.8096 51.9662 39.5377 51.9789C39.5377 52.017 39.5377 52.0552 39.5234 52.0933C39.2944 52.0679 39.0797 52.0425 38.8507 52.0298C38.8507 52.0679 38.8507 52.1061 38.8364 52.1442C38.4929 52.1823 38.1495 52.2205 37.806 52.2586C37.806 52.2968 37.806 52.3349 37.806 52.3731C37.6342 52.3603 37.4768 52.3349 37.3051 52.3222C37.3051 52.3603 37.3051 52.3985 37.2908 52.4366C37.1763 52.4366 37.0618 52.4112 36.9616 52.3985C36.9616 52.4366 36.9616 52.4748 36.9473 52.5129C36.6038 52.5511 36.2603 52.5892 35.9169 52.6273C35.9169 52.6655 35.9169 52.7036 35.9169 52.7418C35.7451 52.7291 35.5877 52.7036 35.416 52.6909C35.416 52.7291 35.416 52.7672 35.4016 52.8053C35.1154 52.8053 34.8292 52.8181 34.5573 52.8308C34.4857 52.8943 34.4285 52.9706 34.3569 53.0342C34.2424 53.0342 34.1279 53.0088 34.0277 52.9961C34.0277 53.0342 34.0277 53.0723 34.0277 53.1105C33.9132 53.1105 33.7988 53.0851 33.6986 53.0723C33.6986 53.1105 33.6986 53.1486 33.6843 53.1868C33.5125 53.1741 33.3551 53.1486 33.1834 53.1359V53.2503C32.9401 53.2631 32.7111 53.2758 32.4821 53.2885C32.4821 53.3266 32.4821 53.3648 32.4821 53.4029C32.3104 53.3902 32.1529 53.3648 31.9812 53.3521C31.9812 53.3902 31.9812 53.4284 31.9669 53.4665C31.5805 53.4029 31.5662 53.3775 31.3086 53.2885C31.466 52.8308 31.7808 52.7672 32.0957 52.4748C32.0957 52.3985 32.11 52.3349 32.1243 52.2586" fill="#00AFA1"/>
</g>
<defs>
<clipPath id="clip0_201_18421">
<rect width="84.0085" height="7.41252" fill="white" transform="translate(2.47083 49.5635)"/>
</clipPath>
</defs>
</svg>
