<svg width="116" height="96" viewBox="0 0 116 96" fill="none" xmlns="http://www.w3.org/2000/svg">
<path d="M20.5907 71.5246C21.71 72.2873 22.6829 73.0324 23.6751 73.9969C23.8774 74.2154 24.0435 74.5438 24.2093 74.7807C26.1578 76.8196 27.7546 81.7863 27.1063 83.8561C27.2922 84.4953 27.2395 84.9345 27.1872 85.4651C26.9587 87.3682 27.2752 88.5371 25.9305 90.3176C25.2219 91.2721 23.6147 91.7188 22.6638 91.7417C20.653 91.9343 18.5116 91.5972 16.8788 90.5444C16.2 90.1087 15.4667 89.7465 14.8969 89.164C11.5342 85.8701 9.67273 82.9164 8.80606 77.6718C8.56202 76.3745 8.15402 75.206 8.8235 73.7214C8.91406 73.538 8.93119 73.3002 9.02175 73.1169C9.40022 71.9629 9.96245 70.9908 10.6346 70.0549C10.9797 69.5594 11.454 69.3194 11.8365 68.9883C12.3099 68.5654 12.9311 68.4344 13.4063 68.3772C15.0879 68.1679 16.0419 68.7851 17.3621 69.4919C17.949 69.8366 18.5895 69.9249 19.1584 70.3245C19.7088 70.6876 20.0952 71.1795 20.5722 71.4881L20.5907 71.5246ZM16.4169 70.7035C15.1913 70.6363 13.9603 69.4718 12.5021 70.4848C12.2652 70.6505 11.7737 71.1284 11.6466 71.3302C11.2651 71.8441 10.9398 72.6504 11.4542 73.1234C11.6195 73.2689 11.8397 73.4324 12.0415 73.5595C12.1703 73.7234 12.373 74.0334 12.1365 74.2905C11.973 74.5108 11.6076 74.604 11.4626 74.8607C11.4081 74.9342 11.263 75.1909 11.2634 75.2823C11.2832 75.5932 12.112 76.7779 12.2777 77.0148C13.1416 77.9068 14.3514 78.4862 15.5938 78.2241C15.8861 78.1678 16.2303 77.4895 16.4849 77.1774C16.8664 76.6634 17.5228 76.2396 17.9092 76.7315C18.4236 77.2045 18.1194 78.5959 17.5739 79.2387C17.4648 79.3855 17.3193 79.5508 17.1918 79.6612C15.131 80.8416 14.1207 79.9321 12.182 79.9049C12.0356 79.8873 11.9076 79.9062 11.8166 79.9981C11.6166 80.2368 11.7657 80.8031 11.785 81.0224C12.026 81.6796 12.3944 82.2265 12.7813 82.8099C13.0952 83.4302 13.3546 84.1239 13.7415 84.7072C14.1833 85.3086 15.2855 86.3091 15.7998 86.7822C16.0021 87.0006 16.1133 87.311 16.3705 87.5475C16.7552 87.6737 17.4722 88.4566 17.6753 88.858C17.9681 88.8931 18.3893 89.0008 18.5176 89.0733C19.0311 89.3635 19.3982 89.636 19.9293 89.7798C20.8824 90.2141 22.9477 89.948 24.0437 89.6684C24.3729 89.6851 24.6639 89.3545 24.9185 89.0423C25.6636 88.0694 25.5097 86.4974 25.5958 85.3996C25.7852 82.9664 25.3129 79.8596 24.2978 77.9442C24.1131 77.5793 23.7825 77.2883 23.5979 76.9234C23.4321 76.6865 23.2664 76.4495 23.1547 76.0477C22.8434 75.9761 22.3295 75.5945 22.1268 75.2846C21.9611 75.0476 21.7584 74.7377 21.6292 74.4823C20.895 73.9372 16.9502 71.3045 16.4169 70.7035Z" fill="#323B62"/>
<path d="M36.803 62.172C36.8408 62.4279 36.9151 62.6653 36.9709 62.8662C37.2515 64.145 37.1051 64.1275 36.9847 65.7009C36.9346 66.6887 36.721 67.8968 36.4871 68.7026C36.7474 69.5792 36.7369 71.1886 36.5053 72.4516C36.5066 72.726 36.2701 72.9832 36.0516 73.1854C35.5056 73.7367 34.4457 73.9064 33.8769 73.5068C33.3999 73.1982 29.9606 69.2097 29.6102 68.6079C29.4638 68.5903 29.2255 68.4817 29.0615 68.6105C29.0615 68.6105 29.1025 69.5065 29.1047 69.9637C29.0326 70.1835 28.9785 70.3483 28.833 70.5136C28.5235 70.8078 28.1582 70.901 27.956 70.6825C27.8452 70.4636 27.6232 69.9343 27.5853 69.6784C27.1531 67.2847 26.5235 65.6784 26.0272 65.1504C25.8249 64.9319 25.5497 64.7504 25.2213 64.9166C24.9105 64.9364 24.82 65.1197 24.6015 65.3219C24.11 65.7998 24.0032 66.4038 23.6572 66.7164C23.4388 66.9186 22.9631 66.8844 22.7793 66.7024C21.842 65.7559 23.8458 64.1002 24.0444 63.5872C24.2787 62.8728 23.3239 62.0727 23.3748 61.2678C22.7303 60.3565 21.8607 58.2758 23.0801 57.0629C23.4986 56.6219 24.3572 56.4166 24.6333 56.781C25.0571 57.4373 25.7935 58.4396 26.0714 59.1698C26.4015 59.3694 26.7695 59.8248 27.0254 59.787C27.4272 59.6754 28.0452 58.9042 28.3363 58.5736C28.7002 58.2061 29.1381 57.9845 29.4331 58.4769C30.0037 59.2422 28.4221 61.1885 28.0599 61.9218C27.8607 62.3434 28.7497 64.6434 29.0258 65.0079C29.1366 65.2268 29.3564 65.2989 29.5586 65.5174C30.1847 66.3922 30.8833 67.1386 31.5273 67.9585C32.0975 68.6324 32.9232 69.1771 33.0551 69.9811C33.4217 70.1622 34.3221 71.0357 34.6496 70.6866C34.8861 70.4295 35.2826 69.2205 35.2624 68.8183C35.312 67.739 35.1067 66.8804 35.3225 66.1295C35.0987 65.2345 35.3519 64.648 35.2934 63.8985C35.1764 62.3994 35.325 62.8742 34.8612 61.5048C34.7319 61.2494 35.1139 60.8269 35.2959 60.6431C35.7144 60.2022 36.1536 60.2549 36.5581 60.6919C36.7796 61.1297 36.6728 61.7338 36.7665 62.1905L36.803 62.172Z" fill="#323B62"/>
<path d="M51.076 52.2485C51.2638 53.2535 51.2343 54.735 51.2739 55.3566C51.754 56.3053 51.7044 57.3845 51.8187 58.335C52.0632 59.7237 52.5666 61.7148 51.0184 63.0025C50.6359 63.3335 50.3251 63.3533 50.0319 63.2267C49.281 63.0109 46.8586 61.3035 46.3979 60.5742C45.9925 59.9543 45.7692 59.1507 45.2715 58.3484C44.5892 57.1813 43.8194 56.8375 43.192 55.6884C42.9335 55.1775 42.8583 54.7573 42.5457 54.4113C42.4165 54.1559 42.1408 53.8829 41.7219 54.2324C41.2484 54.6553 41.1276 56.1373 41.1487 56.7224C41.1905 57.8012 41.0138 59.0823 41.1471 60.1607C41.1488 60.5264 41.3876 60.7265 41.4069 60.9458C41.5397 61.9328 41.6184 63.0846 41.6589 63.8891C41.9922 64.7287 42.8024 65.877 41.819 66.7413C41.3821 67.1458 40.8519 67.1849 40.5754 66.729C40.0227 65.9087 39.7972 64.6479 39.1509 63.3708C38.7077 62.4951 38.1538 61.4005 37.566 60.873C37.4939 61.0928 37.8825 62.0419 37.4636 62.3914C37.2086 62.6121 36.7514 62.6143 36.3834 62.1589C36.1627 61.9039 35.9047 61.4846 35.7371 60.8818C35.9723 60.3503 35.2535 59.2016 35.2337 58.8908C35.195 58.4521 34.7721 57.9786 34.8244 57.448C34.1421 56.2809 32.6244 52.5573 32.5434 50.9483C32.0097 50.256 31.5779 47.9537 31.7568 47.1299C31.8109 46.965 32.1023 46.7258 32.2298 46.6155C33.3227 45.6958 34.9572 47.1144 35.3634 47.9171C35.6215 48.3365 37.1261 53.1208 37.2571 53.742C37.3314 53.9793 37.3701 54.4181 37.1705 54.7482C37.375 55.4239 37.1082 56.9797 37.4762 57.4352C37.6608 57.8001 38.6003 59.2037 38.9828 58.8727C39.4927 58.4313 39.0327 54.0808 41.109 52.2968C42.0379 51.5059 43.409 51.4078 43.9621 52.3195C43.9621 52.3195 44.3859 52.9759 44.5517 53.2128C45.1966 54.2156 45.7312 55.0908 46.1194 55.9485C46.5964 56.2571 47.1684 57.2968 47.317 57.7716C47.7945 58.1716 48.275 59.2117 48.4966 59.6496C48.8821 59.9586 49.4875 60.3397 49.779 60.1006C50.1614 59.7695 49.8246 58.1984 50.0954 57.4655C49.7991 56.6988 49.5849 54.0114 49.5457 53.4813C49.3769 52.6042 49.0779 51.2889 49.0554 50.4294C49.1091 50.1731 49.4713 49.4399 49.5988 49.3295C49.9267 49.0719 50.2186 48.9242 50.4758 49.1607C50.9555 50.0179 51.0171 51.4075 51.1309 52.2665L51.076 52.2485Z" fill="#323B62"/>
<path d="M59.9139 45.8019C59.6488 47.7235 60.0679 51.178 59.7426 51.9843C59.8583 53.209 59.5524 54.2347 59.0257 55.0054C58.8261 55.3355 58.7549 55.7382 58.5554 56.0684C58.3558 56.3985 57.7008 57.0967 57.3728 57.3543C56.316 58.1641 55.1409 57.2005 54.4788 56.4356C54.2581 56.1806 53.7631 55.927 53.5973 55.69C53.4496 55.3981 53.3573 55.2157 53.228 54.9603C52.8231 54.4319 52.3817 53.9219 52.0683 53.3931C51.5882 52.4444 50.9973 51.2768 50.773 50.2903C50.3677 49.6705 49.5684 47.0042 49.3217 45.1583C49.2285 44.7929 49.3546 44.4083 49.3524 43.9511C49.3493 43.311 49.6183 42.2124 50.1832 41.789C51.3495 40.9238 52.9093 42.0135 53.6294 43.4366C54.4604 45.0785 54.4116 46.3407 54.6376 47.6929C54.6935 47.8938 54.5867 48.4978 54.4596 48.6996C54.5546 49.4307 54.3383 50.0902 53.8126 51.0437C53.7401 51.1721 53.7044 51.3734 53.6869 51.5198C53.6697 51.7577 53.948 52.5793 54.0223 52.8167C54.2809 53.3275 56.359 55.7132 57.0334 55.2345C57.5438 54.8845 58.1051 53.7296 58.1935 53.0891C58.3161 51.9729 58.2171 50.4189 58.5221 49.2103C58.297 48.041 58.4706 46.1198 58.4508 45.809C58.449 45.4432 58.1914 45.1153 58.1896 44.7495C58.169 44.2558 58.3672 43.6514 58.7316 43.3753C59.0596 43.1176 59.5172 43.2069 59.7199 43.5168C60.0699 44.0272 60.0004 44.7956 59.8774 45.8204L59.9139 45.8019ZM51.0001 44.3089C51.0001 44.3089 50.7456 44.621 50.7834 44.8769C50.9351 45.9917 51.9358 48.6936 52.3429 49.6792C52.4537 49.8981 52.7474 50.1162 52.9478 49.9689C53.3487 49.6743 53.1552 47.4806 53.208 47.0414C52.8941 46.4212 52.5784 45.4351 52.2636 44.6319C52.042 44.1941 51.638 43.8486 51.0366 44.2904L51.0001 44.3089Z" fill="#323B62"/>
<path d="M74.1285 35.4C74.3352 36.5328 73.8864 38.2724 73.8187 39.4066C73.7849 39.9738 73.464 41.6944 72.9 42.3007C72.722 43.3074 72.4152 44.1502 72.0147 44.5362C71.8872 44.6465 71.6327 44.9587 71.5597 44.9956C70.0646 45.9355 68.7039 44.4242 68.2599 43.3656C68.1491 43.1467 68.1108 42.7994 68.0546 42.507L66.3355 38.7479C66.1878 38.456 65.3217 37.1069 65.0289 37.0717C64.4122 38.1171 64.0491 38.6676 63.413 39.4936C63.2873 39.9697 63.0332 40.3733 62.7975 40.8134C62.5795 41.107 62.9388 43.5377 62.5216 44.253C62.4671 44.3264 62.1941 44.602 62.1211 44.639C61.7562 44.8236 61.3531 44.661 61.1324 44.406C61.0031 44.1506 61.065 41.8276 60.8804 41.4628C60.4188 40.5506 58.9966 41.4536 58.2409 40.2319C57.8905 39.6301 57.5365 38.2968 57.3686 37.6026C57.3484 37.2004 57.3466 36.8346 57.5826 36.486C57.5237 35.645 57.4977 34.054 58.1712 33.3923C58.2987 33.282 58.4442 33.1167 58.5532 32.9699C58.6991 32.896 58.8271 32.8771 58.9185 32.8767C60.233 32.3948 60.746 32.5935 61.2454 33.7615C61.6341 34.7106 61.7669 35.6976 62.1556 36.6467C62.2663 36.8656 62.3771 37.0846 62.6506 36.9003C62.7965 36.8265 62.8875 36.7346 62.9051 36.5882C63.1042 36.1666 63.3548 35.0315 63.389 34.5558C63.2941 33.8247 63.4158 32.5257 64.3275 31.9726C64.7289 31.7695 65.4046 31.565 65.4618 32.0403C65.591 32.2957 65.6293 32.643 65.777 32.9349C65.9616 33.2998 66.4395 33.7912 66.717 34.43C67.0493 35.0868 67.125 35.5985 67.1835 36.348C67.8275 37.1679 68.3648 38.5918 68.7539 39.6323C68.8647 39.8513 68.848 40.1806 68.8678 40.4914C69.274 41.2941 69.7357 42.2063 70.2878 42.9351C70.4167 43.0991 70.6 43.1897 70.8369 43.0239C71.0194 42.9316 71.0558 42.9131 71.0914 42.7118C71.6524 41.4655 71.9556 39.8912 72.2071 38.9389C72.0949 38.4457 72.3815 37.2007 72.3609 36.707C72.3749 35.8291 72.1889 35.1899 72.6601 34.3098C72.8057 34.1445 73.0057 33.9057 73.1516 33.8319C73.48 33.6657 73.9917 33.59 74.2129 33.9365C74.3254 34.5211 74.0529 34.8882 74.0736 35.3819L74.1285 35.4ZM59.3903 35.892C58.7885 36.2424 59.2168 37.8131 59.4194 38.123C59.5487 38.3784 59.8626 38.9987 60.2275 38.8141C60.2275 38.8141 60.318 38.6308 60.3176 38.5393C60.3523 38.1551 60.1614 36.51 60.0687 36.2362C59.9394 35.9808 59.7732 35.6524 59.3903 35.892Z" fill="#323B62"/>
<path d="M73.7652 22.2142C73.585 22.5269 73.3017 22.7639 72.9152 22.9253C72.5158 23.0641 72.1374 23.1611 71.7798 23.2161C71.7765 23.1582 71.7217 23.1147 71.6154 23.0858C71.6441 22.77 71.6729 22.4543 71.7016 22.1385C71.7303 21.8228 71.8944 21.5343 72.1939 21.2731C72.2584 21.3858 72.3374 21.4453 72.4308 21.4517C72.5113 21.4355 72.5839 21.4838 72.6484 21.5965C72.6935 21.5707 72.7096 21.5465 72.6966 21.524C72.6837 21.5014 72.6998 21.4773 72.7449 21.4515C72.7804 21.4611 72.8174 21.4997 72.8562 21.5674C72.9045 21.5995 72.9383 21.5802 72.9576 21.5093C73.0447 21.6091 73.1059 21.6638 73.1414 21.6734C73.1865 21.6476 73.2413 21.6911 73.3058 21.8038C73.3541 21.836 73.3654 21.8295 73.3396 21.7844C73.3009 21.7168 73.3041 21.6701 73.3492 21.6443C73.375 21.6894 73.3831 21.7296 73.3734 21.7651C73.3509 21.778 73.3702 21.8118 73.4315 21.8665C73.512 21.8503 73.5781 21.8873 73.6297 21.9775C73.7039 22.0548 73.749 22.1337 73.7652 22.2142ZM73.4459 21.8134C73.4201 21.7683 73.4362 21.7441 73.4942 21.7408C73.5393 21.715 73.5635 21.7311 73.5667 21.7891C73.5217 21.8149 73.4991 21.8278 73.4991 21.8278C73.4862 21.8053 73.4685 21.8004 73.4459 21.8134ZM76.7846 33.0564C76.6848 33.1434 76.6703 33.1966 76.7412 33.2159C76.8217 33.1997 76.8749 33.2142 76.9007 33.2592L76.7993 33.3173C76.8251 33.3624 76.8734 33.3946 76.9443 33.4138C77.0152 33.4331 77.041 33.4782 77.0218 33.5491C76.9283 33.5427 76.8735 33.4993 76.8573 33.4187C76.8381 33.4896 76.8639 33.5347 76.9348 33.554C77.0057 33.5733 77.054 33.6055 77.0798 33.6505L77.0122 33.6893C77.0155 33.7472 77.0284 33.7698 77.0509 33.7569C77.0831 33.7085 77.1008 33.7133 77.1041 33.7713L77.0027 33.8294C77.0963 34.0452 77.2269 34.1949 77.3945 34.2785C77.3494 34.3043 77.322 34.335 77.3124 34.3704C77.3253 34.393 77.3076 34.3881 77.2592 34.356C77.3688 34.4429 77.4156 34.5508 77.3996 34.6796C77.4061 34.7956 77.4803 34.8729 77.6221 34.9114C77.635 34.934 77.6302 34.9517 77.6076 34.9646C77.5722 34.955 77.5609 34.9614 77.5738 34.984C77.6254 35.0741 77.6673 35.095 77.6995 35.0467C77.7448 35.2303 77.798 35.3495 77.8593 35.4042L77.7578 35.4623C77.8287 35.4815 77.8965 35.5475 77.961 35.6602C78.0126 35.7504 78.0739 35.8051 78.1447 35.8244C78.1222 35.8373 78.1109 35.8438 78.1109 35.8438C78.1496 35.9114 78.1996 35.9726 78.2609 36.0273C78.3447 36.0691 78.377 36.1255 78.3577 36.1964C78.3835 36.2414 78.4077 36.2575 78.4302 36.2446C78.4528 36.2317 78.4769 36.2478 78.5027 36.2929C78.58 36.2187 78.6105 36.1414 78.5944 36.0608C78.5653 35.9578 78.5894 35.8692 78.6667 35.795C78.5882 34.4032 78.4985 33.0179 78.3976 31.6391C78.3191 30.2474 78.4421 28.9199 78.7665 27.6567C78.7631 27.3893 78.8064 27.1251 78.8964 26.864C78.9864 26.603 79.1054 26.3403 79.2534 26.076C79.3404 26.1758 79.376 26.2902 79.36 26.419C79.344 26.5479 79.3021 26.6317 79.2345 26.6704C79.299 26.7832 79.3329 26.8685 79.3362 26.9265C79.362 26.9716 79.383 27.0344 79.3992 27.1149C79.3541 27.1407 79.3251 27.1424 79.3122 27.1198C79.3218 27.0844 79.3154 27.0731 79.2928 27.086C79.2961 27.144 79.3155 27.1778 79.3509 27.1874C79.3734 27.1745 79.3976 27.1906 79.4234 27.2357C79.3816 27.3195 79.3736 27.384 79.3994 27.429C79.3414 27.4323 79.3173 27.4162 79.3269 27.3808C79.2818 27.4066 79.277 27.4243 79.3124 27.4339C79.3479 27.4436 79.3785 27.4709 79.4043 27.516C79.3625 27.5998 79.3481 27.653 79.361 27.6755C79.3739 27.6981 79.353 27.74 79.2982 27.8012C79.324 27.8463 79.3482 27.8624 79.3708 27.8495C79.4158 27.8237 79.44 27.8398 79.4433 27.8978C79.4111 27.9461 79.3886 27.959 79.3757 27.9365C79.3499 27.8914 79.3257 27.8753 79.3031 27.8882C79.5129 28.3069 79.597 28.7675 79.5555 29.2702C79.5237 29.7374 79.5595 30.1658 79.6629 30.5556C79.5952 30.5943 79.5743 30.6362 79.6001 30.6813C79.7323 30.7553 79.7566 30.8761 79.6729 31.0437C79.5893 31.2113 79.62 31.3433 79.7651 31.4399C79.7267 31.7911 79.7479 32.168 79.8288 32.5707C79.9322 32.9604 79.9341 33.3035 79.8344 33.6C79.8989 33.7127 79.9555 33.8899 80.004 34.1315C80.0621 34.3376 80.0542 34.5068 79.9802 34.6389C80.006 34.684 80.0318 34.7291 80.0577 34.7742C80.0706 34.7967 80.0432 34.8274 79.9756 34.8661C80.111 34.9981 80.1143 35.1608 79.9856 35.3542C80.0952 35.4411 80.1018 35.5571 80.0052 35.7021C79.9312 35.8343 79.9394 35.9792 80.0297 36.137C79.9041 36.179 79.8494 36.2403 79.8656 36.3208C79.8688 36.3788 79.8608 36.4432 79.8416 36.5141C79.8094 36.5625 79.7933 36.5867 79.7933 36.5867C79.7804 36.5641 79.7627 36.5593 79.7401 36.5722C79.695 36.598 79.6902 36.6157 79.7257 36.6254C79.7482 36.6125 79.7724 36.6286 79.7982 36.6736C79.7017 36.8187 79.56 36.9896 79.3733 37.1862C79.1963 37.3475 78.995 37.4926 78.7696 37.6217C78.5442 37.7507 78.3107 37.8395 78.0691 37.888C77.8146 37.914 77.5842 37.8514 77.3778 37.7001C77.2939 37.4489 77.173 37.3684 77.0152 37.4587C76.8765 37.2688 76.6976 37.0869 76.4783 36.9131C76.2237 36.7296 76.0785 36.5284 76.0429 36.3093C75.8204 36.0775 75.6188 35.8039 75.4382 35.4883C75.2575 35.1727 75.0994 34.8442 74.9638 34.5028C74.9863 34.4899 75.0041 34.4947 75.017 34.5172C75.017 34.5172 75.0282 34.5108 75.0508 34.4979C74.8799 34.3562 74.7396 34.1373 74.6298 33.841C74.4975 33.5575 74.42 33.3176 74.3973 33.1211C74.1326 32.5542 73.9292 31.9374 73.7869 31.2706C73.6092 30.5942 73.4202 29.9242 73.2199 29.2607C73.2934 28.5003 73.2412 27.6772 73.0633 26.7913C73.1309 26.7526 73.1356 26.6302 73.0775 26.424C73.0968 26.3531 73.1467 26.3096 73.2272 26.2934C73.1627 26.1807 73.1578 26.0937 73.2125 26.0325C73.2672 25.9712 73.2688 25.8955 73.2171 25.8053C73.2751 25.8021 73.3218 25.8052 73.3573 25.8149C73.4024 25.7891 73.4587 25.7568 73.5264 25.7181C74.0453 26.0495 74.5274 26.5517 74.9725 27.2247C75.4273 27.8623 75.6839 28.4936 75.7424 29.1185C75.8976 29.8079 76.0641 30.4908 76.2418 31.1672C76.4195 31.8436 76.6198 32.5072 76.8426 33.1578C76.7976 33.1836 76.7798 33.1788 76.7895 33.1433C76.7991 33.1079 76.7975 33.0789 76.7846 33.0564ZM74.5259 30.7578C74.5226 30.6998 74.4904 30.6434 74.4291 30.5887C74.3775 30.4986 74.342 30.4889 74.3228 30.5598C74.3807 30.5565 74.4066 30.6016 74.4002 30.6951C74.3809 30.766 74.4228 30.7869 74.5259 30.7578ZM74.8111 30.8639L74.8449 30.8445C74.8675 30.8316 74.8723 30.8139 74.8594 30.7914C74.8368 30.8043 74.8191 30.7994 74.8062 30.7769C74.7804 30.7318 74.7691 30.7383 74.7724 30.7963C74.7724 30.7963 74.7853 30.8188 74.8111 30.8639ZM74.7628 30.9364C74.7177 30.9622 74.7017 30.9864 74.7146 31.0089C74.7822 30.9702 74.8095 30.9396 74.7966 30.9171C74.7741 30.93 74.7564 30.9251 74.7435 30.9026C74.7177 30.8575 74.7064 30.864 74.7097 30.922C74.7322 30.909 74.7499 30.9139 74.7628 30.9364ZM74.657 31.5357C74.6312 31.4907 74.6295 31.4617 74.6521 31.4488C74.6521 31.4488 74.6456 31.4375 74.6327 31.4149L74.5651 31.4537C74.5909 31.4987 74.6215 31.5261 74.657 31.5357ZM74.9473 32.0429C74.8957 31.9528 74.8345 31.8981 74.7636 31.8788C74.7927 31.9819 74.8539 32.0366 74.9473 32.0429ZM74.8665 33.7055C74.8149 33.6153 74.7778 33.5767 74.7553 33.5896C74.7811 33.6346 74.8004 33.6685 74.8133 33.691C74.7908 33.7039 74.8085 33.7087 74.8665 33.7055ZM76.6248 32.6989C76.599 32.6538 76.5748 32.6377 76.5523 32.6506C76.5297 32.6635 76.5007 32.6651 76.4653 32.6555C76.5298 32.7682 76.583 32.7827 76.6248 32.6989ZM75.7028 33.9899L75.606 33.8209L75.5046 33.8789C75.5562 33.9691 75.6223 34.0061 75.7028 33.9899ZM89.7328 13.0731C89.7135 13.144 89.6862 13.1746 89.6507 13.165C89.6153 13.1553 89.5992 13.1795 89.6025 13.2375C89.5058 13.1731 89.459 13.1699 89.4623 13.2279C89.4527 13.2634 89.4108 13.2425 89.3366 13.1652C89.311 13.3295 89.2353 13.4327 89.1097 13.4747C89.0388 13.4554 89.013 13.4103 89.0323 13.3394C88.9872 13.3652 88.9711 13.3894 88.984 13.412C88.9969 13.4345 88.9986 13.4635 88.9889 13.4989C88.9664 13.5118 88.9358 13.4845 88.897 13.4169C88.8874 13.4523 88.8955 13.4926 88.9213 13.5377C88.8504 13.5184 88.786 13.5104 88.728 13.5136C88.6925 13.504 88.6394 13.4896 88.5685 13.4703C88.5363 13.5186 88.5508 13.5702 88.6121 13.6249C88.6604 13.6571 88.6621 13.6861 88.617 13.7119C88.5719 13.7377 88.5477 13.7216 88.5444 13.6636C88.5412 13.6056 88.5218 13.5718 88.4864 13.5622C88.4413 13.588 88.4204 13.6299 88.4236 13.6879C88.4495 13.7329 88.4398 13.7684 88.3947 13.7942C88.3464 13.762 88.3335 13.7395 88.356 13.7266C88.3786 13.7137 88.3769 13.6847 88.3511 13.6396C88.2835 13.6783 88.2626 13.7202 88.2884 13.7653C88.3367 13.7975 88.3271 13.8329 88.2595 13.8716L88.2208 13.804C88.2015 13.8749 88.1677 13.8943 88.1193 13.8621C88.0968 13.875 88.092 13.8927 88.1049 13.9152C88.1403 13.9249 88.1532 13.9474 88.1436 13.9829C88.0856 13.9861 88.0501 13.9765 88.0372 13.954C88.034 13.896 88.0082 13.8509 87.9598 13.8187C87.9373 13.8316 87.9276 13.8671 87.9309 13.9251C87.9567 13.9701 87.9922 13.9798 88.0372 13.954C88.018 14.0249 88.0019 14.049 87.989 14.0265C87.9761 14.004 87.9535 14.0169 87.9213 14.0652C87.8634 14.0685 87.8279 14.0588 87.815 14.0363C87.8021 14.0138 87.7602 13.9928 87.6893 13.9736C87.67 14.0445 87.6846 14.096 87.7329 14.1282C87.8038 14.1475 87.8038 14.1475 87.7329 14.1282C87.6911 14.212 87.6508 14.2201 87.6121 14.1524C87.583 14.0494 87.546 14.0107 87.5009 14.0365C87.5783 14.1718 87.5446 14.2959 87.3997 14.4087L87.3416 14.3073C87.3449 14.3653 87.3352 14.4007 87.3127 14.4136C87.3127 14.4136 87.3256 14.4362 87.3514 14.4813C87.3031 14.4491 87.2564 14.4459 87.2113 14.4717C87.1887 14.4846 87.1645 14.4685 87.1387 14.4234C87.0807 14.4267 87.0824 14.4557 87.1436 14.5104C87.2049 14.5652 87.2001 14.5829 87.1292 14.5636C87.0905 14.496 87.0534 14.4573 87.0179 14.4477C87.0212 14.5057 86.989 14.554 86.9214 14.5928C86.8409 14.6089 86.8039 14.675 86.8104 14.791C86.7846 14.7459 86.7717 14.7234 86.7717 14.7234C86.7942 14.7105 86.7926 14.6815 86.7668 14.6364C86.6541 14.7009 86.6171 14.767 86.6558 14.8346C86.6236 14.883 86.5946 14.8846 86.5688 14.8395C86.5655 14.7815 86.5414 14.7654 86.4963 14.7912C86.4737 14.8041 86.4802 14.8154 86.5156 14.8251C86.5511 14.8347 86.564 14.8572 86.5544 14.8927C86.4384 14.8992 86.3595 14.9444 86.3177 15.0282C86.2758 15.112 86.213 15.133 86.1292 15.0912C86.0971 15.1395 86.0987 15.1685 86.1341 15.1781C86.1792 15.1523 86.2034 15.1684 86.2067 15.2264C86.1487 15.2297 86.0923 15.2619 86.0376 15.3232C86.0054 15.3716 85.941 15.3635 85.8443 15.2992C85.5932 15.5926 85.2664 15.8844 84.8639 16.1747C84.4711 16.4295 84.0734 16.7021 83.6709 16.9923C83.3329 17.3953 82.8742 17.8226 82.2946 18.2741C81.7247 18.6902 81.2273 19.1545 80.8024 19.6671C80.8477 19.8507 80.8768 20.0585 80.8899 20.2904C80.9126 20.487 80.9852 20.6399 81.1077 20.7494C81.1335 20.7945 81.1239 20.8299 81.0788 20.8557C81.0434 20.8461 81.0321 20.8525 81.045 20.8751C81.3681 22.0669 81.6606 23.2313 81.9225 24.3684C82.1715 25.4829 82.5751 26.6586 83.1335 27.8953C83.2885 28.3752 83.4854 28.8761 83.7242 29.3978C83.9502 29.897 84.2099 30.3768 84.5034 30.8373C84.797 31.2978 85.1227 31.7099 85.4806 32.0737C85.8256 32.415 86.2173 32.6547 86.6555 32.7929C86.8359 32.6896 86.9518 32.5784 87.0032 32.4591C87.0547 32.3399 87.1174 32.2142 87.1914 32.082C87.2873 31.0993 87.33 30.1021 87.3195 29.0905C87.309 28.0789 87.305 27.0785 87.3075 26.0894C87.3324 25.0874 87.3816 24.1015 87.4549 23.1317C87.5508 22.149 87.7353 21.1903 88.0084 20.2558C87.9989 20.5007 88.0604 20.7648 88.1927 21.0482C88.3121 21.3091 88.3139 21.5475 88.1981 21.7635C88.1027 23.3744 88.1137 25.0143 88.231 26.6831C88.3483 28.3519 88.3834 30.0079 88.3364 31.651L88.4525 31.8539C88.3367 32.0698 88.2676 32.289 88.2453 32.5113C88.2229 32.7336 88.1892 32.9624 88.1443 33.1976C88.0865 33.4103 87.9997 33.6246 87.8839 33.8406C87.7906 34.0436 87.6087 34.2226 87.3382 34.3774C87.1451 34.6675 86.923 34.8546 86.6717 34.9386C86.4301 34.9871 86.174 34.9841 85.9033 34.9295C85.6552 34.862 85.4054 34.7656 85.154 34.6401C84.8897 34.4921 84.6609 34.3538 84.4675 34.2251C83.8903 33.6875 83.355 33.0661 82.8615 32.3609C82.3326 31.6461 81.918 30.8958 81.6177 30.1099C81.1274 29.2533 80.7061 28.2822 80.3541 27.1968C80.0021 26.1113 79.6372 25.108 79.2595 24.1869L79.3272 24.1482C79.1818 23.6328 79.0493 23.14 78.9297 22.6697C78.7972 22.1768 78.7066 21.7049 78.658 21.2539C77.8371 22.1728 76.918 22.9983 75.9005 23.7304C74.8701 24.44 73.9266 25.1448 73.0702 25.8446C72.9993 25.8253 72.9349 25.8173 72.8769 25.8205C72.8189 25.8238 72.7544 25.8158 72.6835 25.7965C72.529 25.9449 72.3583 26.0127 72.1714 25.9999C71.9717 25.9646 71.7831 25.9229 71.6059 25.8747C71.6477 25.7909 71.6074 25.6943 71.4849 25.5848C71.5299 25.559 71.5573 25.5284 71.5669 25.493C71.5411 25.4479 71.5266 25.3963 71.5233 25.3384C72.7177 24.2356 73.9331 23.1956 75.1695 22.2184C76.3834 21.2541 77.5424 20.2464 78.6467 19.1952C78.5851 18.7216 78.5477 18.2642 78.5344 17.8228C78.5308 17.346 78.4563 16.8499 78.3109 16.3345C78.4042 16.1315 78.4443 15.914 78.4312 15.682C78.4053 15.4275 78.5324 15.2051 78.8125 15.0148C79.3506 15.0659 79.7809 15.3733 80.1036 15.9368C80.4133 16.4778 80.6006 17.0141 80.6654 17.5457C81.4833 16.9876 82.3511 16.3861 83.2688 15.741C84.1736 15.0734 85.159 14.4943 86.225 14.0037C87.0011 13.5295 87.8981 13.1357 88.9159 12.8224C89.9208 12.4866 90.8679 12.3634 91.7572 12.4529C91.8926 12.5849 92.0667 12.6798 92.2794 12.7376C92.4792 12.7729 92.6146 12.9049 92.6856 13.1336C92.5697 13.1401 92.4698 13.1225 92.386 13.0806C92.3118 13.0034 92.2264 12.9326 92.1297 12.8682C92.1071 12.8811 92.1023 12.8988 92.1152 12.9214C92.1281 12.9439 92.1056 12.9568 92.0476 12.9601C91.9863 12.9054 91.8977 12.8813 91.7817 12.8878C91.6657 12.8943 91.553 12.8542 91.4433 12.7673C91.3854 12.7705 91.3693 12.7947 91.3951 12.8398C91.4434 12.872 91.4386 12.8897 91.3806 12.893C91.3323 12.8608 91.2904 12.8399 91.2549 12.8302C91.2195 12.8206 91.2001 12.7868 91.1968 12.7288C91.0616 12.8062 90.9005 12.8386 90.7137 12.8258C90.5268 12.8131 90.3786 12.868 90.2692 12.9905C90.2208 12.9583 90.1854 12.9487 90.1628 12.9616C90.1274 12.9519 90.0855 12.931 90.0371 12.8989C90.0179 12.9697 89.9792 13.0068 89.9212 13.0101C89.8633 13.0134 89.8021 13.0634 89.7377 13.1601C89.7248 13.1375 89.7184 13.1262 89.7184 13.1262C89.7409 13.1133 89.7457 13.0956 89.7328 13.0731ZM83.4724 16.5672L83.5739 16.5092C83.5384 16.4995 83.5207 16.4947 83.5207 16.4947C83.5078 16.4722 83.4836 16.4561 83.4482 16.4464C83.474 16.4915 83.4756 16.5205 83.4531 16.5334C83.4531 16.5334 83.4595 16.5447 83.4724 16.5672ZM92.6469 13.0659C92.6115 13.0563 92.5873 13.0402 92.5744 13.0177C92.5486 12.9726 92.5131 12.9629 92.468 12.9887C92.5197 13.0789 92.5793 13.1046 92.6469 13.0659ZM97.1511 21.7561C97.1544 21.814 97.1786 21.8301 97.2237 21.8043C97.2688 21.7785 97.2817 21.8011 97.2624 21.872C97.1789 22.249 97.1567 22.6807 97.1958 23.1672C97.2444 23.6182 97.19 23.9936 97.0323 24.2933C97.1101 24.8474 97.0832 25.4016 96.9515 25.9558C96.8198 26.5101 96.6817 27.053 96.5372 27.5848C96.3248 27.9458 96.0207 28.3294 95.6247 28.7357C95.2513 29.129 94.8165 29.3629 94.3204 29.4374C94.0498 29.3829 93.7872 29.3686 93.5327 29.3946C92.2597 28.8962 91.1539 27.9579 90.2152 26.5797C89.1214 24.5122 88.5351 22.5732 88.4564 20.7626C88.3776 18.952 88.6114 17.2169 89.1578 15.5572C89.3961 15.4507 89.628 15.3329 89.8534 15.2039C90.066 15.0523 90.2801 14.9297 90.4959 14.8361C90.7213 14.707 90.9323 14.6312 91.1288 14.6085C91.3478 14.5728 91.5702 14.5952 91.7958 14.6756C92.0279 14.8719 92.1924 15.107 92.2892 15.3808C92.4087 15.6416 92.4878 15.9106 92.5267 16.1876C92.5656 16.4647 92.5932 16.7482 92.6095 17.0381C92.613 17.3055 92.6212 17.5552 92.6343 17.7872C92.7637 18.4314 92.7352 19.0613 92.5488 19.6768C92.3624 20.2923 92.0697 20.8789 91.6706 21.4366C91.31 21.6431 90.9444 21.7626 90.5739 21.7951C90.6649 22.7906 90.9847 23.8197 91.5332 24.8824C92.0914 25.9097 92.7655 26.8258 93.5555 27.6306C93.7456 27.7013 93.9615 27.8172 94.2033 27.9781C94.4322 28.1164 94.6335 28.076 94.8073 27.8568C95.0165 27.6472 95.1645 27.3829 95.2513 27.0638C95.3606 26.7319 95.4344 26.3903 95.4728 26.0391C95.5337 25.675 95.5721 25.3238 95.5879 24.9855C95.6134 24.6118 95.6421 24.296 95.6742 24.0383C95.7418 23.9995 95.7691 23.9689 95.7562 23.9464C95.8105 23.2569 95.8582 22.5561 95.8995 21.844C95.9409 21.132 95.9999 20.4248 96.0767 19.7223C96.1534 19.0199 96.2721 18.3384 96.4327 17.6778C96.5803 16.9947 96.8166 16.3357 97.1415 15.7007C97.2091 15.662 97.2751 15.5943 97.3395 15.4976C97.3909 15.3783 97.4747 15.3154 97.5906 15.3089C97.6842 15.5247 97.6635 15.776 97.5284 16.0629C97.4159 16.3368 97.3355 16.5624 97.2873 16.7396C97.3166 17.0521 97.2943 17.3791 97.2204 17.7207C97.1466 18.0623 97.171 18.3925 97.2937 18.7114C97.297 18.7693 97.2535 18.8241 97.1634 18.8758C97.2601 18.9401 97.2923 18.9965 97.2601 19.0448C97.167 19.4573 97.1642 19.9228 97.2516 20.4415C97.3615 20.9472 97.328 21.3854 97.1511 21.7561ZM97.2036 20.8281C97.2423 20.8958 97.2407 20.9715 97.1989 21.0553C97.1571 21.1391 97.1491 21.2035 97.1749 21.2486C97.1942 21.1777 97.2247 21.1004 97.2665 21.0166C97.2955 20.9102 97.2745 20.8474 97.2036 20.8281ZM91.5797 16.4155C91.544 16.1965 91.4714 16.0435 91.3618 15.9566C91.2393 15.8471 91.1168 15.7377 90.9943 15.6283C90.6334 15.6253 90.3823 15.814 90.2408 16.1943C90.109 16.5391 90.0223 16.8581 89.9806 17.1514C89.907 17.7023 89.8527 18.2871 89.8177 18.9058C89.7699 19.5018 89.8138 20.0753 89.9496 20.6261C90.0881 20.6066 90.2073 20.6581 90.3073 20.7804C90.4073 20.9028 90.5265 20.9542 90.665 20.9348C91.0512 20.3546 91.3374 19.652 91.5236 18.8271C91.7194 17.9667 91.7381 17.1629 91.5797 16.4155ZM97.1212 20.6059C97.1921 20.6252 97.2163 20.6413 97.1938 20.6542C97.1583 20.6445 97.1422 20.6687 97.1455 20.7267C97.1455 20.7267 97.1809 20.7363 97.2518 20.7556C97.226 20.7105 97.2179 20.6703 97.2276 20.6348C97.2469 20.5639 97.221 20.5188 97.1501 20.4996C97.176 20.5446 97.1663 20.5801 97.1212 20.6059ZM112.368 13.5837C112.432 13.6964 112.411 13.7383 112.305 13.7094C112.279 13.6643 112.3 13.6224 112.368 13.5837ZM112 13.8836C111.997 13.8256 112.002 13.8079 112.015 13.8305C112.05 13.8401 112.084 13.8207 112.116 13.7724C112.142 13.8175 112.133 13.8529 112.087 13.8787C112.065 13.8916 112.036 13.8933 112 13.8836ZM110.725 14.4791C110.667 14.4823 110.662 14.5 110.711 14.5322C110.759 14.5644 110.754 14.5821 110.696 14.5854C110.6 14.521 110.527 14.4728 110.479 14.4406C110.417 14.3859 110.363 14.3424 110.314 14.3102C110.292 14.3231 110.293 14.3521 110.319 14.3972C109.842 13.982 109.355 13.4975 108.859 12.9437C108.384 12.3771 107.947 11.7444 107.547 11.0455C107.518 11.1519 107.525 11.2679 107.567 11.3935C107.631 11.5062 107.62 11.6173 107.533 11.727C107.643 12.4421 107.686 13.196 107.661 13.9886C107.623 14.7586 107.541 15.4787 107.416 16.149C107.362 16.4196 107.323 16.6661 107.301 16.8884C107.301 17.0979 107.237 17.2993 107.108 17.4927C107.002 17.6732 106.867 17.8553 106.702 18.0391C106.538 18.2229 106.361 18.3841 106.171 18.5228C105.82 18.6938 105.495 18.7005 105.195 18.5429C104.918 18.3724 104.666 18.1422 104.44 17.8524C104.202 17.5401 104.015 17.2132 103.879 16.8718C103.744 16.5304 103.651 16.2389 103.603 15.9973C103.332 15.5239 103.122 15.0006 102.973 14.4272C102.834 13.8184 102.662 13.229 102.455 12.6589C102.246 13.4967 102.184 14.3553 102.269 15.2348C102.34 16.0918 102.483 16.968 102.696 17.8635C102.919 18.7235 103.19 19.6157 103.51 20.5401C103.817 21.442 104.09 22.3632 104.329 23.3038C104.297 23.3521 104.276 23.394 104.266 23.4295C104.279 23.452 104.256 23.4649 104.198 23.4682C104.224 23.5133 104.257 23.5696 104.295 23.6373C104.321 23.6823 104.35 23.6807 104.382 23.6324C104.408 23.8869 104.342 24.0593 104.185 24.1496C104.22 24.3687 104.174 24.5749 104.045 24.7683C103.903 24.9392 103.737 25.0939 103.547 25.2326C103.357 25.3713 103.159 25.4697 102.953 25.5279C102.712 25.5764 102.525 25.5637 102.393 25.4897C102.318 25.4124 102.233 25.3416 102.136 25.2772C102.017 25.2258 101.909 25.1679 101.812 25.1035C101.764 25.0713 101.751 25.0488 101.774 25.0359C101.796 25.023 101.795 24.994 101.769 24.9489C101.405 24.6786 101.101 24.3582 100.86 23.9879C100.582 23.608 100.35 23.2022 100.163 22.7706C99.9625 22.3165 99.785 21.8495 99.6299 21.3696C99.4524 20.9026 99.27 20.4533 99.0828 20.0217C98.2983 18.0764 97.6863 16.1969 97.2467 14.3834C96.7717 12.5603 96.5077 10.7659 96.4547 9.00044C96.3773 8.86519 96.3434 8.77984 96.353 8.74439C96.3498 8.6864 96.4013 8.67186 96.5076 8.70077C96.5398 8.65242 96.5382 8.62343 96.5027 8.61379C96.4544 8.58161 96.4463 8.54134 96.4785 8.49299C96.7039 8.36394 96.9116 8.23007 97.1016 8.09138C97.3012 7.91725 97.5105 7.81237 97.7296 7.77676C98.2296 8.59792 98.6088 9.44334 98.8673 10.313C99.1353 11.1472 99.3696 12.0008 99.57 12.8738C99.793 13.7338 100.022 14.6051 100.258 15.4877C100.481 16.3478 100.798 17.2142 101.208 18.0869C101.221 18.3189 101.293 18.5766 101.426 18.86C101.581 19.1305 101.706 19.4027 101.803 19.6764C101.642 18.8711 101.48 18.0658 101.318 17.2605C101.143 16.4326 101.017 15.6369 100.939 14.8734C100.884 14.097 100.906 13.3512 101.005 12.6358C101.104 11.9205 101.346 11.2438 101.728 10.6055C101.854 10.5636 101.967 10.499 102.067 10.412C102.189 10.312 102.327 10.2926 102.482 10.3536C102.505 10.3407 102.516 10.3343 102.516 10.3343C102.503 10.3117 102.508 10.294 102.53 10.2811C102.84 10.1939 103.097 10.2259 103.304 10.3772C103.52 10.493 103.699 10.6749 103.841 10.9228C103.983 11.1708 104.097 11.4494 104.184 11.7586C104.272 12.0678 104.328 12.3497 104.354 12.6042C104.619 13.3804 104.8 14.2196 104.897 15.1216C104.82 14.9863 104.764 14.9139 104.728 14.9043C104.744 14.9848 104.778 15.0701 104.83 15.1603C104.869 15.2279 104.849 15.2988 104.772 15.373C104.775 15.431 104.788 15.4535 104.811 15.4406C104.843 15.3923 104.877 15.3729 104.912 15.3825C104.87 15.4663 104.875 15.5533 104.927 15.6435C104.966 15.7111 105.011 15.79 105.062 15.8802C105.114 15.9704 105.154 16.067 105.183 16.1701C105.212 16.2731 105.2 16.3553 105.145 16.4166C105.148 16.4745 105.161 16.4971 105.184 16.4842C105.216 16.4358 105.245 16.4342 105.271 16.4793C105.319 16.5115 105.321 16.5405 105.276 16.5663C105.253 16.5792 105.237 16.6033 105.227 16.6388C105.359 16.7128 105.435 16.819 105.455 16.9576C105.497 17.0832 105.584 17.183 105.716 17.257C105.947 16.6157 106.072 15.9454 106.091 15.2463C106.097 14.5246 106.092 13.8094 106.075 13.1006C106.045 12.3693 106.051 11.6476 106.093 10.9355C106.134 10.2235 106.306 9.55645 106.608 8.9344C106.711 8.90532 106.813 8.84725 106.912 8.76018C106.961 8.79236 106.98 8.82618 106.971 8.86162C106.948 8.87453 106.961 8.89707 107.009 8.92925C107.041 8.8809 107.051 8.84545 107.038 8.82291C107.035 8.76492 107.07 8.77456 107.144 8.85182C107.154 8.81637 107.146 8.77611 107.12 8.73102C107.475 8.61798 107.794 8.70472 108.077 8.99123C108.384 9.26484 108.677 9.62061 108.958 10.0586C109.225 10.474 109.49 10.9361 109.751 11.4449C110.035 11.9408 110.326 12.3433 110.622 12.6524C110.542 12.6686 110.476 12.6316 110.424 12.5414C110.395 12.4383 110.363 12.382 110.327 12.3723C110.266 12.527 110.29 12.6478 110.4 12.7347C110.51 12.8216 110.603 12.9327 110.681 13.068C110.645 13.2677 110.742 13.4368 110.971 13.5752C111.209 13.6781 111.379 13.7907 111.479 13.913C111.52 13.8292 111.583 13.8082 111.667 13.8501C111.76 13.8564 111.847 13.8515 111.928 13.8354C111.954 13.8804 111.944 13.9159 111.899 13.9417C111.864 13.9321 111.841 13.945 111.831 13.9804C111.992 13.9481 112.141 13.8932 112.276 13.8158C112.434 13.7254 112.609 13.6399 112.802 13.5592C112.783 13.6301 112.735 13.7026 112.658 13.7768C112.58 13.851 112.532 13.9235 112.513 13.9944C112.561 14.0266 112.601 14.0185 112.634 13.9701C112.653 13.8992 112.682 13.8976 112.721 13.9652C112.592 14.1586 112.421 14.3311 112.209 14.4827C111.983 14.6118 111.801 14.686 111.663 14.7055C111.618 14.7313 111.6 14.7264 111.61 14.691C111.606 14.633 111.623 14.6088 111.658 14.6185C111.358 14.6703 111.047 14.6238 110.725 14.4791ZM110.255 12.3241C110.264 12.2886 110.216 12.2564 110.11 12.2275C110.1 12.263 110.148 12.2951 110.255 12.3241Z" fill="#323B62"/>
</svg>
