<svg width="60" height="18" viewBox="0 0 60 18" fill="none" xmlns="http://www.w3.org/2000/svg">
<path d="M49.6655 15C49.6375 15 49.6235 14.972 49.6235 14.916C49.6235 14.86 49.6375 14.832 49.6655 14.832C49.9548 14.832 50.1508 14.7666 50.2535 14.636C50.3562 14.496 50.4075 14.2393 50.4075 13.866V11.85C50.4075 11.346 50.3142 10.9726 50.1275 10.73C49.9502 10.4873 49.6655 10.366 49.2735 10.366C48.9935 10.366 48.7042 10.436 48.4055 10.576C48.1162 10.716 47.8828 10.9073 47.7055 11.15L47.6355 10.982C47.9622 10.5153 48.3308 10.142 48.7415 9.86198C49.1522 9.57265 49.6002 9.42798 50.0855 9.42798C50.6082 9.42798 51.0095 9.59131 51.2895 9.91798C51.5788 10.2446 51.7235 10.6646 51.7235 11.178V13.866C51.7235 14.2393 51.7748 14.496 51.8775 14.636C51.9895 14.7666 52.1902 14.832 52.4795 14.832C52.5075 14.832 52.5215 14.86 52.5215 14.916C52.5215 14.972 52.5075 15 52.4795 15C52.2928 15 52.0782 14.9953 51.8355 14.986C51.5928 14.9766 51.3362 14.972 51.0655 14.972C50.8042 14.972 50.5522 14.9766 50.3095 14.986C50.0668 14.9953 49.8522 15 49.6655 15ZM45.8995 15C45.8715 15 45.8575 14.972 45.8575 14.916C45.8575 14.86 45.8715 14.832 45.8995 14.832C46.1888 14.832 46.3848 14.7666 46.4875 14.636C46.5902 14.496 46.6415 14.2393 46.6415 13.866V11.234C46.6415 10.9446 46.6088 10.7346 46.5435 10.604C46.4782 10.464 46.3662 10.394 46.2075 10.394C46.1235 10.394 46.0255 10.4126 45.9135 10.45C45.8015 10.478 45.6755 10.5246 45.5355 10.59C45.4982 10.6086 45.4702 10.59 45.4515 10.534C45.4328 10.478 45.4328 10.4453 45.4515 10.436L47.3975 9.48398C47.4535 9.46531 47.4862 9.45598 47.4955 9.45598C47.5982 9.45598 47.7008 9.56798 47.8035 9.79198C47.9062 10.016 47.9575 10.338 47.9575 10.758V13.866C47.9575 14.2393 48.0088 14.496 48.1115 14.636C48.2235 14.7666 48.4242 14.832 48.7135 14.832C48.7415 14.832 48.7555 14.86 48.7555 14.916C48.7555 14.972 48.7415 15 48.7135 15C48.5268 15 48.3122 14.9953 48.0695 14.986C47.8268 14.9766 47.5702 14.972 47.2995 14.972C47.0382 14.972 46.7862 14.9766 46.5435 14.986C46.3008 14.9953 46.0862 15 45.8995 15Z" fill="#7DA7D8"/>
<path d="M42.2827 15C42.2547 15 42.2407 14.972 42.2407 14.916C42.2407 14.86 42.2547 14.832 42.2827 14.832C42.572 14.832 42.768 14.7666 42.8707 14.636C42.9827 14.496 43.0387 14.2393 43.0387 13.866V11.85C43.0387 10.8606 42.6887 10.366 41.9887 10.366C41.6994 10.366 41.4194 10.436 41.1487 10.576C40.878 10.716 40.6587 10.9073 40.4907 11.15L40.4207 10.982C40.738 10.5153 41.0927 10.142 41.4847 9.86198C41.886 9.57265 42.32 9.42798 42.7867 9.42798C43.2814 9.42798 43.664 9.57265 43.9347 9.86198C44.2054 10.142 44.3407 10.5806 44.3407 11.178V13.866C44.3407 14.2393 44.392 14.496 44.4947 14.636C44.6067 14.7666 44.8074 14.832 45.0967 14.832C45.134 14.832 45.1527 14.86 45.1527 14.916C45.1527 14.972 45.134 15 45.0967 15C44.91 15 44.6954 14.9953 44.4527 14.986C44.21 14.9766 43.9534 14.972 43.6827 14.972C43.4214 14.972 43.1694 14.9766 42.9267 14.986C42.684 14.9953 42.4694 15 42.2827 15ZM38.6147 15C38.5867 15 38.5727 14.972 38.5727 14.916C38.5727 14.86 38.5867 14.832 38.6147 14.832C38.904 14.832 39.1 14.7666 39.2027 14.636C39.3147 14.496 39.3707 14.2393 39.3707 13.866V11.85C39.3707 10.8606 39.0207 10.366 38.3207 10.366C38.0314 10.366 37.7514 10.436 37.4807 10.576C37.21 10.716 36.9907 10.9073 36.8227 11.15L36.7527 10.982C37.07 10.5153 37.4247 10.142 37.8167 9.86198C38.218 9.57265 38.652 9.42798 39.1187 9.42798C39.6134 9.42798 39.996 9.56331 40.2667 9.83398C40.5374 10.1046 40.6727 10.5013 40.6727 11.024V13.866C40.6727 14.2393 40.724 14.496 40.8267 14.636C40.9387 14.7666 41.1394 14.832 41.4287 14.832C41.466 14.832 41.4847 14.86 41.4847 14.916C41.4847 14.972 41.466 15 41.4287 15C41.242 15 41.0274 14.9953 40.7847 14.986C40.542 14.9766 40.2854 14.972 40.0147 14.972C39.7534 14.972 39.5014 14.9766 39.2587 14.986C39.016 14.9953 38.8014 15 38.6147 15ZM35.0167 15C34.9887 15 34.9747 14.972 34.9747 14.916C34.9747 14.86 34.9887 14.832 35.0167 14.832C35.306 14.832 35.502 14.7666 35.6047 14.636C35.7074 14.496 35.7587 14.2393 35.7587 13.866V11.234C35.7587 10.9446 35.726 10.7346 35.6607 10.604C35.5954 10.464 35.4834 10.394 35.3247 10.394C35.2407 10.394 35.1427 10.4126 35.0307 10.45C34.9187 10.478 34.7927 10.5246 34.6527 10.59C34.6154 10.6086 34.5874 10.59 34.5687 10.534C34.55 10.478 34.55 10.4453 34.5687 10.436L36.5147 9.48398C36.5707 9.46531 36.6034 9.45598 36.6127 9.45598C36.7154 9.45598 36.818 9.56798 36.9207 9.79198C37.0234 10.016 37.0747 10.338 37.0747 10.758V13.866C37.0747 14.2393 37.126 14.496 37.2287 14.636C37.3407 14.7666 37.5414 14.832 37.8307 14.832C37.8587 14.832 37.8727 14.86 37.8727 14.916C37.8727 14.972 37.8587 15 37.8307 15C37.644 15 37.4294 14.9953 37.1867 14.986C36.944 14.9766 36.6874 14.972 36.4167 14.972C36.1554 14.972 35.9034 14.9766 35.6607 14.986C35.418 14.9953 35.2034 15 35.0167 15Z" fill="#7DA7D8"/>
<path d="M30.0901 15.168C29.5768 15.168 29.1708 15.0046 28.8721 14.678C28.5828 14.3513 28.4381 13.9313 28.4381 13.418V11.36C28.4381 11.052 28.4008 10.8233 28.3261 10.674C28.2608 10.5246 28.1535 10.45 28.0041 10.45C27.9015 10.45 27.7848 10.4826 27.6541 10.548C27.6168 10.5573 27.5841 10.534 27.5561 10.478C27.5375 10.422 27.5421 10.3893 27.5701 10.38L29.4461 9.48397C29.4741 9.47464 29.4975 9.46997 29.5161 9.46997C29.5628 9.46997 29.6095 9.4933 29.6561 9.53997C29.7121 9.5773 29.7401 9.61464 29.7401 9.65197V12.746C29.7401 13.25 29.8335 13.628 30.0201 13.88C30.2161 14.132 30.5101 14.258 30.9021 14.258C31.1728 14.258 31.4435 14.1833 31.7141 14.034C31.9848 13.8753 32.1995 13.6793 32.3581 13.446L32.4421 13.614C32.1248 14.0713 31.7701 14.4446 31.3781 14.734C30.9861 15.0233 30.5568 15.168 30.0901 15.168ZM33.3941 9.65197V13.376C33.3941 13.6933 33.4221 13.9173 33.4781 14.048C33.5435 14.1786 33.6461 14.244 33.7861 14.244C33.8515 14.244 33.9308 14.23 34.0241 14.202C34.1268 14.174 34.2388 14.1366 34.3601 14.09C34.3975 14.0713 34.4301 14.09 34.4581 14.146C34.4861 14.1926 34.4861 14.2253 34.4581 14.244L32.5261 15.182C32.5075 15.1913 32.4841 15.196 32.4561 15.196C32.3628 15.196 32.2788 15.0793 32.2041 14.846C32.1295 14.6126 32.0921 14.2813 32.0921 13.852V11.36C32.0921 11.052 32.0548 10.8233 31.9801 10.674C31.9148 10.5246 31.8075 10.45 31.6581 10.45C31.5555 10.45 31.4341 10.4826 31.2941 10.548C31.2661 10.5573 31.2381 10.534 31.2101 10.478C31.1915 10.422 31.1961 10.3893 31.2241 10.38L33.1001 9.48397C33.1188 9.47464 33.1421 9.46997 33.1701 9.46997C33.2168 9.46997 33.2635 9.4933 33.3101 9.53997C33.3661 9.5773 33.3941 9.61464 33.3941 9.65197Z" fill="#7DA7D8"/>
<path d="M24.1463 15C24.1277 15 24.1183 14.972 24.1183 14.916C24.1183 14.86 24.1277 14.832 24.1463 14.832C24.4357 14.832 24.6317 14.7666 24.7343 14.636C24.8463 14.496 24.9023 14.2393 24.9023 13.866L24.9163 6.75398C24.9163 6.43664 24.8883 6.20798 24.8323 6.06798C24.7763 5.91864 24.669 5.84398 24.5103 5.84398C24.389 5.84398 24.2117 5.89531 23.9783 5.99798C23.9503 6.00731 23.9223 5.98398 23.8943 5.92798C23.8663 5.87198 23.8617 5.83931 23.8803 5.82998L25.9383 4.86398C25.957 4.85464 25.9757 4.84998 25.9943 4.84998C26.041 4.84998 26.0923 4.87331 26.1483 4.91998C26.2043 4.95731 26.2323 4.99464 26.2323 5.03198V13.866C26.2323 14.2393 26.2837 14.496 26.3863 14.636C26.489 14.7666 26.685 14.832 26.9743 14.832C27.0117 14.832 27.0303 14.86 27.0303 14.916C27.0303 14.972 27.0117 15 26.9743 15C26.797 15 26.5823 14.9953 26.3303 14.986C26.0877 14.9766 25.831 14.972 25.5603 14.972C25.2897 14.972 25.033 14.9766 24.7903 14.986C24.5477 14.9953 24.333 15 24.1463 15Z" fill="#7DA7D8"/>
<path d="M20.1249 15.1819C19.5369 15.1819 19.0282 15.0466 18.5989 14.7759C18.1695 14.5053 17.8382 14.1459 17.6049 13.6979C17.3715 13.2406 17.2549 12.7506 17.2549 12.2279C17.2549 11.7426 17.3482 11.3226 17.5349 10.9679C17.7215 10.6133 17.9689 10.3239 18.2769 10.0999C18.5849 9.86661 18.9209 9.69394 19.2849 9.58194C19.6489 9.46994 20.0082 9.41394 20.3629 9.41394C20.9602 9.41394 21.4689 9.55394 21.8889 9.83394C22.3182 10.1139 22.6449 10.4733 22.8689 10.9119C23.0929 11.3506 23.2049 11.8173 23.2049 12.3119C23.2049 12.8813 23.0602 13.3853 22.7709 13.8239C22.4909 14.2533 22.1175 14.5893 21.6509 14.8319C21.1842 15.0653 20.6755 15.1819 20.1249 15.1819ZM20.5449 14.8879C20.9182 14.8879 21.1982 14.7059 21.3849 14.3419C21.5715 13.9779 21.6649 13.4646 21.6649 12.8019C21.6649 12.1206 21.5762 11.5513 21.3989 11.0939C21.2309 10.6366 21.0115 10.2913 20.7409 10.0579C20.4702 9.82461 20.1855 9.70794 19.8869 9.70794C19.5229 9.70794 19.2429 9.87127 19.0469 10.1979C18.8602 10.5246 18.7669 11.0286 18.7669 11.7099C18.7669 12.3446 18.8462 12.9046 19.0049 13.3899C19.1635 13.8659 19.3782 14.2346 19.6489 14.4959C19.9195 14.7573 20.2182 14.8879 20.5449 14.8879Z" fill="#7DA7D8"/>
<path d="M13.2549 6.09595C13.5349 6.09595 13.8242 6.10995 14.1229 6.13795C14.4309 6.16595 14.7202 6.20795 14.9909 6.26395C15.2616 6.31995 15.4902 6.38995 15.6769 6.47395C15.7609 6.50195 15.8122 6.53928 15.8309 6.58595C15.8589 6.62328 15.8776 6.69328 15.8869 6.79595L16.0689 8.74195C16.0689 8.76995 16.0456 8.78861 15.9989 8.79795C15.9522 8.80728 15.9196 8.79328 15.9009 8.75595C15.6396 7.99995 15.2662 7.41661 14.7809 7.00595C14.3049 6.59528 13.7216 6.38995 13.0309 6.38995C12.3962 6.38995 11.8269 6.56261 11.3229 6.90795C10.8282 7.24395 10.4362 7.72461 10.1469 8.34995C9.86689 8.97528 9.72689 9.72195 9.72689 10.5899C9.72689 11.2433 9.81089 11.8359 9.97889 12.3679C10.1469 12.8906 10.3849 13.3386 10.6929 13.7119C11.0009 14.0853 11.3649 14.3746 11.7849 14.5799C12.2049 14.7759 12.6669 14.8739 13.1709 14.8739C13.8336 14.8739 14.3796 14.6966 14.8089 14.3419C15.2476 13.9779 15.6582 13.4039 16.0409 12.6199C16.0596 12.5919 16.0876 12.5826 16.1249 12.5919C16.1716 12.6013 16.1949 12.6199 16.1949 12.6479L15.9849 14.3839C15.9756 14.4959 15.9569 14.5706 15.9289 14.6079C15.9102 14.6359 15.8589 14.6686 15.7749 14.7059C15.3269 14.8646 14.8789 14.9813 14.4309 15.0559C13.9922 15.1306 13.5722 15.1679 13.1709 15.1679C12.1629 15.1679 11.2669 14.9813 10.4829 14.6079C9.69889 14.2253 9.08289 13.6979 8.63489 13.0259C8.18689 12.3446 7.96289 11.5653 7.96289 10.6879C7.96289 10.0159 8.09356 9.39995 8.35489 8.83995C8.62556 8.27061 8.99889 7.78528 9.47489 7.38395C9.96022 6.97328 10.5249 6.65595 11.1689 6.43195C11.8129 6.20795 12.5082 6.09595 13.2549 6.09595Z" fill="#7DA7D8"/>
</svg>
