<svg width="60" height="18" viewBox="0 0 60 18" fill="none" xmlns="http://www.w3.org/2000/svg">
<path d="M34.5435 8.26805C34.5435 8.46406 34.5948 8.64139 34.6975 8.80006C34.8095 8.94939 34.9495 9.08939 35.1175 9.22006C35.2855 9.34139 35.4675 9.46272 35.6635 9.58405C35.8968 9.71472 36.1255 9.85472 36.3495 10.0041C36.5735 10.1441 36.7602 10.3167 36.9095 10.5221C37.0588 10.7274 37.1335 10.9934 37.1335 11.3201C37.1335 11.6187 37.0542 11.9127 36.8955 12.2021C36.7462 12.4821 36.5175 12.7107 36.2095 12.8881C35.9015 13.0654 35.5142 13.1541 35.0475 13.1541C34.8142 13.1541 34.5808 13.1261 34.3475 13.0701C34.1142 13.0234 33.8622 12.9254 33.5915 12.7761C33.5728 12.7574 33.5542 12.7341 33.5355 12.7061C33.5168 12.6781 33.5075 12.6454 33.5075 12.6081L33.4795 11.2221C33.4795 11.1941 33.5028 11.1801 33.5495 11.1801C33.6055 11.1707 33.6382 11.1754 33.6475 11.1941C33.7502 11.4927 33.8948 11.7727 34.0815 12.0341C34.2682 12.2861 34.4782 12.4914 34.7115 12.6501C34.9542 12.7994 35.1968 12.8741 35.4395 12.8741C35.6262 12.8741 35.7802 12.8181 35.9015 12.7061C36.0228 12.5847 36.0835 12.4027 36.0835 12.1601C36.0835 11.8987 36.0228 11.6841 35.9015 11.5161C35.7895 11.3387 35.6448 11.1894 35.4675 11.0681C35.2902 10.9374 35.1082 10.8207 34.9215 10.7181C34.7068 10.5967 34.4922 10.4707 34.2775 10.3401C34.0628 10.2094 33.8855 10.0461 33.7455 9.85006C33.6055 9.64472 33.5355 9.37872 33.5355 9.05206C33.5355 8.66006 33.6335 8.34739 33.8295 8.11406C34.0255 7.88072 34.2775 7.71272 34.5855 7.61005C34.9028 7.50739 35.2295 7.45605 35.5655 7.45605C35.7708 7.45605 35.9575 7.47006 36.1255 7.49806C36.3028 7.52606 36.5035 7.58206 36.7275 7.66606C36.8115 7.69406 36.8535 7.74539 36.8535 7.82006C36.8535 8.00672 36.8488 8.20272 36.8395 8.40806C36.8302 8.60406 36.8255 8.82339 36.8255 9.06606C36.8255 9.09406 36.7975 9.10806 36.7415 9.10806C36.6855 9.10806 36.6575 9.09406 36.6575 9.06606C36.6575 8.88872 36.5828 8.69739 36.4335 8.49205C36.2935 8.28672 36.1068 8.10939 35.8735 7.96006C35.6402 7.80139 35.3882 7.72206 35.1175 7.72206C34.9868 7.72206 34.8562 7.75472 34.7255 7.82006C34.6042 7.88539 34.5435 8.03472 34.5435 8.26805Z" fill="#00AFA1"/>
<path d="M30.2206 13.168C29.5766 13.168 29.0446 13.0326 28.6246 12.762C28.2046 12.482 27.8919 12.1273 27.6866 11.698C27.4906 11.2686 27.3926 10.8346 27.3926 10.396C27.3926 9.9293 27.4906 9.51397 27.6866 9.14997C27.8826 8.78597 28.1392 8.48264 28.4566 8.23997C28.7832 7.98797 29.1426 7.79664 29.5346 7.66597C29.9266 7.5353 30.3139 7.46997 30.6966 7.46997C30.9672 7.46997 31.2379 7.51197 31.5086 7.59597C31.7792 7.67064 32.0032 7.7873 32.1806 7.94597C32.3579 8.0953 32.4466 8.28664 32.4466 8.51997C32.4466 8.67864 32.3812 8.82797 32.2506 8.96797C32.1199 9.09864 31.9286 9.16397 31.6766 9.16397C31.4432 9.16397 31.2612 9.1033 31.1306 8.98197C30.9999 8.86064 30.8972 8.6833 30.8226 8.44997C30.7572 8.22597 30.6826 8.05797 30.5986 7.94597C30.5239 7.82464 30.3746 7.76397 30.1506 7.76397C29.7492 7.76397 29.4272 7.96464 29.1846 8.36597C28.9512 8.7673 28.8346 9.28997 28.8346 9.93397C28.8346 10.4006 28.9046 10.83 29.0446 11.222C29.1846 11.6046 29.4132 11.9126 29.7306 12.146C30.0479 12.37 30.4726 12.482 31.0046 12.482C31.2846 12.482 31.5179 12.4493 31.7046 12.384C31.9006 12.3186 32.1152 12.23 32.3486 12.118C32.3672 12.0993 32.3906 12.1086 32.4186 12.146C32.4559 12.1833 32.4652 12.2113 32.4466 12.23C32.1199 12.5286 31.7839 12.762 31.4386 12.93C31.0932 13.0886 30.6872 13.168 30.2206 13.168Z" fill="#00AFA1"/>
<path d="M23.813 13C23.785 13 23.771 12.972 23.771 12.916C23.771 12.86 23.785 12.832 23.813 12.832C24.1023 12.832 24.2983 12.7666 24.401 12.636C24.5037 12.496 24.555 12.2393 24.555 11.866V9.35997C24.555 9.05197 24.5223 8.82797 24.457 8.68797C24.401 8.53864 24.2937 8.46397 24.135 8.46397C24.0697 8.46397 23.9903 8.47797 23.897 8.50597C23.813 8.53397 23.7197 8.5713 23.617 8.61797C23.5797 8.6273 23.547 8.60397 23.519 8.54797C23.5003 8.49197 23.505 8.4593 23.533 8.44997L25.647 7.46997C25.6657 7.46064 25.6797 7.45597 25.689 7.45597C25.7357 7.45597 25.7823 7.4793 25.829 7.52597C25.8757 7.57264 25.899 7.61464 25.899 7.65197C25.899 7.76397 25.8943 7.95064 25.885 8.21197C25.8757 8.4733 25.871 8.84664 25.871 9.33197V11.866C25.871 12.2393 25.9223 12.496 26.025 12.636C26.137 12.7666 26.3377 12.832 26.627 12.832C26.655 12.832 26.669 12.86 26.669 12.916C26.669 12.972 26.655 13 26.627 13C26.4403 13 26.2257 12.9953 25.983 12.986C25.7403 12.9766 25.4837 12.972 25.213 12.972C24.9517 12.972 24.6997 12.9766 24.457 12.986C24.2143 12.9953 23.9997 13 23.813 13ZM25.157 6.06997C24.8957 6.06997 24.6857 5.9953 24.527 5.84597C24.3777 5.69664 24.303 5.48664 24.303 5.21597C24.303 4.9733 24.3777 4.78197 24.527 4.64197C24.6857 4.49264 24.8957 4.41797 25.157 4.41797C25.4183 4.41797 25.619 4.49264 25.759 4.64197C25.899 4.78197 25.969 4.9733 25.969 5.21597C25.969 5.7853 25.6983 6.06997 25.157 6.06997Z" fill="#00AFA1"/>
<path d="M16.4527 16.8499C16.4247 16.8499 16.4107 16.8219 16.4107 16.7659C16.4107 16.7099 16.4247 16.6819 16.4527 16.6819C16.7794 16.6819 16.9894 16.6213 17.0827 16.4999C17.1854 16.3786 17.2367 16.1173 17.2367 15.7159V9.23394C17.2367 8.94461 17.204 8.73461 17.1387 8.60394C17.0734 8.46394 16.9567 8.39394 16.7887 8.39394C16.714 8.39394 16.6207 8.41261 16.5087 8.44994C16.3967 8.47794 16.2754 8.52461 16.1447 8.58994C16.1074 8.60861 16.0747 8.58994 16.0467 8.53394C16.0187 8.47794 16.014 8.44527 16.0327 8.43594L18.0207 7.46994C18.0394 7.46061 18.0627 7.45594 18.0907 7.45594C18.1934 7.45594 18.2914 7.56794 18.3847 7.79194C18.4874 8.01594 18.5387 8.33794 18.5387 8.75794V15.7159C18.5387 15.9773 18.5667 16.1779 18.6227 16.3179C18.688 16.4579 18.8094 16.5513 18.9867 16.5979C19.164 16.6539 19.43 16.6819 19.7847 16.6819C19.8127 16.6819 19.8267 16.7099 19.8267 16.7659C19.8267 16.8219 19.8127 16.8499 19.7847 16.8499C19.5234 16.8499 19.2294 16.8453 18.9027 16.8359C18.576 16.8266 18.2307 16.8219 17.8667 16.8219C17.6054 16.8219 17.3487 16.8266 17.0967 16.8359C16.854 16.8453 16.6394 16.8499 16.4527 16.8499ZM19.7427 13.1819C19.3787 13.1819 19.066 13.1539 18.8047 13.0979C18.5527 13.0419 18.2494 12.9533 17.8947 12.8319L18.3847 11.9499C18.59 12.2019 18.8094 12.4119 19.0427 12.5799C19.2854 12.7479 19.6074 12.8319 20.0087 12.8319C20.4474 12.8319 20.7927 12.6406 21.0447 12.2579C21.2967 11.8753 21.4227 11.2639 21.4227 10.4239C21.4227 9.67727 21.25 9.12194 20.9047 8.75794C20.5594 8.38461 20.1534 8.19794 19.6867 8.19794C19.3414 8.19794 19.0427 8.28661 18.7907 8.46394C18.5387 8.64127 18.2913 8.86527 18.0487 9.13594L17.9087 8.96794C18.3847 8.41727 18.8374 8.02061 19.2667 7.77794C19.7054 7.53527 20.1534 7.41394 20.6107 7.41394C21.0027 7.41394 21.3667 7.51661 21.7027 7.72194C22.0387 7.91794 22.3094 8.20727 22.5147 8.58994C22.7294 8.97261 22.8367 9.43927 22.8367 9.98994C22.8367 10.5873 22.7387 11.0913 22.5427 11.5019C22.356 11.9126 22.1087 12.2439 21.8007 12.4959C21.4927 12.7386 21.1567 12.9113 20.7927 13.0139C20.438 13.1259 20.088 13.1819 19.7427 13.1819Z" fill="#00AFA1"/>
<path d="M12.5575 13.1819C11.9695 13.1819 11.4608 13.0466 11.0315 12.7759C10.6022 12.5053 10.2708 12.1459 10.0375 11.6979C9.80417 11.2406 9.6875 10.7506 9.6875 10.2279C9.6875 9.74261 9.78083 9.32261 9.9675 8.96794C10.1542 8.61327 10.4015 8.32394 10.7095 8.09994C11.0175 7.86661 11.3535 7.69394 11.7175 7.58194C12.0815 7.46994 12.4408 7.41394 12.7955 7.41394C13.3928 7.41394 13.9015 7.55394 14.3215 7.83394C14.7508 8.11394 15.0775 8.47327 15.3015 8.91194C15.5255 9.35061 15.6375 9.81727 15.6375 10.3119C15.6375 10.8813 15.4928 11.3853 15.2035 11.8239C14.9235 12.2533 14.5502 12.5893 14.0835 12.8319C13.6168 13.0653 13.1082 13.1819 12.5575 13.1819ZM12.9775 12.8879C13.3508 12.8879 13.6308 12.7059 13.8175 12.3419C14.0042 11.9779 14.0975 11.4646 14.0975 10.8019C14.0975 10.1206 14.0088 9.55127 13.8315 9.09394C13.6635 8.63661 13.4442 8.29127 13.1735 8.05794C12.9028 7.82461 12.6182 7.70794 12.3195 7.70794C11.9555 7.70794 11.6755 7.87127 11.4795 8.19794C11.2928 8.52461 11.1995 9.02861 11.1995 9.70994C11.1995 10.3446 11.2788 10.9046 11.4375 11.3899C11.5962 11.8659 11.8108 12.2346 12.0815 12.4959C12.3522 12.7573 12.6508 12.8879 12.9775 12.8879Z" fill="#00AFA1"/>
<path d="M4.49917 4.57199C3.92984 4.57199 3.44451 4.76333 3.04317 5.14599C2.65117 5.51933 2.33851 6.05133 2.10517 6.74199C2.09584 6.76999 2.06784 6.78399 2.02117 6.78399C1.97451 6.77466 1.95117 6.75599 1.95117 6.72799C1.96984 6.59733 1.98851 6.41533 2.00717 6.18199C2.02584 5.93933 2.04451 5.67799 2.06317 5.39799C2.09117 5.11799 2.10984 4.84733 2.11917 4.58599C2.13784 4.32466 2.14717 4.10999 2.14717 3.94199C2.14717 3.89533 2.17051 3.87199 2.21717 3.87199C2.27317 3.87199 2.30117 3.89533 2.30117 3.94199C2.30117 4.03533 2.34784 4.10533 2.44117 4.15199C2.54384 4.18933 2.65584 4.21733 2.77717 4.23599C2.90784 4.24533 3.01517 4.24999 3.09917 4.24999C3.90184 4.27799 4.83984 4.29199 5.91317 4.29199C6.56651 4.29199 7.08917 4.28733 7.48117 4.27799C7.87317 4.25933 8.25117 4.24999 8.61517 4.24999C8.95117 4.24999 9.20317 4.23133 9.37117 4.19399C9.54851 4.14733 9.66051 4.04933 9.70717 3.89999C9.71651 3.86266 9.74451 3.84399 9.79117 3.84399C9.84717 3.84399 9.87517 3.86266 9.87517 3.89999C9.85651 4.04933 9.83784 4.25933 9.81917 4.52999C9.80984 4.79133 9.79584 5.07133 9.77717 5.36999C9.76784 5.65933 9.75851 5.92999 9.74917 6.18199C9.73984 6.42466 9.73517 6.60666 9.73517 6.72799C9.73517 6.75599 9.71184 6.76999 9.66517 6.76999C9.61851 6.76999 9.59051 6.75599 9.58117 6.72799C9.44117 5.99066 9.17517 5.44933 8.78317 5.10399C8.40051 4.74933 7.93384 4.57199 7.38317 4.57199C7.19651 4.57199 7.05184 4.59999 6.94917 4.65599C6.85584 4.70266 6.79051 4.78666 6.75317 4.90799C6.72517 5.02933 6.71117 5.19733 6.71117 5.41199V11.866C6.71117 12.1367 6.73917 12.342 6.79517 12.482C6.85117 12.622 6.95851 12.7153 7.11717 12.762C7.28517 12.8087 7.53717 12.832 7.87317 12.832C7.90117 12.832 7.91517 12.86 7.91517 12.916C7.91517 12.972 7.90117 13 7.87317 13C7.61184 13 7.31784 12.9953 6.99117 12.986C6.66451 12.9767 6.30517 12.972 5.91317 12.972C5.53984 12.972 5.18984 12.9767 4.86317 12.986C4.53651 12.9953 4.23784 13 3.96717 13C3.93917 13 3.92517 12.972 3.92517 12.916C3.92517 12.86 3.93917 12.832 3.96717 12.832C4.29384 12.832 4.54117 12.8087 4.70917 12.762C4.87717 12.7153 4.98917 12.622 5.04517 12.482C5.11051 12.342 5.14317 12.1367 5.14317 11.866V5.38399C5.14317 5.17866 5.12451 5.01999 5.08717 4.90799C5.05917 4.78666 4.99851 4.70266 4.90517 4.65599C4.81184 4.59999 4.67651 4.57199 4.49917 4.57199Z" fill="#00AFA1"/>
<path d="M58.9332 14H40.9492V12.576C40.9492 8.06402 53.3332 8.38402 53.3332 5.82402C53.3332 5.05602 52.1012 4.33602 49.1732 4.33602C46.7732 4.33602 44.6132 4.68802 43.5412 5.40802C45.2852 4.92802 46.4052 5.77602 46.4052 6.86402C46.4052 7.96802 45.3012 8.52802 43.9732 8.52802C42.4372 8.52802 41.0452 7.74402 41.0452 6.25602C41.0452 4.20802 43.5412 2.40002 49.8612 2.40002C55.3812 2.40002 58.7412 4.01602 58.7412 6.25602C58.7412 10.464 46.9652 10.656 46.9652 12.08H53.3972C55.4132 12.08 56.3092 11.408 56.4692 9.64802H58.9332V14Z" fill="#00AFA1"/>
</svg>
