<svg width="60" height="18" viewBox="0 0 60 18" fill="none" xmlns="http://www.w3.org/2000/svg">
<path d="M37.5435 8.26805C37.5435 8.46406 37.5948 8.64139 37.6975 8.80006C37.8095 8.94939 37.9495 9.08939 38.1175 9.22006C38.2855 9.34139 38.4675 9.46272 38.6635 9.58405C38.8968 9.71472 39.1255 9.85472 39.3495 10.0041C39.5735 10.1441 39.7602 10.3167 39.9095 10.5221C40.0588 10.7274 40.1335 10.9934 40.1335 11.3201C40.1335 11.6187 40.0542 11.9127 39.8955 12.2021C39.7462 12.4821 39.5175 12.7107 39.2095 12.8881C38.9015 13.0654 38.5142 13.1541 38.0475 13.1541C37.8142 13.1541 37.5808 13.1261 37.3475 13.0701C37.1142 13.0234 36.8622 12.9254 36.5915 12.7761C36.5728 12.7574 36.5542 12.7341 36.5355 12.7061C36.5168 12.6781 36.5075 12.6454 36.5075 12.6081L36.4795 11.2221C36.4795 11.1941 36.5028 11.1801 36.5495 11.1801C36.6055 11.1707 36.6382 11.1754 36.6475 11.1941C36.7502 11.4927 36.8948 11.7727 37.0815 12.0341C37.2682 12.2861 37.4782 12.4914 37.7115 12.6501C37.9542 12.7994 38.1968 12.8741 38.4395 12.8741C38.6262 12.8741 38.7802 12.8181 38.9015 12.7061C39.0228 12.5847 39.0835 12.4027 39.0835 12.1601C39.0835 11.8987 39.0228 11.6841 38.9015 11.5161C38.7895 11.3387 38.6448 11.1894 38.4675 11.0681C38.2902 10.9374 38.1082 10.8207 37.9215 10.7181C37.7068 10.5967 37.4922 10.4707 37.2775 10.3401C37.0628 10.2094 36.8855 10.0461 36.7455 9.85006C36.6055 9.64472 36.5355 9.37872 36.5355 9.05206C36.5355 8.66006 36.6335 8.34739 36.8295 8.11406C37.0255 7.88072 37.2775 7.71272 37.5855 7.61005C37.9028 7.50739 38.2295 7.45605 38.5655 7.45605C38.7708 7.45605 38.9575 7.47006 39.1255 7.49806C39.3028 7.52606 39.5035 7.58206 39.7275 7.66606C39.8115 7.69406 39.8535 7.74539 39.8535 7.82006C39.8535 8.00672 39.8488 8.20272 39.8395 8.40806C39.8302 8.60406 39.8255 8.82339 39.8255 9.06606C39.8255 9.09406 39.7975 9.10806 39.7415 9.10806C39.6855 9.10806 39.6575 9.09406 39.6575 9.06606C39.6575 8.88872 39.5828 8.69739 39.4335 8.49205C39.2935 8.28672 39.1068 8.10939 38.8735 7.96006C38.6402 7.80139 38.3882 7.72206 38.1175 7.72206C37.9868 7.72206 37.8562 7.75472 37.7255 7.82006C37.6042 7.88539 37.5435 8.03472 37.5435 8.26805Z" fill="#E35E8D"/>
<path d="M33.2206 13.168C32.5766 13.168 32.0446 13.0326 31.6246 12.762C31.2046 12.482 30.8919 12.1273 30.6866 11.698C30.4906 11.2686 30.3926 10.8346 30.3926 10.396C30.3926 9.9293 30.4906 9.51397 30.6866 9.14997C30.8826 8.78597 31.1392 8.48264 31.4566 8.23997C31.7832 7.98797 32.1426 7.79664 32.5346 7.66597C32.9266 7.5353 33.3139 7.46997 33.6966 7.46997C33.9672 7.46997 34.2379 7.51197 34.5086 7.59597C34.7792 7.67064 35.0032 7.7873 35.1806 7.94597C35.3579 8.0953 35.4466 8.28664 35.4466 8.51997C35.4466 8.67864 35.3812 8.82797 35.2506 8.96797C35.1199 9.09864 34.9286 9.16397 34.6766 9.16397C34.4432 9.16397 34.2612 9.1033 34.1306 8.98197C33.9999 8.86064 33.8972 8.6833 33.8226 8.44997C33.7572 8.22597 33.6826 8.05797 33.5986 7.94597C33.5239 7.82464 33.3746 7.76397 33.1506 7.76397C32.7492 7.76397 32.4272 7.96464 32.1846 8.36597C31.9512 8.7673 31.8346 9.28997 31.8346 9.93397C31.8346 10.4006 31.9046 10.83 32.0446 11.222C32.1846 11.6046 32.4132 11.9126 32.7306 12.146C33.0479 12.37 33.4726 12.482 34.0046 12.482C34.2846 12.482 34.5179 12.4493 34.7046 12.384C34.9006 12.3186 35.1152 12.23 35.3486 12.118C35.3672 12.0993 35.3906 12.1086 35.4186 12.146C35.4559 12.1833 35.4652 12.2113 35.4466 12.23C35.1199 12.5286 34.7839 12.762 34.4386 12.93C34.0932 13.0886 33.6872 13.168 33.2206 13.168Z" fill="#E35E8D"/>
<path d="M26.813 13C26.785 13 26.771 12.972 26.771 12.916C26.771 12.86 26.785 12.832 26.813 12.832C27.1023 12.832 27.2983 12.7666 27.401 12.636C27.5037 12.496 27.555 12.2393 27.555 11.866V9.35997C27.555 9.05197 27.5223 8.82797 27.457 8.68797C27.401 8.53864 27.2937 8.46397 27.135 8.46397C27.0697 8.46397 26.9903 8.47797 26.897 8.50597C26.813 8.53397 26.7197 8.5713 26.617 8.61797C26.5797 8.6273 26.547 8.60397 26.519 8.54797C26.5003 8.49197 26.505 8.4593 26.533 8.44997L28.647 7.46997C28.6657 7.46064 28.6797 7.45597 28.689 7.45597C28.7357 7.45597 28.7823 7.4793 28.829 7.52597C28.8757 7.57264 28.899 7.61464 28.899 7.65197C28.899 7.76397 28.8943 7.95064 28.885 8.21197C28.8757 8.4733 28.871 8.84664 28.871 9.33197V11.866C28.871 12.2393 28.9223 12.496 29.025 12.636C29.137 12.7666 29.3377 12.832 29.627 12.832C29.655 12.832 29.669 12.86 29.669 12.916C29.669 12.972 29.655 13 29.627 13C29.4403 13 29.2257 12.9953 28.983 12.986C28.7403 12.9766 28.4837 12.972 28.213 12.972C27.9517 12.972 27.6997 12.9766 27.457 12.986C27.2143 12.9953 26.9997 13 26.813 13ZM28.157 6.06997C27.8957 6.06997 27.6857 5.9953 27.527 5.84597C27.3777 5.69664 27.303 5.48664 27.303 5.21597C27.303 4.9733 27.3777 4.78197 27.527 4.64197C27.6857 4.49264 27.8957 4.41797 28.157 4.41797C28.4183 4.41797 28.619 4.49264 28.759 4.64197C28.899 4.78197 28.969 4.9733 28.969 5.21597C28.969 5.7853 28.6983 6.06997 28.157 6.06997Z" fill="#E35E8D"/>
<path d="M19.4527 16.8501C19.4247 16.8501 19.4107 16.8221 19.4107 16.7661C19.4107 16.7101 19.4247 16.6821 19.4527 16.6821C19.7794 16.6821 19.9894 16.6214 20.0827 16.5001C20.1854 16.3787 20.2367 16.1174 20.2367 15.7161V9.23406C20.2367 8.94473 20.204 8.73473 20.1387 8.60406C20.0734 8.46406 19.9567 8.39406 19.7887 8.39406C19.714 8.39406 19.6207 8.41273 19.5087 8.45006C19.3967 8.47806 19.2754 8.52473 19.1447 8.59006C19.1074 8.60873 19.0747 8.59006 19.0467 8.53406C19.0187 8.47806 19.014 8.4454 19.0327 8.43606L21.0207 7.47006C21.0394 7.46073 21.0627 7.45606 21.0907 7.45606C21.1934 7.45606 21.2914 7.56806 21.3847 7.79206C21.4874 8.01606 21.5387 8.33806 21.5387 8.75806V15.7161C21.5387 15.9774 21.5667 16.1781 21.6227 16.3181C21.688 16.4581 21.8094 16.5514 21.9867 16.5981C22.164 16.6541 22.43 16.6821 22.7847 16.6821C22.8127 16.6821 22.8267 16.7101 22.8267 16.7661C22.8267 16.8221 22.8127 16.8501 22.7847 16.8501C22.5234 16.8501 22.2294 16.8454 21.9027 16.8361C21.576 16.8267 21.2307 16.8221 20.8667 16.8221C20.6054 16.8221 20.3487 16.8267 20.0967 16.8361C19.854 16.8454 19.6394 16.8501 19.4527 16.8501ZM22.7427 13.1821C22.3787 13.1821 22.066 13.1541 21.8047 13.0981C21.5527 13.0421 21.2494 12.9534 20.8947 12.8321L21.3847 11.9501C21.59 12.2021 21.8094 12.4121 22.0427 12.5801C22.2854 12.7481 22.6074 12.8321 23.0087 12.8321C23.4474 12.8321 23.7927 12.6407 24.0447 12.2581C24.2967 11.8754 24.4227 11.2641 24.4227 10.4241C24.4227 9.6774 24.25 9.12206 23.9047 8.75806C23.5594 8.38473 23.1534 8.19806 22.6867 8.19806C22.3414 8.19806 22.0427 8.28673 21.7907 8.46406C21.5387 8.6414 21.2913 8.8654 21.0487 9.13606L20.9087 8.96806C21.3847 8.4174 21.8374 8.02073 22.2667 7.77806C22.7054 7.5354 23.1534 7.41406 23.6107 7.41406C24.0027 7.41406 24.3667 7.51673 24.7027 7.72206C25.0387 7.91806 25.3094 8.2074 25.5147 8.59006C25.7294 8.97273 25.8367 9.4394 25.8367 9.99006C25.8367 10.5874 25.7387 11.0914 25.5427 11.5021C25.356 11.9127 25.1087 12.2441 24.8007 12.4961C24.4927 12.7387 24.1567 12.9114 23.7927 13.0141C23.438 13.1261 23.088 13.1821 22.7427 13.1821Z" fill="#E35E8D"/>
<path d="M15.5575 13.1821C14.9695 13.1821 14.4608 13.0467 14.0315 12.7761C13.6022 12.5054 13.2708 12.1461 13.0375 11.6981C12.8042 11.2407 12.6875 10.7507 12.6875 10.2281C12.6875 9.74273 12.7808 9.32273 12.9675 8.96806C13.1542 8.6134 13.4015 8.32406 13.7095 8.10006C14.0175 7.86673 14.3535 7.69406 14.7175 7.58206C15.0815 7.47006 15.4408 7.41406 15.7955 7.41406C16.3928 7.41406 16.9015 7.55406 17.3215 7.83406C17.7508 8.11406 18.0775 8.4734 18.3015 8.91206C18.5255 9.35073 18.6375 9.8174 18.6375 10.3121C18.6375 10.8814 18.4928 11.3854 18.2035 11.8241C17.9235 12.2534 17.5502 12.5894 17.0835 12.8321C16.6168 13.0654 16.1082 13.1821 15.5575 13.1821ZM15.9775 12.8881C16.3508 12.8881 16.6308 12.7061 16.8175 12.3421C17.0042 11.9781 17.0975 11.4647 17.0975 10.8021C17.0975 10.1207 17.0088 9.5514 16.8315 9.09406C16.6635 8.63673 16.4442 8.2914 16.1735 8.05806C15.9028 7.82473 15.6182 7.70806 15.3195 7.70806C14.9555 7.70806 14.6755 7.8714 14.4795 8.19806C14.2928 8.52473 14.1995 9.02873 14.1995 9.71006C14.1995 10.3447 14.2788 10.9047 14.4375 11.3901C14.5962 11.8661 14.8108 12.2347 15.0815 12.4961C15.3522 12.7574 15.6508 12.8881 15.9775 12.8881Z" fill="#E35E8D"/>
<path d="M7.49917 4.57199C6.92984 4.57199 6.44451 4.76333 6.04317 5.14599C5.65117 5.51933 5.33851 6.05133 5.10517 6.74199C5.09584 6.76999 5.06784 6.78399 5.02117 6.78399C4.97451 6.77466 4.95117 6.75599 4.95117 6.72799C4.96984 6.59733 4.98851 6.41533 5.00717 6.18199C5.02584 5.93933 5.04451 5.67799 5.06317 5.39799C5.09117 5.11799 5.10984 4.84733 5.11917 4.58599C5.13784 4.32466 5.14717 4.10999 5.14717 3.94199C5.14717 3.89533 5.17051 3.87199 5.21717 3.87199C5.27317 3.87199 5.30117 3.89533 5.30117 3.94199C5.30117 4.03533 5.34784 4.10533 5.44117 4.15199C5.54384 4.18933 5.65584 4.21733 5.77717 4.23599C5.90784 4.24533 6.01517 4.24999 6.09917 4.24999C6.90184 4.27799 7.83984 4.29199 8.91317 4.29199C9.56651 4.29199 10.0892 4.28733 10.4812 4.27799C10.8732 4.25933 11.2512 4.24999 11.6152 4.24999C11.9512 4.24999 12.2032 4.23133 12.3712 4.19399C12.5485 4.14733 12.6605 4.04933 12.7072 3.89999C12.7165 3.86266 12.7445 3.84399 12.7912 3.84399C12.8472 3.84399 12.8752 3.86266 12.8752 3.89999C12.8565 4.04933 12.8378 4.25933 12.8192 4.52999C12.8098 4.79133 12.7958 5.07133 12.7772 5.36999C12.7678 5.65933 12.7585 5.92999 12.7492 6.18199C12.7398 6.42466 12.7352 6.60666 12.7352 6.72799C12.7352 6.75599 12.7118 6.76999 12.6652 6.76999C12.6185 6.76999 12.5905 6.75599 12.5812 6.72799C12.4412 5.99066 12.1752 5.44933 11.7832 5.10399C11.4005 4.74933 10.9338 4.57199 10.3832 4.57199C10.1965 4.57199 10.0518 4.59999 9.94917 4.65599C9.85584 4.70266 9.79051 4.78666 9.75317 4.90799C9.72517 5.02933 9.71117 5.19733 9.71117 5.41199V11.866C9.71117 12.1367 9.73917 12.342 9.79517 12.482C9.85117 12.622 9.95851 12.7153 10.1172 12.762C10.2852 12.8087 10.5372 12.832 10.8732 12.832C10.9012 12.832 10.9152 12.86 10.9152 12.916C10.9152 12.972 10.9012 13 10.8732 13C10.6118 13 10.3178 12.9953 9.99117 12.986C9.66451 12.9767 9.30517 12.972 8.91317 12.972C8.53984 12.972 8.18984 12.9767 7.86317 12.986C7.53651 12.9953 7.23784 13 6.96717 13C6.93917 13 6.92517 12.972 6.92517 12.916C6.92517 12.86 6.93917 12.832 6.96717 12.832C7.29384 12.832 7.54117 12.8087 7.70917 12.762C7.87717 12.7153 7.98917 12.622 8.04517 12.482C8.11051 12.342 8.14317 12.1367 8.14317 11.866V5.38399C8.14317 5.17866 8.12451 5.01999 8.08717 4.90799C8.05917 4.78666 7.99851 4.70266 7.90517 4.65599C7.81184 4.59999 7.67651 4.57199 7.49917 4.57199Z" fill="#E35E8D"/>
<path d="M53.0302 2.70398V11.056C53.0302 11.936 53.3342 12.08 54.1182 12.08H56.7582V14H43.7822V12.08H46.5822C47.3662 12.08 47.6542 11.936 47.6542 11.056V7.34398C47.6542 6.46398 47.3662 6.31998 46.5822 6.31998H44.1022V4.39998H45.5422C47.7342 4.39998 48.7902 4.06398 49.6702 2.70398H53.0302Z" fill="#E35E8D"/>
</svg>
