<svg width="59" height="18" viewBox="0 0 59 18" fill="none" xmlns="http://www.w3.org/2000/svg">
<path d="M33.9678 8.13013C33.9678 8.32287 34.0183 8.49724 34.1192 8.65327C34.2293 8.80011 34.367 8.93778 34.5322 9.06627C34.6974 9.18558 34.8764 9.30489 35.0691 9.4242C35.2986 9.55269 35.5234 9.69035 35.7437 9.8372C35.9639 9.97487 36.1475 10.1447 36.2943 10.3466C36.4412 10.5485 36.5146 10.81 36.5146 11.1313C36.5146 11.425 36.4366 11.7141 36.2806 11.9986C36.1337 12.2739 35.9089 12.4988 35.606 12.6731C35.3031 12.8475 34.9223 12.9347 34.4634 12.9347C34.2339 12.9347 34.0045 12.9072 33.775 12.8521C33.5456 12.8062 33.2978 12.7098 33.0316 12.563C33.0133 12.5446 32.9949 12.5217 32.9766 12.4942C32.9582 12.4666 32.949 12.4345 32.949 12.3978L32.9215 11.0349C32.9215 11.0074 32.9445 10.9936 32.9903 10.9936C33.0454 10.9844 33.0775 10.989 33.0867 11.0074C33.1877 11.3011 33.3299 11.5764 33.5135 11.8334C33.697 12.0812 33.9035 12.2831 34.133 12.4391C34.3716 12.5859 34.6102 12.6594 34.8488 12.6594C35.0324 12.6594 35.1838 12.6043 35.3031 12.4942C35.4225 12.3749 35.4821 12.1959 35.4821 11.9573C35.4821 11.7003 35.4225 11.4892 35.3031 11.324C35.193 11.1496 35.0508 11.0028 34.8764 10.8835C34.702 10.755 34.523 10.6403 34.3395 10.5393C34.1284 10.42 33.9173 10.2961 33.7062 10.1676C33.4951 10.0391 33.3207 9.8785 33.1831 9.68577C33.0454 9.48385 32.9766 9.22229 32.9766 8.90107C32.9766 8.5156 33.0729 8.20814 33.2657 7.9787C33.4584 7.74925 33.7062 7.58405 34.0091 7.4831C34.3211 7.38214 34.6423 7.33167 34.9727 7.33167C35.1747 7.33167 35.3582 7.34543 35.5234 7.37297C35.6978 7.4005 35.8951 7.45557 36.1154 7.53817C36.198 7.5657 36.2393 7.61618 36.2393 7.6896C36.2393 7.87315 36.2347 8.06589 36.2255 8.2678C36.2163 8.46053 36.2117 8.67621 36.2117 8.91483C36.2117 8.94237 36.1842 8.95613 36.1291 8.95613C36.0741 8.95613 36.0465 8.94237 36.0465 8.91483C36.0465 8.74045 35.9731 8.55231 35.8263 8.3504C35.6886 8.14849 35.5051 7.97411 35.2756 7.82727C35.0462 7.67124 34.7984 7.59323 34.5322 7.59323C34.4037 7.59323 34.2752 7.62535 34.1467 7.6896C34.0274 7.75384 33.9678 7.90069 33.9678 8.13013Z" fill="#FFBB00"/>
<path d="M29.7169 12.9484C29.0836 12.9484 28.5605 12.8153 28.1475 12.5491C27.7345 12.2738 27.427 11.925 27.2251 11.5029C27.0324 11.0807 26.936 10.6539 26.936 10.2226C26.936 9.76368 27.0324 9.35527 27.2251 8.99734C27.4179 8.6394 27.6703 8.34113 27.9823 8.1025C28.3035 7.8547 28.6569 7.66656 29.0423 7.53807C29.4278 7.40958 29.8087 7.34534 30.185 7.34534C30.4511 7.34534 30.7173 7.38664 30.9834 7.46924C31.2496 7.54266 31.4699 7.65738 31.6442 7.8134C31.8186 7.96025 31.9058 8.14839 31.9058 8.37784C31.9058 8.53386 31.8416 8.6807 31.7131 8.81837C31.5846 8.94686 31.3964 9.0111 31.1486 9.0111C30.9192 9.0111 30.7402 8.95145 30.6117 8.83214C30.4832 8.71283 30.3823 8.53845 30.3089 8.309C30.2446 8.08874 30.1712 7.92354 30.0886 7.8134C30.0152 7.69409 29.8683 7.63444 29.6481 7.63444C29.2534 7.63444 28.9368 7.83176 28.6982 8.2264C28.4687 8.62105 28.354 9.135 28.354 9.76827C28.354 10.2272 28.4228 10.6493 28.5605 11.0348C28.6982 11.4111 28.923 11.714 29.2351 11.9434C29.5471 12.1637 29.9647 12.2738 30.4878 12.2738C30.7632 12.2738 30.9926 12.2417 31.1762 12.1774C31.3689 12.1132 31.58 12.026 31.8094 11.9159C31.8278 11.8975 31.8507 11.9067 31.8783 11.9434C31.915 11.9801 31.9242 12.0076 31.9058 12.026C31.5846 12.3197 31.2542 12.5491 30.9146 12.7143C30.575 12.8704 30.1758 12.9484 29.7169 12.9484Z" fill="#FFBB00"/>
<path d="M23.4162 12.7832C23.3887 12.7832 23.3749 12.7557 23.3749 12.7006C23.3749 12.6455 23.3887 12.618 23.4162 12.618C23.7007 12.618 23.8934 12.5538 23.9944 12.4253C24.0954 12.2876 24.1458 12.0352 24.1458 11.6681V9.20387C24.1458 8.901 24.1137 8.68074 24.0495 8.54307C23.9944 8.39623 23.8889 8.3228 23.7328 8.3228C23.6686 8.3228 23.5906 8.33657 23.4988 8.3641C23.4162 8.39164 23.3244 8.42835 23.2235 8.47424C23.1868 8.48342 23.1546 8.46047 23.1271 8.4054C23.1087 8.35034 23.1133 8.31822 23.1409 8.30904L25.2196 7.34537C25.238 7.33619 25.2518 7.3316 25.2609 7.3316C25.3068 7.3316 25.3527 7.35455 25.3986 7.40044C25.4445 7.44633 25.4674 7.48763 25.4674 7.52434C25.4674 7.63447 25.4628 7.81803 25.4537 8.07501C25.4445 8.33198 25.4399 8.69909 25.4399 9.17634V11.6681C25.4399 12.0352 25.4904 12.2876 25.5913 12.4253C25.7015 12.5538 25.8988 12.618 26.1833 12.618C26.2108 12.618 26.2246 12.6455 26.2246 12.7006C26.2246 12.7557 26.2108 12.7832 26.1833 12.7832C25.9997 12.7832 25.7887 12.7786 25.55 12.7694C25.3114 12.7603 25.059 12.7557 24.7929 12.7557C24.5359 12.7557 24.2881 12.7603 24.0495 12.7694C23.8108 12.7786 23.5998 12.7832 23.4162 12.7832ZM24.7378 5.9687C24.4808 5.9687 24.2743 5.89528 24.1183 5.74844C23.9715 5.60159 23.898 5.39509 23.898 5.12894C23.898 4.89032 23.9715 4.70217 24.1183 4.56451C24.2743 4.41766 24.4808 4.34424 24.7378 4.34424C24.9948 4.34424 25.1921 4.41766 25.3298 4.56451C25.4674 4.70217 25.5363 4.89032 25.5363 5.12894C25.5363 5.68878 25.2701 5.9687 24.7378 5.9687Z" fill="#FFBB00"/>
<path d="M16.1785 16.5689C16.151 16.5689 16.1372 16.5414 16.1372 16.4863C16.1372 16.4312 16.151 16.4037 16.1785 16.4037C16.4998 16.4037 16.7063 16.344 16.798 16.2247C16.899 16.1054 16.9495 15.8484 16.9495 15.4538V9.07983C16.9495 8.79532 16.9173 8.58882 16.8531 8.46033C16.7889 8.32266 16.6741 8.25383 16.5089 8.25383C16.4355 8.25383 16.3437 8.27218 16.2336 8.30889C16.1235 8.33643 16.0042 8.38232 15.8757 8.44656C15.839 8.46492 15.8068 8.44656 15.7793 8.39149C15.7518 8.33643 15.7472 8.30431 15.7655 8.29513L17.7204 7.34523C17.7388 7.33605 17.7617 7.33146 17.7892 7.33146C17.8902 7.33146 17.9866 7.44159 18.0783 7.66186C18.1793 7.88213 18.2298 8.19876 18.2298 8.61176V15.4538C18.2298 15.7108 18.2573 15.9081 18.3124 16.0458C18.3766 16.1834 18.4959 16.2752 18.6703 16.3211C18.8447 16.3762 19.1062 16.4037 19.455 16.4037C19.4825 16.4037 19.4963 16.4312 19.4963 16.4863C19.4963 16.5414 19.4825 16.5689 19.455 16.5689C19.198 16.5689 18.9089 16.5643 18.5877 16.5551C18.2665 16.546 17.9269 16.5414 17.569 16.5414C17.312 16.5414 17.0596 16.546 16.8118 16.5551C16.5732 16.5643 16.3621 16.5689 16.1785 16.5689ZM19.4137 12.962C19.0558 12.962 18.7483 12.9345 18.4913 12.8794C18.2435 12.8244 17.9453 12.7372 17.5965 12.6179L18.0783 11.7506C18.2802 11.9984 18.4959 12.2049 18.7254 12.3701C18.964 12.5353 19.2806 12.6179 19.6753 12.6179C20.1066 12.6179 20.4462 12.4297 20.694 12.0534C20.9418 11.6771 21.0657 11.076 21.0657 10.25C21.0657 9.51577 20.8959 8.96969 20.5563 8.61176C20.2168 8.24465 19.8175 8.06109 19.3586 8.06109C19.0191 8.06109 18.7254 8.14828 18.4776 8.32266C18.2298 8.49704 17.9866 8.71731 17.7479 8.98346L17.6103 8.81826C18.0783 8.27677 18.5235 7.88672 18.9456 7.64809C19.377 7.40947 19.8175 7.29016 20.2672 7.29016C20.6527 7.29016 21.0106 7.39112 21.341 7.59303C21.6714 7.78576 21.9376 8.07027 22.1395 8.44656C22.3506 8.82285 22.4561 9.28174 22.4561 9.82323C22.4561 10.4106 22.3598 10.9062 22.167 11.31C21.9835 11.7139 21.7403 12.0397 21.4374 12.2875C21.1345 12.5261 20.8041 12.6959 20.4462 12.7968C20.0974 12.907 19.7533 12.962 19.4137 12.962Z" fill="#FFBB00"/>
<path d="M12.3483 12.962C11.7701 12.962 11.2699 12.829 10.8477 12.5628C10.4255 12.2966 10.0997 11.9433 9.87029 11.5028C9.64085 11.0531 9.52612 10.5712 9.52612 10.0573C9.52612 9.58002 9.6179 9.16702 9.80146 8.81826C9.98501 8.46951 10.2282 8.18499 10.5311 7.96473C10.834 7.73528 11.1644 7.56549 11.5223 7.45536C11.8802 7.34523 12.2336 7.29016 12.5823 7.29016C13.1697 7.29016 13.6699 7.42783 14.0829 7.70316C14.5051 7.97849 14.8263 8.33184 15.0466 8.76319C15.2668 9.19455 15.377 9.65344 15.377 10.1399C15.377 10.6997 15.2347 11.1953 14.9502 11.6267C14.6749 12.0488 14.3077 12.3792 13.8489 12.6179C13.39 12.8473 12.8898 12.962 12.3483 12.962ZM12.7613 12.6729C13.1284 12.6729 13.4037 12.494 13.5873 12.136C13.7708 11.7781 13.8626 11.2733 13.8626 10.6217C13.8626 9.95172 13.7754 9.39187 13.6011 8.94216C13.4359 8.49245 13.2202 8.15287 12.954 7.92343C12.6879 7.69398 12.4079 7.57926 12.1143 7.57926C11.7563 7.57926 11.481 7.73987 11.2883 8.06109C11.1047 8.38232 11.0129 8.87792 11.0129 9.54789C11.0129 10.172 11.0909 10.7227 11.247 11.1999C11.403 11.668 11.6141 12.0305 11.8802 12.2875C12.1464 12.5444 12.4401 12.6729 12.7613 12.6729Z" fill="#FFBB00"/>
<path d="M4.42423 4.49565C3.86439 4.49565 3.38715 4.6838 2.9925 5.06009C2.60703 5.4272 2.29958 5.95033 2.07013 6.62949C2.06096 6.65702 2.03342 6.67079 1.98753 6.67079C1.94165 6.66161 1.9187 6.64325 1.9187 6.61572C1.93706 6.48723 1.95541 6.30826 1.97377 6.07882C1.99212 5.8402 2.01048 5.58322 2.02883 5.30788C2.05637 5.03255 2.07472 4.7664 2.0839 4.50942C2.10226 4.25244 2.11143 4.04135 2.11143 3.87615C2.11143 3.83026 2.13438 3.80732 2.18027 3.80732C2.23533 3.80732 2.26287 3.83026 2.26287 3.87615C2.26287 3.96793 2.30876 4.03676 2.40053 4.08265C2.50149 4.11936 2.61162 4.1469 2.73093 4.16525C2.85942 4.17443 2.96497 4.17902 3.04757 4.17902C3.83686 4.20655 4.75922 4.22032 5.81467 4.22032C6.45711 4.22032 6.97107 4.21573 7.35654 4.20655C7.742 4.1882 8.1137 4.17902 8.47164 4.17902C8.80204 4.17902 9.04984 4.16066 9.21503 4.12395C9.38941 4.07806 9.49955 3.9817 9.54544 3.83485C9.55461 3.79814 9.58215 3.77979 9.62804 3.77979C9.6831 3.77979 9.71063 3.79814 9.71063 3.83485C9.69228 3.9817 9.67392 4.1882 9.65557 4.45435C9.64639 4.71133 9.63262 4.98666 9.61427 5.28035C9.60509 5.56486 9.59591 5.83102 9.58673 6.07882C9.57756 6.31744 9.57297 6.49641 9.57297 6.61572C9.57297 6.64325 9.55002 6.65702 9.50413 6.65702C9.45825 6.65702 9.43071 6.64325 9.42154 6.61572C9.28387 5.89067 9.0223 5.35836 8.63684 5.01879C8.26055 4.67003 7.80166 4.49565 7.26017 4.49565C7.07661 4.49565 6.93436 4.52319 6.8334 4.57825C6.74162 4.62414 6.67738 4.70674 6.64067 4.82605C6.61314 4.94536 6.59937 5.11056 6.59937 5.32165V11.6681C6.59937 11.9342 6.6269 12.1362 6.68197 12.2738C6.73703 12.4115 6.84258 12.5033 6.9986 12.5492C7.1638 12.595 7.4116 12.618 7.742 12.618C7.76954 12.618 7.7833 12.6455 7.7833 12.7006C7.7833 12.7557 7.76954 12.7832 7.742 12.7832C7.48502 12.7832 7.19592 12.7786 6.8747 12.7694C6.55348 12.7602 6.20013 12.7557 5.81467 12.7557C5.44756 12.7557 5.10339 12.7602 4.78217 12.7694C4.46095 12.7786 4.16726 12.7832 3.9011 12.7832C3.87357 12.7832 3.8598 12.7557 3.8598 12.7006C3.8598 12.6455 3.87357 12.618 3.9011 12.618C4.22232 12.618 4.46553 12.595 4.63073 12.5492C4.79593 12.5033 4.90607 12.4115 4.96113 12.2738C5.02538 12.1362 5.0575 11.9342 5.0575 11.6681V5.29412C5.0575 5.09221 5.03915 4.93619 5.00243 4.82605C4.9749 4.70674 4.91525 4.62414 4.82347 4.57825C4.73169 4.52319 4.59861 4.49565 4.42423 4.49565Z" fill="#FFBB00"/>
<path d="M53.9071 8.00825C56.2042 8.25999 58.2338 8.81065 58.2338 10.6829C58.2338 12.6339 55.9524 14.1915 48.8567 14.16C43.1298 14.1285 40.2034 12.6968 40.2034 10.7459C40.2034 9.42425 41.5407 8.65332 43.3186 8.65332C44.5458 8.65332 45.8044 9.04665 45.8044 10.1637C45.8044 11.4853 44.2468 11.6899 42.7836 11.4853C43.7906 12.036 45.537 12.4136 48.1487 12.4136C51.0594 12.4136 52.6327 11.9259 52.6327 10.7144C52.6327 9.75465 51.673 9.07812 49.1084 9.07812H47.3148V7.28452H49.1084C51.3111 7.28452 52.0034 6.63945 52.0034 5.72692C52.0034 4.59412 50.8391 4.10639 47.9914 4.10639C45.4898 4.10639 43.8063 4.48399 42.8151 5.03465C44.2626 4.67279 45.946 4.98745 45.946 6.34052C45.946 7.52052 44.6402 7.86665 43.4602 7.86665C41.698 7.86665 40.4079 7.09572 40.4079 5.72692C40.4079 3.61865 43.413 2.35999 48.7938 2.35999C54.8983 2.35999 57.6044 3.53999 57.6044 5.61679C57.6044 7.28452 55.8895 7.99252 53.9071 8.00825Z" fill="#FFBB00"/>
</svg>
